<?xml version="1.0" encoding="utf-8"?>
<!-- Generator: Adobe Illustrator 22.0.1, SVG Export Plug-In . SVG Version: 6.00 Build 0)  -->
<svg version="1.1" id="Шар_1" xmlns="http://www.w3.org/2000/svg" xmlns:xlink="http://www.w3.org/1999/xlink" x="0px" y="0px"
	 width="81.153px" height="76.611px" viewBox="0 0 81.153 76.611" enable-background="new 0 0 81.153 76.611" xml:space="preserve">
<title>Ресурс 43</title>
<g id="Шар_2_1_">
	<g id="Шар_1-2">
		<path fill="none" stroke="#000000" stroke-linecap="round" stroke-linejoin="round" d="M54.738,38.755
			c-2.595-2.171-3.592-5.77-3.536-9.192s0.962-6.689,1.541-10.027c0.857-4.884,1.014-9.865,0.467-14.793
			c-0.06-0.905-0.285-1.792-0.665-2.616c-0.378-0.833-1.133-1.435-2.029-1.619c-0.91-0.068-1.79,0.345-2.319,1.089
			c-0.526,0.75-0.797,1.651-0.771,2.567c0.007,3.076,2.086,5.65,3.748,8.217c3.14,4.886,4.965,10.5,5.296,16.299
			c0.177,3.593-0.499,7.177-1.973,10.458c-1.11,2.765-2.411,5.876-4.95,6.364c-1.506,0.262-2.539-5.763-0.863-6.307
			c1.676-0.544,3.231,0.629,5.346,2.093c1.548,1.164,2.995,2.455,4.327,3.861c4.278,3.684,10.394,3.182,11.427,3.097
			c4.093-0.365,7.934-2.136,10.868-5.013l-1.096-0.177c-2.263,0.156-4.363-1.195-5.968-2.786c-1.605-1.591-2.892-3.5-4.632-4.957
			c-1.739-1.457-4.101-2.489-6.265-1.725c-2.581,0.884-3.769,3.769-4.851,6.265c-0.813,2.2-2.034,4.228-3.599,5.975
			c-1.608,1.755-3.944,2.657-6.314,2.44c-2.846-0.535-4.967-2.93-5.155-5.819c-0.055-2.879,1.615-5.512,4.243-6.689
			c2.649-1.102,5.68-0.748,8.004,0.933"/>
		<path fill="none" stroke="#000000" stroke-linecap="round" stroke-linejoin="round" d="M39.026,50.832
			c-2.432-2.348-6.124-2.956-9.482-2.553c-3.359,0.403-6.548,1.683-9.793,2.638c-4.774,1.389-9.722,2.09-14.694,2.079
			c-0.902,0.046-1.805-0.071-2.666-0.346c-0.871-0.284-1.554-0.967-1.838-1.838c-0.185-0.911,0.13-1.852,0.827-2.468
			c0.688-0.596,1.547-0.96,2.454-1.039c3.041-0.339,5.855,1.457,8.591,2.835c5.178,2.603,10.941,3.826,16.73,3.55
			c3.59-0.214,7.077-1.278,10.175-3.104c2.623-1.407,5.579-3.033,5.756-5.643c0.106-1.52-5.989-1.902-6.357-0.177
			c-0.368,1.725,0.983,3.147,2.659,5.091c1.328,1.409,2.768,2.707,4.306,3.882c4.13,3.847,4.313,9.97,4.327,11.031
			c0.072,4.105-1.271,8.11-3.804,11.342l-0.318-1.096c-0.099-2.263-1.655-4.2-3.415-5.621c-1.761-1.421-3.804-2.503-5.459-4.045
			c-1.655-1.541-2.85-3.84-2.355-6.046c0.608-2.659,3.33-4.165,5.706-5.494c2.101-1.042,3.983-2.478,5.544-4.229
			c1.573-1.787,2.22-4.207,1.747-6.541c-0.839-2.771-3.45-4.62-6.343-4.49c-2.832,0.287-5.225,2.225-6.095,4.936
			c-0.794,2.749-0.109,5.713,1.81,7.835"/>
		<path fill="#EFD5DF" d="M47.066,72.052c-1.195,0.219-1.414-2.319-5.112-4.787c-2.15-1.442-4.653-2.277-5.777-3.953
			c-0.626-0.845-0.934-1.884-0.87-2.934c0.049-0.417,0.247-1.534,2.503-3.62c2.97-2.758,4.837-3.719,6.053-3.521
			c2.687,0.481,3.818,4.667,4.405,6.682C49.753,65.292,48.94,71.663,47.066,72.052z"/>
		<path fill="#EFD5DF" d="M76.587,44.553c0.177-1.237-2.39-1.273-5.084-4.815c-1.57-2.065-2.56-4.511-4.299-5.53
			c-0.897-0.556-1.961-0.778-3.005-0.629c-0.41,0.071-1.513,0.339-3.458,2.722c-2.546,3.111-3.422,5.063-3.14,6.251
			c0.643,2.652,4.95,3.536,6.937,3.995C70.018,47.685,76.326,46.483,76.587,44.553z"/>
	</g>
</g>
</svg>
