<?xml version="1.0" encoding="utf-8"?>
<!-- Generator: Adobe Illustrator 22.1.0, SVG Export Plug-In . SVG Version: 6.00 Build 0)  -->
<svg version="1.1" id="Layer_1" xmlns="http://www.w3.org/2000/svg" xmlns:xlink="http://www.w3.org/1999/xlink" x="0px" y="0px"
	 width="78px" height="78px" viewBox="0 0 78 78" enable-background="new 0 0 78 78" xml:space="preserve">
<g>
	<path fill="#F3BE67" d="M47.476,2.115c2.322,0,4.323,1.49,4.978,3.707c0.894,3.025,3.719,5.138,6.87,5.138
		c0.564,0,1.13-0.067,1.682-0.2c0.41-0.099,0.826-0.149,1.236-0.149c1.575,0,3.048,0.723,4.042,1.985
		c0.981,1.245,1.329,2.848,0.956,4.398c-0.894,3.713,1.275,7.47,4.938,8.552c1.739,0.514,3.058,1.867,3.527,3.619
		c0.469,1.752,0.004,3.583-1.246,4.898c-2.631,2.769-2.631,7.106,0,9.875c1.249,1.315,1.715,3.146,1.246,4.898
		c-0.469,1.752-1.788,3.105-3.527,3.619c-3.663,1.082-5.832,4.839-4.938,8.552c0.373,1.55,0.025,3.153-0.956,4.398
		c-0.994,1.261-2.467,1.985-4.042,1.985c-0.41,0-0.826-0.05-1.236-0.149c-0.552-0.133-1.118-0.2-1.682-0.2
		c-3.151,0-5.976,2.113-6.87,5.138c-0.655,2.217-2.656,3.707-4.978,3.707c-1.315,0-2.571-0.506-3.538-1.425
		c-1.338-1.271-3.092-1.972-4.938-1.972c-1.846,0-3.599,0.7-4.938,1.972c-0.967,0.919-2.224,1.425-3.538,1.425
		c-2.322,0-4.323-1.49-4.978-3.707c-0.894-3.025-3.719-5.138-6.87-5.138c-0.564,0-1.13,0.067-1.682,0.2
		c-0.41,0.099-0.826,0.149-1.236,0.149c-1.575,0-3.048-0.723-4.042-1.985c-0.981-1.245-1.329-2.848-0.956-4.398
		c0.894-3.713-1.275-7.47-4.938-8.552c-1.739-0.514-3.058-1.867-3.527-3.619c-0.469-1.752-0.004-3.583,1.245-4.898
		c2.631-2.769,2.631-7.106,0-9.875c-1.249-1.315-1.715-3.146-1.245-4.898c0.469-1.752,1.788-3.105,3.527-3.619
		c3.663-1.082,5.832-4.839,4.938-8.552c-0.373-1.55-0.025-3.153,0.956-4.398c0.994-1.261,2.467-1.985,4.042-1.985
		c0.41,0,0.826,0.05,1.236,0.149c0.552,0.133,1.118,0.2,1.682,0.2c3.151,0,5.976-2.113,6.87-5.138
		c0.655-2.217,2.656-3.707,4.978-3.707c1.314,0,2.571,0.506,3.538,1.425C35.401,4.812,37.154,5.512,39,5.512
		c1.846,0,3.599-0.7,4.938-1.972C44.905,2.621,46.161,2.115,47.476,2.115 M47.476,1.115c-1.492,0-3.005,0.539-4.227,1.7l0,0
		c-1.19,1.131-2.72,1.697-4.249,1.697s-3.058-0.566-4.249-1.697l0,0c-1.222-1.161-2.735-1.7-4.227-1.7
		c-2.586,0-5.109,1.62-5.937,4.423v0c-0.79,2.672-3.238,4.421-5.911,4.421c-0.478,0-0.963-0.056-1.448-0.173l0,0
		c-0.498-0.12-0.99-0.177-1.47-0.177c-3.845,0-6.929,3.634-5.97,7.617v0c0.769,3.193-1.099,6.428-4.249,7.359h0
		c-4.42,1.306-5.898,6.823-2.723,10.164l0,0c2.262,2.381,2.262,6.117,0,8.497l0,0c-3.175,3.341-1.697,8.858,2.723,10.164h0
		c3.15,0.931,5.017,4.166,4.249,7.359v0c-0.959,3.984,2.125,7.617,5.97,7.617c0.48,0,0.973-0.057,1.47-0.177h0
		c0.484-0.117,0.969-0.173,1.448-0.173c2.674,0,5.122,1.75,5.911,4.421v0c0.829,2.804,3.35,4.423,5.937,4.423
		c1.492,0,3.005-0.539,4.227-1.7l0,0c1.19-1.131,2.72-1.697,4.249-1.697s3.058,0.566,4.249,1.697l0,0
		c1.222,1.161,2.735,1.7,4.227,1.7c2.586,0,5.109-1.62,5.937-4.423v0c0.79-2.672,3.238-4.421,5.911-4.421
		c0.478,0,0.963,0.056,1.448,0.173h0c0.498,0.12,0.99,0.177,1.47,0.177c3.845,0,6.929-3.634,5.97-7.617v0
		c-0.769-3.193,1.099-6.428,4.249-7.359c4.42-1.306,5.898-6.823,2.723-10.164l0,0c-2.262-2.381-2.262-6.117,0-8.497l0,0
		c3.175-3.341,1.697-8.858-2.723-10.164c-3.15-0.931-5.017-4.166-4.249-7.359v0c0.959-3.984-2.125-7.617-5.97-7.617
		c-0.48,0-0.973,0.057-1.47,0.177l0,0c-0.484,0.117-0.969,0.173-1.448,0.173c-2.674,0-5.122-1.75-5.911-4.421v0
		C52.584,2.735,50.062,1.115,47.476,1.115L47.476,1.115z"/>
</g>
<g>
	<path fill="#F3BE67" d="M39,1c1.814,0,3.462,0.924,4.408,2.471c1.313,2.146,3.601,3.428,6.119,3.428
		c1.188,0,2.371-0.301,3.42-0.872c0.776-0.422,1.604-0.636,2.463-0.636c2.479,0,5.092,1.887,5.173,5.044
		c0.098,3.818,3.165,6.885,6.983,6.983c1.813,0.046,3.437,1.012,4.344,2.582c0.907,1.571,0.931,3.46,0.065,5.053
		c-1.825,3.355-0.702,7.545,2.556,9.539C76.076,35.538,77,37.186,77,39s-0.924,3.462-2.471,4.408
		c-3.258,1.993-4.38,6.183-2.556,9.539c0.866,1.593,0.842,3.482-0.065,5.053c-0.907,1.571-2.531,2.536-4.344,2.582
		c-3.818,0.098-6.885,3.165-6.983,6.983c-0.081,3.157-2.694,5.044-5.173,5.044c-0.858,0-1.686-0.214-2.462-0.636
		c-1.049-0.57-2.231-0.872-3.42-0.872c-2.518,0-4.806,1.281-6.119,3.428C42.462,76.076,40.814,77,39,77
		c-1.814,0-3.462-0.924-4.408-2.471c-1.313-2.146-3.601-3.427-6.119-3.428c-1.188,0-2.371,0.301-3.42,0.872
		c-0.776,0.422-1.604,0.636-2.462,0.636c-2.48,0-5.093-1.887-5.173-5.044c-0.098-3.818-3.165-6.885-6.983-6.983
		C8.622,60.536,6.998,59.571,6.091,58c-0.907-1.571-0.931-3.46-0.065-5.053c1.825-3.355,0.702-7.545-2.556-9.539
		C1.924,42.462,1,40.814,1,39s0.924-3.462,2.471-4.408c3.258-1.993,4.38-6.183,2.556-9.539C5.16,23.46,5.184,21.571,6.091,20
		c0.907-1.571,2.531-2.536,4.344-2.582c3.818-0.098,6.885-3.165,6.983-6.983c0.081-3.157,2.694-5.044,5.173-5.044
		c0.858,0,1.686,0.214,2.462,0.636c1.049,0.57,2.231,0.872,3.42,0.872c2.518,0,4.806-1.281,6.119-3.428C35.538,1.924,37.186,1,39,1
		 M39,0c-2.029,0-4.058,0.983-5.261,2.949l0,0c-1.159,1.894-3.184,2.95-5.266,2.95c-0.997,0-2.007-0.242-2.942-0.75h0
		c-0.955-0.519-1.96-0.757-2.94-0.757c-3.174,0-6.083,2.498-6.173,6.019v0c-0.084,3.283-2.726,5.925-6.009,6.009h0
		c-4.608,0.118-7.463,5.064-5.261,9.113l0,0c1.569,2.885,0.602,6.494-2.199,8.208c-3.932,2.406-3.932,8.117,0,10.523
		c2.801,1.714,3.768,5.323,2.199,8.208l0,0c-2.202,4.049,0.654,8.995,5.261,9.113h0c3.283,0.084,5.925,2.726,6.009,6.009v0
		c0.09,3.521,2.999,6.019,6.173,6.019c0.98,0,1.985-0.238,2.94-0.757l0,0c0.935-0.508,1.944-0.75,2.942-0.75
		c2.082,0,4.107,1.056,5.266,2.95h0C34.942,77.017,36.971,78,39,78s4.058-0.983,5.261-2.949h0c1.159-1.894,3.184-2.95,5.266-2.95
		c0.997,0,2.007,0.242,2.942,0.75l0,0c0.955,0.519,1.96,0.757,2.94,0.757c3.174,0,6.083-2.498,6.173-6.019v0
		c0.084-3.283,2.726-5.925,6.009-6.009h0c4.608-0.118,7.463-5.064,5.261-9.113v0c-1.569-2.885-0.602-6.494,2.199-8.208h0
		c3.932-2.406,3.932-8.117,0-10.523h0c-2.801-1.714-3.768-5.323-2.199-8.208v0c2.202-4.049-0.654-8.995-5.261-9.113h0
		c-3.283-0.084-5.925-2.726-6.009-6.009v0c-0.09-3.521-2.999-6.019-6.173-6.019c-0.98,0-1.985,0.238-2.94,0.757h0
		c-0.935,0.508-1.944,0.75-2.942,0.75c-2.082,0-4.107-1.056-5.266-2.95l0,0C43.058,0.983,41.029,0,39,0L39,0z"/>
</g>
</svg>
