<?xml version="1.0" encoding="utf-8"?>
<!-- Generator: Adobe Illustrator 22.1.0, SVG Export Plug-In . SVG Version: 6.00 Build 0)  -->
<svg version="1.1" id="Layer_1" xmlns="http://www.w3.org/2000/svg" xmlns:xlink="http://www.w3.org/1999/xlink" x="0px" y="0px"
	 width="32px" height="32px" viewBox="0 0 32 32" enable-background="new 0 0 32 32" xml:space="preserve"     fill="#f9c268">
<path d="M29.334,3H25V1c0-0.553-0.447-1-1-1s-1,0.447-1,1v2h-6V1c0-0.553-0.448-1-1-1s-1,0.447-1,1v2H9V1c0-0.553-0.448-1-1-1
	S7,0.447,7,1v2H2.667C1.194,3,0,4.193,0,5.666v23.667C0,30.807,1.194,32,2.667,32h26.667C30.807,32,32,30.807,32,29.333V5.666
	C32,4.193,30.807,3,29.334,3z M30,29.333C30,29.701,29.701,30,29.334,30H2.667C2.299,30,2,29.701,2,29.333V5.666
	C2,5.299,2.299,5,2.667,5H7v2c0,0.553,0.448,1,1,1s1-0.447,1-1V5h6v2c0,0.553,0.448,1,1,1s1-0.447,1-1V5h6v2c0,0.553,0.447,1,1,1
	s1-0.447,1-1V5h4.334C29.701,5,30,5.299,30,5.666V29.333z"/>
<path d="M7,12h4v3H7V12z"/>
<path d="M7,17h4v3H7V17z"/>
<path d="M7,22h4v3H7V22z"/>
<path d="M14,22h4v3h-4V22z"/>
<path d="M14,17h4v3h-4V17z"/>
<path d="M14,12h4v3h-4V12z"/>
<path d="M21,22h4v3h-4V22z"/>
<path d="M21,17h4v3h-4V17z"/>
<path d="M21,12h4v3h-4V12z"/>
</svg>
