<?xml version="1.0" encoding="utf-8"?>
<!-- Generator: Adobe Illustrator 22.0.1, SVG Export Plug-In . SVG Version: 6.00 Build 0)  -->
<svg version="1.1" id="Шар_1" xmlns="http://www.w3.org/2000/svg" xmlns:xlink="http://www.w3.org/1999/xlink" x="0px" y="0px"
	 width="119.52px" height="147.926px" viewBox="0 0 119.52 147.926" enable-background="new 0 0 119.52 147.926"
	 xml:space="preserve">
<g>
	<g>
		<path d="M35.358,56.803C14.464,61.542-5.805,36.44,3.17,17.133C9.236,4.087,25.714-1.242,38.452,5.247
			c6.958,3.544,12.288,10.418,14.44,17.905C56.846,36.906,49.632,52.99,35.358,56.803c-0.621,0.166-0.358,1.131,0.266,0.964
			c12.993-3.47,20.509-16.784,19.181-29.802c-0.873-8.56-5.701-16.819-12.768-21.739c-11.29-7.859-27.825-5.719-36.45,5.114
			C-2.824,21.906-1.219,36.05,6.931,46.174c6.74,8.372,17.878,14.047,28.693,11.593C36.251,57.625,35.986,56.66,35.358,56.803z"/>
	</g>
</g>
<path fill="none" stroke="#000000" stroke-linecap="round" stroke-linejoin="round" stroke-miterlimit="10" d="M38.809,65.221
	c1.691-1.044,3.648,1.219,3.752,3.204c0.103,1.985-0.59,4.113,0.307,5.886c0.8,1.581,2.675,2.42,3.416,4.03
	c1.225,2.664-1.237,5.79-0.511,8.63c0.957,3.739,6.804,4.963,6.983,8.819c0.128,2.748-2.889,5.534-1.401,7.848
	c1.145,1.781,4.034,1.447,5.467,3.006c1.971,2.145-0.21,5.977,1.41,8.398c1.24,1.853,4.354,2.265,4.759,4.457
	c0.392,2.124-2.211,3.658-2.569,5.788c-0.277,1.652,0.873,3.21,2.166,4.275c1.293,1.065,2.82,1.901,3.794,3.264
	c1.552,2.172,1.325,5.082,1.388,7.751c0.063,2.669,0.798,5.767,3.239,6.847"/>
<path fill="none" stroke="#000000" stroke-linecap="round" stroke-linejoin="round" stroke-miterlimit="10" d="M33.513,57.771
	c-0.662,3.372-1.324,6.744-1.987,10.116c0.504,0.237,1.227,0.486,1.692,0.166c0.555-0.381,0.338-1.292,0.847-1.505
	c0.52-0.217,1.019,0.621,1.625,0.417c0.58-0.196,0.508-1.093,1.042-1.208c0.49-0.105,0.779,0.602,1.25,0.5
	c0.58-0.125,0.49-1.276,1.083-1.458c0.654-0.201,1.391,1.006,1.792,0.792c0.362-0.193-0.118-1.241,0.292-1.625
	c0.272-0.255,0.965-0.245,2.75,0.792c0.014-0.528,0.028-1.056,0.042-1.583c0.04,0.016,0.494,0.193,0.914-0.083
	c0.319-0.21,0.52-0.619,0.426-0.914c-0.141-0.444-0.91-0.579-1.465-0.643c-1.06-0.121-2.656-0.687-4.917-2.735
	c-0.484-0.439-1.225-1.03-1.981-1.921"/>
<g>
	<g>
		<path d="M65.531,83.78c-13.599-0.841-20.827-19.744-12.409-29.857c5.846-7.023,16.815-7.651,23.446-1.351
			c3.602,3.422,5.548,8.619,5.509,13.563C82.005,75.24,74.939,83.811,65.531,83.78c-0.644-0.002-0.644,0.998,0,1
			c15.763,0.052,22.402-20.166,13.113-31.444c-5.663-6.876-16.321-8.203-23.431-2.785c-7.185,5.475-8.41,15.065-4.721,22.952
			c2.78,5.945,8.307,10.86,15.039,11.276C66.173,84.82,66.171,83.82,65.531,83.78z"/>
	</g>
</g>
<path fill="none" stroke="#000000" stroke-linecap="round" stroke-linejoin="round" stroke-miterlimit="10" d="M64.185,88.967
	c1.216-0.351,1.997,1.401,1.702,2.653c-0.295,1.252-1.1,2.452-0.875,3.712c0.201,1.124,1.189,1.976,1.349,3.107
	c0.264,1.871-1.796,3.379-1.866,5.273c-0.093,2.492,3.24,4.284,2.653,6.711c-0.418,1.73-2.753,2.93-2.266,4.63
	c0.375,1.309,2.19,1.611,2.78,2.832c0.811,1.68-1.206,3.677-0.658,5.467c0.419,1.37,2.238,2.175,2.088,3.609
	c-0.145,1.389-2.003,1.883-2.605,3.144c-0.466,0.978-0.048,2.149,0.545,3.038c0.594,0.89,1.371,1.679,1.717,2.697
	c0.551,1.624-0.111,3.392-0.554,5.062s-0.555,3.724,0.734,4.826"/>
<path fill="none" stroke="#000000" stroke-linecap="round" stroke-linejoin="round" stroke-miterlimit="10" d="M64.241,84.234
	c-1.01,1.979-2.021,3.957-3.031,5.936c0.264,0.236,0.658,0.518,0.998,0.402c0.406-0.139,0.438-0.743,0.786-0.786
	c0.355-0.043,0.507,0.566,0.912,0.545c0.388-0.019,0.506-0.59,0.851-0.567c0.317,0.021,0.365,0.511,0.669,0.531
	c0.375,0.024,0.528-0.707,0.921-0.715c0.434-0.009,0.664,0.87,0.946,0.808c0.255-0.056,0.152-0.792,0.47-0.958
	c0.211-0.111,0.631,0.018,1.528,0.977c0.104-0.326,0.207-0.651,0.311-0.977c0.021,0.017,0.266,0.207,0.57,0.11
	c0.232-0.074,0.428-0.293,0.424-0.493c-0.006-0.301-0.448-0.52-0.774-0.658c-0.622-0.262-1.49-0.896-2.494-2.567
	c-0.215-0.358-0.559-0.856-0.858-1.543"/>
<g>
	<g>
		<path d="M85.738,53.831C68.771,47.812,59.796,21.49,73.325,7.884c10.173-10.231,27.105-8.315,36.945,1.348
			c6.945,6.821,9.856,17.386,7.422,26.831C114.118,49.933,99.32,58.122,85.738,53.831c-0.615-0.194-0.878,0.771-0.266,0.964
			c12.472,3.94,26.002-2.152,31.543-13.993c4.223-9.026,2.985-20.415-2.795-28.476c-7.952-11.089-23.964-16.023-36.222-9.21
			c-10.76,5.98-14.007,18.571-11.07,29.935c2.469,9.55,9.073,18.384,18.544,21.744C86.08,55.011,86.341,54.045,85.738,53.831z"/>
	</g>
</g>
<path fill="none" stroke="#000000" stroke-linecap="round" stroke-linejoin="round" stroke-miterlimit="10" d="M84.541,62.506
	c2.033,0.072,2.638,2.997,1.731,4.678c-0.907,1.681-2.596,3.043-2.689,4.986c-0.083,1.733,1.166,3.446,1.015,5.17
	c-0.249,2.851-4.016,4.06-4.798,6.783c-1.029,3.584,3.566,7.79,1.785,11.043c-1.269,2.319-5.359,2.946-5.198,5.655
	c0.124,2.085,2.866,3.395,3.359,5.456c0.677,2.835-3.195,4.776-2.97,7.646c0.173,2.196,2.74,4.239,1.998,6.255
	c-0.719,1.953-3.811,1.782-5.202,3.33c-1.078,1.2-0.838,3.106-0.221,4.685c0.616,1.58,1.556,3.101,1.738,4.75
	c0.29,2.628-1.377,4.885-2.664,7.104s-2.191,5.157-0.559,7.378"/>
<path fill="none" stroke="#000000" stroke-linecap="round" stroke-linejoin="round" stroke-miterlimit="10" d="M82.472,61.828
	c0.478,0.177,0.378,0.903,0.838,1.072c0.567,0.209,1.06-0.77,1.667-0.6c0.668,0.187,0.708,1.556,1.163,1.597
	c0.411,0.037,0.515-1.066,1.061-1.158c0.363-0.061,0.96,0.318,1.996,2.11c0.275-0.419,0.549-0.839,0.823-1.258
	c0.026,0.034,0.333,0.42,0.835,0.421c0.382,0,0.76-0.223,0.825-0.511c0.098-0.434-0.502-0.954-0.953-1.302
	c-1.604-1.239-2.188-3.038-2.913-4.839c-0.242-0.602-0.548-1.484-0.767-2.612"/>
<g>
	<g>
		<path d="M83.155,53.486c-0.425,1.624-1.11,3.109-2.064,4.491c-0.366,0.531,0.5,1.031,0.863,0.505
			c0.998-1.446,1.72-3.03,2.165-4.73C84.282,53.128,83.318,52.862,83.155,53.486L83.155,53.486z"/>
	</g>
</g>
<g>
	<path fill="#EFD5DF" d="M36.376,54.177c-11.905,2.932-21.718-6.326-23.159-7.731C11.54,44.812,2.952,36.014,4.776,23.898
		c0.733-4.869,3.057-9.485,6.533-12.972c6.144-6.166,15.83-8.424,24.147-5.856c12.944,3.997,16.776,16.764,17.164,18.178
		c2.273,8.3,0.502,17.957-5.637,24.506C45.767,49.051,42.219,52.738,36.376,54.177z"/>
</g>
<g>
	<path fill="#EFD5DF" d="M64.146,82.308c-7.232-0.071-11.032-7.576-11.582-8.707c-0.64-1.315-3.837-8.327-0.57-15.757
		c1.313-2.986,3.473-5.551,6.072-7.208c4.593-2.931,10.454-2.792,14.652,0.202c6.533,4.66,6.324,13.427,6.28,14.393
		c-0.259,5.664-3.041,11.534-7.703,14.71C70.371,80.57,67.696,82.343,64.146,82.308z"/>
</g>
<g>
	<path fill="#EFD5DF" d="M84.615,51.84c-11.738-3.8-15.342-16.807-15.848-18.756c-0.588-2.266-3.381-14.238,4.485-23.524
		c3.161-3.731,7.556-6.409,12.351-7.526c8.478-1.974,17.962,1.225,23.762,7.785c9.026,10.209,5.674,23.029,5.271,24.43
		c-2.366,8.219-8.908,15.453-17.581,17.754C95.338,52.458,90.377,53.705,84.615,51.84z"/>
</g>
</svg>
