<?xml version="1.0" encoding="utf-8"?>
<!-- Generator: Adobe Illustrator 22.1.0, SVG Export Plug-In . SVG Version: 6.00 Build 0)  -->
<svg version="1.1" id="Шар_1" xmlns="http://www.w3.org/2000/svg" xmlns:xlink="http://www.w3.org/1999/xlink" x="0px" y="0px"
	 width="465.398px" height="575.556px" viewBox="0 0 465.398 575.556" enable-background="new 0 0 465.398 575.556"
	 xml:space="preserve">
<g>
	<g>
		<g>
			<path d="M27.447,343.936c-1.337,5.259-2.824,11.163-2.305,16.627c0.202,2.124,0.988,3.969,1.974,5.834
				c1.531,2.896,2.611,5.684,2.926,8.963c0.061,0.635,1.062,0.641,1,0c-0.215-2.237-0.673-4.39-1.56-6.465
				c-1.005-2.353-2.568-4.465-3.129-6.996c-1.244-5.617,0.67-12.241,2.057-17.697C28.57,343.578,27.606,343.311,27.447,343.936
				L27.447,343.936z"/>
		</g>
	</g>
	<g>
		<g>
			<path d="M59.619,385.64c-0.294,4.821,0.927,8.826,2.767,13.173c2.558,6.041,4.923,12.122,6.71,18.443
				c2.469,8.735,2.259,17.894,2.032,26.895c-0.694,27.556-2.813,55.032-0.362,82.574c1.445,16.238,4.361,32.388,9.799,47.789
				c0.213,0.603,1.179,0.343,0.964-0.266c-9.896-28.023-11.457-58.181-10.909-87.65c0.239-12.837,0.962-25.655,1.39-38.486
				c0.295-8.834,0.817-18.056-0.864-26.791c-1.295-6.728-3.845-13.335-6.472-19.643c-2.238-5.373-4.422-10.033-4.056-16.04
				C60.658,384.998,59.658,385,59.619,385.64L59.619,385.64z"/>
		</g>
	</g>
	<g>
		<g>
			<path d="M64.124,345.78c1.471,4.195,1.989,8.556,1.557,12.98c-0.063,0.64,0.938,0.636,1,0c0.441-4.511-0.093-8.97-1.593-13.246
				C64.877,344.911,63.91,345.171,64.124,345.78L64.124,345.78z"/>
		</g>
	</g>
	<g>
		<g>
			<path d="M6.739,570.388c6.841-0.902,13.779-0.943,20.566,0.397c3.096,0.611,6.1,1.545,9.092,2.538
				c2.545,0.844,5.182,1.828,7.896,1.876c4.775,0.086,8.273-3.429,10.132-7.541c2.126-4.704,1.902-9.382,0.919-14.346
				c-1.512-7.64-1.171-15.329,0.42-22.936c0.131-0.628-0.832-0.896-0.964-0.266c-1.508,7.211-1.994,14.603-0.721,21.889
				c0.736,4.211,1.679,8.154,0.471,12.409c-0.726,2.555-1.91,5.104-3.785,7.019c-5.849,5.973-14.644,0.371-21.255-1.187
				c-7.473-1.761-15.18-1.852-22.771-0.851C6.11,569.471,6.101,570.472,6.739,570.388L6.739,570.388z"/>
		</g>
	</g>
	<g>
		<g>
			<path d="M81.048,573.883c-5.995,0.496-12.465,1.15-18.437,0.051c-2.245-0.413-3.731-1.418-4.294-3.799
				c-0.536-2.269,0.502-4.069,0.722-6.217c0.483-4.704-0.375-9.753-0.746-14.434c-0.512-6.465-1.322-12.896-2.398-19.291
				c-0.107-0.633-1.07-0.365-0.964,0.266c1.308,7.774,2.113,15.576,2.7,23.434c0.315,4.216,0.792,8.239-0.19,12.346
				c-0.917,3.838,0.433,7.71,4.473,8.576c6.143,1.317,12.95,0.579,19.134,0.067C81.685,574.83,81.691,573.829,81.048,573.883
				L81.048,573.883z"/>
		</g>
	</g>
	<g>
		<g>
			<path d="M18.508,336.017c17.539,7.583,37.527,8.004,55.347,1.078c0.593-0.231,0.335-1.198-0.266-0.964
				c-17.553,6.822-37.282,6.5-54.576-0.977C18.428,334.901,17.919,335.762,18.508,336.017L18.508,336.017z"/>
		</g>
	</g>
	<g>
		<g>
			<path d="M17.994,335.715c-0.827,4.055-1.654,8.11-2.481,12.165c-0.128,0.628,0.836,0.897,0.964,0.266
				c0.827-4.055,1.654-8.11,2.481-12.165C19.087,335.352,18.123,335.083,17.994,335.715L17.994,335.715z"/>
		</g>
	</g>
	<g>
		<g>
			<path d="M15.642,348.366c2.47,3.048,6.32,4.611,10.218,4.159c0.632-0.073,0.639-1.074,0-1c-3.661,0.425-7.192-1.004-9.511-3.866
				C15.944,347.159,15.24,347.87,15.642,348.366L15.642,348.366z"/>
		</g>
	</g>
	<g>
		<g>
			<path d="M73.617,336.508c0.869,4.259,1.737,8.518,2.606,12.778c0.129,0.63,1.093,0.363,0.964-0.266
				c-0.869-4.259-1.737-8.518-2.606-12.778C74.453,335.612,73.489,335.878,73.617,336.508L73.617,336.508z"/>
		</g>
	</g>
	<g>
		<g>
			<path d="M76.352,348.799c-2.374,2.969-6.13,4.416-9.883,3.705c-0.629-0.119-0.898,0.845-0.266,0.964
				c4.091,0.775,8.247-0.699,10.856-3.962C77.457,349.008,76.754,348.296,76.352,348.799L76.352,348.799z"/>
		</g>
	</g>
	<path fill="none" stroke="#000000" stroke-miterlimit="10" d="M24.085,296.369c3.404,10.494,12.383,17.564,21.432,17.572
		c12.126,0.01,24.047-12.663,22.329-28.683"/>
	<g>
		<g>
			<path d="M72.949,285.552c-10.369-0.235-20.613-3.972-26.469-12.98c-0.349-0.538-1.216-0.037-0.863,0.505
				c6.051,9.309,16.592,13.231,27.332,13.475C73.593,286.566,73.593,285.566,72.949,285.552L72.949,285.552z"/>
		</g>
	</g>
	<g>
		<g>
			<path d="M46.75,263.45c7.256-0.182,14.801,2.063,19.857,7.479c6.399,6.855,7.433,16.03,7.204,24.969
				c-0.289,11.268-1.562,23.163,2.609,33.901c1.484,3.822,3.424,7.478,5.878,10.769c1.306,1.751,2.75,3.398,4.342,4.895
				c0.698,0.656,1.423,1.349,2.318,1.728c0.26,0.11,1.515,0.542,1.172,0.218c0.034-0.262,0.067-0.524,0.101-0.785
				c-2.952,2.015-8.73,1.383-11.959,0.23c-3.631-1.296-2.771-8.159-3.99-11.403c-0.417-1.111-1.009-1.908-1.832-2.738
				c-1.896-1.911-3.385-4.095-4.483-6.556c-2.144-4.807-3.005-10.21-2.717-15.443c0.035-0.643-0.965-0.641-1,0
				c-0.291,5.301,0.598,10.7,2.7,15.588c1.113,2.587,2.634,5,4.643,6.982c1.367,1.348,1.939,2.788,2.284,4.655
				c0.641,3.476,0.455,9.427,4.818,10.257c3.602,0.685,8.802,1.503,12.041-0.708c0.256-0.175,0.349-0.551,0.101-0.785
				c-0.142-0.134-0.333-0.099-0.448-0.19c0.462,0.366-2.853-1.288-1.597-0.533c-0.621-0.374-1.206-0.998-1.73-1.492
				c-1.777-1.673-3.354-3.591-4.741-5.594c-2.207-3.187-3.973-6.683-5.298-10.323c-1.401-3.849-2.135-7.66-2.349-11.752
				c-0.433-8.267,0.145-16.558,0.232-24.826c0.083-7.886-2.268-16.326-7.894-22.096c-5.235-5.37-12.899-7.632-20.261-7.447
				C46.108,262.467,46.105,263.467,46.75,263.45L46.75,263.45z"/>
		</g>
	</g>
	<g>
		<g>
			<path d="M50.453,313.406c0.252,5.464,1.1,11.001,6.155,14.069c0.552,0.335,1.055-0.53,0.505-0.863
				c-4.746-2.88-5.425-8.111-5.66-13.206C51.423,312.765,50.423,312.762,50.453,313.406L50.453,313.406z"/>
		</g>
	</g>
	<g>
		<g>
			<path d="M24.799,352.585c-1.126,12.399,3.882,28.968,17.092,32.986c1.374,0.418,2.705,0.469,4.11,0.678
				c1.074,0.16,2.101,0.486,3.079,0.964c1.454,0.71,1.638,1.928-0.183,2.212c-3.605,0.563-7.146-0.326-10.182-2.315
				c-5.593-3.666-11.114-7.32-14.563-13.237c-4.497-7.715-6.727-16.697-7.396-25.542c-0.048-0.638-1.049-0.643-1,0
				c0.623,8.237,2.576,16.403,6.316,23.8c1.225,2.422,2.653,4.761,4.447,6.806c2.895,3.298,6.428,5.063,9.826,7.657
				c2.554,1.95,5.266,3.496,8.506,3.889c1.353,0.164,6.861,0.605,7.19-1.648c0.32-2.191-4.569-3.401-5.998-3.6
				c-4.873-0.68-9.027-2.304-12.44-6.042c-6.294-6.891-8.628-17.558-7.806-26.607C25.857,351.945,24.857,351.949,24.799,352.585
				L24.799,352.585z"/>
		</g>
	</g>
	<path fill="none" stroke="#000000" stroke-miterlimit="10" d="M67.12,353.182c-0.262,8.503-2.333,15.043-3.969,19.091
		c-1.501,3.715-7.074,17.502-14.682,19.675c-0.53,0.151-2.705,0.714-4.83,2.461c-2.035,1.673-3.916,4.347-3.276,5.24
		c0.599,0.836,3.42,0.132,5.313-1.088c1.04-0.671,1.157-1.083,2.899-2.585c1.61-1.389,2.876-2.216,3.29-2.507
		c1.695-1.19,9.213-7.515,15.296-17.845c5.976-10.147,7.966-19.741,8.713-25.56"/>
	<g>
		<g>
			<path d="M19.033,335.487c2.037-3.017,4.59-5.597,8.229-6.427c2.94-0.67,5.866-1.096,8.62-2.442
				c4.868-2.379,5.793-8.586,4.668-13.417c-0.146-0.627-1.11-0.361-0.964,0.266c0.812,3.49,0.58,8.113-2.078,10.837
				c-1.926,1.974-5.205,2.74-7.795,3.293c-1.968,0.42-3.871,0.625-5.674,1.59c-2.483,1.328-4.316,3.495-5.869,5.795
				C17.809,335.517,18.675,336.018,19.033,335.487L19.033,335.487z"/>
		</g>
	</g>
	<g>
		<g>
			<path d="M56.608,327.475c3.16,1.62,6.346,3.238,9.659,4.527c2.821,1.098,6.104,1.227,7.35,4.505
				c0.226,0.596,1.194,0.337,0.964-0.266c-1.158-3.047-3.412-3.672-6.22-4.548c-3.909-1.22-7.62-3.222-11.248-5.082
				C56.541,326.319,56.035,327.181,56.608,327.475L56.608,327.475z"/>
		</g>
	</g>
	<line fill="none" stroke="#000000" stroke-miterlimit="10" x1="56.861" y1="327.044" x2="56.861" y2="327.044"/>
	<g>
		<g>
			<path d="M21.276,323.2c-1.631,3.138-3.261,6.275-4.892,9.413c-1.419,2.73-2.704,5.639-4.567,8.104
				c-1.892,2.503-3.852,3.521-6.953,3.213c-1.426-0.141-2.862-0.447-4.232-0.869c0.074,0.279,0.147,0.557,0.221,0.836
				c12.688-12.07,12.037-30.614,14.266-46.648c1.217-8.757,3.533-17.599,9.834-24.136c5.705-5.92,13.589-9.41,21.798-9.662
				c0.642-0.02,0.645-1.02,0-1c-7.213,0.221-14.152,2.829-19.738,7.406c-6.385,5.231-9.924,12.538-11.692,20.484
				c-3.935,17.685-0.801,39.177-15.173,52.849c-0.281,0.267-0.129,0.728,0.221,0.836c3.337,1.028,7.537,1.865,10.378-0.637
				c2.47-2.175,3.902-5.265,5.391-8.131c2.001-3.851,4.002-7.701,6.003-11.552C22.436,323.135,21.574,322.629,21.276,323.2
				L21.276,323.2z"/>
		</g>
	</g>
	<g>
		<g>
			<path d="M34.622,311.154c-1.631,6.694-3.549,13.954-9.783,17.821c-0.546,0.339-0.044,1.204,0.505,0.863
				c6.475-4.016,8.544-11.447,10.242-18.419C35.739,310.795,34.775,310.529,34.622,311.154L34.622,311.154z"/>
		</g>
	</g>
	<g>
		<g>
			<path d="M5.521,344.971c0.884,0.218,1.789,0.334,2.7,0.226c0.855-0.101,1.71-0.624,2.589-0.454
				c0.765,0.147,1.516,0.839,2.162,1.229c0.955,0.575,1.946,1.083,2.96,1.546c0.581,0.266,1.09-0.596,0.505-0.863
				c-1.713-0.783-3.33-2.238-5.102-2.804c-0.533-0.17-1.086-0.161-1.631-0.059c-1.387,0.259-2.455,0.575-3.917,0.215
				C5.162,343.853,4.896,344.817,5.521,344.971L5.521,344.971z"/>
		</g>
	</g>
	<g>
		<g>
			<path d="M47.971,262.964c-4.444,1.493-8.58,3.651-12.107,6.763c-1.989,1.755-3.714,3.662-6.06,4.982
				c-2.768,1.557-5.829,2.351-8.975,2.62c-0.636,0.054-0.642,1.055,0,1c4.925-0.421,9.534-2.138,13.21-5.505
				c4.354-3.988,8.524-6.99,14.197-8.896C48.844,263.724,48.584,262.758,47.971,262.964L47.971,262.964z"/>
		</g>
	</g>
	<g>
		<g>
			<path d="M47.604,263.61c-3.615,3.103-2.232,7.826-2.067,11.951c0.117,2.919-0.472,4.822-2.697,6.835
				c-2.068,1.872-4.579,3.053-7.083,4.221c-8.576,3.999-15.059,10.336-17.607,19.662c-0.17,0.622,0.795,0.887,0.964,0.266
				c1.279-4.68,3.659-8.942,7.063-12.412c3.708-3.78,8.24-5.592,12.842-7.981c2.69-1.397,6.761-3.901,7.426-7.176
				c0.961-4.733-2.485-10.924,1.865-14.658C48.8,263.897,48.09,263.193,47.604,263.61L47.604,263.61z"/>
		</g>
	</g>
	<g>
		<g>
			<path d="M33.378,293.497c1.93,0,1.934-3,0-3C31.448,290.497,31.444,293.497,33.378,293.497L33.378,293.497z"/>
		</g>
	</g>
	<g>
		<g>
			<path d="M55.333,292.151c0.015-0.109,0.029-0.219,0.044-0.328c0.104-0.774-0.185-1.649-1.048-1.845
				c-0.704-0.16-1.733,0.216-1.845,1.048c-0.015,0.109-0.029,0.219-0.044,0.328c-0.104,0.774,0.185,1.649,1.048,1.845
				C54.192,293.359,55.221,292.983,55.333,292.151L55.333,292.151z"/>
		</g>
	</g>
	<g>
		<g>
			<path d="M41.303,304.671c2.567,1.727,5.833,1.825,8.493,0.241c0.552-0.329,0.05-1.194-0.505-0.863
				c-2.374,1.413-5.198,1.296-7.483-0.241C41.273,303.447,40.772,304.313,41.303,304.671L41.303,304.671z"/>
		</g>
	</g>
	<g>
		
			<ellipse transform="matrix(0.1334 -0.9911 0.9911 0.1334 -267.9964 294.6375)" fill="#EFD5DF" cx="34.479" cy="300.562" rx="2.905" ry="2.96"/>
	</g>
	<g>
		
			<ellipse transform="matrix(0.1334 -0.9911 0.9911 0.1334 -248.6023 314.2063)" fill="#EFD5DF" cx="55.364" cy="299.256" rx="2.905" ry="2.96"/>
	</g>
	<g>
		<g>
			<path d="M57.277,475.517c1.816,18.525,3.631,37.05,5.447,55.575c0.864,8.818,1.908,17.742,0.946,26.598
				c-0.535,4.926-4.787,15.921,3.052,17.526c0.628,0.129,0.897-0.835,0.266-0.964c-5.786-1.185-3.692-8.303-2.951-12.223
				c0.71-3.758,0.993-7.59,1.01-11.411c0.035-8.169-1.009-16.325-1.804-24.443c-1.655-16.886-3.31-33.771-4.965-50.657
				C58.215,474.883,57.215,474.876,57.277,475.517L57.277,475.517z"/>
		</g>
	</g>
	<g>
		<g>
			<path d="M26.042,569.321c2.131-5.098,3.45-10.406,3.984-15.904c0.062-0.64-0.938-0.636-1,0
				c-0.525,5.409-1.853,10.626-3.948,15.638C24.83,569.648,25.797,569.907,26.042,569.321L26.042,569.321z"/>
		</g>
	</g>
	<g>
		<g>
			<path d="M45.068,269.341c-1.556,10.766-14.172,12.325-21.311,18.074c-6.448,5.192-10.233,13.08-10.891,21.263
				c-0.052,0.642,0.949,0.638,1,0c0.77-9.583,6.04-18.44,14.509-23.14c7.01-3.89,16.331-6.752,17.657-15.931
				C46.123,268.977,45.16,268.705,45.068,269.341L45.068,269.341z"/>
		</g>
	</g>
	<g>
		<g>
			<path d="M25.6,302.108c-0.577,5.207-3.592,9.518-6.666,13.59c-3.231,4.281-6.498,8.535-9.747,12.801
				c-0.39,0.512,0.478,1.011,0.863,0.505c3.584-4.706,7.241-9.365,10.743-14.133c2.834-3.858,5.271-7.924,5.807-12.764
				C26.67,301.469,25.67,301.474,25.6,302.108L25.6,302.108z"/>
		</g>
	</g>
	<g>
		<g>
			<path d="M45.888,274.148c7.53,5.897,17.082,8.51,26.572,7.386c0.631-0.075,0.639-1.076,0-1c-9.21,1.09-18.54-1.357-25.865-7.094
				C46.094,273.049,45.382,273.752,45.888,274.148L45.888,274.148z"/>
		</g>
	</g>
	<g>
		<g>
			<path d="M71.278,286.091c-2.308,16.057-4.077,33.088,3.547,48.073c0.292,0.574,1.155,0.068,0.863-0.505
				c-7.489-14.718-5.712-31.541-3.446-47.302C72.333,285.727,71.369,285.455,71.278,286.091L71.278,286.091z"/>
		</g>
	</g>
	<g>
		<g>
			<path d="M47.551,265.146c4.155-0.619,7.065,2.691,10.447,4.444c2.702,1.4,5.65,2.022,8.678,2.053c0.644,0.007,0.644-0.993,0-1
				c-4.476-0.045-7.962-1.663-11.612-4.085c-2.417-1.604-4.814-2.818-7.779-2.376C46.651,264.277,46.92,265.24,47.551,265.146
				L47.551,265.146z"/>
		</g>
	</g>
	<g>
		<g>
			<path d="M28.255,381.83c0.133,6.126-2.583,11.231-4.979,16.685c-2.389,5.438-4.896,10.982-6.303,16.773
				c-1.955,8.05-1.519,16.761-1.3,24.968c0.721,27.073,2.744,54.076,0.419,81.138c-1.412,16.434-4.334,32.779-9.837,48.362
				c-0.215,0.608,0.751,0.87,0.964,0.266c9.703-27.476,11.416-57.042,10.979-85.948c-0.196-12.971-0.906-25.922-1.369-38.884
				c-0.327-9.135-0.942-18.687,0.707-27.735c1.166-6.398,4.004-12.52,6.602-18.434c2.465-5.609,5.252-10.895,5.115-17.19
				C29.241,381.188,28.241,381.185,28.255,381.83L28.255,381.83z"/>
		</g>
	</g>
</g>
</svg>
