<?xml version="1.0" encoding="utf-8"?>
<!-- Generator: Adobe Illustrator 22.1.0, SVG Export Plug-In . SVG Version: 6.00 Build 0)  -->
<svg version="1.1" id="Шар_1" xmlns="http://www.w3.org/2000/svg" xmlns:xlink="http://www.w3.org/1999/xlink" x="0px" y="0px"
	 width="687.139px" height="546.799px" viewBox="0 0 687.139 546.799" enable-background="new 0 0 687.139 546.799"
	 xml:space="preserve">
<g>
	<g>
		<path d="M333.067,365.49c-0.293,0-0.581-0.142-0.757-0.403c-2.749-4.104-4.517-8.599-5.256-13.359
			c-0.447-2.882-1.058-6.823,0.322-11.534c0.462-1.574,0.931-2.491,1.384-3.378c0.497-0.97,0.966-1.887,1.428-3.72
			c0.439-1.729,1.254-4.948,0.452-8.791c-0.8-3.824-2.846-6.613-4.423-8.28c-0.346-0.366-0.33-0.942,0.036-1.286
			c0.365-0.345,0.94-0.329,1.286,0.036c1.738,1.837,3.996,4.918,4.882,9.157c0.888,4.257,0.005,7.739-0.468,9.612
			c-0.514,2.031-1.053,3.083-1.573,4.101c-0.434,0.849-0.844,1.651-1.257,3.061c-1.268,4.323-0.692,8.031-0.272,10.74
			c0.698,4.499,2.371,8.747,4.971,12.629c0.28,0.418,0.168,0.983-0.25,1.261C333.417,365.44,333.241,365.49,333.067,365.49z"/>
	</g>
	<g>
		<path d="M284.025,372.941c-0.465,0-0.941-0.121-1.389-0.359c-1.036-0.551-1.772-1.649-1.922-2.862l1.805-0.224
			c0.077,0.627,0.458,1.206,0.971,1.48c0.186,0.098,0.549,0.236,0.906,0.057c0.33-0.167,0.622-0.588,0.779-1.126
			c0.207-0.705,0.149-1.462-0.151-1.974l1.571-0.92c0.553,0.943,0.674,2.217,0.326,3.406c-0.299,1.023-0.919,1.839-1.699,2.237
			C284.847,372.846,284.44,372.941,284.025,372.941z"/>
	</g>
	<g>
		<path d="M338.542,360.865c-0.441,0-0.871-0.155-1.248-0.451c-1.185-0.935-1.662-3.147-1.52-4.85l1.812,0.149
			c-0.12,1.446,0.343,2.885,0.834,3.273c0.362-0.004,0.67-0.332,0.88-0.917c0.415-1.153,0.362-2.93-0.118-3.96l1.649-0.768
			c0.677,1.453,0.755,3.751,0.182,5.343c-0.396,1.1-1.098,1.866-1.927,2.104C338.906,360.839,338.723,360.865,338.542,360.865z"/>
	</g>
	<g>
		<path d="M307.963,294.094c-2.478,0-5.333-0.378-8.585-1.347c-11.55-3.442-16.956-13.315-18.338-16.261
			c-0.213-0.453-0.018-0.995,0.437-1.21c0.457-0.206,0.997-0.016,1.21,0.437c1.301,2.772,6.385,12.064,17.209,15.289
			c8.1,2.413,13.482,0.942,16.57-0.714c9.255-4.971,13.031-18.723,8.98-32.695c-0.14-0.483,0.138-0.988,0.62-1.128
			c0.483-0.144,0.988,0.139,1.126,0.62c4.289,14.793,0.139,29.431-9.865,34.806C315.207,293.032,312.114,294.094,307.963,294.094z"
			/>
	</g>
	<g>
		<path d="M308.525,312.897c-3.274,0-6.537-0.828-9.313-2.537l0.954-1.549c6.104,3.76,14.828,2.781,19.867-2.226l1.283,1.29
			C318.003,311.169,313.254,312.897,308.525,312.897z"/>
	</g>
	<g>
		<path d="M315.025,375.646c-0.438,0-0.871-0.03-1.299-0.092c-3.138-0.46-5.593-2.461-7.967-4.394
			c-2.16-1.761-4.202-3.424-6.67-3.96l0.386-1.777c2.894,0.629,5.201,2.509,7.433,4.326c2.284,1.86,4.441,3.617,7.081,4.003
			c2.47,0.357,5.256-0.595,7.654-2.624c2.236-1.89,3.917-4.419,5.542-6.862l1.516,1.006c-1.696,2.551-3.449,5.188-5.883,7.245
			C320.422,374.544,317.646,375.646,315.025,375.646z"/>
	</g>
	<g>
		<path d="M299.283,367.22c-0.348,0-0.681-0.201-0.831-0.54l-0.132-0.298c-0.107-0.247-0.1-0.529,0.02-0.771
			c2.75-5.51,3.816-10.788,3.167-15.687c-0.434-3.271-2.006-9.258-5.012-15.372c-0.005-0.011-0.01-0.021-0.015-0.032
			c-1.065-2.164-2.482-5.067-2.714-8.354c-0.011-0.151-0.239-3.728,1.642-6.387c0.569-0.67,1.156-1.215,1.797-1.688
			c0.404-0.298,0.974-0.211,1.271,0.195c0.298,0.405,0.211,0.974-0.195,1.272c-0.529,0.387-1.013,0.837-1.439,1.336
			c-1.459,2.07-1.264,5.113-1.262,5.144c0.209,2.946,1.547,5.675,2.528,7.672c0.013,0.025,0.025,0.05,0.036,0.075
			c3.087,6.279,4.715,12.496,5.166,15.902c0.683,5.151-0.379,10.653-3.157,16.362c0.131,0.432-0.076,0.904-0.5,1.094
			C299.532,367.196,299.406,367.22,299.283,367.22z"/>
	</g>
	<g>
		<path d="M336.902,313.944c-0.241,0-0.481-0.094-0.66-0.284c-5.988-6.309-9.147-15.253-8.447-23.924
			c0.246-3.045,0.943-6.041,1.619-8.937c0.497-2.137,1.013-4.349,1.333-6.537c0.616-4.216,0.624-10.104-2.837-14.207
			c-2.303-2.729-5.667-4.172-9.228-5.7c-3.703-1.587-7.531-3.23-10.097-6.462c-0.313-0.393-0.247-0.965,0.147-1.277
			c0.395-0.314,0.967-0.249,1.278,0.147c2.28,2.871,5.733,4.353,9.389,5.92c3.6,1.544,7.322,3.139,9.903,6.199
			c3.897,4.619,3.917,11.057,3.246,15.642c-0.33,2.262-0.855,4.511-1.361,6.688c-0.659,2.83-1.341,5.758-1.576,8.669
			c-0.658,8.164,2.315,16.586,7.953,22.527c0.346,0.364,0.33,0.94-0.034,1.285C337.353,313.86,337.127,313.944,336.902,313.944z"/>
	</g>
	<g>
		<path fill="none" stroke="#000000" stroke-linecap="round" stroke-linejoin="round" stroke-miterlimit="10" d="M326.32,257.339"/>
	</g>
	<g>
		<path d="M289.825,327.772c-0.336,0-0.659-0.187-0.817-0.508c-6.491-13.21-9.631-26.885-9.333-40.644
			c0.228-10.529,1.101-22.323,8.617-29.012c1.839-1.635,3.908-2.983,5.909-4.289c1.509-0.984,3.071-2.002,4.493-3.122
			c2.201-1.732,5.913-5.314,6.035-9.845c0.013-0.503,0.449-0.929,0.935-0.885c0.502,0.014,0.898,0.432,0.885,0.935
			c-0.106,3.909-2.495,7.894-6.729,11.224c-1.485,1.169-3.081,2.21-4.625,3.218c-1.945,1.269-3.956,2.58-5.693,4.126
			c-6.97,6.201-7.788,17.545-8.008,27.69c-0.292,13.466,2.786,26.857,9.147,39.802c0.221,0.451,0.036,0.997-0.415,1.219
			C290.096,327.742,289.959,327.772,289.825,327.772z"/>
	</g>
	<g>
		<path d="M284.415,367.077c-0.151,0-0.305-0.037-0.446-0.117c-0.437-0.247-0.593-0.801-0.346-1.238
			c3.009-5.343,5.669-10.945,7.905-16.655c1.929-4.925,3.577-10.021,4.901-15.143c0.124-0.487,0.623-0.782,1.108-0.654
			c0.487,0.126,0.779,0.622,0.653,1.109c-1.341,5.193-3.012,10.358-4.968,15.353c-2.268,5.787-4.964,11.467-8.015,16.882
			C285.042,366.91,284.733,367.077,284.415,367.077z"/>
	</g>
	<g>
		<path d="M278.579,366.599c-0.144,0-0.29-0.034-0.426-0.107c-0.443-0.236-0.612-0.787-0.376-1.231
			c8.81-16.548,12.56-29.302,11.144-37.905l-0.044-0.254c-0.334-1.967-1.221-7.192,1.581-11.849c1.829-3.04,4.928-5.319,9.209-6.776
			c0.483-0.153,0.994,0.094,1.154,0.569c0.163,0.476-0.092,0.993-0.568,1.155c-3.863,1.313-6.634,3.33-8.237,5.991
			c-2.454,4.078-1.649,8.821-1.345,10.607l0.044,0.263c1.482,9.004-2.331,22.145-11.333,39.056
			C279.219,366.424,278.904,366.599,278.579,366.599z"/>
	</g>
	<g>
		<path d="M336.275,356.788c-0.066,0-0.131-0.007-0.198-0.021c-0.49-0.108-0.8-0.595-0.691-1.086l0.792-3.568
			c0.028-2.83-0.024-5.689-0.152-8.496c-0.222-4.877-0.683-9.807-1.372-14.651c-0.07-0.497,0.275-0.958,0.773-1.029
			c0.497-0.068,0.958,0.274,1.029,0.773c0.697,4.902,1.163,9.889,1.388,14.825c0.131,2.871,0.182,5.797,0.153,8.692
			c-0.001,0.064-0.008,0.126-0.021,0.188l-0.812,3.66C337.068,356.5,336.692,356.788,336.275,356.788z M337.086,352.218h0.018
			H337.086z"/>
	</g>
	<g>
		<path d="M332.242,324.821l-0.47-1.306c-1.529-2.583-3.425-5.16-5.565-7.503l1.343-1.226c2.226,2.438,4.198,5.115,5.862,7.961
			l0.542,1.459L332.242,324.821z"/>
	</g>
	<g>
		<path d="M340.594,354.401c-0.041,0-0.083-0.004-0.125-0.009c-0.497-0.068-0.846-0.528-0.776-1.025
			c1.037-7.521,1.08-15.127,0.13-22.605c-0.65-5.119-1.775-10.213-3.341-15.143c-0.152-0.478,0.113-0.99,0.592-1.142
			c0.479-0.149,0.99,0.114,1.142,0.592c1.599,5.035,2.748,10.237,3.412,15.463c0.971,7.64,0.926,15.406-0.133,23.085
			C341.432,354.071,341.042,354.401,340.594,354.401z"/>
	</g>
	<g>
		<path d="M329.297,312.448c-2.989-2.196-6.607-3.877-10.461-4.863l0.451-1.763c4.078,1.043,7.912,2.827,11.087,5.158
			L329.297,312.448z"/>
	</g>
	<g>
		<path d="M284.564,314.038c-0.335,0-0.657-0.185-0.816-0.506c-6.915-13.953-10.969-28.767-12.05-44.031
			c-0.466-6.556-0.455-14.978,3.792-21.971c6.078-10.01,20.59-14.827,32.341-10.74c0.475,0.165,0.726,0.684,0.561,1.158
			c-0.164,0.476-0.685,0.721-1.158,0.561c-10.987-3.822-24.53,0.647-30.189,9.966c-3.98,6.554-3.979,14.61-3.533,20.898
			c1.064,15.026,5.057,29.611,11.867,43.352c0.223,0.449,0.038,0.995-0.411,1.219C284.837,314.008,284.7,314.038,284.564,314.038z"
			/>
	</g>
	<g>
		<path d="M335.741,302.457c-0.429,0-0.811-0.306-0.893-0.743c-1.158-6.167-0.279-12.531,0.635-18.012l0.395-2.326
			c0.851-4.966,1.732-10.101,1.543-15.152c-0.244-6.492-2.374-12.03-5.996-15.594c-4.214-4.147-10.755-5.293-15.217-2.67
			c-0.433,0.254-0.991,0.112-1.245-0.322s-0.11-0.991,0.323-1.245c5.145-3.028,12.634-1.766,17.415,2.94
			c3.955,3.891,6.277,9.866,6.538,16.824c0.196,5.24-0.7,10.47-1.568,15.527l-0.394,2.317c-0.888,5.328-1.745,11.502-0.642,17.38
			c0.093,0.492-0.232,0.968-0.726,1.061C335.853,302.452,335.796,302.457,335.741,302.457z"/>
	</g>
	<g>
		<path d="M305.368,546.799c-3.569,0-7.142-0.027-10.724-0.08c-27.937-0.416-49.117-2.344-68.675-6.251
			c-11.213-2.239-25.496-5.861-36.498-14.066c-11.381-8.486-16.857-20.923-13.952-31.681c1.526-5.652,6.033-10.982,12.055-14.26
			c6.207-3.374,13.232-4.204,19.275-2.264c0.478,0.155,0.742,0.666,0.588,1.144c-0.152,0.48-0.664,0.739-1.144,0.59
			c-5.574-1.791-12.078-1.013-17.849,2.129c-5.594,3.044-9.769,7.954-11.168,13.134c-2.71,10.035,2.503,21.713,13.282,29.751
			c10.711,7.986,24.742,11.538,35.768,13.739c19.444,3.884,40.522,5.801,68.344,6.215c85.45,1.258,167.283-12.709,236.682-40.429
			c8.167-3.264,17.72-8.004,19.125-15.77c0.865-4.781-1.771-10.134-6.88-13.974c-5.064-3.808-11.773-5.774-17.053-7.064
			c-17.26-4.216-35.752-5.163-53.478-2.752c-0.499,0.085-0.957-0.281-1.024-0.778c-0.068-0.497,0.281-0.956,0.779-1.023
			c17.947-2.448,36.673-1.484,54.155,2.788c5.448,1.329,12.385,3.37,17.714,7.377c5.661,4.253,8.566,10.289,7.578,15.751
			c-1.563,8.646-11.638,13.699-20.24,17.135C465.317,532.807,387.16,546.799,305.368,546.799z"/>
	</g>
	<g>
		<path d="M254.515,318.482c-0.104,0-0.211-0.018-0.314-0.055c-10.035-3.687-19.674-8.674-28.649-14.825
			c-0.414-0.283-0.52-0.849-0.236-1.263c0.284-0.414,0.849-0.522,1.265-0.236c8.85,6.064,18.354,10.982,28.247,14.615
			c0.472,0.174,0.713,0.696,0.54,1.169C255.234,318.254,254.885,318.482,254.515,318.482z"/>
	</g>
	<g>
		<path d="M229.197,326.708c-4.655,0-9.308-0.238-13.94-0.716c-2.383-0.245-4.792-0.739-6.268-2.683
			c-0.304-0.4-0.227-0.972,0.173-1.276c0.402-0.302,0.972-0.224,1.275,0.174c1.11,1.46,3.167,1.786,5.007,1.976
			c11.208,1.151,22.547,0.892,33.704-0.78c0.512-0.071,0.96,0.268,1.035,0.764c0.074,0.497-0.268,0.959-0.765,1.034
			C242.72,326.205,235.957,326.708,229.197,326.708z"/>
	</g>
	<g>
		<path d="M208.897,356.795c-0.46,0-0.855-0.346-0.903-0.814c-0.053-0.499,0.309-0.949,0.809-1
			c15.745-1.661,30.89-9.989,41.55-22.849c0.32-0.386,0.892-0.439,1.281-0.119c0.386,0.32,0.44,0.894,0.119,1.281
			c-10.961,13.221-26.546,21.784-42.76,23.495C208.961,356.793,208.929,356.795,208.897,356.795z"/>
	</g>
	<g>
		<path d="M324.43,529.801c-1.847,0-3.688-0.199-5.516-0.691c-3.179-0.853-6.066-2.548-8.858-4.188
			c-3.636-2.136-7.07-4.152-11.001-4.376c-4.145-0.247-7.974,1.565-12.034,3.468c-3.987,1.869-8.087,3.797-12.596,3.665
			c-4.644-0.144-8.693-2.47-12.608-4.719c-2.89-1.659-5.877-3.376-9.036-4.156c-3.903-0.963-8.118-0.512-12.195-0.076
			c-4.693,0.499-9.545,1.018-14.12-0.533c-9.505-3.223-13.897-13.547-17.225-24.226c-0.773-2.482-1.433-5.101-0.291-7.428
			c1.591-3.25,5.917-3.985,8.955-2.633c2.371,1.055,4.331,3.131,5.977,6.336c15.031-2.637,25.027-15.998,29.396-27.745
			c4.783-12.862,5.217-27.029,5.638-40.731l0.072-2.338c0.483-15.262,1.439-30.057,7.762-43.302
			c1.436-3.008,3.808-7.292,7.798-9.767c3.425-2.123,8.645-2.722,12.165,0.137c0.036-0.002,0.071-0.002,0.107-0.002
			c3.533,0,7.205,1.835,13.094,4.778c4.614,2.304,6.982,3.971,8.71,5.186c1.836,1.292,2.674,1.882,4.642,2.1
			c6.29,0.707,14.183-3.813,17.971-10.273c1.677-2.859,2.133-5.444,2.534-7.727c0.5-2.841,0.933-5.295,3.588-6.815
			c3.793-2.18,8.654-0.46,11.213,0.759c4.428,2.111,6.768,5.682,8.026,7.603l0.227,0.345c3.247,4.902,6.422,6.991,10.816,9.882
			c2.71,1.784,5.782,3.806,9.633,6.935c4.832,3.921,6.797,6.252,15.067,16.062c1.796,2.13,3.891,4.614,6.379,7.548l1.973,2.322
			c21.844,25.716,51.176,60.68,53.679,67.393c0.139,0.412,0.273,0.81,0.607,1.059c0.814,0.601,2.46-0.188,4.546-1.189
			c1.889-0.904,4.239-2.029,7.006-2.61c2.129-0.446,6.332-0.965,10.585,0.586c5.735,2.089,11.569,7.757,11.404,13.626
			c-0.234,8.242-7.747,14.128-14.009,17.613c-14.51,8.075-30.964,11.854-46.583,14.736c-19.012,3.505-38.43,5.998-57.714,7.407
			c-1.492,0.108-2.985,0.211-4.478,0.314c-8.645,0.593-17.584,1.21-26.145,3.077c-1.022,0.224-2.049,0.464-3.079,0.705
			C332.537,528.847,328.472,529.801,324.43,529.801z M298.33,518.707c0.275,0,0.551,0.007,0.828,0.023
			c4.37,0.249,8.157,2.473,11.82,4.623c2.688,1.578,5.467,3.211,8.409,4.001c5.378,1.445,11.138,0.096,16.707-1.21
			c1.04-0.243,2.077-0.487,3.107-0.711c8.691-1.898,17.697-2.518,26.407-3.116c1.492-0.103,2.981-0.204,4.47-0.314
			c19.219-1.402,38.571-3.886,57.517-7.38c15.466-2.853,31.747-6.588,46.029-14.535c5.85-3.257,12.866-8.688,13.075-16.074
			c0.142-5.048-5.078-9.998-10.208-11.867c-3.827-1.397-7.651-0.922-9.588-0.515c-2.552,0.535-4.699,1.564-6.593,2.471
			c-2.638,1.265-4.724,2.264-6.416,1.007c-0.795-0.59-1.077-1.434-1.197-1.794c-2.713-7.279-40.857-52.184-53.392-66.94
			l-1.974-2.324c-2.489-2.933-4.585-5.419-6.382-7.551c-8.182-9.703-10.126-12.009-14.823-15.823
			c-3.782-3.068-6.813-5.064-9.488-6.824c-4.574-3.012-7.879-5.186-11.333-10.397l-0.232-0.354c-1.242-1.894-3.32-5.065-7.284-6.956
			c-1.804-0.858-6.339-2.654-9.529-0.824c-1.916,1.098-2.228,2.871-2.701,5.554c-0.408,2.313-0.914,5.19-2.757,8.331
			c-4.192,7.146-12.676,11.943-19.74,11.161c-2.431-0.27-3.582-1.078-5.487-2.42c-1.682-1.183-3.985-2.804-8.478-5.048
			c-7.169-3.584-10.487-5.133-13.965-4.412c-5.919,1.231-9.119,7.354-10.324,9.658c-3.089,5.916-2.731,11.778-2.243,14.747
			c0.082,0.496-0.254,0.963-0.75,1.045c-0.491,0.094-0.964-0.254-1.045-0.75c-0.525-3.191-0.908-9.498,2.423-15.88
			c1.138-2.176,4.494-8.599,10.699-10.385c-2.703-1.105-6.037-0.476-8.39,0.983c-3.585,2.223-5.778,6.204-7.116,9.006
			c-6.17,12.926-7.109,27.514-7.585,42.574l-0.072,2.338c-0.425,13.848-0.863,28.168-5.75,41.307
			c-4.613,12.403-15.305,26.541-31.479,29.019c-0.4,0.059-0.784-0.144-0.958-0.505c-1.514-3.15-3.274-5.136-5.381-6.075
			c-2.224-0.988-5.471-0.503-6.582,1.77c-0.848,1.729-0.297,3.866,0.395,6.089c3.186,10.218,7.337,20.08,16.072,23.042
			c4.198,1.425,8.64,0.949,13.342,0.448c4.233-0.457,8.611-0.92,12.824,0.119c3.408,0.84,6.509,2.622,9.507,4.344
			c3.893,2.235,7.57,4.348,11.759,4.477c4.054,0.155,7.799-1.633,11.766-3.495C290.088,520.566,294.05,518.707,298.33,518.707z"/>
	</g>
	<g>
		<path d="M361.545,498.481c-0.325,0-0.639-0.174-0.803-0.48c-10.882-20.311-22.133-41.316-27.52-64.259
			c-0.818-3.482-1.527-7.098-2.213-10.593c-2.464-12.563-5.013-25.553-13.122-35.243c-0.322-0.386-0.272-0.959,0.114-1.283
			c0.388-0.32,0.961-0.27,1.281,0.114c8.409,10.049,11.003,23.273,13.513,36.062c0.682,3.479,1.389,7.077,2.199,10.527
			c5.332,22.71,16.527,43.606,27.353,63.814c0.237,0.442,0.07,0.995-0.372,1.231C361.838,498.447,361.69,498.481,361.545,498.481z"
			/>
	</g>
	<g>
		<path d="M410.111,492.566c-0.283,0-0.562-0.131-0.74-0.38l-69.337-96.781l-10.15-11.892c-0.326-0.382-0.281-0.956,0.101-1.281
			c0.381-0.329,0.955-0.284,1.283,0.101l10.197,11.952l69.384,96.842c0.293,0.409,0.199,0.977-0.21,1.269
			C410.48,492.511,410.294,492.566,410.111,492.566z"/>
	</g>
	<g>
		<path d="M212.67,485.621c-0.263,0-0.523-0.114-0.704-0.332c-0.319-0.387-0.263-0.961,0.124-1.279
			c17.523-14.416,28.195-30.259,31.718-47.088c0.845-4.037,1.588-9.504,2.449-15.834c1.985-14.596,4.457-32.761,9.711-42.922
			c1.27-2.455,4.643-8.976,11.189-10.644c2.017-0.513,4.164-0.528,6.382-0.043c0.49,0.107,0.801,0.592,0.694,1.082
			c-0.107,0.492-0.594,0.8-1.083,0.695c-1.938-0.426-3.805-0.414-5.543,0.028c-5.755,1.468-8.855,7.46-10.022,9.717
			c-5.111,9.882-7.558,27.875-9.524,42.332c-0.866,6.364-1.613,11.861-2.472,15.962c-3.61,17.245-14.492,33.434-32.342,48.119
			C213.077,485.554,212.873,485.621,212.67,485.621z"/>
	</g>
	<g>
		<path d="M360.28,242.274c-0.459,0-0.853-0.346-0.903-0.812c-0.054-0.499,0.307-0.949,0.807-1.002
			c14.402-1.555,28.794-5.932,41.619-12.661c0.447-0.236,0.996-0.062,1.229,0.382c0.234,0.446,0.062,0.995-0.383,1.228
			c-13.026,6.835-27.642,11.28-42.269,12.86C360.346,242.273,360.312,242.274,360.28,242.274z"/>
	</g>
	<g>
		<path d="M373.572,249.603c-4.054,0-8.106-0.11-12.149-0.33c-0.501-0.027-0.886-0.455-0.858-0.958
			c0.027-0.503,0.47-0.931,0.958-0.858c15.123,0.826,30.386,0.091,45.365-2.176c0.5-0.082,0.96,0.267,1.035,0.762
			c0.076,0.497-0.267,0.961-0.763,1.036C396.063,248.76,384.81,249.603,373.572,249.603z"/>
	</g>
	<g>
		<path d="M360.228,234.219c-0.343,0-0.672-0.195-0.825-0.526c-0.212-0.455-0.015-0.997,0.441-1.208
			c11.009-5.121,20.96-12.059,29.573-20.621c0.356-0.354,0.932-0.355,1.286,0.004c0.354,0.357,0.353,0.933-0.004,1.286
			c-8.765,8.711-18.887,15.77-30.089,20.979C360.487,234.192,360.356,234.219,360.228,234.219z"/>
	</g>
	<g>
		<path d="M270.118,234.123c-0.158,0-0.318-0.041-0.464-0.128c-6.993-4.159-13.58-9.049-19.58-14.534
			c-0.37-0.339-0.396-0.915-0.058-1.285c0.339-0.371,0.914-0.396,1.285-0.059c5.908,5.401,12.396,10.218,19.282,14.313
			c0.433,0.258,0.574,0.816,0.317,1.247C270.731,233.965,270.428,234.123,270.118,234.123z"/>
	</g>
	<g>
		<path d="M276.025,230.363c-0.174,0-0.35-0.05-0.505-0.155c-8.539-5.717-16.014-12.771-22.215-20.964
			c-0.304-0.4-0.225-0.972,0.176-1.274c0.4-0.306,0.971-0.226,1.274,0.176c6.081,8.031,13.407,14.946,21.778,20.551
			c0.418,0.279,0.529,0.844,0.25,1.261C276.606,230.221,276.318,230.363,276.025,230.363z"/>
	</g>
	<g>
		<path d="M279.97,228.199c-0.418,0-0.793-0.29-0.887-0.714l-5.423-24.581c-0.108-0.49,0.202-0.975,0.692-1.084
			c0.489-0.108,0.975,0.203,1.085,0.693l5.423,24.581c0.108,0.49-0.202,0.975-0.692,1.084
			C280.101,228.192,280.035,228.199,279.97,228.199z"/>
	</g>
	<g>
		<path d="M391.556,309.257c-0.039,0-0.078-0.002-0.118-0.007l-36.047-4.689c-0.498-0.066-0.849-0.522-0.784-1.02
			c0.064-0.499,0.516-0.856,1.019-0.785l36.047,4.689c0.498,0.066,0.849,0.522,0.784,1.02
			C392.397,308.923,392.006,309.257,391.556,309.257z"/>
	</g>
	<g>
		<path d="M393.187,326.48c-0.086,0-0.174-0.012-0.262-0.039c-13.03-3.912-25.787-9.015-37.918-15.166
			c-0.449-0.227-0.627-0.775-0.4-1.224c0.227-0.448,0.774-0.625,1.222-0.4c12.035,6.103,24.692,11.167,37.619,15.049
			c0.481,0.144,0.753,0.65,0.609,1.132C393.94,326.226,393.579,326.48,393.187,326.48z"/>
	</g>
	<g>
		<path d="M372.894,347.652c-0.238,0-0.475-0.092-0.654-0.277c-7.614-7.864-13.755-16.911-18.252-26.887
			c-0.206-0.457-0.002-0.997,0.456-1.203c0.462-0.21,0.997-0.004,1.204,0.457c4.41,9.784,10.432,18.656,17.9,26.368
			c0.349,0.361,0.34,0.936-0.021,1.286C373.35,347.566,373.123,347.652,372.894,347.652z"/>
	</g>
	<g>
		<path d="M303.422,236.824c-1.112-0.625-2.372-1.334-3.313-2.329c-1.166-1.229-1.619-2.745-1.213-4.054
			c0.368-1.183,1.301-1.977,2.203-2.747c0.524-0.446,1.019-0.867,1.359-1.329c0.604-0.817,0.727-1.878,0.321-2.77l1.656-0.753
			c0.68,1.491,0.483,3.255-0.513,4.603c-0.465,0.631-1.064,1.141-1.644,1.635c-0.736,0.627-1.433,1.221-1.644,1.901
			c-0.209,0.672,0.089,1.517,0.796,2.264c0.752,0.794,1.836,1.405,2.884,1.995L303.422,236.824z"/>
	</g>
	<g>
		<path d="M305.371,236.824l-0.892-1.585c1.047-0.59,2.131-1.201,2.883-1.995c0.707-0.746,1.006-1.594,0.797-2.264
			c-0.211-0.68-0.908-1.274-1.645-1.901c-0.58-0.494-1.18-1.004-1.644-1.635c-0.995-1.349-1.191-3.113-0.512-4.603l1.656,0.753
			c-0.406,0.89-0.283,1.953,0.32,2.77c0.34,0.462,0.835,0.883,1.359,1.329c0.903,0.769,1.836,1.564,2.204,2.747
			c0.406,1.308-0.047,2.823-1.213,4.054C307.743,235.489,306.483,236.198,305.371,236.824z"/>
	</g>
	<g>
		<path d="M283.415,240.732c-0.541-1.272-0.536-2.477,0.015-3.484c0.354-0.65,1.234-1.635,4.753-2.672
			c0.548-0.162,2.582-0.718,5.785-1.148c1.996-0.27,3.779-0.544,5.383-1.192c0.684-0.274,0.832-0.473,0.863-0.545l0.027-1.699
			c0.522-0.023,1.139,0.277,1.473,0.775c0.333,0.497,0.397,1.134,0.166,1.656c-0.358,0.817-1.177,1.231-1.85,1.501
			c-1.798,0.727-3.7,1.022-5.821,1.306c-3.075,0.414-4.997,0.94-5.513,1.091c-2.972,0.878-3.561,1.599-3.67,1.8
			c-0.278,0.51-0.258,1.148,0.062,1.901L283.415,240.732z"/>
	</g>
	<g>
		<path d="M281.66,241.498c-0.349-0.565-1.419-2.555-0.53-4.422c0.492-1.032,1.502-1.757,3.178-2.278
			c2.521-0.785,5.208-0.496,7.971-0.103c2.52,0.361,5.004,0.709,7.242,0.151c0.961-0.243,1.714-0.629,2.176-1.118
			c0.011-0.009,0.739-0.814,0.421-1.4c-0.129-0.24-0.469-0.56-1.002-0.673c-0.22-0.048-0.458-0.053-0.699-0.016l-0.121-0.801
			l-0.459,0.867l-0.526-0.958l0.046-0.586l0.617-0.277c0.631-0.112,1.084-0.101,1.521-0.009c0.969,0.208,1.8,0.801,2.224,1.588
			c0.76,1.404-0.085,2.875-0.704,3.521c-0.708,0.746-1.735,1.293-3.05,1.624c-2.583,0.652-5.248,0.27-7.827-0.096
			c-2.662-0.38-5.131-0.648-7.289,0.023c-1.697,0.528-1.982,1.126-2.076,1.322c-0.505,1.064,0.275,2.423,0.435,2.685L281.66,241.498
			z"/>
	</g>
	<g>
		<path d="M290.909,235.782l-1.526-0.988c0.812-1.254,2.412-1.686,3.293-1.832c0.715-0.119,1.427-0.146,2.115-0.172
			c0.36-0.014,0.72-0.028,1.078-0.055c-0.045-0.068-0.084-0.139-0.117-0.213c-0.169-0.375-0.161-0.816,0.023-1.205
			c0.206-0.437,0.617-0.778,1.099-0.911c0.768-0.206,1.63,0.08,2.097,0.698c0.449,0.595,0.479,1.405,0.075,2.065
			c-0.477,0.78-1.444,1.24-2.873,1.366c-0.435,0.039-0.872,0.055-1.309,0.073c-0.662,0.025-1.286,0.05-1.89,0.149
			C291.992,234.921,291.22,235.303,290.909,235.782z M297.274,231.619c-0.28,0.147-0.357,0.329-0.326,0.496
			c0.033,0.171,0.165,0.279,0.289,0.314c0.008-0.004,0.016-0.009,0.024-0.012l0.148-0.647
			C297.357,231.662,297.285,231.621,297.274,231.619z"/>
	</g>
	<g>
		<path d="M330.212,240.665c-1.123-0.798-2.336-1.452-3.605-1.945c-0.597-0.233-1.177-0.419-1.833-0.588
			c-0.284-0.059-0.614-0.133-0.975-0.227l-0.368-0.078c-0.795-0.172-1.741-0.377-2.903-0.51c-0.098,0.005-0.19,0.014-0.277,0.021
			l-0.251,0.02c-0.642,0.039-1.146-0.039-1.61-0.185c-0.576-0.007-1.192-0.002-1.854,0.036c-2.728,0.155-5.424,0.3-7.919-0.572
			c-1.254-0.437-2.242-1.091-2.855-1.892c-0.83-1.087-0.951-2.47-0.312-3.523c0.712-1.164,2.368-1.757,3.691-1.325l0.407,0.133
			l0.354,0.899l-0.348,0.54c-0.236,0.284-0.54,0.354-0.772,0.362c0.075,0.162,0.283,0.291,0.597,0.451
			c1.595,0.821,3.33,1.245,5.278,1.681c1.739,0.391,2.736,0.83,3.465,1.15c0.233,0.101,0.428,0.188,0.609,0.256
			c0.657,0.021,1.261,0.066,1.816,0.124c0.545-0.03,1.283-0.025,2.134,0.192c0.219,0.055,0.409,0.114,0.628,0.183
			c0.233,0.075,0.505,0.162,0.911,0.268c0.334,0.071,0.65,0.144,0.954,0.222c0.21,0.043,0.391,0.075,0.539,0.099l-0.007,0.043
			c0.542,0.155,1.051,0.327,1.561,0.526c1.409,0.547,2.755,1.274,3.999,2.159L330.212,240.665z M306.945,232.279
			c-0.209,0.473,0.002,1.018,0.262,1.361c0.395,0.515,1.091,0.958,2.009,1.279c1.247,0.435,2.616,0.572,4.02,0.585
			c-1.631-0.387-3.2-0.839-4.615-1.567C308.104,233.673,307.181,233.203,306.945,232.279z"/>
	</g>
	<g>
		<path d="M318.003,236.546c-0.245-0.494-0.955-0.933-1.899-1.174c-0.584-0.149-1.198-0.227-1.849-0.309
			c-0.437-0.055-0.875-0.11-1.307-0.187c-1.418-0.251-2.333-0.8-2.717-1.629c-0.322-0.693-0.198-1.494,0.314-2.04
			c0.534-0.57,1.417-0.773,2.151-0.497c0.463,0.171,0.837,0.545,0.998,1c0.146,0.412,0.106,0.858-0.111,1.224
			c-0.038,0.064-0.081,0.126-0.129,0.183c0.341,0.055,0.684,0.098,1.028,0.14c0.678,0.085,1.38,0.174,2.073,0.352
			c0.865,0.222,2.415,0.794,3.077,2.127L318.003,236.546z M312.028,231.989l0.097,0.705c0.123-0.016,0.268-0.107,0.317-0.272
			c0.047-0.162-0.016-0.357-0.152-0.473C312.141,231.882,312.08,231.911,312.028,231.989z"/>
	</g>
	<g>
		<path d="M301.788,227.927l-0.274-0.613c-0.405,0.155-0.872,0.181-1.312,0.057c-0.751-0.215-1.318-0.858-1.408-1.601
			c-0.08-0.663,0.213-1.34,0.784-1.81c0.698-0.581,1.715-0.744,2.528-0.409c0.851,0.352,1.384,1.212,1.325,2.143
			C303.375,226.63,302.729,227.506,301.788,227.927z M300.889,225.604l0.537,0.386c0.111-0.126,0.181-0.27,0.19-0.409
			c0.005-0.089-0.03-0.275-0.204-0.348c-0.182-0.069-0.499-0.014-0.673,0.13c-0.105,0.087-0.138,0.172-0.138,0.194
			C300.768,225.639,300.86,225.621,300.889,225.604z"/>
	</g>
	<g>
		<path d="M306.691,227.927c-0.942-0.419-1.587-1.297-1.645-2.233c-0.059-0.931,0.474-1.791,1.325-2.143
			c0.816-0.334,1.831-0.169,2.53,0.41c0.569,0.469,0.863,1.146,0.783,1.809c-0.088,0.741-0.656,1.386-1.412,1.601
			c-0.441,0.13-0.903,0.098-1.308-0.055L306.691,227.927z M307.256,225.2c-0.07,0-0.136,0.011-0.191,0.032
			c-0.173,0.073-0.209,0.259-0.203,0.348c0.009,0.149,0.089,0.304,0.215,0.437l0.551-0.371c-0.008-0.023,0.083-0.005,0.142-0.023
			c0.107-0.089,0.076-0.174-0.028-0.259C307.618,225.261,307.424,225.2,307.256,225.2z"/>
	</g>
	<g>
		<ellipse fill="#EFD5DF" cx="311.941" cy="232.299" rx="0.692" ry="0.58"/>
		<path d="M311.941,233.789c-0.884,0-1.603-0.668-1.603-1.489c0-0.823,0.719-1.491,1.603-1.491c0.883,0,1.602,0.668,1.602,1.491
			C313.543,233.121,312.824,233.789,311.941,233.789z M311.941,231.97c-0.088,0-0.218,0.139-0.218,0.33c0,0.394,0.434,0.38,0.434,0
			C312.158,232.108,312.028,231.97,311.941,231.97z"/>
	</g>
	<g>
		<ellipse fill="#EFD5DF" cx="297.418" cy="232.078" rx="0.692" ry="0.58"/>
		<path d="M297.417,233.567c-0.883,0-1.602-0.668-1.602-1.489s0.719-1.489,1.602-1.489c0.884,0,1.603,0.668,1.603,1.489
			S298.301,233.567,297.417,233.567z M297.417,231.747c-0.087,0-0.217,0.139-0.217,0.33c0,0.386,0.434,0.382,0.434,0
			C297.635,231.886,297.505,231.747,297.417,231.747z"/>
	</g>
	<g>
		<path fill="none" stroke="#000000" stroke-miterlimit="10" d="M305.659,229.09"/>
	</g>
	<g>
		<path d="M304.392,233.052c-0.882,0-2.052-0.311-2.634-1.206c-0.832-1.277,0.1-2.669,0.871-3.498
			c-0.513-0.172-0.999-0.284-1.379-0.355l0.334-1.787c0.815,0.151,1.774,0.409,2.683,0.84c0.782-0.432,1.691-0.723,2.679-0.849
			l0.231,1.805c-0.325,0.041-0.715,0.115-1.124,0.247c0.231,0.222,0.444,0.465,0.634,0.732c0.31,0.434,1.037,1.452,0.535,2.56
			c-0.477,1.061-1.751,1.476-2.696,1.51C304.483,233.052,304.437,233.052,304.392,233.052z M304.356,229.2
			c-0.641,0.569-1.236,1.402-1.072,1.654c0.127,0.194,0.644,0.402,1.177,0.377c0.528-0.018,1.017-0.247,1.103-0.439
			c0.071-0.156-0.24-0.592-0.356-0.755C304.976,229.711,304.682,229.436,304.356,229.2z"/>
	</g>
	<g>
		<path d="M304.771,236.134l-1.807-0.206c0.135-1.18-0.077-2.223-0.631-3.097c-0.46-0.728-1.053-1.178-1.627-1.613
			c-0.801-0.609-1.63-1.24-1.916-2.475c-0.415-1.789,0.73-3.328,1.161-3.907c1.01-1.359,2.366-2.091,3.324-2.466l0.663,1.695
			c-0.603,0.236-1.734,0.791-2.526,1.857c-0.349,0.469-1.073,1.443-0.848,2.411c0.131,0.569,0.517,0.883,1.244,1.436
			c0.636,0.483,1.428,1.084,2.064,2.089C304.652,233.094,304.955,234.532,304.771,236.134z"/>
	</g>
	<g>
		<path d="M304.029,236.187c-0.282-1.617-0.044-3.068,0.705-4.312c0.617-1.027,1.426-1.633,2.074-2.12
			c0.728-0.545,1.115-0.856,1.244-1.42c0.217-0.949-0.506-1.944-0.854-2.422c-0.711-0.979-1.689-1.555-2.385-1.867l0.744-1.659
			c1.287,0.576,2.364,1.427,3.113,2.457c0.466,0.641,1.556,2.143,1.155,3.896c-0.283,1.242-1.156,1.894-1.926,2.471
			c-0.602,0.451-1.172,0.878-1.606,1.601c-0.518,0.858-0.676,1.889-0.472,3.061L304.029,236.187z"/>
	</g>
	<g>
		<path fill="#EFD5DF" d="M291.473,234.971c0.011-0.088,0.704,0.033,2.702-0.17c1.194-0.121,2.583-0.323,4.121-0.735
			c2.556-0.686,2.884-1.239,2.972-1.414c0.325-0.644-0.02-1.295,0.203-1.357c0.232-0.064,0.869,0.568,0.946,1.244
			c0.137,1.207-1.685,2.222-1.959,2.375C296.953,236.867,291.442,235.222,291.473,234.971z"/>
		<path fill="#EFD5DF" d="M296.183,236.777c-2.461,0-4.655-0.65-5.168-0.995l-0.463-0.311l0.019-0.611c0,0,0,0,0-0.002l0,0
			c0.101-0.826,0.933-0.833,1.288-0.837c0.383-0.004,1.082-0.009,2.224-0.124c1.458-0.147,2.722-0.373,3.977-0.711
			c2.041-0.547,2.397-0.951,2.411-0.968c0.052-0.11,0.037-0.29,0.022-0.481c-0.072-0.904,0.362-1.217,0.739-1.318
			c0.22-0.062,0.577-0.078,0.993,0.204c0.463,0.311,1.002,1.013,1.094,1.814c0.179,1.572-1.437,2.725-2.418,3.273
			C299.471,236.505,297.772,236.777,296.183,236.777z"/>
	</g>
	<g>
		<path fill="#EFD5DF" d="M317.142,235.791c-0.002-0.04-0.195-0.015-0.946-0.17c-0.799-0.164-1.365-0.353-1.587-0.424
			c-1.387-0.444-2.024-0.345-4.016-0.885c-2.546-0.69-2.876-1.222-2.972-1.414c-0.325-0.644,0.02-1.295-0.203-1.357
			c-0.232-0.064-0.869,0.568-0.946,1.244c-0.124,1.092,1.356,2.027,1.841,2.308c0,0,0.061,0.036,0.117,0.067
			C310.518,236.302,317.154,236.024,317.142,235.791z"/>
		<path fill="#EFD5DF" d="M314.411,236.925c-2.291,0-5.153-0.275-6.415-0.967c-1.068-0.617-2.6-1.75-2.426-3.276
			c0.09-0.8,0.629-1.501,1.092-1.814c0.417-0.279,0.775-0.265,0.999-0.204c0.377,0.107,0.807,0.419,0.735,1.32
			c-0.015,0.19-0.029,0.37,0.038,0.506v-0.002c0.004,0,0.36,0.393,2.399,0.947c0.947,0.256,1.576,0.362,2.131,0.455
			c0.597,0.101,1.162,0.197,1.923,0.441c0.277,0.091,0.789,0.254,1.492,0.398c0.377,0.078,0.6,0.107,0.724,0.123l0.762,0.096
			l0.187,0.8l0.026,0.531l-0.467,0.306C317.269,236.797,315.973,236.925,314.411,236.925z"/>
	</g>
	<g>
		<ellipse fill="#EFD5DF" cx="301.109" cy="225.533" rx="0.963" ry="0.806"/>
		<ellipse fill="#EFD5DF" cx="301.109" cy="225.532" rx="1.873" ry="1.716"/>
	</g>
	<g>
		<ellipse fill="#EFD5DF" cx="307.818" cy="225.533" rx="0.911" ry="0.763"/>
		<path fill="#EFD5DF" d="M307.818,227.206c-1.004,0-1.821-0.752-1.821-1.674s0.817-1.672,1.821-1.672s1.82,0.75,1.82,1.672
			S308.822,227.206,307.818,227.206z M307.819,225.536c0.001,0.089,0.045,0.146,0.061,0.156L307.819,225.536z"/>
	</g>
	<g>
		<path d="M299.516,310.518c-0.287,0-0.569-0.135-0.747-0.389c-0.287-0.412-0.187-0.979,0.226-1.267
			c1.999-1.397,3.489-3.815,4.196-6.81c0.655-2.777,0.621-5.726,0.588-8.578c-0.005-0.503,0.397-0.915,0.899-0.92
			c0.441,0.009,0.913,0.394,0.92,0.899c0.034,2.962,0.069,6.025-0.636,9.017c-0.81,3.433-2.559,6.233-4.926,7.885
			C299.877,310.465,299.695,310.518,299.516,310.518z"/>
	</g>
	<g>
		<path d="M319.172,307.656c-0.082,0-0.164-0.011-0.247-0.034c-2.729-0.768-5.044-3.029-6.354-6.204
			c-1.124-2.729-1.383-5.639-1.635-8.454c-0.044-0.499,0.325-0.942,0.825-0.986c0.522-0.03,0.943,0.325,0.987,0.826
			c0.239,2.677,0.486,5.447,1.505,7.921c1.078,2.615,3.009,4.54,5.163,5.145c0.484,0.137,0.766,0.638,0.63,1.123
			C319.935,307.393,319.57,307.656,319.172,307.656z"/>
	</g>
	<g>
		<path fill="none" stroke="#000000" stroke-miterlimit="10" d="M278.664,365.689"/>
	</g>
	<g>
		<path d="M293.838,312.695c-0.322,0-0.635-0.172-0.8-0.474c-4.738-8.713-7.39-18.558-7.672-28.47
			c-0.014-0.503,0.382-0.922,0.884-0.936c0.504,0.043,0.92,0.382,0.935,0.883c0.273,9.63,2.849,19.192,7.452,27.653
			c0.24,0.442,0.076,0.995-0.365,1.235C294.134,312.659,293.985,312.695,293.838,312.695z"/>
	</g>
	<g>
		<path d="M298.962,310.699c-0.434,0-0.817-0.311-0.895-0.752c-1.226-6.927-3.303-13.693-6.176-20.112
			c-0.205-0.458,0.001-0.997,0.459-1.201c0.462-0.21,0.997,0.002,1.202,0.458c2.933,6.554,5.055,13.464,6.306,20.539
			c0.088,0.494-0.243,0.967-0.737,1.054C299.068,310.696,299.015,310.699,298.962,310.699z"/>
	</g>
	<g>
		<path d="M302.749,305.975c-0.465,0-0.861-0.354-0.905-0.824c-0.414-4.429-1.643-8.727-3.651-12.773
			c-0.224-0.451-0.04-0.997,0.41-1.221c0.449-0.22,0.996-0.039,1.219,0.41c2.108,4.248,3.398,8.761,3.834,13.412
			c0.046,0.501-0.321,0.943-0.822,0.991C302.806,305.973,302.778,305.975,302.749,305.975z"/>
	</g>
	<g>
		<path d="M321.964,308.2c-0.283,0-0.559-0.131-0.736-0.373l-0.295-0.402c-0.135-0.183-0.191-0.398-0.175-0.608
			c-2.481-5.881-2.75-12.64-0.719-18.695c0.161-0.476,0.679-0.736,1.152-0.572c0.476,0.16,0.733,0.675,0.573,1.151
			c-1.985,5.913-1.611,12.549,1.023,18.204c0.198,0.425,0.041,0.929-0.362,1.167C322.281,308.159,322.121,308.2,321.964,308.2z"/>
	</g>
	<g>
		<path d="M334.315,336.572c-0.339,0-0.653-0.19-0.809-0.494c-0.919-1.793-1.452-3.662-1.583-5.561
			c-0.088-1.277,0.036-2.098,0.156-2.894c0.115-0.76,0.223-1.478,0.146-2.651c-0.084-1.272-0.302-1.961-0.664-3.102
			c-0.216-0.679-0.474-1.491-0.769-2.628c-0.556-2.145-0.96-4.381-1.2-6.652c-2.223-4.447-3.815-9.171-4.733-14.045
			c-1.061-5.627-1.212-11.369-0.449-17.065c0.067-0.497,0.523-0.871,1.022-0.78c0.497,0.066,0.848,0.524,0.781,1.022
			c-0.736,5.504-0.591,11.051,0.434,16.486c0.897,4.762,2.461,9.376,4.646,13.715c0.05,0.098,0.081,0.206,0.092,0.316
			c0.228,2.235,0.622,4.438,1.168,6.545c0.285,1.096,0.534,1.88,0.742,2.534c0.377,1.185,0.649,2.041,0.747,3.536
			c0.09,1.37-0.044,2.258-0.163,3.042c-0.111,0.73-0.215,1.42-0.139,2.498c0.046,0.672,0.151,1.341,0.314,2.006
			c0.486-2.862,0.949-5.835,1.366-8.809c0.802-5.723,1.126-9.223,1.437-12.609c0.28-3.033,0.544-5.9,1.138-9.969
			c0.836-5.733,1.512-8.29,2.109-10.548c0.578-2.189,1.078-4.081,1.597-8.423c0.975-8.157,1.262-14.379-0.152-22.044
			c-0.603-3.269-2.438-13.213-10.264-18.551c-7.929-5.408-17.47-3.076-20.205-2.233c-0.482,0.153-0.99-0.119-1.138-0.601
			c-0.147-0.48,0.122-0.99,0.601-1.137c2.932-0.904,13.165-3.399,21.767,2.468c8.453,5.764,10.391,16.271,11.028,19.723
			c1.456,7.892,1.165,14.26,0.17,22.591c-0.534,4.468-1.049,6.416-1.645,8.672c-0.585,2.21-1.246,4.715-2.068,10.346
			c-0.586,4.021-0.848,6.863-1.126,9.873c-0.299,3.25-0.639,6.931-1.447,12.695c-0.542,3.866-1.162,7.729-1.841,11.483l-0.203,0.629
			c-0.117,0.346-0.43,0.588-0.794,0.617C334.359,336.572,334.337,336.572,334.315,336.572z"/>
	</g>
	<g>
		<path d="M273.942,281.057c-0.482,0-0.885-0.38-0.908-0.867c-0.41-8.702,3.088-17.513,9.356-23.566
			c2.523-2.438,5.447-4.419,8.275-6.336c1.282-0.869,2.564-1.738,3.811-2.649c4.93-3.605,7.86-7.036,9.224-10.799
			c0.171-0.471,0.696-0.714,1.166-0.544c0.473,0.171,0.716,0.693,0.545,1.166c-1.962,5.408-6.568,9.235-9.862,11.645
			c-1.264,0.924-2.564,1.805-3.863,2.686c-2.764,1.874-5.622,3.811-8.033,6.139c-5.896,5.696-9.187,13.985-8.802,22.173
			c0.023,0.501-0.364,0.927-0.866,0.951C273.971,281.057,273.956,281.057,273.942,281.057z"/>
	</g>
	<g>
		<path d="M272.407,262.449c-0.137,0-0.275-0.03-0.406-0.096c-0.449-0.226-0.632-0.771-0.407-1.221
			c3.26-6.512,7.431-11.238,12.397-14.049c0.677-0.382,1.377-0.736,2.125-1.112c1.709-0.862,3.647-1.839,6.119-3.614
			c2.707-1.944,5.194-4.227,7.391-6.787c0.328-0.382,0.903-0.421,1.283-0.1c0.381,0.329,0.425,0.903,0.098,1.283
			c-2.291,2.67-4.886,5.053-7.711,7.082c-2.587,1.857-4.592,2.868-6.361,3.76c-0.72,0.362-1.396,0.704-2.048,1.073
			c-4.646,2.628-8.571,7.094-11.666,13.277C273.061,262.264,272.741,262.449,272.407,262.449z"/>
	</g>
	<g>
		<path fill="none" stroke="#000000" stroke-linecap="round" stroke-linejoin="round" stroke-miterlimit="10" d="M335.675,329.458"
			/>
	</g>
	<g>
		<path d="M294.1,369.983l-0.201-1.809c1.149-0.128,2.789-0.538,4.08-1.775c0.223-0.211,0.416-0.43,0.584-0.647l1.437,1.116
			c-0.221,0.284-0.474,0.57-0.765,0.848C297.925,368.971,296.148,369.756,294.1,369.983z"/>
	</g>
	<g>
		<g>
			<path d="M290.638,268.954c3.512,0,3.518-5.458,0-5.458C287.126,263.496,287.12,268.954,290.638,268.954L290.638,268.954z"/>
		</g>
	</g>
	<g>
		<g>
			<path d="M321.251,267.687c0.026-0.148,0.052-0.297,0.077-0.445c0.243-1.401-0.374-3.008-1.906-3.357
				c-1.326-0.302-3.096,0.402-3.357,1.906c-0.026,0.148-0.052,0.297-0.077,0.445c-0.243,1.401,0.374,3.008,1.906,3.357
				C319.22,269.895,320.989,269.191,321.251,267.687L321.251,267.687z"/>
		</g>
	</g>
	<g>
		<g>
			<path d="M301.243,284.033c3.793,2.001,8.337,1.76,11.793-0.834c0.925-0.694,0.019-2.275-0.918-1.571
				c-2.938,2.204-6.688,2.558-9.957,0.834C301.127,281.916,300.206,283.485,301.243,284.033L301.243,284.033z"/>
		</g>
	</g>
	<g>
		
			<ellipse transform="matrix(0.1712 -0.9852 0.9852 0.1712 -32.143 517.7454)" fill="#EFD5DF" cx="291.665" cy="277.978" rx="3.965" ry="4.039"/>
	</g>
	<g>
		
			<ellipse transform="matrix(0.1712 -0.9852 0.9852 0.1712 -7.8008 545.304)" fill="#EFD5DF" cx="320.217" cy="277.289" rx="3.965" ry="4.039"/>
	</g>
	<g>
		<g>
			<path d="M295.263,383.762c-9.711,0.186-12.842,10.522-15.203,18.245c-3.468,11.342-5.263,23.012-5.908,34.836
				c-1.229,22.558-1.456,54.899-28.097,62.846c-1.119,0.334-0.643,2.09,0.484,1.754c19.833-5.916,26.728-27.013,28.384-45.626
				c1.114-12.528,0.863-25.087,3.083-37.513c1.055-5.903,2.499-11.734,4.319-17.448c2.054-6.45,4.76-15.117,12.939-15.274
				C296.432,385.559,296.436,383.74,295.263,383.762L295.263,383.762z"/>
		</g>
	</g>
	<g>
		<g>
			<path d="M225.301,502.717c0.707-5.134,6.359-4.543,9.626-2.503c2.532,1.581,4.435,4.032,6.77,5.867
				c2.71,2.13,5.721,3.451,9.215,2.794c3.711-0.698,6.715-3.198,9.908-5.03c5.556-3.189,9.872-2.226,15.304,0.64
				c3.159,1.667,6.484,3.622,10.164,3.724c3.907,0.108,7.153-1.99,10.369-3.923c4.737-2.848,8.856-4.177,13.837-1.069
				c3.227,2.013,5.922,4.899,9.475,6.378c8.228,3.426,12.573-4.763,19.826-6.359c5.232-1.151,8.986,3.252,13.295,5.301
				c3.043,1.447,6.201,1.665,9.391,0.545c3.33-1.17,6.176-3.341,9.216-5.075c5.453-3.111,10.073-3.05,15.032,0.93
				c4.868,3.907,9.757,8.617,16.393,5.535c3.705-1.721,6.423-5.028,9.369-7.743c5.738-5.289,11.609-5.789,19.064-4.41
				c7.602,1.406,17.471,3.087,22.196-4.776c0.261-0.434,0.084-0.981-0.326-1.245c-10.224-6.56-21.996-12.535-30.745-21.05
				c-8.71-8.477-12.373-20.91-19.8-30.46c-7.362-9.466-16.052-17.913-24.303-26.591c-9.158-9.632-18.316-19.264-27.474-28.897
				c-0.808-0.85-2.094,0.438-1.286,1.286c9.359,9.843,18.717,19.687,28.076,29.53c8.872,9.332,18.406,18.402,25.899,28.921
				c6.645,9.329,10.096,20.71,18.738,28.558c8.832,8.021,19.977,13.859,29.977,20.275c-0.109-0.415-0.218-0.83-0.326-1.245
				c-6.451,10.736-21.65,1.551-31.127,3.252c-7.956,1.428-11.312,8.992-17.955,12.564c-9.246,4.971-14.071-7.219-22.295-8.62
				c-8.015-1.365-13.422,6.699-20.767,8.015c-8.629,1.546-13.72-9.571-22.801-5.62c-3.261,1.419-5.855,3.994-9.081,5.471
				c-5.578,2.554-9.706-0.875-13.977-4.072c-2.454-1.837-5.064-3.715-8.185-4.139c-4.027-0.546-7.477,1.554-10.773,3.562
				c-5.423,3.303-9.461,4.211-15.384,1.349c-3.456-1.67-6.756-3.993-10.652-4.503c-4.253-0.556-7.813,1.471-11.302,3.637
				c-2.173,1.349-4.379,2.933-6.916,3.503c-4.36,0.98-7.638-1.819-10.635-4.574c-2.89-2.657-6.124-5.88-10.37-5.654
				c-3.221,0.172-5.963,2.181-6.412,5.442C223.389,503.378,225.141,503.873,225.301,502.717L225.301,502.717z"/>
		</g>
	</g>
	<g>
		<g>
			<path d="M287.01,506.988c7.727-8.437,12.908-18.562,15.175-29.779c0.231-1.143-1.522-1.632-1.754-0.484
				c-2.207,10.916-7.182,20.76-14.707,28.976C284.934,506.564,286.217,507.854,287.01,506.988L287.01,506.988z"/>
		</g>
	</g>
	<g>
		<g>
			<path d="M399.405,510.04c-3.041-3.723-5.363-7.858-6.972-12.387c-0.389-1.096-2.148-0.624-1.754,0.484
				c1.716,4.831,4.198,9.22,7.44,13.19C398.859,512.234,400.14,510.94,399.405,510.04L399.405,510.04z"/>
		</g>
	</g>
</g>
<g>
	<g>
		<ellipse fill="#EFD5DF" cx="73.408" cy="344.655" rx="72.499" ry="122.001"/>
		<path d="M73.409,467.566C32.931,467.566,0,412.427,0,344.654s32.931-122.91,73.409-122.91c40.477,0,73.408,55.137,73.408,122.91
			S113.886,467.566,73.409,467.566z M73.409,223.564c-39.474,0-71.589,54.321-71.589,121.091
			c0,66.771,32.115,121.092,71.589,121.092s71.588-54.321,71.588-121.092C144.997,277.885,112.883,223.564,73.409,223.564z"/>
	</g>
	<g>
		<ellipse fill="#FFFFFF" cx="72.022" cy="351.852" rx="68.076" ry="114.558"/>
		<path d="M72.022,467.319c-38.039,0-68.986-51.798-68.986-115.467c0-63.671,30.947-115.469,68.986-115.469
			s68.986,51.798,68.986,115.469C141.008,415.521,110.061,467.319,72.022,467.319z M72.022,238.202
			c-37.036,0-67.166,50.983-67.166,113.65c0,62.665,30.13,113.648,67.166,113.648s67.166-50.983,67.166-113.648
			C139.188,289.185,109.058,238.202,72.022,238.202z"/>
	</g>
	<g>
		<path d="M47.045,501.293c-0.117,0-0.235-0.023-0.349-0.069c-0.43-0.179-0.656-0.654-0.522-1.1
			c1.738-5.837,8.88-25.434,27.828-32.613c23.319-8.836,46.873,8.463,50.545,12.234c0.237,0.243,0.678,0.696,0.433,1.295l0,0
			c-0.096,0.235-0.295,0.426-0.532,0.515c-0.458,0.167-0.609,0.096-2.472-0.837c-19.182-9.594-34.926-11.719-46.8-6.311
			c-4.09,1.862-9.061,5.177-13.3,8.871c-5.657,4.929-10.378,10.829-14.032,17.54C47.68,501.119,47.369,501.293,47.045,501.293z
			 M87.802,466.848c-4.298,0-8.733,0.689-13.156,2.365c-12.386,4.692-19.529,14.979-23.351,22.836
			c2.764-3.715,5.902-7.107,9.385-10.142c4.364-3.802,9.501-7.224,13.742-9.155c11.276-5.131,25.759-3.832,43.105,3.855
			C111.065,472.386,99.992,466.848,87.802,466.848z"/>
	</g>
	<g>
		<path d="M52.293,316.241c-0.073,0-0.147-0.009-0.221-0.027c-2.06-0.515-5.093-1.667-7.842-4.23
			c-1.928-1.798-2.811-3.434-4.273-6.146c-1.56-2.892-1.825-4.23-0.976-4.939c0.358-0.297,0.753-0.288,0.981-0.268
			c0.314-0.734,0.206-3.207,0.163-4.177c-0.021-0.497-0.04-0.926-0.037-1.228c0.033-4.149,3.753-8.223,11.373-12.458
			c0.438-0.24,0.993-0.085,1.237,0.354s0.086,0.993-0.354,1.238c-6.898,3.832-10.41,7.494-10.436,10.881
			c-0.003,0.279,0.016,0.675,0.036,1.134c0.142,3.248,0.126,5.582-1.376,6.037c-0.054,0.016-0.107,0.028-0.158,0.039
			c0.122,0.416,0.423,1.176,1.15,2.525c1.42,2.633,2.203,4.085,3.913,5.68c2.464,2.297,5.189,3.331,7.041,3.793
			c0.488,0.123,0.784,0.617,0.663,1.103C53.071,315.966,52.701,316.241,52.293,316.241z"/>
	</g>
	<g>
		<circle fill="#EFD5DF" cx="50.505" cy="303.018" r="2.727"/>
	</g>
	<g>
		<path d="M64.766,432.078c-1.34,0-2.749-0.083-4.22-0.277c-4.098-0.54-8.112-1.878-11.933-3.976
			c-0.441-0.242-0.601-0.796-0.36-1.235c0.243-0.441,0.797-0.604,1.236-0.361c3.622,1.99,7.422,3.257,11.295,3.767
			c7.168,0.951,12.848-0.919,15.901-1.922l0.375-0.124c13.772-4.495,27.317-5.504,35.41-6.107c2.188-0.162,4.425-0.329,5.861-0.535
			c-1.303-0.277-3.257-0.561-5.057-0.821c-7.524-1.089-15.137-0.892-22.652,0.583c-0.49,0.103-0.971-0.224-1.068-0.716
			c-0.097-0.494,0.225-0.972,0.718-1.068c7.718-1.516,15.537-1.715,23.237-0.604c5.73,0.83,7.864,1.139,7.926,2.651
			c0.068,1.663-2.174,1.828-8.829,2.324c-8.01,0.597-21.417,1.595-34.98,6.023l-0.372,0.121
			C74.682,430.646,70.325,432.078,64.766,432.078z"/>
	</g>
	<g>
		<g>
			<path d="M127.916,415.448c-12.23,1.528-26.068,0.338-37.179-5.399c-4.81-2.484-8.856-8.252-11.843-12.575
				c-3.985-5.767-6.958-12.068-9.007-18.767c-3.608-11.792-6.318-23.741-6.607-36.119c-0.116-4.96,0.431-9.804,0.657-14.735
				c0.157-3.428-1.136-6.328-4.183-8.092c-0.557-0.322-1.119,0.008-1.336,0.544c-5.079,12.501-12.781,23.031-26.926,25.222
				c0.384,0.292,0.768,0.585,1.152,0.877c0.097-1.118,4.662-1.989,5.685-2.535c2.693-1.437,5.23-3.46,7.468-5.523
				c4.634-4.272,7.605-9.75,9.15-15.823c0.289-1.135-1.465-1.619-1.754-0.484c-1.947,7.649-6.312,13.721-12.712,18.295
				c-2.53,1.809-4.812,2.291-7.587,3.312c-1.522,0.56-1.933,1.189-2.069,2.758c-0.056,0.649,0.623,0.959,1.152,0.877
				c14.786-2.29,22.884-13.417,28.197-26.492c-0.445,0.181-0.891,0.362-1.336,0.544c5.029,2.912,2.764,10.86,2.636,15.667
				c-0.165,6.177,0.189,12.361,1.04,18.481c1.536,11.049,4.452,22.932,9.171,33.102c3.955,8.524,10.881,20.027,19.946,23.824
				c11.458,4.799,23.981,6.398,36.289,4.86C129.063,417.124,129.077,415.303,127.916,415.448L127.916,415.448z"/>
		</g>
	</g>
	<g>
		<path d="M68.563,438.406c-3.887,0-7.777-0.291-11.638-0.878c-8.015-1.214-15.762-3.669-23.025-7.293
			c-0.45-0.224-0.633-0.771-0.408-1.221c0.225-0.448,0.77-0.631,1.22-0.407c7.093,3.539,14.658,5.936,22.485,7.123
			c7.411,1.123,14.932,1.141,22.361,0.053c1.912-0.206,3.816-0.503,5.693-0.883c1.61-0.327,3.218-0.721,4.78-1.171
			c6.201-1.988,12.257-3.003,17.973-3.004l0.921,0.004c3.279,0.039,7.75,0.059,11.697-2.733c0.863-0.611,1.66-1.327,2.37-2.127
			c0.335-0.378,0.909-0.409,1.285-0.076c0.376,0.334,0.41,0.908,0.076,1.285c-0.802,0.903-1.704,1.711-2.68,2.404
			c-4.426,3.131-9.243,3.106-12.761,3.067l-0.907-0.004c-5.528,0.002-11.398,0.986-17.445,2.926
			c-1.635,0.471-3.29,0.876-4.948,1.214c-1.933,0.391-3.893,0.695-5.826,0.904C76.068,438.135,72.317,438.406,68.563,438.406z"/>
	</g>
	<g>
		<g>
			<path d="M48.615,337.918c6.143,28.338-3.246,56.223-19.73,79.268c-0.682,0.954,0.895,1.863,1.571,0.918
				c16.777-23.456,26.156-51.868,19.913-80.67C50.122,336.29,48.367,336.774,48.615,337.918L48.615,337.918z"/>
		</g>
	</g>
	<g>
		<path d="M15.469,414.561l-1.333-1.24c7.919-8.512,14.373-18.167,19.182-28.698c3.93-8.603,6.715-17.714,8.279-27.077l1.794,0.298
			c-1.589,9.521-4.422,18.785-8.419,27.536C30.083,396.087,23.52,405.905,15.469,414.561z"/>
	</g>
	<g>
		<path d="M8.738,392.697l-1.237-1.336c4.948-4.579,8.118-10.874,11.184-16.962c3.346-6.643,6.805-13.512,12.613-18.348
			c1.204-1.004,2.856-2.12,4.755-2.018l-0.115,1.816c-1.281-0.076-2.531,0.81-3.475,1.599c-5.518,4.595-8.891,11.293-12.153,17.771
			C17.172,381.45,13.926,387.894,8.738,392.697z"/>
	</g>
	<g>
		<path d="M6.915,381.335c-0.145,0-0.291-0.034-0.428-0.108c-0.443-0.236-0.61-0.787-0.373-1.229
			c6.63-12.396,13.575-22.467,21.234-30.787c1.034-1.125,2.178-2.248,3.772-2.518c1.883-0.316,3.602,0.72,5.041,1.775l0.982,0.73
			c2.072,1.549,4.214,3.152,6.64,3.735c2.557,0.613,5.824-0.368,6.616-2.802c0.156-0.48,0.667-0.737,1.147-0.585
			c0.477,0.155,0.739,0.668,0.584,1.146c-1.139,3.505-5.442,4.811-8.772,4.01c-2.789-0.672-5.084-2.388-7.304-4.047l-0.968-0.72
			c-1.189-0.872-2.447-1.659-3.662-1.448c-1.026,0.174-1.914,1.061-2.736,1.954c-7.554,8.207-14.413,18.155-20.969,30.412
			C7.554,381.161,7.24,381.335,6.915,381.335z"/>
	</g>
	<g>
		<g>
			<path d="M78.628,355.791c-6.888-3.594-12.894-9.315-14.691-17.129c-2.195-9.542,1.89-18.576,4.845-27.361
				c3.989-11.858-7.765-22.58-15.873-29.148c-0.902-0.731-2.197,0.549-1.286,1.286c6.243,5.057,13.517,11.322,15.626,19.448
				c1.576,6.071-1.888,10.89-3.44,16.551c-2.273,8.29-3.675,17.387,0.465,25.327c2.9,5.561,7.949,9.733,13.436,12.597
				C78.746,357.903,79.667,356.333,78.628,355.791L78.628,355.791z"/>
		</g>
	</g>
	<g>
		<g>
			<path d="M52.125,284.059c7.218-8.576,17.38,0.022,20.334,7.709c3.138,8.166,3.17,17.357,2.565,25.964
				c-0.598,8.501-2.296,16.967-2.544,25.485c-0.155,5.339,1.047,10.537,5.811,13.547c0.993,0.627,1.907-0.947,0.918-1.571
				c-8.716-5.506-4.015-21.331-3.102-29.648c1.043-9.496,1.746-19.209-0.278-28.631c-1.352-6.29-4.159-13.293-10.158-16.493
				c-4.894-2.61-11.194-1.971-14.832,2.352C50.089,283.663,51.369,284.956,52.125,284.059L52.125,284.059z"/>
		</g>
	</g>
	<g>
		<path d="M76.442,355.171c-0.161,0-0.322-0.043-0.47-0.132c-5.67-3.431-9.765-7.807-12.171-13.011
			c-2.208-4.772-2.379-9.513-2.691-18.115c-0.211-5.79-0.015-9.806,0.127-12.739c0.227-4.685,0.322-6.625-1.448-9.237
			c-0.951-1.402-1.974-2.333-3.057-3.319c-1.657-1.507-3.369-3.065-4.618-6.261c-1.057-2.706-1.434-5.694-1.118-8.882
			c0.05-0.501,0.488-0.835,0.995-0.817c0.5,0.05,0.865,0.496,0.816,0.995c-0.287,2.901,0.051,5.606,1.003,8.043
			c1.094,2.798,2.576,4.149,4.147,5.577c1.115,1.013,2.267,2.061,3.339,3.644c2.11,3.113,1.992,5.531,1.758,10.346
			c-0.14,2.9-0.333,6.871-0.126,12.583c0.327,8.999,0.553,13.158,2.524,17.419c2.251,4.868,6.107,8.98,11.462,12.219
			c0.43,0.259,0.568,0.819,0.307,1.249C77.051,355.014,76.751,355.171,76.442,355.171z"/>
	</g>
	<g>
		<path d="M44.991,337.389c-0.169,0-0.339-0.046-0.491-0.144c-0.423-0.272-0.545-0.835-0.273-1.258
			c4.175-6.49,7.627-13.485,10.964-20.251c1.946-3.939,4.15-8.406,5.375-12.956c0.131-0.485,0.633-0.769,1.115-0.641
			c0.485,0.13,0.773,0.629,0.642,1.114c-1.271,4.723-3.518,9.274-5.501,13.29c-3.36,6.81-6.833,13.853-11.065,20.429
			C45.583,337.242,45.29,337.389,44.991,337.389z"/>
	</g>
	<g>
		<path d="M46.23,335.154c-0.097,0-0.195-0.016-0.292-0.048c-0.476-0.162-0.73-0.679-0.569-1.155
			c2.894-8.516,5.62-17.208,8.102-25.835c1.104-3.836,2.113-8.203,0.099-11.454c-0.264-0.428-0.132-0.988,0.295-1.253
			c0.426-0.267,0.987-0.133,1.253,0.293c2.406,3.886,1.315,8.706,0.102,12.919c-2.49,8.653-5.224,17.373-8.127,25.917
			C46.963,334.916,46.61,335.154,46.23,335.154z"/>
	</g>
	<g>
		<path d="M49.407,291.523c-0.298,0-0.59-0.146-0.764-0.414c-0.962-1.484-1.333-2.944-1.103-4.337
			c0.22-1.338,1.214-2.562,2.53-3.118c1.079-0.458,2.201-0.37,3.076,0.24c0.412,0.288,0.513,0.855,0.227,1.267
			c-0.289,0.41-0.855,0.51-1.266,0.226c-0.481-0.332-1.039-0.178-1.329-0.057c-0.731,0.309-1.325,1.023-1.443,1.738
			c-0.154,0.933,0.127,1.96,0.835,3.051c0.274,0.423,0.154,0.986-0.268,1.26C49.748,291.475,49.577,291.523,49.407,291.523z"/>
	</g>
	<g>
		<g>
			<path d="M48.359,290.773c0.786,3.063,3.36,5.453,6.504,5.912c1.145,0.167,1.64-1.586,0.484-1.754
				c-2.547-0.372-4.59-2.133-5.233-4.642C49.822,289.156,48.067,289.636,48.359,290.773L48.359,290.773z"/>
		</g>
	</g>
	<g>
		<g>
			<path d="M53.85,284.559c4.832-2.86,10.732-0.9,14.004,3.42c2.933,3.873,3.645,8.868,3.531,13.611
				c-0.178,7.36-1.994,14.344-3.401,21.506c-2.489,12.673,1.685,23.828,9.4,33.94c0.701,0.919,2.282,0.013,1.571-0.918
				c-5.492-7.199-9.955-15.495-10.021-24.76c-0.049-6.939,2.356-13.621,3.365-20.433c1.164-7.854,2.179-17.3-2.951-24.072
				c-3.815-5.036-10.838-7.166-16.415-3.864C51.925,283.584,52.839,285.157,53.85,284.559L53.85,284.559z"/>
		</g>
	</g>
	<g>
		<g>
			<path d="M45.377,276.965c4.822,3.112,10.349,4.383,16.046,3.648c1.145-0.148,1.16-1.969,0-1.819
				c-5.413,0.698-10.533-0.435-15.128-3.4C45.309,274.757,44.396,276.332,45.377,276.965L45.377,276.965z"/>
		</g>
	</g>
	<g>
		<g>
			<path fill="#EFD5DF" d="M45.877,276.365c-0.551,1.361,0.208,2.972,1.383,3.852s2.668,1.194,4.112,1.459
				c5.834,1.072,11.743,1.73,17.67,1.967l0.076-0.502c-6.208,2.473-32.552,6.935-23.699-7.161"/>
		</g>
		<g>
			<g>
				<path d="M45,276.123c-0.585,3.39,1.626,5.182,4.684,6.129c5.983,1.853,13.16,2.008,19.358,2.3
					c0.358,0.017,0.82-0.292,0.877-0.668c0.025-0.167,0.051-0.335,0.076-0.502c0.092-0.607-0.396-1.394-1.119-1.119
					c-4.547,1.728-9.698,2.494-14.535,2.625c-2.411,0.065-5.343,0.126-7.55-1.005c-3.337-1.709-2.174-4.773-0.586-7.445
					c0.599-1.009-0.973-1.925-1.571-0.918c-8.898,14.976,17.606,11.204,24.726,8.498c-0.373-0.373-0.746-0.746-1.119-1.119
					c0.105-0.693-22.6,0.165-21.486-6.292C46.952,275.461,45.199,274.969,45,276.123L45,276.123z"/>
			</g>
		</g>
	</g>
	<g>
		<g>
			<path d="M46.102,300.631c2.341,0,2.345-3.639,0-3.639C43.761,296.992,43.757,300.631,46.102,300.631L46.102,300.631z"/>
		</g>
	</g>
	<g>
		<g>
			<path d="M46.44,312.053c1.219-0.731,2.057-1.78,2.557-3.104c0.414-1.096-1.344-1.57-1.754-0.484
				c-0.328,0.869-0.93,1.543-1.721,2.017C44.518,311.083,45.432,312.657,46.44,312.053L46.44,312.053z"/>
		</g>
	</g>
	<g>
		<g>
			<path d="M56.823,313.466c-0.362,1.604-0.231,3.196,0.494,4.684c0.349,0.716,0.826,1.38,1.404,1.932
				c0.627,0.599,2.714,1.399,2.514,2.352c-0.239,1.142,1.514,1.631,1.754,0.484c0.338-1.614-0.602-2.528-1.885-3.355
				c-1.97-1.27-3.063-3.236-2.527-5.612C58.835,312.809,57.081,312.322,56.823,313.466L56.823,313.466z"/>
		</g>
	</g>
	<g>
		<g>
			<path d="M52.527,286.616c3.854,4.45,8.889,8.96,10.627,14.738c1.911,6.353,0.152,13.048-1.446,19.258
				c-0.292,1.135,1.462,1.619,1.754,0.484c1.681-6.534,3.431-13.543,1.446-20.225c-1.823-6.138-7.027-10.843-11.095-15.54
				C53.045,284.443,51.763,285.734,52.527,286.616L52.527,286.616z"/>
		</g>
	</g>
</g>
<g>
	<g>
		<ellipse fill="#EFD5DF" cx="613.731" cy="349.448" rx="72.499" ry="122.001"/>
		<path d="M613.731,472.358c-40.478,0-73.409-55.137-73.409-122.91s32.931-122.912,73.409-122.912
			c40.477,0,73.408,55.139,73.408,122.912S654.208,472.358,613.731,472.358z M613.731,228.356
			c-39.474,0-71.589,54.321-71.589,121.092c0,66.769,32.115,121.091,71.589,121.091s71.588-54.321,71.588-121.091
			C685.32,282.677,653.205,228.356,613.731,228.356z"/>
	</g>
	<g>
		<ellipse fill="#FFFFFF" cx="615.117" cy="356.644" rx="68.076" ry="114.558"/>
		<path d="M615.117,472.113c-38.039,0-68.985-51.798-68.985-115.469c0-63.669,30.946-115.467,68.985-115.467
			s68.986,51.798,68.986,115.467C684.103,420.314,653.156,472.113,615.117,472.113z M615.117,242.996
			c-37.035,0-67.165,50.983-67.165,113.648c0,62.667,30.13,113.65,67.165,113.65c37.036,0,67.166-50.983,67.166-113.65
			C682.283,293.979,652.153,242.996,615.117,242.996z"/>
	</g>
	<g>
		<path d="M640.094,506.085c-0.324,0-0.635-0.174-0.799-0.474c-3.653-6.709-8.374-12.609-14.032-17.54
			c-4.238-3.692-9.211-7.007-13.3-8.871c-11.873-5.407-27.62-3.283-46.8,6.313c-1.863,0.929-2.015,1.006-2.472,0.835
			c-0.236-0.089-0.434-0.281-0.53-0.513l0,0c-0.246-0.601,0.193-1.052,0.428-1.293c3.669-3.774,27.215-21.077,50.548-12.238
			c18.943,7.176,26.089,26.777,27.828,32.613c0.133,0.446-0.092,0.92-0.522,1.1C640.33,506.062,640.211,506.085,640.094,506.085z
			 M597.689,474.469c5.508,0,10.523,1.023,15.028,3.076c4.241,1.931,9.378,5.355,13.742,9.155c3.482,3.035,6.62,6.426,9.382,10.138
			c-3.823-7.857-10.966-18.142-23.349-22.833c-16.956-6.421-34.125,1.683-42.87,7.391
			C580.037,476.78,589.416,474.469,597.689,474.469z"/>
	</g>
	<g>
		<path d="M634.846,321.035c-0.407,0-0.778-0.275-0.881-0.689c-0.123-0.487,0.173-0.981,0.661-1.103
			c1.854-0.464,4.58-1.5,7.041-3.795c1.71-1.594,2.493-3.045,3.914-5.68c0.727-1.343,1.026-2.109,1.148-2.526
			c-0.051-0.009-0.104-0.021-0.158-0.037c-1.5-0.455-1.516-2.789-1.374-6.037c0.02-0.458,0.038-0.855,0.036-1.134
			c-0.026-3.386-3.537-7.046-10.436-10.879c-0.44-0.245-0.598-0.798-0.354-1.238c0.243-0.437,0.799-0.592,1.237-0.354
			c7.621,4.234,11.341,8.308,11.373,12.457c0.003,0.302-0.016,0.73-0.037,1.226c-0.043,0.972-0.15,3.447,0.164,4.181
			c0.276-0.027,0.643-0.014,0.981,0.267c0.852,0.712,0.587,2.052-0.978,4.941c-1.462,2.711-2.345,4.348-4.273,6.146
			c-2.172,2.025-4.883,3.488-7.84,4.23C634.993,321.026,634.919,321.035,634.846,321.035z"/>
	</g>
	<g>
		<circle fill="#EFD5DF" cx="636.635" cy="307.81" r="2.727"/>
	</g>
	<g>
		<path d="M622.379,436.87c-5.558,0-9.913-1.428-12.484-2.272l-0.38-0.124c-13.563-4.428-26.97-5.426-34.98-6.023
			c-6.656-0.496-8.899-0.663-8.83-2.326c0.064-1.512,2.205-1.823,7.926-2.651c7.71-1.11,15.527-0.91,23.239,0.606
			c0.492,0.096,0.814,0.574,0.717,1.068c-0.097,0.492-0.574,0.816-1.069,0.716c-7.508-1.476-15.12-1.675-22.627-0.588
			c-1.809,0.261-3.773,0.545-5.081,0.826c1.436,0.204,3.672,0.371,5.861,0.535c8.093,0.602,21.638,1.611,35.409,6.107l0.383,0.126
			c3.053,1.002,8.737,2.871,15.893,1.921c3.877-0.512,7.678-1.779,11.296-3.767c0.439-0.242,0.993-0.082,1.236,0.361
			c0.242,0.439,0.081,0.993-0.36,1.235c-3.817,2.097-7.833,3.434-11.934,3.976C625.124,436.788,623.717,436.87,622.379,436.87z"/>
	</g>
	<g>
		<g>
			<path d="M559.223,422.06c12.307,1.538,24.832-0.061,36.289-4.86c9.073-3.801,15.986-15.293,19.946-23.824
				c4.72-10.169,7.635-22.055,9.171-33.102c0.824-5.926,1.184-11.913,1.056-17.895c-0.105-4.896-2.459-13.311,2.62-16.253
				c-0.445-0.181-0.891-0.362-1.336-0.544c5.314,13.079,13.409,24.202,28.197,26.492c0.528,0.082,1.208-0.228,1.152-0.877
				c-0.136-1.569-0.547-2.198-2.069-2.758c-2.776-1.02-5.057-1.503-7.587-3.312c-6.4-4.574-10.765-10.646-12.712-18.295
				c-0.289-1.134-2.044-0.653-1.754,0.484c1.546,6.073,4.515,11.55,9.15,15.823c2.111,1.946,4.463,3.808,6.963,5.229
				c0.985,0.56,6.104,1.832,6.19,2.829c0.384-0.292,0.768-0.585,1.152-0.877c-14.141-2.19-21.849-12.727-26.927-25.222
				c-0.218-0.536-0.78-0.866-1.336-0.544c-3.049,1.765-4.339,4.666-4.183,8.092c0.215,4.713,0.752,9.347,0.668,14.087
				c-0.222,12.6-2.941,24.766-6.619,36.767c-1.977,6.452-4.798,12.531-8.577,18.129c-3.008,4.456-7.005,10.177-11.761,12.981
				c-10.697,6.308-25.687,7.13-37.691,5.629C558.064,420.096,558.075,421.917,559.223,422.06L559.223,422.06z"/>
		</g>
	</g>
	<g>
		<path d="M618.592,443.2c-3.765,0-7.531-0.275-11.274-0.823c-1.919-0.208-3.879-0.512-5.792-0.901
			c-1.628-0.33-3.284-0.736-4.921-1.205c-6.071-1.946-11.94-2.93-17.473-2.935l-0.899,0.005c-3.518,0.02-8.34,0.066-12.768-3.068
			c-0.974-0.688-1.875-1.498-2.681-2.404c-0.333-0.377-0.299-0.951,0.076-1.285c0.374-0.332,0.949-0.3,1.285,0.076
			c0.712,0.803,1.51,1.519,2.37,2.127c3.951,2.797,8.443,2.756,11.703,2.734l0.916-0.005c5.72,0.005,11.776,1.018,18,3.013
			c1.563,0.448,3.171,0.842,4.754,1.162c1.859,0.378,3.763,0.675,5.66,0.879c7.465,1.093,14.988,1.077,22.394-0.048
			c7.826-1.187,15.391-3.584,22.485-7.123c0.453-0.227,0.996-0.039,1.22,0.407c0.225,0.45,0.042,0.997-0.408,1.221
			c-7.264,3.625-15.011,6.078-23.024,7.293C626.362,442.907,622.478,443.2,618.592,443.2z"/>
	</g>
	<g>
		<g>
			<path d="M636.77,342.227c-6.243,28.802,3.136,57.214,19.913,80.67c0.675,0.944,2.254,0.037,1.571-0.918
				c-16.483-23.045-25.873-50.929-19.729-79.268C638.772,341.569,637.018,341.081,636.77,342.227L636.77,342.227z"/>
		</g>
	</g>
	<g>
		<path d="M671.67,419.355c-8.056-8.665-14.617-18.483-19.504-29.183c-3.998-8.75-6.83-18.014-8.419-27.536l1.794-0.298
			c1.563,9.362,4.349,18.473,8.279,27.077c4.806,10.523,11.26,20.18,19.182,28.699L671.67,419.355z"/>
	</g>
	<g>
		<path d="M678.402,397.49c-5.189-4.802-8.434-11.248-11.574-17.481c-3.262-6.476-6.635-13.174-12.152-17.771
			c-0.947-0.787-2.202-1.7-3.476-1.599l-0.115-1.816c1.923-0.115,3.549,1.014,4.755,2.017c5.808,4.838,9.267,11.709,12.613,18.352
			c3.067,6.089,6.237,12.384,11.185,16.962L678.402,397.49z"/>
	</g>
	<g>
		<path d="M680.224,386.127c-0.325,0-0.639-0.174-0.803-0.481c-6.557-12.259-13.416-22.207-20.968-30.41
			c-0.824-0.895-1.713-1.782-2.738-1.956c-1.198-0.217-2.471,0.576-3.661,1.45l-0.969,0.72c-2.219,1.659-4.514,3.376-7.302,4.046
			c-3.33,0.798-7.634-0.501-8.773-4.01c-0.155-0.478,0.107-0.991,0.585-1.146c0.477-0.158,0.991,0.105,1.146,0.585
			c0.792,2.438,4.066,3.422,6.617,2.802c2.424-0.581,4.566-2.184,6.638-3.733l0.982-0.73c1.513-1.109,3.173-2.095,5.041-1.777
			c1.593,0.27,2.737,1.391,3.774,2.518c7.657,8.319,14.603,18.389,21.234,30.787c0.237,0.442,0.07,0.993-0.373,1.229
			C680.515,386.093,680.369,386.127,680.224,386.127z"/>
	</g>
	<g>
		<g>
			<path d="M609.43,362.154c5.504-2.872,10.504-7.039,13.436-12.597c4.17-7.904,2.73-17.07,0.465-25.327
				c-1.552-5.659-5.02-10.482-3.44-16.551c2.114-8.124,9.384-14.391,15.626-19.448c0.91-0.737-0.384-2.017-1.286-1.286
				c-8.139,6.594-19.826,17.269-15.873,29.148c2.805,8.432,6.533,16.68,5.079,25.861c-1.35,8.525-7.526,14.768-14.925,18.629
				C607.473,361.125,608.392,362.696,609.43,362.154L609.43,362.154z"/>
		</g>
	</g>
	<g>
		<g>
			<path d="M636.301,287.565c-3.51-4.17-9.468-4.917-14.297-2.6c-6.35,3.046-9.299,10.253-10.693,16.741
				c-1.963,9.134-1.358,18.547-0.374,27.762c0.555,5.205,1.282,10.396,1.706,15.614c0.443,5.442,0.466,11.632-4.713,14.904
				c-0.987,0.624-0.076,2.199,0.918,1.571c4.769-3.013,5.967-8.205,5.812-13.547c-0.248-8.518-1.946-16.986-2.544-25.485
				c-0.606-8.613-0.574-17.795,2.565-25.964c2.959-7.7,13.128-16.271,20.334-7.709C635.77,289.749,637.051,288.456,636.301,287.565
				L636.301,287.565z"/>
		</g>
	</g>
	<g>
		<path d="M610.697,359.963c-0.308,0-0.609-0.156-0.779-0.439c-0.26-0.43-0.123-0.99,0.307-1.249
			c5.356-3.241,9.212-7.35,11.462-12.217c1.969-4.262,2.196-8.42,2.524-17.421c0.207-5.712,0.014-9.683-0.127-12.583
			c-0.234-4.815-0.352-7.233,1.758-10.346c1.072-1.581,2.224-2.63,3.339-3.644c1.571-1.428,3.054-2.777,4.148-5.575
			c0.953-2.439,1.29-5.145,1.002-8.041c-0.05-0.501,0.315-0.947,0.815-0.995c0.494-0.05,0.946,0.314,0.995,0.814
			c0.316,3.187-0.06,6.176-1.118,8.884c-1.249,3.196-2.962,4.754-4.619,6.261c-1.084,0.984-2.107,1.915-3.057,3.317
			c-1.77,2.612-1.675,4.552-1.447,9.239c0.142,2.932,0.338,6.947,0.127,12.737c-0.313,8.603-0.485,13.343-2.69,18.117
			c-2.406,5.2-6.5,9.578-12.172,13.009C611.019,359.92,610.856,359.963,610.697,359.963z"/>
	</g>
	<g>
		<path d="M642.149,342.181c-0.299,0-0.592-0.147-0.766-0.418c-4.232-6.576-7.707-13.619-11.066-20.427
			c-1.985-4.022-4.233-8.58-5.5-13.29c-0.131-0.485,0.157-0.984,0.642-1.114c0.483-0.131,0.984,0.155,1.115,0.641
			c1.221,4.538,3.427,9.01,5.374,12.956c3.338,6.766,6.789,13.759,10.965,20.249c0.272,0.423,0.15,0.986-0.273,1.258
			C642.488,342.135,642.318,342.181,642.149,342.181z"/>
	</g>
	<g>
		<path d="M640.91,339.948c-0.379,0-0.733-0.238-0.862-0.617c-2.899-8.532-5.634-17.252-8.128-25.919
			c-1.213-4.214-2.304-9.033,0.104-12.917c0.265-0.426,0.824-0.56,1.253-0.293c0.426,0.265,0.558,0.824,0.293,1.253
			c-2.015,3.25-1.006,7.617,0.099,11.453c2.486,8.64,5.212,17.334,8.103,25.837c0.162,0.476-0.093,0.993-0.569,1.155
			C641.105,339.932,641.006,339.948,640.91,339.948z"/>
	</g>
	<g>
		<path d="M637.732,296.315c-0.17,0-0.341-0.048-0.494-0.146c-0.422-0.274-0.542-0.837-0.268-1.26
			c0.708-1.091,0.989-2.116,0.835-3.049c-0.118-0.714-0.712-1.428-1.443-1.738c-0.288-0.121-0.845-0.275-1.329,0.057
			c-0.412,0.288-0.979,0.187-1.266-0.226c-0.287-0.412-0.186-0.979,0.227-1.267c0.872-0.611,1.994-0.698,3.076-0.24
			c1.317,0.556,2.31,1.78,2.53,3.118c0.231,1.393-0.14,2.852-1.103,4.335C638.322,296.169,638.03,296.315,637.732,296.315z"/>
	</g>
	<g>
		<g>
			<path d="M637.026,295.082c-0.644,2.509-2.686,4.27-5.233,4.642c-1.154,0.169-0.664,1.922,0.484,1.754
				c3.144-0.459,5.719-2.85,6.504-5.912C639.072,294.431,637.318,293.946,637.026,295.082L637.026,295.082z"/>
		</g>
	</g>
	<g>
		<g>
			<path d="M634.208,287.78c-5.57-3.297-12.611-1.18-16.415,3.864c-5.12,6.788-4.117,16.206-2.951,24.072
				c1.009,6.811,3.418,13.494,3.365,20.433c-0.07,9.268-4.527,17.558-10.021,24.76c-0.71,0.931,0.869,1.838,1.571,0.918
				c7.715-10.113,11.889-21.265,9.4-33.94c-1.36-6.927-3.097-13.673-3.382-20.782c-0.183-4.567,0.331-9.401,2.784-13.367
				c3.052-4.934,9.545-7.458,14.732-4.388C634.299,289.949,635.216,288.377,634.208,287.78L634.208,287.78z"/>
		</g>
	</g>
	<g>
		<g>
			<path d="M640.844,280.187c-4.593,2.963-9.71,4.099-15.128,3.4c-1.158-0.149-1.147,1.671,0,1.819
				c5.697,0.735,11.223-0.536,16.046-3.648C642.743,281.125,641.832,279.549,640.844,280.187L640.844,280.187z"/>
		</g>
	</g>
	<g>
		<g>
			<path fill="#EFD5DF" d="M641.263,281.157c0.551,1.361-0.208,2.972-1.383,3.852s-2.668,1.194-4.112,1.459
				c-5.834,1.072-11.743,1.73-17.67,1.967l-0.076-0.502c6.208,2.473,32.552,6.935,23.699-7.161"/>
		</g>
		<g>
			<g>
				<path d="M640.385,281.399c1.137,6.591-21.609,5.476-21.486,6.292c-0.373,0.373-0.746,0.746-1.119,1.119
					c7.125,2.708,33.626,6.481,24.726-8.498c-0.598-1.006-2.171-0.092-1.571,0.918c1.435,2.415,2.783,5.469-0.174,7.26
					c-2.228,1.349-5.464,1.258-7.962,1.19c-4.84-0.131-9.987-0.897-14.535-2.625c-0.723-0.275-1.211,0.512-1.119,1.119
					c0.025,0.167,0.051,0.335,0.076,0.502c0.056,0.374,0.515,0.685,0.877,0.668c6.29-0.297,13.271-0.525,19.358-2.3
					c3.078-0.898,5.264-2.767,4.684-6.129C641.941,279.764,640.187,280.252,640.385,281.399L640.385,281.399z"/>
			</g>
		</g>
	</g>
	<g>
		<g>
			<path d="M641.037,305.423c2.341,0,2.345-3.639,0-3.639C638.696,301.785,638.692,305.423,641.037,305.423L641.037,305.423z"/>
		</g>
	</g>
	<g>
		<g>
			<path d="M641.618,315.275c-0.791-0.474-1.393-1.147-1.721-2.017c-0.41-1.085-2.169-0.615-1.754,0.484
				c0.5,1.324,1.338,2.373,2.557,3.104C641.706,317.449,642.622,315.877,641.618,315.275L641.618,315.275z"/>
		</g>
	</g>
	<g>
		<g>
			<path d="M628.562,318.742c0.538,2.385-0.573,4.322-2.527,5.612c-1.278,0.843-2.227,1.726-1.885,3.355
				c0.24,1.145,1.994,0.661,1.754-0.484c-0.21-1.001,1.882-1.75,2.514-2.352c0.577-0.55,1.057-1.216,1.404-1.932
				c0.72-1.489,0.856-3.078,0.494-4.684C630.059,317.117,628.304,317.6,628.562,318.742L628.562,318.742z"/>
		</g>
	</g>
	<g>
		<g>
			<path d="M633.326,290.122c-4.061,4.69-9.274,9.411-11.095,15.54c-1.984,6.679-0.235,13.693,1.446,20.225
				c0.291,1.133,2.047,0.653,1.754-0.484c-1.604-6.238-3.309-12.876-1.446-19.258c1.683-5.765,6.795-10.313,10.627-14.738
				C635.376,290.527,634.094,289.235,633.326,290.122L633.326,290.122z"/>
		</g>
	</g>
</g>
</svg>
