<?xml version="1.0" encoding="utf-8"?>
<!-- Generator: Adobe Illustrator 22.1.0, SVG Export Plug-In . SVG Version: 6.00 Build 0)  -->
<svg version="1.1" id="Шар_1" xmlns="http://www.w3.org/2000/svg" xmlns:xlink="http://www.w3.org/1999/xlink" x="0px" y="0px"
	 width="385.907px" height="485.825px" viewBox="0 0 385.907 485.825" enable-background="new 0 0 385.907 485.825"
	 xml:space="preserve">
<g>
	<path fill="none" stroke="#000000" stroke-linecap="round" stroke-linejoin="round" stroke-miterlimit="10" d="M113.299,432.139
		c-2.703,20.343-4.441,33.965-4.574,36.796c0,0-0.186,3.973-1.358,4.309c-0.001,0-0.001,0-0.001,0
		c-0.008,0.002-0.052,0.009-0.678,0.106c-0.017-0.841-0.041-2.033-0.068-3.464c0,0-0.037-1.976-0.068-3.939
		c-0.149-9.304,0.136-22.142,0.136-22.142c0-6.004,0.183-14.854-0.226-26.885"/>
	<g>
		<path d="M127.306,261.222c-2.422-3.558-5.077-7.492-6.425-11.615c-1.439-4.398-0.476-9.252,0.735-13.569
			c0.253-0.902-1.148-1.286-1.401-0.386c-1.244,4.432-2.171,9.342-0.874,13.882c1.271,4.45,4.137,8.641,6.71,12.421
			C126.575,262.723,127.834,261.997,127.306,261.222L127.306,261.222z"/>
	</g>
	<g>
		<path d="M205.566,427.857c0.521-5.334-2.572-9.659-6.205-13.244c-5.716-5.64-12.639-10.05-19.052-14.833
			c-13.767-10.268-25.664-22.199-35.926-35.953c-8.772-11.758-15.311-24.426-19.106-38.615c-1.028-3.842-1.347-7.901-1.603-11.858
			c-0.397-6.143-1.011-14.388,2.371-19.821c2.376-3.818,6.66-7.543,7.005-12.245c0.197-2.691,0.022-5.695-0.359-8.362
			c-0.366-2.563-2.381-4.263-2.863-6.793c-0.153-0.805-1.459-0.62-1.427,0.193c0.006,0.233,0.028,0.466,0.065,0.697
			c0.1,0.919,1.554,0.93,1.453,0c-0.038-0.231-0.06-0.463-0.065-0.697c-0.476,0.064-0.951,0.129-1.427,0.193
			c0.465,2.442,2.328,4.153,2.82,6.542c0.495,2.405,0.426,5.268,0.354,7.715c-0.132,4.503-4.508,8.338-6.811,12.023
			c-2.923,4.678-2.847,11.388-2.737,16.715c0.097,4.664,0.419,9.502,1.332,14.092c2.329,11.702,7.758,23.328,14.245,33.239
			c8.166,12.476,18.12,24.112,29.272,33.991c7.549,6.687,15.848,12.355,23.864,18.447c5.794,4.404,14.153,10.324,13.347,18.573
			C204.022,428.787,205.475,428.781,205.566,427.857L205.566,427.857z"/>
	</g>
	<g>
		<path d="M111.635,232.52c0.272,7.239-2.475,11.543-6.654,17.05c-3.494,4.604-6.597,10.136-7.83,15.82
			c-1.396,6.435-0.52,13.014,0.592,19.417c1.282,7.384,2.571,14.863,2.476,22.384c-0.098,7.728-1.968,15.292-5.988,21.931
			c-3.769,6.225-8.946,11.82-14.025,16.998c-10.049,10.244-22.502,18.532-35.21,25.101c-13.769,7.117-28.251,12.746-43.193,16.854
			c-0.9,0.247-0.518,1.649,0.386,1.401c26.674-7.333,53.702-19.345,74.479-37.961c10.4-9.318,21.233-21.058,24.072-35.164
			c1.412-7.018,1-14.198,0.081-21.25c-0.966-7.414-2.948-14.841-2.948-22.348c0.001-8.966,3.953-16.872,9.401-23.769
			c4.006-5.07,6.061-9.867,5.813-16.463C113.052,231.589,111.599,231.584,111.635,232.52L111.635,232.52z"/>
	</g>
	<g>
		<path d="M141.39,229.344c-5.512,3.688-11.639,6.068-18.392,5.392c-5.838-0.585-11.35-3.277-15.872-6.942
			c-10.583-8.577-18.049-24.06-12.015-37.343c5.148-11.332,18.136-17.003,30.115-16.075c11.905,0.922,27.593,10.897,27.116,24.153
			c-0.065,1.808-0.256,4.485,1.149,5.911c0.549,0.557,1.07,0.751,1.88,0.835c1.272,0.132,1.529-0.854,1.5,0.835
			c-0.048,2.76-2.561,6.378-3.839,8.739c-1.885,3.482-3.956,6.857-6.142,10.158c-0.518,0.782,0.74,1.51,1.254,0.733
			c3.721-5.619,8.801-12.474,10.128-19.244c0.17-0.867,0.482-2.332-0.46-2.918c-0.628-0.39-1.122,0.163-1.697,0.109
			c-3.073-0.288-2.351-3.588-2.283-5.84c0.396-13.147-15.427-23.329-27.046-24.767c-12.267-1.518-25.892,3.773-32.05,14.898
			c-7.529,13.603-0.741,30.232,10.156,39.818c4.468,3.931,9.863,6.967,15.757,8.06c7.791,1.445,15.042-0.953,21.477-5.259
			C142.896,230.081,142.17,228.822,141.39,229.344L141.39,229.344z"/>
	</g>
	<g>
		<path d="M138.177,177.845c-3.728,11.053-9.508,21.027-20.788,25.348c-4.81,1.842-8.662,4.317-10.624,9.309
			c-2.013,5.122-1.574,10.848-0.647,16.153c0.161,0.919,1.561,0.53,1.401-0.386c-1.078-6.174-1.489-13.423,2.548-18.674
			c3.465-4.506,9.473-5.063,14.035-8.047c8.071-5.28,12.491-14.464,15.476-23.317C139.877,177.343,138.475,176.963,138.177,177.845
			L138.177,177.845z"/>
	</g>
	<g>
		<path d="M113.884,216.852c-1.054-0.972-2.151-2.338-2.131-3.862c0.026-1.942,2.493-1.11,3.582-0.594
			c0.84,0.398,1.578-0.854,0.733-1.254c-1.685-0.799-4.845-1.628-5.621,0.814c-0.695,2.188,0.89,4.521,2.409,5.923
			C113.543,218.512,114.573,217.487,113.884,216.852L113.884,216.852z"/>
	</g>
	<g>
		<path d="M144.196,203.31c1.039-1.308,2.799-1.683,4.25-0.819c0.805,0.479,1.536-0.776,0.733-1.254
			c-1.972-1.174-4.571-0.766-6.01,1.046C142.594,203.007,143.615,204.042,144.196,203.31L144.196,203.31z"/>
	</g>
	<g opacity="0.17">
		<circle fill="#C1272D" cx="137.387" cy="213.868" r="4.197"/>
		<g>
			<path fill="#FFFFFF" d="M140.858,213.868c-0.239,4.444-6.942,4.485-6.942,0C133.916,209.382,140.618,209.421,140.858,213.868
				c0.05,0.93,1.503,0.936,1.453,0c-0.144-2.67-2.137-4.923-4.923-4.923c-2.668,0-4.935,2.247-4.923,4.923
				c0.012,2.594,2.099,4.793,4.695,4.911c2.875,0.131,5.003-2.147,5.152-4.911C142.361,212.934,140.908,212.936,140.858,213.868z"/>
		</g>
	</g>
	<g>
		<path d="M124.946,200.803c0.935,0,0.936-1.453,0-1.453C124.012,199.351,124.01,200.803,124.946,200.803L124.946,200.803z"/>
	</g>
	<g>
		<path d="M108.087,176.43c0.195,7.496-6.117,13.52-13.604,12.928c-0.932-0.074-0.927,1.379,0,1.453
			c8.274,0.654,15.272-6.113,15.057-14.381C109.516,175.497,108.063,175.493,108.087,176.43L108.087,176.43z"/>
	</g>
	<g>
		<path d="M93.25,192.884c15.481,8.356,34.429-0.976,35.878-18.826c0.076-0.932-1.377-0.927-1.453,0
			c-1.356,16.704-19.222,25.383-33.692,17.572C93.161,191.186,92.426,192.439,93.25,192.884L93.25,192.884z"/>
	</g>
	<g>
		<path d="M106.445,219.929c-8.086-5.324-12.941-14.218-13.096-23.891c-0.015-0.934-1.468-0.937-1.453,0
			c0.164,10.208,5.293,19.533,13.816,25.145C106.494,221.699,107.223,220.442,106.445,219.929L106.445,219.929z"/>
	</g>
	<g>
		<path d="M131.084,192.726c-7.096,5.216-15.424,7.473-24.088,5.187c-3.153-0.832-6.094-2.181-9.053-3.521
			c-1.155-0.523-2.899-1.615-4.228-1.385c-3.264,0.566-0.675,4.906,0.342,6.358c3.777,5.395,9.583,8.827,16.072,9.691
			c0.924,0.123,0.915-1.331,0-1.453c-6.333-0.843-12.895-4.781-15.863-10.634c-1.523-3.003,0.74-2.307,2.637-1.464
			c1.728,0.768,3.428,1.596,5.187,2.294c10.364,4.111,20.741,2.787,29.728-3.819C132.563,193.433,131.839,192.172,131.084,192.726
			L131.084,192.726z"/>
	</g>
	<g>
		<path d="M139.723,179.02c-0.936,10.608-7.03,19.867-16.303,25.027c-0.817,0.455-0.085,1.71,0.733,1.254
			c9.751-5.425,16.041-15.159,17.022-26.281C141.258,178.089,139.805,178.095,139.723,179.02L139.723,179.02z"/>
	</g>
	<g>
		<path d="M96.628,186.888c-3.458-7.94-12.943-4.942-15.529,2.001c-2.106,5.655-1.678,12.608-2.084,18.546
			c-0.491,7.181-0.982,14.363-1.473,21.544c-0.923,13.507-1.663,27.04-2.793,40.531c-0.972,11.607-2.891,24.03-10.204,33.525
			c0.418,0.244,0.836,0.489,1.254,0.733c7.17-10.576,12.676-21.799,15.851-34.264c4.913-19.288,1.746-38.804,2.965-58.382
			c0.24-3.847,0.646-7.785,2.15-11.371c0.259-0.617,0.538-1.622,0.996-2.107c1.471-1.556,2.052,0.193,2.212,1.898
			c0.214,2.275-0.07,4.391-0.339,6.631c-0.561,4.661,0.053,9.538,0.024,14.238c-0.024,3.899-0.008,7.799,0.021,11.698
			c0.057,7.719,0.173,15.437,0.314,23.154c0.051,2.75,0.366,5.733-0.06,8.004c-1.159,6.18-3.112,12.305-5.606,18.069
			c-1.737,4.015-3.799,7.911-6.295,11.508c-1.48,2.133-3.11,4.163-4.924,6.023c-0.871,0.893-1.771,1.8-2.752,2.571
			c-1.856,1.458-2.702,1.725-4.939,1.195c-0.909-0.215-1.297,1.185-0.386,1.401c1.488,0.352,2.478,0.825,3.887,0.217
			c1.985-0.856,3.74-2.842,5.217-4.356c2.978-3.053,5.49-6.552,7.633-10.232c3.814-6.549,6.533-13.757,8.436-21.08
			c2.44-9.39,1.118-19.204,1.002-28.829c-0.113-9.368,0.112-18.759-0.232-28.119c-0.175-4.767,1.033-9.422,0.163-14.174
			c-0.423-2.309-1.618-4.459-3.661-2.095c-4.699,5.435-4.435,15.114-4.518,21.747c-0.137,11.054,0.655,22.114,0.109,33.164
			c-0.95,19.234-7.83,36.985-18.523,52.759c-0.536,0.791,0.701,1.452,1.254,0.733c5.713-7.417,8.223-16.842,9.502-25.96
			c1.466-10.445,1.796-21.08,2.515-31.594c0.851-12.448,1.702-24.895,2.553-37.343c0.406-5.936,0.041-12.735,1.762-18.463
			c1.847-6.145,10.019-10.187,13.242-2.787C95.746,188.476,96.998,187.737,96.628,186.888L96.628,186.888z"/>
	</g>
	<g>
		<path d="M91.521,200.858c-1.262,4.422-1.33,9.027,0.12,13.418c0.928,2.809,2.637,5.232,3.633,8.006
			c3.334,9.281,3.222,20.161,2.124,29.829c-2.132,18.776-11.159,35.661-25.199,48.213c-0.698,0.624,0.332,1.649,1.027,1.027
			c13.266-11.86,22.344-27.713,25.104-45.364c1.517-9.703,1.72-19.984-0.407-29.618c-0.695-3.149-1.761-5.928-3.255-8.759
			c-2.72-5.152-3.355-10.73-1.746-16.367C93.178,200.344,91.777,199.959,91.521,200.858L91.521,200.858z"/>
	</g>
	<g>
		<path d="M125.244,269.622c0.889,0.283,1.781,0.561,2.675,0.83c0.541,0.163,1.082,0.323,1.624,0.481
			c0.766,0.223,0.942,0.383,1.38,1.057c0.507,0.781,1.766,0.054,1.254-0.733c-0.272-0.419-0.526-1.049-0.955-1.329
			c-0.554-0.363-1.497-0.453-2.132-0.641c-1.157-0.343-2.31-0.698-3.46-1.065C124.737,267.936,124.355,269.338,125.244,269.622
			L125.244,269.622z"/>
	</g>
	<g>
		<path d="M101.955,256.911c3.339-2.115,6.598-1.888,8.793,1.536c0.955,1.49,1.673,3.081,2.684,4.546
			c0.528,0.764,1.787,0.039,1.254-0.733c-1.567-2.268-2.53-5.118-4.702-6.913c-2.728-2.253-6.01-1.434-8.762,0.31
			C100.434,256.156,101.162,257.413,101.955,256.911L101.955,256.911z"/>
	</g>
	<g>
		<path d="M98.494,321.609c7.967,5.317,17.846,5.279,25.769-0.105c0.769-0.522,0.043-1.782-0.733-1.254
			c-7.516,5.107-16.74,5.152-24.303,0.105C98.447,319.834,97.719,321.092,98.494,321.609L98.494,321.609z"/>
	</g>
	<g>
		<path d="M99.379,318.128c7.505,4.761,17.107,4.503,24.32-0.698c0.751-0.542,0.027-1.802-0.733-1.254
			c-6.804,4.906-15.76,5.199-22.854,0.698C99.321,316.372,98.591,317.629,99.379,318.128L99.379,318.128z"/>
	</g>
	<g>
		<path d="M116.664,324.289c-0.229,31.753,20.703,57.408,41.289,79.372c0.641,0.684,1.666-0.345,1.027-1.027
			c-20.318-21.679-41.09-46.986-40.864-78.345C118.123,323.354,116.671,323.353,116.664,324.289L116.664,324.289z"/>
	</g>
	<g>
		<path d="M103.189,323.583c-3.902,15.109-7.947,30.418-16.453,43.696c-7.955,12.419-18.946,22.56-31.206,30.637
			c-0.777,0.512-0.051,1.77,0.733,1.254c12.144-8,23.042-17.978,31.082-30.166c8.982-13.616,13.211-29.417,17.244-45.035
			C104.823,323.063,103.423,322.677,103.189,323.583L103.189,323.583z"/>
	</g>
	<g>
		<path d="M110.738,353.038c-0.388,28.464,3.622,56.81,11.894,84.048c0.271,0.892,1.673,0.512,1.401-0.386
			c-8.236-27.119-12.229-55.322-11.843-83.662C112.203,352.103,110.751,352.102,110.738,353.038L110.738,353.038z"/>
	</g>
	<path fill="none" stroke="#000000" stroke-linecap="round" stroke-linejoin="round" stroke-miterlimit="10" d="M106.754,261.463
		c-0.542,0.113-4.313,0.948-5.118,3.725c-0.669,2.307,1.521,4.949,3.203,6.012c0.443,0.28,1.03,0.637,1.809,0.953
		c0,0,0,0.001,0.001,0.001c0,0,2.227,0.954,5.088,0.745c11.196-0.819,21.628-9.989,21.628-9.989
		c3.089-2.715,7.297-6.414,10.065-12.665c1.924-4.345,2.702-8.85,3.322-12.688c0.308-1.905,0.532-3.933,0.654-6.18
		c0.18-3.325,0.477-8.817-0.968-9.199c-1.041-0.275-2.831,2.141-3.571,4.503c-0.827,2.639-0.26,4.944-0.06,5.907
		c1.608,7.758-2.406,15.83-3.389,17.673c-2.942,5.513-7.218,8.388-9.775,10.108c-0.542,0.364-7.782,5.149-11.913,3.81
		c-0.17-0.055-1.027-0.166-1.911-0.675c-0.979-0.564-2.514-1.314-4.518-1.763C109.897,261.425,108.468,261.106,106.754,261.463z"/>
	<path fill="none" stroke="#000000" stroke-linecap="round" stroke-linejoin="round" stroke-miterlimit="10" d="M102.273,414.938
		c-0.272,1.988-2.817,20.638-4.007,31.379c-0.291,2.622-0.504,5.252-0.747,7.879c-0.31,3.356-0.952,6.685-1.087,10.052
		c0,0-0.266,6.632-1.698,7.607c-0.489,0.333-0.746,0.204-0.747,0.204s0,0,0,0c-0.228-0.074-0.352-0.291-0.408-0.408
		c0.146-1.297,0.343-3.145,0.543-5.366c0.054-0.602,0.742-8.364,0.951-17.388c0.302-13.051-0.468-25.698-0.777-30.303"/>
	<g>
		<path d="M72.19,422.558c6.845-5.489,12.272-12.297,16.101-20.19c0.406-0.838-0.846-1.575-1.254-0.733
			c-3.777,7.786-9.124,14.483-15.874,19.896C70.434,422.116,71.467,423.138,72.19,422.558L72.19,422.558z"/>
	</g>
	<g>
		<path d="M148.678,420.152c-4.52-7.274-9.04-14.548-13.561-21.821c-0.492-0.792-1.75-0.064-1.254,0.733
			c4.52,7.274,9.04,14.548,13.561,21.822C147.916,421.678,149.173,420.949,148.678,420.152L148.678,420.152z"/>
	</g>
	<g>
		<path d="M1.503,388.261c-2.402,2.301-1.513,5.417-0.183,8.075c2.874,5.747,7.406,10.711,11.116,15.923
			c2.447,3.438,4.801,6.942,6.989,10.552c0.965,1.592,1.819,3.338,3.002,4.786c4.451,5.449,13.903,4.965,20.137,6.072
			c6.544,1.163,12.139,4.369,17.704,7.854c2.01,1.259,3.903,2.786,6.099,3.713c8.796,3.713,19.941,1.855,29.002,0.533
			c0.922-0.134,0.53-1.534-0.386-1.401c-8.394,1.224-18.074,2.66-26.396,0.126c-1.996-0.608-3.6-1.622-5.312-2.764
			c-3.944-2.629-8.09-5.268-12.453-7.138c-4.329-1.856-8.851-2.504-13.48-3.128c-4.068-0.548-9.105-1.056-12.537-3.575
			c-2.716-1.993-4.242-6.078-6.003-8.828c-2.951-4.611-6.158-9.049-9.428-13.437c-2.318-3.111-10.997-12.358-6.843-16.336
			C3.207,388.641,2.179,387.614,1.503,388.261L1.503,388.261z"/>
	</g>
	<g>
		<path d="M1.803,389.475c7.562,1.377,13.196,4.908,16.103,12.18c2.34,5.855,4.788,12.2,10.185,15.947
			c5.51,3.826,11.753,2.422,17.689,0.516c3.622-1.163,7.35-2.609,11.21-2.603c3.05,0.005,4.901,1.075,7.309,2.723
			c3.127,2.14,6.201,4.358,9.322,6.507c1.877,1.292,3.788,2.701,6.121,2.946c5.51,0.579,11.21-5.009,14.905-8.424
			c1.347-1.245,2.751-3.239,4.46-4.016c4.286-1.95,8.842,3.702,10.49,6.997c1.415,2.828,0.975,5.992,2.274,8.813
			c0.865,1.88,2.325,3.464,3.959,4.712c4.807,3.672,10.903,3.243,15.817-0.012c2.287-1.515,4.076-3.503,5.641-5.733
			c2.415-3.443,4.54-7.965,9.164-8.625c8.781-1.254,13.137,10.443,19.62,14.298c5.583,3.32,11.19,0.95,15.636-3.075
			c2.898-2.623,7.594-10.229,11.936-9.464c2.21,0.389,4.403,1.774,6.279,2.927c0.831,0.511,3.089,2.615,3.993,2.461
			c0.959-0.164,0.65-0.999,0.161-0.826c-0.641,0.227-1.482,1.377-2.017,1.822c-2.154,1.793-4.424,3.452-6.692,5.097
			c-3.033,2.2-6.102,4.356-9.203,6.459c-2.569,1.742-5.451,4.041-8.522,4.843c-2.942,0.768-4.644-0.759-6.856-2.484
			c-2.04-1.591-4.326-2.862-6.686-3.911c-4.452-1.979-11.265-3.924-15.319-0.024c-1.837,1.767-2.517,4.497-3.889,6.595
			c-2.471,3.78-6.849,8.042-11.296,9.29c-3.271,0.918-6.376-0.08-9.406-1.32c-4.116-1.685-8.588-3.494-12.126-6.227
			c-0.739-0.571-1.463,0.69-0.733,1.254c3.849,2.972,8.787,4.966,13.312,6.709c3.242,1.249,6.459,1.926,9.849,0.815
			c4.208-1.38,8.092-5.031,10.735-8.482c2.506-3.272,3.148-8.023,7.658-9.145c4.659-1.159,10.015,1.28,13.97,3.56
			c2.664,1.536,4.862,4.457,8.004,4.968c2.352,0.383,4.526-0.58,6.543-1.691c5.004-2.755,9.654-6.312,14.276-9.651
			c2.82-2.037,5.711-4.074,8.311-6.395c0.53-0.473,1.749-1.277,1.554-2.142c-0.067-0.295-0.395-0.55-0.7-0.533
			c-1.701,0.093-3.995-2.223-5.502-3.071c-1.301-0.732-2.651-1.423-4.064-1.915c-1.42-0.495-2.718-0.74-4.18-0.195
			c-2.786,1.038-4.973,4.1-6.937,6.15c-4.396,4.587-10.119,10.232-16.902,6.594c-7.205-3.864-12.118-17.481-22.182-14.553
			c-3.532,1.028-5.702,4.153-7.64,7.058c-3.133,4.695-7.189,9.477-13.328,9.786c-4.741,0.239-10.1-3.059-11.398-7.819
			c-1.138-4.175-1.123-7.365-4.036-10.937c-2.029-2.488-5.206-5.206-8.677-4.727c-2.214,0.305-3.644,2.098-5.156,3.571
			c-3.356,3.271-7.984,7.857-12.694,9.001c-4.41,1.071-8.598-3.145-11.905-5.443c-2.837-1.972-5.816-4.717-9.093-5.959
			c-3.476-1.317-7.653-0.413-11.09,0.568c-5.448,1.555-11.318,4.512-17.099,3.037c-6.833-1.744-10.467-8.905-12.855-14.93
			c-1.412-3.565-2.737-6.964-5.568-9.683c-3.372-3.237-7.831-4.767-12.345-5.589C1.275,387.908,0.883,389.308,1.803,389.475
			L1.803,389.475z"/>
	</g>
	<g>
		<path d="M99.843,443.658c2.136-3.143,5.765-1.231,6.05,2.089c0.079,0.924,1.533,0.933,1.453,0c-0.18-2.1-1.224-4.243-3.334-4.985
			c-2.167-0.762-4.205,0.37-5.423,2.163C98.062,443.7,99.321,444.427,99.843,443.658L99.843,443.658z"/>
	</g>
	<g>
		<path d="M141.625,228.935c-1.723-0.959-3.16-2.273-4.246-3.921c-0.512-0.777-1.771-0.05-1.254,0.733
			c1.222,1.853,2.827,3.361,4.767,4.442C141.709,230.645,142.443,229.391,141.625,228.935L141.625,228.935z"/>
	</g>
</g>
<g>
	<g>
		<g>
			<path d="M291.03,410.601c0.854,13.769,1.708,27.538,2.562,41.306c0.412,6.647,0.824,13.294,1.237,19.941
				c0.206,3.324,0.412,6.647,0.618,9.971c0.067,1.077-0.353,3.254,0.98,3.857c3.712,1.679,3.093-11.371,3.097-12.74
				c0.02-6.827-0.206-13.644-0.063-20.473c0.264-12.628,1.116-25.238,2.223-37.818c0.082-0.931-1.371-0.926-1.453,0
				c-1.479,16.802-2.546,33.686-2.259,50.562c0.048,2.852,0.118,5.704,0.095,8.557c-0.023,2.859,0.456,7.153-0.753,9.826
				c-0.598,1.322-0.324-0.245-0.371-1.059c-0.083-1.425-0.177-2.849-0.265-4.273c-0.191-3.086-0.383-6.172-0.574-9.258
				c-0.368-5.935-0.736-11.87-1.104-17.804c-0.839-13.531-1.678-27.063-2.518-40.594
				C292.425,409.673,290.972,409.666,291.03,410.601L291.03,410.601z"/>
		</g>
	</g>
	<g>
		<g>
			<path d="M278.546,179.333c-2.463,3.006-4.522,6.307-5.126,10.21c-0.511,3.306,0.003,6.735-0.178,10.069
				c-0.097,1.793,0.059,4.117-0.749,5.768c-0.875,1.79-1.58,0.405-2.526,1.347c-0.704,0.701-0.366,1.42-0.056,2.26
				c0.93,2.52,2.661,4.875,4.09,7.123c2.267,3.566,4.375,8.093,7.905,10.595c5.959,4.223,15.912,2.75,22.421,0.626
				c0.885-0.289,0.506-1.692-0.386-1.401c-6.878,2.244-18.197,3.862-23.339-2.456c-2.401-2.95-4.36-6.481-6.367-9.72
				c-0.72-1.163-3.3-4.242-3.149-5.723c0.069-0.68,0.09,0.318,1.096-0.008c0.648-0.21,0.856-0.541,1.21-1.063
				c1.086-1.606,1.075-4.194,1.216-6.03c0.247-3.209-0.084-6.399,0.084-9.597c0.22-4.193,2.268-7.783,4.882-10.972
				C280.161,179.643,279.139,178.609,278.546,179.333L278.546,179.333z"/>
		</g>
	</g>
	<g>
		<g>
			<path d="M278.572,179.741c0.292,4.79,1.684,9.45,4.585,13.327c2.475,3.308,5.855,5.587,8.983,8.205
				c8.337,6.977,8.552,16.484,5.941,26.473c-0.111,0.425,0.218,0.958,0.7,0.919c17.273-1.385,29.944-17.536,27.233-34.652
				c-0.146-0.921-1.546-0.53-1.401,0.386c2.555,16.138-9.571,31.509-25.833,32.813c0.233,0.306,0.467,0.613,0.7,0.919
				c2.073-7.933,2.949-17.066-2.391-23.947c-2.644-3.406-6.37-5.632-9.531-8.494c-4.631-4.191-7.155-9.718-7.536-15.951
				C279.968,178.812,278.515,178.806,278.572,179.741L278.572,179.741z"/>
		</g>
	</g>
	<g>
		<g>
			<path d="M316.397,181.593c3.747,3.614,6.402,7.954,7.979,12.912c0.282,0.887,1.685,0.508,1.401-0.386
				c-1.649-5.181-4.435-9.774-8.353-13.553C316.751,179.917,315.722,180.942,316.397,181.593L316.397,181.593z"/>
		</g>
	</g>
	<g>
		<g>
			<path d="M317.424,180.566c-11.089-9.44-26.18-8.798-38.298-1.648c-0.805,0.475-0.075,1.731,0.733,1.254
				c11.503-6.788,25.953-7.59,36.537,1.42C317.105,182.196,318.137,181.173,317.424,180.566L317.424,180.566z"/>
		</g>
	</g>
	<g>
		<g>
			<path d="M323.047,418.784c5.363,12.049,11.186,24.131,15.665,36.547c2.007,5.563,3.732,11.251,5.5,16.894
				c0.684,2.183,1.264,6.435,3.281,7.638c2.804,1.672,2.576-1.885,2.343-3.356c-0.819-5.155-2.389-10.242-3.794-15.257
				c-4.119-14.701-8.666-29.285-13.225-43.854c-0.278-0.889-1.681-0.51-1.401,0.386c5.786,18.492,12.138,37.072,16.392,56.003
				c0.287,1.277,0.593,2.57,0.738,3.873c0.112,1.006,0.214,1.782-0.756,0.363c-1.408-2.058-2-5.629-2.748-7.991
				c-1.628-5.137-3.182-10.331-5.04-15.39c-4.561-12.417-10.327-24.513-15.701-36.589
				C323.922,417.198,322.67,417.936,323.047,418.784L323.047,418.784z"/>
		</g>
	</g>
	<g>
		<path d="M249.261,300.554c-1.086,0-2.085-0.198-2.977-0.599c-0.047-0.021-4.711-2.127-4.283-3.703
			c0.498-1.827,5.049-1.551,6.43-1.424c1.967,0.182,3.132,0.552,4.258,0.909c0.329,0.104,0.656,0.208,1.001,0.306
			c1.993,0.568,3.144,0.16,8.676-1.801c1.35-0.478,2.952-1.046,4.881-1.71c1.264-0.436,2.353-0.805,3.313-1.131
			c3.943-1.338,5.743-1.948,8.607-3.398c1.958-0.99,3.398-1.906,4.013-2.297c3.995-2.54,7.6-5.691,10.711-9.366l0.764,0.646
			c-3.178,3.752-6.857,6.97-10.938,9.563c-0.628,0.398-2.097,1.333-4.099,2.346c-2.927,1.482-4.748,2.1-8.737,3.453
			c-0.959,0.325-2.047,0.694-3.309,1.129c-1.926,0.663-3.525,1.23-4.873,1.707c-5.644,1.999-6.985,2.477-9.283,1.82
			c-0.355-0.101-0.691-0.207-1.03-0.314c-1.075-0.342-2.188-0.695-4.047-0.866c-2.442-0.228-5.185-0.004-5.373,0.689
			c0.078,0.423,2.026,1.769,3.727,2.529c1.512,0.677,3.42,0.677,5.671,0.003c1.737-0.21,21.412-4.388,28.674-7.458
			c5.987-2.53,11.454-5.44,16.713-8.897l0.549,0.836c-5.31,3.49-10.829,6.429-16.873,8.983c-7.333,3.1-27.195,7.317-28.861,7.512
			C251.396,300.375,250.289,300.554,249.261,300.554z"/>
	</g>
	<g>
		<g>
			<path d="M287.003,185.464c8.541-3.563,17.942-3.308,26.239,0.825c0.834,0.416,1.571-0.837,0.733-1.254
				c-8.628-4.298-18.45-4.687-27.358-0.971C285.767,184.418,286.14,185.824,287.003,185.464L287.003,185.464z"/>
		</g>
	</g>
	<g>
		<g>
			<path d="M296.321,199.684c8.722,0.152,16.912-2.63,23.783-7.993c0.736-0.575-0.298-1.596-1.027-1.027
				c-6.559,5.12-14.445,7.712-22.756,7.567C295.386,198.215,295.385,199.668,296.321,199.684L296.321,199.684z"/>
		</g>
	</g>
	<g>
		<g>
			<path d="M300.576,216.729c8.951-4.55,15.711-12.096,19.336-21.449c0.338-0.872-1.066-1.25-1.401-0.386
				c-3.488,8.999-10.073,16.211-18.668,20.581C299.009,215.898,299.744,217.152,300.576,216.729L300.576,216.729z"/>
		</g>
	</g>
	<g>
		<path d="M327.866,194.776c-0.726,0-1.453-0.273-1.95-0.46c-0.083-0.031-0.156-0.06-0.221-0.083l-0.184,0.239
			c-0.223-0.172-0.687-0.529-0.463-0.982c0.229-0.48,0.733-0.292,1.219-0.109c0.575,0.216,1.539,0.58,2.137,0.289
			c0.698-0.339,0.872-1.617,0.977-2.381c0.295-2.164-0.297-3.971-0.689-5.166c-0.833-2.546-1.873-5.331-3.873-7.331
			c-2.466-2.466-7.308-0.943-9.101,0.978l-0.73-0.683c2.187-2.344,7.447-4.093,10.503-1.036c2.187,2.187,3.323,5.229,4.152,7.761
			c0.533,1.629,1.029,3.405,0.729,5.612c-0.131,0.962-0.351,2.574-1.531,3.146C328.531,194.719,328.199,194.776,327.866,194.776z
			 M325.969,193.878l-0.178,0.231c0.061-0.041,0.117-0.099,0.156-0.181C325.956,193.911,325.963,193.894,325.969,193.878z"/>
	</g>
	<g>
		<g>
			<path d="M278.142,222.128c1.934-0.221,3.767-0.792,5.395-1.88c0.774-0.517,0.047-1.776-0.733-1.254
				c-1.406,0.939-2.983,1.489-4.662,1.681C277.224,220.78,277.213,222.234,278.142,222.128L278.142,222.128z"/>
		</g>
	</g>
	<g>
		<g>
			<path d="M292.034,273.211c1.04,3.98,4.023,5.591,6.28,8.798c2.175,3.089,2.841,7.436,3.279,11.126
				c0.976,8.216-0.087,16.867-1.421,24.971c-1.594,9.674-3.782,19.269-5.665,28.889c-2.639,13.48-5.243,26.987-7.219,40.583
				c-0.702,4.831-1.395,9.702-1.599,14.585c-0.079,1.88-0.506,5.105,0.97,6.617c1.669,1.71,5.092,2.657,7.299,3.573
				c4.092,1.697,8.339,3.014,12.679,3.906c9.634,1.98,20.554,2.092,30.211,0.071c3.979-0.833,10.342-2.965,11.23-7.602
				c0.632-3.299-0.119-7.026-0.613-10.292c-3.67-24.256-11.222-48.161-18.143-71.646c-0.91-3.089-1.846-6.17-2.755-9.259
				c-2.006-6.816-2.622-14.066-2.956-21.139c-0.407-8.615,0.532-17.149-0.398-25.758c-0.531-4.918-1.076-9.906-2.516-14.656
				c-1.458-4.811-4.136-9.011-5.984-13.649c-2.119-5.319-2.755-10.923-2.451-16.608c0.05-0.934-1.403-0.931-1.453,0
				c-0.25,4.675,0.074,9.337,1.41,13.843c1.383,4.663,3.98,8.742,5.799,13.221c3.674,9.046,4.473,19.752,4.292,29.442
				c-0.235,12.59-0.288,25.186,3.355,37.362c6.432,21.496,12.738,43.101,17.631,65.007c1.154,5.165,2.253,10.364,2.966,15.611
				c0.35,2.572,1.311,6.653,0.168,9.162c-1.322,2.902-5.764,4.516-8.607,5.252c-4.963,1.285-10.262,1.329-15.356,1.486
				c-10.21,0.314-20.385-1.627-29.706-5.837c-1.473-0.665-4.612-1.682-5.343-2.973c-0.537-0.949-0.33-2.738-0.319-3.768
				c0.049-4.662,0.711-9.343,1.357-13.951c1.825-13.031,4.298-25.974,6.805-38.888c1.964-10.117,4.112-20.202,5.979-30.338
				c1.175-6.38,1.902-12.923,2.1-19.404c0.187-6.122-0.192-13.494-3.328-18.943c-1.963-3.41-5.526-5.149-6.579-9.178
				C293.199,271.921,291.797,272.304,292.034,273.211L292.034,273.211z"/>
		</g>
	</g>
	<g>
		<g>
			<path d="M301.621,229.26c1.131,7.823-0.368,16.192-4.968,22.733c-3.233,4.598-7.397,8.062-6.99,14.185
				c0.062,0.928,1.515,0.935,1.453,0c-0.491-7.389,6.889-12.217,9.604-18.597c2.544-5.977,3.228-12.305,2.302-18.708
				C302.889,227.952,301.489,228.344,301.621,229.26L301.621,229.26z"/>
		</g>
	</g>
	<g>
		<g>
			<path d="M279.224,204.752c2.804,0,2.809-4.358,0-4.358C276.42,200.394,276.416,204.752,279.224,204.752L279.224,204.752z"/>
		</g>
	</g>
	<g>
		<path d="M293.777,211.131c-0.152,0-0.303-0.069-0.4-0.2c-0.163-0.218-0.122-0.526,0.093-0.694c0.5-0.39,1.066-0.832,1.354-1.391
			c0.226-0.436,0.27-1.081-0.091-1.421c-0.141-0.131-0.404-0.173-0.623-0.098c-0.088,0.029-0.239,0.101-0.265,0.248
			c-0.047,0.272-0.313,0.453-0.578,0.408c-0.272-0.047-0.455-0.306-0.408-0.578c0.082-0.475,0.431-0.858,0.934-1.026
			c0.574-0.194,1.215-0.069,1.625,0.317c0.76,0.714,0.686,1.853,0.295,2.608c-0.193,0.375-0.455,0.691-0.74,0.971
			c-0.032,0.094-0.093,0.178-0.18,0.24l-0.725,0.521C293.98,211.101,293.879,211.131,293.777,211.131z"/>
	</g>
	<g>
		<circle fill="#EFD5DF" cx="284.809" cy="217.564" r="4.692"/>
	</g>
	<g>
		<g>
			<path d="M327.893,183.005c1.909,0.426,6.508,2.28,8.118,3.391c0.771,0.532,1.498-0.726,0.733-1.254
				c-1.701-1.174-6.449-3.088-8.465-3.538C327.369,181.402,326.98,182.802,327.893,183.005L327.893,183.005z"/>
		</g>
	</g>
	<g>
		<g>
			<path d="M329.435,188.198c3.137,2.431,5.491,6.017,5.471,9.996c-0.005,0.935,1.448,0.936,1.453,0
				c0.022-4.318-2.476-8.372-5.897-11.023C329.732,186.605,328.697,187.626,329.435,188.198L329.435,188.198z"/>
		</g>
	</g>
	<g>
		<g>
			<path d="M300.62,226.694c8.651-3.696,15.914-9.603,21.359-17.268c0.542-0.763-0.717-1.49-1.254-0.733
				c-5.299,7.46-12.428,13.154-20.838,16.747C299.03,225.806,299.769,227.058,300.62,226.694L300.62,226.694z"/>
		</g>
	</g>
	<g>
		<g>
			<path d="M280.288,179.099c1.611,7.452,6.38,13.648,13.171,17.113c0.831,0.424,1.567-0.829,0.733-1.254
				c-6.481-3.307-10.967-9.135-12.504-16.245C281.491,177.799,280.091,178.186,280.288,179.099L280.288,179.099z"/>
		</g>
	</g>
	<g>
		<path d="M240.548,292.856c-0.99,0-1.974-0.086-2.948-0.258c-1.607-0.285-2.995-0.792-4.243-1.551
			c-1.202-0.731-3.017-1.835-2.923-3.3c0.106-1.667,2.588-2.544,3.404-2.833c2.829-1.001,4.881-0.511,7.256,0.06
			c1.694,0.406,3.606,0.868,6.146,0.816c2.256-0.045,4.416-0.681,8.717-1.949c4.186-1.233,7.067-2.47,9.892-3.732
			c3.788-1.694,9.48-4.449,15.09-7.957c2.044-1.28,4.012-2.614,6.015-4.079c9.195-6.726,14.752-10.789,15.048-11.037l0.987-0.886
			c2.973-2.68,5.543-4.991,8.12-4.165c1.982,0.636,3.507,3.101,3.329,5.383c-0.254,3.272-0.494,6.363-37.18,23.806
			c-3.569,1.697-24.551,9.831-33.735,11.425C242.532,292.77,241.537,292.856,240.548,292.856z M237.063,285.338
			c-0.897,0-1.832,0.144-2.892,0.52c-2.328,0.823-2.715,1.577-2.739,1.953c-0.055,0.861,1.57,1.85,2.443,2.381
			c1.158,0.703,2.396,1.155,3.899,1.422c1.832,0.325,3.709,0.321,5.578,0c9.104-1.581,29.932-9.658,33.477-11.343
			c36.163-17.194,36.402-20.269,36.613-22.981c0.141-1.822-1.092-3.856-2.638-4.352c-2.04-0.657-4.403,1.482-7.146,3.955
			l-0.995,0.893c-0.225,0.199-4.061,3.006-15.12,11.094c-2.022,1.479-4.01,2.827-6.074,4.12c-5.659,3.538-11.396,6.315-15.212,8.021
			c-2.857,1.278-5.772,2.528-10.014,3.778c-4.391,1.295-6.593,1.944-8.983,1.991c-2.656,0.057-4.646-0.424-6.399-0.844
			C239.509,285.622,238.324,285.338,237.063,285.338z"/>
	</g>
	<g>
		<g>
			<path d="M318.866,182.314c-2.625-0.873-5.305-1.389-8.064-1.579c-0.933-0.064-0.929,1.389,0,1.453
				c2.63,0.181,5.178,0.696,7.678,1.527C319.369,184.01,319.75,182.608,318.866,182.314L318.866,182.314z"/>
		</g>
	</g>
	<g>
		<g>
			<path d="M320.124,185.375c-1.14,1.278-2.573,2.101-4.25,2.447c-0.915,0.189-0.528,1.589,0.386,1.401
				c1.901-0.392,3.599-1.373,4.891-2.821C321.772,185.707,320.748,184.676,320.124,185.375L320.124,185.375z"/>
		</g>
	</g>
	<g>
		<g>
			<path d="M322.916,190.899c-0.821,2.527-1.983,4.864-3.484,7.055c-0.53,0.773,0.729,1.501,1.254,0.733
				c1.568-2.29,2.773-4.764,3.63-7.402C324.606,190.394,323.204,190.012,322.916,190.899L322.916,190.899z"/>
		</g>
	</g>
	<g>
		<g>
			<path d="M324.711,198.785c-0.76,2.959-2.04,5.637-3.85,8.095c-0.555,0.753,0.705,1.479,1.254,0.733
				c1.876-2.548,3.21-5.378,3.997-8.442C326.344,198.266,324.944,197.879,324.711,198.785L324.711,198.785z"/>
		</g>
	</g>
	<g>
		<g>
			<path d="M329.292,191.833c-1.269,6.197-2.469,13.284-3.722,19.485c-1.134,5.609-2.001,11.075-0.457,16.705
				c1.428,5.204,4.086,10.186,6.61,14.927c1.298,2.439,2.705,4.819,4.373,7.026c1.843,2.437,4.234,4.335,5.528,7.149
				c0.39,0.848,1.642,0.111,1.254-0.733c-1.138-2.476-2.38-3.45-4.161-5.478c-1.908-2.173-3.475-4.613-4.887-7.129
				c-2.65-4.719-5.311-9.777-6.954-14.937c-1.991-6.251-0.914-12.206,0.368-18.472c1.177-5.755,1.848-12.528,3.027-18.283
				C330.457,191.18,329.48,190.916,329.292,191.833L329.292,191.833z"/>
		</g>
	</g>
	<g>
		<g>
			<path d="M327.372,181.033c3.742-1.435,10.934-3.843,13.28,0.778c1.594,3.139,0.748,7.352,0.335,10.681
				c-0.515,4.153-1.222,8.283-2.773,12.191c-1.486,3.746-3.597,7.208-5.047,10.971c-5.524,14.338,1.626,29.006,8.456,41.471
				c0.449,0.82,1.704,0.088,1.254-0.733c-4.669-8.522-9.369-17.429-10.118-27.298c-0.385-5.067,0.438-9.982,2.46-14.64
				c1.63-3.754,3.741-7.283,5.049-11.176c1.241-3.694,1.784-7.565,2.246-11.42c0.379-3.164,0.942-6.682-0.18-9.769
				c-2.254-6.199-10.453-4.334-15.349-2.456C326.122,179.964,326.497,181.369,327.372,181.033L327.372,181.033z"/>
		</g>
	</g>
	<g>
		<g>
			<path d="M326.414,178.878c5.984-5.807,18.247-5.987,20.641,3.563c1.605,6.403-1.825,12.661-3.999,18.452
				c-4.573,12.181-7.691,24.844-9.495,37.723c-0.128,0.914,1.271,1.309,1.401,0.386c1.215-8.677,3.008-17.255,5.474-25.665
				c1.192-4.067,2.532-8.09,4.021-12.058c1.472-3.921,3.422-7.788,4.218-11.925c1.035-5.377-0.628-11.326-5.284-14.566
				c-4.686-3.262-14.057-0.767-18.005,3.063C324.715,178.503,325.742,179.53,326.414,178.878L326.414,178.878z"/>
		</g>
	</g>
	<g>
		<path d="M315.266,314.674c-0.265,0-0.528-0.002-0.792-0.007c-4.312-0.079-8.582-0.807-12.69-2.162l0.313-0.949
			c4.015,1.323,8.185,2.034,12.396,2.111c3.816,0.07,7.639-0.382,11.347-1.347l0.252,0.969
			C322.551,314.209,318.913,314.674,315.266,314.674z"/>
	</g>
	<g>
		<path d="M287.534,274.774c-0.17,0-0.335-0.087-0.429-0.243l-2.324-3.875c-0.143-0.236-0.065-0.544,0.172-0.686
			c0.234-0.145,0.543-0.065,0.686,0.172l2.324,3.875c0.143,0.236,0.065,0.544-0.172,0.686
			C287.711,274.751,287.622,274.774,287.534,274.774z"/>
	</g>
	<g>
		<g>
			<path d="M292.937,258.813c9.037-2.12,16.766-7.351,22.111-14.945c0.539-0.766-0.72-1.493-1.254-0.733
				c-5.125,7.281-12.59,12.248-21.243,14.278C291.642,257.626,292.027,259.027,292.937,258.813L292.937,258.813z"/>
		</g>
	</g>
	<g>
		<g>
			<g>
				<path d="M249.678,267.981c-0.275,0.853-3.892,1.068-4.523,1.147c-2.387,0.297-4.797,0.395-7.201,0.396
					c-1.108,0.001-11.424-0.093-11.424-1.35c0-1.253,10.308-1.349,11.424-1.35c2.091-0.001,4.19,0.074,6.271,0.284
					c0.573,0.058,5.149,0.317,5.453,1.26c0.286,0.886,1.689,0.507,1.401-0.386c-1.101-3.416-11.367-2.626-13.802-2.604
					c-1.72,0.016-12.416-0.439-12.474,2.797c-0.055,3.094,10.199,2.762,11.797,2.791c3.69,0.066,7.547,0.006,11.172-0.781
					c1.158-0.252,2.887-0.514,3.306-1.816C251.366,267.476,249.964,267.094,249.678,267.981z"/>
			</g>
		</g>
		<g>
			<g>
				<path d="M224.804,268.174c0,7.694,0,15.387,0,23.081c0,0.935,1.453,0.936,1.453,0c0-7.694,0-15.387,0-23.081
					C226.256,267.24,224.804,267.238,224.804,268.174L224.804,268.174z"/>
			</g>
		</g>
		<g>
			<g>
				<path d="M249.652,268.174c0,7.853,0,15.707,0,23.56c0,0.935,1.453,0.936,1.453,0c0-7.853,0-15.707,0-23.56
					C251.105,267.24,249.652,267.238,249.652,268.174L249.652,268.174z"/>
			</g>
		</g>
		<g>
			<g>
				<path d="M250.379,272.866c3.293-0.11,6.968,1.898,7.172,5.55c0.216,3.874-3.839,5.964-7.172,5.825
					c-0.935-0.039-0.933,1.413,0,1.453c4.183,0.175,8.78-2.645,8.624-7.277c-0.149-4.443-4.559-7.137-8.624-7.002
					C249.446,271.444,249.442,272.897,250.379,272.866L250.379,272.866z"/>
			</g>
		</g>
		<g>
			<g>
				<path d="M250.379,271.571c4.183-0.142,8.658,2.632,8.639,7.252c-0.019,4.581-4.52,7.199-8.639,7.02
					c-0.935-0.04-0.933,1.412,0,1.453c4.918,0.213,10.086-3.124,10.092-8.473c0.005-5.388-5.092-8.874-10.092-8.704
					C249.446,270.15,249.442,271.603,250.379,271.571L250.379,271.571z"/>
			</g>
		</g>
		<g>
			<g>
				<path d="M225.53,291.981c0.935,0,0.936-1.453,0-1.453C224.595,290.529,224.594,291.981,225.53,291.981L225.53,291.981z"/>
			</g>
		</g>
		<g>
			<g>
				<path d="M224.886,291.448c0.266,1.379,2.143,2.031,3.261,2.481c3.368,1.356,7.098,1.964,10.718,1.951
					c2.733-0.01,11.626-0.022,12.214-4.032c0.134-0.914-1.265-1.309-1.401-0.386c-0.432,2.948-8.847,2.959-10.813,2.966
					c-2.279,0.008-4.542-0.257-6.758-0.79c-1.16-0.279-5.541-1.132-5.82-2.575C226.109,290.145,224.709,290.533,224.886,291.448
					L224.886,291.448z"/>
			</g>
		</g>
		<g>
			<g>
				<path d="M245.505,263.635c-0.845-3.089,2.983-4.679,3.547-7.382c0.555-2.661-1.922-5.219-0.545-7.83
					c0.436-0.826-0.818-1.561-1.254-0.733c-1.717,3.256,1.544,6.355-0.245,9.601c-1.338,2.428-3.76,3.601-2.904,6.73
					C244.351,264.922,245.752,264.54,245.505,263.635L245.505,263.635z"/>
			</g>
		</g>
		<g>
			<g>
				<path d="M239.826,263.465c-0.9-3.249,3.159-5.499,3.13-8.674c-0.025-2.689-2.044-5.547-3.173-7.869
					c-0.409-0.84-1.662-0.105-1.254,0.733c0.68,1.398,1.396,2.785,2.043,4.199c1.172,2.562,0.668,4.545-0.836,6.735
					c-1.167,1.699-1.875,3.219-1.31,5.261C238.675,264.751,240.076,264.369,239.826,263.465L239.826,263.465z"/>
			</g>
		</g>
		<g>
			<g>
				<path d="M236.084,262.548c-0.956-1.664,0.366-3.598-0.676-5.261c-0.886-1.414-1.939-1.408-2.528-3.375
					c-0.58-1.935,0.054-4,0.552-5.874c0.24-0.904-1.161-1.29-1.401-0.386c-0.735,2.768-1.475,5.99,0.325,8.533
					c1.06,1.498,2.005,1.804,2.03,3.857c0.016,1.302-0.23,2.067,0.444,3.24C235.295,264.091,236.551,263.361,236.084,262.548
					L236.084,262.548z"/>
			</g>
		</g>
		<g>
			<g>
				<path d="M231.663,264.164c1.074-1.842-0.178-2.899-1.764-3.746c-0.739-0.304-1.472-0.623-2.198-0.957
					c-0.422-1.367-0.845-2.733-1.267-4.1c-0.006-0.425,0.433-0.847,0.43-1.297c-0.009-1.732-1.432-7.276,1.068-7.722
					c0.919-0.164,0.529-1.564-0.386-1.401c-1.41,0.252-2.377,1.08-2.742,2.514c-0.115,0.452-0.096,0.997-0.075,1.456
					c0.065,0.726,0.202,1.439,0.411,2.137c0.589,1.528,0.472,3.025-0.349,4.491c-0.247,1.428-0.453,2.307,0.369,3.583
					c0.559,0.867,5.763,3.427,5.249,4.308C229.937,264.24,231.192,264.972,231.663,264.164L231.663,264.164z"/>
			</g>
		</g>
		<g>
			<path fill="#EFD5DF" d="M250.016,291.712c0-7.59,0-15.18,0-22.769c-2.822,0.89-6.78,1.821-11.577,1.988
				c-4.876,0.169-8.949-0.51-11.851-1.22c0.025,7.18,0.051,14.36,0.076,21.541c2.189,1.223,5.855,2.885,10.591,3.309
				c0,0,4.422,0.396,9.661-1.042c0.32-0.088,0.978-0.273,1.732-0.723C249.291,292.413,249.744,291.994,250.016,291.712z"/>
		</g>
	</g>
</g>
</svg>
