<?xml version="1.0" encoding="utf-8"?>
<!-- Generator: Adobe Illustrator 22.1.0, SVG Export Plug-In . SVG Version: 6.00 Build 0)  -->
<svg version="1.1" id="Шар_1" xmlns="http://www.w3.org/2000/svg" xmlns:xlink="http://www.w3.org/1999/xlink" x="0px" y="0px"
	 width="610.283px" height="459.352px" viewBox="0 0 610.283 459.352" enable-background="new 0 0 610.283 459.352"
	 xml:space="preserve">
<g>
	<g>
		<path d="M595.624,240.533h-218.05c-0.443,0-0.802-0.359-0.802-0.802c0-0.443,0.359-0.802,0.802-0.802h218.05
			c0.443,0,0.802,0.359,0.802,0.802C596.426,240.174,596.067,240.533,595.624,240.533z"/>
	</g>
	<g>
		<path d="M378.889,261.303c-3.354,0-6.712-0.723-9.381-2.152c-5.201-2.784-7.534-8.052-5.549-12.524
			c1.93-4.345,7.93-7.631,14.266-7.811c0.424,0.036,0.812,0.337,0.824,0.778c0.013,0.443-0.337,0.813-0.779,0.825
			c-5.751,0.163-11.154,3.047-12.846,6.859c-1.636,3.683,0.4,8.082,4.839,10.46c4.618,2.471,11.497,2.64,16.35,0.402
			c2.169-0.999,3.696-2.368,4.19-3.758c0.528-1.481-0.233-3.083-1.851-3.898c-1.841-0.927-4.37-0.853-7.013-0.686
			c-1.555,0.099-3.317,0.21-4.645,0.833c-0.683,0.319-1.218,0.86-1.333,1.34c-0.051,0.216-0.01,0.399,0.128,0.575
			c0.713,0.904,2.947,0.993,5.836,0.241c0.426-0.116,0.867,0.142,0.979,0.573c0.112,0.427-0.145,0.866-0.573,0.977
			c-2.129,0.557-5.932,1.192-7.501-0.799c-0.44-0.557-0.593-1.245-0.43-1.935c0.231-0.977,1.058-1.884,2.212-2.424
			c1.604-0.753,3.528-0.875,5.225-0.982c2.876-0.18,5.636-0.254,7.836,0.855c2.362,1.187,3.448,3.6,2.641,5.867
			c-0.648,1.82-2.435,3.481-5.03,4.676C384.812,260.738,381.852,261.303,378.889,261.303z"/>
	</g>
	<g>
		<path d="M594.649,261.303c-2.964,0-5.923-0.565-8.398-1.705c-2.595-1.195-4.381-2.856-5.03-4.676
			c-0.807-2.267,0.279-4.681,2.642-5.867c2.199-1.11,4.961-1.037,7.835-0.855c1.697,0.106,3.622,0.229,5.225,0.982
			c1.154,0.54,1.981,1.447,2.212,2.424c0.164,0.689,0.011,1.376-0.429,1.935c-1.568,1.987-5.371,1.355-7.501,0.799
			c-0.428-0.111-0.685-0.55-0.573-0.977c0.113-0.431,0.55-0.689,0.979-0.573c2.887,0.752,5.124,0.661,5.836-0.241
			c0.138-0.175,0.179-0.359,0.128-0.575c-0.114-0.481-0.65-1.021-1.333-1.342c-1.327-0.622-3.09-0.733-4.645-0.831
			c-2.646-0.166-5.171-0.241-7.012,0.686c-1.618,0.814-2.379,2.416-1.852,3.898c0.495,1.391,2.022,2.759,4.19,3.758
			c4.857,2.238,11.733,2.069,16.351-0.402c4.44-2.379,6.476-6.777,4.84-10.46c-1.692-3.811-7.095-6.696-12.847-6.859
			c-0.442-0.013-0.792-0.382-0.779-0.825c0.013-0.442,0.389-0.741,0.824-0.778c6.337,0.18,12.337,3.465,14.267,7.811
			c1.986,4.472-0.348,9.738-5.55,12.524C601.362,260.58,598.003,261.303,594.649,261.303z"/>
	</g>
	<g>
		<path d="M425.198,267.479c-0.045,0-0.09-0.003-0.136-0.011c-0.436-0.075-0.73-0.49-0.655-0.925l3.541-20.676
			c0.6-3.506,0.984-7.805-1.387-9.928c-1.748-1.564-4.331-1.142-5.993-0.086c-2.135,1.359-3.566,3.771-4.575,5.72
			c-0.203,0.393-0.688,0.548-1.08,0.344c-0.394-0.204-0.547-0.687-0.344-1.08c1.102-2.13,2.681-4.773,5.139-6.337
			c2.635-1.674,5.891-1.574,7.923,0.246c2.956,2.646,2.567,7.477,1.897,11.39l-3.541,20.676
			C425.921,267.203,425.582,267.479,425.198,267.479z"/>
	</g>
	<g>
		<path d="M444.514,274.779c-0.206,0-0.412-0.078-0.568-0.236c-4.941-4.973-12.775-7.538-21.478-7.065
			c-7.929,0.44-15.575,3.116-22.97,5.705c-0.418,0.15-0.875-0.074-1.022-0.492c-0.146-0.418,0.074-0.875,0.492-1.021
			c7.499-2.626,15.254-5.34,23.41-5.792c9.175-0.514,17.441,2.241,22.704,7.535c0.312,0.315,0.311,0.822-0.003,1.134
			C444.923,274.701,444.718,274.779,444.514,274.779z"/>
	</g>
	<g>
		<path d="M447.51,402.492c-0.269,0-0.533-0.136-0.684-0.382c-16.794-27.389-22.495-47.319-16.946-59.234l0.232-0.496
			c1.683-3.586,5.183-11.049,4.399-19.882c-0.391-4.4-1.742-8.752-4.017-12.934c-2.05-3.771-3.929-7.808-2.473-12.064
			c0.431-1.261,0.994-1.967,1.589-2.715c0.24-0.301,0.495-0.622,0.762-1.007c2.25-3.26,2.922-7.903,1.997-13.799
			c-0.068-0.437,0.231-0.847,0.668-0.916c0.436-0.067,0.847,0.23,0.917,0.669c0.99,6.314,0.229,11.347-2.262,14.958
			c-0.29,0.42-0.566,0.767-0.827,1.095c-0.55,0.691-0.985,1.237-1.326,2.236c-1.124,3.285,0.071,6.56,2.365,10.777
			c2.38,4.378,3.795,8.94,4.205,13.561c0.823,9.264-2.802,16.992-4.544,20.705l-0.23,0.492c-5.307,11.397,0.366,30.817,16.86,57.718
			c0.232,0.377,0.113,0.872-0.265,1.102C447.798,402.455,447.653,402.492,447.51,402.492z"/>
	</g>
	<g>
		<path d="M435.905,411.404c-0.782,0-1.536-0.568-2.299-1.732c-0.662-1.016-1.353-1.572-2.055-1.658
			c-0.505-0.06-0.828,0.177-1.451,0.673c-0.481,0.384-1.026,0.819-1.792,1.091c-2.337,0.83-4.607-0.117-6.805-1.034
			c-1.94-0.81-3.772-1.578-5.51-1.096c-0.99,0.276-1.849,0.94-2.759,1.644c-0.408,0.316-0.817,0.631-1.24,0.918
			c-1.597,1.076-3.912,1.768-5.616,0.467c-0.573-0.435-0.954-1.026-1.29-1.546c-0.323-0.5-0.629-0.972-1.037-1.217
			c-1.062-0.629-2.651,0.357-3.287,0.811l-0.354,0.257c-1.189,0.868-2.545,1.831-4.181,1.726c-1.552-0.121-2.687-1.187-3.689-2.128
			c-0.868-0.817-1.689-1.588-2.656-1.707c-1.073-0.128-2.048,0.529-3.178,1.297c-1.038,0.705-2.111,1.433-3.416,1.616
			c-2.161,0.307-3.965-0.954-5.709-2.172c-1.628-1.135-3.163-2.211-4.714-1.743c-0.348,0.105-0.694,0.293-1.062,0.492
			c-0.424,0.229-0.863,0.467-1.371,0.619c-0.769,0.225-1.64,0.132-2.279-0.246c-0.489-0.291-0.821-0.739-0.934-1.262
			c-0.244-1.131,0.835-2.156,1.669-2.828c6.238-5.028,15.712-9.774,16.112-9.973c3.287-1.64,6.478-5.501,12.836-13.194
			c6.179-7.479,11.71-15.75,16.438-24.586c0.21-0.39,0.693-0.54,1.085-0.327c0.391,0.208,0.538,0.694,0.329,1.085
			c-4.778,8.929-10.369,17.289-16.617,24.849c-6.502,7.869-9.765,11.818-13.356,13.608c-0.096,0.049-9.721,4.87-15.821,9.787
			c-1.093,0.882-1.107,1.239-1.107,1.253c0.006,0.023,0.026,0.116,0.182,0.21c0.255,0.15,0.666,0.186,1.005,0.088
			c0.348-0.103,0.696-0.293,1.065-0.492c0.422-0.229,0.859-0.464,1.363-0.615c2.291-0.695,4.224,0.659,6.094,1.964
			c1.558,1.087,3.021,2.119,4.569,1.898c0.936-0.132,1.811-0.725,2.738-1.355c1.279-0.869,2.603-1.773,4.274-1.561
			c1.487,0.182,2.588,1.217,3.559,2.13c0.887,0.833,1.725,1.621,2.713,1.697c1.052,0.06,2.101-0.683,3.113-1.422l0.365-0.265
			c1.912-1.37,3.701-1.683,5.042-0.885c0.73,0.437,1.172,1.12,1.561,1.723c0.291,0.449,0.566,0.874,0.916,1.142
			c1.033,0.785,2.663,0.208,3.749-0.523c0.394-0.265,0.774-0.561,1.154-0.855c0.993-0.767,2.018-1.563,3.313-1.92
			c2.271-0.628,4.448,0.28,6.555,1.16c2.005,0.836,3.896,1.625,5.649,1.004c0.514-0.183,0.911-0.5,1.33-0.835
			c0.679-0.54,1.449-1.163,2.643-1.012c1.196,0.144,2.274,0.943,3.205,2.372c0.623,0.949,0.958,1.005,0.961,1.005
			c0.117-0.058,0.377-0.517,0.55-0.821c0.474-0.836,1.123-1.982,2.507-2.502c1.586-0.597,3.194-0.287,4.914,0.946l0.366,0.265
			c1.01,0.739,2.058,1.513,3.112,1.42c0.987-0.075,1.825-0.863,2.712-1.696c0.971-0.913,2.072-1.948,3.559-2.13
			c1.676-0.2,2.996,0.694,4.275,1.561c0.926,0.629,1.802,1.223,2.736,1.355c1.542,0.207,3.01-0.811,4.569-1.899
			c1.869-1.303,3.801-2.66,6.093-1.962c0.505,0.152,0.941,0.387,1.363,0.615c0.369,0.199,0.717,0.388,1.067,0.492
			c0.334,0.099,0.747,0.063,1.003-0.088c0.157-0.094,0.176-0.186,0.184-0.221c0.036-0.168-0.052-0.545-1.045-1.196
			c-18.732-12.238-34.585-28.927-45.843-48.265c-0.223-0.384-0.093-0.874,0.29-1.096c0.383-0.227,0.873-0.094,1.096,0.288
			c11.134,19.123,26.81,35.629,45.335,47.731c0.511,0.335,2.064,1.351,1.735,2.877c-0.113,0.523-0.445,0.971-0.934,1.262
			c-0.64,0.376-1.512,0.471-2.278,0.246c-0.51-0.152-0.948-0.39-1.372-0.619c-0.367-0.199-0.714-0.387-1.062-0.492
			c-1.545-0.457-3.085,0.606-4.713,1.743c-1.744,1.218-3.552,2.479-5.709,2.172c-1.304-0.183-2.378-0.911-3.415-1.616
			c-1.129-0.766-2.103-1.417-3.178-1.297c-0.968,0.119-1.788,0.889-2.657,1.707c-1.001,0.941-2.137,2.007-3.688,2.126
			c-1.669,0.139-2.993-0.855-4.181-1.724l-0.355-0.257c-1.649-1.181-2.693-1.019-3.415-0.749c-0.839,0.316-1.264,1.066-1.676,1.791
			c-0.424,0.75-0.864,1.527-1.773,1.625C436.023,411.401,435.963,411.404,435.905,411.404z"/>
	</g>
	<g>
		<path fill="#EFD8DB" d="M432.929,281.397c-1.053-0.731-2.668-1.688-4.821-2.385c-0.917-0.297-1.658-0.457-2.031-0.532
			c-4.23-0.847-7.723,0.043-9.077,0.404c-0.988,0.263-1.792,0.557-2.302,0.742c-1.652,0.602-2.967,1.236-3.876,1.713
			c-0.076-0.314-0.143-0.711-0.151-1.171c-0.008-0.42,0.035-0.787,0.091-1.085c0.733-0.492,1.801-1.127,3.18-1.685
			c2.395-0.968,4.406-1.165,5.724-1.285c1.468-0.133,3.942-0.336,6.844,0.428c0.961,0.253,1.775,0.562,2.351,0.78
			c1.735,0.657,3.11,1.362,4.069,1.904c0.067,0.296,0.124,0.674,0.121,1.114C433.048,280.755,432.993,281.113,432.929,281.397z"/>
		<path d="M432.929,282.199c-0.161,0-0.321-0.049-0.457-0.142c-1.412-0.98-2.963-1.748-4.61-2.282
			c-0.644-0.208-1.298-0.379-1.943-0.509c-4.139-0.832-7.58,0.091-8.713,0.395c-0.962,0.255-1.758,0.546-2.232,0.72
			c-1.294,0.471-2.566,1.032-3.779,1.669c-0.219,0.114-0.478,0.124-0.703,0.02c-0.225-0.102-0.391-0.301-0.449-0.542
			c-0.108-0.445-0.166-0.897-0.174-1.345c-0.008-0.42,0.027-0.841,0.105-1.248c0.04-0.211,0.163-0.398,0.341-0.517
			c1.04-0.698,2.159-1.29,3.326-1.763c2.556-1.032,4.681-1.225,5.952-1.339c1.406-0.128,4.024-0.363,7.12,0.451
			c0.997,0.263,1.821,0.575,2.422,0.802c1.455,0.551,2.861,1.21,4.188,1.959c0.197,0.111,0.337,0.301,0.387,0.52
			c0.096,0.423,0.144,0.86,0.142,1.298c-0.002,0.412-0.05,0.825-0.141,1.228c-0.06,0.26-0.243,0.474-0.492,0.57
			C433.125,282.181,433.026,282.199,432.929,282.199z M411.5,279.559c-0.02,0.185-0.03,0.371-0.028,0.559
			c0.961-0.462,1.951-0.878,2.953-1.243c0.5-0.183,1.337-0.489,2.369-0.764c1.221-0.326,4.939-1.317,9.441-0.417
			c0.705,0.142,1.418,0.329,2.12,0.556c1.361,0.44,2.662,1.027,3.882,1.751c-0.006-0.086-0.016-0.172-0.027-0.257
			c-1.16-0.634-2.381-1.196-3.634-1.671c-0.575-0.218-1.355-0.512-2.271-0.755c-2.823-0.745-5.259-0.523-6.567-0.404
			c-1.181,0.106-3.16,0.285-5.495,1.229C413.285,278.53,412.365,279.004,411.5,279.559z"/>
	</g>
	<g>
		<path d="M396.206,401.504c-0.142,0-0.287-0.038-0.418-0.119c-0.377-0.23-0.496-0.725-0.265-1.102
			c16.495-26.901,22.167-46.32,16.86-57.718l-0.23-0.492c-1.742-3.713-5.367-11.441-4.544-20.704
			c0.41-4.618,1.825-9.179,4.205-13.559c2.293-4.219,3.489-7.493,2.365-10.778c-0.341-0.999-0.776-1.546-1.326-2.236
			c-0.261-0.327-0.537-0.675-0.826-1.095c-2.493-3.608-3.254-8.641-2.263-14.958c0.069-0.438,0.474-0.736,0.917-0.669
			c0.437,0.069,0.736,0.479,0.668,0.916c-0.925,5.897-0.254,10.54,1.997,13.799c0.266,0.385,0.521,0.706,0.761,1.007
			c0.596,0.749,1.158,1.455,1.589,2.715c1.456,4.256-0.423,8.293-2.473,12.064c-2.275,4.186-3.627,8.537-4.017,12.934
			c-0.785,8.833,2.716,16.296,4.399,19.882l0.232,0.496c5.548,11.917-0.153,31.844-16.946,59.234
			C396.739,401.368,396.475,401.504,396.206,401.504z"/>
	</g>
	<g>
		<path d="M483.893,264.435c-0.049,0-0.099-0.005-0.15-0.014c-0.435-0.081-0.721-0.501-0.639-0.936l3.541-18.744
			c0.594-3.144,0.976-6.997-1.358-8.891c-1.766-1.433-4.375-1.048-6.051-0.078c-2.131,1.228-3.558,3.407-4.563,5.169
			c-0.218,0.382-0.709,0.514-1.093,0.299c-0.385-0.219-0.519-0.709-0.299-1.095c1.105-1.937,2.689-4.342,5.154-5.764
			c2.61-1.502,5.842-1.412,7.862,0.222c2.994,2.43,2.601,6.854,1.924,10.435l-3.541,18.744
			C484.607,264.167,484.271,264.435,483.893,264.435z"/>
	</g>
	<g>
		<path d="M504.87,271.979c-0.206,0-0.412-0.078-0.568-0.236c-4.943-4.972-12.783-7.54-21.478-7.064
			c-7.927,0.44-15.575,3.116-22.97,5.705c-0.417,0.15-0.875-0.074-1.022-0.492c-0.146-0.418,0.074-0.875,0.492-1.021
			c7.501-2.626,15.257-5.34,23.41-5.792c9.162-0.514,17.44,2.238,22.704,7.534c0.312,0.315,0.311,0.822-0.003,1.134
			C505.279,271.901,505.074,271.979,504.87,271.979z"/>
	</g>
	<g>
		<path d="M544.494,267.531c-0.042,0-0.085-0.003-0.128-0.009c-0.437-0.07-0.734-0.482-0.664-0.919l3.541-22.029
			c0.604-3.758,0.991-8.365-1.404-10.647c-1.738-1.661-4.305-1.21-5.954-0.094c-2.138,1.45-3.574,4.026-4.586,6.11
			c-0.193,0.398-0.673,0.564-1.071,0.371c-0.398-0.194-0.565-0.673-0.371-1.073c1.099-2.263,2.675-5.074,5.128-6.737
			c2.648-1.791,5.921-1.688,7.961,0.262c2.935,2.798,2.547,7.916,1.88,12.061l-3.541,22.029
			C545.221,267.25,544.88,267.531,544.494,267.531z"/>
	</g>
	<g>
		<path d="M561.549,270.702c-0.085,0-0.172-0.014-0.258-0.042c-5.423-1.84-11.055-2.878-16.74-3.088
			c-7.116-0.272-14.15,0.758-20.941,3.036c-0.42,0.149-0.875-0.085-1.016-0.504c-0.141-0.42,0.085-0.874,0.505-1.015
			c6.977-2.341,14.212-3.381,21.511-3.121c5.84,0.216,11.625,1.284,17.195,3.173c0.42,0.142,0.644,0.598,0.502,1.016
			C562.195,270.492,561.883,270.702,561.549,270.702z"/>
	</g>
	<g>
		<g>
			<path d="M492.296,342.234h-20.135c-0.443,0-0.802-0.359-0.802-0.802s0.359-0.802,0.802-0.802h20.135
				c0.443,0,0.802,0.359,0.802,0.802C493.098,341.876,492.739,342.234,492.296,342.234z"/>
		</g>
		<g>
			<g>
				<g>
					<path d="M492.603,342.234c-0.026,0-0.052-0.002-0.078-0.003c-0.441-0.044-0.763-0.435-0.72-0.877
						c0.242-2.488,0.593-4.972,1.042-7.382c0.319-1.707,0.634-3.188,0.925-4.557c0.775-3.641,1.387-6.517,1.386-10.719
						c0-0.702-0.055-1.436-0.173-2.308c-0.657-4.875-2.222-7.743-3.603-10.276c-1.484-2.72-2.887-5.29-2.769-9.576
						c0.087-3.132,1.309-6.019,2.491-8.813c0.486-1.151,0.99-2.339,1.398-3.514c1.272-3.666,1.555-8.47-1.466-10.958
						c-0.342-0.282-0.391-0.786-0.109-1.129c0.28-0.34,0.785-0.391,1.128-0.108c3.656,3.011,3.41,8.545,1.961,12.721
						c-0.424,1.225-0.938,2.438-1.435,3.613c-1.175,2.778-2.286,5.402-2.364,8.232c-0.107,3.854,1.134,6.129,2.573,8.764
						c1.448,2.653,3.089,5.659,3.785,10.828c0.128,0.946,0.187,1.748,0.187,2.523c0.002,4.369-0.626,7.319-1.421,11.054
						c-0.289,1.356-0.601,2.825-0.917,4.516c-0.442,2.363-0.785,4.801-1.023,7.244C493.36,341.924,493.011,342.234,492.603,342.234z
						"/>
				</g>
				<g>
					<path d="M472.562,342.181c-0.409,0-0.758-0.312-0.797-0.727c-0.229-2.419-0.565-4.839-0.999-7.189
						c-0.319-1.724-0.637-3.216-0.929-4.594c-0.788-3.702-1.41-6.627-1.409-10.974c0-0.774,0.06-1.575,0.186-2.523
						c0.696-5.169,2.337-8.176,3.786-10.828c1.438-2.635,2.68-4.911,2.573-8.764c-0.078-2.83-1.189-5.454-2.364-8.232
						c-0.497-1.174-1.011-2.388-1.435-3.613c-1.45-4.175-1.696-9.71,1.961-12.721c0.342-0.283,0.848-0.232,1.128,0.108
						c0.282,0.343,0.233,0.847-0.109,1.129c-3.021,2.488-2.738,7.292-1.466,10.958c0.408,1.174,0.911,2.363,1.398,3.514
						c1.181,2.794,2.404,5.681,2.491,8.813c0.118,4.286-1.284,6.856-2.769,9.576c-1.381,2.532-2.946,5.401-3.603,10.274
						c-0.117,0.875-0.172,1.61-0.172,2.31c-0.002,4.178,0.605,7.029,1.373,10.64c0.295,1.389,0.616,2.895,0.938,4.637
						c0.443,2.397,0.785,4.862,1.018,7.33c0.042,0.44-0.282,0.831-0.723,0.874C472.612,342.179,472.587,342.181,472.562,342.181z"/>
				</g>
				<g>
					<path d="M481.185,284.286c-0.025,0-0.051-0.002-0.077-0.003c-0.441-0.042-0.764-0.434-0.722-0.875
						c0.554-5.802,5.327-10.781,11.101-11.583c0.441-0.056,0.843,0.244,0.904,0.684c0.061,0.438-0.245,0.842-0.684,0.904
						c-4.976,0.691-9.248,5.149-9.726,10.149C481.943,283.976,481.594,284.286,481.185,284.286z"/>
				</g>
			</g>
			<g>
				<path d="M483.358,278.3c-0.204,0-0.409-0.078-0.565-0.233c-0.37-0.366-0.726-0.752-1.081-1.135
					c-0.785-0.849-1.528-1.65-2.414-2.261c-1.647-1.135-3.793-1.524-5.733-1.051c-0.427,0.107-0.864-0.157-0.97-0.587
					c-0.106-0.429,0.157-0.864,0.586-0.969c2.386-0.586,5.008-0.105,7.026,1.286c1.033,0.712,1.87,1.618,2.681,2.493
					c0.341,0.368,0.68,0.736,1.035,1.088c0.314,0.312,0.316,0.819,0.003,1.134C483.77,278.221,483.564,278.3,483.358,278.3z"/>
			</g>
			<g>
				<path d="M491.617,273.212c-0.424,0-0.778-0.334-0.8-0.761c-0.136-2.723,0.609-5.479,2.1-7.762
					c0.243-0.368,0.74-0.473,1.109-0.233c0.37,0.243,0.475,0.739,0.233,1.11c-1.307,2.001-1.961,4.417-1.84,6.804
					c0.022,0.443-0.319,0.819-0.761,0.841C491.644,273.212,491.63,273.212,491.617,273.212z"/>
			</g>
			<g>
				<path d="M473.483,273.212c-0.013,0-0.027,0-0.041-0.002c-0.442-0.022-0.783-0.398-0.761-0.841
					c0.121-2.386-0.533-4.803-1.84-6.804c-0.243-0.371-0.138-0.868,0.233-1.11c0.372-0.241,0.868-0.136,1.109,0.233
					c1.491,2.282,2.237,5.039,2.1,7.762C474.262,272.878,473.908,273.212,473.483,273.212z"/>
			</g>
		</g>
	</g>
	<g>
		<path d="M517.206,411.809c-0.932,0-1.867-0.1-2.808-0.326c-1.981-0.478-3.735-1.483-5.433-2.455
			c-2.081-1.193-4.047-2.319-6.299-2.449c-1.899-0.096-3.133,0.52-4.558,1.25c-1.311,0.672-2.797,1.433-4.958,1.655
			c-3.659,0.38-7.473-0.655-11.345-3.072c-0.376-0.233-0.49-0.728-0.256-1.104c0.236-0.377,0.729-0.492,1.105-0.255
			c3.562,2.224,7.036,3.166,10.331,2.837c1.862-0.193,3.148-0.85,4.392-1.488c1.496-0.766,3.047-1.563,5.381-1.423
			c2.629,0.152,4.853,1.425,7.004,2.657c1.672,0.958,3.252,1.865,5.011,2.288c4.044,0.972,8.059-0.716,12.31-2.504
			c4.457-1.873,9.064-3.811,13.718-2.383c1.709,0.525,3.219,1.466,4.678,2.375c1.947,1.214,3.786,2.361,5.929,2.452
			c1.436,0.083,2.418-0.462,3.642-1.126c1.202-0.651,2.564-1.391,4.662-1.746c2.799-0.478,5.745-0.229,8.751,0.73
			c0.422,0.135,0.655,0.586,0.521,1.008c-0.135,0.42-0.587,0.65-1.008,0.52c-2.762-0.88-5.451-1.106-7.996-0.676
			c-1.834,0.31-3.019,0.952-4.165,1.574c-1.326,0.72-2.577,1.389-4.475,1.32c-2.564-0.111-4.671-1.425-6.708-2.695
			c-1.436-0.896-2.792-1.741-4.301-2.205c-4.099-1.259-8.241,0.485-12.625,2.33C524.291,410.334,520.784,411.809,517.206,411.809z"
			/>
	</g>
	<g>
		<path d="M573.099,414.68c-1.701,0-3.336-0.501-4.927-0.988c-1.646-0.506-3.198-0.988-4.785-0.927
			c-1.32,0.045-2.588,0.457-3.93,0.896c-1.042,0.34-2.12,0.691-3.252,0.869c-1.92,0.299-4.078-0.229-5.361-1.318
			c-0.824-0.702-1.263-1.591-1.269-2.574c-0.002-0.443,0.354-0.803,0.797-0.806c0.002,0,0.003,0,0.005,0
			c0.441,0,0.799,0.355,0.802,0.797c0.003,0.509,0.24,0.966,0.704,1.361c0.933,0.794,2.605,1.182,4.074,0.957
			c1.005-0.158,1.976-0.474,3.003-0.81c1.39-0.453,2.826-0.921,4.373-0.974c1.853-0.061,3.609,0.476,5.309,0.997
			c1.867,0.572,3.631,1.104,5.402,0.85c1.827-0.272,3.342-1.351,4.948-2.493c1.3-0.924,2.643-1.881,4.222-2.441
			c2.685-0.957,5.535-0.609,8.29-0.28c1.123,0.136,2.284,0.276,3.397,0.319c4.183,0.194,8.478-1.082,11.791-3.429
			c0.362-0.254,0.862-0.171,1.118,0.191s0.17,0.861-0.191,1.118c-3.598,2.548-8.252,3.887-12.783,3.724
			c-1.177-0.047-2.371-0.191-3.525-0.33c-2.691-0.323-5.232-0.629-7.561,0.197c-1.368,0.487-2.563,1.337-3.829,2.238
			c-1.688,1.203-3.435,2.444-5.642,2.772C573.882,414.653,573.488,414.68,573.099,414.68z"/>
	</g>
	<g>
		<g>
			<path d="M545.576,304.508c-0.247,0-0.496-0.003-0.744-0.009c-3.261-0.089-6.446-0.772-9.466-2.028
				c-0.409-0.171-0.603-0.64-0.432-1.049c0.17-0.407,0.641-0.598,1.048-0.432c2.838,1.181,5.831,1.821,8.895,1.906
				c2.922,0.08,5.802-0.346,8.578-1.27c0.421-0.143,0.874,0.088,1.014,0.507c0.139,0.421-0.088,0.875-0.508,1.015
				C551.244,304.051,548.426,304.508,545.576,304.508z"/>
		</g>
		<g>
			<path d="M482.23,406.144c-0.243,0-0.484-0.11-0.641-0.319c-0.266-0.354-0.196-0.857,0.158-1.123
				c4.332-3.259,7.675-7.139,9.933-11.53c3.264-6.345,3.365-11.887,3.463-17.247c0.015-0.816,0.03-1.619,0.056-2.413
				c0.669-20.377,8.823-36.076,11.893-41.985c7.195-13.854,15.758-21.725,20.222-25.185c2.512-1.948,5.192-3.733,7.963-5.308
				c0.386-0.221,0.875-0.083,1.093,0.301c0.219,0.385,0.085,0.874-0.301,1.093c-2.706,1.538-5.322,3.281-7.774,5.183
				c-4.359,3.378-12.727,11.074-19.781,24.655c-3.025,5.822-11.057,21.285-11.715,41.299c-0.026,0.786-0.04,1.582-0.055,2.388
				c-0.096,5.287-0.206,11.276-3.64,17.952c-2.372,4.608-5.869,8.672-10.395,12.078C482.566,406.092,482.397,406.144,482.23,406.144
				z"/>
		</g>
		<g>
			<path d="M607.154,406.144c-0.168,0-0.337-0.052-0.482-0.161c-4.527-3.406-8.025-7.469-10.396-12.078
				c-3.434-6.674-3.543-12.664-3.639-17.948c-0.015-0.808-0.029-1.605-0.055-2.391c-0.658-20.009-8.69-35.476-11.713-41.298
				c-7.053-13.58-15.422-21.278-19.782-24.657c-2.451-1.901-5.066-3.644-7.775-5.183c-0.385-0.219-0.52-0.708-0.301-1.093
				c0.218-0.385,0.707-0.523,1.093-0.301c2.774,1.575,5.453,3.362,7.964,5.308c4.465,3.462,13.029,11.336,20.222,25.185
				c3.07,5.913,11.224,21.613,11.893,41.985c0.027,0.794,0.042,1.599,0.056,2.415c0.097,5.36,0.198,10.902,3.462,17.245
				c2.259,4.391,5.601,8.27,9.934,11.53c0.354,0.266,0.424,0.769,0.158,1.123C607.638,406.034,607.397,406.144,607.154,406.144z"/>
		</g>
		<g>
			<path d="M587.805,398.106c-0.124,0-0.25-0.028-0.368-0.089c-5.952-3.083-10.077-10.012-11.033-18.539
				c-0.142-1.264-0.22-2.534-0.298-3.804c-0.104-1.691-0.211-3.44-0.479-5.122c-0.532-3.332-1.673-5.905-3.393-7.646
				c-0.311-0.316-0.308-0.824,0.008-1.134c0.314-0.313,0.823-0.307,1.134,0.006c1.959,1.986,3.248,4.853,3.834,8.52
				c0.28,1.76,0.39,3.548,0.496,5.277c0.076,1.243,0.153,2.487,0.291,3.724c0.896,7.992,4.7,14.457,10.176,17.292
				c0.393,0.204,0.547,0.687,0.343,1.08C588.375,397.948,588.096,398.106,587.805,398.106z"/>
		</g>
		<g>
			<path d="M535.632,302.911c-0.135,0-0.273-0.034-0.399-0.106c-0.384-0.222-0.516-0.712-0.294-1.096
				c2.395-4.156,2.297-8.938,1.793-12.217c-0.655-4.256-2.282-8.36-3.857-12.33c-0.163-0.412,0.038-0.878,0.449-1.041
				c0.412-0.158,0.877,0.038,1.041,0.449c1.607,4.053,3.269,8.243,3.951,12.678c0.543,3.534,0.639,8.702-1.989,13.263
				C536.179,302.767,535.909,302.911,535.632,302.911z"/>
		</g>
		<g>
			<path d="M553.797,302.911c-0.277,0-0.547-0.144-0.695-0.401c-2.628-4.561-2.531-9.731-1.988-13.263
				c0.682-4.435,2.343-8.625,3.951-12.678c0.164-0.412,0.63-0.615,1.041-0.449c0.411,0.163,0.612,0.63,0.449,1.041
				c-1.575,3.97-3.202,8.074-3.857,12.33c-0.504,3.279-0.603,8.06,1.792,12.217c0.222,0.384,0.089,0.874-0.294,1.096
				C554.07,302.877,553.932,302.911,553.797,302.911z"/>
		</g>
		<g>
			<path d="M533.653,277.776c-0.085,0-0.171-0.014-0.257-0.042c-0.419-0.141-0.644-0.597-0.503-1.016
				c0.949-2.809,3.398-4.837,6.239-5.169c2.673-0.299,4.714,0.988,5.712,1.815c1.879-1.943,4.664-2.692,7.181-1.859
				c3.663,1.207,4.532,5.028,4.567,5.189c0.094,0.432-0.181,0.858-0.613,0.954c-0.434,0.096-0.86-0.182-0.954-0.612
				c-0.006-0.031-0.707-3.086-3.502-4.009c-2.14-0.7-4.54,0.088-5.976,1.975c-0.144,0.189-0.364,0.304-0.601,0.315
				c-0.227,0.034-0.467-0.083-0.627-0.258c-0.213-0.23-2.17-2.264-5.002-1.915c-2.229,0.258-4.154,1.863-4.906,4.089
				C534.3,277.565,533.987,277.776,533.653,277.776z"/>
		</g>
		<g>
			<path d="M509.593,398.532c-0.272,0-0.539-0.139-0.689-0.39c-0.227-0.381-0.103-0.872,0.277-1.099
				c5.291-3.165,8.695-9.85,9.102-17.884c0.063-1.243,0.063-2.488,0.063-3.735c0-1.732,0.001-3.523,0.173-5.296
				c0.359-3.696,1.472-6.636,3.307-8.738c0.29-0.334,0.798-0.365,1.131-0.077c0.334,0.291,0.367,0.799,0.076,1.132
				c-1.61,1.843-2.592,4.482-2.919,7.839c-0.164,1.694-0.165,3.447-0.165,5.139c0,1.273-0.001,2.546-0.065,3.816
				c-0.435,8.57-4.129,15.741-9.882,19.178C509.874,398.496,509.733,398.532,509.593,398.532z"/>
		</g>
	</g>
	<g>
		<path d="M410.567,278.832c-0.042,0-0.084-0.003-0.126-0.009c-0.438-0.069-0.736-0.481-0.666-0.918
			c0.471-2.977,0.429-5.991-0.123-8.96c-0.081-0.435,0.207-0.855,0.642-0.935c0.431-0.083,0.853,0.205,0.935,0.64
			c0.586,3.149,0.629,6.347,0.129,9.505C411.296,278.55,410.954,278.832,410.567,278.832z"/>
	</g>
	<g>
		<path d="M432.579,279.897c-0.009,0-0.017,0-0.025,0c-0.443-0.014-0.791-0.384-0.777-0.827l0.23-7.535
			c0.034-1.121,0.114-3.749,2.251-4.76c0.4-0.188,0.879-0.019,1.068,0.382s0.018,0.878-0.382,1.068
			c-0.876,0.415-1.275,1.419-1.333,3.359l-0.23,7.537C433.366,279.554,433.01,279.897,432.579,279.897z"/>
	</g>
	<g>
		<path d="M533.61,277.672c-0.143,0-0.288-0.039-0.417-0.117c-0.305-0.185-0.451-0.55-0.357-0.894
			c0.779-2.872,0.542-5.966-0.669-8.711c-0.179-0.406,0.005-0.878,0.41-1.057c0.407-0.182,0.878,0.005,1.057,0.409
			c1.152,2.614,1.518,5.509,1.069,8.295c0.055,0.036,0.106,0.08,0.152,0.13c0.3,0.326,0.278,0.833-0.049,1.132l-0.655,0.603
			C534,277.6,533.806,277.672,533.61,277.672z"/>
	</g>
	<g>
		<path d="M555.619,277.308c-0.056,0-0.113-0.006-0.169-0.017c-0.433-0.094-0.709-0.52-0.615-0.954l1.66-7.709
			c0.087-0.404,0.467-0.67,0.877-0.628c0.41,0.049,0.717,0.401,0.709,0.814l-0.009,0.457c-0.004,0.186-0.071,0.355-0.181,0.49
			l-1.488,6.914C556.321,277.051,555.988,277.308,555.619,277.308z"/>
	</g>
	<g>
		<path d="M608.312,410.409L608.312,410.409c-0.443,0-0.802-0.359-0.802-0.802l0.006-149.095c0-0.443,0.359-0.802,0.802-0.802l0,0
			c0.443,0,0.802,0.359,0.802,0.802l-0.006,149.095C609.113,410.051,608.754,410.409,608.312,410.409z"/>
	</g>
	<g>
		<path d="M364.053,410.409L364.053,410.409c-0.443,0-0.802-0.359-0.802-0.802l0.006-149.095c0-0.443,0.359-0.802,0.802-0.802l0,0
			c0.443,0,0.802,0.359,0.802,0.802l-0.006,149.095C364.854,410.051,364.495,410.409,364.053,410.409z"/>
	</g>
	<g>
		<path d="M594.749,417.717h-218.05c-0.443,0-0.802-0.359-0.802-0.802s0.359-0.802,0.802-0.802h218.05
			c0.443,0,0.802,0.359,0.802,0.802C595.551,417.359,595.192,417.717,594.749,417.717z"/>
	</g>
	<g>
		<path d="M378.014,438.488c-3.354,0-6.712-0.723-9.38-2.152c-5.202-2.784-7.535-8.052-5.55-12.524
			c1.929-4.344,7.929-7.629,14.266-7.811c0.431,0.03,0.812,0.335,0.824,0.778c0.013,0.443-0.336,0.813-0.779,0.825
			c-5.752,0.164-11.155,3.049-12.846,6.859c-1.636,3.683,0.4,8.082,4.84,10.46c4.618,2.471,11.494,2.639,16.35,0.402
			c2.169-0.999,3.696-2.368,4.19-3.758c0.528-1.481-0.233-3.083-1.85-3.898c-1.844-0.924-4.37-0.85-7.013-0.686
			c-1.556,0.099-3.318,0.21-4.645,0.831c-0.684,0.321-1.219,0.86-1.333,1.342c-0.052,0.218-0.011,0.401,0.128,0.576
			c0.712,0.904,2.947,0.994,5.836,0.24c0.425-0.119,0.866,0.143,0.979,0.573c0.112,0.427-0.145,0.866-0.573,0.977
			c-2.128,0.556-5.931,1.192-7.501-0.797c-0.441-0.559-0.593-1.248-0.429-1.939c0.231-0.976,1.058-1.882,2.212-2.424
			c1.603-0.752,3.527-0.874,5.225-0.98c2.869-0.18,5.629-0.254,7.834,0.855c2.362,1.187,3.448,3.6,2.641,5.867
			c-0.647,1.82-2.434,3.481-5.03,4.676C383.937,437.922,380.977,438.488,378.014,438.488z"/>
	</g>
	<g>
		<path d="M593.775,438.488c-2.964,0-5.922-0.564-8.398-1.705c-2.596-1.195-4.382-2.856-5.031-4.676
			c-0.806-2.269,0.28-4.681,2.642-5.867c2.204-1.109,4.965-1.035,7.835-0.855c1.697,0.106,3.622,0.229,5.225,0.982
			c1.154,0.54,1.981,1.447,2.212,2.424c0.164,0.691,0.011,1.378-0.429,1.937c-1.569,1.99-5.373,1.355-7.501,0.797
			c-0.428-0.111-0.685-0.55-0.573-0.977c0.113-0.431,0.549-0.692,0.979-0.573c2.885,0.753,5.124,0.662,5.836-0.24
			c0.139-0.175,0.179-0.359,0.128-0.576c-0.114-0.481-0.649-1.021-1.333-1.342c-1.327-0.622-3.09-0.733-4.645-0.831
			c-2.642-0.164-5.168-0.238-7.013,0.686c-1.617,0.813-2.378,2.416-1.851,3.898c0.495,1.391,2.022,2.759,4.19,3.758
			c4.857,2.236,11.731,2.069,16.35-0.402c4.44-2.379,6.476-6.777,4.84-10.46c-1.691-3.81-7.094-6.694-12.846-6.859
			c-0.443-0.013-0.792-0.382-0.779-0.825c0.013-0.442,0.37-0.741,0.824-0.778c6.337,0.182,12.337,3.467,14.266,7.811
			c1.986,4.472-0.348,9.74-5.55,12.524C600.488,437.764,597.128,438.488,593.775,438.488z"/>
	</g>
	<g>
		<path fill="#EFD5DF" d="M473.327,341.368c-0.289-3.063-0.692-5.548-1.009-7.259c-1.174-6.349-2.327-9.56-2.325-15.423
			c0-0.754,0.059-1.517,0.18-2.416c1.381-10.252,6.586-11.746,6.365-19.722c-0.067-2.424-0.868-3.226-1.984-5.998
			c-0.51-1.267-1.064-2.825-1.86-6.088c-0.924-3.787-1.374-5.722-0.817-7.745c0.456-1.653,1.331-2.845,1.946-3.55
			c0.679-0.035,4.499-0.166,7.073,2.648c0.857,0.936,1.332,1.932,1.603,2.706c-0.184,1.651-0.368,3.302-0.553,4.953
			c-0.211-4.125,1.867-7.66,4.933-8.764c2.072-0.746,4.024-0.176,4.887,0.142c0.604,1.012,1.375,2.619,1.556,4.671
			c0.211,2.378-0.474,4.178-1.002,5.612c-2.262,6.148-3.392,9.222-3.508,10.723c-0.335,4.369,1.72,8.36,3.608,12.026
			c1.06,2.059,2.531,4.383,2.906,8.017c0.077,0.744,0.113,1.588,0,3.407c-0.243,3.927-0.897,7.85-2.706,15.133
			c-0.408,1.643-0.978,3.871-1.704,6.514"/>
	</g>
</g>
<g>
	<g>
		<path fill="#EFD5DF" d="M232.277,129.601c3.965,3.492-2.377,15.757-5.211,23.451c-9.78,26.552,4.754,46.657,14.031,82.38
			c16.884,65.017-3.927,95.84,13.429,138.903c1.652,4.099,7.609,18.131,12.471,38.114c3.146,12.929,4.724,23.79,5.569,31.037
			c-1.775,1.786-4.696,4.299-8.873,6.21c0,0-5.39,2.324-11.729,2.717c-8.758,0.543-24.991-16.102-39.355-14.143
			c-9.712,1.325-11.202,10.202-21.822,9.625c-4.93-0.268-9.269-2.433-13.229-4.41c-9.722-4.853-11.096-9.301-15.835-8.619
			c-4.301,0.619-8.182,5.005-11.024,8.218c-1.249,1.412-2.179,2.687-2.806,3.608c-0.209,1.106-0.987,1.898-1.737,1.937
			c-0.968,0.051-2.153-1.137-1.959-2.801c10.461-30.054,10.1-53.042,7.486-69.01c-2.504-15.294-8.319-31.753-0.182-48.785
			c4.213-8.817,8.502-10.121,14.632-17.638c20.568-25.222,22.845-72.543,2.074-96.599c-10.96-12.693-19.723-9.147-29.824-21.763
			c-14.381-17.962-11.068-44.342-6.368-63.118c-1.258,0.106-2.517,0.212-3.775,0.319c-0.213,4.309-0.53,10.452-0.953,17.829
			c-1.917,33.428-3.387,42.846-5.428,52.627c-4.49,21.523-10.328,25.557-13.624,35.204c0,0-1.202,3.875-1.892,8.323
			c-4.689,30.242,17.097,65.976,17.097,65.976c12.125,19.888,23.172,60.109,18.397,149.358c-2.851-4.603-5.812-9.327-10.198-12.502
			c-0.822-0.595-7.701-3.958-15.238-1.667c-5.906,1.795-5.89,5.199-11.201,7.323c-6.97,2.787-14.261-0.172-21.246-3.007
			c-12.396-5.03-13.131-9.882-21.29-11.849c-4.779-1.152-12.286-1.358-23.006,4.433c-9.831-54.25-7.638-96.494-3.808-125.073
			c6.458-48.189,17.882-59.824,9.421-88.794c-4.312-14.765-16.176-42.201-13.63-74.563c0.468-5.944,1.244-9.804,4.209-12.628
			c11.981-11.411,39.843,13,66.745,1.203c8.575-3.76,7.178-7.109,16.436-10.423c11.063-3.96,17.845-1.016,42.693,3.007
			c23.729,3.841,35.796,5.711,45.7,3.207C221.226,133.728,228.784,126.524,232.277,129.601z"/>
		<path fill="#FFFFFF" d="M141.837,459.352c-0.273,0-0.533-0.139-0.682-0.379c-2.655-4.287-5.664-9.145-9.987-12.275
			c-0.76-0.553-7.428-3.711-14.534-1.55c-2.963,0.9-4.328,2.217-5.775,3.613c-1.344,1.297-2.734,2.637-5.362,3.686
			c-7.266,2.908-14.676-0.097-21.84-3.005c-6.355-2.579-9.759-5.16-12.494-7.235c-2.686-2.036-4.807-3.645-8.688-4.58
			c-6.59-1.593-14.141-0.121-22.437,4.358c-0.226,0.124-0.496,0.128-0.729,0.017c-0.231-0.111-0.395-0.326-0.442-0.579
			c-7.861-43.384-9.144-85.549-3.814-125.322c2.343-17.476,5.367-30.288,7.798-40.582c4.357-18.456,6.988-29.594,1.647-47.879
			c-0.741-2.54-1.691-5.406-2.791-8.725c-5.171-15.609-12.986-39.196-10.868-66.125c0.491-6.242,1.347-10.185,4.456-13.146
			c5.922-5.639,15.326-3.063,26.213-0.081c12.506,3.426,26.681,7.308,40.764,1.131c3.917-1.718,5.696-3.354,7.415-4.936
			c1.978-1.82,4.023-3.7,9.072-5.507c3.717-1.331,6.99-1.895,10.574-1.914l2.614-0.219c0.254-0.019,0.509,0.08,0.678,0.279
			c0.018,0.022,0.035,0.044,0.051,0.067c4.093,0.31,8.794,1.163,15.022,2.296c4.042,0.733,8.623,1.566,14.154,2.462
			c24.569,3.974,35.83,5.631,45.375,3.221c6.008-1.519,10.801-3.743,14.652-5.529c5.168-2.396,8.581-3.979,10.929-1.912
			c3.616,3.185,0.083,11.805-3.034,19.409c-0.717,1.748-1.403,3.422-1.955,4.92c-6.881,18.681-1.43,34.48,5.47,54.481
			c2.775,8.044,5.921,17.162,8.584,27.419c8.525,32.828,7.473,56.995,6.546,78.316c-0.916,21.062-1.708,39.253,6.852,60.49
			l0.393,0.968c2.07,5.08,7.567,18.573,12.113,37.256c2.493,10.249,4.372,20.723,5.586,31.133c0.028,0.243-0.056,0.484-0.228,0.658
			c-2.668,2.686-5.732,4.831-9.108,6.375c-0.241,0.103-5.608,2.39-12.013,2.787c-3.956,0.241-9.045-2.635-14.935-5.971
			c-7.671-4.344-16.355-9.261-24.361-8.179c-4.222,0.576-6.754,2.61-9.434,4.764c-3.182,2.556-6.485,5.191-12.539,4.868
			c-5.097-0.277-9.584-2.516-13.544-4.493c-4.334-2.163-7.085-4.286-9.094-5.835c-2.543-1.961-3.943-3.047-6.268-2.707
			c-4.01,0.576-7.783,4.84-10.537,7.955c-0.951,1.076-1.845,2.219-2.657,3.4c-0.319,1.351-1.326,2.357-2.446,2.415
			c-0.658,0.033-1.363-0.274-1.906-0.85c-0.691-0.736-1.016-1.773-0.892-2.842c0.006-0.058,0.02-0.116,0.039-0.171
			c8.433-24.226,10.94-47.313,7.451-68.617c-0.447-2.733-0.99-5.448-1.564-8.321c-2.626-13.14-5.341-26.725,1.45-40.941
			c2.718-5.689,5.475-8.329,8.667-11.387c1.884-1.804,3.832-3.671,6.067-6.412c21.123-25.902,22.139-72.347,2.089-95.568
			c-5.311-6.151-10.142-8.431-14.815-10.637c-4.821-2.275-9.807-4.629-15.027-11.149c-6.587-8.226-10.095-18.891-10.51-31.88
			c-1.578,23.309-2.938,31.218-4.604,39.201c-2.983,14.301-6.499,20.834-9.601,26.599c-1.581,2.938-2.947,5.476-4.049,8.702
			c-0.005,0.016-1.187,3.852-1.859,8.185c-4.59,29.597,16.773,65.081,16.989,65.436c16.183,26.542,22.411,76.949,18.514,149.817
			c-0.019,0.351-0.263,0.648-0.602,0.734C141.969,459.344,141.903,459.352,141.837,459.352z M121.78,442.797
			c5.341,0,9.578,2.058,10.33,2.601c3.843,2.784,6.643,6.754,9.059,10.567c3.603-71.169-2.59-120.401-18.413-146.355
			c-0.219-0.36-21.885-36.334-17.205-66.515c0.691-4.457,1.869-8.277,1.919-8.439c1.152-3.371,2.614-6.088,4.161-8.963
			c3.05-5.669,6.508-12.092,9.444-26.168c1.939-9.294,3.461-18.5,5.413-52.508c0.397-6.928,0.7-12.767,0.912-17.02
			c-2.679,0.183-5.237,0.738-8.099,1.762c-4.743,1.697-6.581,3.389-8.526,5.178c-1.817,1.671-3.696,3.398-7.858,5.224
			c-14.606,6.405-29.702,2.269-41.831-1.052c-10.419-2.855-19.418-5.319-24.683-0.304c-2.736,2.604-3.503,6.265-3.963,12.109
			c-2.093,26.608,5.661,50.009,10.791,65.496c1.105,3.334,2.059,6.214,2.808,8.779c5.459,18.692,2.792,29.987-1.626,48.7
			c-2.422,10.26-5.438,23.028-7.769,40.426c-5.264,39.278-4.05,80.904,3.609,123.745c8.277-4.27,15.878-5.614,22.599-3.991
			c4.207,1.015,6.559,2.798,9.282,4.862c2.798,2.122,5.968,4.527,12.122,7.025c6.874,2.789,13.975,5.67,20.647,3.005
			c2.336-0.935,3.554-2.109,4.844-3.353c1.519-1.466,3.09-2.98,6.421-3.993C118.102,443.026,120.003,442.797,121.78,442.797z
			 M215.037,437.305c7.75,0,15.718,4.511,22.831,8.54c5.431,3.075,10.557,5.966,14.045,5.766c6.115-0.379,11.408-2.631,11.461-2.653
			c3.07-1.405,5.882-3.346,8.349-5.769c-1.207-10.218-3.059-20.495-5.506-30.553c-4.518-18.567-9.983-31.981-12.04-37.029
			l-0.396-0.976c-8.688-21.558-7.891-39.909-6.966-61.157c0.922-21.21,1.968-45.249-6.495-77.843
			c-2.648-10.197-5.783-19.284-8.548-27.3c-7.005-20.304-12.537-36.34-5.459-55.559c0.558-1.516,1.251-3.207,1.976-4.973
			c2.624-6.401,6.217-15.169,3.458-17.599l0,0c-1.558-1.37-4.598,0.033-9.193,2.164c-3.912,1.815-8.78,4.073-14.934,5.628
			c-10.266,2.598-22.966,0.54-46.025-3.193c-5.545-0.897-10.134-1.73-14.183-2.466c-6.279-1.14-10.901-1.981-14.852-2.285
			c-6.633,27.165-4.465,47.85,6.449,61.481c4.988,6.231,9.59,8.403,14.461,10.701c4.823,2.277,9.811,4.632,15.344,11.038
			c20.502,23.746,19.501,71.191-2.059,97.632c-2.298,2.817-4.371,4.804-6.201,6.556c-3.079,2.949-5.737,5.495-8.329,10.921
			c-6.561,13.733-3.899,27.053-1.325,39.934c0.552,2.761,1.122,5.615,1.575,8.376c3.527,21.545,1.008,44.865-7.489,69.314
			c-0.066,0.805,0.308,1.298,0.475,1.478c0.254,0.268,0.513,0.357,0.653,0.348c0.31-0.017,0.841-0.484,0.992-1.286
			c0.02-0.108,0.063-0.211,0.125-0.302c0.873-1.283,1.838-2.523,2.868-3.688c2.92-3.301,6.919-7.82,11.51-8.481
			c2.996-0.426,4.778,0.944,7.476,3.025c2.065,1.594,4.637,3.577,8.83,5.67c4.007,2,8.15,4.068,12.915,4.327
			c5.461,0.296,8.366-2.044,11.448-4.519c2.733-2.194,5.558-4.464,10.222-5.1C213.342,437.359,214.189,437.305,215.037,437.305z
			 M129.006,129.973c-0.175,3.522-0.414,8.147-0.718,13.589c0.618-4.342,1.499-8.879,2.645-13.608
			c-0.465-0.019-0.922-0.028-1.373-0.028L129.006,129.973z"/>
	</g>
	<g>
		<path d="M141.837,459.352c-0.274,0-0.533-0.141-0.682-0.379c-2.655-4.287-5.664-9.145-9.987-12.275
			c-3.853-2.792-9.789-4.38-14.354-1.63c-2.094,1.261-3.603,3.216-5.2,5.288c-1.369,1.776-2.784,3.613-4.619,5.008
			c-7.244,5.501-17.588,2.156-24.856-2.809c-1.759-1.203-3.505-2.524-5.193-3.8c-5.092-3.852-10.358-7.836-16.546-8.951
			c-8.988-1.619-18.858,4.04-22.001,12.613c-0.128,0.351-0.48,0.576-0.85,0.52c-0.37-0.044-0.659-0.338-0.7-0.708
			c-4.908-44.657-9.983-90.834-4.817-136.374c1.051-9.267,2.547-18.639,3.994-27.703c2.626-16.448,5.341-33.456,5.467-50.341
			c0.1-13.385-4.397-25.728-8.746-37.665c-5.79-15.888-11.776-32.317-6.38-50.748c1.952-6.665,4.366-11.176,7.177-13.41
			c7.113-5.65,16.377-3.256,27.105-0.484c11.69,3.024,24.94,6.447,40.518,1.945c4.001-1.156,5.806-2.163,7.717-3.227
			c2.18-1.214,4.433-2.469,9.93-3.99c6.791-1.881,16.382-3.65,44.391-0.827c12.62,1.27,20.249,2.582,25.819,3.541
			c7.885,1.356,11.151,1.92,18.033,0.481c6.459-1.35,11.5-3.5,15.551-5.227c5.333-2.275,8.859-3.774,11.435-1.567l0,0
			c4.013,3.44,0.839,12.266-2.231,20.802c-0.818,2.275-1.591,4.424-2.214,6.43c-5.763,18.544-0.094,33.985,6.47,51.865
			c3.368,9.173,6.851,18.658,8.977,29.265c4.272,21.314,5.19,43.454,6.077,64.866c1.03,24.843,2.095,50.532,8.43,74.888
			c1.764,6.784,3.981,13.685,6.124,20.358c6.138,19.114,12.486,38.879,9.247,58.795c-0.057,0.349-0.335,0.62-0.686,0.667
			c-0.358,0.049-0.69-0.144-0.836-0.464c-1.498-3.304-6.015-4.194-9.583-3.617c-1.659,0.266-3.329,0.763-4.945,1.243
			c-2.206,0.656-4.486,1.334-6.862,1.481c-6.995,0.443-13.247-3.649-19.274-7.598c-6.668-4.367-12.965-8.49-19.916-6.574
			c-3.673,1.016-6.74,3.694-9.707,6.282c-3.331,2.906-6.776,5.911-11.203,6.777c-6.253,1.22-12.229-2.22-16.735-5.357
			c-1.618-1.126-3.031-2.166-4.299-3.101c-4.533-3.339-7.029-5.175-10.427-4.796c-2.747,0.308-5.352,2.31-7.745,5.947l-2.931,4.663
			c-0.111,0.175-0.286,0.302-0.489,0.351c-0.562,0.139-2.035,0.366-3.526-0.482c-0.666-0.379-1.148-0.864-1.495-1.353
			c-0.499,3.523-1.044,7.095-1.636,10.708c-0.054,0.329-0.308,0.592-0.635,0.656C141.941,459.347,141.889,459.352,141.837,459.352z
			 M57.3,437.926c1.133,0,2.265,0.097,3.386,0.299c6.565,1.184,11.986,5.285,17.229,9.25c1.672,1.267,3.402,2.574,5.13,3.755
			c6.805,4.651,16.415,7.845,22.981,2.856c1.666-1.265,2.955-2.938,4.32-4.709c1.617-2.098,3.289-4.267,5.643-5.684
			c5.193-3.126,11.838-1.397,16.122,1.705c3.959,2.867,6.811,6.995,9.277,10.913c10.65-66.772,5.243-117.993-16.078-152.276
			c-0.64-1.03-1.366-2.159-2.151-3.381c-7.835-12.198-20.948-32.613-17.61-57.544c1.09-8.143,3.404-12.441,6.083-17.418
			c3.05-5.669,6.508-12.094,9.444-26.168c1.939-9.294,3.461-18.5,5.413-52.508c0.392-6.852,0.693-12.638,0.905-16.881
			c-3.407,0.426-5.931,1.027-8.148,1.64c-5.312,1.47-7.48,2.679-9.577,3.847c-1.905,1.062-3.876,2.159-8.053,3.367
			c-15.997,4.624-30.062,0.988-41.364-1.932c-10.738-2.776-19.218-4.969-25.706,0.186c-3.172,2.52-5.359,8.246-6.635,12.606
			c-5.249,17.925,0.384,33.384,6.347,49.749c4.398,12.07,8.945,24.55,8.843,38.226c-0.128,17.006-2.852,34.074-5.487,50.581
			c-1.445,9.046-2.938,18.401-3.985,27.632c-5.035,44.386-0.294,89.465,4.502,133.139C41.874,442.435,49.589,437.926,57.3,437.926z
			 M216.344,436.959c6.107,0,11.767,3.707,17.273,7.314c5.809,3.804,11.827,7.739,18.297,7.338c2.192-0.136,4.287-0.759,6.504-1.419
			c1.664-0.495,3.385-1.005,5.146-1.289c3.551-0.572,7.703,0.11,10.076,2.69c2.439-18.855-3.622-37.728-9.489-55.999
			c-2.15-6.694-4.373-13.617-6.149-20.445c-6.378-24.522-7.447-50.299-8.48-75.226c-0.885-21.35-1.8-43.426-6.048-64.616
			c-2.101-10.487-5.563-19.914-8.909-29.029c-6.388-17.399-12.422-33.832-6.497-52.893c0.633-2.039,1.412-4.204,2.237-6.497
			c2.751-7.649,5.87-16.32,2.697-19.04c-1.823-1.564-4.98-0.216-9.763,1.824c-4.115,1.755-9.237,3.94-15.853,5.321
			c-7.181,1.503-10.768,0.883-18.632-0.47c-5.546-0.954-13.143-2.26-25.708-3.526c-14.278-1.436-23.703-1.676-30.395-1.318
			c-6.744,27.349-4.606,48.157,6.358,61.85c4.971,6.209,9.626,8.349,14.555,10.615c4.905,2.256,9.977,4.588,15.267,11.146
			c19.088,23.664,15.747,70.195-6.875,95.745c-2.457,2.775-4.589,4.649-6.47,6.303c-3.126,2.747-5.594,4.917-7.915,9.831
			c-5.93,12.559-2.37,24.961,1.399,38.091c1.244,4.336,2.531,8.819,3.497,13.392c4.448,21.069,1.946,44.362-7.436,69.234
			c0.123,0.462,0.496,1.461,1.522,2.045c0.786,0.449,1.571,0.443,2.048,0.377l2.755-4.383c2.676-4.068,5.673-6.309,8.916-6.674
			c4.021-0.453,6.859,1.639,11.557,5.1c1.258,0.927,2.659,1.959,4.264,3.075c4.246,2.955,9.849,6.204,15.512,5.097
			c4.004-0.781,7.137-3.515,10.455-6.411c3.102-2.706,6.31-5.506,10.334-6.618C213.733,437.125,215.049,436.959,216.344,436.959z
			 M145.438,356.569c3.858,24.066,3.804,52.118-0.182,83.974c7.842-22.786,9.742-44.143,5.643-63.557
			c-0.954-4.518-2.232-8.973-3.469-13.281C146.74,361.304,146.058,358.927,145.438,356.569z M127.247,160.652
			c-1.578,23.305-2.938,31.218-4.604,39.201c-2.983,14.301-6.499,20.834-9.601,26.599c-2.604,4.839-4.854,9.018-5.905,16.871
			c-3.259,24.347,9.655,44.452,17.37,56.465c0.789,1.228,1.519,2.363,2.164,3.401c7.301,11.74,12.757,25.435,16.361,41.027
			c-0.658-6.571-0.044-13.097,3.089-19.732c2.462-5.213,5.041-7.48,8.306-10.351c1.845-1.621,3.937-3.459,6.327-6.159
			c21.758-24.575,25.14-70.975,6.828-93.678c-5.053-6.264-9.734-8.415-14.689-10.694c-4.882-2.246-9.929-4.566-15.136-11.071
			C131.171,184.307,127.663,173.642,127.247,160.652z M129.006,129.973c-0.175,3.522-0.414,8.147-0.718,13.589
			c0.624-4.386,1.518-8.974,2.681-13.755L129.006,129.973z"/>
	</g>
	<g>
		<path d="M17.006,122.876c-0.437,0-0.794-0.349-0.802-0.788c-0.007-0.443,0.345-0.808,0.788-0.816l229.723-3.919
			c0.004,0,0.009,0,0.013,0c0.437,0,0.794,0.351,0.802,0.788c0.008,0.443-0.345,0.808-0.788,0.816L17.02,122.876
			C17.016,122.876,17.011,122.876,17.006,122.876z"/>
	</g>
	<g>
		<path d="M142.924,273.863c-5.694,0-12.112-3.085-17.35-8.381c-8.111-8.199-12.278-20.062-11.432-32.548
			c0.031-0.44,0.417-0.78,0.854-0.745c0.442,0.03,0.776,0.413,0.746,0.855c-0.815,12.025,3.184,23.437,10.972,31.31
			c5.187,5.244,11.522,8.177,16.989,7.883c5.269-0.299,10.895-3.603,15.435-9.067c6.823-8.21,9.886-19.557,8.405-31.133
			c-0.056-0.438,0.254-0.841,0.694-0.897c0.442-0.06,0.841,0.255,0.897,0.694c1.538,12.015-1.656,23.811-8.763,32.363
			c-4.823,5.803-10.866,9.317-16.578,9.641C143.506,273.855,143.216,273.863,142.924,273.863z"/>
	</g>
	<g>
		<path d="M115.75,240.942c-0.433,0-0.789-0.346-0.801-0.781c-0.011-0.443,0.339-0.811,0.781-0.822
			c3.138-0.08,9.294-0.835,15.258-4.994c6.41-4.469,9.242-10.474,10.36-13.656c0.146-0.418,0.604-0.64,1.022-0.49
			c0.418,0.147,0.638,0.604,0.491,1.023c-1.181,3.364-4.176,9.713-10.955,14.439c-6.308,4.399-12.817,5.197-16.135,5.282
			C115.764,240.942,115.757,240.942,115.75,240.942z"/>
	</g>
	<g>
		<path d="M166.527,237.984c-3.5,0-8.663-0.67-13.89-3.753c-6.773-3.995-9.969-9.839-11.272-12.967
			c-0.171-0.409,0.023-0.878,0.431-1.049c0.408-0.163,0.878,0.023,1.048,0.432c1.226,2.944,4.235,8.445,10.607,12.203
			c6.105,3.603,12.119,3.703,15.16,3.445c0.442-0.034,0.83,0.29,0.867,0.73c0.038,0.442-0.289,0.83-0.73,0.868
			C168.119,237.944,167.371,237.984,166.527,237.984z"/>
	</g>
	<g>
		<path d="M168.543,299.356c-0.077,0-0.156-0.011-0.233-0.034c-0.424-0.13-0.662-0.578-0.534-1.001
			c4.029-13.229,6.461-26.931,7.23-40.725c0.981-17.62,0.011-25.712-3.99-33.305c-5.445-10.338-16.988-16.195-30.101-15.282
			c-13.843,0.96-25.473,9.026-29.629,20.548c-0.651,1.806-1.315,3.788-1.76,6.043c-1.211,6.135-0.647,10.993-0.377,13.327
			c0.791,6.826,4.242,22.59,11.363,44.555c0.137,0.421-0.094,0.874-0.515,1.01c-0.421,0.139-0.874-0.096-1.01-0.515
			c-7.158-22.076-10.631-37.967-11.43-44.865c-0.28-2.416-0.864-7.441,0.395-13.822c0.466-2.36,1.153-4.411,1.826-6.278
			c4.372-12.119,16.55-20.598,31.026-21.603c13.764-0.954,25.885,5.225,31.631,16.134c4.158,7.892,5.171,16.187,4.172,34.142
			c-0.775,13.924-3.23,27.753-7.296,41.104C169.205,299.134,168.887,299.356,168.543,299.356z"/>
	</g>
	<g>
		<path d="M167.987,236.385c-0.081,0-0.163-0.013-0.243-0.038c-6.119-1.954-11.865-5.261-16.617-9.568
			c-4.58-4.147-8.342-9.32-10.884-14.962c-0.182-0.404-0.002-0.878,0.402-1.06c0.405-0.186,0.878-0.002,1.061,0.402
			c2.451,5.442,6.081,10.432,10.497,14.431c4.585,4.153,10.128,7.344,16.029,9.228c0.422,0.135,0.655,0.586,0.52,1.008
			C168.642,236.167,168.327,236.385,167.987,236.385z"/>
	</g>
	<g>
		<path d="M114.942,235.625c-0.403,0-0.75-0.302-0.796-0.712c-0.049-0.44,0.268-0.836,0.708-0.886
			c3.191-0.359,14.118-2.256,20.79-11.646c2.303-3.24,3.83-6.951,4.54-11.03c0.077-0.437,0.483-0.736,0.928-0.651
			c0.436,0.075,0.728,0.49,0.652,0.927c-0.752,4.317-2.372,8.248-4.813,11.685c-7.057,9.929-18.561,11.932-21.919,12.31
			C115.001,235.624,114.971,235.625,114.942,235.625z"/>
	</g>
	<g>
		<path d="M157.114,309.388c-0.088,0-0.169-0.006-0.242-0.02c-0.359-0.069-0.558-0.266-0.662-0.42
			c-0.493-0.734,0.124-1.373,1.058-2.339c0.446-0.462,0.993-1.027,1.521-1.685c1.49-1.852,2.651-4.576,3.45-8.093
			c2.127-9.355,3.325-29.776,3.337-29.983c0.59-10.203,1.946-15.546,2.936-19.449c0.974-3.833,1.561-6.148,0.707-10.401
			c-1.755-8.736-8.434-18.824-18.954-20.33c-0.438-0.063-0.743-0.47-0.68-0.908c0.063-0.437,0.471-0.727,0.907-0.68
			c11.291,1.618,18.437,12.332,20.299,21.602c0.925,4.612,0.269,7.197-0.725,11.112c-0.974,3.838-2.309,9.095-2.89,19.148
			c-0.049,0.842-1.217,20.759-3.373,30.242c-0.854,3.758-2.121,6.701-3.765,8.744c-0.369,0.459-0.743,0.872-1.088,1.24
			c0.834-0.382,1.842-0.929,2.814-1.6c2.635-1.821,4.729-4.489,6.225-7.931c0.175-0.406,0.647-0.59,1.055-0.417
			c0.406,0.177,0.593,0.65,0.416,1.055c-1.616,3.721-3.898,6.618-6.784,8.611C161.082,307.989,158.386,309.388,157.114,309.388z"/>
	</g>
	<g>
		<path d="M125.989,304.414c-0.391,0-0.734-0.287-0.792-0.686l-7.239-49.417c-0.064-0.438,0.239-0.846,0.677-0.91
			c0.442-0.05,0.846,0.24,0.909,0.678l7.239,49.417c0.064,0.438-0.239,0.846-0.677,0.91
			C126.067,304.411,126.028,304.414,125.989,304.414z"/>
	</g>
	<g>
		<path fill="none" stroke="#000000" stroke-linecap="round" stroke-linejoin="round" stroke-miterlimit="10" d="M115.751,240.14"/>
	</g>
	<g>
		<path d="M166.096,298.077c-0.045,0-0.092-0.003-0.139-0.013c-0.436-0.075-0.728-0.492-0.652-0.927l0.058-0.329
			c0.811-4.646,2.737-15.68,5.687-32.677c1.878-10.819,2.686-15.833,2.13-21.293c-0.601-5.908-1.85-18.202-11.581-25.636
			c-6.077-4.64-13.014-5.562-17.818-5.581c-0.001,0-0.002,0-0.002,0c-0.442,0-0.8-0.357-0.802-0.799
			c-0.002-0.481,0.425-0.81,0.917-0.805c5.02,0,12.293,1.034,18.678,5.91c10.283,7.855,11.581,20.615,12.204,26.747
			c0.601,5.91-0.375,11.53-2.146,21.732c-2.95,16.996-4.877,28.031-5.688,32.677l-0.057,0.329
			C166.817,297.803,166.478,298.077,166.096,298.077z"/>
	</g>
	<g>
		<path d="M115.895,229.067c-0.309,0-0.604-0.18-0.736-0.481c-0.177-0.407,0.009-0.878,0.415-1.055
			c7.778-3.392,14.59-8.763,19.702-15.534c0.266-0.355,0.768-0.423,1.123-0.158c0.353,0.268,0.424,0.77,0.157,1.123
			c-5.276,6.992-12.31,12.538-20.34,16.038C116.11,229.045,116.001,229.067,115.895,229.067z"/>
	</g>
	<g>
		<path d="M166.835,229.067c-0.081,0-0.164-0.013-0.247-0.039c-6.658-2.153-12.924-5.631-18.121-10.058
			c-0.337-0.288-0.377-0.794-0.09-1.131c0.287-0.338,0.793-0.377,1.13-0.091c5.038,4.292,11.115,7.665,17.574,9.754
			c0.421,0.136,0.652,0.587,0.516,1.01C167.488,228.851,167.174,229.067,166.835,229.067z"/>
	</g>
	<g>
		<path d="M143.181,303.506c-0.014,0-0.028,0-0.042-0.002c-0.259-0.013-0.496-0.152-0.634-0.371
			c-0.684-1.076-2.233-3.057-4.922-4.231c-3.058-1.333-5.872-0.913-7.275-0.545c-0.427,0.116-0.868-0.142-0.979-0.572
			c-0.113-0.427,0.143-0.866,0.572-0.979c1.607-0.423,4.821-0.904,8.323,0.626c2.445,1.066,4.066,2.714,5.022,3.963
			c1.273-1.386,2.812-2.532,4.5-3.349c1.831-0.885,3.873-1.395,5.907-1.477c0.44,0.011,0.815,0.327,0.833,0.77
			c0.018,0.442-0.326,0.814-0.769,0.833c-1.816,0.072-3.64,0.528-5.273,1.317c-1.791,0.866-3.393,2.15-4.634,3.711
			C143.657,303.395,143.425,303.506,143.181,303.506z"/>
	</g>
	<g>
		<path d="M123.885,287.983c-0.145,0-0.29-0.002-0.435-0.006c-0.442-0.014-0.789-0.385-0.775-0.827
			c0.013-0.442,0.359-0.758,0.827-0.777c3.583,0.138,7.166-1.35,9.641-3.915c2.474-2.565,3.808-6.22,3.567-9.776
			c-0.03-0.443,0.305-0.825,0.746-0.855c0.449-0.02,0.824,0.305,0.854,0.745c0.27,4.002-1.23,8.113-4.013,10.997
			C131.614,286.353,127.749,287.983,123.885,287.983z"/>
	</g>
	<g>
		<path d="M162.493,289.573c-2.678,0-8.764-0.601-13.11-5.598c-3.475-3.996-3.989-8.553-3.987-10.914
			c0.001-0.442,0.359-0.8,0.802-0.8h0.001c0.443,0,0.802,0.36,0.801,0.803c-0.002,1.719,0.344,6.123,3.594,9.859
			c4.868,5.6,12.199,5.08,13.021,5.002c0.451-0.023,0.832,0.283,0.874,0.723c0.042,0.44-0.281,0.832-0.722,0.874
			C163.59,289.536,163.141,289.573,162.493,289.573z"/>
	</g>
	<g>
		<path d="M126.213,304.834c-0.339,0-0.654-0.216-0.763-0.556c-0.42-1.308,0.132-2.831,1.514-4.181
			c0.217-0.213,0.446-0.42,0.674-0.628c0.687-0.62,1.335-1.207,1.641-1.942c0.322-0.772,0.262-1.712,0.204-2.618
			c-0.171-2.64-0.365-5.634-1.802-7.977c-0.232-0.377-0.113-0.872,0.265-1.102c0.376-0.235,0.871-0.114,1.102,0.263
			c1.645,2.682,1.852,5.886,2.036,8.713c0.063,0.99,0.142,2.22-0.324,3.339c-0.443,1.065-1.257,1.802-2.044,2.515
			c-0.214,0.193-0.427,0.385-0.63,0.584c-0.345,0.337-1.44,1.511-1.108,2.543c0.135,0.421-0.096,0.874-0.518,1.008
			C126.377,304.821,126.295,304.834,126.213,304.834z"/>
	</g>
	<g>
		<path d="M160.622,304.431c-0.214,0-0.427-0.085-0.585-0.254c-0.894-0.954-1.725-1.946-2.47-2.952
			c-0.308-0.415-0.53-0.736-0.709-0.994c-0.384-0.553-0.5-0.72-0.848-0.966c-0.427-0.304-0.817-0.446-1.196-0.584
			c-0.561-0.204-1.196-0.434-1.59-1.154c-0.428-0.78-0.251-1.575-0.145-2.05l0.041-0.2l1.156-7.819
			c0.064-0.438,0.471-0.749,0.911-0.675c0.438,0.064,0.741,0.471,0.676,0.91l-1.156,7.819c-0.013,0.089-0.036,0.196-0.063,0.313
			c-0.07,0.319-0.151,0.681-0.014,0.932c0.096,0.175,0.258,0.246,0.731,0.418c0.434,0.158,0.974,0.354,1.578,0.783
			c0.578,0.409,0.826,0.767,1.237,1.361c0.171,0.247,0.384,0.554,0.679,0.952c0.709,0.955,1.5,1.901,2.352,2.811
			c0.303,0.323,0.287,0.83-0.037,1.134C161.016,304.359,160.818,304.431,160.622,304.431z"/>
	</g>
	<g>
		<path d="M246.734,152.546c-4.305,0-8.436-2.371-10.083-6.149c-1.313-3.014-0.776-6.519,1.306-8.522
			c1.531-1.472,3.892-1.577,5.448-1.225c1.515,0.346,2.597,1.118,2.969,2.119c0.678,1.826-0.995,4.439-3.979,6.215
			c-0.382,0.229-0.871,0.102-1.099-0.279c-0.226-0.381-0.102-0.872,0.279-1.099c2.611-1.553,3.592-3.483,3.296-4.28
			c-0.169-0.454-0.902-0.902-1.823-1.112c-1.258-0.291-2.978-0.147-3.979,0.816c-1.608,1.547-1.998,4.313-0.947,6.726
			c1.734,3.979,7.015,6.152,11.536,4.746c4.185-1.301,7.593-5.283,8.683-10.149c1.192-5.323-0.364-10.526-1.879-13.954
			c-1.786-4.04-3.469-5.528-4.314-6.055c-1.525-0.951-3.382-1.411-5.4-1.387c-0.441,0.063-0.81-0.341-0.819-0.785
			s0.341-0.81,0.785-0.819c2.313-0.033,4.492,0.514,6.283,1.632c1.223,0.763,3.071,2.556,4.933,6.766
			c1.612,3.649,3.264,9.203,1.976,14.953c-1.212,5.415-5.048,9.862-9.771,11.329C249.016,152.381,247.868,152.546,246.734,152.546z"
			/>
	</g>
	<g>
		<path d="M10.829,152.525c-0.838,0-1.665-0.108-2.451-0.33c-4.475-1.268-7.899-5.706-8.326-10.791
			c-0.37-4.405,1.23-8.753,4.756-12.927c4.073-4.825,9.339-6.577,12.115-7.192c0.434-0.094,0.86,0.175,0.957,0.609
			c0.096,0.432-0.177,0.861-0.609,0.957c-2.579,0.572-7.468,2.197-11.238,6.66c-1.208,1.431-4.886,5.783-4.384,11.758
			c0.366,4.364,3.38,8.31,7.166,9.381c2.018,0.573,4.381,0.235,6.321-0.902c1.738-1.018,2.924-2.532,3.338-4.264
			c0.458-1.915-0.233-4.106-1.802-5.717c-1.415-1.455-3.197-2.086-4.876-1.727c-0.569,0.121-2.454,0.628-2.817,2.116
			c-0.244,0.999,0.24,2.197,1.233,3.049c0.336,0.29,0.374,0.795,0.086,1.131c-0.287,0.337-0.795,0.373-1.131,0.088
			c-1.469-1.262-2.138-3.043-1.747-4.648c0.586-2.396,3.243-3.135,4.043-3.304c2.202-0.464,4.579,0.349,6.357,2.177
			c1.95,2.003,2.798,4.765,2.213,7.209c-0.517,2.161-1.968,4.034-4.087,5.276C14.383,152.048,12.583,152.525,10.829,152.525z"/>
	</g>
	<g>
		<path d="M62.12,439.322c-0.085,0-0.171-0.013-0.254-0.042c-0.42-0.139-0.647-0.595-0.506-1.015
			c3.861-11.516,5.667-23.507,5.37-35.645c-0.182-7.46-1.183-15.008-2.151-22.308c-0.575-4.331-1.169-8.811-1.588-13.24
			c-2.1-22.151-0.01-44.71,2.011-66.526c1.953-21.083,3.972-42.886,2.193-64.237c-0.037-0.442,0.29-0.83,0.732-0.866
			c0.45-0.036,0.828,0.291,0.865,0.731c1.791,21.494-0.235,43.366-2.194,64.519c-2.014,21.743-4.096,44.226-2.011,66.229
			c0.417,4.397,1.009,8.861,1.582,13.18c0.973,7.341,1.98,14.933,2.165,22.477c0.302,12.325-1.532,24.503-5.453,36.196
			C62.768,439.111,62.455,439.322,62.12,439.322z"/>
	</g>
	<g>
		<path d="M118.055,444.336c-0.41,0-0.76-0.313-0.798-0.73c-2.325-25.82-4.731-52.519-15.052-76.833
			c-0.705-1.663-1.448-3.318-2.193-4.975c-2.815-6.267-5.725-12.747-6.547-19.691c-0.78-6.594,0.371-13.219,1.484-19.627
			c0.569-3.279,1.159-6.671,1.477-10.003c0.424-4.438,1.005-19.403-9.336-25.632c-0.38-0.229-0.502-0.722-0.273-1.101
			c0.229-0.382,0.721-0.501,1.1-0.274c7.52,4.532,11.297,14.684,10.105,27.161c-0.324,3.392-0.918,6.815-1.494,10.124
			c-1.093,6.295-2.224,12.803-1.471,19.165c0.793,6.701,3.652,13.066,6.417,19.223c0.749,1.666,1.497,3.332,2.207,5.005
			c10.419,24.546,12.835,51.373,15.172,77.315c0.04,0.442-0.286,0.832-0.727,0.871C118.103,444.335,118.079,444.336,118.055,444.336
			z"/>
	</g>
	<g>
		<path d="M185.616,452.08c-0.302,0-0.591-0.171-0.727-0.462c-6.836-14.624,0.671-31.406,8.244-45.988
			c7.512-14.466,14.235-31.071,7.14-44.546c-1.649-3.132-4.006-5.924-6.286-8.623c-1.971-2.333-4.009-4.746-5.635-7.416
			c-6.092-9.991-6.518-24.045-1.199-39.574c1.872-5.463,4.246-10.83,6.542-16.018c3.041-6.873,6.185-13.979,8.155-21.323
			c4.002-14.92,1.717-28.833-6.115-37.215c-0.302-0.324-0.285-0.831,0.038-1.134c0.323-0.301,0.831-0.283,1.133,0.038
			c8.212,8.791,10.64,23.268,6.492,38.728c-2.002,7.462-5.171,14.627-8.237,21.555c-2.282,5.158-4.641,10.492-6.491,15.889
			c-2.989,8.727-6.828,25.297,1.051,38.219c1.563,2.563,3.56,4.929,5.492,7.217c2.335,2.765,4.749,5.625,6.479,8.908
			c7.44,14.129,0.568,31.199-7.135,46.033c-7.397,14.242-14.742,30.606-8.214,44.569c0.187,0.401,0.014,0.878-0.387,1.066
			C185.845,452.056,185.73,452.08,185.616,452.08z"/>
	</g>
	<g>
		<path d="M242.69,450.177c-0.417,0-0.769-0.323-0.799-0.744c-2.036-28.338-4.142-57.641-11.015-85.713
			c-0.798-3.26-1.661-6.506-2.523-9.754c-2.228-8.387-4.532-17.059-5.642-25.831c-1.716-13.565-0.613-27.551,0.454-41.077
			c1.414-17.919,2.876-36.447-2.371-53.73c-0.128-0.424,0.11-0.872,0.535-1.001c0.427-0.128,0.872,0.111,1,0.534
			c5.334,17.573,3.86,36.256,2.435,54.323c-1.061,13.445-2.158,27.347-0.462,40.75c1.096,8.664,3.386,17.285,5.6,25.62
			c0.865,3.257,1.73,6.514,2.531,9.784c6.905,28.204,9.015,57.576,11.055,85.98c0.032,0.442-0.301,0.825-0.742,0.858
			C242.728,450.177,242.709,450.177,242.69,450.177z"/>
	</g>
	<g>
		<g>
			<path d="M244.905,118.977c1.032,0,1.033-1.603,0-1.603C243.873,117.374,243.871,118.977,244.905,118.977L244.905,118.977z"/>
		</g>
	</g>
	<g>
		<path fill="#FFFFFF" d="M129.387,309.158c0.566-0.274,1.272-0.069,1.75,0.341c0.478,0.409,0.774,0.987,1.044,1.555
			c0.285,0.598,0.555,1.203,0.81,1.814c0.417,0.998,0.556,1.525,0.484,2.074c-0.088,0.675-0.449,1.169-0.69,1.441l-0.143,0.053
			c-1.912,1.443-5.067,0.685-6.114-1.47c-1.047-2.154,0.307-5.104,2.623-5.715"/>
		<path d="M130.345,317.981c-0.417,0-0.845-0.05-1.272-0.152c-1.471-0.354-2.662-1.27-3.266-2.513s-0.589-2.745,0.042-4.12
			c0.631-1.376,1.76-2.368,3.097-2.722c0.013-0.003,0.026-0.006,0.038-0.009c0.017-0.009,0.035-0.019,0.053-0.028
			c0.812-0.39,1.84-0.216,2.621,0.453c0.593,0.51,0.941,1.178,1.246,1.82c0.291,0.609,0.566,1.226,0.827,1.849
			c0.426,1.021,0.639,1.719,0.539,2.487c-0.087,0.666-0.392,1.311-0.883,1.868c-0.088,0.099-0.198,0.175-0.322,0.221
			C132.324,317.684,131.366,317.981,130.345,317.981z M129.553,309.943c-0.06,0.034-0.127,0.063-0.197,0.081
			c-0.859,0.227-1.625,0.914-2.049,1.84c-0.424,0.924-0.446,1.951-0.058,2.75s1.21,1.417,2.199,1.655
			c0.993,0.236,2.003,0.061,2.711-0.474c0.045-0.033,0.092-0.061,0.142-0.085c0.212-0.279,0.34-0.572,0.38-0.874
			c0.042-0.321-0.013-0.666-0.429-1.661c-0.25-0.598-0.515-1.19-0.794-1.777c-0.242-0.506-0.488-0.985-0.843-1.292
			c-0.276-0.236-0.658-0.332-0.878-0.225C129.676,309.909,129.615,309.929,129.553,309.943z"/>
	</g>
	<g>
		<path fill="#FFFFFF" d="M153.977,315.952c-0.169-0.118-0.361-0.276-0.549-0.484c-0.087-0.096-0.162-0.192-0.227-0.282
			c0,0-0.321-0.492-0.301-1.117c0.02-0.627,0.39-1.055,0.957-1.694c0.368-0.415,1.102-1.223,2.355-1.754
			c0.374-0.158,0.834-0.349,1.478-0.401c0.791-0.064,1.431,0.114,1.804,0.251l0.164,0.074c1.413,0.736,2.02,2.633,1.45,4.121
			s-2.148,2.474-3.741,2.517s-3.144-0.775-4.167-1.996"/>
		<path d="M157.244,317.984c-1.334,0-2.675-0.509-3.771-1.408c-0.231-0.164-0.446-0.357-0.64-0.57
			c-0.109-0.122-0.2-0.238-0.28-0.349c-0.025-0.034-0.046-0.069-0.065-0.105c-0.134-0.232-0.413-0.803-0.389-1.511
			c0.03-0.929,0.578-1.546,1.158-2.2c0.359-0.404,1.198-1.348,2.642-1.959c0.375-0.158,0.94-0.398,1.726-0.462
			c0.726-0.058,1.446,0.041,2.145,0.296l0.216,0.096c1.785,0.927,2.606,3.224,1.871,5.139c-0.664,1.733-2.501,2.978-4.468,3.032
			C157.34,317.984,157.293,317.984,157.244,317.984z M153.856,314.718c0.912,1.06,2.22,1.718,3.489,1.661
			c1.337-0.034,2.576-0.858,3.014-2.001c0.436-1.14-0.064-2.599-1.072-3.124l-0.121-0.053c-0.427-0.155-0.922-0.216-1.412-0.183
			c-0.529,0.044-0.902,0.202-1.231,0.341c-1.111,0.47-1.758,1.198-2.069,1.547c-0.539,0.608-0.744,0.868-0.755,1.189
			C153.692,314.378,153.812,314.635,153.856,314.718z"/>
	</g>
	<g>
		<g>
			<path d="M128.609,246.856c3.095,0,3.1-4.81,0-4.81C125.513,242.046,125.508,246.856,128.609,246.856L128.609,246.856z"/>
		</g>
	</g>
	<g>
		<g>
			<path d="M155.589,245.74c0.023-0.131,0.045-0.261,0.068-0.392c0.215-1.235-0.33-2.651-1.68-2.959
				c-1.169-0.266-2.728,0.354-2.959,1.68c-0.023,0.131-0.045,0.261-0.068,0.392c-0.215,1.235,0.33,2.651,1.68,2.959
				C153.799,247.686,155.359,247.065,155.589,245.74L155.589,245.74z"/>
		</g>
	</g>
	<g>
		<g>
			<path d="M137.956,260.146c3.343,1.764,7.348,1.551,10.394-0.735c0.816-0.612,0.017-2.005-0.809-1.385
				c-2.589,1.943-5.894,2.255-8.775,0.735C137.853,258.28,137.042,259.663,137.956,260.146L137.956,260.146z"/>
		</g>
	</g>
	<g>
		
			<ellipse transform="matrix(0.1712 -0.9852 0.9852 0.1712 -143.7026 338.7831)" fill="#EFD5DF" cx="129.514" cy="254.805" rx="3.494" ry="3.56"/>
	</g>
	<g>
		
			<ellipse transform="matrix(0.1712 -0.9852 0.9852 0.1712 -122.2479 363.0715)" fill="#EFD5DF" cx="154.678" cy="254.197" rx="3.494" ry="3.56"/>
	</g>
</g>
</svg>
