<?xml version="1.0" encoding="utf-8"?>
<!-- Generator: Adobe Illustrator 22.1.0, SVG Export Plug-In . SVG Version: 6.00 Build 0)  -->
<svg version="1.1" id="Layer_1" xmlns="http://www.w3.org/2000/svg" xmlns:xlink="http://www.w3.org/1999/xlink" x="0px" y="0px"
	 width="610.283px" height="459.352px" viewBox="0 0 610.283 459.352" enable-background="new 0 0 610.283 459.352"
	 xml:space="preserve">
<g>
	<path fill="#F3BE67" d="M410.726,2c9.618,0,17.844,6.839,19.559,16.261l0.509,2.794l2.459-1.42
		c3.23-1.865,6.915-2.851,10.656-2.851c11.507,0,20.853,8.974,21.278,20.431l0.088,2.385l2.333-0.505
		c1.498-0.324,3.027-0.489,4.542-0.489c11.744,0,21.299,9.524,21.299,21.231c0,4.151-1.206,8.174-3.486,11.636l-1.3,1.973
		l2.16,0.957c8.458,3.746,13.923,12.121,13.923,21.338c0,12.871-10.505,23.343-23.418,23.343c-0.511,0-1.054-0.022-1.707-0.069
		l-2.638-0.19l0.536,2.59c0.264,1.273,0.397,2.583,0.397,3.892c0,10.542-8.605,19.119-19.182,19.119
		c-3.863,0-7.587-1.14-10.769-3.297l-2.365-1.603l-0.696,2.771c-1.982,7.885-9.069,13.392-17.234,13.392
		c-6.265,0-11.949-3.191-15.204-8.536l-1.877-3.082l-1.619,3.225c-3.035,6.046-9.126,9.801-15.897,9.801
		c-6.954,0-13.307-4.083-16.184-10.401l-1.218-2.675l-2.041,2.115c-4.192,4.345-9.824,6.737-15.859,6.737
		c-11.717,0-21.37-9.128-21.975-20.781l-0.255-4.911l-3.245,3.695c-2.848,3.242-6.944,5.102-11.24,5.102
		c-8.24,0-14.944-6.682-14.944-14.895c0-1.472,0.219-2.933,0.65-4.344l0.789-2.584h-2.702h-0.056h-0.008
		c-13.287-0.017-24.091-10.798-24.091-24.047c0-9.944,6.001-18.727,15.287-22.375l2.513-0.987l-1.676-2.116
		c-2.696-3.404-4.121-7.496-4.121-11.832c0-10.542,8.605-19.119,19.182-19.119c1.5,0,3.007,0.178,4.481,0.53l2.452,0.585
		l0.012-2.521c0.059-12.035,9.929-21.826,22.002-21.826c4.605,0,9.018,1.408,12.762,4.072l1.983,1.411l1-2.218
		C359.779,6.597,366.902,2,374.717,2c6.524,0,12.64,3.199,16.36,8.558l1.643,2.366l1.643-2.366C398.086,5.2,404.202,2,410.726,2
		 M298.464,144.202c3.251,0,6.212,2.041,7.367,5.079l0.535,1.407l1.5-0.124c0.159-0.013,0.32-0.026,0.483-0.026
		c3.179,0,5.765,2.577,5.765,5.744c0,1.196-0.371,2.346-1.072,3.325l-0.915,1.277l1.024,1.191c1.987,2.312,3.082,5.255,3.082,8.286
		c0,7.049-5.754,12.783-12.827,12.783c-6.235,0-11.543-4.443-12.619-10.563l-0.359-2.04l-2.026,0.429
		c-0.644,0.137-1.297,0.206-1.941,0.206c-5.126,0-9.296-4.156-9.296-9.263s4.17-9.263,9.296-9.263c0.597,0,1.207,0.06,1.812,0.179
		l2.113,0.415l0.259-2.137C291.121,147.171,294.482,144.202,298.464,144.202 M259.631,177.289c4.348,0,7.886,3.524,7.886,7.856
		S263.979,193,259.631,193c-4.347,0-7.883-3.524-7.883-7.855C251.748,180.813,255.284,177.289,259.631,177.289 M410.726,0
		c-7.466,0-14.054,3.729-18.005,9.418C388.772,3.729,382.182,0,374.717,0c-8.895,0-16.544,5.293-19.97,12.89
		c-3.926-2.794-8.728-4.442-13.921-4.442c-13.217,0-23.937,10.652-24.002,23.816c-1.587-0.379-3.242-0.585-4.945-0.585
		c-11.698,0-21.182,9.455-21.182,21.119c0,4.939,1.705,9.477,4.553,13.074c-9.692,3.807-16.556,13.22-16.556,24.236
		c0,14.385,11.696,26.047,26.124,26.047c0.01,0,0.021-0.001,0.031-0.001c-0.476,1.56-0.737,3.213-0.737,4.929
		c0,9.331,7.586,16.895,16.944,16.895c5.086,0,9.636-2.245,12.743-5.782c0.657,12.634,11.138,22.678,23.973,22.678
		c6.797,0,12.93-2.822,17.298-7.349c3.108,6.824,9.997,11.573,18.004,11.573c7.743,0,14.44-4.44,17.685-10.904
		c3.467,5.693,9.743,9.496,16.912,9.496c9.254,0,17.022-6.342,19.174-14.905c3.39,2.298,7.483,3.641,11.891,3.641
		c11.699,0,21.182-9.455,21.182-21.119c0-1.473-0.152-2.91-0.439-4.298c0.611,0.044,1.227,0.074,1.851,0.074
		c14.038,0,25.418-11.346,25.418-25.343c0-10.338-6.211-19.224-15.114-23.166c2.41-3.658,3.816-8.032,3.816-12.736
		c0-12.83-10.431-23.231-23.299-23.231c-1.704,0-3.364,0.187-4.965,0.534c-0.461-12.424-10.703-22.357-23.276-22.357
		c-4.247,0-8.227,1.139-11.656,3.119C430.4,7.722,421.47,0,410.726,0L410.726,0z M298.464,142.202c-5.053,0-9.215,3.784-9.805,8.664
		c-0.712-0.14-1.444-0.217-2.198-0.217c-6.238,0-11.296,5.043-11.296,11.263c0,6.221,5.058,11.263,11.296,11.263
		c0.808,0,1.597-0.088,2.356-0.249c1.22,6.939,7.28,12.217,14.589,12.217c8.189,0,14.827-6.619,14.827-14.783
		c0-3.666-1.348-7.01-3.565-9.589c0.908-1.267,1.446-2.814,1.446-4.49c0-4.277-3.477-7.744-7.765-7.744
		c-0.219,0-0.435,0.015-0.648,0.033C306.287,144.851,302.689,142.202,298.464,142.202L298.464,142.202z M259.631,175.289
		c-5.458,0-9.883,4.413-9.883,9.856s4.425,9.855,9.883,9.855c5.46,0,9.886-4.412,9.886-9.855S265.091,175.289,259.631,175.289
		L259.631,175.289z"/>
</g>
<g>
	<path fill="#1E1E1E" d="M373.941,36.8c-0.192-0.304-0.42-0.612-0.684-0.924c-0.264-0.312-0.56-0.596-0.888-0.852
		s-0.688-0.464-1.08-0.624s-0.812-0.24-1.26-0.24h-2.64v0.48c0.272,0.032,0.556,0.128,0.852,0.288s0.584,0.364,0.864,0.612
		s0.552,0.524,0.816,0.828s0.492,0.608,0.684,0.912l3.408,5.256L368.109,50h1.56l5.064-6.384l2.424,3.744
		c0.192,0.304,0.42,0.612,0.684,0.924s0.56,0.596,0.888,0.852s0.688,0.464,1.08,0.624s0.812,0.24,1.26,0.24h2.64v-0.48
		c-0.272-0.032-0.556-0.128-0.852-0.288s-0.584-0.364-0.864-0.612s-0.552-0.524-0.816-0.828s-0.492-0.608-0.684-0.912l-3.768-5.784
		l5.496-6.936h-1.56l-4.632,5.856L373.941,36.8z"/>
	<path fill="#1E1E1E" d="M391.857,46.268c-0.104,0.584-0.26,1.092-0.468,1.524c-0.208,0.432-0.472,0.768-0.792,1.008
		c-0.32,0.24-0.688,0.36-1.104,0.36c-0.416,0-0.784-0.12-1.104-0.36s-0.584-0.576-0.792-1.008c-0.208-0.432-0.364-0.94-0.468-1.524
		c-0.104-0.584-0.156-1.22-0.156-1.908s0.052-1.324,0.156-1.908s0.26-1.092,0.468-1.524c0.208-0.432,0.472-0.768,0.792-1.008
		c0.32-0.24,0.688-0.36,1.104-0.36c0.416,0,0.784,0.12,1.104,0.36s0.584,0.576,0.792,1.008c0.208,0.432,0.364,0.94,0.468,1.524
		c0.104,0.584,0.156,1.22,0.156,1.908S391.961,45.684,391.857,46.268z M384.129,46.664c0.264,0.72,0.644,1.344,1.14,1.872
		s1.1,0.944,1.812,1.248s1.516,0.456,2.412,0.456s1.7-0.152,2.412-0.456c0.712-0.304,1.316-0.72,1.812-1.248s0.876-1.152,1.14-1.872
		s0.396-1.488,0.396-2.304s-0.132-1.584-0.396-2.304s-0.644-1.344-1.14-1.872s-1.1-0.944-1.812-1.248s-1.516-0.456-2.412-0.456
		s-1.7,0.152-2.412,0.456c-0.712,0.304-1.316,0.72-1.812,1.248s-0.876,1.152-1.14,1.872s-0.396,1.488-0.396,2.304
		C383.733,45.176,383.865,45.944,384.129,46.664z"/>
	<path fill="#1E1E1E" d="M398.277,42.56c0,0.656,0.12,1.212,0.36,1.668c0.24,0.456,0.564,0.828,0.972,1.116
		c0.408,0.288,0.892,0.496,1.452,0.624c0.56,0.128,1.152,0.192,1.776,0.192c0.416,0,0.82-0.044,1.212-0.132s0.708-0.188,0.948-0.3
		V50h3.12V38.72h-3.12v5.976c-0.24,0.128-0.476,0.224-0.708,0.288s-0.532,0.096-0.9,0.096c-0.608,0-1.092-0.192-1.452-0.576
		s-0.54-1.032-0.54-1.944v-0.72c0-0.592-0.032-1.088-0.096-1.488c-0.064-0.4-0.18-0.72-0.348-0.96
		c-0.168-0.24-0.392-0.412-0.672-0.516s-0.628-0.156-1.044-0.156h-2.88v0.72h0.24c0.72,0,1.18,0.22,1.38,0.66s0.3,1.02,0.3,1.74
		L398.277,42.56L398.277,42.56z"/>
	<path fill="#1E1E1E" d="M421.725,38.72h-1.272l-2.928,7.728l-2.76-6.048c-0.272-0.592-0.68-1.06-1.224-1.404
		c-0.544-0.344-1.176-0.516-1.896-0.516h-2.112v0.48c0.96,0.112,1.704,0.752,2.232,1.92l4.32,9.456l-0.504,1.296
		c-0.176,0.464-0.376,0.844-0.6,1.14c-0.224,0.296-0.48,0.532-0.768,0.708s-0.604,0.3-0.948,0.372
		c-0.344,0.072-0.724,0.108-1.14,0.108v0.84h0.96c0.416,0,0.804-0.048,1.164-0.144c0.36-0.096,0.692-0.264,0.996-0.504
		c0.304-0.24,0.592-0.568,0.864-0.984s0.528-0.952,0.768-1.608L421.725,38.72z"/>
	<path fill="#1E1E1E" d="M335.41,81h3.12V70.8h3.84V81h3.12V69.72h-11.88v0.72h0.12c0.72,0,1.18,0.22,1.38,0.66s0.3,1.02,0.3,1.74
		L335.41,81L335.41,81z"/>
	<path fill="#1E1E1E" d="M353.83,69.6c-0.344,0.08-0.648,0.184-0.912,0.312c-0.264,0.128-0.496,0.264-0.696,0.408
		s-0.372,0.28-0.516,0.408c-0.176-0.384-0.42-0.648-0.732-0.792c-0.312-0.144-0.74-0.216-1.284-0.216h-2.376v0.72h0.24
		c0.352,0,0.64,0.056,0.864,0.168s0.392,0.276,0.504,0.492c0.112,0.216,0.188,0.472,0.228,0.768s0.06,0.62,0.06,0.972v12.72h3.12
		v-5.04c0.192,0.144,0.416,0.264,0.672,0.36c0.224,0.096,0.488,0.18,0.792,0.252s0.656,0.108,1.056,0.108
		c0.864,0,1.62-0.152,2.268-0.456s1.188-0.72,1.62-1.248s0.752-1.152,0.96-1.872c0.208-0.72,0.312-1.488,0.312-2.304
		s-0.104-1.584-0.312-2.304s-0.524-1.344-0.948-1.872s-0.952-0.944-1.584-1.248c-0.632-0.304-1.364-0.456-2.196-0.456
		C354.554,69.48,354.174,69.52,353.83,69.6z M355.546,70.92c0.288,0.24,0.524,0.576,0.708,1.008c0.184,0.432,0.316,0.94,0.396,1.524
		s0.12,1.22,0.12,1.908c0,0.688-0.04,1.324-0.12,1.908s-0.216,1.092-0.408,1.524s-0.44,0.768-0.744,1.008
		c-0.304,0.24-0.68,0.36-1.128,0.36c-0.304,0-0.58-0.036-0.828-0.108c-0.248-0.072-0.46-0.156-0.636-0.252
		c-0.208-0.096-0.4-0.216-0.576-0.36v-6.744c0-0.176-0.008-0.328-0.024-0.456s-0.04-0.248-0.072-0.36
		c-0.032-0.112-0.056-0.224-0.072-0.336c0.208-0.208,0.496-0.424,0.864-0.648s0.856-0.336,1.464-0.336
		C354.906,70.56,355.258,70.68,355.546,70.92z"/>
	<path fill="#1E1E1E" d="M363.106,81h2.88l4.32-8.28V81h3.12V69.72h-2.88l-4.32,8.28v-5.16c0-0.592-0.032-1.088-0.096-1.488
		s-0.18-0.72-0.348-0.96s-0.392-0.412-0.672-0.516s-0.628-0.156-1.044-0.156h-2.88v0.72h0.24c0.72,0,1.18,0.22,1.38,0.66
		s0.3,1.02,0.3,1.74L363.106,81L363.106,81z"/>
	<path fill="#1E1E1E" d="M389.409,69.48h-3.144l-3.12,7.464l-3.552-7.224h-2.928v11.256h1.2v-8.472L382.041,81h0.792l3.456-8.256
		v4.176c0,1.568,0.376,2.74,1.128,3.516c0.752,0.776,2,1.164,3.744,1.164V81c-0.656-0.112-1.112-0.488-1.368-1.128
		s-0.384-1.624-0.384-2.952L389.409,69.48L389.409,69.48z"/>
	<path fill="#1E1E1E" d="M396.429,79.164c-0.488-0.664-0.732-1.788-0.732-3.372h7.224c0.016-0.144,0.032-0.304,0.048-0.48
		c0.016-0.144,0.028-0.308,0.036-0.492s0.012-0.364,0.012-0.54c0-0.72-0.136-1.376-0.408-1.968s-0.644-1.096-1.116-1.512
		s-1.028-0.74-1.668-0.972c-0.64-0.232-1.336-0.348-2.088-0.348s-1.448,0.128-2.088,0.384c-0.64,0.256-1.196,0.628-1.668,1.116
		s-0.844,1.1-1.116,1.836s-0.408,1.584-0.408,2.544c0,0.848,0.128,1.628,0.384,2.34s0.624,1.332,1.104,1.86s1.06,0.94,1.74,1.236
		s1.444,0.444,2.292,0.444c0.656,0,1.228-0.08,1.716-0.24c0.488-0.16,0.912-0.364,1.272-0.612c0.36-0.248,0.664-0.52,0.912-0.816
		c0.248-0.296,0.46-0.58,0.636-0.852l-0.744-0.552c-0.416,0.56-0.884,1.032-1.404,1.416s-1.196,0.576-2.028,0.576
		C397.553,80.16,396.917,79.828,396.429,79.164z M395.697,74.712c0-0.8,0.056-1.464,0.168-1.992s0.26-0.952,0.444-1.272
		s0.4-0.548,0.648-0.684c0.248-0.136,0.508-0.204,0.78-0.204c0.304,0,0.58,0.068,0.828,0.204c0.248,0.136,0.46,0.364,0.636,0.684
		s0.316,0.744,0.42,1.272s0.156,1.192,0.156,1.992H395.697z"/>
	<path fill="#1E1E1E" d="M410.685,69.6c-0.344,0.08-0.648,0.184-0.912,0.312c-0.264,0.128-0.496,0.264-0.696,0.408
		s-0.372,0.28-0.516,0.408c-0.176-0.384-0.42-0.648-0.732-0.792c-0.312-0.144-0.74-0.216-1.284-0.216h-2.376v0.72h0.24
		c0.352,0,0.64,0.056,0.864,0.168s0.392,0.276,0.504,0.492c0.112,0.216,0.188,0.472,0.228,0.768s0.06,0.62,0.06,0.972v12.72h3.12
		v-5.04c0.192,0.144,0.416,0.264,0.672,0.36c0.224,0.096,0.488,0.18,0.792,0.252s0.656,0.108,1.056,0.108
		c0.864,0,1.62-0.152,2.268-0.456s1.188-0.72,1.62-1.248s0.752-1.152,0.96-1.872c0.208-0.72,0.312-1.488,0.312-2.304
		s-0.104-1.584-0.312-2.304s-0.524-1.344-0.948-1.872s-0.952-0.944-1.584-1.248c-0.632-0.304-1.364-0.456-2.196-0.456
		C411.408,69.48,411.029,69.52,410.685,69.6z M412.401,70.92c0.288,0.24,0.524,0.576,0.708,1.008
		c0.184,0.432,0.316,0.94,0.396,1.524s0.12,1.22,0.12,1.908c0,0.688-0.04,1.324-0.12,1.908s-0.216,1.092-0.408,1.524
		s-0.44,0.768-0.744,1.008c-0.304,0.24-0.68,0.36-1.128,0.36c-0.304,0-0.58-0.036-0.828-0.108c-0.248-0.072-0.46-0.156-0.636-0.252
		c-0.208-0.096-0.4-0.216-0.576-0.36v-6.744c0-0.176-0.008-0.328-0.024-0.456s-0.04-0.248-0.072-0.36
		c-0.032-0.112-0.056-0.224-0.072-0.336c0.208-0.208,0.496-0.424,0.864-0.648s0.856-0.336,1.464-0.336
		C411.761,70.56,412.113,70.68,412.401,70.92z"/>
	<path fill="#1E1E1E" d="M419.96,81h2.88l4.32-8.28V81h3.12V69.72h-2.88L423.08,78v-5.16c0-0.592-0.032-1.088-0.096-1.488
		s-0.18-0.72-0.348-0.96s-0.392-0.412-0.672-0.516s-0.628-0.156-1.044-0.156h-2.88v0.72h0.24c0.72,0,1.18,0.22,1.38,0.66
		s0.3,1.02,0.3,1.74L419.96,81L419.96,81z"/>
	<path fill="#1E1E1E" d="M436.328,70.8V81h3.12V70.8h3.624v-1.08h-8.664c-0.368,0-0.668,0.056-0.9,0.168s-0.412,0.256-0.54,0.432
		c-0.128,0.176-0.22,0.38-0.276,0.612s-0.084,0.468-0.084,0.708v1.68h0.72c0-0.912,0.2-1.56,0.6-1.944s0.96-0.576,1.68-0.576
		H436.328z"/>
	<path fill="#1E1E1E" d="M448.664,75.408c0.176-0.064,0.368-0.108,0.576-0.132c0.208-0.024,0.376-0.036,0.504-0.036
		c0.336,0,0.648,0.04,0.936,0.12s0.54,0.212,0.756,0.396c0.216,0.184,0.388,0.432,0.516,0.744c0.128,0.312,0.192,0.692,0.192,1.14
		c0,0.464-0.064,0.848-0.192,1.152s-0.3,0.548-0.516,0.732c-0.216,0.184-0.468,0.316-0.756,0.396c-0.288,0.08-0.6,0.12-0.936,0.12
		c-0.128,0-0.296-0.012-0.504-0.036s-0.4-0.068-0.576-0.132V75.408z M445.544,81h4.92c1.504,0,2.7-0.288,3.588-0.864
		s1.332-1.408,1.332-2.496c0-1.088-0.444-1.92-1.332-2.496c-0.888-0.576-2.084-0.864-3.588-0.864h-1.8v-1.44
		c0-0.592-0.032-1.088-0.096-1.488s-0.18-0.72-0.348-0.96s-0.392-0.412-0.672-0.516s-0.628-0.156-1.044-0.156h-2.88v0.72h0.24
		c0.72,0,1.18,0.22,1.38,0.66s0.3,1.02,0.3,1.74V81z"/>
	<path fill="#1E1E1E" d="M343.834,110.164c-0.488-0.664-0.732-1.788-0.732-3.372h7.224c0.016-0.144,0.032-0.304,0.048-0.48
		c0.016-0.144,0.028-0.308,0.036-0.492s0.012-0.364,0.012-0.54c0-0.72-0.136-1.376-0.408-1.968s-0.644-1.096-1.116-1.512
		s-1.028-0.74-1.668-0.972c-0.64-0.232-1.336-0.348-2.088-0.348s-1.448,0.128-2.088,0.384c-0.64,0.256-1.196,0.628-1.668,1.116
		s-0.844,1.1-1.116,1.836s-0.408,1.584-0.408,2.544c0,0.848,0.128,1.628,0.384,2.34s0.624,1.332,1.104,1.86s1.06,0.94,1.74,1.236
		s1.444,0.444,2.292,0.444c0.656,0,1.228-0.08,1.716-0.24c0.488-0.16,0.912-0.364,1.272-0.612c0.36-0.248,0.664-0.52,0.912-0.816
		c0.248-0.296,0.46-0.58,0.636-0.852l-0.744-0.552c-0.416,0.56-0.884,1.032-1.404,1.416s-1.196,0.576-2.028,0.576
		C344.958,111.16,344.322,110.828,343.834,110.164z M343.102,105.712c0-0.8,0.056-1.464,0.168-1.992s0.26-0.952,0.444-1.272
		s0.4-0.548,0.648-0.684c0.248-0.136,0.508-0.204,0.78-0.204c0.304,0,0.58,0.068,0.828,0.204c0.248,0.136,0.46,0.364,0.636,0.684
		s0.316,0.744,0.42,1.272s0.156,1.192,0.156,1.992H343.102z"/>
	<path fill="#1E1E1E" d="M368.326,110.92v-10.2h-3.12v10.2h-2.76v-10.2h-3.12v10.2h-2.76v-7.08c0-0.592-0.032-1.088-0.096-1.488
		s-0.18-0.72-0.348-0.96s-0.392-0.412-0.672-0.516s-0.628-0.156-1.044-0.156h-2.88v0.72h0.24c0.72,0,1.18,0.22,1.38,0.66
		s0.3,1.02,0.3,1.74V112h12.672c0.384,0,0.728,0.052,1.032,0.156c0.304,0.104,0.568,0.3,0.792,0.588
		c0.224,0.288,0.408,0.68,0.552,1.176s0.248,1.136,0.312,1.92h1.08v-4.08c0-0.24-0.08-0.44-0.24-0.6c-0.16-0.16-0.36-0.24-0.6-0.24
		H368.326z"/>
	<path fill="#1E1E1E" d="M375.297,110.164c-0.488-0.664-0.732-1.788-0.732-3.372h7.224c0.016-0.144,0.032-0.304,0.048-0.48
		c0.016-0.144,0.028-0.308,0.036-0.492s0.012-0.364,0.012-0.54c0-0.72-0.136-1.376-0.408-1.968s-0.644-1.096-1.116-1.512
		s-1.028-0.74-1.668-0.972c-0.64-0.232-1.336-0.348-2.088-0.348s-1.448,0.128-2.088,0.384c-0.64,0.256-1.196,0.628-1.668,1.116
		s-0.844,1.1-1.116,1.836s-0.408,1.584-0.408,2.544c0,0.848,0.128,1.628,0.384,2.34s0.624,1.332,1.104,1.86s1.06,0.94,1.74,1.236
		s1.444,0.444,2.292,0.444c0.656,0,1.228-0.08,1.716-0.24c0.488-0.16,0.912-0.364,1.272-0.612c0.36-0.248,0.664-0.52,0.912-0.816
		c0.248-0.296,0.46-0.58,0.636-0.852l-0.744-0.552c-0.416,0.56-0.884,1.032-1.404,1.416s-1.196,0.576-2.028,0.576
		C376.421,111.16,375.785,110.828,375.297,110.164z M374.565,105.712c0-0.8,0.056-1.464,0.168-1.992s0.26-0.952,0.444-1.272
		s0.4-0.548,0.648-0.684c0.248-0.136,0.508-0.204,0.78-0.204c0.304,0,0.58,0.068,0.828,0.204c0.248,0.136,0.46,0.364,0.636,0.684
		s0.316,0.744,0.42,1.272s0.156,1.192,0.156,1.992H374.565z"/>
	<path fill="#1E1E1E" d="M398.361,108.268c-0.104,0.584-0.26,1.092-0.468,1.524c-0.208,0.432-0.472,0.768-0.792,1.008
		c-0.32,0.24-0.688,0.36-1.104,0.36c-0.416,0-0.784-0.12-1.104-0.36s-0.584-0.576-0.792-1.008c-0.208-0.432-0.364-0.94-0.468-1.524
		c-0.104-0.584-0.156-1.22-0.156-1.908c0-0.688,0.052-1.324,0.156-1.908s0.26-1.092,0.468-1.524
		c0.208-0.432,0.472-0.768,0.792-1.008c0.32-0.24,0.688-0.36,1.104-0.36c0.416,0,0.784,0.12,1.104,0.36s0.584,0.576,0.792,1.008
		c0.208,0.432,0.364,0.94,0.468,1.524c0.104,0.584,0.156,1.22,0.156,1.908S398.465,107.684,398.361,108.268z M390.633,108.664
		c0.264,0.72,0.644,1.344,1.14,1.872s1.1,0.944,1.812,1.248s1.516,0.456,2.412,0.456s1.7-0.152,2.412-0.456
		c0.712-0.304,1.316-0.72,1.812-1.248s0.876-1.152,1.14-1.872s0.396-1.488,0.396-2.304s-0.132-1.584-0.396-2.304
		s-0.644-1.344-1.14-1.872s-1.1-0.944-1.812-1.248s-1.516-0.456-2.412-0.456s-1.7,0.152-2.412,0.456
		c-0.712,0.304-1.316,0.72-1.812,1.248s-0.876,1.152-1.14,1.872s-0.396,1.488-0.396,2.304S390.369,107.944,390.633,108.664z"/>
	<path fill="#1E1E1E" d="M406.869,110.92c0.24-0.592,0.444-1.212,0.612-1.86s0.304-1.336,0.408-2.064
		c0.104-0.728,0.18-1.52,0.228-2.376s0.072-1.796,0.072-2.82h3.384v9.12H406.869z M412.365,112c0.384,0,0.728,0.052,1.032,0.156
		c0.304,0.104,0.568,0.3,0.792,0.588c0.224,0.288,0.408,0.68,0.552,1.176s0.248,1.136,0.312,1.92h1.2v-4.08
		c0-0.24-0.08-0.44-0.24-0.6c-0.16-0.16-0.36-0.24-0.6-0.24h-0.72v-10.2h-10.68v0.72c0.384,0,0.696,0.056,0.936,0.168
		s0.424,0.264,0.552,0.456s0.212,0.42,0.252,0.684s0.06,0.548,0.06,0.852c0,1.088-0.104,2.28-0.312,3.576s-0.584,2.544-1.128,3.744
		h-0.864c-0.24,0-0.44,0.08-0.6,0.24c-0.16,0.16-0.24,0.36-0.24,0.6v4.08h1.2c0.064-0.784,0.168-1.424,0.312-1.92
		c0.144-0.496,0.328-0.888,0.552-1.176s0.488-0.484,0.792-0.588s0.648-0.156,1.032-0.156H412.365z"/>
	<path fill="#1E1E1E" d="M425.661,108.88c0,0.608,0.032,1.112,0.096,1.512s0.18,0.72,0.348,0.96s0.392,0.408,0.672,0.504
		s0.628,0.144,1.044,0.144h2.88v-0.72h-0.24c-0.72,0-1.18-0.22-1.38-0.66s-0.3-1.02-0.3-1.74v-8.16h-3.12v5.04h-3.84v-1.92
		c0-0.592-0.032-1.088-0.096-1.488s-0.18-0.72-0.348-0.96s-0.392-0.412-0.672-0.516s-0.628-0.156-1.044-0.156h-2.88v0.72h0.24
		c0.72,0,1.18,0.22,1.38,0.66s0.3,1.02,0.3,1.74V112h3.12v-5.16h3.84V108.88z"/>
	<path fill="#1E1E1E" d="M440.025,108.268c-0.104,0.584-0.26,1.092-0.468,1.524c-0.208,0.432-0.472,0.768-0.792,1.008
		c-0.32,0.24-0.688,0.36-1.104,0.36c-0.416,0-0.784-0.12-1.104-0.36s-0.584-0.576-0.792-1.008c-0.208-0.432-0.364-0.94-0.468-1.524
		c-0.104-0.584-0.156-1.22-0.156-1.908c0-0.688,0.052-1.324,0.156-1.908s0.26-1.092,0.468-1.524
		c0.208-0.432,0.472-0.768,0.792-1.008c0.32-0.24,0.688-0.36,1.104-0.36c0.416,0,0.784,0.12,1.104,0.36s0.584,0.576,0.792,1.008
		c0.208,0.432,0.364,0.94,0.468,1.524c0.104,0.584,0.156,1.22,0.156,1.908S440.128,107.684,440.025,108.268z M432.297,108.664
		c0.264,0.72,0.644,1.344,1.14,1.872s1.1,0.944,1.812,1.248s1.516,0.456,2.412,0.456s1.7-0.152,2.412-0.456
		c0.712-0.304,1.316-0.72,1.812-1.248s0.876-1.152,1.14-1.872s0.396-1.488,0.396-2.304s-0.132-1.584-0.396-2.304
		s-0.644-1.344-1.14-1.872s-1.1-0.944-1.812-1.248s-1.516-0.456-2.412-0.456s-1.7,0.152-2.412,0.456
		c-0.712,0.304-1.316,0.72-1.812,1.248s-0.876,1.152-1.14,1.872s-0.396,1.488-0.396,2.304S432.033,107.944,432.297,108.664z"/>
	<path fill="#1E1E1E" d="M449.228,96.16h-3.24l0.463,12.12h2.29L449.228,96.16z M448.652,109.816
		c-0.256-0.272-0.616-0.408-1.08-0.408s-0.824,0.136-1.08,0.408c-0.256,0.272-0.384,0.624-0.384,1.056s0.128,0.784,0.384,1.056
		s0.616,0.408,1.08,0.408s0.824-0.136,1.08-0.408c0.256-0.272,0.384-0.624,0.384-1.056S448.908,110.088,448.652,109.816z"/>
</g>
</svg>
