<?xml version="1.0" encoding="utf-8"?>
<!-- Generator: Adobe Illustrator 22.1.0, SVG Export Plug-In . SVG Version: 6.00 Build 0)  -->
<svg version="1.1" id="Layer_1" xmlns="http://www.w3.org/2000/svg" xmlns:xlink="http://www.w3.org/1999/xlink" x="0px" y="0px"
	 width="385.907px" height="485.825px" viewBox="0 0 385.907 485.825" enable-background="new 0 0 385.907 485.825"
	 xml:space="preserve">
<g>
	<path fill="#1E1E1E" d="M259.15,61.992c-0.8,1.272-1.928,1.908-3.384,1.908c-1.456,0-2.58-0.636-3.372-1.908
		c-0.792-1.272-1.188-3.076-1.188-5.412s0.396-4.14,1.188-5.412s1.916-1.908,3.372-1.908c1.456,0,2.584,0.636,3.384,1.908
		s1.2,3.076,1.2,5.412S259.95,60.72,259.15,61.992z M248.41,59.892c0.376,1.024,0.912,1.912,1.608,2.664
		c0.696,0.752,1.528,1.344,2.496,1.776s2.052,0.648,3.252,0.648c1.2,0,2.284-0.216,3.252-0.648s1.796-1.024,2.484-1.776
		c0.688-0.752,1.22-1.64,1.596-2.664c0.376-1.024,0.564-2.128,0.564-3.312s-0.188-2.288-0.564-3.312
		c-0.376-1.024-0.908-1.912-1.596-2.664c-0.688-0.752-1.516-1.344-2.484-1.776c-0.968-0.432-2.052-0.648-3.252-0.648
		c-1.2,0-2.284,0.216-3.252,0.648s-1.8,1.024-2.496,1.776c-0.696,0.752-1.232,1.64-1.608,2.664
		c-0.376,1.024-0.564,2.128-0.564,3.312C247.846,57.764,248.034,58.868,248.41,59.892z"/>
	<path fill="#1E1E1E" d="M266.926,57.06c0,0.656,0.12,1.212,0.36,1.668c0.24,0.456,0.564,0.828,0.972,1.116s0.892,0.496,1.452,0.624
		c0.56,0.128,1.152,0.192,1.776,0.192c0.416,0,0.82-0.044,1.212-0.132s0.708-0.188,0.948-0.3V64.5h3.12V53.22h-3.12v5.976
		c-0.24,0.128-0.476,0.224-0.708,0.288s-0.532,0.096-0.9,0.096c-0.608,0-1.092-0.192-1.452-0.576s-0.54-1.032-0.54-1.944v-0.72
		c0-0.592-0.032-1.088-0.096-1.488c-0.064-0.4-0.18-0.72-0.348-0.96c-0.168-0.24-0.392-0.412-0.672-0.516s-0.628-0.156-1.044-0.156
		h-2.88v0.72h0.24c0.72,0,1.18,0.22,1.38,0.66s0.3,1.02,0.3,1.74L266.926,57.06L266.926,57.06z"/>
	<path fill="#1E1E1E" d="M283.425,62.664c-0.488-0.664-0.732-1.788-0.732-3.372h7.224c0.016-0.144,0.032-0.304,0.048-0.48
		c0.016-0.144,0.028-0.308,0.036-0.492c0.008-0.184,0.012-0.364,0.012-0.54c0-0.72-0.136-1.376-0.408-1.968
		s-0.644-1.096-1.116-1.512s-1.028-0.74-1.668-0.972c-0.64-0.232-1.336-0.348-2.088-0.348s-1.448,0.128-2.088,0.384
		s-1.196,0.628-1.668,1.116c-0.472,0.488-0.844,1.1-1.116,1.836s-0.408,1.584-0.408,2.544c0,0.848,0.128,1.628,0.384,2.34
		s0.624,1.332,1.104,1.86s1.06,0.94,1.74,1.236c0.68,0.296,1.444,0.444,2.292,0.444c0.656,0,1.228-0.08,1.716-0.24
		c0.488-0.16,0.912-0.364,1.272-0.612c0.36-0.248,0.664-0.52,0.912-0.816s0.46-0.58,0.636-0.852l-0.744-0.552
		c-0.416,0.56-0.884,1.032-1.404,1.416s-1.196,0.576-2.028,0.576C284.549,63.66,283.913,63.328,283.425,62.664z M282.693,58.212
		c0-0.8,0.056-1.464,0.168-1.992s0.26-0.952,0.444-1.272s0.4-0.548,0.648-0.684c0.248-0.136,0.508-0.204,0.78-0.204
		c0.304,0,0.58,0.068,0.828,0.204c0.248,0.136,0.46,0.364,0.636,0.684s0.316,0.744,0.42,1.272s0.156,1.192,0.156,1.992
		L282.693,58.212z"/>
	<path fill="#1E1E1E" d="M299.997,61.38c0,0.608,0.032,1.112,0.096,1.512s0.18,0.72,0.348,0.96c0.168,0.24,0.392,0.408,0.672,0.504
		s0.628,0.144,1.044,0.144h2.88v-0.72h-0.24c-0.72,0-1.18-0.22-1.38-0.66s-0.3-1.02-0.3-1.74v-8.16h-3.12v5.04h-3.84v-1.92
		c0-0.592-0.032-1.088-0.096-1.488c-0.064-0.4-0.18-0.72-0.348-0.96c-0.168-0.24-0.392-0.412-0.672-0.516s-0.628-0.156-1.044-0.156
		h-2.88v0.72h0.24c0.72,0,1.18,0.22,1.38,0.66s0.3,1.02,0.3,1.74v8.16h3.12v-5.16h3.84V61.38z"/>
	<path fill="#1E1E1E" d="M310.389,58.908c0.176-0.064,0.368-0.108,0.576-0.132c0.208-0.024,0.376-0.036,0.504-0.036
		c0.336,0,0.648,0.04,0.936,0.12c0.288,0.08,0.54,0.212,0.756,0.396s0.388,0.432,0.516,0.744s0.192,0.692,0.192,1.14
		c0,0.464-0.064,0.848-0.192,1.152s-0.3,0.548-0.516,0.732s-0.468,0.316-0.756,0.396c-0.288,0.08-0.6,0.12-0.936,0.12
		c-0.128,0-0.296-0.012-0.504-0.036s-0.4-0.068-0.576-0.132V58.908z M307.269,64.5h4.92c1.504,0,2.7-0.288,3.588-0.864
		s1.332-1.408,1.332-2.496c0-1.088-0.444-1.92-1.332-2.496s-2.084-0.864-3.588-0.864h-1.8v-1.44c0-0.592-0.032-1.088-0.096-1.488
		c-0.064-0.4-0.18-0.72-0.348-0.96c-0.168-0.24-0.392-0.412-0.672-0.516s-0.628-0.156-1.044-0.156h-2.88v0.72h0.24
		c0.72,0,1.18,0.22,1.38,0.66s0.3,1.02,0.3,1.74V64.5z"/>
	<path fill="#1E1E1E" d="M234.094,93.3h3.12V83.1h3.84v10.2h3.12V82.02h-11.88v0.72h0.12c0.72,0,1.18,0.22,1.38,0.66
		c0.2,0.44,0.3,1.02,0.3,1.74L234.094,93.3L234.094,93.3z"/>
	<path fill="#1E1E1E" d="M252.514,81.9c-0.344,0.08-0.648,0.184-0.912,0.312s-0.496,0.264-0.696,0.408s-0.372,0.28-0.516,0.408
		c-0.176-0.384-0.42-0.648-0.732-0.792s-0.74-0.216-1.284-0.216h-2.376v0.72h0.24c0.352,0,0.64,0.056,0.864,0.168
		s0.392,0.276,0.504,0.492c0.112,0.216,0.188,0.472,0.228,0.768s0.06,0.62,0.06,0.972v12.72h3.12v-5.04
		c0.192,0.144,0.416,0.264,0.672,0.36c0.224,0.096,0.488,0.18,0.792,0.252s0.656,0.108,1.056,0.108c0.864,0,1.62-0.152,2.268-0.456
		c0.648-0.304,1.188-0.72,1.62-1.248s0.752-1.152,0.96-1.872c0.208-0.72,0.312-1.488,0.312-2.304s-0.104-1.584-0.312-2.304
		s-0.524-1.344-0.948-1.872s-0.952-0.944-1.584-1.248c-0.632-0.304-1.364-0.456-2.196-0.456
		C253.238,81.78,252.858,81.82,252.514,81.9z M254.23,83.22c0.288,0.24,0.524,0.576,0.708,1.008c0.184,0.432,0.316,0.94,0.396,1.524
		s0.12,1.22,0.12,1.908c0,0.688-0.04,1.324-0.12,1.908s-0.216,1.092-0.408,1.524s-0.44,0.768-0.744,1.008
		c-0.304,0.24-0.68,0.36-1.128,0.36c-0.304,0-0.58-0.036-0.828-0.108s-0.46-0.156-0.636-0.252c-0.208-0.096-0.4-0.216-0.576-0.36
		v-6.744c0-0.176-0.008-0.328-0.024-0.456s-0.04-0.248-0.072-0.36c-0.032-0.112-0.056-0.224-0.072-0.336
		c0.208-0.208,0.496-0.424,0.864-0.648s0.856-0.336,1.464-0.336C253.59,82.86,253.942,82.98,254.23,83.22z"/>
	<path fill="#1E1E1E" d="M261.79,93.3h2.88l4.32-8.28v8.28h3.12V82.02h-2.88l-4.32,8.28v-5.16c0-0.592-0.032-1.088-0.096-1.488
		s-0.18-0.72-0.348-0.96s-0.392-0.412-0.672-0.516s-0.628-0.156-1.044-0.156h-2.88v0.72h0.24c0.72,0,1.18,0.22,1.38,0.66
		s0.3,1.02,0.3,1.74L261.79,93.3L261.79,93.3z"/>
	<path fill="#1E1E1E" d="M278.913,87.096c-0.456-0.376-0.684-0.988-0.684-1.836c0-0.432,0.064-0.792,0.192-1.08
		s0.296-0.52,0.504-0.696s0.448-0.304,0.72-0.384s0.56-0.12,0.864-0.12c0.304,0,0.56,0.032,0.768,0.096s0.312,0.088,0.312,0.072
		v4.344c0-0.016-0.104,0.008-0.312,0.072c-0.208,0.064-0.464,0.096-0.768,0.096C279.901,87.66,279.369,87.472,278.913,87.096z
		 M284.709,85.14c0-0.72,0.1-1.3,0.3-1.74c0.2-0.44,0.66-0.66,1.38-0.66h0.12v-0.72h-6.24c-0.768,0-1.476,0.064-2.124,0.192
		c-0.648,0.128-1.208,0.328-1.68,0.6c-0.472,0.272-0.836,0.632-1.092,1.08s-0.384,0.984-0.384,1.608
		c0,0.784,0.248,1.452,0.744,2.004c0.496,0.552,1.168,0.892,2.016,1.02l-1.44,2.496c-0.256,0.432-0.552,0.82-0.888,1.164
		s-0.72,0.548-1.152,0.612v0.624c0.176,0.064,0.404,0.12,0.684,0.168s0.572,0.072,0.876,0.072c0.432,0,0.812-0.044,1.14-0.132
		c0.328-0.088,0.62-0.224,0.876-0.408s0.484-0.408,0.684-0.672c0.2-0.264,0.388-0.58,0.564-0.948l1.44-2.856h1.056V93.3h3.12
		L284.709,85.14L284.709,85.14z"/>
	<path fill="#1E1E1E" d="M291.189,83.1v10.2h3.12V83.1h3.624v-1.08h-8.664c-0.368,0-0.668,0.056-0.9,0.168s-0.412,0.256-0.54,0.432
		c-0.128,0.176-0.22,0.38-0.276,0.612s-0.084,0.468-0.084,0.708v1.68h0.72c0-0.912,0.2-1.56,0.6-1.944s0.96-0.576,1.68-0.576
		H291.189z"/>
	<path fill="#1E1E1E" d="M307.365,90.18c0,0.608,0.032,1.112,0.096,1.512s0.18,0.72,0.348,0.96s0.392,0.408,0.672,0.504
		s0.628,0.144,1.044,0.144h2.88v-0.72h-0.24c-0.72,0-1.18-0.22-1.38-0.66s-0.3-1.02-0.3-1.74v-8.16h-3.12v5.04h-3.84v-1.92
		c0-0.592-0.032-1.088-0.096-1.488s-0.18-0.72-0.348-0.96s-0.392-0.412-0.672-0.516s-0.628-0.156-1.044-0.156h-2.88v0.72h0.24
		c0.72,0,1.18,0.22,1.38,0.66s0.3,1.02,0.3,1.74v8.16h3.12v-5.16h3.84V90.18z"/>
	<path fill="#1E1E1E" d="M321.729,89.568c-0.104,0.584-0.26,1.092-0.468,1.524c-0.208,0.432-0.472,0.768-0.792,1.008
		c-0.32,0.24-0.688,0.36-1.104,0.36c-0.416,0-0.784-0.12-1.104-0.36s-0.584-0.576-0.792-1.008c-0.208-0.432-0.364-0.94-0.468-1.524
		c-0.104-0.584-0.156-1.22-0.156-1.908c0-0.688,0.052-1.324,0.156-1.908s0.26-1.092,0.468-1.524
		c0.208-0.432,0.472-0.768,0.792-1.008c0.32-0.24,0.688-0.36,1.104-0.36c0.416,0,0.784,0.12,1.104,0.36s0.584,0.576,0.792,1.008
		c0.208,0.432,0.364,0.94,0.468,1.524c0.104,0.584,0.156,1.22,0.156,1.908S321.833,88.984,321.729,89.568z M314.001,89.964
		c0.264,0.72,0.644,1.344,1.14,1.872s1.1,0.944,1.812,1.248s1.516,0.456,2.412,0.456s1.7-0.152,2.412-0.456
		c0.712-0.304,1.316-0.72,1.812-1.248s0.876-1.152,1.14-1.872s0.396-1.488,0.396-2.304s-0.132-1.584-0.396-2.304
		s-0.644-1.344-1.14-1.872s-1.1-0.944-1.812-1.248s-1.516-0.456-2.412-0.456s-1.7,0.152-2.412,0.456
		c-0.712,0.304-1.316,0.72-1.812,1.248s-0.876,1.152-1.14,1.872s-0.396,1.488-0.396,2.304S313.737,89.244,314.001,89.964z"/>
	<path fill="#1E1E1E" d="M330.933,77.46h-3.24l0.463,12.12h2.29L330.933,77.46z M330.357,91.116
		c-0.256-0.272-0.616-0.408-1.08-0.408s-0.824,0.136-1.08,0.408c-0.256,0.272-0.384,0.624-0.384,1.056s0.128,0.784,0.384,1.056
		s0.616,0.408,1.08,0.408s0.824-0.136,1.08-0.408c0.256-0.272,0.384-0.624,0.384-1.056S330.612,91.388,330.357,91.116z"/>
</g>
<g>
	<path fill="#F3BE67" d="M297.731,2c8.753,0,16.24,6.259,17.801,14.882l0.508,2.804l2.464-1.43c2.941-1.707,6.295-2.609,9.7-2.609
		c10.478,0,18.988,8.219,19.376,18.711l0.088,2.388l2.335-0.508c1.364-0.297,2.755-0.447,4.134-0.447
		c10.695,0,19.395,8.723,19.395,19.444c0,3.804-1.099,7.49-3.177,10.66l-1.29,1.967l2.149,0.957
		c7.71,3.432,12.692,11.109,12.692,19.557c0,11.796-9.573,21.393-21.341,21.393c-0.463,0-0.958-0.02-1.557-0.063l-2.637-0.19
		l0.535,2.59c0.24,1.164,0.362,2.363,0.362,3.563c0,9.647-7.828,17.495-17.451,17.495c-3.512,0-6.898-1.042-9.793-3.014l-2.37-1.615
		l-0.696,2.783c-1.803,7.209-8.246,12.243-15.668,12.243c-5.694,0-10.86-2.917-13.818-7.802l-1.879-3.104l-1.621,3.246
		c-2.759,5.526-8.296,8.959-14.451,8.959c-6.32,0-12.094-3.732-14.711-9.508l-1.219-2.691l-2.045,2.131
		c-3.817,3.978-8.946,6.168-14.442,6.168c-10.672,0-19.465-8.362-20.016-19.036l-0.255-4.931l-3.249,3.719
		c-2.583,2.957-6.299,4.653-10.195,4.653c-7.477,0-13.56-6.099-13.56-13.596c0-1.345,0.198-2.68,0.59-3.968l0.785-2.582h-2.699
		h-0.052h-0.007c-12.111-0.017-21.957-9.899-21.957-22.043c0-9.118,5.471-17.169,13.937-20.512l2.5-0.987l-1.663-2.111
		c-2.455-3.116-3.752-6.861-3.752-10.831c0-9.647,7.828-17.495,17.451-17.495c1.364,0,2.735,0.163,4.075,0.485l2.454,0.589
		l0.012-2.524c0.054-11.024,9.044-19.994,20.041-19.994c4.193,0,8.211,1.289,11.621,3.727l1.988,1.422l1-2.23
		C251.073,6.207,257.554,2,264.664,2c5.936,0,11.502,2.927,14.889,7.83l1.646,2.382l1.646-2.382C286.231,4.927,291.796,2,297.731,2
		 M194.643,133.263c2.917,0,5.573,1.843,6.611,4.586l0.533,1.411l1.503-0.125c0.142-0.012,0.285-0.023,0.43-0.023
		c2.829,0,5.131,2.309,5.131,5.148c0,1.073-0.331,2.105-0.957,2.984l-0.906,1.272l1.015,1.187c1.802,2.108,2.794,4.79,2.794,7.552
		c0,6.422-5.211,11.646-11.615,11.646c-5.645,0-10.451-4.046-11.426-9.622l-0.357-2.043l-2.029,0.432
		c-0.58,0.124-1.169,0.186-1.748,0.186c-4.617,0-8.373-3.767-8.373-8.397s3.756-8.397,8.373-8.397c0.538,0,1.086,0.055,1.63,0.162
		l2.116,0.418l0.258-2.142C188.052,135.945,191.069,133.263,194.643,133.263 M158.984,163.805c3.902,0,7.077,3.184,7.077,7.098
		S162.886,178,158.984,178s-7.077-3.184-7.077-7.097C151.907,166.989,155.082,163.805,158.984,163.805 M297.731,0
		c-6.854,0-12.905,3.442-16.532,8.693C277.571,3.442,271.521,0,264.664,0c-8.167,0-15.192,4.886-18.336,11.898
		c-3.606-2.578-8.016-4.101-12.784-4.101c-12.138,0-21.981,9.833-22.041,21.984c-1.457-0.35-2.977-0.54-4.542-0.54
		c-10.742,0-19.451,8.728-19.451,19.495c0,4.559,1.566,8.749,4.181,12.068c-8.901,3.514-15.203,12.203-15.203,22.372
		c0,13.279,10.74,24.043,23.989,24.043c0.009,0,0.019-0.001,0.028-0.001c-0.438,1.44-0.677,2.966-0.677,4.549
		c0,8.613,6.966,15.596,15.56,15.596c4.67,0,8.849-2.072,11.701-5.338c0.603,11.663,10.228,20.933,22.014,20.933
		c6.242,0,11.874-2.605,15.885-6.783c2.854,6.299,9.181,10.682,16.533,10.682c7.11,0,13.262-4.099,16.241-10.065
		c3.182,5.255,8.946,8.766,15.529,8.766c8.499,0,15.631-5.854,17.608-13.758c3.113,2.121,6.872,3.361,10.919,3.361
		c10.743,0,19.451-8.728,19.451-19.495c0-1.359-0.139-2.686-0.404-3.967c0.562,0.041,1.128,0.068,1.701,0.068
		c12.891,0,23.341-10.474,23.341-23.393c0-9.543-5.704-17.745-13.879-21.384c2.214-3.377,3.505-7.415,3.505-11.757
		c0-11.843-9.579-21.444-21.395-21.444c-1.566,0-3.089,0.173-4.559,0.493c-0.423-11.469-9.829-20.637-21.374-20.637
		c-3.9,0-7.555,1.051-10.704,2.879C315.798,7.128,307.597,0,297.731,0L297.731,0z M194.643,131.263
		c-4.641,0-8.463,3.493-9.004,7.998c-0.653-0.129-1.327-0.2-2.018-0.2c-5.73,0-10.373,4.655-10.373,10.397
		s4.643,10.397,10.373,10.397c0.743,0,1.466-0.081,2.164-0.23c1.121,6.405,6.684,11.277,13.396,11.277
		c7.52,0,13.615-6.11,13.615-13.646c0-3.384-1.238-6.47-3.274-8.852c0.833-1.17,1.328-2.598,1.328-4.145
		c0-3.948-3.193-7.148-7.131-7.148c-0.201,0-0.398,0.014-0.596,0.03C201.826,133.709,198.524,131.263,194.643,131.263
		L194.643,131.263z M158.984,161.805c-5.013,0-9.077,4.073-9.077,9.098c0,5.024,4.064,9.097,9.077,9.097s9.077-4.073,9.077-9.097
		C168.061,165.878,163.997,161.805,158.984,161.805L158.984,161.805z"/>
</g>
</svg>
