<?xml version="1.0" encoding="utf-8"?>
<!-- Generator: Adobe Illustrator 22.1.0, SVG Export Plug-In . SVG Version: 6.00 Build 0)  -->
<svg version="1.1" id="Layer_1" xmlns="http://www.w3.org/2000/svg" xmlns:xlink="http://www.w3.org/1999/xlink" x="0px" y="0px"
	 width="465.395px" height="575.556px" viewBox="0 0 465.395 575.556" enable-background="new 0 0 465.395 575.556"
	 xml:space="preserve">
<g>
	<path fill="#1E1E1E" d="M247.191,99.5h2.88l6.96-12.72V99.5h3.12V83.66h-2.88l-6.96,12.72v-9.6c0-0.592-0.032-1.088-0.096-1.488
		s-0.18-0.72-0.348-0.96c-0.168-0.24-0.392-0.412-0.672-0.516s-0.628-0.156-1.044-0.156h-2.88v0.72h0.24c0.72,0,1.18,0.22,1.38,0.66
		c0.2,0.44,0.3,1.02,0.3,1.74L247.191,99.5L247.191,99.5z"/>
	<path fill="#1E1E1E" d="M279.063,98.42v-10.2h-3.12v10.2h-2.76v-10.2h-3.12v10.2h-2.76v-7.08c0-0.592-0.032-1.088-0.096-1.488
		s-0.18-0.72-0.348-0.96s-0.392-0.412-0.672-0.516s-0.628-0.156-1.044-0.156h-2.88v0.72h0.24c0.72,0,1.18,0.22,1.38,0.66
		s0.3,1.02,0.3,1.74v8.16h12.672c0.384,0,0.728,0.052,1.032,0.156c0.304,0.104,0.568,0.3,0.792,0.588
		c0.224,0.288,0.408,0.68,0.552,1.176s0.248,1.136,0.312,1.92h1.08v-4.08c0-0.24-0.08-0.44-0.24-0.6c-0.16-0.16-0.36-0.24-0.6-0.24
		H279.063z"/>
	<path fill="#1E1E1E" d="M292.982,88.22h-1.272l-2.928,7.728l-2.76-6.048c-0.272-0.592-0.68-1.06-1.224-1.404
		s-1.176-0.516-1.896-0.516h-2.112v0.48c0.96,0.112,1.704,0.752,2.232,1.92l4.32,9.456l-0.504,1.296
		c-0.176,0.464-0.376,0.844-0.6,1.14s-0.48,0.532-0.768,0.708s-0.604,0.3-0.948,0.372s-0.724,0.108-1.14,0.108v0.84h0.96
		c0.416,0,0.804-0.048,1.164-0.144c0.36-0.096,0.692-0.264,0.996-0.504c0.304-0.24,0.592-0.568,0.864-0.984s0.528-0.952,0.768-1.608
		L292.982,88.22z"/>
	<path fill="#1E1E1E" d="M309.05,89.852c0.568,0.528,0.884,1.304,0.948,2.328h0.72c0-0.912-0.024-1.624-0.072-2.136
		s-0.224-0.92-0.528-1.224c-0.304-0.304-0.772-0.52-1.404-0.648c-0.632-0.128-1.404-0.192-2.316-0.192c-0.96,0-1.8,0.156-2.52,0.468
		c-0.72,0.312-1.32,0.736-1.8,1.272c-0.48,0.536-0.84,1.16-1.08,1.872s-0.36,1.468-0.36,2.268c0,0.8,0.12,1.556,0.36,2.268
		s0.6,1.336,1.08,1.872c0.48,0.536,1.08,0.96,1.8,1.272s1.56,0.468,2.52,0.468c0.688,0,1.284-0.08,1.788-0.24
		c0.504-0.16,0.94-0.364,1.308-0.612s0.676-0.52,0.924-0.816c0.248-0.296,0.46-0.58,0.636-0.852l-0.744-0.552
		c-0.416,0.56-0.884,1.032-1.404,1.416s-1.196,0.576-2.028,0.576c-2,0-3-1.6-3-4.8c0-1.632,0.268-2.84,0.804-3.624
		c0.536-0.784,1.228-1.176,2.076-1.176C307.718,89.06,308.482,89.324,309.05,89.852z"/>
	<path fill="#1E1E1E" d="M319.718,97.012c-0.128,0.307-0.288,0.574-0.48,0.8c-0.176,0.194-0.388,0.372-0.636,0.534
		c-0.248,0.162-0.556,0.242-0.924,0.242c-0.48,0-0.86-0.174-1.14-0.521c-0.28-0.348-0.42-0.861-0.42-1.54
		c0-0.857,0.252-1.495,0.756-1.916c0.504-0.42,1.332-0.631,2.484-0.631h0.36L319.718,97.012L319.718,97.012z M315.746,88.16
		c-0.664,0.12-1.14,0.34-1.428,0.66c-0.288,0.32-0.46,0.696-0.516,1.128s-0.084,0.856-0.084,1.272h1.32
		c0.096-0.448,0.224-0.812,0.384-1.092c0.16-0.28,0.344-0.5,0.552-0.66s0.436-0.268,0.684-0.324s0.508-0.084,0.78-0.084
		c0.72,0,1.28,0.28,1.68,0.84s0.6,1.56,0.6,3h-0.36c-1.296,0-2.36,0.08-3.192,0.24c-0.832,0.16-1.492,0.396-1.98,0.708
		s-0.828,0.688-1.02,1.128c-0.192,0.44-0.288,0.948-0.288,1.524c0,0.96,0.348,1.74,1.044,2.34s1.708,0.9,3.036,0.9
		c0.512,0,0.952-0.064,1.32-0.192s0.664-0.28,0.888-0.456c0.272-0.192,0.496-0.416,0.672-0.672h0.12l0.84,1.08h2.04v-6.48
		c0-1.696-0.428-2.96-1.284-3.792s-2.068-1.248-3.636-1.248C317.134,87.98,316.41,88.04,315.746,88.16z"/>
	<path fill="#1E1E1E" d="M338.63,87.98h-3.144l-3.12,7.464l-3.552-7.224h-2.928v11.256h1.2v-8.472l4.176,8.496h0.792l3.456-8.256
		v4.176c0,1.568,0.376,2.74,1.128,3.516c0.752,0.776,2,1.164,3.744,1.164v-0.6c-0.656-0.112-1.112-0.488-1.368-1.128
		s-0.384-1.624-0.384-2.952L338.63,87.98L338.63,87.98z"/>
	<path fill="#1E1E1E" d="M349.777,95.768c-0.104,0.584-0.26,1.092-0.468,1.524c-0.208,0.432-0.472,0.768-0.792,1.008
		c-0.32,0.24-0.688,0.36-1.104,0.36c-0.416,0-0.784-0.12-1.104-0.36s-0.584-0.576-0.792-1.008c-0.208-0.432-0.364-0.94-0.468-1.524
		c-0.104-0.584-0.156-1.22-0.156-1.908c0-0.688,0.052-1.324,0.156-1.908s0.26-1.092,0.468-1.524
		c0.208-0.432,0.472-0.768,0.792-1.008c0.32-0.24,0.688-0.36,1.104-0.36c0.416,0,0.784,0.12,1.104,0.36s0.584,0.576,0.792,1.008
		c0.208,0.432,0.364,0.94,0.468,1.524c0.104,0.584,0.156,1.22,0.156,1.908S349.881,95.184,349.777,95.768z M342.049,96.164
		c0.264,0.72,0.644,1.344,1.14,1.872s1.1,0.944,1.812,1.248s1.516,0.456,2.412,0.456s1.7-0.152,2.412-0.456
		c0.712-0.304,1.316-0.72,1.812-1.248s0.876-1.152,1.14-1.872s0.396-1.488,0.396-2.304s-0.132-1.584-0.396-2.304
		s-0.644-1.344-1.14-1.872s-1.1-0.944-1.812-1.248s-1.516-0.456-2.412-0.456s-1.7,0.152-2.412,0.456
		c-0.712,0.304-1.316,0.72-1.812,1.248s-0.876,1.152-1.14,1.872s-0.396,1.488-0.396,2.304S341.785,95.444,342.049,96.164z"/>
	<path fill="#1E1E1E" d="M359.257,97.664c-0.488-0.664-0.732-1.788-0.732-3.372h7.224c0.016-0.144,0.032-0.304,0.048-0.48
		c0.016-0.144,0.028-0.308,0.036-0.492s0.012-0.364,0.012-0.54c0-0.72-0.136-1.376-0.408-1.968s-0.644-1.096-1.116-1.512
		s-1.028-0.74-1.668-0.972c-0.64-0.232-1.336-0.348-2.088-0.348s-1.448,0.128-2.088,0.384c-0.64,0.256-1.196,0.628-1.668,1.116
		s-0.844,1.1-1.116,1.836s-0.408,1.584-0.408,2.544c0,0.848,0.128,1.628,0.384,2.34s0.624,1.332,1.104,1.86s1.06,0.94,1.74,1.236
		s1.444,0.444,2.292,0.444c0.656,0,1.228-0.08,1.716-0.24c0.488-0.16,0.912-0.364,1.272-0.612c0.36-0.248,0.664-0.52,0.912-0.816
		c0.248-0.296,0.46-0.58,0.636-0.852l-0.744-0.552c-0.416,0.56-0.884,1.032-1.404,1.416s-1.196,0.576-2.028,0.576
		C360.381,98.66,359.745,98.328,359.257,97.664z M358.525,93.212c0-0.8,0.056-1.464,0.168-1.992s0.26-0.952,0.444-1.272
		s0.4-0.548,0.648-0.684c0.248-0.136,0.508-0.204,0.78-0.204c0.304,0,0.58,0.068,0.828,0.204c0.248,0.136,0.46,0.364,0.636,0.684
		s0.316,0.744,0.42,1.272s0.156,1.192,0.156,1.992H358.525z"/>
	<path fill="#1E1E1E" d="M216.328,126.62c0.528,0.72,1.088,1.22,1.68,1.5c0.592,0.28,1.224,0.42,1.896,0.42
		c0.304,0,0.624-0.024,0.96-0.072c0.336-0.048,0.568-0.104,0.696-0.168v-0.576c-0.336-0.08-0.688-0.264-1.056-0.552
		s-0.76-0.712-1.176-1.272l-3.192-4.224l2.328-2.832c0.352-0.416,0.72-0.72,1.104-0.912s0.816-0.288,1.296-0.288v-0.624h-0.48
		c-0.416,0-0.788,0.04-1.116,0.12s-0.624,0.2-0.888,0.36s-0.512,0.356-0.744,0.588c-0.232,0.232-0.468,0.492-0.708,0.78
		l-2.904,3.552v-2.28c0-0.592-0.032-1.088-0.096-1.488s-0.18-0.72-0.348-0.96s-0.392-0.412-0.672-0.516s-0.628-0.156-1.044-0.156
		h-2.88v0.72h0.24c0.72,0,1.18,0.22,1.38,0.66c0.2,0.44,0.3,1.02,0.3,1.74v8.16h3.12v-4.704L216.328,126.62z"/>
	<path fill="#1E1E1E" d="M228.483,116.9c-0.344,0.08-0.648,0.184-0.912,0.312s-0.496,0.264-0.696,0.408s-0.372,0.28-0.516,0.408
		c-0.176-0.384-0.42-0.648-0.732-0.792s-0.74-0.216-1.284-0.216h-2.376v0.72h0.24c0.352,0,0.64,0.056,0.864,0.168
		s0.392,0.276,0.504,0.492c0.112,0.216,0.188,0.472,0.228,0.768s0.06,0.62,0.06,0.972v12.72h3.12v-5.04
		c0.192,0.144,0.416,0.264,0.672,0.36c0.224,0.096,0.488,0.18,0.792,0.252s0.656,0.108,1.056,0.108c0.864,0,1.62-0.152,2.268-0.456
		c0.648-0.304,1.188-0.72,1.62-1.248c0.432-0.528,0.752-1.152,0.96-1.872c0.208-0.72,0.312-1.488,0.312-2.304
		s-0.104-1.584-0.312-2.304s-0.524-1.344-0.948-1.872s-0.952-0.944-1.584-1.248s-1.364-0.456-2.196-0.456
		C229.207,116.78,228.827,116.82,228.483,116.9z M230.199,118.22c0.288,0.24,0.524,0.576,0.708,1.008
		c0.184,0.432,0.316,0.94,0.396,1.524s0.12,1.22,0.12,1.908c0,0.688-0.04,1.324-0.12,1.908s-0.216,1.092-0.408,1.524
		s-0.44,0.768-0.744,1.008c-0.304,0.24-0.68,0.36-1.128,0.36c-0.304,0-0.58-0.036-0.828-0.108s-0.46-0.156-0.636-0.252
		c-0.208-0.096-0.4-0.216-0.576-0.36v-6.744c0-0.176-0.008-0.328-0.024-0.456s-0.04-0.248-0.072-0.36
		c-0.032-0.112-0.056-0.224-0.072-0.336c0.208-0.208,0.496-0.424,0.864-0.648s0.856-0.336,1.464-0.336
		C229.559,117.86,229.911,117.98,230.199,118.22z"/>
	<path fill="#1E1E1E" d="M243.399,125.812c-0.128,0.308-0.288,0.574-0.48,0.8c-0.176,0.194-0.388,0.372-0.636,0.534
		c-0.248,0.162-0.556,0.242-0.924,0.242c-0.48,0-0.86-0.174-1.14-0.521c-0.28-0.348-0.42-0.861-0.42-1.54
		c0-0.857,0.252-1.495,0.756-1.916c0.504-0.42,1.332-0.631,2.484-0.631h0.36V125.812z M239.427,116.96
		c-0.664,0.12-1.14,0.34-1.428,0.66c-0.288,0.32-0.46,0.696-0.516,1.128s-0.084,0.856-0.084,1.272h1.32
		c0.096-0.448,0.224-0.812,0.384-1.092c0.16-0.28,0.344-0.5,0.552-0.66c0.208-0.16,0.436-0.268,0.684-0.324s0.508-0.084,0.78-0.084
		c0.72,0,1.28,0.28,1.68,0.84s0.6,1.56,0.6,3h-0.36c-1.296,0-2.36,0.08-3.192,0.24c-0.832,0.16-1.492,0.396-1.98,0.708
		c-0.488,0.312-0.828,0.688-1.02,1.128c-0.192,0.44-0.288,0.948-0.288,1.524c0,0.96,0.348,1.74,1.044,2.34s1.708,0.9,3.036,0.9
		c0.512,0,0.952-0.064,1.32-0.192c0.368-0.128,0.664-0.28,0.888-0.456c0.272-0.192,0.496-0.416,0.672-0.672h0.12l0.84,1.08h2.04
		v-6.48c0-1.696-0.428-2.96-1.284-3.792s-2.068-1.248-3.636-1.248C240.815,116.78,240.091,116.84,239.427,116.96z"/>
	<path fill="#1E1E1E" d="M257.403,118.652c0.568,0.528,0.884,1.304,0.948,2.328h0.72c0-0.912-0.024-1.624-0.072-2.136
		s-0.224-0.92-0.528-1.224c-0.304-0.304-0.772-0.52-1.404-0.648c-0.632-0.128-1.404-0.192-2.316-0.192c-0.96,0-1.8,0.156-2.52,0.468
		c-0.72,0.312-1.32,0.736-1.8,1.272s-0.84,1.16-1.08,1.872s-0.36,1.468-0.36,2.268c0,0.8,0.12,1.556,0.36,2.268
		s0.6,1.336,1.08,1.872s1.08,0.96,1.8,1.272c0.72,0.312,1.56,0.468,2.52,0.468c0.688,0,1.284-0.08,1.788-0.24
		s0.94-0.364,1.308-0.612s0.676-0.52,0.924-0.816c0.248-0.296,0.46-0.58,0.636-0.852l-0.744-0.552
		c-0.416,0.56-0.884,1.032-1.404,1.416s-1.196,0.576-2.028,0.576c-2,0-3-1.6-3-4.8c0-1.632,0.268-2.84,0.804-3.624
		c0.536-0.784,1.228-1.176,2.076-1.176C256.071,117.86,256.835,118.124,257.403,118.652z"/>
	<path fill="#1E1E1E" d="M262.431,128.3h2.88l4.32-8.28v8.28h3.12v-11.28h-2.88l-4.32,8.28v-5.16c0-0.592-0.032-1.088-0.096-1.488
		s-0.18-0.72-0.348-0.96s-0.392-0.412-0.672-0.516s-0.628-0.156-1.044-0.156h-2.88v0.72h0.24c0.72,0,1.18,0.22,1.38,0.66
		s0.3,1.02,0.3,1.74L262.431,128.3L262.431,128.3z"/>
	<path fill="#1E1E1E" d="M281.246,118.088c0.24,0.072,0.46,0.188,0.66,0.348c0.2,0.16,0.36,0.36,0.48,0.6s0.18,0.528,0.18,0.864
		c0,0.608-0.228,1.08-0.684,1.416s-0.988,0.504-1.596,0.504h-0.84v-3.672c0.176-0.064,0.368-0.108,0.576-0.132
		c0.208-0.024,0.376-0.036,0.504-0.036C280.766,117.98,281.006,118.016,281.246,118.088z M276.326,128.3h4.632
		c1.696,0,3.008-0.248,3.936-0.744s1.392-1.288,1.392-2.376c0-0.784-0.332-1.408-0.996-1.872c-0.664-0.464-1.508-0.76-2.532-0.888
		c0.96-0.128,1.708-0.4,2.244-0.816c0.536-0.416,0.804-0.984,0.804-1.704c0-0.96-0.448-1.68-1.344-2.16s-2.064-0.72-3.504-0.72
		h-6.432v0.72h0.12c0.72,0,1.18,0.22,1.38,0.66s0.3,1.02,0.3,1.74L276.326,128.3L276.326,128.3z M280.022,127.304
		c-0.208-0.024-0.4-0.068-0.576-0.132V122.9h0.84c0.848,0,1.52,0.188,2.016,0.564s0.744,0.948,0.744,1.716
		c0,0.72-0.24,1.26-0.72,1.62s-1.08,0.54-1.8,0.54C280.398,127.34,280.23,127.328,280.022,127.304z"/>
	<path fill="#1E1E1E" d="M296.474,124.568c-0.104,0.584-0.26,1.092-0.468,1.524c-0.208,0.432-0.472,0.768-0.792,1.008
		c-0.32,0.24-0.688,0.36-1.104,0.36c-0.416,0-0.784-0.12-1.104-0.36s-0.584-0.576-0.792-1.008c-0.208-0.432-0.364-0.94-0.468-1.524
		c-0.104-0.584-0.156-1.22-0.156-1.908c0-0.688,0.052-1.324,0.156-1.908s0.26-1.092,0.468-1.524
		c0.208-0.432,0.472-0.768,0.792-1.008c0.32-0.24,0.688-0.36,1.104-0.36c0.416,0,0.784,0.12,1.104,0.36s0.584,0.576,0.792,1.008
		c0.208,0.432,0.364,0.94,0.468,1.524c0.104,0.584,0.156,1.22,0.156,1.908C296.63,123.348,296.578,123.984,296.474,124.568z
		 M288.746,124.964c0.264,0.72,0.644,1.344,1.14,1.872s1.1,0.944,1.812,1.248s1.516,0.456,2.412,0.456s1.7-0.152,2.412-0.456
		c0.712-0.304,1.316-0.72,1.812-1.248s0.876-1.152,1.14-1.872s0.396-1.488,0.396-2.304s-0.132-1.584-0.396-2.304
		s-0.644-1.344-1.14-1.872s-1.1-0.944-1.812-1.248s-1.516-0.456-2.412-0.456s-1.7,0.152-2.412,0.456
		c-0.712,0.304-1.316,0.72-1.812,1.248s-0.876,1.152-1.14,1.872s-0.396,1.488-0.396,2.304S288.482,124.244,288.746,124.964z"/>
	<path fill="#1E1E1E" d="M305.954,126.464c-0.488-0.664-0.732-1.788-0.732-3.372h7.224c0.016-0.144,0.032-0.304,0.048-0.48
		c0.016-0.144,0.028-0.308,0.036-0.492s0.012-0.364,0.012-0.54c0-0.72-0.136-1.376-0.408-1.968s-0.644-1.096-1.116-1.512
		s-1.028-0.74-1.668-0.972c-0.64-0.232-1.336-0.348-2.088-0.348s-1.448,0.128-2.088,0.384c-0.64,0.256-1.196,0.628-1.668,1.116
		s-0.844,1.1-1.116,1.836s-0.408,1.584-0.408,2.544c0,0.848,0.128,1.628,0.384,2.34s0.624,1.332,1.104,1.86s1.06,0.94,1.74,1.236
		c0.68,0.296,1.444,0.444,2.292,0.444c0.656,0,1.228-0.08,1.716-0.24s0.912-0.364,1.272-0.612c0.36-0.248,0.664-0.52,0.912-0.816
		c0.248-0.296,0.46-0.58,0.636-0.852l-0.744-0.552c-0.416,0.56-0.884,1.032-1.404,1.416s-1.196,0.576-2.028,0.576
		C307.078,127.46,306.442,127.128,305.954,126.464z M305.222,122.012c0-0.8,0.056-1.464,0.168-1.992s0.26-0.952,0.444-1.272
		s0.4-0.548,0.648-0.684c0.248-0.136,0.508-0.204,0.78-0.204c0.304,0,0.58,0.068,0.828,0.204c0.248,0.136,0.46,0.364,0.636,0.684
		s0.316,0.744,0.42,1.272s0.156,1.192,0.156,1.992H305.222z"/>
	<path fill="#1E1E1E" d="M321.805,128.3h3.12v-10.2h3.84v10.2h3.12v-11.28h-11.88v0.72h0.12c0.72,0,1.18,0.22,1.38,0.66
		s0.3,1.02,0.3,1.74L321.805,128.3L321.805,128.3z"/>
	<path fill="#1E1E1E" d="M339.349,118.1h3.384v10.2h3.12v-11.28h-10.8v0.72c0.384,0,0.692,0.056,0.924,0.168
		c0.232,0.112,0.416,0.264,0.552,0.456c0.136,0.192,0.224,0.42,0.264,0.684s0.06,0.548,0.06,0.852c0,1.568-0.08,2.844-0.24,3.828
		s-0.376,1.76-0.648,2.328s-0.592,0.976-0.96,1.224c-0.368,0.248-0.76,0.404-1.176,0.468v0.696c0.128,0.048,0.336,0.096,0.624,0.144
		s0.56,0.072,0.816,0.072c0.592,0,1.14-0.152,1.644-0.456s0.936-0.8,1.296-1.488c0.36-0.688,0.64-1.592,0.84-2.712
		c0.2-1.12,0.3-2.488,0.3-4.104L339.349,118.1L339.349,118.1z"/>
	<path fill="#1E1E1E" d="M355.189,125.812c-0.128,0.308-0.288,0.574-0.48,0.8c-0.176,0.194-0.388,0.372-0.636,0.534
		c-0.248,0.162-0.556,0.242-0.924,0.242c-0.48,0-0.86-0.174-1.14-0.521c-0.28-0.348-0.42-0.861-0.42-1.54
		c0-0.857,0.252-1.495,0.756-1.916c0.504-0.42,1.332-0.631,2.484-0.631h0.36L355.189,125.812L355.189,125.812z M351.217,116.96
		c-0.664,0.12-1.14,0.34-1.428,0.66c-0.288,0.32-0.46,0.696-0.516,1.128s-0.084,0.856-0.084,1.272h1.32
		c0.096-0.448,0.224-0.812,0.384-1.092c0.16-0.28,0.344-0.5,0.552-0.66s0.436-0.268,0.684-0.324s0.508-0.084,0.78-0.084
		c0.72,0,1.28,0.28,1.68,0.84s0.6,1.56,0.6,3h-0.36c-1.296,0-2.36,0.08-3.192,0.24c-0.832,0.16-1.492,0.396-1.98,0.708
		s-0.828,0.688-1.02,1.128c-0.192,0.44-0.288,0.948-0.288,1.524c0,0.96,0.348,1.74,1.044,2.34s1.708,0.9,3.036,0.9
		c0.512,0,0.952-0.064,1.32-0.192s0.664-0.28,0.888-0.456c0.272-0.192,0.496-0.416,0.672-0.672h0.12l0.84,1.08h2.04v-6.48
		c0-1.696-0.428-2.96-1.284-3.792s-2.068-1.248-3.636-1.248C352.605,116.78,351.88,116.84,351.217,116.96z"/>
	<path fill="#1E1E1E" d="M364.164,118.1v10.2h3.12v-10.2h3.624v-1.08h-8.664c-0.368,0-0.668,0.056-0.9,0.168
		s-0.412,0.256-0.54,0.432c-0.128,0.176-0.22,0.38-0.276,0.612s-0.084,0.468-0.084,0.708v1.68h0.72c0-0.912,0.2-1.56,0.6-1.944
		s0.96-0.576,1.68-0.576C363.444,118.1,364.164,118.1,364.164,118.1z"/>
	<path fill="#1E1E1E" d="M376.5,122.708c0.176-0.064,0.368-0.108,0.576-0.132c0.208-0.024,0.376-0.036,0.504-0.036
		c0.336,0,0.648,0.04,0.936,0.12s0.54,0.212,0.756,0.396c0.216,0.184,0.388,0.432,0.516,0.744c0.128,0.312,0.192,0.692,0.192,1.14
		c0,0.464-0.064,0.848-0.192,1.152s-0.3,0.548-0.516,0.732c-0.216,0.184-0.468,0.316-0.756,0.396c-0.288,0.08-0.6,0.12-0.936,0.12
		c-0.128,0-0.296-0.012-0.504-0.036s-0.4-0.068-0.576-0.132V122.708z M373.38,128.3h4.92c1.504,0,2.7-0.288,3.588-0.864
		s1.332-1.408,1.332-2.496c0-1.088-0.444-1.92-1.332-2.496c-0.888-0.576-2.084-0.864-3.588-0.864h-1.8v-1.44
		c0-0.592-0.032-1.088-0.096-1.488s-0.18-0.72-0.348-0.96s-0.392-0.412-0.672-0.516s-0.628-0.156-1.044-0.156h-2.88v0.72h0.24
		c0.72,0,1.18,0.22,1.38,0.66s0.3,1.02,0.3,1.74V128.3z"/>
	<path fill="#1E1E1E" d="M388.92,126.464c-0.488-0.664-0.732-1.788-0.732-3.372h7.224c0.016-0.144,0.032-0.304,0.048-0.48
		c0.016-0.144,0.028-0.308,0.036-0.492s0.012-0.364,0.012-0.54c0-0.72-0.136-1.376-0.408-1.968s-0.644-1.096-1.116-1.512
		s-1.028-0.74-1.668-0.972c-0.64-0.232-1.336-0.348-2.088-0.348s-1.448,0.128-2.088,0.384c-0.64,0.256-1.196,0.628-1.668,1.116
		s-0.844,1.1-1.116,1.836s-0.408,1.584-0.408,2.544c0,0.848,0.128,1.628,0.384,2.34s0.624,1.332,1.104,1.86s1.06,0.94,1.74,1.236
		c0.68,0.296,1.444,0.444,2.292,0.444c0.656,0,1.228-0.08,1.716-0.24s0.912-0.364,1.272-0.612c0.36-0.248,0.664-0.52,0.912-0.816
		c0.248-0.296,0.46-0.58,0.636-0.852l-0.744-0.552c-0.416,0.56-0.884,1.032-1.404,1.416s-1.196,0.576-2.028,0.576
		C390.044,127.46,389.408,127.128,388.92,126.464z M388.188,122.012c0-0.8,0.056-1.464,0.168-1.992s0.26-0.952,0.444-1.272
		s0.4-0.548,0.648-0.684c0.248-0.136,0.508-0.204,0.78-0.204c0.304,0,0.58,0.068,0.828,0.204c0.248,0.136,0.46,0.364,0.636,0.684
		s0.316,0.744,0.42,1.272s0.156,1.192,0.156,1.992H388.188z"/>
	<path fill="#1E1E1E" d="M401.22,112.46h-3.24l0.463,12.12h2.29L401.22,112.46z M400.644,126.116
		c-0.256-0.272-0.616-0.408-1.08-0.408s-0.824,0.136-1.08,0.408c-0.256,0.272-0.384,0.624-0.384,1.056s0.128,0.784,0.384,1.056
		s0.616,0.408,1.08,0.408s0.824-0.136,1.08-0.408c0.256-0.272,0.384-0.624,0.384-1.056S400.899,126.388,400.644,126.116z"/>
</g>
<g>
	<path fill="#F3BE67" d="M329.396,2c14.025,0,26.021,10.004,28.523,23.788l0.508,2.799l2.462-1.425
		C365.591,24.439,370.953,23,376.395,23c16.747,0,30.351,13.104,30.971,29.832l0.089,2.387l2.335-0.507
		c2.178-0.473,4.401-0.713,6.607-0.713c17.093,0,31,13.907,31,31c0,6.061-1.756,11.937-5.077,16.994l-1.294,1.969l2.153,0.957
		c12.282,5.455,20.218,17.655,20.218,31.08c0,18.748-15.253,34-34,34c-0.744,0-1.532-0.032-2.479-0.1l-2.638-0.19l0.536,2.59
		c0.386,1.867,0.582,3.785,0.582,5.7c0,15.439-12.561,28-28,28c-5.638,0-11.073-1.669-15.718-4.827l-2.368-1.61l-0.696,2.778
		c-2.903,11.576-13.273,19.66-25.22,19.66c-9.164,0-17.479-4.683-22.241-12.528l-1.878-3.094l-1.62,3.236
		c-4.441,8.873-13.354,14.385-23.26,14.385c-10.173,0-19.468-5.992-23.68-15.266l-1.219-2.684l-2.043,2.125
		c-6.094,6.336-14.282,9.825-23.057,9.825c-17.04,0-31.076-13.317-31.956-30.317l-0.255-4.923l-3.247,3.709
		c-4.191,4.786-10.22,7.531-16.542,7.531c-12.131,0-22.001-9.869-22.001-22c0-2.174,0.322-4.333,0.958-6.418l0.788-2.583h-2.701
		L179.379,163h-0.011c-19.286-0.015-34.972-15.71-34.972-35c0-14.475,8.707-27.258,22.182-32.567l2.505-0.987l-1.669-2.113
		c-3.937-4.986-6.018-10.98-6.018-17.333c0-15.439,12.56-28,27.999-28c2.188,0,4.388,0.261,6.539,0.776l2.453,0.587l0.013-2.522
		C198.486,28.284,212.84,14,230.396,14c6.694,0,13.111,2.053,18.556,5.938l1.986,1.417l1-2.225C256.614,8.724,267,2,278.396,2
		c9.511,0,18.428,4.679,23.855,12.517l1.644,2.375l1.644-2.375C310.966,6.679,319.885,2,329.396,2 M170.397,204
		c4.946,0,9.452,3.117,11.211,7.755l0.534,1.409l1.502-0.125c0.247-0.021,0.509-0.039,0.752-0.039c4.963,0,9.001,4.037,9.001,9
		c0,1.875-0.58,3.679-1.677,5.216l-0.909,1.274l1.018,1.189c2.946,3.438,4.568,7.814,4.568,12.321c0,10.477-8.523,19-19,19
		c-9.236,0-17.097-6.603-18.693-15.7l-0.358-2.041l-2.027,0.43c-0.972,0.206-1.955,0.31-2.923,0.31c-7.72,0-14-6.28-14-14
		s6.28-14,14-14c0.9,0,1.817,0.091,2.726,0.27l2.114,0.417l0.258-2.139C159.219,208.534,164.336,204,170.397,204 M115.396,251
		c6.617,0,12,5.383,12,12s-5.383,12-12,12s-12-5.383-12-12C103.395,256.383,108.779,251,115.396,251 M329.396,0
		c-10.573,0-19.905,5.297-25.501,13.378C298.3,5.297,288.969,0,278.396,0c-12.597,0-23.433,7.519-28.283,18.31
		c-5.561-3.968-12.364-6.31-19.717-6.31c-18.72,0-33.904,15.131-33.996,33.831c-2.247-0.538-4.59-0.831-7.005-0.831
		c-16.568,0-29.999,13.432-29.999,30c0,7.015,2.415,13.463,6.449,18.572C152.118,98.98,142.396,112.35,142.396,128
		c0,20.434,16.565,37,37,37c0.014,0,0.03-0.001,0.045-0.001c-0.676,2.216-1.045,4.565-1.045,7.001c0,13.255,10.745,24,24.001,24
		c7.203,0,13.647-3.189,18.047-8.214C221.372,205.734,236.218,220,254.396,220c9.628,0,18.314-4.008,24.499-10.439
		c4.403,9.694,14.161,16.439,25.501,16.439c10.966,0,20.453-6.308,25.049-15.49c4.91,8.087,13.799,13.49,23.951,13.49
		c13.108,0,24.11-9.009,27.158-21.173c4.801,3.264,10.599,5.172,16.842,5.172c16.568,0,30-13.431,30-30
		c0-2.092-0.216-4.134-0.624-6.105c0.867,0.063,1.74,0.105,2.623,0.105c19.881,0,36-16.118,36-36
		c0-14.685-8.798-27.308-21.406-32.908c3.414-5.196,5.406-11.41,5.406-18.092c0-18.225-14.774-33-33-33
		c-2.415,0-4.766,0.266-7.032,0.758C408.711,35.109,394.205,21,376.395,21c-6.016,0-11.65,1.618-16.508,4.431
		C357.262,10.97,344.614,0,329.396,0L329.396,0z M170.397,202c-7.158,0-13.052,5.375-13.888,12.308
		c-1.007-0.199-2.047-0.308-3.113-0.308c-8.837,0-16,7.163-16,16s7.162,16,16,16c1.145,0,2.26-0.125,3.338-0.354
		c1.729,9.857,10.31,17.354,20.663,17.354c11.597,0,21-9.402,21-21c0-5.207-1.909-9.957-5.049-13.622
		c1.285-1.8,2.049-3.998,2.049-6.378c0-6.075-4.925-11-11.001-11c-0.31,0-0.615,0.021-0.918,0.046
		C181.474,205.763,176.38,202,170.397,202L170.397,202z M115.396,249c-7.732,0-14,6.268-14,14s6.268,14,14,14s14-6.268,14-14
		C129.396,255.268,123.128,249,115.396,249L115.396,249z"/>
</g>
</svg>
