<?xml version="1.0" encoding="utf-8"?>
<!-- Generator: Adobe Illustrator 22.1.0, SVG Export Plug-In . SVG Version: 6.00 Build 0)  -->
<svg version="1.1" id="Layer_1" xmlns="http://www.w3.org/2000/svg" xmlns:xlink="http://www.w3.org/1999/xlink" x="0px" y="0px"
	 width="687.139px" height="546.799px" viewBox="0 0 687.139 546.799" enable-background="new 0 0 687.139 546.799"
	 xml:space="preserve">
<g>
	<g>
		<path fill="#F2BD67" d="M489.889,2c10.772,0,19.984,7.65,21.905,18.189l0.509,2.792l2.458-1.418
			c3.615-2.085,7.74-3.188,11.926-3.188c12.878,0,23.339,10.032,23.815,22.839l0.089,2.385l2.333-0.504
			c1.676-0.362,3.386-0.546,5.083-0.546c13.144,0,23.838,10.646,23.838,23.733c0,4.64-1.35,9.137-3.903,13.006l-1.303,1.974
			l2.163,0.957c9.459,4.184,15.57,13.539,15.57,23.832c0,14.376-11.748,26.072-26.187,26.072c-0.573,0-1.18-0.025-1.91-0.077
			l-2.641-0.19l0.539,2.592c0.296,1.423,0.446,2.888,0.446,4.354c0,11.796-9.639,21.394-21.488,21.394
			c-4.329,0-8.501-1.276-12.067-3.69l-2.364-1.601l-0.697,2.769c-2.222,8.831-10.168,14.998-19.324,14.998
			c-7.024,0-13.397-3.574-17.046-9.56l-1.876-3.078l-1.618,3.221c-3.402,6.771-10.232,10.976-17.825,10.976
			c-7.797,0-14.92-4.572-18.147-11.649l-1.218-2.672l-2.04,2.112c-4.69,4.856-10.991,7.53-17.743,7.53
			c-13.109,0-23.909-10.201-24.587-23.224l-0.255-4.906l-3.244,3.69c-3.199,3.639-7.802,5.726-12.629,5.726
			c-9.258,0-16.79-7.498-16.79-16.715c0-1.653,0.246-3.292,0.73-4.873l0.757-2.585h-2.704c-14.871,0-26.969-12.046-26.969-26.852
			c0-11.105,6.708-20.912,17.09-24.984l2.516-0.987l-1.679-2.118c-3.021-3.809-4.617-8.387-4.617-13.24
			c0-11.797,9.64-21.394,21.489-21.394c1.68,0,3.369,0.2,5.02,0.593l2.451,0.584l0.013-2.52
			c0.067-13.449,11.111-24.391,24.619-24.391c5.151,0,10.089,1.574,14.28,4.551l1.982,1.408l1-2.216
			C433.227,7.142,441.203,2,449.957,2c7.307,0,14.157,3.579,18.323,9.574l1.642,2.362l1.642-2.362
			C475.733,5.579,482.583,2,489.889,2 M365.397,159.516c3.696,0,7.06,2.317,8.372,5.765l0.535,1.406l1.5-0.124
			c0.184-0.015,0.368-0.029,0.555-0.029c3.646,0,6.613,2.951,6.613,6.578c0,1.369-0.426,2.686-1.231,3.808l-0.916,1.278l1.026,1.192
			c2.238,2.601,3.47,5.91,3.47,9.318c0,7.927-6.479,14.375-14.443,14.375c-7.021,0-12.997-4.996-14.208-11.879l-0.359-2.038
			l-2.024,0.428c-0.731,0.154-1.472,0.233-2.2,0.233c-5.804,0-10.526-4.7-10.526-10.477s4.722-10.476,10.526-10.476
			c0.677,0,1.367,0.068,2.052,0.203l2.112,0.414l0.259-2.136C357.049,162.886,360.87,159.516,365.397,159.516 M322.333,196.166
			c4.942,0,8.962,4,8.962,8.917c0,4.917-4.02,8.917-8.962,8.917c-4.942,0-8.962-4-8.962-8.917
			C313.371,200.166,317.391,196.166,322.333,196.166 M489.889,0c-8.279,0-15.585,4.131-19.966,10.432
			C465.542,4.131,458.236,0,449.957,0c-9.863,0-18.347,5.863-22.143,14.278c-4.356-3.094-9.681-4.921-15.438-4.921
			c-14.658,0-26.546,11.799-26.619,26.381c-1.76-0.419-3.594-0.648-5.484-0.648c-12.973,0-23.489,10.474-23.489,23.394
			c0,5.47,1.891,10.498,5.05,14.482c-10.749,4.217-18.359,14.643-18.359,26.846c0,15.934,12.97,28.852,28.969,28.852
			c0.011,0,0.023-0.001,0.035-0.001c-0.529,1.728-0.818,3.559-0.818,5.459c0,10.336,8.413,18.715,18.79,18.715
			c5.641,0,10.686-2.487,14.131-6.405c0.728,13.995,12.352,25.12,26.584,25.12c7.538,0,14.339-3.126,19.182-8.14
			c3.447,7.559,11.088,12.819,19.966,12.819c8.585,0,16.014-4.919,19.612-12.078c3.844,6.306,10.805,10.519,18.754,10.519
			c10.264,0,18.877-7.025,21.264-16.51c3.759,2.545,8.298,4.034,13.188,4.034c12.971,0,23.488-10.474,23.488-23.394
			c0-1.631-0.168-3.224-0.488-4.761c0.679,0.049,1.362,0.082,2.053,0.082c15.567,0,28.187-12.568,28.187-28.072
			c0-11.451-6.89-21.294-16.761-25.661c2.674-4.052,4.233-8.897,4.233-14.108c0-14.212-11.568-25.733-25.838-25.733
			c-1.89,0-3.73,0.208-5.505,0.591c-0.512-13.762-11.869-24.765-25.813-24.765c-4.711,0-9.123,1.262-12.925,3.455
			C511.706,8.554,501.804,0,489.889,0L489.889,0z M365.397,157.516c-5.605,0-10.219,4.192-10.874,9.597
			c-0.789-0.155-1.603-0.24-2.437-0.24c-6.918,0-12.526,5.586-12.526,12.476s5.608,12.477,12.526,12.477
			c0.897,0,1.77-0.098,2.614-0.276c1.353,7.686,8.073,13.532,16.178,13.532c9.08,0,16.443-7.332,16.443-16.375
			c0-4.061-1.495-7.764-3.954-10.622c1.007-1.404,1.605-3.118,1.605-4.974c0-4.737-3.857-8.578-8.613-8.578
			c-0.243,0-0.482,0.016-0.72,0.036C374.071,160.451,370.082,157.516,365.397,157.516L365.397,157.516z M322.333,194.166
			c-6.054,0-10.962,4.888-10.962,10.917S316.279,216,322.333,216c6.053,0,10.962-4.888,10.962-10.917
			S328.387,194.166,322.333,194.166L322.333,194.166z"/>
	</g>
	<g>
		<path fill="#1E1E1E" d="M408.134,75h2.88l6.96-12.72V75h3.12V59.16h-2.88l-6.96,12.72v-9.6c0-0.592-0.032-1.088-0.096-1.488
			c-0.064-0.4-0.18-0.72-0.348-0.96c-0.168-0.24-0.392-0.412-0.672-0.516s-0.628-0.156-1.044-0.156h-2.88v0.72h0.24
			c0.72,0,1.18,0.22,1.38,0.66s0.3,1.02,0.3,1.74L408.134,75L408.134,75z"/>
		<path fill="#1E1E1E" d="M437.414,63.48h-3.144l-3.12,7.464l-3.552-7.224h-2.928v11.256h1.2v-8.472L430.046,75h0.792l3.456-8.256
			v4.176c0,1.568,0.376,2.74,1.128,3.516c0.752,0.776,2,1.164,3.744,1.164V75c-0.656-0.112-1.112-0.488-1.368-1.128
			s-0.384-1.624-0.384-2.952L437.414,63.48L437.414,63.48z"/>
		<path fill="#1E1E1E" d="M444.434,73.164c-0.488-0.664-0.732-1.788-0.732-3.372h7.224c0.016-0.144,0.032-0.304,0.048-0.48
			c0.016-0.144,0.028-0.308,0.036-0.492s0.012-0.364,0.012-0.54c0-0.72-0.136-1.376-0.408-1.968s-0.644-1.096-1.116-1.512
			s-1.028-0.74-1.668-0.972c-0.64-0.232-1.336-0.348-2.088-0.348s-1.448,0.128-2.088,0.384s-1.196,0.628-1.668,1.116
			s-0.844,1.1-1.116,1.836s-0.408,1.584-0.408,2.544c0,0.848,0.128,1.628,0.384,2.34s0.624,1.332,1.104,1.86s1.06,0.94,1.74,1.236
			s1.444,0.444,2.292,0.444c0.656,0,1.228-0.08,1.716-0.24c0.488-0.16,0.912-0.364,1.272-0.612c0.36-0.248,0.664-0.52,0.912-0.816
			c0.248-0.296,0.46-0.58,0.636-0.852l-0.744-0.552c-0.416,0.56-0.884,1.032-1.404,1.416s-1.196,0.576-2.028,0.576
			C445.558,74.16,444.922,73.828,444.434,73.164z M443.702,68.712c0-0.8,0.056-1.464,0.168-1.992s0.26-0.952,0.444-1.272
			s0.4-0.548,0.648-0.684c0.248-0.136,0.508-0.204,0.78-0.204c0.304,0,0.58,0.068,0.828,0.204c0.248,0.136,0.46,0.364,0.636,0.684
			s0.316,0.744,0.42,1.272s0.156,1.192,0.156,1.992H443.702z"/>
		<path fill="#1E1E1E" d="M461.005,71.88c0,0.608,0.032,1.112,0.096,1.512s0.18,0.72,0.348,0.96s0.392,0.408,0.672,0.504
			S462.749,75,463.165,75h2.88v-0.72h-0.24c-0.72,0-1.18-0.22-1.38-0.66s-0.3-1.02-0.3-1.74v-8.16h-3.12v5.04h-3.84v-1.92
			c0-0.592-0.032-1.088-0.096-1.488s-0.18-0.72-0.348-0.96s-0.392-0.412-0.672-0.516s-0.628-0.156-1.044-0.156h-2.88v0.72h0.24
			c0.72,0,1.18,0.22,1.38,0.66s0.3,1.02,0.3,1.74V75h3.12v-5.16h3.84V71.88z"/>
		<path fill="#1E1E1E" d="M475.237,71.88c0,0.608,0.032,1.112,0.096,1.512s0.18,0.72,0.348,0.96s0.392,0.408,0.672,0.504
			S476.981,75,477.397,75h2.88v-0.72h-0.24c-0.72,0-1.18-0.22-1.38-0.66s-0.3-1.02-0.3-1.74v-8.16h-3.12v5.04h-3.84v-1.92
			c0-0.592-0.032-1.088-0.096-1.488s-0.18-0.72-0.348-0.96s-0.392-0.412-0.672-0.516s-0.628-0.156-1.044-0.156h-2.88v0.72h0.24
			c0.72,0,1.18,0.22,1.38,0.66s0.3,1.02,0.3,1.74V75h3.12v-5.16h3.84V71.88z"/>
		<path fill="#1E1E1E" d="M489.601,71.268c-0.104,0.584-0.26,1.092-0.468,1.524c-0.208,0.432-0.472,0.768-0.792,1.008
			c-0.32,0.24-0.688,0.36-1.104,0.36c-0.416,0-0.784-0.12-1.104-0.36s-0.584-0.576-0.792-1.008c-0.208-0.432-0.364-0.94-0.468-1.524
			c-0.104-0.584-0.156-1.22-0.156-1.908c0-0.688,0.052-1.324,0.156-1.908s0.26-1.092,0.468-1.524
			c0.208-0.432,0.472-0.768,0.792-1.008c0.32-0.24,0.688-0.36,1.104-0.36c0.416,0,0.784,0.12,1.104,0.36s0.584,0.576,0.792,1.008
			c0.208,0.432,0.364,0.94,0.468,1.524c0.104,0.584,0.156,1.22,0.156,1.908C489.757,70.048,489.705,70.684,489.601,71.268z
			 M481.873,71.664c0.264,0.72,0.644,1.344,1.14,1.872s1.1,0.944,1.812,1.248s1.516,0.456,2.412,0.456s1.7-0.152,2.412-0.456
			c0.712-0.304,1.316-0.72,1.812-1.248s0.876-1.152,1.14-1.872s0.396-1.488,0.396-2.304s-0.132-1.584-0.396-2.304
			s-0.644-1.344-1.14-1.872s-1.1-0.944-1.812-1.248s-1.516-0.456-2.412-0.456s-1.7,0.152-2.412,0.456
			c-0.712,0.304-1.316,0.72-1.812,1.248s-0.876,1.152-1.14,1.872s-0.396,1.488-0.396,2.304S481.609,70.944,481.873,71.664z"/>
		<path fill="#1E1E1E" d="M504.829,64.8V75h3.12V64.8h3.624v-1.08h-8.664c-0.368,0-0.668,0.056-0.9,0.168s-0.412,0.256-0.54,0.432
			c-0.128,0.176-0.22,0.38-0.276,0.612s-0.084,0.468-0.084,0.708v1.68h0.72c0-0.912,0.2-1.56,0.6-1.944s0.96-0.576,1.68-0.576
			H504.829z"/>
		<path fill="#1E1E1E" d="M520.801,71.268c-0.104,0.584-0.26,1.092-0.468,1.524s-0.472,0.768-0.792,1.008
			c-0.32,0.24-0.688,0.36-1.104,0.36s-0.784-0.12-1.104-0.36s-0.584-0.576-0.792-1.008c-0.208-0.432-0.364-0.94-0.468-1.524
			s-0.156-1.22-0.156-1.908c0-0.688,0.052-1.324,0.156-1.908s0.26-1.092,0.468-1.524s0.472-0.768,0.792-1.008
			c0.32-0.24,0.688-0.36,1.104-0.36s0.784,0.12,1.104,0.36s0.584,0.576,0.792,1.008c0.208,0.432,0.364,0.94,0.468,1.524
			s0.156,1.22,0.156,1.908C520.957,70.048,520.904,70.684,520.801,71.268z M513.073,71.664c0.264,0.72,0.644,1.344,1.14,1.872
			c0.496,0.528,1.1,0.944,1.812,1.248c0.712,0.304,1.516,0.456,2.412,0.456s1.7-0.152,2.412-0.456s1.316-0.72,1.812-1.248
			c0.496-0.528,0.876-1.152,1.14-1.872c0.264-0.72,0.396-1.488,0.396-2.304s-0.132-1.584-0.396-2.304s-0.644-1.344-1.14-1.872
			c-0.496-0.528-1.1-0.944-1.812-1.248c-0.712-0.304-1.516-0.456-2.412-0.456s-1.7,0.152-2.412,0.456s-1.316,0.72-1.812,1.248
			c-0.496,0.528-0.876,1.152-1.14,1.872s-0.396,1.488-0.396,2.304S512.809,70.944,513.073,71.664z"/>
		<path fill="#1E1E1E" d="M528.468,75.264c0,0.352-0.064,0.684-0.192,0.996c-0.128,0.312-0.292,0.596-0.492,0.852
			s-0.416,0.48-0.648,0.672c-0.232,0.192-0.444,0.352-0.636,0.48l0.432,0.576c1.024-0.672,1.74-1.372,2.148-2.1
			s0.612-1.548,0.612-2.46c0-0.48-0.132-0.912-0.396-1.296c-0.264-0.384-0.66-0.576-1.188-0.576c-0.464,0-0.824,0.136-1.08,0.408
			c-0.256,0.272-0.384,0.624-0.384,1.056s0.128,0.784,0.384,1.056s0.616,0.408,1.08,0.408L528.468,75.264z"/>
		<path fill="#1E1E1E" d="M383.955,102.268c-0.104,0.584-0.26,1.092-0.468,1.524c-0.208,0.432-0.472,0.768-0.792,1.008
			c-0.32,0.24-0.688,0.36-1.104,0.36c-0.416,0-0.784-0.12-1.104-0.36s-0.584-0.576-0.792-1.008c-0.208-0.432-0.364-0.94-0.468-1.524
			c-0.104-0.584-0.156-1.22-0.156-1.908c0-0.688,0.052-1.324,0.156-1.908s0.26-1.092,0.468-1.524
			c0.208-0.432,0.472-0.768,0.792-1.008c0.32-0.24,0.688-0.36,1.104-0.36c0.416,0,0.784,0.12,1.104,0.36s0.584,0.576,0.792,1.008
			c0.208,0.432,0.364,0.94,0.468,1.524c0.104,0.584,0.156,1.22,0.156,1.908S384.059,101.684,383.955,102.268z M376.227,102.664
			c0.264,0.72,0.644,1.344,1.14,1.872s1.1,0.944,1.812,1.248s1.516,0.456,2.412,0.456s1.7-0.152,2.412-0.456
			c0.712-0.304,1.316-0.72,1.812-1.248s0.876-1.152,1.14-1.872s0.396-1.488,0.396-2.304s-0.132-1.584-0.396-2.304
			s-0.644-1.344-1.14-1.872s-1.1-0.944-1.812-1.248s-1.516-0.456-2.412-0.456s-1.7,0.152-2.412,0.456
			c-0.712,0.304-1.316,0.72-1.812,1.248s-0.876,1.152-1.14,1.872s-0.396,1.488-0.396,2.304S375.963,101.944,376.227,102.664z"/>
		<path fill="#1E1E1E" d="M396.951,98.56c0,0.656,0.12,1.212,0.36,1.668s0.564,0.828,0.972,1.116
			c0.408,0.288,0.892,0.496,1.452,0.624s1.152,0.192,1.776,0.192c0.416,0,0.82-0.044,1.212-0.132c0.392-0.088,0.708-0.188,0.948-0.3
			V106h3.12V94.72h-3.12v5.976c-0.24,0.128-0.476,0.224-0.708,0.288s-0.532,0.096-0.9,0.096c-0.608,0-1.092-0.192-1.452-0.576
			c-0.36-0.384-0.54-1.032-0.54-1.944v-0.72c0-0.592-0.032-1.088-0.096-1.488s-0.18-0.72-0.348-0.96s-0.392-0.412-0.672-0.516
			s-0.628-0.156-1.044-0.156h-2.88v0.72h0.24c0.72,0,1.18,0.22,1.38,0.66s0.3,1.02,0.3,1.74L396.951,98.56L396.951,98.56z"/>
		<path fill="#1E1E1E" d="M413.45,104.164c-0.488-0.664-0.732-1.788-0.732-3.372h7.224c0.016-0.144,0.032-0.304,0.048-0.48
			c0.016-0.144,0.028-0.308,0.036-0.492s0.012-0.364,0.012-0.54c0-0.72-0.136-1.376-0.408-1.968s-0.644-1.096-1.116-1.512
			s-1.028-0.74-1.668-0.972c-0.64-0.232-1.336-0.348-2.088-0.348s-1.448,0.128-2.088,0.384c-0.64,0.256-1.196,0.628-1.668,1.116
			s-0.844,1.1-1.116,1.836s-0.408,1.584-0.408,2.544c0,0.848,0.128,1.628,0.384,2.34s0.624,1.332,1.104,1.86s1.06,0.94,1.74,1.236
			s1.444,0.444,2.292,0.444c0.656,0,1.228-0.08,1.716-0.24c0.488-0.16,0.912-0.364,1.272-0.612c0.36-0.248,0.664-0.52,0.912-0.816
			c0.248-0.296,0.46-0.58,0.636-0.852l-0.744-0.552c-0.416,0.56-0.884,1.032-1.404,1.416s-1.196,0.576-2.028,0.576
			C414.574,105.16,413.938,104.828,413.45,104.164z M412.718,99.712c0-0.8,0.056-1.464,0.168-1.992s0.26-0.952,0.444-1.272
			s0.4-0.548,0.648-0.684c0.248-0.136,0.508-0.204,0.78-0.204c0.304,0,0.58,0.068,0.828,0.204c0.248,0.136,0.46,0.364,0.636,0.684
			s0.316,0.744,0.42,1.272s0.156,1.192,0.156,1.992H412.718z"/>
		<path fill="#1E1E1E" d="M435.35,94.48h-3.144l-3.12,7.464l-3.552-7.224h-2.928v11.256h1.2v-8.472l4.176,8.496h0.792l3.456-8.256
			v4.176c0,1.568,0.376,2.74,1.128,3.516c0.752,0.776,2,1.164,3.744,1.164V106c-0.656-0.112-1.112-0.488-1.368-1.128
			s-0.384-1.624-0.384-2.952L435.35,94.48L435.35,94.48z"/>
		<path fill="#1E1E1E" d="M448.874,99.796c-0.456-0.376-0.684-0.988-0.684-1.836c0-0.432,0.064-0.792,0.192-1.08
			s0.296-0.52,0.504-0.696s0.448-0.304,0.72-0.384s0.56-0.12,0.864-0.12c0.304,0,0.56,0.032,0.768,0.096s0.312,0.088,0.312,0.072
			v4.344c0-0.016-0.104,0.008-0.312,0.072c-0.208,0.064-0.464,0.096-0.768,0.096C449.862,100.36,449.33,100.172,448.874,99.796z
			 M454.67,97.84c0-0.72,0.1-1.3,0.3-1.74c0.2-0.44,0.66-0.66,1.38-0.66h0.12v-0.72h-6.24c-0.768,0-1.476,0.064-2.124,0.192
			c-0.648,0.128-1.208,0.328-1.68,0.6c-0.472,0.272-0.836,0.632-1.092,1.08s-0.384,0.984-0.384,1.608
			c0,0.784,0.248,1.452,0.744,2.004c0.496,0.552,1.168,0.892,2.016,1.02l-1.44,2.496c-0.256,0.432-0.552,0.82-0.888,1.164
			s-0.72,0.548-1.152,0.612v0.624c0.176,0.064,0.404,0.12,0.684,0.168s0.572,0.072,0.876,0.072c0.432,0,0.812-0.044,1.14-0.132
			c0.328-0.088,0.62-0.224,0.876-0.408s0.484-0.408,0.684-0.672c0.2-0.264,0.388-0.58,0.564-0.948l1.44-2.856h1.056V106h3.12
			L454.67,97.84L454.67,97.84z"/>
		<path fill="#1E1E1E" d="M477.446,94.48h-3.144l-3.12,7.464l-3.552-7.224h-2.928v11.256h1.2v-8.472l4.176,8.496h0.792l3.456-8.256
			v4.176c0,1.568,0.376,2.74,1.128,3.516c0.752,0.776,2,1.164,3.744,1.164V106c-0.656-0.112-1.112-0.488-1.368-1.128
			s-0.384-1.624-0.384-2.952L477.446,94.48L477.446,94.48z"/>
		<path fill="#1E1E1E" d="M484.465,104.164c-0.488-0.664-0.732-1.788-0.732-3.372h7.224c0.016-0.144,0.032-0.304,0.048-0.48
			c0.016-0.144,0.028-0.308,0.036-0.492s0.012-0.364,0.012-0.54c0-0.72-0.136-1.376-0.408-1.968s-0.644-1.096-1.116-1.512
			s-1.028-0.74-1.668-0.972c-0.64-0.232-1.336-0.348-2.088-0.348s-1.448,0.128-2.088,0.384c-0.64,0.256-1.196,0.628-1.668,1.116
			s-0.844,1.1-1.116,1.836s-0.408,1.584-0.408,2.544c0,0.848,0.128,1.628,0.384,2.34s0.624,1.332,1.104,1.86s1.06,0.94,1.74,1.236
			s1.444,0.444,2.292,0.444c0.656,0,1.228-0.08,1.716-0.24c0.488-0.16,0.912-0.364,1.272-0.612c0.36-0.248,0.664-0.52,0.912-0.816
			c0.248-0.296,0.46-0.58,0.636-0.852l-0.744-0.552c-0.416,0.56-0.884,1.032-1.404,1.416s-1.196,0.576-2.028,0.576
			C485.589,105.16,484.953,104.828,484.465,104.164z M483.733,99.712c0-0.8,0.056-1.464,0.168-1.992s0.26-0.952,0.444-1.272
			s0.4-0.548,0.648-0.684c0.248-0.136,0.508-0.204,0.78-0.204c0.304,0,0.58,0.068,0.828,0.204c0.248,0.136,0.46,0.364,0.636,0.684
			s0.316,0.744,0.42,1.272s0.156,1.192,0.156,1.992H483.733z"/>
		<path fill="#1E1E1E" d="M494.197,98.56c0,0.656,0.12,1.212,0.36,1.668s0.564,0.828,0.972,1.116
			c0.408,0.288,0.892,0.496,1.452,0.624s1.152,0.192,1.776,0.192c0.416,0,0.82-0.044,1.212-0.132c0.392-0.088,0.708-0.188,0.948-0.3
			V106h3.12V94.72h-3.12v5.976c-0.24,0.128-0.476,0.224-0.708,0.288s-0.532,0.096-0.9,0.096c-0.608,0-1.092-0.192-1.452-0.576
			c-0.36-0.384-0.54-1.032-0.54-1.944v-0.72c0-0.592-0.032-1.088-0.096-1.488s-0.18-0.72-0.348-0.96s-0.392-0.412-0.672-0.516
			s-0.628-0.156-1.044-0.156h-2.88v0.72h0.24c0.72,0,1.18,0.22,1.38,0.66s0.3,1.02,0.3,1.74L494.197,98.56L494.197,98.56z"/>
		<path fill="#1E1E1E" d="M510.085,95.8V106h3.12V95.8h3.624v-1.08h-8.664c-0.368,0-0.668,0.056-0.9,0.168s-0.412,0.256-0.54,0.432
			c-0.128,0.176-0.22,0.38-0.276,0.612s-0.084,0.468-0.084,0.708v1.68h0.72c0-0.912,0.2-1.56,0.6-1.944s0.96-0.576,1.68-0.576
			H510.085z"/>
		<path fill="#1E1E1E" d="M524.941,103.512c-0.128,0.308-0.288,0.574-0.48,0.8c-0.176,0.194-0.388,0.372-0.636,0.534
			c-0.248,0.162-0.556,0.242-0.924,0.242c-0.48,0-0.86-0.174-1.14-0.521c-0.28-0.348-0.42-0.861-0.42-1.54
			c0-0.857,0.252-1.495,0.756-1.916c0.504-0.42,1.332-0.631,2.484-0.631h0.36V103.512z M520.969,94.66
			c-0.664,0.12-1.14,0.34-1.428,0.66c-0.288,0.32-0.46,0.696-0.516,1.128c-0.056,0.432-0.084,0.856-0.084,1.272h1.32
			c0.096-0.448,0.224-0.812,0.384-1.092c0.16-0.28,0.344-0.5,0.552-0.66s0.436-0.268,0.684-0.324
			c0.248-0.056,0.508-0.084,0.78-0.084c0.72,0,1.28,0.28,1.68,0.84c0.4,0.56,0.6,1.56,0.6,3h-0.36c-1.296,0-2.36,0.08-3.192,0.24
			c-0.832,0.16-1.492,0.396-1.98,0.708s-0.828,0.688-1.02,1.128c-0.192,0.44-0.288,0.948-0.288,1.524c0,0.96,0.348,1.74,1.044,2.34
			s1.708,0.9,3.036,0.9c0.512,0,0.952-0.064,1.32-0.192s0.664-0.28,0.888-0.456c0.272-0.192,0.496-0.416,0.672-0.672h0.12l0.84,1.08
			h2.04v-6.48c0-1.696-0.428-2.96-1.284-3.792s-2.068-1.248-3.636-1.248C522.357,94.48,521.632,94.54,520.969,94.66z"/>
		<path fill="#1E1E1E" d="M535.332,95.8h3.384V106h3.12V94.72h-10.8v0.72c0.384,0,0.692,0.056,0.924,0.168s0.416,0.264,0.552,0.456
			s0.224,0.42,0.264,0.684s0.06,0.548,0.06,0.852c0,1.568-0.08,2.844-0.24,3.828s-0.376,1.76-0.648,2.328
			c-0.272,0.568-0.592,0.976-0.96,1.224c-0.368,0.248-0.76,0.404-1.176,0.468v0.696c0.128,0.048,0.336,0.096,0.624,0.144
			s0.56,0.072,0.816,0.072c0.592,0,1.14-0.152,1.644-0.456c0.504-0.304,0.936-0.8,1.296-1.488c0.36-0.688,0.64-1.592,0.84-2.712
			c0.2-1.12,0.3-2.488,0.3-4.104L535.332,95.8L535.332,95.8z"/>
		<path fill="#1E1E1E" d="M551.172,103.512c-0.128,0.308-0.288,0.574-0.48,0.8c-0.176,0.194-0.388,0.372-0.636,0.534
			c-0.248,0.162-0.556,0.242-0.924,0.242c-0.48,0-0.86-0.174-1.14-0.521c-0.28-0.348-0.42-0.861-0.42-1.54
			c0-0.857,0.252-1.495,0.756-1.916c0.504-0.42,1.332-0.631,2.484-0.631h0.36V103.512z M547.2,94.66
			c-0.664,0.12-1.14,0.34-1.428,0.66c-0.288,0.32-0.46,0.696-0.516,1.128c-0.056,0.432-0.084,0.856-0.084,1.272h1.32
			c0.096-0.448,0.224-0.812,0.384-1.092c0.16-0.28,0.344-0.5,0.552-0.66s0.436-0.268,0.684-0.324
			c0.248-0.056,0.508-0.084,0.78-0.084c0.72,0,1.28,0.28,1.68,0.84c0.4,0.56,0.6,1.56,0.6,3h-0.36c-1.296,0-2.36,0.08-3.192,0.24
			c-0.832,0.16-1.492,0.396-1.98,0.708s-0.828,0.688-1.02,1.128c-0.192,0.44-0.288,0.948-0.288,1.524c0,0.96,0.348,1.74,1.044,2.34
			s1.708,0.9,3.036,0.9c0.512,0,0.952-0.064,1.32-0.192s0.664-0.28,0.888-0.456c0.272-0.192,0.496-0.416,0.672-0.672h0.12l0.84,1.08
			h2.04v-6.48c0-1.696-0.428-2.96-1.284-3.792s-2.068-1.248-3.636-1.248C548.588,94.48,547.864,94.54,547.2,94.66z"/>
		<path fill="#1E1E1E" d="M560.484,90.16h-3.24l0.463,12.12h2.29L560.484,90.16z M559.908,103.816
			c-0.256-0.272-0.616-0.408-1.08-0.408s-0.824,0.136-1.08,0.408c-0.256,0.272-0.384,0.624-0.384,1.056s0.128,0.784,0.384,1.056
			s0.616,0.408,1.08,0.408s0.824-0.136,1.08-0.408c0.256-0.272,0.384-0.624,0.384-1.056S560.163,104.088,559.908,103.816z"/>
	</g>
</g>
</svg>
