<?xml version="1.0" encoding="utf-8"?>
<!-- Generator: Adobe Illustrator 22.0.1, SVG Export Plug-In . SVG Version: 6.00 Build 0)  -->
<svg version="1.1" id="Шар_1" xmlns="http://www.w3.org/2000/svg" xmlns:xlink="http://www.w3.org/1999/xlink" x="0px" y="0px"
	 width="76.609px" height="81.158px" viewBox="0 0 76.609 81.158" enable-background="new 0 0 76.609 81.158" xml:space="preserve">
<g>
	<path fill="none" stroke="#000000" stroke-linecap="round" stroke-linejoin="round" stroke-miterlimit="10" d="M38.759,26.41
		c-2.17,2.598-5.769,3.599-9.153,3.561c-3.384-0.038-6.687-0.959-10.019-1.552c-4.889-0.869-9.903-1.032-14.839-0.48
		c-0.895,0.1-1.806,0.229-2.61,0.635c-0.804,0.406-1.493,1.139-1.618,2.031c-0.126,0.898,0.355,1.812,1.08,2.358
		s1.655,0.759,2.562,0.765c3.06,0.02,5.653-2.082,8.221-3.746c4.845-3.138,10.512-4.994,16.275-5.329
		c4.923-0.286,8.334,1.123,10.462,1.975c2.76,1.105,5.88,2.403,6.338,4.98c0.267,1.505-5.752,2.54-6.301,0.867
		c-0.517-1.577,0.63-3.235,2.09-5.347c1.622-2.345,2.743-3.027,3.864-4.33c3.68-4.276,3.183-10.391,3.098-11.431
		c-0.487-5.981-3.96-9.793-5.011-10.866l-0.18,1.101c0.153,2.258-1.191,4.359-2.789,5.961s-3.501,2.898-4.952,4.634
		c-1.451,1.736-2.419,4.128-1.684,6.268c0.885,2.577,3.756,3.778,6.267,4.837c2.157,0.91,4.311,1.961,5.975,3.609
		c1.664,1.647,2.783,3.997,2.441,6.313c-0.409,2.776-3.02,5.002-5.822,5.148c-2.802,0.146-5.549-1.675-6.683-4.241
		s-0.689-5.71,0.953-7.985"/>
	<path fill="none" stroke="#000000" stroke-linecap="round" stroke-linejoin="round" stroke-miterlimit="10" d="M50.833,42.126
		c-2.347,2.439-2.952,6.125-2.547,9.486c0.405,3.36,1.679,6.543,2.63,9.792c1.395,4.766,2.1,9.733,2.087,14.699
		c-0.002,0.9-0.032,1.82-0.348,2.663c-0.316,0.843-0.971,1.608-1.843,1.829c-0.879,0.222-1.84-0.156-2.461-0.817
		s-0.934-1.563-1.039-2.464c-0.352-3.04,1.456-5.845,2.832-8.579c2.594-5.157,3.824-10.992,3.532-16.757
		c-0.25-4.925-2.02-8.163-3.098-10.186c-1.398-2.624-3.027-5.585-5.638-5.76c-1.525-0.102-1.901,5.994-0.178,6.358
		c1.624,0.343,3.148-0.977,5.089-2.658c2.155-1.867,2.712-3.056,3.885-4.311c3.851-4.123,9.984-4.291,11.028-4.32
		c5.998-0.165,10.165,2.874,11.346,3.802L75.034,35.2c-2.261,0.093-4.204,1.657-5.624,3.419c-1.419,1.762-2.501,3.794-4.07,5.426
		c-1.568,1.631-3.841,2.853-6.048,2.354c-2.658-0.6-4.163-3.324-5.488-5.705c-1.138-2.046-2.418-4.073-4.236-5.548
		c-1.818-1.475-4.275-2.333-6.541-1.742c-2.715,0.708-4.645,3.545-4.486,6.346c0.159,2.801,2.267,5.335,4.941,6.183
		c2.674,0.848,5.751,0.066,7.834-1.814"/>
	<path fill="#EFD5DF" d="M72.052,34.089c0.248,1.216-2.316,1.413-4.776,5.1c-1.442,2.161-2.277,4.663-3.954,5.789
		c-0.414,0.278-1.542,1.026-2.947,0.872c-0.42-0.046-1.531-0.244-3.618-2.499c-2.771-2.994-3.731-4.85-3.518-6.051
		c0.476-2.685,4.697-3.858,6.678-4.408C65.297,31.398,71.67,32.212,72.052,34.089z"/>
	<path fill="#EFD5DF" d="M44.589,4.558c-1.229-0.173-1.269,2.398-4.798,5.079c-2.068,1.571-4.516,2.558-5.536,4.3
		c-0.252,0.43-0.93,1.602-0.69,2.995c0.072,0.416,0.337,1.513,2.715,3.458c3.157,2.583,5.069,3.427,6.255,3.142
		c2.651-0.639,3.563-4.924,3.991-6.935C47.688,11.136,46.486,4.826,44.589,4.558z"/>
</g>
</svg>
