<?xml version="1.0" encoding="utf-8"?>
<!-- Generator: Adobe Illustrator 22.0.1, SVG Export Plug-In . SVG Version: 6.00 Build 0)  -->
<svg version="1.1" id="Шар_1" xmlns="http://www.w3.org/2000/svg" xmlns:xlink="http://www.w3.org/1999/xlink" x="0px" y="0px"
	 width="73.11px" height="78.69px" viewBox="0 0 73.11 78.69" enable-background="new 0 0 73.11 78.69" xml:space="preserve">
<title>Ресурс 38</title>
<g id="Шар_2_1_">
	<g id="Шар_1-2">
		<path d="M7.41,14.57l6.07-2.7c0.165-0.072,0.356-0.049,0.5,0.06c0.146,0.105,0.223,0.282,0.2,0.46c-0.12,1.03-0.22,2.1-0.3,3.1
			c4.363,0.869,8.637,2.134,12.77,3.78l0.66,0.26c0.63,0.25,1.26,0.51,1.91,0.74c-0.483-1.416-0.448-2.958,0.1-4.35
			c1-2.64,4.38-3.43,7-2.64c2.4,0.72,3.67,2.53,3.26,4.61c-0.57,2.74-3.56,4.27-6.09,4.27c-0.804-0.004-1.605-0.095-2.39-0.27
			c1.404,1.958,3.525,3.281,5.9,3.68c4.54,0.69,9.12-1.51,13.06-3.62l0.43-0.23c4.09-2.2,8.32-4.48,13-4.37
			c2.974,0.103,5.776,1.423,7.75,3.65c1.386,1.501,2.047,3.531,1.81,5.56c-0.041,0.272-0.286,0.464-0.56,0.44
			c-0.27-0.041-0.46-0.288-0.43-0.56c0.185-1.739-0.387-3.473-1.57-4.76c-1.796-1.995-4.318-3.184-7-3.3
			c-4.41-0.1-8.51,2.11-12.51,4.25l-0.43,0.23c-4.08,2.19-8.84,4.46-13.68,3.72c-2.931-0.494-5.493-2.258-7-4.82l-0.14-0.25
			c-0.95-0.31-1.89-0.68-2.8-1.05l-0.66-0.26c-4.038-1.604-8.211-2.842-12.47-3.7c-0.333,5.06-0.132,10.142,0.6,15.16l0.11,0.7
			c0.15,1,0.3,2,0.38,3l0.21,0.19c2.166,2.029,3.332,4.906,3.19,7.87c-0.39,4.88-3.69,9-6.75,12.47l-0.33,0.37
			c-3,3.38-6.09,6.89-7,11.2c-0.507,2.644,0.074,5.38,1.61,7.59c0.983,1.444,2.537,2.398,4.27,2.62
			c0.276,0.03,0.475,0.279,0.445,0.555S10.257,78.7,9.98,78.67c-2.024-0.225-3.849-1.32-5-3c-1.718-2.431-2.361-5.461-1.78-8.38
			c0.96-4.58,4.15-8.18,7.22-11.67l0.33-0.36c2.95-3.35,6.13-7.32,6.5-11.89c0.138-2.397-0.678-4.752-2.27-6.55
			c-0.002,0.805-0.099,1.608-0.29,2.39c-0.54,2.45-2.74,5.03-5.54,4.95c-2.12-0.06-3.59-1.72-3.75-4.23
			c-0.16-2.73,1.35-5.81,4.18-6.25c1.482-0.218,2.993,0.102,4.26,0.9c-0.08-0.65-0.18-1.33-0.28-2l-0.11-0.7
			c-0.763-5.139-0.977-10.345-0.64-15.53c-1.75-0.33-3.5-0.59-5.27-0.78c-0.222-0.031-0.399-0.2-0.44-0.42V15
			C7.113,14.809,7.233,14.642,7.41,14.57z M12.88,15.31c0.06-0.73,0.12-1.45,0.22-2.17l-3.65,1.65c1.15,0.16,2.29,0.34,3.43,0.56
			V15.31z M13.88,38.12c0.095-0.739,0.121-1.486,0.08-2.23c-1.183-0.961-2.709-1.392-4.22-1.19c-2.27,0.35-3.48,2.92-3.34,5.2
			c0.1,1.55,0.88,3.23,2.78,3.29c2.27,0.06,4.04-2.11,4.54-4.19c0.068-0.277,0.121-0.557,0.16-0.84V38.12z M33.51,21.21
			c2.12-0.02,4.66-1.24,5.12-3.47c0.37-1.88-1.08-3-2.57-3.45c-2.19-0.71-4.97-0.12-5.82,2c-0.548,1.424-0.476,3.012,0.2,4.38
			C31.431,21.002,32.466,21.184,33.51,21.21z"/>
		<path d="M1.99,8.28C2.713,7.594,3.54,7.027,4.44,6.6c0.506-0.213,1.051-0.322,1.6-0.32c-0.059-0.687,0.065-1.377,0.36-2
			c0.674-1.587,1.884-2.886,3.42-3.67c1.536-0.784,3.349-0.814,4.91-0.08c1.527,0.823,2.447,2.447,2.37,4.18
			c-0.164,1.309-0.622,2.563-1.34,3.67c-0.22,0.4-0.44,0.8-0.63,1.2c-0.589,1.256-0.928,2.615-1,4c0,0.18,0,0.35,0,0.51
			c0.154,0.619-0.094,1.269-0.62,1.63c-0.63,0.28-1.311,0.426-2,0.43H11.1c-2.962,0.319-5.954-0.219-8.62-1.55
			c-1.69-0.87-2.57-2.05-2.47-3.33c0-0.06,0-0.12,0-0.18C0.318,9.949,1.019,8.953,1.99,8.28z M13.13,14.12c0-0.2,0-0.41,0-0.63
			c0.075-1.518,0.449-3.007,1.1-4.38c0.2-0.42,0.43-0.84,0.65-1.25c0.639-0.966,1.056-2.063,1.22-3.21
			c0.076-1.319-0.597-2.568-1.74-3.23c-1.276-0.582-2.748-0.553-4,0.08c-1.344,0.673-2.406,1.799-3,3.18l0,0
			C7.133,5.159,7.043,5.693,7.1,6.22c-0.006,0.077-0.006,0.153,0,0.23C7.253,6.515,7.4,6.592,7.54,6.68l0,0L6.99,7.51
			c0.12,0.07,0.12,0.07,0.12,0.07C6.862,7.596,6.618,7.514,6.43,7.35L6.35,7.27C5.834,7.197,5.308,7.269,4.83,7.48
			C4.026,7.871,3.288,8.383,2.64,9c-0.814,0.542-1.401,1.364-1.65,2.31c-0.06,1.16,1.18,1.98,1.94,2.37
			c2.502,1.248,5.311,1.748,8.09,1.44h0.44c0.544-0.003,1.082-0.105,1.59-0.3c0.09-0.042,0.148-0.131,0.15-0.23
			C13.197,14.431,13.173,14.273,13.13,14.12z"/>
		<path fill="#EFD5DF" d="M10.73,4c1.085-0.631,2.403-0.716,3.56-0.23c1.081,0.544,1.717,1.696,1.6,2.9
			c-0.11,1.33-1.03,2.52-1.61,3.79c-0.544,1.05-0.883,2.193-1,3.37c-0.04,0.59,0.17,1.08-0.34,1.39
			c-0.568,0.236-1.175,0.365-1.79,0.38c-2.26,0.331-4.568-0.017-6.63-1c-0.88-0.44-1.79-1.22-1.68-2.22
			c0.231-0.887,0.774-1.661,1.53-2.18C4.93,9.661,5.567,9.209,6.26,8.86c0.655-0.34,1.435-0.34,2.09,0
			c-0.07-0.08-0.3-0.01-0.39-0.08C7.87,8.71,7.8,8.35,7.8,8.23C7.768,7.725,7.872,7.221,8.1,6.77C8.652,5.585,9.575,4.612,10.73,4z"
			/>
	</g>
</g>
</svg>
