<?xml version="1.0"?><svg xmlns="http://www.w3.org/2000/svg" viewBox="0 0 132.47 113.85"><defs><style>.cls-1{fill:#efd5df}</style></defs><g id="Шар_2" data-name="Шар 2"><g id="Шар_1-2" data-name="Шар 1"><path class="cls-1" d="M125.47 59.41c-1-1.66-4.47 1-8.59-1.64s-6.74-9.33-8.13-13l-.24-.63c-1.56-4.17-8.46-21.38-20-26.43-2.84-1.24-8.59-2.9-17.46.38-6.69 5.15-8.52 10.38-9.12 13.44C59.47 44 70.48 60.55 72.48 63.6c3 4.57 6.37 8.59 5.81 13.77-.54 4.93-4.18 6.56-3.39 8.34 1.59 3.6 18.69 2.44 33.05-6.24 11.17-6.75 19.3-17.22 17.52-20.06zM65.63 98.94c-.3-2.14-4.69-1-7.54-5.51S55.57 81 55.8 76.69v-.74c.26-4.9.92-25.28-8-35.54-2.2-2.52-7-6.77-16.9-7.46-8.6 2.16-12.56 6.59-14.44 9.39-7.64 11.43-4.08 33-3.45 37 .94 5.93 2.48 11.49-.25 16.44-2.6 4.71-6.77 4.71-6.77 6.86 0 4.32 16.89 10.85 34.33 8.59 13.6-1.78 25.82-8.64 25.31-12.29z" transform="translate(-.16 -.02)"/><path d="M73 99.3c-.26-1-1-1.41-2-1.77-2.52-1-4.89-1.43-6.74-3.65-3.53-4.22-3.36-10.75-3.09-15.88.37-7.11.59-14.08-.54-21.16-1.3-8.07-4.21-16.67-10.87-21.9A27.85 27.85 0 0 0 39.31 30c-2.41-.6-5.65-1.44-8.14-1.18a26.75 26.75 0 0 0-7.54 2.45A25.76 25.76 0 0 0 8.81 48.66C6.53 57 6.85 66 8 74.53 8.46 78 9.23 81.49 9.76 85s.72 7.26-1 10.52c-1.47 2.76-3.81 4.23-6.41 5.75-6.46 3.79 3.32 7.85 6.64 9 12.69 4.34 27.15 4.6 40.18 1.76a65.7 65.7 0 0 0 17.58-6.24c2.06-1.12 6.49-3.39 6.26-6.34 0-.63-1-.64-1 0 .22 2.85-5.18 5.21-7.17 6.21A67.51 67.51 0 0 1 48.87 111a77.8 77.8 0 0 1-35.81-.61c-3.63-1-8.09-2.12-10.93-4.74-1.08-1-1.56-1.92-.22-3s3-1.62 4.3-2.66c7.49-5.87 4.34-15.4 3.1-23.31C7 62.22 6.41 42.59 20.63 33.94a32.86 32.86 0 0 1 6.55-3 18.84 18.84 0 0 1 10.45-.32 28.31 28.31 0 0 1 10.93 4.61c6.79 5 9.73 13.53 11 21.53 1.21 7.3.86 14.47.53 21.8-.21 4.7-.17 10 2.17 14.21a10.33 10.33 0 0 0 4.47 4.31c1.24.61 4.83 1 5.22 2.49A.5.5 0 0 0 73 99.3z" transform="translate(-.16 -.02)"/><path d="M130.44 59.3a2.8 2.8 0 0 0-2.68-.61c-3.46.41-6.41.44-9.2-2-3.58-3.18-5.49-8-7.25-12.3a72.86 72.86 0 0 0-9.15-16.52C97.68 21.9 91.69 16.5 84.09 15.4a28.37 28.37 0 0 0-12.76 1.36 14.27 14.27 0 0 0-6.48 3.87 31.17 31.17 0 0 0-4.42 5.3c-8.88 13.64.33 30.53 8.62 42.1 3 4.18 7.14 8.5 7 14a12.57 12.57 0 0 1-2.6 6.76c-.6.89-1.58 2-1.37 3.14.3 1.69 2.45 2.13 3.86 2.32a31.23 31.23 0 0 0 10.23-.83A72.34 72.34 0 0 0 118 77.74a55.5 55.5 0 0 0 10.46-11.29c1.15-1.72 3.34-4.89 2.07-7.05a.5.5 0 0 0-.86.51c1.21 2.07-1.93 5.91-3.06 7.43a59.33 59.33 0 0 1-9.63 10 72.29 72.29 0 0 1-27.79 14.33A42.54 42.54 0 0 1 78 93.36c-2.26 0-6.18-.27-4.22-3.32s3.6-5.79 3.2-9.57c-.47-4.6-3.63-8.26-6.25-11.83C63 58 53.38 42.35 59.8 29.06c2.08-4.31 5.91-9.24 10.51-10.9a28.85 28.85 0 0 1 13.16-1.84c7.7.93 13.76 6.5 18.2 12.51 4 5.44 6.84 11.45 9.44 17.65 1.63 3.89 3.54 8 6.75 10.88a10.06 10.06 0 0 0 5.47 2.64c1.38.17 5.44-1 6.4 0 .44.48 1.14-.23.71-.7zM9.36 96.18a69.05 69.05 0 0 0 53.42-2.48c.58-.27.07-1.13-.51-.86a68.07 68.07 0 0 1-52.65 2.38c-.6-.22-.86.74-.26 1z" transform="translate(-.16 -.02)"/><path d="M77.12 83.18a59 59 0 0 0 42.2-25.4c.36-.54-.5-1-.86-.51a58 58 0 0 1-41.34 24.91c-.63.07-.64 1.07 0 1zM77.65 3a8 8 0 0 1 7.5-1.6 5.61 5.61 0 0 1 3.18 7.8c-1.86 3.48-6.42 7-10.11 8.25-5.12 1.71-8.22-2.88-12.48-4.76-3.59-1.59-8.08-3.15-12.09-2.81-2.68.23-5 1.82-5.34 4.62-.41 3.15 1.69 5.81 4.21 7.41 4.5 2.86 11.41 3.85 16.27 1.4 3-1.5 4.5-4.29 5-7.51.74-4.8 0-9.32 4-12.9.48-.43-.23-1.13-.71-.71a11.87 11.87 0 0 0-3.84 8.43c-.32 4-.11 8.54-3.74 11.13-5.23 3.75-16.65 2-19.63-4.05-1.68-3.42.59-6.62 4.18-6.83a21.71 21.71 0 0 1 7.51 1.31 23.5 23.5 0 0 1 6.69 3c1.65 1.15 3.19 2.65 5.12 3.32 3 1.06 6.2-.25 8.74-1.91s5.61-4.1 7.12-6.91a6.43 6.43 0 0 0-1.77-8.17c-3.15-2.44-7.36-1.64-10.32.61-.5.38 0 1.25.51.88z" transform="translate(-.16 -.02)"/><path d="M73.57 19.38c1.43-3.44 5.35-4.23 8.64-3.38 3 .79 5.48 2.85 7.89 4.65 4.06 3 8.36 5.13 13.53 5 5.42-.12 9.51-3.26 14.56-4.64 3.52-.95 5.85.4 9.13 1.25a5.94 5.94 0 0 0 5.08-.64c.53-.36 0-1.22-.5-.86-3.16 2.14-6.56-.78-9.8-1.12a13.68 13.68 0 0 0-6.48 1.21c-2.82 1.13-5.48 2.69-8.47 3.38a17.9 17.9 0 0 1-9.81-.56c-5.62-2-9.43-7.33-15.28-8.75-3.77-.92-7.9.39-9.46 4.15-.24.6.72.86 1 .27z" transform="translate(-.16 -.02)"/><path d="M72.27 20.65c3.14 3 6.66 6.41 7.59 10.83 1 4.85-2.16 9-3 13.59-1.69 8.58 5.4 14.93 11.37 19.76.5.41 1.21-.3.71-.7-3.66-3-7.53-6.06-9.71-10.33-2.6-5.08-1.32-9.42.53-14.43 1.28-3.45 1.82-6.82.38-10.31S75.75 22.6 73 19.94c-.47-.44-1.17.26-.71.71zM33.06 28.18c.74-2.66-.54-5.35-2.32-7.33-2-2.24-4.68-2.78-7.55-3.24-5.38-.87-13.36-1.06-14.32 6.08-.77 5.7 6.7 8 11.07 8.59 4 .56 11.07.53 13.07-4 .25-.58-.61-1.09-.87-.5-1.56 3.52-6.75 3.85-10.06 3.68-3.7-.18-11-1.52-12.14-5.85-.76-2.85 1.41-5.85 4-6.88 2.79-1.13 5.77-.7 8.66-.24 2.12.34 4.4.6 6.19 1.88 2.23 1.6 4.12 4.76 3.35 7.53a.5.5 0 0 0 .92.28z" transform="translate(-.16 -.02)"/><path d="M33.07 28.05c-.15-1.81 1.52-3.4 2.6-4.66a57.66 57.66 0 0 1 5.1-5.5 7.41 7.41 0 0 1 10.34.28c4.07 4.32.68 10.36-3.69 12.85A11.65 11.65 0 0 1 39 32.2c-2.34-.53-5.33-1.7-6-4.28a.5.5 0 0 0-1 .26c1.36 5.53 10.12 6.19 14.39 4.42 4.91-2 9.47-8 6.63-13.34a8.48 8.48 0 0 0-11-3.56c-2.9 1.46-5.1 4.59-7.17 7-1.27 1.47-3.07 3.25-2.89 5.36.17.63 1.17.63 1.11-.01z" transform="translate(-.16 -.02)"/><path d="M32.87 26.9c-2.42.54-3 3.15-2 5.21a23.76 23.76 0 0 0 3.37 4.68c1.68 2.14 3.39 4.27 5 6.44s3.18 4.47 3 7.32c-.17 2.44-1.47 4.61-1.8 7-.37 2.71.73 5.69 3.72 6.13.63.1.91-.87.27-1-5.3-.79-2.23-7.24-1.48-10.31a9.09 9.09 0 0 0-.95-6.81 52.6 52.6 0 0 0-5.1-6.91C35.6 37 28 29 33.13 27.86c.63-.13.37-1.1-.26-1z" transform="translate(-.16 -.02)"/><path d="M33.59 28.3c-2.75-1.13-4.09 2.2-3.67 4.38.28 1.44 1 2.77.94 4.28a8 8 0 0 1-2 4.65c-1.65 2-3.92 3.4-5.86 5.1-7.5 6.59-6.95 17-6.07 26 .06.64 1.06.64 1 0-.81-8.42-1.57-18.32 5.12-24.72 2.68-2.57 6.2-4.36 7.92-7.8a7.54 7.54 0 0 0 .84-4 10.5 10.5 0 0 0-.38-1.75c-.28-1.07-1.86-6.69 1.87-5.15.59.24.85-.73.27-1z" transform="translate(-.16 -.02)"/></g></g></svg>