<?xml version="1.0"?><svg xmlns="http://www.w3.org/2000/svg" viewBox="0 0 98.6 95.7"><defs><style>.cls-1,.cls-2{fill:#efd5df;}.cls-2{stroke:#000;stroke-miterlimit:10;}</style></defs><title>Ресурс 29</title><g id="Шар_2" data-name="Шар 2"><g id="Шар_1-2" data-name="Шар 1"><path class="cls-1" d="M18.35,71.54a64.18,64.18,0,0,0,11.9,1,12.8,12.8,0,0,0,6.14-1.17c3.6-2,5.12-6.83,9-8.19a111.26,111.26,0,0,0-14.94.53c3.88-2.58,9-2.1,13.51-3.11,5.15-1.13,9.63-4.18,14-7.17a36.1,36.1,0,0,0-18.2-.51C42,51.07,45.11,50.6,48,50.66s5.86.56,8.79.39a18.93,18.93,0,0,0,12.08-5.41,11.59,11.59,0,0,1-6.66-1A16,16,0,0,0,75,40.35a29.89,29.89,0,0,1-13.29-5.29,26.25,26.25,0,0,0,10.53,3.2c3.7.15,7.62-1.15,9.87-4.07-3.55,0-7.57-.24-9.88-2.92A12.24,12.24,0,0,0,88,28.18a17.08,17.08,0,0,1-11,0l-.09-.31a18.86,18.86,0,0,0,5.86-.21A9.84,9.84,0,0,0,88,25.26c1.75-1.72,2.52-4.17,3.22-6.52a8.13,8.13,0,0,0,.47-4.18,8,8,0,0,0-1.65-2.85c-.94-1.2-2.11-2.77-3.55-4.54a18,18,0,0,0-2.87-.54,9.91,9.91,0,0,0-5.69.54A7.42,7.42,0,0,0,76.1,8.54c-1.79,1.64-3.53,3.35-5.42,4.9l-.26-.12c3-3.33,6-6.82,5.76-7.12s-1.63,1.07-3.3,2.23a33.61,33.61,0,0,1-10.67,4.83c-.73,1.64-1.55,3.35-2.48,5.11q-1.18,2.23-2.37,4.21A25.18,25.18,0,0,1,61.18,12c-3.47,1.27-5.33,4.92-6.88,8.27A11.2,11.2,0,0,1,57,14.47c-2.36,2.16-5.53,3.17-8.45,4.49-4.3,1.95-6,3.87-6.89,6.29-.57,1.49-.27,2.06-1,5.53a46.75,46.75,0,0,1-1.43,5.14q1-5.91,2-11.83l-7.82,5.43c-2.61,1.81-5.4,3.87-6.21,6.93a24,24,0,0,0,.39,13.81,37.83,37.83,0,0,1-1.09-4.95,37.41,37.41,0,0,1-.19-9.42A19.16,19.16,0,0,0,18.48,51l-1.95-4.24A7.85,7.85,0,0,1,11,54.89,21.92,21.92,0,0,0,15.2,67.22" transform="translate(0 -0.02)"/><path d="M75.2,8.89C78.69,6,81.88,1.25,86.84,1.31c1.86,0,4.25.06,5.68,1.36a31.8,31.8,0,0,1,3.7,4.79C98,9.9,97.65,12.24,96.81,15a15.76,15.76,0,0,1-2.71,5.75c-2.85,3.33-8.28,3.88-12.38,3.33-.64-.08-.63.92,0,1,4.64.62,10.57-.21,13.54-4.2a18.87,18.87,0,0,0,2.62-6c.74-2.47,1.22-4.72-.17-7A53.36,53.36,0,0,0,93.23,2C92,.44,89.51.46,87.62.35c-5.91-.36-9,4.36-13.12,7.83-.5.41.21,1.12.7.71Z" transform="translate(0 -0.02)"/><path d="M14.1,67.86a24.69,24.69,0,0,1-3.56-7.13,18.09,18.09,0,0,1-.92-4.65c0-1.34.13-1.24,1.26-1.85a9.37,9.37,0,0,0,4.76-8.79l-.94.25,2.15,4.7c.22.48.92.21.93-.25a21.1,21.1,0,0,1,8.4-16.3l-.76-.43a43.48,43.48,0,0,0,1.44,16.05l1-.27c-1.82-4.74-2.11-11.7.08-16.34,1.33-2.8,4-4.62,6.5-6.34q4.11-2.88,8.24-5.74l-.74-.57q-1.11,6.56-2.24,13.11a.5.5,0,0,0,1,.27A47.6,47.6,0,0,0,42.71,25a11,11,0,0,1,1.72-5.31C48.05,14.5,55.48,14,60.1,10l-.71-.71a13.91,13.91,0,0,0-3.09,6.62c-.09.52.66.94.92.39C58.85,12.8,60.7,9,64.5,7.4l-.56-.74a29.7,29.7,0,0,0-4.26,11.86c-.07.53.6.92.91.39q1.36-2.3,2.61-4.66c.77-1.47,1.37-3.59,2.39-4.88S69,7.79,70.49,7.2a36,36,0,0,0,3.72-1.74A34.45,34.45,0,0,0,77.3,3.57c.69-.48,1.36-1,2-1.48C79.52,2,80.9.88,80.48,1,79.8,1.1,78.66,3,78,3.72c-1.25,1.47-2.53,2.9-3.82,4.33-.43.48.28,1.19.71.71,1.83-2,3.69-4.06,5.36-6.22C80.71,2,81.54,1.18,81.39.39A.51.51,0,0,0,80.91,0c-1.53,0-3.35,2.19-4.57,3a36,36,0,0,1-6.85,3.51c-1.06.41-3.29.63-4.12,1.32a4.85,4.85,0,0,0-1,1.81q-2.1,4.48-4.63,8.74l.91.39A29.15,29.15,0,0,1,64.8,7.17c.21-.34-.15-.91-.56-.74-4.09,1.72-6.11,5.56-7.89,9.4l.92.38A12.88,12.88,0,0,1,60.1,10a.5.5,0,0,0-.71-.71c-4.71,4.07-12.13,4.48-15.83,9.81a10.37,10.37,0,0,0-1.71,4.73,51,51,0,0,1-2.19,9.45l1,.27Q41.74,27,42.87,20.47c.06-.39-.34-.84-.74-.57-3.29,2.3-6.63,4.53-9.87,6.9-2.08,1.53-4.18,3.26-5.3,5.65-2.27,4.86-2,12.06-.1,17,.22.59,1.14.37,1-.27a42.87,42.87,0,0,1-1.4-15.78.5.5,0,0,0-.75-.43,22.12,22.12,0,0,0-8.89,17.16l.93-.25-2.14-4.71a.5.5,0,0,0-.93.26A8.34,8.34,0,0,1,8.89,54a.52.52,0,0,0-.36.49,25.6,25.6,0,0,0,4.71,13.91c.37.52,1.23,0,.86-.51Z" transform="translate(0 -0.02)"/><path d="M81.68,25.39a20.16,20.16,0,0,0,12.41,0l-.56-.74a13,13,0,0,1-16.75,3.24.51.51,0,0,0-.61.79C79.1,31.74,83.41,32,87.43,32l-.36-.86C81.4,38,72,35.42,65.18,32.06a.5.5,0,0,0-.5.86,34.52,34.52,0,0,0,14.77,5.91L79.23,38a17.59,17.59,0,0,1-13.68,4.55.5.5,0,0,0-.26.93A14.24,14.24,0,0,0,72.9,44.7l-.36-.85C67.89,48.32,62.06,50,55.7,49.65c-5.24-.33-10.74-1.16-15.24,2.2a.5.5,0,0,0,.39.91,40.59,40.59,0,0,1,19.8.57l-.11-.91c-4.84,3.34-9.84,6.77-15.69,8-5,1-10.16.66-14.62,3.41-.39.24-.26,1,.26.93A131.28,131.28,0,0,1,47,64.15l-.13-1c-4.09,1.65-5.67,5.9-9,8.44-2.81,2.12-6.54,2-9.89,1.89a73.08,73.08,0,0,1-10.64-1.08c-.63-.11-.9.86-.27,1a75.85,75.85,0,0,0,9.5,1.06c3.09.14,6.52.37,9.48-.72,4.9-1.79,6.37-7.68,11.11-9.6a.5.5,0,0,0-.13-1,131.28,131.28,0,0,0-16.47.58l.25.93c4.85-3,10.72-2.22,16-3.7S56.6,56.35,61,53.28a.5.5,0,0,0-.12-.91,41.69,41.69,0,0,0-20.34-.57l.39.91c5.73-4.28,12.9-1.44,19.39-2.07a21.71,21.71,0,0,0,12.89-6.08c.29-.28.09-.9-.35-.86a13.22,13.22,0,0,1-7.1-1.08l-.25.93A18.54,18.54,0,0,0,79.94,38.7a.5.5,0,0,0-.22-.83,34.05,34.05,0,0,1-14.54-5.81l-.5.86c7.22,3.56,17.13,6.17,23.1-1a.5.5,0,0,0-.35-.85c-3.75,0-7.8-.18-10.55-3.1l-.61.79a14.06,14.06,0,0,0,18.12-3.6c.27-.35-.17-.86-.56-.74A19.14,19.14,0,0,1,82,24.43c-.62-.2-.88.77-.27,1Z" transform="translate(0 -0.02)"/><path class="cls-2" d="M85.6,12.61A175.7,175.7,0,0,0,1.7,93.46l5.05-4.69A184.47,184.47,0,0,1,85.6,12.61Z" transform="translate(0 -0.02)"/></g></g></svg>