<?xml version="1.0" encoding="utf-8"?>
<!-- Generator: Adobe Illustrator 22.1.0, SVG Export Plug-In . SVG Version: 6.00 Build 0)  -->
<svg version="1.1" id="Layer_1" xmlns="http://www.w3.org/2000/svg" xmlns:xlink="http://www.w3.org/1999/xlink" x="0px" y="0px"
	 width="554.493px" height="296.231px" viewBox="0 0 554.493 296.231" enable-background="new 0 0 554.493 296.231"
	 xml:space="preserve">
<g>
	<path fill="none" stroke="#F3BE67" stroke-miterlimit="10" d="M8.37,158.777l17.622-4.699l17.623,5.287"/>
	<path fill="#F3BE67" d="M25.993,147.616c1.298,0,2.35,1.052,2.35,2.35s-1.052,2.35-2.35,2.35s-2.35-1.052-2.35-2.35
		C23.644,148.668,24.696,147.616,25.993,147.616z"/>
	<path fill="#F3BE67" d="M25.405,275.274l1.175,2v9.559h-1.175V275.274z"/>
	<path fill="#F3BE67" d="M25.405,151.274h1.175v13l-1.175-1V151.274z"/>
	<path fill="#F3BE67" d="M25.993,284.483c8.759,0,15.86,1.315,15.86,2.937s-7.101,2.937-15.86,2.937s-15.86-1.315-15.86-2.937
		S17.234,284.483,25.993,284.483z"/>
	<path fill="none" stroke="#F3BE67" stroke-miterlimit="10" d="M186.356,130.581l17.622-4.699l17.623,5.287"/>
	<path fill="#F3BE67" d="M203.979,119.42c1.298,0,2.35,1.052,2.35,2.35s-1.052,2.35-2.35,2.35s-2.35-1.052-2.35-2.35
		S202.682,119.42,203.979,119.42z"/>
	<path fill="#F3BE67" d="M203.402,123.274h1.151v9h-1.151V123.274z"/>
	<path fill="#F3BE67" d="M203.402,243.274h1.151v9h-1.151V243.274z"/>
	<path fill="#F3BE67" d="M203.979,251.001c8.759,0,15.86,1.315,15.86,2.937s-7.101,2.937-15.86,2.937s-15.86-1.315-15.86-2.937
		C188.119,252.316,195.22,251.001,203.979,251.001z"/>
	<path fill="none" stroke="#F3BE67" stroke-miterlimit="10" d="M92.37,146.441l17.622-4.699l17.622,5.287"/>
	<path fill="#F3BE67" d="M109.993,135.281c1.298,0,2.35,1.052,2.35,2.35s-1.052,2.35-2.35,2.35s-2.35-1.052-2.35-2.35
		C107.644,136.333,108.696,135.281,109.993,135.281z"/>
	<path fill="#F3BE67" d="M109.405,257.274h1.175v11.937h-1.175V257.274z"/>
	<path fill="#F3BE67" d="M109.405,139.274h1.175v8h-1.175V139.274z"/>
	<path fill="#F3BE67" d="M109.993,266.861c8.759,0,15.86,1.315,15.86,2.937s-7.101,2.937-15.86,2.937s-15.86-1.315-15.86-2.937
		S101.234,266.861,109.993,266.861z"/>
	<path fill="none" stroke="#F3BE67" stroke-miterlimit="10" d="M386.076,128.819l17.623-4.699l17.622,5.287"/>
	<path fill="#F3BE67" d="M403.699,117.658c1.298,0,2.35,1.052,2.35,2.35s-1.052,2.35-2.35,2.35s-2.35-1.052-2.35-2.35
		C401.35,118.71,402.402,117.658,403.699,117.658z"/>
	<path fill="#F3BE67" d="M403.111,121.274h1.175v9h-1.175V121.274z"/>
	<path fill="#F3BE67" d="M403.111,249.274l1.175-1v10h-1.175V249.274z"/>
	<path fill="#F3BE67" d="M403.699,256.287c8.759,0,15.86,1.315,15.86,2.937s-7.101,2.937-15.86,2.937
		c-8.759,0-15.86-1.315-15.86-2.937S394.94,256.287,403.699,256.287z"/>
	<path fill="none" stroke="#F3BE67" stroke-miterlimit="10" d="M477.124,151.141l17.623-4.699l17.622,5.287"/>
	<path fill="#F3BE67" d="M494.748,139.98c1.298,0,2.35,1.052,2.35,2.35s-1.052,2.35-2.35,2.35s-2.35-1.052-2.35-2.35
		C492.399,141.032,493.45,139.98,494.748,139.98z"/>
	<path fill="#F3BE67" d="M494.16,143.274h1.175v12l-1.175-0.85V143.274z"/>
	<path fill="#F3BE67" d="M494.16,281.274l1.209,1l-0.035,11l-1.175-0.85L494.16,281.274L494.16,281.274z"/>
	<path fill="#F3BE67" d="M494.748,290.357c8.759,0,15.86,1.315,15.86,2.937s-7.101,2.937-15.86,2.937s-15.86-1.315-15.86-2.937
		S485.989,290.357,494.748,290.357z"/>
</g>
<g>
	<g>
		<g>
			<g>
				<path d="M435.381,280.021c3.155,1.917,6.771,3.273,10.523,2.869c3.238-0.349,5.853-2.939,9.139-2.756
					c4.127,0.23,7.189,3.706,11.119,4.649c3.065,0.735,6.179-0.002,9.071-1.067c3.33-1.226,6.525-2.972,10.023-3.696
					c4.572-0.945,7.577,1.157,11.374,3.268c2.378,1.322,4.923,1.99,7.496,0.833c1.746-0.785,3.257-1.766,5.19-2.106
					c2.58-0.453,5.189-0.085,7.669,0.667c0.617,0.187,0.881-0.778,0.266-0.964c-3.39-1.027-7.135-1.342-10.494-0.017
					c-1.359,0.536-2.59,1.505-4.009,1.883c-2.354,0.627-4.568-0.519-6.533-1.697c-2.731-1.637-5.228-3.223-8.516-3.163
					c-3.33,0.06-6.473,1.457-9.491,2.723c-3.469,1.454-7.271,3.156-11.126,2.508c-3.619-0.608-6.348-3.353-9.801-4.406
					c-2.928-0.893-5.135-0.046-7.741,1.196c-4.631,2.208-9.447,0.97-13.654-1.586C435.334,278.823,434.831,279.687,435.381,280.021
					L435.381,280.021z"/>
			</g>
		</g>
		<g>
			<g>
				<path d="M499.711,284.233c0.44,3.604,4.8,3.834,7.582,3.072c3.249-0.89,5.659-1.626,9.05-0.667
					c2.262,0.64,4.511,1.501,6.894,1.006c2.197-0.456,3.925-1.916,5.738-3.141c3.086-2.085,6.163-2.154,9.739-1.751
					c5.635,0.634,10.743,0.135,15.553-3.104c0.531-0.358,0.031-1.224-0.505-0.863c-4.479,3.017-9.334,3.632-14.59,3.023
					c-2.266-0.263-4.619-0.581-6.869-0.021c-1.893,0.471-3.451,1.585-5.024,2.689c-2.119,1.487-4.157,2.594-6.831,2.199
					c-2.16-0.32-4.168-1.286-6.334-1.579c-1.966-0.265-3.706,0.187-5.571,0.77c-2.064,0.645-7.375,2.106-7.831-1.634
					C500.634,283.602,499.633,283.594,499.711,284.233L499.711,284.233z"/>
			</g>
		</g>
		<g>
			<g>
				<g>
					<path d="M486.146,181.519c5.556,2.242,11.653,2.455,17.355,0.621c0.61-0.196,0.349-1.162-0.266-0.964
						c-5.548,1.785-11.419,1.559-16.823-0.621C485.815,180.314,485.556,181.28,486.146,181.519L486.146,181.519z"/>
				</g>
			</g>
			<g>
				<g>
					<path d="M435.886,279.652c6.364-4.856,11.133-11.541,12.575-19.522c0.715-3.96,0.576-7.969,0.758-11.971
						c0.233-5.122,0.986-10.21,2.182-15.195c3.373-14.058,10.147-28.212,19.781-39.043c4.439-4.991,9.551-9.125,15.349-12.453
						c0.558-0.32,0.055-1.185-0.505-0.863c-11.743,6.741-20.513,17.084-26.729,29.034c-6.748,12.971-10.873,26.899-11.164,41.586
						c-0.114,5.774-0.634,11.325-3.3,16.558c-2.225,4.37-5.573,8.046-9.453,11.006C434.876,279.174,435.374,280.043,435.886,279.652
						L435.886,279.652z"/>
				</g>
			</g>
			<g>
				<g>
					<path d="M554.266,278.789c-7.834-5.977-12.227-14.391-12.663-24.243c-0.4-9.022-1.017-17.619-3.599-26.338
						c-3.852-13.011-10.422-25.875-19.639-35.884c-4.3-4.669-9.237-8.557-14.745-11.719c-0.559-0.321-1.063,0.543-0.505,0.863
						c12.055,6.92,20.729,17.603,27.001,29.898c3.032,5.943,5.551,12.134,7.342,18.566c1.291,4.633,2.208,9.374,2.677,14.162
						c0.428,4.369,0.213,8.767,0.649,13.131c0.917,9.173,5.719,16.89,12.976,22.428
						C554.273,280.043,554.771,279.174,554.266,278.789L554.266,278.789z"/>
				</g>
			</g>
			<g>
				<g>
					<path d="M521.111,238.827c5.062,5.561,3.032,13.907,4.971,20.656c1.496,5.207,4.522,9.903,9.345,12.552
						c0.564,0.31,1.07-0.553,0.505-0.863c-5.827-3.201-8.824-9.497-9.71-15.882c-0.825-5.95-0.054-12.392-4.404-17.17
						C521.384,237.643,520.679,238.352,521.111,238.827L521.111,238.827z"/>
				</g>
			</g>
			<g>
				<g>
					<path d="M486.672,181.647c4.247-7.907,1.206-16.572-1.858-24.306c-0.234-0.591-1.202-0.334-0.964,0.266
						c2.949,7.443,6.064,15.891,1.959,23.536C485.504,181.71,486.367,182.215,486.672,181.647L486.672,181.647z"/>
				</g>
			</g>
			<g>
				<g>
					<path d="M503.883,181.143c-4.105-7.643-0.99-16.093,1.958-23.536c0.237-0.598-0.73-0.858-0.964-0.266
						c-3.064,7.734-6.105,16.399-1.858,24.306C503.324,182.215,504.188,181.71,503.883,181.143L503.883,181.143z"/>
				</g>
			</g>
			<g>
				<g>
					<path d="M484.845,157.711c1.639-4.149,6.687-5.394,9.832-2.11c0.176,0.184,0.534,0.203,0.707,0
						c2.954-3.463,8.384-2.586,9.493,2.006c0.151,0.625,1.116,0.361,0.964-0.266c-1.077-4.459-7.062-6.96-10.465-3.209
						c-0.587,0.647,0.326,0.637-0.491,0.291c-0.413-0.175-0.824-0.634-1.219-0.858c-1.22-0.693-2.623-1.021-4.023-0.874
						c-2.776,0.292-4.775,2.253-5.763,4.754C483.644,158.044,484.611,158.303,484.845,157.711L484.845,157.711z"/>
				</g>
			</g>
			<g>
				<g>
					<path d="M473.375,237.717c-3.985,4.954-2.96,11.181-3.341,17.097c-0.419,6.511-3.026,13.161-8.723,16.76
						c-0.543,0.343-0.041,1.209,0.505,0.863c4.653-2.94,7.403-7.791,8.58-13.086c1.519-6.832-1.011-15.087,3.687-20.928
						C474.482,237.927,473.778,237.215,473.375,237.717L473.375,237.717z"/>
				</g>
			</g>
		</g>
	</g>
	<g>
		<g>
			<g>
				<g>
					<g>
						<path d="M394.295,130.139c-3.357,6.759,2.19,12.953,2.074,19.732c-0.124,7.208-6.17,12.608-5.574,20.068
							c0.304,3.801,1.64,7.436,2.502,11.129c1.017,4.355,1.629,8.798,1.911,13.259c0.541,8.56-0.119,17.158-1.376,25.629
							c-1.396,9.407-3.515,18.685-5.665,27.942c-0.145,0.626,0.819,0.893,0.964,0.266c3.64-15.675,7.279-31.594,7.267-47.775
							c-0.006-7.883-1.022-15.626-3.076-23.234c-1.201-4.446-2.292-8.866-0.795-13.389c1.057-3.195,2.893-6.067,3.984-9.25
							c1.183-3.451,0.933-6.739-0.099-10.201c-1.321-4.432-3.496-9.154-1.252-13.671
							C395.444,130.069,394.582,129.562,394.295,130.139L394.295,130.139z"/>
					</g>
				</g>
				<g>
					<g>
						<path d="M412.899,131.028c3.477,7-3.253,14.076-2.028,21.303c0.526,3.104,2.103,5.883,3.396,8.71
							c1.961,4.291,2.447,8.203,1.413,12.835c-0.891,3.988-2.118,7.863-2.805,11.902c-0.632,3.722-1,7.489-1.144,11.26
							c-0.307,8.041,0.401,16.089,1.601,24.036c1.397,9.246,3.48,18.37,5.594,27.473c0.146,0.627,1.11,0.361,0.964-0.266
							c-3.828-16.485-7.677-33.277-7.19-50.311c0.123-4.307,0.532-8.607,1.301-12.848c0.757-4.175,2.167-8.194,2.924-12.361
							c0.597-3.283,0.477-6.465-0.686-9.605c-1.208-3.263-3.147-6.242-4.071-9.612c-2.157-7.865,5.412-15.339,1.595-23.022
							C413.476,129.947,412.613,130.453,412.899,131.028L412.899,131.028z"/>
					</g>
				</g>
				<g>
					<g>
						<path d="M389.023,248.423c2.274-1.377,4.841-1.921,7.45-1.259c1.654,0.419,3.157,1.276,4.79,1.756
							c2.475,0.728,4.913,0.461,6.551-1.709c1.814-2.404,1.562-5.507,1.289-8.328c-0.412-4.259-0.161-8.458,0.195-12.712
							c0.054-0.641-0.947-0.638-1,0c-0.291,3.47-0.588,6.958-0.389,10.442c0.198,3.454,1.516,8.354-1.753,10.837
							c-3.153,2.395-7.045-0.887-10.284-1.434c-2.605-0.44-5.124,0.19-7.355,1.542C387.968,247.893,388.47,248.758,389.023,248.423
							L389.023,248.423z"/>
					</g>
				</g>
				<g>
					<g>
						<path d="M419.275,247.933c-1.718,0.308-3.468,0.589-5.219,0.565c-1.724-0.024-3.123-0.349-2.999-2.518
							c0.038-0.663,0.463-1.478,0.574-2.155c0.174-1.07,0.206-2.154,0.142-3.235c-0.286-4.87-1.378-9.759-2.424-14.507
							c-0.139-0.628-1.103-0.362-0.964,0.266c0.844,3.829,1.609,7.686,2.111,11.577c0.338,2.622,0.481,5.169-0.378,7.716
							c-1.796,5.319,6.714,3.743,9.424,3.257C420.174,248.784,419.906,247.82,419.275,247.933L419.275,247.933z"/>
					</g>
				</g>
			</g>
			<g>
				<g>
					<path d="M389.519,126.278c8.501,6.312,20.223,6.61,29.019,0.709c0.532-0.357,0.032-1.223-0.505-0.863
						c-8.531,5.724-19.772,5.408-28.009-0.709C389.507,125.031,389.008,125.899,389.519,126.278L389.519,126.278z"/>
				</g>
			</g>
			<g>
				<g>
					<path d="M389.446,125.714c-0.447,2.191-0.894,4.382-1.341,6.574c-0.128,0.628,0.836,0.897,0.964,0.266
						c0.447-2.191,0.894-4.382,1.341-6.574C390.538,125.351,389.574,125.083,389.446,125.714L389.446,125.714z"/>
				</g>
			</g>
			<g>
				<g>
					<path d="M388.234,132.774c1.306,1.611,3.368,2.45,5.428,2.211c0.632-0.073,0.639-1.074,0-1
						c-1.827,0.212-3.564-0.489-4.721-1.918C388.535,131.567,387.832,132.278,388.234,132.774L388.234,132.774z"/>
				</g>
			</g>
			<g>
				<g>
					<path d="M417.998,126.566c0.447,2.191,0.894,4.382,1.341,6.574c0.129,0.63,1.093,0.363,0.964-0.266
						c-0.447-2.191-0.894-4.382-1.341-6.574C418.833,125.67,417.869,125.937,417.998,126.566L417.998,126.566z"/>
				</g>
			</g>
			<g>
				<g>
					<path d="M419.467,132.653c-1.157,1.428-2.895,2.13-4.721,1.918c-0.638-0.074-0.633,0.926,0,1
						c2.06,0.239,4.123-0.599,5.428-2.211C420.576,132.865,419.872,132.153,419.467,132.653L419.467,132.653z"/>
				</g>
			</g>
		</g>
		<g>
			<g>
				<path d="M410.724,246.393c0.643,0,0.645-1,0-1C410.08,245.393,410.079,246.393,410.724,246.393L410.724,246.393z"/>
			</g>
		</g>
	</g>
	<g>
		<g>
			<g>
				<path d="M16.164,162.165c-2.111,3.89-1.087,7.388,0.397,11.272c2.069,5.415,0.237,10.684-2.067,15.679
					c-2.037,4.416-3.545,8.903-4.381,13.702C7.949,215.239,7.96,228.03,6.395,240.54c-1.511,12.076-3.721,24.058-6.381,35.932
					c-0.14,0.627,0.823,0.895,0.964,0.266c4.022-17.953,6.8-36.081,8.213-54.423c0.794-10.305,1.029-20.972,5.21-30.6
					c1.857-4.276,4.113-8.437,4.125-13.232c0.015-5.595-4.513-10.257-1.498-15.814C17.334,162.103,16.471,161.598,16.164,162.165
					L16.164,162.165z"/>
			</g>
		</g>
		<g>
			<g>
				<path d="M50.62,276.252c-1.148,1.423-2.579,2.679-4.564,2.461c-1.118-0.123-2.034-0.776-3.1-1.075
					c-1.592-0.446-3.171-0.21-4.59,0.62c-1.236,0.724-2.082,1.457-3.587,1.659c-1.88,0.252-3.814-0.448-5.434-1.383
					c-1.223-0.706-2.197-1.6-3.003-2.749c-0.431-0.613-0.676-1.108-1.367-1.466c-1.268-0.656-2.892-0.36-4.115,0.26
					c-2.727,1.383-4.191,4.033-7.668,3.668c-1.841-0.193-3.115-0.989-4.503-2.127c-0.53-0.435-0.987-0.816-1.665-1.032
					c-2.177-0.695-4.663,0.219-6.663,1.033c-0.588,0.239-0.331,1.207,0.266,0.964c1.537-0.626,3.254-1.308,4.942-1.221
					c1.501,0.077,2.291,1.034,3.401,1.848c1.74,1.276,4.134,1.881,6.265,1.489c2.399-0.442,3.64-2.272,5.624-3.467
					c0.721-0.434,1.663-0.853,2.537-0.782c2.321,0.191,1.512,0.801,2.33,1.766c0.61,0.72,1.145,1.315,1.93,1.869
					c1.729,1.222,3.842,2.285,5.996,2.393c2.301,0.114,3.538-0.985,5.452-1.994c2.76-1.454,4.54,0.66,7.159,0.771
					c2.107,0.089,3.803-1.241,5.061-2.801C51.727,276.462,51.024,275.751,50.62,276.252L50.62,276.252z"/>
			</g>
		</g>
		<g>
			<g>
				<path d="M17.529,176.159c5.207,2.264,10.994,2.374,16.26,0.224c0.588-0.24,0.331-1.208-0.266-0.964
					c-4.997,2.04-10.53,2.033-15.49-0.123C17.449,175.041,16.94,175.903,17.529,176.159L17.529,176.159z"/>
			</g>
		</g>
		<g>
			<g>
				<path d="M34.441,162.669c2.788,5.138-0.833,8.997-1.394,14.005c-0.501,4.467,1.084,8.654,2.921,12.637
					c2.132,4.624,3.681,9.289,4.516,14.319c0.901,5.429,1.213,10.945,1.623,16.427c0.566,7.55,1.249,15.088,2.238,22.596
					c1.508,11.451,3.621,22.816,6.146,34.085c0.141,0.628,1.105,0.362,0.964-0.266c-4.097-18.288-6.861-36.74-8.273-55.423
					c-0.752-9.954-1.114-20.186-5.101-29.493c-2.272-5.305-5.417-10.837-3.652-16.811c1.325-4.484,3.355-8.009,0.875-12.581
					C34.998,161.599,34.134,162.103,34.441,162.669L34.441,162.669z"/>
			</g>
		</g>
		<g>
			<g>
				<path d="M16.728,162.899c3.051-1.059,6.338-0.528,8.849,1.521c0.181,0.148,0.394,0.191,0.606,0.078
					c2.707-1.438,5.655-1.962,8.69-1.581c0.637,0.08,0.631-0.921,0-1c-1.823-0.229-3.645-0.164-5.437,0.26
					c-0.913,0.216-1.752,0.558-2.624,0.892c-0.954,0.366-0.46,0.363-1.267,0.07c-1.65-0.6-2.78-1.543-4.655-1.745
					c-1.507-0.162-3.002,0.046-4.427,0.541C15.858,162.144,16.118,163.111,16.728,162.899L16.728,162.899z"/>
			</g>
		</g>
		<g>
			<g>
				<path d="M16.904,162.165c-1.186-1.792-2.506-3.871-2.895-6.009c-0.422-2.317,1.873-2.008,2.89-0.542
					c1.2,1.73,1.577,4.022,1.79,6.066c0.066,0.634,1.067,0.64,1,0c-0.25-2.395-0.686-5.213-2.324-7.105
					c-0.928-1.072-2.823-1.915-3.967-0.612c-1.895,2.159,1.442,6.892,2.643,8.706C16.394,163.204,17.26,162.703,16.904,162.165
					L16.904,162.165z"/>
			</g>
		</g>
		<g>
			<g>
				<path d="M35.085,163.303c0.965-1.237,1.869-2.54,2.61-3.924c0.646-1.208,1.708-3.213,0.812-4.545
					c-0.869-1.293-2.693-0.914-3.717-0.078c-2.014,1.644-2.748,4.699-3.192,7.114c-0.116,0.629,0.848,0.899,0.964,0.266
					c0.352-1.915,0.839-3.94,1.955-5.572c0.453-0.662,1.163-1.523,2.044-1.573c1.262-0.071,1.352,0.775,1.179,1.649
					c-0.425,2.148-2.038,4.257-3.363,5.955C33.987,163.098,34.69,163.811,35.085,163.303L35.085,163.303z"/>
			</g>
		</g>
	</g>
	<g>
		<g>
			<g>
				<path d="M213.015,131.535c2.367,2.102,2.706,4.369,1.494,7.179c-0.477,1.105-1.014,2.195-1.336,3.359
					c-0.626,2.263-1.024,4.943-0.984,7.277c0.055,3.161,1.127,6.448,1.932,9.471c3.86,14.497,8.929,28.705,14.069,42.786
					c4.295,11.766,8.81,23.451,13.482,35.072c0.116-0.205,0.233-0.41,0.349-0.615c-4.042,1.127-8.298,1.1-11.977,3.222
					c-2.17,1.252-3.491-0.645-5.623-0.417c-2.024,0.217-2.97,2.228-5.196,2.255c-2.06,0.025-3.919-0.517-5.977,0.08
					c-2.76,0.801-5.119,1.819-8.076,1.939c-4.725,0.191-9.534-1.021-13.612-3.408c-0.557-0.326-1.06,0.538-0.505,0.863
					c3.52,2.061,7.502,3.232,11.57,3.507c2.861,0.193,5.765-0.11,8.483-1.046c1.227-0.422,2.348-0.956,3.646-1.131
					c1.356-0.183,2.592,0.073,3.934,0.158c1.994,0.127,3.024-0.657,4.616-1.661c2.165-1.365,3.837,0.98,6.074,0.329
					c1.754-0.511,3.12-1.788,5.001-2.159c2.649-0.522,5.296-0.841,7.907-1.568c0.239-0.066,0.451-0.363,0.349-0.615
					c-7.709-19.172-15.046-38.517-21.537-58.139c-2.051-6.2-4.032-12.43-5.748-18.732c-0.881-3.236-2.105-6.802-2.162-10.193
					c-0.045-2.652,0.391-5.666,1.343-8.177c0.686-1.811,1.93-3.647,1.822-5.663c-0.102-1.915-1.249-3.455-2.632-4.683
					C213.243,130.402,212.533,131.107,213.015,131.535L213.015,131.535z"/>
			</g>
		</g>
		<g>
			<g>
				<path d="M195.364,130.632c-2.248,2.125-3.421,4.603-2.443,7.648c1.137,3.538,2.476,6.663,2.446,10.462
					c-0.024,3.003-1.125,6.12-1.928,8.979c-4.057,14.438-9.155,28.611-14.209,42.722c-4.311,12.035-8.763,24.019-13.299,35.971
					c-0.096,0.253,0.108,0.548,0.349,0.615c2.835,0.79,5.741,1.394,8.588,2.108c2.273,0.57,4.566-1.712,6.522-0.632
					c1.896,1.047,2.584,1.591,4.752,0.972c1.518-0.433,1.97-0.533,3.198,0.163c1.295,0.734,2.583,1.46,3.918,2.122
					c0.575,0.285,1.082-0.577,0.505-0.863c-1.7-0.843-3.478-2.334-5.326-2.807c-0.772-0.198-1.373,0-2.107,0.187
					c-1.22,0.31-2.376,0.696-3.611-0.017c-0.445-0.257-0.787-0.659-1.26-0.884c-2.313-1.103-3.797,1.22-6.095,0.864
					c-1.24-0.192-2.457-0.801-3.707-1.048c-1.72-0.339-3.418-0.658-5.11-1.129c0.116,0.205,0.233,0.41,0.349,0.615
					c7.175-18.899,14.177-37.874,20.648-57.028c2.118-6.269,4.191-12.557,6.064-18.904c1.026-3.477,2.189-7.05,2.66-10.659
					c0.241-1.847,0.031-3.768-0.282-5.596c-0.392-2.289-1.397-4.297-2.099-6.48c-0.877-2.729,0.162-4.763,2.185-6.675
					C196.54,130.896,195.832,130.19,195.364,130.632L195.364,130.632z"/>
			</g>
		</g>
		<g>
			<g>
				<path d="M195.735,149.224c5.663,1.205,11.434,1.205,17.097,0c0.629-0.134,0.363-1.098-0.266-0.964
					c-5.488,1.167-11.078,1.168-16.566,0C195.373,148.127,195.105,149.09,195.735,149.224L195.735,149.224z"/>
			</g>
		</g>
		<g>
			<g>
				<path d="M195.844,151.215c5.567,1.381,11.314,1.375,16.876-0.024c0.624-0.157,0.359-1.122-0.266-0.964
					c-5.393,1.356-10.947,1.363-16.345,0.024C195.486,150.095,195.219,151.06,195.844,151.215L195.844,151.215z"/>
			</g>
		</g>
		<g>
			<g>
				<path d="M181.352,237.687c4.683-8.409,7.428-17.649,8.018-27.259c0.039-0.643-0.961-0.64-1,0
					c-0.579,9.44-3.282,18.495-7.881,26.754C180.175,237.745,181.038,238.25,181.352,237.687L181.352,237.687z"/>
			</g>
		</g>
		<g>
			<g>
				<path d="M202.668,151.988c-0.339,14.944-1.167,29.874-2.512,44.761c-0.66,7.305-1.425,14.604-2.348,21.881
					c-0.934,7.359-2.232,14.693-5.491,21.422c-0.279,0.577,0.583,1.084,0.863,0.505c3.051-6.301,4.445-13.112,5.377-20.01
					c0.981-7.255,1.737-14.546,2.418-21.834c1.451-15.538,2.339-31.124,2.693-46.725
					C203.683,151.344,202.683,151.344,202.668,151.988L202.668,151.988z"/>
			</g>
		</g>
		<g>
			<g>
				<path d="M203.474,151.897c0.712,15.581,1.441,31.375,4.413,46.719c1.407,7.266,3.568,14.226,5.984,21.208
					c2.431,7.024,5.064,13.858,9.009,20.198c0.339,0.545,1.205,0.044,0.863-0.505c-4.014-6.452-6.629-13.424-9.117-20.563
					c-2.36-6.772-4.41-13.553-5.775-20.604c-2.954-15.254-3.669-30.963-4.377-46.453
					C204.445,151.256,203.444,151.252,203.474,151.897L203.474,151.897z"/>
			</g>
		</g>
		<g>
			<g>
				<path d="M232.726,238.622c-6.31-7.436-10.075-16.611-10.568-26.367c-0.032-0.64-1.033-0.644-1,0
					c0.508,10.034,4.373,19.428,10.861,27.074C232.436,239.821,233.14,239.111,232.726,238.622L232.726,238.622z"/>
			</g>
		</g>
		<g>
			<g>
				<path d="M195.933,131.544c5.773,1.601,11.775,1.635,17.569,0.12c0.622-0.163,0.358-1.127-0.266-0.964
					c-5.629,1.472-11.429,1.436-17.038-0.12C195.577,130.408,195.312,131.372,195.933,131.544L195.933,131.544z"/>
			</g>
		</g>
		<g>
			<g>
				<path d="M196.298,131.158c0.497-1.608,0.25-3.305-0.69-4.702c-0.357-0.531-1.224-0.031-0.863,0.505
					c0.802,1.192,1.015,2.556,0.59,3.932C195.143,131.508,196.108,131.772,196.298,131.158L196.298,131.158z"/>
			</g>
		</g>
		<g>
			<g>
				<path d="M213.801,130.929c-0.717-1.358-0.762-2.829-0.189-4.246c0.241-0.596-0.726-0.856-0.964-0.266
					c-0.672,1.662-0.543,3.438,0.29,5.016C213.238,132.003,214.101,131.499,213.801,130.929L213.801,130.929z"/>
			</g>
		</g>
	</g>
	<g>
		<g>
			<g>
				<path d="M119.722,150.432c0.722,4.774,0.266,8.788-2.677,12.636c-2.375,3.105-1.758,6.592-0.12,9.913
					c2.231,4.523,4.46,8.56,4.755,13.747c0.275,4.827-1.042,9.542-3.053,13.886c-1.575,3.402-2.858,6.399-2.97,10.219
					c-0.149,5.063,1.174,10.124,2.877,14.849c3.396,9.42,8.549,18.163,13.984,26.528c0.349,0.538,1.215,0.037,0.863-0.505
					c-5.076-7.813-9.891-15.939-13.27-24.65c-1.951-5.031-3.546-10.435-3.463-15.881c0.066-4.343,1.774-7.494,3.438-11.387
					c3.278-7.669,3.503-15.896-0.224-23.456c-1.178-2.389-2.847-4.634-3.33-7.307c-0.599-3.312,1.447-4.975,2.89-7.527
					c1.949-3.447,1.836-7.539,1.262-11.331C120.59,149.532,119.626,149.802,119.722,150.432L119.722,150.432z"/>
			</g>
		</g>
		<g>
			<g>
				<path d="M115.833,213.478c9.035,14.465,21.053,26.938,35.101,36.604c0.912,0.628,1.833,1.244,2.761,1.848
					c0.391,0.254,2.734,1.361,2.813,1.778c0.254,1.336-3.754,0.447-4.361,0.566c-3.847,0.754-5.544,4.815-9.822,2.291
					c-2.666-1.573-4.269-1.92-6.771,0.131c-1.603,1.314-2.321,2.098-4.652,1.04c-0.795-0.361-1.437-1.026-2.24-1.389
					c-1.042-0.471-2.217-0.648-3.301-0.199c-0.575,0.238-1.02,0.593-1.426,1.065c-0.195,0.227-0.587,1.161-0.851,1.291
					c-1.174,0.581-2.33-1.862-3.473-2.258c-1.183-0.41-1.826,0.065-2.819,0.595c-2.492,1.329-4.255,0.764-6.738-0.177
					c-1.388-0.526-2.813-1.08-4.323-1.012c-1.771,0.08-2.942,1.101-4.368,2.018c-0.552,0.355-1.213,0.937-1.853,1.004
					c-1.054,0.11-2.766-0.854-3.456-1.473c-0.368-0.33-0.592-0.757-1.036-1.014c-1.148-0.665-2.455-0.297-3.563,0.252
					c-1.389,0.688-2.632,2.264-4.447,1.79c-0.983-0.257-1.703-1.115-2.467-1.732c-0.986-0.796-2.015-1.489-3.335-1.379
					c-1.328,0.11-2.385,0.989-3.494,1.624c-2.473,1.414-4.225,0.447-6.372-0.924c-0.997-0.637-2.037-1.338-3.225-1.553
					c-0.521-0.094-1.013-0.096-1.529,0.008c-0.99,0.199-4.359,0.612-2.182-0.998c3.119-2.308,6.558-4.216,9.992-6.008
					c1.911-0.997,3.987-1.813,5.727-3.101c2.939-2.176,5.336-5.118,7.743-7.838c6.285-7.105,11.895-14.611,16.629-22.849
					c0.321-0.559-0.543-1.063-0.863-0.505c-4.766,8.292-10.429,15.825-16.761,22.972c-2.419,2.73-4.879,5.842-7.966,7.86
					c-1.734,1.133-3.73,1.918-5.558,2.883c-3.463,1.829-7.089,3.748-10.133,6.234c-1.783,1.456-1.661,3.748,1.14,3.3
					c0.964-0.154,1.695-0.899,2.698-0.984c1.237-0.105,2.262,0.488,3.282,1.118c1.258,0.778,2.487,1.771,3.966,2.091
					c1.327,0.287,2.452-0.035,3.625-0.666c0.907-0.488,1.774-1.304,2.795-1.553c1.978-0.482,2.953,0.958,4.277,1.974
					c0.967,0.742,1.98,1.259,3.238,1.061c2.572-0.405,4.946-3.962,7.326-1.03c2.379,2.932,4.899,1.052,7.506-0.556
					c4.388-2.706,7.624,1.812,12.031,1.05c0.68-0.118,1.081-0.391,1.7-0.673c1.097-0.499,0.338-0.562,2.039-0.412
					c1.607,0.142,1.065-0.111,2.01,0.961c0.571,0.648,1.188,1.505,2.163,1.216c1.023-0.303,1.23-1.668,1.988-2.29
					c2.521-2.069,4.694,1.362,7.1,1.732c1.258,0.194,2.262-0.316,3.238-1.061c0.747-0.57,1.397-1.436,2.279-1.792
					c1.981-0.801,3.242,0.52,4.792,1.372c2.921,1.605,5.047,0.149,7.591-1.424c1.017-0.629,2.043-1.223,3.282-1.118
					c1.001,0.085,1.734,0.845,2.698,0.984c0.927,0.133,2.152,0.024,2.478-1.055c0.325-1.074-0.685-1.796-1.439-2.323
					c-2.266-1.586-4.673-2.974-6.935-4.575c-4.46-3.157-8.71-6.608-12.721-10.32c-7.964-7.371-14.913-15.773-20.661-24.975
					C116.356,212.428,115.491,212.93,115.833,213.478L115.833,213.478z"/>
			</g>
		</g>
		<g>
			<g>
				<path d="M121.162,258.615c0.643,0,0.645-1,0-1C120.518,257.615,120.517,258.615,121.162,258.615L121.162,258.615z"/>
			</g>
		</g>
		<g>
			<g>
				<path d="M100.799,149.995c5.767-3.564,12.927-3.473,18.735,0c0.554,0.331,1.057-0.533,0.505-0.863
					c-6.094-3.645-13.686-3.744-19.744,0C99.748,149.469,100.249,150.334,100.799,149.995L100.799,149.995z"/>
			</g>
		</g>
		<g>
			<g>
				<path d="M100.799,152.565c5.767-3.564,12.927-3.473,18.735,0c0.554,0.331,1.057-0.533,0.505-0.863
					c-6.094-3.645-13.686-3.744-19.744,0C99.748,152.039,100.249,152.904,100.799,152.565L100.799,152.565z"/>
			</g>
		</g>
		<g>
			<path fill="#EFD8DB" d="M119.449,151.587c-0.882-0.61-2.234-1.409-4.037-1.99c-0.768-0.247-1.388-0.382-1.701-0.444
				c-3.543-0.707-6.468,0.036-7.602,0.337c-0.828,0.22-1.501,0.464-1.928,0.619c-1.384,0.503-2.485,1.031-3.246,1.429
				c-0.064-0.262-0.12-0.593-0.127-0.977c-0.006-0.35,0.029-0.657,0.076-0.905c0.614-0.411,1.508-0.941,2.663-1.406
				c2.006-0.808,3.69-0.972,4.793-1.072c1.229-0.111,3.301-0.281,5.732,0.357c0.805,0.211,1.487,0.469,1.969,0.651
				c1.453,0.549,2.604,1.137,3.408,1.589c0.056,0.247,0.104,0.562,0.101,0.929C119.548,151.051,119.503,151.35,119.449,151.587z"/>
			<g>
				<path d="M119.701,151.155c-5.983-3.972-12.882-3.175-19.019-0.048c0.245,0.1,0.49,0.199,0.735,0.299
					c-0.629-3.285,6.008-3.742,8.316-3.819c2.104-0.07,9.786,0.715,9.234,3.867c-0.11,0.629,0.853,0.9,0.964,0.266
					c0.367-2.093-0.169-2.44-2.042-3.298c-2.598-1.19-5.281-1.93-8.156-1.835c-2.349,0.078-4.686,0.457-6.847,1.412
					c-2.128,0.941-2.878,1.354-2.434,3.673c0.064,0.335,0.469,0.434,0.734,0.299c5.815-2.963,12.33-3.723,18.01,0.048
					C119.734,152.376,120.235,151.51,119.701,151.155z"/>
			</g>
		</g>
		<g>
			<g>
				<path d="M99.806,149.342c-0.519,3.429-0.671,7.034,0.747,10.282c0.559,1.281,1.355,2.227,2.187,3.327
					c2.401,3.172,1.033,6.796-0.674,9.918c-4.229,7.734-5.53,15.699-2.435,24.156c1.5,4.099,3.83,7.542,4.155,11.992
					c0.366,5.019-0.88,10.071-2.511,14.779c-3.34,9.639-8.63,18.568-14.164,27.086c-0.352,0.541,0.514,1.043,0.863,0.505
					c4.964-7.641,9.639-15.568,13.037-24.046c2.005-5.002,3.647-10.33,3.819-15.756c0.11-3.455-0.508-6.732-2.015-9.841
					c-4.199-8.666-5.609-17.702-0.902-26.556c1.988-3.739,4.767-8.204,2.016-12.324c-1.049-1.572-2.215-2.748-2.824-4.581
					c-0.929-2.799-0.77-5.799-0.335-8.673C100.865,148.979,99.902,148.707,99.806,149.342L99.806,149.342z"/>
			</g>
		</g>
	</g>
	<g>
		<g>
			<path d="M302.8,117.158c1.129,5.869,6.041,11.953,12.612,11.308c7.313-0.717,9.261-9.894,7.864-15.77
				c-0.149-0.626-1.113-0.361-0.964,0.266c1.317,5.542-0.646,14.676-7.884,14.545c-5.749-0.104-9.667-5.438-10.663-10.615
				C303.643,116.26,302.679,116.528,302.8,117.158L302.8,117.158z"/>
		</g>
	</g>
	<g>
		<g>
			<path d="M317.053,127.398c-0.436,2.427,0.262,4.831,1.997,6.595c0.452,0.46,1.159-0.248,0.707-0.707
				c-1.468-1.493-2.111-3.555-1.74-5.622C318.131,127.035,317.167,126.765,317.053,127.398L317.053,127.398z"/>
		</g>
	</g>
	<g>
		<g>
			<path d="M310.194,104.761c-1.019,2.157-2.931,3.365-4.476,5.095c-1.213,1.357-2.044,2.987-2.531,4.737
				c-1.208,4.336-0.258,8.857,0.84,13.106c0.161,0.623,1.126,0.359,0.964-0.266c-1.117-4.32-2.123-8.99-0.601-13.348
				c1.308-3.746,5.034-5.361,6.668-8.819C311.331,104.687,310.469,104.179,310.194,104.761L310.194,104.761z"/>
		</g>
	</g>
	<g>
		<g>
			<path d="M322.946,142.87c1.487,5.384,4.335,10.217,8.907,13.532c1.017,0.737,1.814,0.818,2.907,1.238
				c1.106,0.425,1.596,1.609,2.647,2.148c0.734,0.377,1.142,0.456,1.367-0.455c0.516-2.09-1.608-3.789-3.18-4.439
				c-1.415-0.585-2.271-0.936-3.262-2.129c-1.328-1.599-2.666-3.324-3.538-5.222c-1.571-3.418-1.437-7.161-2.011-10.793
				c-0.342-2.163-1.909-2.606-3.792-3.544c-0.574-0.286-1.081,0.576-0.505,0.863c1.108,0.552,2.769,1.078,3.235,2.335
				c0.298,0.804,0.194,1.968,0.282,2.811c0.252,2.427,0.505,4.961,1.304,7.278c1.138,3.3,3.834,7.662,6.967,9.263
				c0.88,0.45,2.116,0.21,2.851,1.361c0.024,0.038,0.493,1.697,0.637,1.684c-0.462,0.044-1.293-1.36-1.69-1.637
				c-1.268-0.887-2.843-0.96-4.148-1.957c-4.113-3.143-6.651-7.673-8.012-12.603C323.739,141.985,322.774,142.248,322.946,142.87
				L322.946,142.87z"/>
		</g>
	</g>
	<g>
		<g>
			<path d="M308.558,166.627c0.643,0,0.645-1,0-1C307.915,165.627,307.914,166.627,308.558,166.627L308.558,166.627z"/>
		</g>
	</g>
	<g>
		<g>
			<path d="M315.395,107.123c4.304-2.596,7.49,2.423,7.919,6.115c0.073,0.632,1.074,0.639,1,0c-0.289-2.489-1.172-5.072-3.27-6.615
				c-1.825-1.343-4.207-1.538-6.155-0.364C314.34,106.592,314.842,107.457,315.395,107.123L315.395,107.123z"/>
		</g>
	</g>
	<g>
		<g>
			<path d="M327.009,150.807c0.757-0.428,1.515-0.855,2.272-1.283c0.56-0.316,0.057-1.181-0.505-0.863
				c-0.757,0.428-1.515,0.855-2.272,1.283C325.943,150.26,326.447,151.125,327.009,150.807L327.009,150.807z"/>
		</g>
	</g>
	<g>
		<g>
			<path d="M314.424,105.937c3.751-1.356,7.098,1.297,8.281,4.797c1.124,3.326,0.497,6.837-0.483,10.11
				c-0.185,0.618,0.78,0.882,0.964,0.266c1.243-4.151,1.868-8.894-0.499-12.789c-1.797-2.957-5.192-4.555-8.529-3.348
				C313.558,105.19,313.817,106.156,314.424,105.937L314.424,105.937z"/>
		</g>
	</g>
	<g>
		<g>
			<path d="M315.999,108.511c0.688,1.08,1.584,1.962,2.763,2.494c1.39,0.627,3.267,0.276,4.293,1.547
				c0.404,0.501,1.108-0.211,0.707-0.707c-0.772-0.956-1.796-1.135-2.958-1.316c-1.702-0.265-3.006-1.052-3.942-2.523
				C316.518,107.465,315.652,107.966,315.999,108.511L315.999,108.511z"/>
		</g>
	</g>
	<g>
		<g>
			<path d="M309.609,106.018c-4.813,4.399-8.139,8.668-7.978,15.353c0.172,7.14,2.338,14.106,5.576,20.425
				c0.294,0.573,1.157,0.068,0.863-0.505c-3.047-5.948-5.089-12.442-5.411-19.147c-0.102-2.133-0.06-4.336,0.616-6.382
				c1.229-3.718,4.232-6.472,7.04-9.038C310.792,106.29,310.083,105.584,309.609,106.018L309.609,106.018z"/>
		</g>
	</g>
	<g>
		<g>
			<path d="M306.899,124.921c0.082,2.843,0.486,5.64,1.215,8.389c0.165,0.621,1.13,0.358,0.964-0.266
				c-0.707-2.664-1.1-5.368-1.179-8.123C307.881,124.279,306.88,124.276,306.899,124.921L306.899,124.921z"/>
		</g>
	</g>
	<g>
		<g>
			<path d="M309.295,126.804c0.819,1.942,0.754,3.867,0.166,5.851c-0.183,0.618,0.782,0.882,0.964,0.266
				c0.637-2.15,0.722-4.277-0.166-6.383C310.013,125.954,309.045,126.211,309.295,126.804L309.295,126.804z"/>
		</g>
	</g>
	<g>
		<g>
			<path d="M311.681,127.775c0.248,1.207,0.67,2.813-0.381,3.749c-0.482,0.429,0.228,1.134,0.707,0.707
				c1.361-1.212,0.964-3.139,0.638-4.722C312.516,126.88,311.552,127.146,311.681,127.775L311.681,127.775z"/>
		</g>
	</g>
	<g>
		<g>
			<path d="M318.896,126.115c-0.712,2.176-0.939,4.397-0.676,6.673c0.073,0.632,1.074,0.639,1,0
				c-0.252-2.188-0.045-4.312,0.641-6.407C320.061,125.768,319.096,125.505,318.896,126.115L318.896,126.115z"/>
		</g>
	</g>
	<g>
		<g>
			<path d="M314.857,107.253c3.104,0.188,5.8,1.565,7.894,3.843c0.436,0.475,1.142-0.234,0.707-0.707
				c-2.27-2.469-5.247-3.933-8.602-4.136C314.214,106.214,314.217,107.215,314.857,107.253L314.857,107.253z"/>
		</g>
	</g>
	<g>
		<g>
			<path d="M316.828,180.92c1.778,15.805,5.585,31.292,11.439,46.084c0.234,0.591,1.202,0.334,0.964-0.266
				c-5.82-14.703-9.636-30.105-11.404-45.818C317.757,180.288,316.756,180.281,316.828,180.92L316.828,180.92z"/>
		</g>
	</g>
	<g>
		<g>
			<path d="M288.777,224.35c8.84-10.459,14.792-22.996,17.648-36.371c0.134-0.628-0.83-0.896-0.964-0.266
				c-2.819,13.201-8.663,25.602-17.391,35.929C287.656,224.132,288.36,224.843,288.777,224.35L288.777,224.35z"/>
		</g>
	</g>
	<g>
		<g>
			<path d="M306.503,229.776c2.15-7.916,3.816-15.94,5.002-24.057c0.092-0.63-0.871-0.901-0.964-0.266
				c-1.185,8.116-2.851,16.141-5.002,24.057C305.37,230.132,306.334,230.398,306.503,229.776L306.503,229.776z"/>
		</g>
	</g>
	<g>
		<path fill="#EFD5DF" d="M251.607,233.278c7.399-3.462,15.717,3.072,23.698,2.006c4.434-0.592,8.444-3.513,12.903-3.802
			c6.048-0.392,11.678,4.11,17.73,3.818c6.32-0.305,12.333-5.8,18.392-3.795c2.04,0.675,3.788,2.151,5.787,2.962
			c3.179,1.29,6.775,0.789,9.921-0.592c3.147-1.381,5.933-3.581,8.683-5.759c-0.138-0.165-0.275-0.331-0.413-0.496
			c-15.301-30.856-19.188-41.146-19.665-44.512c-0.072-0.505-0.642-4.455-1.815-9.847c-0.253-1.162-0.535-2.316-0.862-3.457
			c-1.242-4.334-3.209-8.546-6.343-11.503c-0.316,0.306-1.893,1.771-4.26,1.65c-2.312-0.118-3.74-1.666-4.043-2.009
			c0.361,0.384,1.764,1.783,3.95,1.901c1.717,0.093,2.981-0.656,3.464-0.979c0.296-0.188,0.592-0.375,0.888-0.563
			c-0.036,0.014-0.164,0.057-0.274-0.012c-0.144-0.091-0.209-0.345-0.108-0.594l0.022,0.819c-0.203-5.127,0.909-8.577,2.026-10.83
			c0.779-1.571,2.939-5.344,2.474-8.097c-0.061-0.361-0.222-1.319-0.887-1.678c-0.453-0.245-1.043-0.158-1.165-0.14
			c-0.395,0.058-0.677,0.22-0.827,0.285l-2.489,2.148c-0.029,0.014-0.075,0.035-0.133,0.059c-1.436,0.593-3.034-0.158-3.677-0.45
			c-0.41-0.186-0.501-0.28-1.072-0.616c-2.105-1.241-3.644-2.149-4.738-1.701c-1.287,0.527-1.593,2.785-1.668,3.511
			c1.06,2.802,2.099,6.063,2.941,9.747c0.587,2.57,0.997,4.99,1.281,7.217c-0.647,0.636-1.278,1.288-1.893,1.955
			c-0.097,0.106-0.194,0.211-0.29,0.317"/>
		<g>
			<path d="M251.859,233.709c6.602-2.805,13.441,1.535,20.062,2.118c7.25,0.639,13.11-5.147,20.432-3.434
				c3.257,0.762,6.29,2.269,9.556,2.999c2.909,0.65,5.67,0.418,8.493-0.495c2.957-0.956,5.758-2.458,8.821-3.074
				c4.351-0.874,6.89,1.549,10.642,3.075c7.108,2.892,13.925-2.249,19.21-6.429c0.225-0.178,0.156-0.52,0-0.707
				c-1.429-1.717-2.286-4.34-3.271-6.35c-0.885-1.805-1.766-3.612-2.641-5.421c-1.503-3.105-2.991-6.217-4.454-9.34
				c-2.063-4.402-4.093-8.824-5.979-13.306c-1.89-4.494-3.273-8.692-4.099-13.468c-1.338-7.741-2.832-16.18-8.653-21.931
				c-0.197-0.195-0.508-0.186-0.707,0c-2.232,2.083-5.549,1.878-7.595-0.359c-0.236,0.236-0.471,0.471-0.707,0.707
				c2.657,2.704,5.939,2.319,8.908,0.437c0.424-0.269,0.246-0.91-0.252-0.932c0.039-0.035,0.079-0.07,0.118-0.105
				c-0.333,0-0.667,0-1,0c0.007,0.273,0.014,0.546,0.022,0.819c0.017,0.642,1.016,0.645,1,0c-0.09-3.67,0.37-7.241,1.958-10.577
				c0.995-2.09,2.2-4.135,2.519-6.471c0.219-1.603,0.065-4.036-2.004-4.217c-1.721-0.15-2.359,1.376-3.656,2.135
				c-2.992,1.749-5.442-1.659-8.246-2.359c-1.947-0.486-3.016,0.77-3.486,2.555c-0.663,2.52,1.137,5.339,1.818,7.762
				c0.59,2.098,1.087,4.225,1.489,6.367c0.156,0.834,0.43,1.835,0.455,2.686c0.055,1.891-0.716,2.289-1.817,3.491
				c-0.434,0.474,0.271,1.183,0.707,0.707c0.637-0.696,2.043-1.609,2.311-2.492c0.213-0.701-0.262-2.159-0.375-2.85
				c-0.544-3.325-1.307-6.615-2.294-9.837c-0.47-1.533-1.56-3.433-1.441-5.058c0.072-0.99,0.431-1.152,1.317-1.708
				c1.295-0.813,1.557-0.504,2.768,0.125c1.809,0.939,3.619,2.481,5.816,2.171c1.354-0.191,1.832-1.226,2.928-1.927
				c4.277-2.734,2.084,4.795,1.373,6.32c-2.043,4.377-3.261,8.242-3.141,13.177c0.333,0,0.667,0,1,0
				c-0.007-0.273-0.014-0.546-0.022-0.819c-0.017-0.657-0.932-0.628-1,0c-0.074,0.687,0.193,1.076,0.882,1.105
				c-0.084-0.311-0.168-0.621-0.252-0.932c-2.549,1.616-5.352,2.105-7.696-0.281c-0.454-0.462-1.14,0.234-0.707,0.707
				c1.432,1.566,3.516,2.418,5.636,2.068c1.068-0.176,1.942-1.112,2.88-1.285c0.664-0.123-0.016-0.248,0.586,0.39
				c0.848,0.9,1.58,1.914,2.227,2.966c3.75,6.09,4.661,13.562,5.818,20.489c0.776,4.647,2.945,9.113,4.808,13.398
				c2.233,5.135,4.605,10.21,7.015,15.264c1.647,3.454,3.317,6.897,5.002,10.333c0.476,0.971,0.953,1.941,1.431,2.911
				c0.33,0.669,1.639,2.395,1.506,3.045c-0.248,1.202-3.522,2.967-4.687,3.713c-4.203,2.691-9.193,4.269-13.92,1.928
				c-3.125-1.547-5.468-3.293-9.131-2.855c-3.258,0.389-6.227,1.962-9.288,3.031c-4.217,1.474-7.941,1.148-12.122-0.283
				c-3.695-1.265-7.427-2.856-11.418-2.333c-4.572,0.599-8.481,3.52-13.13,3.806c-7.795,0.479-15.091-5.321-22.825-2.035
				C250.764,233.097,251.273,233.958,251.859,233.709L251.859,233.709z"/>
		</g>
	</g>
	<g>
		<path fill="#FFFFFF" d="M313.526,128.062c0.023,0.543-0.006,1.737-0.739,2.793c-0.504,0.727-1.146,1.106-1.616,1.385
			c-0.617,0.365-1.136,0.522-1.738,0.71c-0.812,0.254-1.51,0.373-2.003,0.433c-0.589,0.36-3.143,1.993-3.82,4.684
			c-0.233,0.927-0.246,1.941-0.246,1.941c-0.012,0.951,0.137,1.671,0.493,3.147c0.373,1.548,0.559,2.322,0.739,2.937
			c1.135,3.884,0.803,5.667,2.154,11.295c0.665,2.774,0.918,3.057,1.063,4.497c0.012,0.122,0.118,1.195,0.55,2.505
			c0.268,0.813,0.486,1.182,0.721,1.48c0.479,0.608,2.521,1.536,2.79,1.366c0.24-0.152,0.39-1.487,0.209-2.031
			c-0.074-0.221-0.222-0.598-0.645-1.196c-0.366-0.517-0.672-0.824-0.835-1.006c-0.573-0.636-0.81-1.287-1.186-2.351
			c-0.479-1.356-0.735-2.662-0.997-4.682c-0.291-2.248-0.389-3.777-0.389-3.777c0-7.651-0.904-8.206-0.555-10.202
			c0.197-1.124,0.616-2.773,1.628-4.701"/>
		<g>
			<path d="M313.026,128.062c0.026,4.589-4.51,3.678-7.051,5.744c-1.903,1.547-3.06,3.642-3.109,6.116
				c-0.054,2.743,1.125,5.45,1.707,8.098c0.691,3.146,0.94,6.361,1.694,9.501c0.565,2.353,0.871,5.091,1.74,7.342
				c0.456,1.18,2.349,3.391,3.866,2.874c1.259-0.429,0.8-2.56,0.334-3.452c-0.813-1.558-1.964-2.579-2.502-4.344
				c-0.597-1.957-0.822-4.023-1.026-6.05c-0.3-2.968-0.174-5.951-0.558-8.917c-0.357-2.754,0.14-4.846,1.414-7.429
				c0.284-0.575-0.579-1.083-0.863-0.505c-0.889,1.804-1.762,3.823-1.777,5.871c-0.01,1.391,0.344,2.804,0.458,4.189
				c0.408,4.953-0.358,11.268,2.444,15.672c0.522,0.821,2.624,2.536,1.742,3.617c-1.112,1.362-2.891-2.681-3.07-3.543
				c-0.452-2.176-0.959-4.319-1.446-6.494c-0.618-2.754-0.85-5.565-1.427-8.323c-0.552-2.644-1.793-5.382-1.728-8.107
				c0.046-1.94,0.851-3.578,2.238-4.902c1.237-1.181,2.492-1.211,4.043-1.774c2.368-0.86,3.894-2.602,3.879-5.183
				C314.022,127.419,313.022,127.418,313.026,128.062L313.026,128.062z"/>
		</g>
	</g>
	<g>
		<g>
			<path d="M306.123,152.376c0.668,0.067,1.322,0.034,1.984-0.07c0.634-0.099,0.365-1.063-0.266-0.964
				c-0.57,0.089-1.145,0.091-1.718,0.034C305.484,151.312,305.488,152.312,306.123,152.376L306.123,152.376z"/>
		</g>
	</g>
	<g>
		<g>
			<path d="M311.834,108.14c-2.069,2.555-4.854,4.431-6.821,7.069c-1.952,2.618-2.399,5.449-2.02,8.646
				c0.897,7.563,3.667,14.951,6.698,21.886c0.257,0.588,1.119,0.08,0.863-0.505c-2.733-6.253-5.023-12.724-6.248-19.453
				c-0.707-3.884-0.656-7.395,1.963-10.557c1.909-2.305,4.384-4.048,6.272-6.38C312.943,108.351,312.24,107.639,311.834,108.14
				L311.834,108.14z"/>
		</g>
	</g>
	<g>
		<path fill="#FFFFFF" d="M322.983,113.616c-0.002-0.097-0.011-0.213-0.037-0.341c-0.038-0.186-0.098-0.337-0.151-0.447
			c-4.211-0.41-6.385-1.956-7.598-3.358c-1.139-1.317-2.064-2.831-4.175-4.362c-0.999-0.725-1.957-1.016-2.855-0.984
			c-3.545,0.129-6.062,7.007-6.634,8.585c-4.304,11.875,6.192,29.224,8.491,32.902l0.358,0.081
			c-0.384-0.893-0.959-2.279-1.583-3.999c-0.531-1.462-2.659-7.473-3.67-16.213c-0.548-4.736-0.209-5.926,0.299-7.008
			c0.93-1.98,2.8-3.215,4.464-4.544c2.071-1.653,2.815-3.936,3.411-5.298"/>
		<g>
			<path d="M323.483,113.616c-0.045-0.415-0.063-0.498-0.206-0.921c-0.079-0.232-0.249-0.339-0.482-0.367
				c-2.249-0.27-4.54-0.82-6.322-2.303c-1.224-1.019-2.053-2.422-3.149-3.565c-1.69-1.76-4.169-3.668-6.688-2.426
				c-3.836,1.891-5.973,8.379-6.464,12.321c-0.8,6.422,1.282,13.013,3.795,18.838c1.101,2.552,2.352,5.04,3.718,7.46
				c0.564,1,1.342,3.244,2.565,3.522c0.46,0.105,0.733-0.34,0.565-0.734c-2.769-6.501-4.479-13.384-5.234-20.41
				c-0.352-3.276-0.589-5.992,1.899-8.476c1.382-1.38,3.119-2.304,4.305-3.887c0.863-1.152,1.394-2.469,1.951-3.783
				c0.248-0.586-0.613-1.096-0.863-0.505c-0.837,1.973-1.661,3.768-3.332,5.196c-1.394,1.191-2.952,2.171-3.998,3.718
				c-1.566,2.317-1.248,5.078-0.962,7.736c0.776,7.217,2.528,14.24,5.371,20.915c0.188-0.245,0.376-0.49,0.565-0.734
				c-0.794-0.18-1.809-2.775-2.192-3.464c-1.176-2.11-2.265-4.271-3.241-6.481c-2.41-5.462-4.443-11.598-4.03-17.645
				c0.17-2.493,0.874-4.825,1.887-7.094c0.924-2.069,2.573-5.768,5.228-5.903c3.639-0.185,5.493,4.515,7.976,6.407
				c0.66,0.503,1.381,0.902,2.142,1.227c0.602,0.258,4.139,0.822,4.198,1.358C322.552,114.249,323.552,114.257,323.483,113.616
				L323.483,113.616z"/>
		</g>
	</g>
	<g>
		<path fill="#FFFFFF" d="M322.438,121.423c0.133,2.013,0.044,3.627-0.071,4.756c-0.147,1.44-0.415,2.867-0.521,3.439
			c-0.084,0.452-0.18,0.93-0.292,1.439c-0.409,1.867-0.837,3.281-0.932,3.593c-0.155,0.508-0.277,0.876-0.382,1.175
			c0,0-0.086,0.246-0.454,1.249l0,0c-0.403,2.776-0.503,4.395-0.513,5.38c-0.002,0.201-0.016,2.035-0.016,2.035l0,0
			c2.874-7.416,4.835-15.232,5.816-23.186c0.386-3.127,0.618-6.33-0.007-9.413c-0.438-2.159-1.5-5.951-4.76-7.671
			c-3.594-1.896-7.653,0.348-8.244,0.673"/>
		<g>
			<path d="M321.938,121.423c0.249,4.741-0.585,9.52-2.093,14.014c-0.983,2.93-1.063,5.977-1.087,9.052
				c-0.005,0.595,0.789,0.637,0.982,0.133c2.028-5.31,3.628-10.764,4.723-16.344c1.015-5.173,2.076-10.802,1.167-16.057
				c-0.527-3.048-1.772-6.338-4.485-8.088c-2.885-1.86-6.47-1.229-9.335,0.327c-0.566,0.307-0.061,1.171,0.505,0.863
				c3.562-1.935,7.926-1.877,10.384,1.761c2.111,3.125,2.406,7.28,2.191,10.915c-0.531,8.975-2.915,17.986-6.113,26.356
				c0.327,0.044,0.655,0.089,0.982,0.133c0.026-3.427,0.391-6.546,1.384-9.829c1.297-4.287,2.032-8.756,1.796-13.237
				C322.904,120.783,321.904,120.779,321.938,121.423L321.938,121.423z"/>
		</g>
	</g>
	<g>
		<g>
			<path d="M315.266,105.579c1.504,0.206,3.121,0.41,4.462,1.181c1.914,1.101,2.549,3.149,2.935,5.188
				c0.765,4.038,1.071,8.197,1.241,12.299c0.027,0.641,1.027,0.645,1,0c-0.196-4.726-0.214-10.282-1.831-14.796
				c-1.224-3.417-4.207-4.379-7.542-4.835C314.903,104.528,314.63,105.492,315.266,105.579L315.266,105.579z"/>
		</g>
	</g>
	<g>
		<g>
			<path d="M312.084,107.774c-1.599,2.53-4.433,3.754-6.198,6.128c-1.308,1.759-1.982,3.911-2.242,6.068
				c-0.77,6.391,2.258,12.483,3.442,18.629c0.122,0.631,1.086,0.364,0.964-0.266c-1.158-6.012-4.14-11.986-3.404-18.228
				c0.342-2.902,1.514-5.454,3.749-7.377c1.653-1.422,3.367-2.576,4.552-4.449C313.292,107.733,312.427,107.231,312.084,107.774
				L312.084,107.774z"/>
		</g>
	</g>
	<g>
		<g>
			<path d="M308.843,106.554c-5.799,0.988-7.641,9.812-7.23,14.609c0.571,6.66,1.711,13.986,5.96,19.362
				c0.399,0.505,1.102-0.207,0.707-0.707c-3.613-4.571-4.559-10.404-5.342-16.018c-0.423-3.035-0.645-5.998,0.27-8.974
				c0.869-2.824,2.661-6.757,5.899-7.308C309.742,107.41,309.473,106.446,308.843,106.554L308.843,106.554z"/>
		</g>
	</g>
	<g>
		<g>
			<path d="M314.334,107.703c4.584,3.349,7.629,8.162,9.078,13.621c0.165,0.621,1.13,0.358,0.964-0.266
				c-1.52-5.727-4.736-10.711-9.537-14.218C314.318,106.46,313.819,107.327,314.334,107.703L314.334,107.703z"/>
		</g>
	</g>
	<g>
		<g>
			<path d="M316.117,107.301c3.45,2.702,5.827,6.315,7.116,10.494c0.189,0.613,1.155,0.352,0.964-0.266
				c-1.337-4.331-3.792-8.129-7.373-10.935C316.323,106.201,315.61,106.904,316.117,107.301L316.117,107.301z"/>
		</g>
	</g>
	<g>
		<g>
			<path d="M319.948,125.236c0.182,4.093-0.065,8.136-0.768,12.175c-0.109,0.629,0.854,0.9,0.964,0.266
				c0.718-4.125,0.99-8.256,0.804-12.44C320.919,124.595,319.919,124.591,319.948,125.236L319.948,125.236z"/>
		</g>
	</g>
	<g>
		<g>
			<path d="M319.161,134.053c0.263,0.122,0.528,0.235,0.799,0.338c0.044-0.327,0.089-0.655,0.133-0.982
				c-0.014,0-0.028,0.001-0.042,0.001c-0.642,0.019-0.645,1.02,0,1c0.014,0,0.028-0.001,0.042-0.001
				c0.588-0.018,0.647-0.785,0.133-0.982c-0.19-0.073-0.375-0.152-0.56-0.238C319.086,132.92,318.577,133.782,319.161,134.053
				L319.161,134.053z"/>
		</g>
	</g>
	<g>
		<g>
			<path d="M306.515,152.408c0.643,0,0.645-1,0-1C305.871,151.408,305.87,152.408,306.515,152.408L306.515,152.408z"/>
		</g>
	</g>
	<g>
		<path fill="#EFD5DF" d="M307.551,162.07c-11.544,16.215-37.01,47.713-37.01,47.713c-6.865,7.899-12.142,13.198-15.528,16.818
			c-0.874,0.935-5.062,5.624-4.181,6.745c0.638,0.812,3.373-0.966,8.095-0.715c1.502,0.08,2.714,0.339,3.473,0.534"/>
		<g>
			<path d="M307.12,161.817c-9.308,13.046-19.341,25.591-29.325,38.121c-2.504,3.142-4.968,6.328-7.544,9.412
				c-5.212,6.242-11.19,11.781-16.506,17.917c-0.936,1.08-4.796,4.92-3.194,6.493c0.653,0.642,1.959,0.136,2.689-0.024
				c3.058-0.67,5.953-0.832,9.028-0.091c0.625,0.151,0.892-0.813,0.266-0.964c-1.986-0.479-4.011-0.679-6.052-0.509
				c-0.822,0.069-1.637,0.204-2.445,0.365c-0.467,0.093-1.885,0.685-2.377,0.495c-1.396-0.54,3.713-6.091,4.708-7.143
				c5.02-5.299,10.207-10.504,14.844-16.148c7.439-9.054,14.65-18.313,21.832-27.57c5.076-6.542,10.129-13.11,14.939-19.852
				C308.357,161.797,307.491,161.297,307.12,161.817L307.12,161.817z"/>
		</g>
	</g>
	<g>
		<g>
			<path d="M310.165,132.972c2.303,2.989,9.125,6.763,9.854,0.597c0.075-0.638-0.925-0.632-1,0
				c-0.573,4.847-6.354,1.022-7.991-1.102C310.641,131.964,309.772,132.462,310.165,132.972L310.165,132.972z"/>
		</g>
	</g>
	<g>
		<g>
			<path d="M262.085,233.121c3.679-2.455,7.034-5.338,9.771-8.827c2.235-2.849,3.597-6.002,5.238-9.189
				c1.923-3.736,4.529-6.962,7.164-10.206c2.966-3.651,5.673-7.511,8.222-11.463c0.35-0.542-0.515-1.044-0.863-0.505
				c-2.552,3.956-5.261,7.824-8.239,11.473c-2.378,2.914-4.741,5.821-6.575,9.124c-1.643,2.958-2.811,6.113-4.784,8.888
				c-2.802,3.943-6.429,7.165-10.438,9.84C261.047,232.613,261.547,233.48,262.085,233.121L262.085,233.121z"/>
		</g>
	</g>
	<g>
		<g>
			<path d="M291.332,231.905c0.522-11.783,6.843-22.113,9.903-33.325c0.17-0.622-0.795-0.887-0.964-0.266
				c-3.089,11.319-9.41,21.686-9.938,33.591C290.303,232.548,291.303,232.547,291.332,231.905L291.332,231.905z"/>
		</g>
	</g>
	<g>
		<g>
			<path d="M322.132,230.884c0.505-5.57,0.726-11.14,1.082-16.718c0.15-2.345,0.677-4.619,1.087-6.927
				c0.54-3.046,0.578-6.127,0.229-9.197c-0.072-0.632-1.073-0.639-1,0c0.383,3.367,0.246,6.663-0.395,9.991
				c-0.392,2.037-0.789,4.06-0.921,6.133c-0.354,5.578-0.577,11.148-1.082,16.718C321.074,231.525,322.075,231.521,322.132,230.884
				L322.132,230.884z"/>
		</g>
	</g>
	<g>
		<g>
			<path d="M317.881,159.783c2.277,2.185,2.896,5.92,3.658,8.874c0.798,3.091,1.425,6.219,1.927,9.371
				c0.101,0.634,1.065,0.365,0.964-0.266c-0.602-3.783-1.393-7.528-2.423-11.219c-0.74-2.653-1.368-5.499-3.419-7.467
				C318.124,158.63,317.416,159.336,317.881,159.783L317.881,159.783z"/>
		</g>
	</g>
	<g>
		<g>
			<path d="M313.346,159.228c-0.868,1.052-1.736,2.104-2.604,3.155c-0.407,0.493,0.297,1.204,0.707,0.707
				c0.868-1.052,1.736-2.104,2.605-3.155C314.46,159.442,313.756,158.731,313.346,159.228L313.346,159.228z"/>
		</g>
	</g>
	<g>
		<g>
			<path d="M308.201,165.312c-2.994,3.8-5.874,7.685-8.64,11.655c-0.369,0.529,0.498,1.03,0.863,0.505
				c2.717-3.899,5.542-7.719,8.483-11.452C309.302,165.519,308.599,164.806,308.201,165.312L308.201,165.312z"/>
		</g>
	</g>
	<g>
		<g>
			<path d="M315.516,160.14c-0.016,1.746-0.196,3.464-0.548,5.174c-0.129,0.628,0.834,0.897,0.964,0.266
				c0.37-1.797,0.567-3.605,0.584-5.44C316.522,159.496,315.522,159.495,315.516,160.14L315.516,160.14z"/>
		</g>
	</g>
	<g>
		<g>
			<path d="M309.115,117.832c0.643,0,0.645-1,0-1C308.471,116.832,308.47,117.832,309.115,117.832L309.115,117.832z"/>
		</g>
	</g>
	<g>
		<g>
			<path d="M319.056,117.713c0.009-0.05,0.017-0.1,0.026-0.15c0.109-0.629-0.854-0.9-0.964-0.266c-0.009,0.05-0.017,0.1-0.026,0.15
				C317.982,118.077,318.945,118.347,319.056,117.713L319.056,117.713z"/>
		</g>
	</g>
	<g>
		<g>
			<path d="M312.603,123.517c1.338,0.706,2.958,0.636,4.181-0.282c0.509-0.382,0.011-1.25-0.505-0.863
				c-0.938,0.704-2.123,0.835-3.171,0.282C312.539,122.354,312.033,123.216,312.603,123.517L312.603,123.517z"/>
		</g>
	</g>
	<g>
		
			<ellipse transform="matrix(0.1712 -0.9852 0.9852 0.1712 136.9588 405.4354)" fill="#EFD5DF" cx="309.462" cy="121.312" rx="1.34" ry="1.365"/>
	</g>
	<g>
		
			<ellipse transform="matrix(0.1712 -0.9852 0.9852 0.1712 145.1866 414.7504)" fill="#EFD5DF" cx="319.112" cy="121.079" rx="1.34" ry="1.365"/>
	</g>
</g>
<g>
	<g>
		<path fill="#EFD5DF" d="M167.836,172.387c4.645,2.35,9.591,3.359,14.606,1.605c0.604-0.211,0.344-1.178-0.266-0.964
			c-4.769,1.669-9.419,0.73-13.835-1.504C167.768,171.234,167.261,172.097,167.836,172.387L167.836,172.387z"/>
	</g>
</g>
<g>
	<g>
		<path fill="#EFD5DF" d="M182.606,169.721c-4.371,0.06-9.096-1.468-11.831-5.063c-0.385-0.506-1.253-0.008-0.863,0.505
			c2.959,3.89,7.925,5.624,12.694,5.559C183.249,170.712,183.251,169.712,182.606,169.721L182.606,169.721z"/>
	</g>
</g>
<g>
	<g>
		<path fill="#EFD5DF" d="M183.533,165.856c-3.153-0.685-7.282-2.853-8.381-6.118c-0.204-0.607-1.17-0.346-0.964,0.266
			c1.219,3.622,5.551,6.05,9.079,6.817C183.895,166.956,184.163,165.993,183.533,165.856L183.533,165.856z"/>
	</g>
</g>
<g>
	<g>
		<path d="M124.656,171.468c-0.162,0-0.278-0.054-0.348-0.102c-0.131-0.09-0.341-0.318-0.264-0.84l0.117-0.801
			c0.083-0.566-0.194-1.381-0.604-1.78l-0.541-0.525c-0.279-0.271-0.387-0.568-0.304-0.836c0.083-0.267,0.34-0.451,0.724-0.517
			l0.695-0.119c0.561-0.096,1.235-0.615,1.47-1.134l0.327-0.722c0.218-0.482,0.515-0.559,0.673-0.561
			c0.153-0.002,0.458,0.062,0.694,0.535l0.353,0.706c0.254,0.509,0.947,1.002,1.512,1.076l0.698,0.091
			c0.386,0.051,0.651,0.224,0.744,0.488s-0.003,0.564-0.272,0.846l-0.523,0.549c-0.394,0.414-0.64,1.24-0.536,1.802l0.147,0.795
			c0.096,0.519-0.105,0.755-0.233,0.85c-0.129,0.095-0.413,0.218-0.881-0.026l-0.643-0.334c-0.504-0.262-1.347-0.246-1.841,0.036
			l-0.632,0.361C124.974,171.427,124.797,171.468,124.656,171.468z M126.612,163.938c-0.001,0-0.002,0-0.002,0
			c-0.101,0.002-0.219,0.125-0.308,0.321l-0.327,0.722c-0.294,0.648-1.073,1.25-1.774,1.369l-0.695,0.119
			c-0.218,0.037-0.368,0.125-0.402,0.235c-0.034,0.109,0.04,0.267,0.199,0.421l0.541,0.525c0.508,0.494,0.826,1.431,0.723,2.133
			l-0.117,0.801c-0.032,0.217,0.002,0.383,0.09,0.443c0.088,0.061,0.255,0.032,0.446-0.078l0.632-0.361
			c0.619-0.353,1.6-0.373,2.232-0.044l0.643,0.334c0.194,0.101,0.362,0.123,0.449,0.06c0.086-0.064,0.114-0.231,0.074-0.447
			l-0.147-0.795c-0.128-0.697,0.154-1.646,0.642-2.159l0.523-0.549c0.152-0.16,0.22-0.32,0.182-0.428
			c-0.038-0.108-0.192-0.19-0.411-0.218l-0.698-0.091c-0.706-0.092-1.507-0.663-1.825-1.299l-0.353-0.706
			C126.834,164.056,126.713,163.938,126.612,163.938z"/>
	</g>
	<g>
		<path d="M141.43,178.094c-0.008,0-0.015,0-0.023,0c-0.157-0.007-0.453-0.09-0.659-0.577l-0.656-1.543
			c-0.223-0.524-0.884-1.061-1.444-1.171l-1.534-0.302c-0.382-0.075-0.635-0.265-0.711-0.534c-0.077-0.27,0.039-0.564,0.324-0.829
			l1.19-1.102c0.42-0.388,0.715-1.197,0.646-1.765l-0.207-1.685c-0.064-0.523,0.15-0.747,0.284-0.834
			c0.133-0.086,0.425-0.191,0.877,0.082l1.365,0.824c0.487,0.293,1.329,0.33,1.84,0.081l1.423-0.696
			c0.475-0.232,0.756-0.101,0.882-0.004c0.126,0.098,0.321,0.34,0.213,0.856l-0.346,1.658c-0.117,0.56,0.109,1.391,0.494,1.815
			l1.098,1.21c0.262,0.289,0.351,0.591,0.252,0.852s-0.368,0.428-0.755,0.468l-1.551,0.163c-0.567,0.06-1.27,0.535-1.537,1.039
			l-0.78,1.474C141.878,178.02,141.593,178.094,141.43,178.094z M138.972,168.068c-0.043,0-0.08,0.009-0.109,0.028
			c-0.089,0.058-0.127,0.223-0.1,0.44l0.207,1.685c0.087,0.704-0.253,1.632-0.773,2.115l-1.19,1.102
			c-0.162,0.15-0.24,0.306-0.209,0.416c0.031,0.111,0.18,0.202,0.397,0.245l1.534,0.302c0.698,0.137,1.463,0.758,1.741,1.412
			l0.656,1.543c0.084,0.198,0.199,0.324,0.3,0.328c0.112-0.002,0.227-0.111,0.327-0.302l0,0l0.78-1.474
			c0.333-0.629,1.148-1.18,1.856-1.254l1.551-0.163c0.22-0.023,0.375-0.101,0.416-0.207s-0.024-0.268-0.172-0.432l-1.098-1.21
			c-0.477-0.525-0.736-1.48-0.591-2.174l0.346-1.658c0.045-0.215,0.021-0.383-0.064-0.449c-0.085-0.066-0.254-0.048-0.451,0.048
			l-1.423,0.696c-0.641,0.313-1.62,0.27-2.231-0.099l-1.365-0.824C139.179,168.108,139.062,168.068,138.972,168.068z"/>
	</g>
	<g>
		<path d="M136.109,162.709c-0.008,0-0.015,0-0.022,0c-0.158-0.007-0.453-0.091-0.66-0.577l-0.656-1.543
			c-0.223-0.524-0.884-1.06-1.443-1.17l-1.534-0.302c-0.382-0.075-0.635-0.265-0.711-0.534c-0.077-0.27,0.039-0.564,0.324-0.829
			l1.19-1.102c0.42-0.388,0.715-1.197,0.646-1.765l-0.207-1.685c-0.065-0.523,0.15-0.747,0.284-0.834
			c0.133-0.086,0.425-0.191,0.877,0.082l1.365,0.824c0.487,0.293,1.329,0.331,1.839,0.081l1.423-0.696
			c0.474-0.231,0.756-0.102,0.882-0.004s0.321,0.339,0.213,0.856l-0.346,1.658c-0.117,0.56,0.109,1.391,0.494,1.815l1.098,1.21
			c0.262,0.288,0.351,0.591,0.251,0.853c-0.1,0.261-0.368,0.428-0.755,0.468l-1.551,0.163c-0.566,0.06-1.27,0.535-1.537,1.039
			l-0.78,1.474C136.557,162.635,136.272,162.709,136.109,162.709z M133.65,152.683c-0.043,0-0.08,0.009-0.109,0.028
			c-0.089,0.058-0.127,0.222-0.1,0.44l0.207,1.685c0.087,0.704-0.253,1.633-0.773,2.115l-1.19,1.102
			c-0.162,0.15-0.24,0.306-0.209,0.416s0.18,0.202,0.397,0.245l1.534,0.302c0.698,0.137,1.463,0.757,1.741,1.412l0.656,1.543
			c0.085,0.198,0.2,0.324,0.3,0.328c0.002,0,0.004,0,0.005,0c0.1,0,0.223-0.115,0.322-0.302l0.78-1.474
			c0.333-0.629,1.148-1.18,1.856-1.254l1.551-0.163c0.22-0.023,0.375-0.101,0.416-0.207c0.041-0.107-0.024-0.269-0.172-0.432
			l-1.098-1.21c-0.476-0.525-0.736-1.479-0.591-2.173l0.346-1.658c0.045-0.215,0.021-0.382-0.064-0.449
			c-0.085-0.065-0.253-0.048-0.451,0.049l-1.423,0.696c-0.64,0.313-1.62,0.27-2.231-0.099l-1.365-0.824
			C133.857,152.723,133.74,152.683,133.65,152.683z"/>
	</g>
	<g>
		<path fill="#EFD5DF" d="M128.512,169.067c0.115,0.539-0.245,0.78-0.802,0.536c-0.556-0.245-1.458-0.227-2.005,0.04
			c-0.547,0.267-0.916,0.04-0.821-0.504c0.095-0.544-0.197-1.295-0.651-1.669c-0.453-0.375-0.321-0.756,0.294-0.847
			s1.336-0.573,1.603-1.071s0.718-0.507,1.003-0.02s1.023,0.94,1.641,1.007c0.618,0.067,0.764,0.442,0.325,0.835
			S128.397,168.528,128.512,169.067z"/>
	</g>
	<g>
		<path fill="#EFD5DF" d="M142.214,175.78c-0.298,0.564-0.747,0.545-0.997-0.042l-0.177-0.417c-0.25-0.587-0.966-1.168-1.592-1.291
			l-0.367-0.072c-0.626-0.123-0.755-0.579-0.287-1.012l0.304-0.282c0.468-0.434,0.787-1.306,0.71-1.94l-0.057-0.464
			c-0.078-0.633,0.305-0.882,0.852-0.552l0.339,0.205c0.546,0.33,1.462,0.37,2.035,0.09l0.349-0.171
			c0.573-0.28,0.935,0.001,0.805,0.626l-0.095,0.455c-0.13,0.624,0.114,1.522,0.543,1.994l0.284,0.313
			c0.429,0.472,0.26,0.913-0.374,0.98l-0.37,0.039c-0.634,0.067-1.398,0.583-1.696,1.146L142.214,175.78z"/>
	</g>
	<g>
		<path fill="#EFD5DF" d="M136.556,160.589c-0.298,0.564-0.747,0.545-0.996-0.042l-0.232-0.546c-0.25-0.587-0.966-1.168-1.592-1.291
			l-0.501-0.098c-0.626-0.123-0.755-0.579-0.287-1.012l0.406-0.376c0.468-0.434,0.787-1.306,0.71-1.94l-0.074-0.604
			c-0.078-0.633,0.305-0.882,0.852-0.552l0.456,0.275c0.546,0.33,1.462,0.37,2.035,0.09l0.472-0.231
			c0.573-0.28,0.935,0.001,0.805,0.626l-0.124,0.592c-0.13,0.624,0.114,1.522,0.543,1.994l0.378,0.416
			c0.429,0.472,0.26,0.913-0.374,0.98l-0.505,0.053c-0.634,0.067-1.398,0.583-1.696,1.146L136.556,160.589z"/>
	</g>
</g>
<g>
	<g>
		<path d="M90.369,165.157c0.289,0.123,0.579,0.246,0.868,0.368c0.174,0.024,0.347,0.047,0.521,0.071
			c-0.05-0.721,0.438-1.175,0.98-1.559c0.674-0.477,0.993-0.568,1.692-0.144c0.689,0.418,0.651,0.359,0.742,1.038
			c0.054,0.4,0.065,0.801,0.042,1.203c-0.062,1.107-0.352,3.572-1.807,3.443c-0.426-0.038-0.859-0.258-1.299-0.306
			c-0.633-0.07-1.239,0.019-1.868,0.066c-1.187,0.088-2.555-0.546-2.47-1.944C87.856,166.003,89.121,165.246,90.369,165.157
			c0.339-0.024,0.341-0.555,0-0.53c-2.067,0.148-4.149,2.276-2.652,4.326c0.781,1.069,1.966,0.943,3.14,0.852
			c1.024-0.079,1.736,0.209,2.688,0.418c0.362,0.08,0.438,0.207,0.8-0.014c0.77-0.47,1.16-2.372,1.294-3.148
			c0.183-1.051,0.296-2.493-0.319-3.437c-1.145-1.76-4.212,0.257-4.094,1.972c0.02,0.285,0.446,0.376,0.521,0.07
			c0.196-0.799-0.778-0.98-1.379-1.04C90.029,164.593,90.032,165.124,90.369,165.157z"/>
	</g>
	<g>
		<path fill="#EFD5DF" d="M90.74,165.659c0.22-0.015,0.446,0.008,0.629,0.101c0.045,0.023,0.18,0.097,0.197,0.143
			c0.026,0.07-0.039,0.133-0.033,0.167c-0.055-0.282,0.107-0.594,0.345-0.823s0.543-0.391,0.843-0.547
			c0.354-0.183,0.761-0.369,1.121-0.276c0.438,0.113,0.584,0.577,0.613,0.991c0.064,0.921-0.183,1.89-0.692,2.758
			c-0.107,0.183-0.259,0.515-0.444,0.649c-0.208,0.151-0.37-0.005-0.613-0.073c-0.472-0.133-0.987-0.177-1.503-0.125
			c-0.598,0.06-1.226,0.243-1.774,0.093c-0.513-0.14-0.862-0.577-0.897-1.065s0.227-1.01,0.652-1.376
			C89.609,165.911,90.182,165.698,90.74,165.659z"/>
		<g>
			<path fill="#EFD5DF" d="M90.74,165.924c0.179,0.025,0.358,0.05,0.537,0.075c0.174,0.023,0.347,0.047,0.521,0.07
				c0.021-0.502,0.57-1.043,1.057-1.141c1.587-0.319,1.423,0.797,1.259,1.614c-0.101,0.503-0.27,1.076-0.58,1.496
				c-0.366,0.496-0.431,0.429-0.938,0.413c-0.623-0.02-1.149-0.114-1.789-0.041c-0.229,0.031-0.459,0.061-0.688,0.091
				c-0.619,0.152-0.911-0.119-0.874-0.814c-0.449-0.593-0.334-1.054,0.345-1.383C89.942,166.084,90.326,165.957,90.74,165.924
				c0.334-0.044,0.338-0.575,0-0.53c-1.269,0.166-3.222,1.417-2.253,2.938c0.446,0.7,1.246,0.738,1.992,0.66
				c0.758-0.08,1.404-0.169,2.157,0.014c0.331,0.08,0.456,0.209,0.786,0.06c0.622-0.282,1.007-1.595,1.153-2.181
				c0.171-0.682,0.352-1.732-0.128-2.342c-0.913-1.161-3.129,0.342-3.179,1.528c-0.013,0.31,0.429,0.344,0.521,0.07
				c0.209-0.623-0.617-0.733-1.049-0.747C90.399,165.384,90.399,165.914,90.74,165.924z"/>
		</g>
	</g>
	<g>
		<path d="M81.704,160.847c-0.5-0.048-0.969-0.115-1.416-0.35c-0.341-0.136-0.611-0.37-0.809-0.702
			c-0.451-0.837-0.052-1.284,1.197-1.34c0.132,0.117,0.412,0.096,0.443-0.117c0.059-0.405,0.136-0.898,0.463-1.188
			c1.058-0.938,1.309,0.417,1.206,1.069c-0.101,0.634-0.545,1.227-0.695,1.857c-0.19,0.8-0.095,1.564,0.455,2.192
			c0.225,0.257,0.599-0.119,0.375-0.375c-1.413-1.615,1.668-3.883,0.176-5.255c-1.176-1.082-2.336,0.492-2.491,1.559
			c0.148-0.039,0.296-0.078,0.443-0.117c-0.879-0.775-2.14-0.248-2.26,0.915c-0.169,1.632,1.614,2.259,2.913,2.383
			C82.044,161.41,82.041,160.879,81.704,160.847L81.704,160.847z"/>
	</g>
</g>
<g>
	<g>
		<path d="M234.15,141.949c0.367,0.659,1.082,2.659-0.145,3.06c0.065,0.112,0.13,0.223,0.195,0.335
			c1.095-0.929,2.422-0.362,3.509,0.236c0.84,0.462,1.771,0.985,1.75,2.055c-0.036,1.848-2.835,3.2-4.322,3.787
			c-0.729,0.288-1.488,0.504-2.26,0.643c-0.698,0.126-1.723,0.442-2.382,0.132c-0.601-0.282-0.89-1.112-1.137-1.667
			c-0.324-0.729-0.602-1.469-0.879-2.217c-0.344-0.928-0.893-1.67-1.324-2.54c-0.526-1.06-0.483-2.575,0.027-3.618
			C228.544,139.376,232.548,139.578,234.15,141.949c0.144,0.213,0.491,0.012,0.346-0.202c-1.311-1.941-3.853-2.594-5.933-1.522
			c-2.085,1.074-2.82,4.007-1.606,6.004c0.775,1.274,1.238,2.605,1.823,3.975c0.387,0.905,0.838,2.308,1.972,2.49
			c0.597,0.096,1.311-0.093,1.9-0.187c0.998-0.159,1.971-0.432,2.902-0.826c1.38-0.584,2.963-1.463,3.847-2.717
			c0.923-1.308,0.396-2.547-0.852-3.358c-1.362-0.886-3.209-1.755-4.634-0.545c-0.153,0.13,0.01,0.395,0.195,0.335
			c1.509-0.493,0.934-2.662,0.385-3.649C234.37,141.521,234.024,141.723,234.15,141.949z"/>
	</g>
	<g>
		<path fill="#EFD5DF" d="M233.884,143.333c0.261,0.377,0.458,0.811,0.48,1.257c0.005,0.11,0.012,0.447-0.053,0.534
			c-0.102,0.135-0.286,0.098-0.342,0.153c0.46-0.457,1.205-0.561,1.878-0.425s1.294,0.477,1.898,0.82
			c1.006,0.57,1.618,1.045,1.695,1.663c0.085,0.678-0.563,1.238-1.544,2.065c-1.484,1.25-2.8,1.683-5.431,2.551
			c0,0-0.959,0.284-1.664,0.027c-0.499-0.182-0.383-0.67-0.515-1.194c-0.091-0.359-0.104-0.695-1.362-2.856
			c-1.531-2.63-1.626-2.632-1.711-3.12c-0.056-0.317-0.334-1.904,0.667-2.908c1.056-1.058,2.754-0.698,3.219-0.575
			C232.224,141.623,233.222,142.38,233.884,143.333z"/>
		<g>
			<path fill="#EFD5DF" d="M233.711,143.434c0.175,0.282,0.871,1.448,0.205,1.651c0.065,0.112,0.13,0.223,0.195,0.335
				c1.099-0.899,2.494-0.172,3.533,0.426c1.002,0.576,2.18,1.365,1.103,2.524c-1.008,1.085-2.298,1.905-3.664,2.455
				c-0.779,0.314-3.915,1.847-4.482,0.63c-0.24-0.514-0.225-1.186-0.476-1.732c-0.583-1.267-1.351-2.46-2.065-3.656
				c-0.252-0.423-0.544-0.828-0.652-1.313c-0.352-1.586,0.448-3.229,2.181-3.377C231.241,141.236,232.754,142.134,233.711,143.434
				c0.151,0.206,0.499,0.006,0.346-0.202c-1.319-1.792-4.779-3.511-6.532-1.226c-1.17,1.525-0.477,3.146,0.358,4.546
				c0.736,1.235,1.657,2.514,2.108,3.893c0.26,0.794,0.078,1.618,1.086,1.806c1.4,0.261,3.111-0.616,4.355-1.138
				c1.311-0.551,2.487-1.349,3.495-2.356c1.022-1.022,0.82-1.989-0.339-2.798c-1.314-0.918-3.295-2.019-4.759-0.822
				c-0.158,0.129,0.012,0.39,0.195,0.335c1.016-0.309,0.428-1.608,0.035-2.239C233.921,143.014,233.574,143.215,233.711,143.434z"/>
		</g>
	</g>
	<g>
		<path d="M228.687,159.306c-0.106-0.432-0.213-0.927-0.065-1.363c0.092-0.272,0.229-0.502,0.476-0.652
			c0.349-0.211,1.439-0.254,1.043,0.659c-0.071,0.163,0.045,0.329,0.226,0.294c0.387-0.075,1.219-0.136,1.309,0.481
			c0.111,0.754-0.715,0.685-1.114,0.683c-0.445-0.002-0.884-0.082-1.328-0.02c-0.571,0.08-1.064,0.332-1.349,0.846
			c-0.125,0.226,0.221,0.428,0.346,0.202c0.79-1.429,3.159,0.208,3.797-1.181c0.524-1.142-0.974-1.551-1.769-1.397
			c0.075,0.098,0.151,0.196,0.226,0.294c0.351-0.807-0.328-1.603-1.195-1.403c-1.208,0.279-1.228,1.7-0.992,2.663
			C228.362,159.663,228.748,159.557,228.687,159.306L228.687,159.306z"/>
	</g>
	<g>
		<path d="M245.223,162.137c-1.099-0.29-3.333-0.308-3.439,1.278c-0.013,0.195,0.287,0.278,0.373,0.101
			c0.631-1.292,0.008-2.513-0.865-3.512c-0.823-0.942-2.006-2.179-3.374-1.554c-1.33,0.608-1.917,2.388-2.276,3.682
			c-0.504,1.812-0.524,3.669-0.275,5.524c0.153,1.144,0.722,1.646,1.856,1.9c1.595,0.356,3.297,0.265,4.854,0.759
			c0.837,0.266,1.477,0.449,2.37,0.33c1.245-0.165,2.433-0.735,3.149-1.801C249.228,166.415,247.863,163.084,245.223,162.137
			c-0.243-0.087-0.348,0.3-0.107,0.386c2.985,1.072,3.958,5.557,0.891,7.229c-0.837,0.456-2.026,0.704-2.972,0.467
			c-0.918-0.229-1.736-0.53-2.692-0.631c-0.792-0.084-1.577-0.171-2.363-0.306c-0.61-0.104-1.466-0.177-1.895-0.691
			c-0.457-0.546-0.415-1.685-0.461-2.379c-0.062-0.923-0.018-1.855,0.135-2.768c0.245-1.457,0.789-3.867,2.243-4.596
			c1.146-0.574,2.101,0.449,2.803,1.213c0.818,0.889,1.615,2.005,1.007,3.251c0.124,0.034,0.249,0.067,0.373,0.101
			c0.038-0.57,0.686-0.861,1.146-0.968c0.599-0.14,1.196-0.08,1.785,0.076C245.366,162.589,245.473,162.203,245.223,162.137z"/>
	</g>
	<g>
		<path fill="#EFD5DF" d="M243.839,163.122c-0.429-0.16-0.899-0.243-1.337-0.155c-0.108,0.022-0.437,0.099-0.505,0.184
			c-0.106,0.132-0.025,0.302-0.064,0.369c0.329-0.559,0.246-1.306-0.052-1.925s-0.782-1.136-1.263-1.637
			c-0.801-0.834-1.412-1.31-2.03-1.233c-0.678,0.085-1.061,0.851-1.62,2.006c-0.845,1.747-0.94,3.129-1.131,5.893
			c0,0-0.039,0.999,0.384,1.619c0.299,0.438,0.744,0.205,1.284,0.204c0.37-0.001,0.699-0.071,3.104,0.615
			c2.927,0.834,2.952,0.925,3.446,0.888c0.32-0.024,1.927-0.146,2.653-1.364c0.765-1.285-0.003-2.841-0.238-3.262
			C245.906,164.308,244.926,163.527,243.839,163.122z"/>
		<g>
			<path fill="#EFD5DF" d="M243.892,162.928c-0.714-0.227-2.111-0.472-2.159,0.591c-0.009,0.191,0.289,0.283,0.373,0.101
				c0.681-1.463-0.357-2.787-1.346-3.805c-0.689-0.709-1.791-1.81-2.811-1.017c-0.986,0.767-1.554,2.548-1.837,3.723
				c-0.331,1.372-0.545,2.977-0.468,4.383c0.026,0.474,0.11,1.078,0.422,1.458c0.395,0.483,0.886,0.302,1.442,0.283
				c0.97-0.032,1.948,0.299,2.869,0.557c1.773,0.497,3.461,1.402,5.26,0.561c1.473-0.689,1.878-2.228,1.379-3.705
				C246.508,164.564,245.331,163.512,243.892,162.928c-0.239-0.097-0.343,0.291-0.107,0.386c1.614,0.654,3.103,2.19,3.055,4.048
				c-0.039,1.5-1.455,2.391-2.845,2.39c-0.535,0-1.067-0.222-1.573-0.373c-1.336-0.397-2.69-0.863-4.071-1.076
				c-0.862-0.133-1.902,0.296-2.223-0.81c-0.15-0.516-0.077-1.068-0.039-1.591c0.062-0.852,0.119-1.71,0.263-2.553
				c0.222-1.3,0.696-2.75,1.487-3.823c0.871-1.182,1.889-0.196,2.637,0.574c0.836,0.86,1.883,2.032,1.284,3.319
				c0.124,0.034,0.249,0.067,0.373,0.101c0.031-0.691,1.341-0.303,1.652-0.205C244.032,163.393,244.137,163.006,243.892,162.928z"/>
		</g>
	</g>
</g>
</svg>
