<?xml version="1.0" encoding="utf-8"?>
<!-- Generator: Adobe Illustrator 22.1.0, SVG Export Plug-In . SVG Version: 6.00 Build 0)  -->
<svg version="1.1" id="Шар_1" xmlns="http://www.w3.org/2000/svg" xmlns:xlink="http://www.w3.org/1999/xlink" x="0px" y="0px"
	 width="566.909px" height="296.231px" viewBox="0 0 566.909 296.231" enable-background="new 0 0 566.909 296.231"
	 xml:space="preserve">
<g>
	<g>
		<path fill="#F3BE67" d="M235.709,1c4.292,0,8.204,2.527,9.967,6.437l0.5,1.109l0.991-0.705c2.056-1.463,4.478-2.236,7.004-2.236
			c6.626,0,12.043,5.376,12.075,11.984l0.006,1.261l1.227-0.294c0.808-0.193,1.636-0.292,2.461-0.292
			c5.811,0,10.539,4.715,10.539,10.51c0,2.384-0.783,4.633-2.265,6.504l-0.838,1.058l1.256,0.494
			c5.094,2.001,8.385,6.821,8.385,12.278c0,7.276-5.935,13.195-13.248,13.195h-1.35l0.394,1.292
			c0.237,0.779,0.358,1.584,0.358,2.395c0,4.526-3.692,8.208-8.23,8.208c-2.367,0-4.623-1.024-6.19-2.811l-1.623-1.849L257,71.995
			c-0.333,6.399-5.63,11.411-12.06,11.411c-3.311,0-6.402-1.314-8.703-3.699l-1.02-1.058l-0.609,1.338
			c-1.583,3.476-5.076,5.722-8.898,5.722c-3.723,0-7.072-2.066-8.74-5.391l-0.809-1.613l-0.939,1.542
			c-1.79,2.94-4.915,4.695-8.358,4.695c-4.49,0-8.386-3.029-9.475-7.367l-0.348-1.387l-1.183,0.803
			c-1.748,1.186-3.794,1.813-5.917,1.813c-5.811,0-10.539-4.715-10.539-10.51c0-0.715,0.074-1.435,0.219-2.14l0.267-1.295
			l-1.318,0.095c-0.349,0.025-0.656,0.037-0.937,0.037c-7.083,0-12.846-5.747-12.846-12.812c0-5.058,2.999-9.656,7.639-11.712
			l1.08-0.478l-0.65-0.986c-1.252-1.901-1.914-4.111-1.914-6.391c0-6.43,5.245-11.661,11.692-11.661c0.832,0,1.671,0.09,2.492,0.268
			l1.167,0.253l0.044-1.193c0.234-6.292,5.365-11.221,11.681-11.221c2.053,0,4.076,0.541,5.85,1.566l1.23,0.71l0.254-1.397
			C206.292,4.758,210.811,1,216.094,1c3.583,0,6.943,1.758,8.986,4.703l0.822,1.184l0.822-1.184C228.767,2.758,232.126,1,235.709,1
			 M277.248,78.499c2.213,0,4.083,1.652,4.349,3.842l0.13,1.068l1.056-0.207c0.335-0.066,0.673-0.099,1.004-0.099
			c2.841,0,5.153,2.305,5.153,5.139c0,2.834-2.312,5.139-5.153,5.139c-0.357,0-0.719-0.038-1.077-0.114l-1.013-0.215l-0.179,1.02
			c-0.594,3.379-3.522,5.831-6.962,5.831c-3.902,0-7.077-3.166-7.077-7.057c0-1.674,0.604-3.298,1.7-4.574l0.512-0.595l-0.457-0.638
			c-0.393-0.549-0.601-1.194-0.601-1.865c0-1.776,1.449-3.22,3.231-3.22c0.09,0,0.179,0.007,0.268,0.014l0.752,0.064l0.268-0.706
			C273.794,79.635,275.44,78.499,277.248,78.499 M298.402,96.531c2.418,0,4.385,1.961,4.385,4.371c0,2.41-1.967,4.371-4.385,4.371
			c-2.418,0-4.385-1.961-4.385-4.371C294.017,98.492,295.984,96.531,298.402,96.531 M235.709,0c-4.067,0-7.655,2.032-9.807,5.133
			C223.75,2.032,220.16,0,216.094,0c-5.854,0-10.718,4.208-11.727,9.757c-1.868-1.079-4.036-1.7-6.35-1.7
			c-6.849,0-12.428,5.413-12.68,12.184c-0.872-0.189-1.776-0.291-2.704-0.291c-7.01,0-12.692,5.668-12.692,12.661
			c0,2.564,0.766,4.948,2.079,6.941c-4.85,2.149-8.234,6.991-8.234,12.626c0,7.628,6.2,13.812,13.846,13.812
			c0.34,0,0.676-0.016,1.009-0.04c-0.156,0.756-0.24,1.54-0.24,2.342c0,6.357,5.166,11.51,11.539,11.51
			c2.402,0,4.631-0.732,6.478-1.985c1.172,4.667,5.403,8.123,10.445,8.123c3.904,0,7.323-2.073,9.212-5.175
			c1.767,3.523,5.416,5.943,9.634,5.943c4.362,0,8.114-2.588,9.808-6.307c2.38,2.467,5.72,4.005,9.423,4.005
			c6.991,0,12.701-5.473,13.059-12.359c1.692,1.928,4.171,3.151,6.942,3.151c5.098,0,9.23-4.123,9.23-9.208
			c0-0.935-0.142-1.836-0.401-2.686c0.006,0,0.012,0,0.017,0c7.859,0,14.231-6.356,14.231-14.195c0-6.004-3.738-11.134-9.019-13.209
			c1.552-1.96,2.481-4.434,2.481-7.125c0-6.357-5.166-11.51-11.539-11.51c-0.928,0-1.829,0.112-2.694,0.319
			c-0.035-7.174-5.875-12.979-13.075-12.979c-2.828,0-5.445,0.899-7.584,2.421C244.721,2.885,240.554,0,235.709,0L235.709,0z
			 M277.248,77.499c-2.302,0-4.261,1.444-5.031,3.471c-0.117-0.01-0.234-0.018-0.353-0.018c-2.337,0-4.231,1.889-4.231,4.22
			c0,0.913,0.294,1.757,0.788,2.447c-1.208,1.406-1.942,3.228-1.942,5.226c0,4.45,3.616,8.057,8.077,8.057
			c3.982,0,7.282-2.876,7.947-6.658c0.415,0.088,0.843,0.136,1.284,0.136c3.399,0,6.153-2.748,6.153-6.139
			c0-3.391-2.754-6.139-6.153-6.139c-0.409,0-0.81,0.042-1.197,0.118C282.267,79.561,280.001,77.499,277.248,77.499L277.248,77.499z
			 M298.402,95.531c-2.974,0-5.385,2.405-5.385,5.371s2.411,5.371,5.385,5.371s5.385-2.405,5.385-5.371
			S301.376,95.531,298.402,95.531L298.402,95.531z"/>
	</g>
</g>
<path fill="#1E1E1E" d="M214.182,28.509c-0.122-0.193-0.267-0.389-0.435-0.588s-0.357-0.379-0.565-0.542
	c-0.209-0.163-0.438-0.295-0.687-0.397c-0.25-0.102-0.517-0.153-0.802-0.153h-1.68v0.305c0.173,0.02,0.354,0.082,0.542,0.183
	c0.188,0.102,0.372,0.232,0.55,0.389c0.178,0.158,0.351,0.334,0.519,0.527c0.168,0.194,0.313,0.387,0.435,0.58l2.169,3.345
	l-3.757,4.75h0.993l3.223-4.063l1.543,2.383c0.122,0.194,0.267,0.389,0.435,0.588s0.356,0.379,0.565,0.542s0.438,0.295,0.687,0.397
	s0.517,0.153,0.802,0.153h1.68v-0.305c-0.173-0.02-0.354-0.081-0.542-0.183c-0.189-0.102-0.372-0.231-0.55-0.389
	c-0.178-0.158-0.351-0.333-0.519-0.527c-0.168-0.193-0.313-0.387-0.435-0.58l-2.398-3.681l3.497-4.414h-0.993l-2.948,3.727
	L214.182,28.509z"/>
<path fill="#1E1E1E" d="M225.583,34.534c-0.066,0.372-0.166,0.695-0.298,0.97s-0.3,0.489-0.504,0.641
	c-0.204,0.153-0.438,0.229-0.703,0.229s-0.499-0.076-0.703-0.229c-0.204-0.153-0.372-0.367-0.504-0.641
	c-0.132-0.275-0.232-0.598-0.298-0.97c-0.066-0.372-0.099-0.776-0.099-1.214s0.033-0.842,0.099-1.214
	c0.066-0.372,0.165-0.695,0.298-0.97c0.132-0.275,0.3-0.489,0.504-0.641c0.204-0.153,0.438-0.229,0.703-0.229
	s0.499,0.076,0.703,0.229c0.204,0.153,0.372,0.367,0.504,0.641c0.132,0.275,0.232,0.598,0.298,0.97
	c0.066,0.372,0.099,0.777,0.099,1.214C225.682,33.758,225.649,34.163,225.583,34.534z M220.665,34.786
	c0.168,0.458,0.41,0.855,0.725,1.191c0.316,0.336,0.7,0.601,1.153,0.794c0.453,0.193,0.965,0.29,1.535,0.29s1.082-0.097,1.535-0.29
	s0.837-0.458,1.153-0.794s0.557-0.733,0.725-1.191s0.252-0.947,0.252-1.466s-0.084-1.008-0.252-1.466s-0.41-0.855-0.725-1.191
	c-0.316-0.336-0.7-0.601-1.153-0.794s-0.965-0.29-1.535-0.29s-1.082,0.097-1.535,0.29c-0.453,0.194-0.838,0.458-1.153,0.794
	c-0.316,0.336-0.557,0.733-0.725,1.191s-0.252,0.947-0.252,1.466C220.413,33.84,220.497,34.328,220.665,34.786z"/>
<path fill="#1E1E1E" d="M229.668,32.175c0,0.418,0.076,0.771,0.229,1.061s0.359,0.527,0.619,0.71s0.568,0.316,0.924,0.397
	c0.356,0.082,0.733,0.122,1.13,0.122c0.265,0,0.522-0.028,0.771-0.084s0.451-0.12,0.603-0.191v2.719h1.985v-7.178h-1.985v3.803
	c-0.153,0.082-0.303,0.143-0.451,0.183c-0.148,0.041-0.339,0.061-0.573,0.061c-0.387,0-0.695-0.122-0.924-0.367
	s-0.344-0.657-0.344-1.237v-0.458c0-0.377-0.02-0.692-0.061-0.947c-0.041-0.254-0.115-0.458-0.221-0.611
	c-0.107-0.153-0.25-0.262-0.428-0.328s-0.4-0.099-0.664-0.099h-1.833v0.458h0.153c0.458,0,0.751,0.14,0.878,0.42
	s0.191,0.649,0.191,1.107L229.668,32.175L229.668,32.175z"/>
<path fill="#1E1E1E" d="M244.59,29.731h-0.809l-1.863,4.918L240.16,30.8c-0.173-0.377-0.433-0.674-0.779-0.893
	c-0.346-0.219-0.748-0.328-1.207-0.328h-1.344v0.305c0.611,0.071,1.084,0.479,1.42,1.222l2.75,6.017l-0.321,0.825
	c-0.112,0.295-0.239,0.537-0.382,0.725s-0.305,0.338-0.489,0.451c-0.183,0.112-0.385,0.191-0.603,0.237
	c-0.219,0.046-0.461,0.069-0.725,0.069v0.535h0.611c0.265,0,0.512-0.031,0.741-0.092s0.44-0.168,0.634-0.321
	c0.193-0.153,0.377-0.362,0.55-0.626c0.173-0.265,0.336-0.606,0.489-1.023L244.59,29.731z"/>
<path fill="#1E1E1E" d="M200.536,55.237h1.833l2.749-5.269v5.269h1.985v-7.178h-1.833l-2.749,5.269v-3.284
	c0-0.377-0.02-0.692-0.061-0.947c-0.041-0.254-0.115-0.458-0.221-0.611c-0.107-0.153-0.25-0.262-0.428-0.328
	c-0.178-0.066-0.4-0.099-0.664-0.099h-1.833v0.458h0.153c0.458,0,0.751,0.14,0.878,0.42s0.191,0.649,0.191,1.107L200.536,55.237
	L200.536,55.237z"/>
<path fill="#1E1E1E" d="M208.6,55.237h1.023l2.001-2.459l0.748,1.237c0.224,0.377,0.481,0.675,0.771,0.893
	c0.29,0.219,0.685,0.328,1.184,0.328h1.451v-0.305c-0.234-0.041-0.476-0.163-0.725-0.367c-0.25-0.204-0.481-0.489-0.695-0.855
	l-1.481-2.474l2.581-3.177h-1.023l-2.001,2.459L211.7,49.28c-0.224-0.377-0.481-0.674-0.771-0.893s-0.685-0.328-1.184-0.328h-1.451
	v0.305c0.234,0.041,0.476,0.163,0.725,0.367c0.249,0.204,0.481,0.489,0.695,0.855l1.466,2.459L208.6,55.237z"/>
<path fill="#1E1E1E" d="M224.361,48.738c0.153,0.046,0.293,0.12,0.42,0.221c0.127,0.102,0.229,0.229,0.305,0.382
	c0.076,0.153,0.115,0.336,0.115,0.55c0,0.387-0.145,0.687-0.435,0.901s-0.629,0.321-1.016,0.321h-0.535v-2.337
	c0.112-0.041,0.234-0.069,0.367-0.084c0.132-0.015,0.239-0.023,0.321-0.023C224.056,48.67,224.208,48.692,224.361,48.738z
	 M221.23,55.237h2.948c1.079,0,1.914-0.158,2.505-0.473c0.59-0.315,0.886-0.819,0.886-1.512c0-0.499-0.211-0.896-0.634-1.191
	c-0.423-0.295-0.96-0.483-1.611-0.565c0.611-0.081,1.087-0.254,1.428-0.519c0.341-0.265,0.512-0.626,0.512-1.084
	c0-0.611-0.285-1.069-0.855-1.375c-0.57-0.305-1.313-0.458-2.23-0.458h-4.093v0.458h0.076c0.458,0,0.751,0.14,0.878,0.42
	s0.191,0.649,0.191,1.107v5.192H221.23z M223.582,54.603c-0.132-0.015-0.255-0.043-0.367-0.084V51.8h0.535
	c0.54,0,0.967,0.12,1.283,0.359c0.315,0.239,0.473,0.603,0.473,1.092c0,0.458-0.153,0.802-0.458,1.031s-0.687,0.344-1.145,0.344
	C223.821,54.626,223.714,54.618,223.582,54.603z"/>
<path fill="#1E1E1E" d="M234.235,49.097c0.361,0.336,0.562,0.83,0.603,1.481h0.458c0-0.58-0.015-1.033-0.046-1.359
	s-0.143-0.585-0.336-0.779c-0.194-0.193-0.491-0.331-0.893-0.412c-0.402-0.081-0.893-0.122-1.474-0.122
	c-0.611,0-1.145,0.099-1.604,0.298c-0.458,0.199-0.84,0.468-1.145,0.809c-0.305,0.341-0.535,0.738-0.687,1.191
	c-0.153,0.453-0.229,0.934-0.229,1.443c0,0.509,0.076,0.99,0.229,1.443s0.382,0.85,0.687,1.191c0.305,0.341,0.687,0.611,1.145,0.809
	c0.458,0.199,0.993,0.298,1.604,0.298c0.438,0,0.817-0.051,1.138-0.153s0.598-0.231,0.832-0.389s0.43-0.331,0.588-0.519
	s0.293-0.369,0.405-0.542l-0.473-0.351c-0.265,0.357-0.563,0.657-0.893,0.901c-0.331,0.244-0.761,0.367-1.291,0.367
	c-1.273,0-1.909-1.018-1.909-3.055c0-1.039,0.17-1.807,0.512-2.306c0.341-0.499,0.781-0.748,1.321-0.748
	C233.387,48.593,233.873,48.761,234.235,49.097z"/>
<path fill="#1E1E1E" d="M239.32,54.068c-0.311-0.422-0.466-1.138-0.466-2.146h4.597c0.01-0.092,0.02-0.193,0.031-0.305
	c0.01-0.092,0.018-0.196,0.023-0.313c0.005-0.117,0.008-0.231,0.008-0.344c0-0.458-0.087-0.876-0.26-1.252
	c-0.173-0.377-0.41-0.697-0.71-0.962c-0.3-0.265-0.654-0.471-1.061-0.619c-0.407-0.147-0.85-0.221-1.329-0.221
	c-0.479,0-0.922,0.082-1.329,0.244c-0.407,0.163-0.761,0.4-1.061,0.71c-0.3,0.311-0.537,0.7-0.71,1.168s-0.26,1.008-0.26,1.619
	c0,0.54,0.081,1.036,0.244,1.489c0.163,0.453,0.397,0.848,0.703,1.184c0.305,0.336,0.674,0.598,1.107,0.787
	c0.433,0.188,0.919,0.283,1.459,0.283c0.417,0,0.781-0.051,1.092-0.153c0.31-0.102,0.58-0.231,0.809-0.389s0.422-0.331,0.58-0.519
	s0.293-0.369,0.405-0.542l-0.473-0.351c-0.265,0.357-0.563,0.657-0.893,0.901c-0.331,0.244-0.761,0.367-1.291,0.367
	C240.036,54.702,239.631,54.491,239.32,54.068z M238.855,51.235c0-0.509,0.036-0.932,0.107-1.268
	c0.071-0.336,0.165-0.606,0.283-0.809c0.117-0.204,0.254-0.349,0.412-0.435c0.158-0.086,0.323-0.13,0.496-0.13
	c0.193,0,0.369,0.043,0.527,0.13c0.158,0.087,0.293,0.232,0.405,0.435c0.112,0.204,0.201,0.473,0.267,0.809s0.099,0.759,0.099,1.268
	C241.451,51.235,238.855,51.235,238.855,51.235z"/>
<path fill="#1E1E1E" d="M244.322,55.237h1.023l2.001-2.459l0.748,1.237c0.224,0.377,0.481,0.675,0.771,0.893
	c0.29,0.219,0.685,0.328,1.184,0.328h1.451v-0.305c-0.234-0.041-0.476-0.163-0.725-0.367c-0.25-0.204-0.481-0.489-0.695-0.855
	l-1.481-2.474l2.581-3.177h-1.023l-2.001,2.459l-0.733-1.237c-0.224-0.377-0.481-0.674-0.771-0.893s-0.685-0.328-1.184-0.328h-1.451
	v0.305c0.234,0.041,0.476,0.163,0.725,0.367c0.249,0.204,0.481,0.489,0.695,0.855l1.466,2.459L244.322,55.237z"/>
<path fill="#1E1E1E" d="M254.692,45.157h-2.062l0.295,7.713h1.457L254.692,45.157z M254.326,53.847
	c-0.163-0.173-0.392-0.26-0.687-0.26s-0.524,0.087-0.687,0.26c-0.163,0.173-0.244,0.397-0.244,0.672s0.081,0.499,0.244,0.672
	c0.163,0.173,0.392,0.26,0.687,0.26s0.524-0.087,0.687-0.26c0.163-0.173,0.244-0.397,0.244-0.672S254.488,54.02,254.326,53.847z"/>
</svg>
