<?xml version="1.0"?><svg xmlns="http://www.w3.org/2000/svg" viewBox="0 0 54.64 47.38"><defs><style>.cls-1{fill:none;stroke:#000;stroke-linecap:round;stroke-linejoin:round;}.cls-2{fill:#efd5df;}</style></defs><title>Ресурс 46</title><g id="Шар_2" data-name="Шар 2"><g id="Шар_1-2" data-name="Шар 1"><path class="cls-1" d="M12.53,33.89c-.12-1.55-.17-2.91-.17-4.06,0-.46,0-2.1.79-2.71a.59.59,0,0,1,.11-.08,1.78,1.78,0,0,1,2.28.65,2.88,2.88,0,0,1,.16,2.53,7.41,7.41,0,0,1-1.4,2.2c-.44.55-1,1.25-1.73,2h0Z"/><path d="M4.18,47C8.44,34.68,21.7,30,32.35,24.61,41.62,20,51.21,12.86,52.16,1.67c.06-.64-.94-.64-1,0C50,14.92,36.85,21.41,26.29,26.44,16.91,30.9,6.82,36.33,3.22,46.77c-.21.61.75.88,1,.27Z"/><path class="cls-2" d="M3.6,45C2.68,43.51,2,42.17,1.36,41,1,40.3.19,38.41.76,37.94c.13-.11.4-.12,1-.14A3,3,0,0,1,3,37.89a2.13,2.13,0,0,1,1.09,1.37,2.39,2.39,0,0,1,0,1,22.66,22.66,0,0,1-.44,2.29,5.35,5.35,0,0,0,.28,3h0Z"/><path class="cls-2" d="M5.89,44.58c.85-.32,1.16-.72,3.16-2.25a4.46,4.46,0,0,1,1.87-.91,1.38,1.38,0,0,1,.72,0,1.67,1.67,0,0,1,1,1.71c-.17,1.19-1.91,1.72-2.18,1.8a8.06,8.06,0,0,1-2.91.17c-.78,0-1.79-.1-3-.24h0A4.72,4.72,0,0,0,5.89,44.58Z"/><path class="cls-2" d="M7.67,38.67a21.65,21.65,0,0,1-.72-4c0-.54,0-1.76.72-2.24a1.16,1.16,0,0,1,.69-.22,1.08,1.08,0,0,1,.78.41,1.23,1.23,0,0,1,.25.75A4.5,4.5,0,0,1,9.24,35a13.15,13.15,0,0,1-.82,1.91,9,9,0,0,0-.64,2.32h0Z"/><path class="cls-2" d="M13,32.05c-.06-1.19-.15-1.38-.16-2.07,0-.93,0-1.92.56-2.28a1,1,0,0,1,.81-.09,1.13,1.13,0,0,1,.66.69,2.22,2.22,0,0,1,.09,1.15,4.85,4.85,0,0,1-.09.7,8.26,8.26,0,0,1-.75,2.05A8.6,8.6,0,0,1,12.83,34a2.72,2.72,0,0,0,.09-.43c0-.18.05-.35.07-.5S13,32.48,13,32.05Z"/><path class="cls-2" d="M18.6,30c.13-2.79,0-3.19.26-4.06.13-.39.56-1.59,1.38-1.84a1.08,1.08,0,0,1,.75,0,1.17,1.17,0,0,1,.53.5,1.48,1.48,0,0,1,.22.87,1.53,1.53,0,0,1-.38.82c-.21.26-1,1.3-1.28,1.62a6.56,6.56,0,0,0-1.51,2.64h0Z"/><path class="cls-2" d="M24.88,27.11c.12-2.47,0-2.84.24-3.64a2.26,2.26,0,0,1,1.24-1.58.9.9,0,0,1,.47,0,.83.83,0,0,1,.53.5c0,.1.07.25-.06.78a4.49,4.49,0,0,1-.28.9,8.06,8.06,0,0,1-1.28,1.69,5,5,0,0,0-.88,1.85h0Z"/><path class="cls-2" d="M30.88,24.28c0-1.31.12-2.46.22-3.42,0-.38.21-1.75.91-2.2l.09-.05c.34-.1.91.52,1.11,1.15a2.3,2.3,0,0,1,.06.82,3.18,3.18,0,0,1-.88,1.72c-.37.43-.46.4-.75.75a3.63,3.63,0,0,0-.78,1.69h0Z"/><path class="cls-2" d="M36.77,20.75c-.09-1.07-.12-2-.13-2.81,0-.32,0-1.45.55-1.88a.14.14,0,0,1,.07,0c.26-.09.76.4.91.94a1.53,1.53,0,0,1,0,.81,1.93,1.93,0,0,1-.18.5c-.36.69-.68,1-.88,1.38a2.71,2.71,0,0,0-.32,1.5h0Z"/><path class="cls-2" d="M41.48,17.56a12.77,12.77,0,0,1-.38-2.91,1.7,1.7,0,0,1,.57-1.26.6.6,0,0,1,.94.16c.14.21.1.46,0,.93a3.6,3.6,0,0,1-.15.72c-.26.7-.69.78-.94,1.28a1.92,1.92,0,0,0,0,1.48h0Z"/><path class="cls-2" d="M46.07,13.35a4.78,4.78,0,0,1-.64-2c0-.49.09-.86.24-.89l.25,0,.28,0c.23.12.16.66.16.68a1.57,1.57,0,0,1-.15.47c-.32.67-.48.74-.5,1A.85.85,0,0,0,46.07,13.35Z"/><path class="cls-2" d="M49,8.88c-.3-.66-.53-1.24-.72-1.74-.07-.2-.32-.92-.08-1.31l0,0a.83.83,0,0,1,1.1-.07,1.33,1.33,0,0,1,.47,1.07A3.43,3.43,0,0,1,49.52,8c-.11.31-.25.7-.44,1.15h0Z"/><path class="cls-2" d="M51.15,3.34c-.32-.53-.58-1-.78-1.42-.08-.16-.36-.75-.19-1.11a.08.08,0,0,0,0,0A.71.71,0,0,1,51.13.6a1.13,1.13,0,0,1,.5.87,2.77,2.77,0,0,1-.11,1c-.06.27-.14.62-.26,1h0Z"/><path class="cls-2" d="M12.3,36.86a23.84,23.84,0,0,0,3.16-.63,2.68,2.68,0,0,1,2,0,1.69,1.69,0,0,1,.34.32A1.49,1.49,0,0,1,18.09,38c-.39.94-2.18.82-2.4.8a7.26,7.26,0,0,1-2.48-.8c-.65-.28-1.47-.66-2.4-1.16h0A8.57,8.57,0,0,0,12.3,36.86Z"/><path class="cls-2" d="M17.68,32c.28.06.4.29.53.42.46.47,1.5-.07,3.43-.38,1-.15,1.5-.12,1.91.16a1.71,1.71,0,0,1,.56.66,1.53,1.53,0,0,1,.13,1.25c-.39.74-1.81.66-2.48.51a7.09,7.09,0,0,1-2.37-1.08c-.61-.35-1.38-.83-2.25-1.43h0A.78.78,0,0,1,17.68,32Z"/><path class="cls-2" d="M25.39,29c1,0,1.34-.38,2.44-.25a4.48,4.48,0,0,1,1.16.32,1.61,1.61,0,0,1,.62.34,1.23,1.23,0,0,1,.28,1.35c-.38.65-1.68.45-2.25.28a6.57,6.57,0,0,1-2-1.14c-.52-.36-1.17-.84-1.91-1.44h0A3.47,3.47,0,0,0,25.39,29Z"/><path class="cls-2" d="M30.86,26.11a19,19,0,0,0,2.22,0c.91,0,1.25,0,1.56.25a1.46,1.46,0,0,1,.47.78A1.16,1.16,0,0,1,35,28c-.41.58-1.59.36-2.13.17A6.2,6.2,0,0,1,31,27.06c-.47-.36-1.06-.83-1.73-1.43h0A4.89,4.89,0,0,0,30.86,26.11Z"/><path class="cls-2" d="M36.8,23.33c.51,0,.69-.11,1.72-.19s1.23,0,1.37.12c.42.32.59,1,.38,1.22s-.13.05-.3.07c-.84.06-1.12.41-1.73.23a5.12,5.12,0,0,1-1.59-.86c-.4-.27-.91-.64-1.49-1.09h0A3.41,3.41,0,0,0,36.8,23.33Z"/><path class="cls-2" d="M41.58,20.11a14,14,0,0,0,2-.31c.9-.18,1.28-.27,1.63,0a.91.91,0,0,1,.38.55.83.83,0,0,1-.2.63c-.47.64-1.53.55-1.75.53a5.14,5.14,0,0,1-1.77-.63c-.46-.22-1-.51-1.72-.88h0A6,6,0,0,0,41.58,20.11Z"/><path class="cls-2" d="M44.49,16.12c.85-.4,1.24-.11,2.18-.32.53-.12,1.16-.38,1.45-.22a.24.24,0,0,1,.13.12c.09.19-.09.45-.15.54a1.66,1.66,0,0,1-1.17.61,3.74,3.74,0,0,1-1.36-.2c-.36-.09-.81-.22-1.34-.39Z"/><path class="cls-2" d="M48.32,11.41c.6-.52,1.12-.25,2-.65a7.12,7.12,0,0,0,.94-.59h0a.92.92,0,0,1,.18.4c0,.32-.45.68-.83.82a3.32,3.32,0,0,1-1.19.18c-.33,0-.75,0-1.24,0A1.77,1.77,0,0,1,48.32,11.41Z"/><path class="cls-2" d="M51.07,5.91c.51-.34,1-.63,1.37-.85.16-.09.73-.41,1.1-.26l0,0a.71.71,0,0,1,.23.92,1.15,1.15,0,0,1-.85.55,3.06,3.06,0,0,1-1-.06c-.28,0-.63-.1-1-.2h0Z"/><path class="cls-1" d="M3.47,44.94C2.56,43.47,1.82,42.13,1.23,41,1,40.54.18,38.9.63,37.9l.07-.13a2,2,0,0,1,2.6-.52,3.2,3.2,0,0,1,1.45,2.42,8.43,8.43,0,0,1-.27,2.91c-.16.77-.37,1.75-.69,2.89h0Z"/><path class="cls-1" d="M4.9,44.43c1.31-1.13,2.52-2.06,3.56-2.82.41-.3,1.91-1.35,3-1.06l.13.05a2,2,0,0,1,.91,2.49,3.23,3.23,0,0,1-2.18,1.8,8,8,0,0,1-2.91.17c-.78,0-1.79-.1-3-.24h0Z"/><path class="cls-1" d="M7.55,38.63c-.34-1.52-.57-2.87-.72-4-.07-.45-.27-2.07.41-2.79,0,0,.07-.06.09-.09a1.79,1.79,0,0,1,2.35.34,2.87,2.87,0,0,1,.51,2.48A7.51,7.51,0,0,1,9.1,36.93c-.36.6-.84,1.37-1.44,2.24h0Z"/><path class="cls-1" d="M18.47,30c0-1.56.15-2.92.27-4.06.05-.46.24-2.08,1.07-2.61l.12-.06a1.78,1.78,0,0,1,2.2.89A2.87,2.87,0,0,1,22,26.68a7.32,7.32,0,0,1-1.63,2c-.5.5-1.15,1.13-1.94,1.83h0Z"/><path class="cls-1" d="M24.76,27.07c0-1.39.12-2.61.23-3.64.05-.4.22-1.86,1-2.34l.1-.05a1.59,1.59,0,0,1,2,.8,2.57,2.57,0,0,1-.1,2.26,6.44,6.44,0,0,1-1.46,1.83c-.44.44-1,1-1.74,1.64h0Z"/><path class="cls-1" d="M30.75,24.24c0-1.31.12-2.46.23-3.42,0-.38.2-1.75.9-2.2l.1-.05a1.5,1.5,0,0,1,1.85.75,2.45,2.45,0,0,1-.09,2.13,6.5,6.5,0,0,1-1.38,1.71c-.41.42-1,1-1.63,1.54h0Z"/><path class="cls-1" d="M36.64,20.71c-.09-1.07-.12-2-.12-2.81,0-.32,0-1.45.54-1.88l.08,0a1.23,1.23,0,0,1,1.58.45,2,2,0,0,1,.11,1.74,4.92,4.92,0,0,1-1,1.53c-.3.38-.7.87-1.2,1.41h0Z"/><path class="cls-1" d="M41.36,17.52c-.19-1.11-.31-2.09-.38-2.91,0-.33-.12-1.51.4-2a.19.19,0,0,1,.07-.06,1.28,1.28,0,0,1,1.68.32,2.1,2.1,0,0,1,.28,1.81,5.38,5.38,0,0,1-.87,1.67c-.28.42-.65,1-1.12,1.57h0Z"/><path class="cls-1" d="M45.94,13.31c-.27-.77-.48-1.46-.64-2-.06-.23-.27-1.06,0-1.48l0,0a.93.93,0,0,1,1.25,0A1.51,1.51,0,0,1,47.05,11a4,4,0,0,1-.41,1.3c-.15.34-.35.77-.61,1.27h0Z"/><path class="cls-1" d="M48.85,8.84c-.3-.66-.53-1.24-.71-1.74-.07-.2-.32-.92-.09-1.31l0,0a.81.81,0,0,1,1.09-.07,1.3,1.3,0,0,1,.47,1.07,3.43,3.43,0,0,1-.26,1.18c-.1.31-.24.7-.43,1.15h0Z"/><path class="cls-1" d="M51.15,3.34c-.32-.53-.58-1-.78-1.42-.08-.16-.36-.75-.19-1.11a.08.08,0,0,0,0,0A.71.71,0,0,1,51.13.6a1.13,1.13,0,0,1,.5.87,2.77,2.77,0,0,1-.11,1c-.06.27-.14.62-.26,1h0Z"/><path class="cls-1" d="M11.21,36.63c1.47-.52,2.78-.91,3.89-1.2.44-.12,2-.51,2.82.08l.1.08A1.79,1.79,0,0,1,18,38a2.88,2.88,0,0,1-2.4.8,7.28,7.28,0,0,1-2.49-.8c-.64-.28-1.46-.66-2.4-1.16h0Z"/><path class="cls-1" d="M17.56,31.93c1.51-.34,2.86-.57,4-.74.45-.06,2.07-.27,2.79.41a.76.76,0,0,1,.09.09A1.77,1.77,0,0,1,24.11,34a2.82,2.82,0,0,1-2.47.51,7.09,7.09,0,0,1-2.38-1.08c-.61-.35-1.38-.83-2.25-1.43h0Z"/><path class="cls-1" d="M24.06,28.34c1.38-.2,2.6-.31,3.63-.37.41,0,1.87-.09,2.46.56a.46.46,0,0,1,.07.1,1.58,1.58,0,0,1-.46,2.07,2.56,2.56,0,0,1-2.24.28,6.56,6.56,0,0,1-2.05-1.14c-.51-.36-1.17-.84-1.9-1.44h0Z"/><path class="cls-1" d="M29.64,25.56c1.3-.13,2.45-.19,3.42-.2.39,0,1.76,0,2.29.62l.07.09A1.5,1.5,0,0,1,34.9,28a2.36,2.36,0,0,1-2.12.17A6.07,6.07,0,0,1,30.91,27c-.47-.36-1.07-.83-1.73-1.43h0Z"/><path class="cls-1" d="M35.42,22.74c1.06-.17,2-.26,2.8-.32.31,0,1.44-.09,1.91.41l0,.07a1.23,1.23,0,0,1-.33,1.61,2,2,0,0,1-1.74.23,5.23,5.23,0,0,1-1.59-.86c-.4-.27-.91-.64-1.48-1.09h0Z"/><path class="cls-1" d="M40.44,19.8c1.07-.34,2-.6,2.84-.79.32-.07,1.47-.32,2,.11l.07.07a1.29,1.29,0,0,1-.08,1.71,2.06,2.06,0,0,1-1.75.53,5.09,5.09,0,0,1-1.78-.63c-.46-.22-1.05-.51-1.71-.88h0Z"/><path class="cls-1" d="M44.36,16.08c.72-.39,1.36-.7,1.92-.95.21-.1,1-.44,1.46-.2l.06,0A.94.94,0,0,1,48,16.2a1.52,1.52,0,0,1-1.18.61,3.67,3.67,0,0,1-1.35-.2c-.36-.09-.82-.22-1.35-.39h0Z"/><path class="cls-1" d="M48.54,11.41c.5-.52,1-.95,1.36-1.3.16-.14.74-.63,1.19-.55h.06a.85.85,0,0,1,.47,1,1.33,1.33,0,0,1-.83.82,3.47,3.47,0,0,1-1.2.18c-.32,0-.74,0-1.23,0h0Z"/><path class="cls-1" d="M51.32,5.87c.51-.34,1-.63,1.38-.85.15-.09.72-.41,1.09-.26a.05.05,0,0,1,0,0,.7.7,0,0,1,.23.92,1.15,1.15,0,0,1-.84.55,3.11,3.11,0,0,1-1-.06c-.28,0-.63-.1-1-.2h0Z"/></g></g></svg>