<?xml version="1.0" encoding="utf-8"?>
<!-- Generator: Adobe Illustrator 22.1.0, SVG Export Plug-In . SVG Version: 6.00 Build 0)  -->
<svg version="1.1" id="Layer_1" xmlns="http://www.w3.org/2000/svg" xmlns:xlink="http://www.w3.org/1999/xlink" x="0px" y="0px"
	 width="24.015px" height="23.984px" viewBox="0 0 24.015 23.984" enable-background="new 0 0 24.015 23.984" xml:space="preserve">
<path fill="#f9c268" fill-rule="evenodd" clip-rule="evenodd" d="M16.018,0c-4.417,0-7.997,3.578-7.997,7.993c0,1.431,0.376,2.773,1.035,3.935
	c0.362,0.639-1.035,4.058-1.035,4.058s3.397-1.418,3.993-1.073c1.178,0.682,2.545,1.073,4.004,1.073
	c4.417,0,7.997-3.579,7.997-7.994S20.435,0,16.018,0z M13.515,8.5h-1.5V7h1.5V8.5z M16.515,8.5h-1.5V7h1.5V8.5z M19.515,8.5h-1.5V7
	h1.5V8.5z"/>
<path fill="#f9c268" fill-rule="evenodd" clip-rule="evenodd" d="M14.706,20.764l-2.872-2.872l-1.436,1.436c-0.396,0.397-1.039,0.397-1.435,0
	l-4.307-4.309c-0.396-0.396-0.396-1.039,0-1.436l1.436-1.437L3.22,9.275c-0.397-0.397-1.04-0.397-1.436,0
	c-2.379,2.379-2.379,6.237,0,8.617l4.307,4.308c2.379,2.38,6.235,2.38,8.614,0C15.102,21.803,15.102,21.16,14.706,20.764z"/>
</svg>
