<?xml version="1.0" encoding="utf-8"?>
<!-- Generator: Adobe Illustrator 22.1.0, SVG Export Plug-In . SVG Version: 6.00 Build 0)  -->
<svg version="1.1" id="Layer_1" xmlns="http://www.w3.org/2000/svg" xmlns:xlink="http://www.w3.org/1999/xlink" x="0px" y="0px"
	 width="55px" height="60px" viewBox="0 0 55 60" enable-background="new 0 0 55 60" xml:space="preserve">
<path fill="#f9c268" d="M17,51c1.105,0,2,0.895,2,2s-0.895,2-2,2s-2-0.895-2-2S15.895,51,17,51z"/>
<path fill="#f9c268" d="M32,46H2V8h30v13h2V4.405C34,1.977,32.024,0,29.595,0H4.405C1.976,0,0,1.977,0,4.405v51.189C0,58.023,1.976,60,4.405,60
	h25.189c2.429,0,4.405-1.977,4.405-4.405V32h-2L32,46L32,46z M20,3h1c0.552,0,1,0.447,1,1s-0.448,1-1,1h-1c-0.552,0-1-0.447-1-1
	S19.448,3,20,3z M13,3h4c0.552,0,1,0.447,1,1s-0.448,1-1,1h-4c-0.552,0-1-0.447-1-1S12.448,3,13,3z M17,57c-2.206,0-4-1.794-4-4
	s1.794-4,4-4s4,1.794,4,4S19.206,57,17,57z"/>
<path fill="#f9c268" d="M53,25H19.828l8.586-8.586c0.781-0.781,0.781-2.047,0-2.828C28.024,13.195,27.512,13,27,13s-1.024,0.195-1.414,0.586
	L13.587,25.584c-0.094,0.093-0.177,0.197-0.251,0.307c-0.032,0.048-0.053,0.099-0.081,0.148c-0.036,0.065-0.075,0.127-0.103,0.196
	c-0.027,0.065-0.042,0.133-0.062,0.2c-0.017,0.058-0.039,0.113-0.051,0.173c-0.051,0.259-0.051,0.524,0,0.783
	c0.012,0.06,0.034,0.115,0.051,0.173c0.02,0.067,0.035,0.135,0.062,0.2c0.028,0.068,0.067,0.131,0.103,0.196
	c0.027,0.049,0.049,0.101,0.081,0.148c0.074,0.11,0.157,0.213,0.251,0.307l11.999,11.999c0.78,0.781,2.048,0.781,2.828,0
	c0.781-0.781,0.781-2.047,0-2.828L19.828,29H53c1.104,0,2-0.896,2-2S54.104,25,53,25z"/>
</svg>
