<?xml version="1.0" encoding="utf-8"?>
<!-- Generator: Adobe Illustrator 22.1.0, SVG Export Plug-In . SVG Version: 6.00 Build 0)  -->
<svg version="1.1" id="Layer_1" xmlns="http://www.w3.org/2000/svg" xmlns:xlink="http://www.w3.org/1999/xlink" x="0px" y="0px"
	 width="373px" height="373px" viewBox="0 0 373 373" enable-background="new 0 0 373 373" xml:space="preserve">
<path fill="#f9c268" d="M186.5,0C83.499,0,0,83.499,0,186.5S83.499,373,186.5,373S373,289.501,373,186.5C372.868,83.554,289.446,0.132,186.5,0z
	 M194.501,356.598v-32.804c0-4.418-3.582-8.001-8.001-8.001c-4.419,0-8.001,3.582-8.001,8.001v32.804
	C90.769,352.41,20.59,282.231,16.402,194.501h32.803c4.418,0,8.001-3.582,8.001-8.001c0-4.418-3.582-8.001-8.001-8.001H16.402
	C20.59,90.769,90.769,20.59,178.499,16.402v32.804c0,4.418,3.582,8.001,8.001,8.001c4.418,0,8.001-3.582,8.001-8.001V16.402
	c87.73,4.188,157.909,74.367,162.097,162.097h-32.803c-4.418,0-8.001,3.582-8.001,8.001c0,4.418,3.582,8.001,8.001,8.001h0.08
	h32.803C352.487,282.26,282.262,352.45,194.501,356.598z"/>
<path fill="#f9c268" d="M270.909,260.908l-76.408-77.688v-80.729c0-4.418-3.582-8.001-8.001-8.001c-4.419,0-8.001,3.582-8.001,8.001V186.5
	c0.009,2.099,0.842,4.11,2.32,5.601l78.648,80.008c3.093,3.159,8.162,3.213,11.321,0.12
	C273.948,269.136,274.002,264.067,270.909,260.908z"/>
</svg>
