<?xml version="1.0" encoding="utf-8"?>
<!-- Generator: Adobe Illustrator 22.1.0, SVG Export Plug-In . SVG Version: 6.00 Build 0)  -->
<svg version="1.1" id="Layer_1" xmlns="http://www.w3.org/2000/svg" xmlns:xlink="http://www.w3.org/1999/xlink" x="0px" y="0px"
	 width="512px" height="512px" viewBox="0 0 512 512" enable-background="new 0 0 512 512" xml:space="preserve">
<path fill="#f9c268" d="M492.539,400.56L392.135,300.239c-11.986-11.975-31.483-11.975-43.47,0l-26.109,26.088
	c-8.181,8.174-10.767,19.845-7.779,30.241l-9.851,9.843c-0.003,0.003-0.005,0.005-0.008,0.008
	c-6.996,6.998-50.564-3.741-103.228-56.363c-52.656-52.613-63.407-96.139-56.411-103.142c0-0.002,0.002-0.002,0.002-0.002
	l9.86-9.851c2.783,0.799,5.656,1.207,8.53,1.207c7.871,0,15.742-2.993,21.736-8.98l26.109-26.088
	c11.985-11.975,11.985-31.458,0-43.434L111.11,19.443c-5.805-5.8-13.524-8.994-21.733-8.994c-8.212,0-15.928,3.196-21.733,8.994
	l-26.111,26.09c-8.181,8.174-10.767,19.846-7.779,30.241c0,0-8.351,8.424-8.766,8.956c-27.775,30.849-32.987,79.418-14.573,137.486
	c18.032,56.857,56.903,117.088,109.455,169.594c52.55,52.508,112.83,91.348,169.733,109.366
	C312.461,508.414,333.845,512,353.264,512c31.839,0,58.384-9.648,77.413-28.66l5.478-5.474c2.742,0.788,5.607,1.213,8.539,1.213
	c8.212,0,15.93-3.196,21.733-8.994l26.111-26.09C504.523,432.02,504.523,412.536,492.539,400.56z M89.377,41.159l100.405,100.325
	l-26.095,26.102c0,0-0.005-0.005-0.014-0.014l-0.375-0.375L113.47,117.41L63.267,67.249L89.377,41.159z M408.944,461.623
	c-0.002,0.002-0.003,0.003-0.005,0.005c-22.112,22.091-61.195,25.74-110.05,10.27c-52.294-16.558-108.152-52.714-157.283-101.806
	C92.474,321.001,56.288,265.19,39.718,212.937c-15.483-48.817-11.831-87.87,10.283-109.967l0.002-0.002l2.772-2.77l77.92,77.856
	l-7.147,7.141c-0.005,0.005-0.009,0.011-0.015,0.017c-29.609,29.622,5.968,96.147,56.424,146.562
	c37.764,37.734,84.561,67.14,118.146,67.14c11.293,0,21.093-3.325,28.551-10.778c0.003-0.003,0.005-0.005,0.008-0.008l7.139-7.133
	l77.92,77.856L408.944,461.623z M444.696,448.368L344.291,348.045l26.109-26.088l100.405,100.322
	C470.805,422.278,444.705,448.377,444.696,448.368z"/>
<path fill="#f9c268" d="M388.716,123.186c-29.233-29.209-68.097-45.294-109.432-45.293c-8.488,0-15.368,6.875-15.368,15.356
	s6.882,15.356,15.368,15.356c33.127-0.002,64.271,12.89,87.699,36.297c23.425,23.406,36.324,54.525,36.323,87.624
	c0,8.481,6.88,15.358,15.368,15.358c8.487,0,15.368-6.875,15.368-15.354C434.044,191.225,417.945,152.394,388.716,123.186z"/>
<path fill="#f9c268" d="M443.838,68.109C399.879,24.188,341.438,0,279.278,0.002c-8.488,0-15.368,6.876-15.368,15.356
	c0,8.481,6.882,15.356,15.368,15.356c53.951-0.002,104.672,20.992,142.824,59.111c38.149,38.118,59.159,88.799,59.158,142.706
	c0,8.481,6.881,15.356,15.368,15.356c8.487,0,15.368-6.875,15.368-15.354C511.999,170.42,487.791,112.029,443.838,68.109z"/>
<path fill="#f9c268" d="M333.591,178.261c-14.718-14.706-33.492-22.477-54.3-22.477c0,0-0.005,0-0.006,0c-8.488,0.002-15.368,6.876-15.366,15.358
	c0.002,8.481,6.884,15.356,15.37,15.354c0.002,0,0.003,0,0.005,0c12.654,0,23.612,4.536,32.565,13.481
	c8.826,8.82,13.492,20.075,13.49,32.544c-0.002,8.481,6.881,15.356,15.366,15.358h0.002c8.488,0,15.366-6.875,15.368-15.354
	C356.087,211.733,348.31,192.969,333.591,178.261z"/>
</svg>
