<?xml version="1.0" encoding="utf-8"?>
<!-- Generator: Adobe Illustrator 22.0.1, SVG Export Plug-In . SVG Version: 6.00 Build 0)  -->
<svg version="1.1" id="Шар_1" xmlns="http://www.w3.org/2000/svg" xmlns:xlink="http://www.w3.org/1999/xlink" x="0px" y="0px"
	 width="107.435px" height="181.202px" viewBox="0 0 107.435 181.202" enable-background="new 0 0 107.435 181.202"
	 xml:space="preserve">
<g>
	<g>
		<path d="M76.208,93.318c3.526,0.08,2.566,4.804,1.723,6.753c-0.637,1.473-1.479,2.946-1.64,4.576
			c-0.284,2.88,1.66,4.64,3.33,6.681c5.136,6.278-5.677,9.847-2.655,15.889c1.374,2.747,5.015,3.273,6.438,5.944
			c2.398,4.502-3.468,8.969-4.311,13.106c-0.753,3.697,1.167,7.192,2.914,10.3c2.2,3.912,5.181,10.31,0.017,13.355
			c-0.554,0.327-0.051,1.191,0.505,0.863c5.873-3.463,2.647-10.629,0.124-15.108c-1.057-1.876-2.135-3.825-2.545-5.962
			c-0.546-2.842,0.476-5.125,1.941-7.477c1.535-2.465,3.428-5.277,2.678-8.34c-0.599-2.445-2.766-3.57-4.67-4.915
			c-3.831-2.708-2.315-5.668-0.126-8.836c1.217-1.76,2.563-3.744,2.241-5.998c-0.389-2.727-2.922-4.151-4.183-6.394
			c-2.252-4.005,2.033-7.231,1.777-11.232c-0.136-2.126-1.251-4.153-3.557-4.205C75.564,92.304,75.565,93.304,76.208,93.318
			L76.208,93.318z"/>
	</g>
</g>
<g>
	<g>
		<path d="M74.176,86.685c-0.84,1.703-1.796,3.388-2.534,5.136c-0.25,0.593-0.575,1.275,0.176,1.683
			c0.232,0.126,0.551,0.095,0.802,0.079c0.818-0.052,1.646-0.305,2.515-0.279c0.54,0.016,1.003,0.074,1.535-0.049
			c0.325-0.075,0.659-0.241,0.976-0.32c0.978-0.244,1.802,0.098,2.689,0.587c0.564,0.311,1.069-0.552,0.505-0.863
			c-0.985-0.543-2.013-1.075-3.168-0.842c-0.438,0.088-0.855,0.301-1.296,0.406c-0.794,0.189-1.366-0.081-2.151-0.095
			c-0.321-0.006-0.824,0.153-1.128,0.124c-0.17,0.067-0.332,0.15-0.486,0.249c-0.022-0.398,0.092-0.758,0.341-1.08
			c0.571-1.446,1.399-2.835,2.087-4.229C75.323,86.615,74.461,86.107,74.176,86.685L74.176,86.685z"/>
	</g>
</g>
<g>
	<g>
		<path d="M77.116,87.313c1.415,2.064,2.83,4.128,4.245,6.192c0.144-0.251,0.288-0.502,0.432-0.752
			c-0.732-0.001-1.337-0.171-1.965-0.548c-0.553-0.332-1.057,0.532-0.505,0.863c0.782,0.469,1.559,0.683,2.47,0.684
			c0.358,0.001,0.651-0.433,0.432-0.752c-1.415-2.064-2.83-4.128-4.245-6.192C77.617,86.281,76.751,86.78,77.116,87.313
			L77.116,87.313z"/>
	</g>
</g>
<g>
	<path fill="#FFFFFF" d="M74.24,87.611c-4.057-4.23-9.82-6.269-14.808-9.346c-4.988-3.077-9.636-8.215-8.906-14.03
		c0.696-5.546,6.678-9.571,12.22-8.842s10.072,5.515,11.304,10.967c-1.088-3.462-0.093-7.493,2.483-10.05
		c2.575-2.557,6.614-3.523,10.068-2.41c7.258,2.34,9.294,12.438,5.876,19.255S82.136,84.196,75.562,88.06L74.24,87.611z"/>
	<g>
		<path d="M74.593,87.257c-3.668-3.667-8.362-5.728-12.832-8.215c-4.894-2.723-10.674-7.122-10.808-13.307
			c-0.123-5.698,5.293-10.103,10.79-9.918c5.923,0.199,10.448,5.228,11.823,10.675c0.321-0.089,0.643-0.177,0.964-0.266
			c-1.861-6.85,4.031-13.792,11.237-12.04c5.195,1.264,7.716,6.598,7.815,11.569c0.11,5.523-2.786,10.197-6.721,13.866
			c-2.122,1.978-4.5,3.657-6.942,5.214c-1.085,0.692-2.193,1.343-3.291,2.014c-1.037,0.633-1.156,0.652-2.256,0.278
			c-0.611-0.208-0.873,0.758-0.266,0.964c0.577,0.196,1.115,0.487,1.708,0.399c0.779-0.115,1.96-1.158,2.639-1.57
			c0.881-0.535,1.757-1.078,2.621-1.64c3.011-1.961,5.94-4.142,8.345-6.83c4.065-4.545,6.189-10.381,4.676-16.444
			c-1.361-5.455-5.915-9.711-11.79-8.977c-6.526,0.816-10.43,7.237-8.738,13.462c0.169,0.621,1.122,0.359,0.964-0.266
			c-1.345-5.331-5.407-10.101-10.966-11.204c-5.007-0.994-10.631,1.733-12.755,6.428c-2.512,5.552,0.904,11.297,5.115,14.884
			c5.487,4.674,12.809,6.478,17.961,11.63C74.342,88.42,75.049,87.713,74.593,87.257z"/>
	</g>
</g>
<g>
	<path fill="#EFD5DF" d="M75.58,85.39c-3.214-3.355-7.781-4.972-11.732-7.412s-7.634-6.516-7.055-11.129
		c0.552-4.399,5.292-7.593,9.683-7.015c4.391,0.577,7.98,4.374,8.955,8.699c-0.862-2.746-0.073-5.944,1.968-7.972
		s5.241-2.795,7.977-1.912c5.75,1.856,7.363,9.866,4.654,15.273c-2.709,5.408-8.192,8.759-13.402,11.825L75.58,85.39z"/>
	<g>
		<path fill="#EFD5DF" d="M75.934,85.037c-5.489-5.429-17.273-7.276-18.591-16.119c-0.706-4.735,3.538-8.682,8.141-8.644
			c4.76,0.04,8.344,4.059,9.465,8.392c0.321-0.089,0.643-0.177,0.964-0.266c-1.457-5.584,3.525-11.157,9.33-9.269
			c3.932,1.278,5.648,5.622,5.563,9.458c-0.096,4.355-2.583,7.975-5.741,10.796c-1.673,1.495-3.531,2.767-5.426,3.961
			c-1.246,0.785-2.489,2.051-3.926,1.562c-0.611-0.208-0.873,0.758-0.266,0.964c2.059,0.701,3.603-0.95,5.344-2.075
			c2.466-1.593,4.866-3.357,6.839-5.548c3.324-3.693,5.058-8.509,3.727-13.429c-1.165-4.307-4.875-7.61-9.526-6.944
			c-5.214,0.746-8.176,5.833-6.883,10.79c0.162,0.622,1.126,0.359,0.964-0.266c-1.088-4.204-4.227-7.996-8.618-8.93
			c-4.013-0.854-8.468,1.239-10.277,4.945c-2.002,4.1,0.174,8.512,3.213,11.41c4.401,4.197,10.655,5.624,14.997,9.919
			C75.684,86.197,76.392,85.49,75.934,85.037z"/>
	</g>
</g>
<g>
	<g>
		<path d="M91.763,127.054c0.231,0.713,0.462,1.426,0.693,2.139c-0.273,0.433-0.546,0.867-0.819,1.3
			c-0.332,0.428-0.761,0.783-1.102,1.205c-0.366,0.454-0.739,0.918-0.931,1.479c-0.579,1.693,0.495,2.843,0.816,4.445
			c0.768,3.832-5.087,4.062-4.399,7.784c0.087,0.471,0.304,0.887,0.546,1.296c0.805,1.361,1.421,1.539,1.444,3.247
			c0.035,2.671-2.494,3.309-3.927,5.215c-1.103,1.467-1.213,3.214-1.007,4.982c0.328,2.813,2.024,7.679-1.969,8.699
			c-0.623,0.159-0.359,1.124,0.266,0.964c5.473-1.398,2.316-7.833,2.612-11.471c0.295-3.629,4.103-4.156,5.183-7.236
			c0.653-1.862-0.453-2.946-1.392-4.413c-2.055-3.209,1.344-3.906,3.001-5.928c1.152-1.406,0.845-2.754,0.247-4.353
			c-0.711-1.899-0.459-3.188,0.872-4.729c0.547-0.634,1.099-1.16,1.412-1.948c0.535-1.348,0.369-2.897-1.041-3.541
			C91.686,125.925,91.177,126.786,91.763,127.054L91.763,127.054z"/>
	</g>
</g>
<g>
	<g>
		<path d="M91.866,122.823c-0.763,0.766-1.586,1.502-2.302,2.311c-0.359,0.406-0.597,0.902-0.068,1.307
			c0.241,0.184,0.502,0.113,0.77,0.128c0.514,0.028,0.842,0.282,1.3,0.46c0.373,0.145,0.655,0.107,1.048,0.099
			c0.611-0.012,0.96,0.356,1.348,0.786c0.433,0.478,1.138-0.231,0.707-0.707c-0.598-0.662-1.149-1.06-2.055-1.078
			c-0.622-0.013-0.911-0.202-1.452-0.433c-0.418-0.179-0.895-0.007-1.281-0.167c0.116,0.116,0.233,0.233,0.349,0.349
			c-0.074-0.177,2.12-2.122,2.343-2.346C93.028,123.073,92.321,122.366,91.866,122.823L91.866,122.823z"/>
	</g>
</g>
<g>
	<g>
		<path d="M93.293,123.907c0.386,1.364,0.772,2.727,1.158,4.091c0.205-0.205,0.41-0.41,0.615-0.615
			c-0.365-0.124-0.609-0.311-0.858-0.603c-0.418-0.491-1.122,0.22-0.707,0.707c0.357,0.419,0.779,0.684,1.299,0.86
			c0.366,0.124,0.714-0.264,0.615-0.615c-0.386-1.364-0.772-2.727-1.158-4.091C94.083,123.023,93.117,123.286,93.293,123.907
			L93.293,123.907z"/>
	</g>
</g>
<g>
	<path fill="#FFFFFF" d="M91.901,123.471c-1.412-3.004-4.136-5.141-6.255-7.694c-2.12-2.554-3.684-6.152-2.241-9.14
		c1.377-2.85,5.315-3.928,8.157-2.534s4.407,4.782,4.081,7.93c0.042-2.055,1.306-4.038,3.151-4.944
		c1.845-0.906,4.187-0.694,5.838,0.528c3.471,2.569,2.737,8.356-0.331,11.396c-3.068,3.039-7.546,4.054-11.772,4.938L91.901,123.471
		z"/>
	<g>
		<path d="M92.333,123.219c-2.422-4.719-9.167-8.258-8.977-14.068c0.124-3.8,3.941-6.035,7.421-4.805
			c3.168,1.119,4.558,4.542,4.367,7.687c-0.039,0.647,0.946,0.634,1,0c0.392-4.565,6.401-7.023,9.293-2.882
			c1.537,2.201,1.166,5.373-0.081,7.616c-1.412,2.539-3.997,4.045-6.64,5.04c-1.412,0.531-5.285,2.211-6.563,1.234
			c-0.511-0.391-1.01,0.477-0.505,0.863c1.242,0.95,2.565,0.222,4.017-0.14c2.135-0.531,4.264-1.204,6.184-2.299
			c3.184-1.816,5.497-4.865,5.583-8.632c0.077-3.35-2.035-6.397-5.514-6.76c-3.682-0.384-6.473,2.437-6.775,5.96
			c0.333,0,0.667,0,1,0c0.367-6.055-6.18-12.221-11.751-7.44c-7.115,6.106,4.577,14.262,7.076,19.131
			C91.763,124.296,92.626,123.791,92.333,123.219z"/>
	</g>
</g>
<g>
	<path fill="#EFD5DF" d="M93.022,122.522c-1.118-2.382-3.276-4.076-4.955-6.1c-1.679-2.025-2.918-4.878-1.772-7.248
		c1.092-2.261,4.214-3.117,6.465-2.012c2.252,1.104,3.491,3.791,3.232,6.288c0.034-1.629,1.036-3.203,2.499-3.922
		c1.462-0.719,3.318-0.552,4.627,0.417c2.75,2.036,2.166,6.626-0.266,9.038c-2.432,2.412-5.981,3.218-9.331,3.921L93.022,122.522z"
		/>
	<g>
		<path fill="#EFD5DF" d="M93.454,122.27c-1.884-3.587-6.345-6-6.974-10.172c-0.463-3.07,1.966-5.426,5.021-4.799
			c2.866,0.589,4.124,3.471,3.991,6.15c-0.032,0.653,0.934,0.627,1,0c0.39-3.725,5.332-5.394,7.346-1.962
			c1.021,1.74,0.653,4.112-0.312,5.788c-1.169,2.031-3.368,3.204-5.503,3.958c-1.057,0.374-3.807,1.577-4.749,0.856
			c-0.511-0.391-1.009,0.477-0.505,0.863c1.009,0.772,2.023,0.208,3.218-0.09c1.947-0.486,3.907-1.116,5.594-2.231
			c2.406-1.591,4.069-4.235,3.84-7.204c-0.485-6.289-9.281-6.184-9.93,0.021c0.333,0,0.667,0,1,0
			c0.237-4.801-4.772-9.75-9.346-6.092c-5.987,4.788,3.429,11.582,5.444,15.417C92.89,123.344,93.753,122.839,93.454,122.27z"/>
	</g>
</g>
<g>
	<g>
		<path d="M47.608,61.004c3-0.717,4.815,2.375,5.306,4.905c0.533,2.749-0.538,5.496-0.935,8.198
			c-0.538,3.667,0.252,6.709,3.097,9.146c2.926,2.507,7.355,4.296,7.538,8.725c0.159,3.838-2.276,7.318-3.253,10.914
			c-0.76,2.796-0.563,5.756,1.681,7.822c2.578,2.374,6.346,2.617,9.206,4.507c5.101,3.371,2.959,9.792,1.339,14.456
			c-1.47,4.232-2.256,8.191-0.405,12.447c2.133,4.905,6.367,8.326,9.648,12.408c3.582,4.455,6.359,11.587,1.355,16.159
			c-0.476,0.435,0.233,1.141,0.707,0.707c2.946-2.691,3.559-6.842,2.542-10.59c-1.258-4.638-4.867-8.148-8.008-11.586
			c-4.476-4.899-7.653-10.048-5.674-16.859c1.296-4.46,3.816-9.137,2.25-13.886c-1.214-3.68-4.631-4.922-7.935-6.197
			c-2.296-0.886-4.898-1.925-5.808-4.45c-0.762-2.113-0.101-4.376,0.63-6.398c1.219-3.37,3.342-6.999,2.581-10.717
			c-0.76-3.708-4.268-5.504-7.01-7.632c-2.984-2.316-4.028-4.995-3.491-8.78c0.371-2.614,1.357-5.279,1.024-7.949
			c-0.42-3.364-2.804-7.235-6.651-6.316C46.717,60.189,46.982,61.154,47.608,61.004L47.608,61.004z"/>
	</g>
</g>
<g>
	<g>
		<path d="M42.677,52.392c-0.646,2.768-1.484,5.561-1.951,8.364c-0.155,0.929-0.311,1.912,0.903,2.028
			c0.438,0.042,0.676-0.202,1.036-0.348c1.279-0.519,2.305-0.956,3.672-1.107c0.869-0.096,1.418-0.323,2.162-0.744
			c0.477-0.27,1.234-0.935,1.765-1.083c1.143-0.318,2.429,0.097,3.529,0.412c0.62,0.177,0.884-0.787,0.266-0.964
			c-1.663-0.476-3.116-0.788-4.761-0.135c-0.308,0.122-0.539,0.379-0.826,0.536c-0.811,0.751-1.749,1.087-2.815,1.009
			c-0.449-0.001-0.896,0.027-1.342,0.083c-0.19,0.038-1.291,0.531-1.444,0.531c-1.517-0.004-0.807-0.373-0.872-1.273
			c-0.074-1.02,0.588-2.518,0.822-3.522c0.274-1.174,0.548-2.348,0.822-3.522C43.788,52.032,42.824,51.765,42.677,52.392
			L42.677,52.392z"/>
	</g>
</g>
<g>
	<g>
		<path d="M47.116,52.062c2.753,2.518,5.507,5.036,8.26,7.553c0.074-0.279,0.147-0.557,0.221-0.836
			c-1.125,0.26-2.062,0.21-3.162-0.143c-0.614-0.197-0.877,0.768-0.266,0.964c1.25,0.402,2.415,0.44,3.694,0.143
			c0.359-0.083,0.493-0.586,0.221-0.836c-2.753-2.518-5.507-5.036-8.26-7.553C47.349,50.921,46.64,51.627,47.116,52.062
			L47.116,52.062z"/>
	</g>
</g>
<g>
	<path fill="#FFFFFF" d="M42.854,53.627c-7.322-4.767-16.382-5.777-24.666-8.555S1.415,36.406,0.506,27.716
		c-0.867-8.288,6.455-16.158,14.748-16.976c8.293-0.819,16.491,4.597,20.126,12.096c-2.753-4.658-2.672-10.848,0.202-15.433
		c2.873-4.584,8.41-7.355,13.802-6.908c11.33,0.94,17.706,14.913,15.051,25.968C61.78,37.518,53.163,45.995,44.926,53.832
		L42.854,53.627z"/>
	<g>
		<path d="M43.106,53.195c-7.307-4.604-15.897-5.737-23.981-8.342c-7.364-2.373-15.73-7.131-17.77-15.212
			c-2.11-8.355,4.543-16.665,12.661-18.219c8.69-1.664,17.125,4.15,20.933,11.666c0.288-0.168,0.576-0.336,0.863-0.505
			C31.989,15.678,34.12,6.753,41.14,2.84c5.841-3.256,12.825-2.056,17.418,2.703c4.084,4.231,6.084,10.372,5.969,16.188
			c-0.131,6.628-3.34,12.894-7.224,18.11c-2.367,3.178-5.057,6.096-7.851,8.9c-1.315,1.32-2.626,2.674-4.017,3.915
			c-0.898,0.801-1.374,0.591-2.582,0.471c-0.64-0.063-0.636,0.937,0,1c0.607,0.06,1.622,0.389,2.205,0.187
			c1.344-0.465,2.944-2.734,3.96-3.734c2.965-2.919,5.845-5.941,8.392-9.237c4.533-5.866,8.275-12.979,8.118-20.578
			c-0.129-6.239-2.584-12.802-7.357-16.969c-4.893-4.271-11.85-5.027-17.536-1.821c-7.481,4.218-9.786,13.707-5.686,21.112
			c0.314,0.566,1.153,0.066,0.863-0.505c-5.915-11.675-22.101-17.343-31.72-6.51c-4.064,4.576-5.338,10.893-2.74,16.524
			c2.701,5.853,8.566,9.728,14.354,12.083c8.848,3.599,18.671,4.197,26.896,9.378C43.147,54.403,43.65,53.538,43.106,53.195z"/>
	</g>
</g>
<g>
	<path fill="#EFD5DF" d="M44.048,49.949c-5.802-3.783-12.981-4.584-19.545-6.789c-6.564-2.205-13.291-6.876-14.013-13.769
		c-0.688-6.574,5.113-12.816,11.684-13.464s13.067,3.649,15.948,9.597c-2.182-3.695-2.118-8.606,0.158-12.242
		c2.276-3.636,6.663-5.833,10.935-5.478c8.978,0.747,14.031,11.831,11.929,20.6S52.215,43.896,45.69,50.112L44.048,49.949z"/>
	<g>
		<path fill="#EFD5DF" d="M44.3,49.517c-5.525-3.458-11.936-4.47-18.078-6.335c-5.914-1.796-12.658-5.228-14.732-11.528
			c-2.196-6.67,2.872-13.572,9.423-15.023c6.948-1.539,13.718,3.168,16.778,9.145c0.288-0.168,0.576-0.336,0.863-0.505
			c-3.972-7.294,0.709-16.591,9.236-16.992c6.271-0.295,10.829,4.882,12.505,10.467c1.895,6.314,0.115,12.569-3.353,17.994
			c-1.843,2.882-4.09,5.484-6.454,7.947c-1.115,1.162-2.263,2.293-3.421,3.413c-1.248,1.207-1.383,1.511-3.02,1.349
			c-0.64-0.063-0.636,0.937,0,1c0.561,0.056,1.295,0.285,1.835,0.12c1.102-0.338,2.528-2.373,3.33-3.167
			c2.314-2.29,4.553-4.665,6.538-7.249c3.746-4.878,6.74-10.817,6.324-17.122C61.421,13.129,52.044,2.847,41.814,9.14
			c-5.71,3.512-7.266,10.865-4.123,16.636c0.309,0.568,1.156,0.066,0.863-0.505c-3.057-5.971-9.456-10.529-16.38-9.845
			c-5.958,0.589-11.386,5.517-12.143,11.526C9.172,33.773,14.61,39.077,20.21,41.908c7.527,3.805,16.35,3.944,23.585,8.472
			C44.342,50.723,44.845,49.858,44.3,49.517z"/>
	</g>
</g>
<g>
	<g>
		<path d="M50.563,114.889c4.464-1.72,3.157,6.92,4.177,8.961c1.058,2.115,3.308,2.457,5.168,3.57
			c5.045,3.02-1.51,9.764,3.344,12.764c2.848,1.76,6.88,0.114,7.864,4.452c0.712,3.139-1.018,6.309,0.067,9.442
			c1.871,5.401,14.633,9.082,10.137,15.883c-0.356,0.538,0.51,1.04,0.863,0.505c4.385-6.633-5.464-10.57-8.694-14.439
			c-3.221-3.857-0.196-8.09-1.578-12.309c-0.908-2.771-3.277-3.21-5.853-3.68c-5.292-0.966-3.118-5.114-3.022-8.8
			c0.066-2.547-1.223-4-3.435-5.08c-2.176-1.062-4.087-1.709-4.415-4.534c-0.171-1.473,0.132-3.008-0.244-4.46
			c-0.538-2.077-2.38-4.112-4.645-3.24C49.703,114.154,49.961,115.121,50.563,114.889L50.563,114.889z"/>
	</g>
</g>
<g>
	<g>
		<path d="M46.702,110.568c-0.04,1.615-0.298,3.383-0.125,4.988c0.071,0.658,0.451,1.098,1.143,0.891
			c0.337-0.101,0.435-0.327,0.682-0.548c0.672-0.6,1.221-0.515,1.969-0.859c0.471-0.216,0.683-0.517,1.049-0.873
			c0.674-0.654,1.489-0.64,2.373-0.571c0.642,0.05,0.639-0.951,0-1c-0.797-0.062-1.676-0.108-2.401,0.298
			c-0.403,0.225-0.6,0.585-0.941,0.874c-0.552,0.469-0.973,0.46-1.6,0.667c-0.3,0.099-0.52,0.23-0.793,0.379
			c-0.495,0.27-0.349,0.547-0.456-0.255c-0.168-1.262,0.068-2.715,0.1-3.99C47.719,109.925,46.719,109.925,46.702,110.568
			L46.702,110.568z"/>
	</g>
</g>
<g>
	<g>
		<path d="M49.188,110.076c1.77,1.053,3.54,2.105,5.31,3.158c0-0.288,0-0.576,0-0.863c-0.539,0.248-1.037,0.3-1.616,0.238
			c-0.639-0.069-0.634,0.932,0,1c0.768,0.082,1.425-0.054,2.121-0.374c0.352-0.162,0.298-0.686,0-0.863
			c-1.77-1.053-3.54-2.105-5.31-3.158C49.139,108.883,48.635,109.747,49.188,110.076L49.188,110.076z"/>
	</g>
</g>
<g>
	<path fill="#FFFFFF" d="M47.161,111.198c-4.491-1.757-9.5-1.288-14.288-1.863s-10.035-2.806-11.499-7.4
		c-1.396-4.382,1.68-9.455,6.07-10.826c4.39-1.371,9.427,0.639,12.231,4.284c-2.009-2.209-2.658-5.564-1.618-8.363
		s3.722-4.916,6.686-5.278c6.229-0.76,11.238,6.077,11.041,12.349c-0.197,6.272-3.906,11.817-7.48,16.975L47.161,111.198z"/>
	<g>
		<path d="M47.293,110.716c-7.528-2.7-20.116,0.794-24.806-7.495c-2.296-4.059-0.032-9.23,3.993-11.191
			c4.555-2.219,9.839,0.058,12.841,3.718c0.236-0.236,0.471-0.471,0.707-0.707c-3.5-4.249-1.933-10.855,3.504-12.518
			c4.438-1.357,8.469,1.771,10.374,5.573c2.13,4.252,1.463,8.926-0.348,13.165c-0.896,2.097-2.041,4.066-3.272,5.983
			c-0.842,1.311-1.551,3.287-3.126,3.454c-0.633,0.067-0.64,1.068,0,1c0.406-0.043,1.09,0.01,1.446-0.229
			c0.99-0.662,1.923-2.755,2.544-3.721c1.718-2.676,3.292-5.489,4.244-8.538c1.602-5.126,0.968-10.743-2.81-14.774
			c-3.16-3.372-8.132-4.366-11.985-1.52c-4.223,3.119-4.509,8.908-1.277,12.831c0.41,0.497,1.112-0.213,0.707-0.707
			c-2.999-3.656-8.021-5.889-12.717-4.413c-3.83,1.204-6.769,5.039-6.771,9.08c-0.001,4.419,3.569,7.497,7.415,8.958
			c6.126,2.327,12.905,0.804,19.072,3.015C47.634,111.898,47.896,110.932,47.293,110.716z"/>
	</g>
</g>
<g>
	<path fill="#EFD5DF" d="M47.394,109.077c-3.559-1.395-7.528-1.024-11.323-1.481c-3.794-0.457-7.953-2.228-9.114-5.873
		c-1.108-3.476,1.329-7.499,4.807-8.585s7.471,0.509,9.693,3.402c-1.593-1.753-2.108-4.414-1.285-6.633
		c0.823-2.22,2.948-3.898,5.296-4.184c4.936-0.601,8.907,4.824,8.753,9.798c-0.155,4.974-3.091,9.372-5.922,13.461L47.394,109.077z"
		/>
	<g>
		<path fill="#EFD5DF" d="M47.527,108.594c-5.881-2.071-14.11,0.345-18.721-4.719c-2.825-3.102-1.558-7.791,1.96-9.768
			c3.592-2.018,7.921-0.114,10.338,2.785c0.415,0.497,1.106-0.213,0.707-0.707c-2.935-3.638-1.17-9.31,3.695-9.932
			c3.545-0.453,6.398,2.433,7.568,5.529c1.225,3.24,0.501,6.731-0.886,9.799c-0.689,1.524-1.547,2.967-2.45,4.372
			c-0.627,0.977-1.159,2.498-2.345,2.623c-0.633,0.067-0.64,1.068,0,1c1.821-0.193,2.224-1.589,3.209-3.118
			c1.367-2.124,2.635-4.366,3.39-6.788c1.298-4.164,0.803-8.726-2.318-11.969c-2.604-2.706-6.663-3.424-9.729-1.004
			c-3.271,2.581-3.355,7.083-0.842,10.197c0.236-0.236,0.471-0.471,0.707-0.707c-2.361-2.832-6.13-4.589-9.829-3.621
			c-3.282,0.859-5.851,4.075-5.785,7.501c0.191,9.994,15.159,7.413,21.064,9.493C47.869,109.773,48.131,108.807,47.527,108.594z"/>
	</g>
</g>
<g>
	<path fill="none" stroke="#000000" stroke-linecap="round" stroke-linejoin="round" stroke-miterlimit="10" d="M81.256,166.784
		c0.337-0.311,0.75-0.322,1.429-0.339c0.571-0.015,0.873-0.022,1.135,0.189c0.208,0.167,0.291,0.516,0.459,1.213
		c0.134,0.56,0.122,0.79,0.024,0.996c-0.087,0.183-0.216,0.29-0.279,0.342c-0.353,0.287-0.695,0.219-2.058,0.249
		c-0.406,0.009-0.495,0.018-0.626-0.053c-0.485-0.262-0.501-1.052-0.506-1.258C80.827,167.819,80.814,167.192,81.256,166.784z"/>
	<path fill="#FFFFFF" stroke="#000000" stroke-linecap="round" stroke-linejoin="round" stroke-miterlimit="10" d="M81.256,166.784
		c-0.623-0.644-1.885-1.881-3.29-2.754c-0.315-0.196-0.798-0.428-1.438-0.472c-0.507-0.035-1.049,0.121-1.381,0.506
		c-0.404,0.468-0.42,1.159-0.296,1.765c0.124,0.606,0.365,1.191,0.4,1.808c0.046,0.786-0.244,1.586-0.059,2.351
		c0.161,0.666,0.664,1.212,0.811,1.882c0.141,0.643-0.016,1.439,0.491,1.858c0.341,0.282,0.862,0.243,1.248,0.026
		c0.53-0.298,0.834-0.743,0.937-0.927c0.415-0.741,1.18-1.808,2.659-3.446l0.362-0.06c-0.193,0.929-0.528,2.101-1.13,3.378
		c-0.711,1.508-1.555,2.651-2.242,3.447l0.026-0.112c0.2,0.161,0.475,0.417,0.714,0.79c0.446,0.696,0.43,1.272,0.608,1.883
		c0.155,0.534,0.502,1.248,1.359,1.997l0.067-0.155c1.505-3.482,2.028-7.382,1.493-11.137l0.392,0.025
		c-0.007,3.793,1.055,7.582,3.03,10.82l0.088,0.144c0.098-0.952,0.396-1.593,0.654-2.006c0.432-0.691,0.907-0.99,1.182-1.8
		c0.162-0.477,0.179-0.907,0.168-1.192l0.042,0.107c-1.941-1.679-3.435-3.869-4.291-6.288l0.441-0.378
		c2.409,0.951,3.538,1.659,4.123,2.154c0.145,0.123,0.595,0.443,1.204,0.537c0.437,0.067,0.939-0.081,1.158-0.465
		c0.326-0.571-0.101-1.261-0.196-1.912c-0.099-0.678,0.179-1.367,0.095-2.047c-0.097-0.781-0.65-1.427-0.885-2.179
		c-0.184-0.59-0.166-1.223-0.264-1.833c-0.098-0.611-0.357-1.252-0.9-1.547c-0.447-0.243-1.008-0.197-1.47,0.014
		c-0.605,0.277-0.981,0.689-1.179,0.95c-1.097,1.444-2.087,3.313-2.432,3.979"/>
	<path fill="#EFD5DF" stroke="#000000" stroke-linecap="round" stroke-linejoin="round" stroke-miterlimit="10" d="M81.188,166.727
		c0.346-0.306,0.775-0.312,1.479-0.322c0.592-0.008,0.906-0.013,1.18,0.2c0.218,0.169,0.308,0.516,0.489,1.212
		c0.145,0.559,0.135,0.788,0.035,0.991c-0.089,0.181-0.221,0.286-0.286,0.337c-0.363,0.282-0.719,0.21-2.133,0.226
		c-0.422,0.005-0.514,0.012-0.65-0.059c-0.506-0.266-0.531-1.053-0.538-1.258C80.753,167.752,80.733,167.128,81.188,166.727z"/>
	<path fill="none" stroke="#000000" stroke-linecap="round" stroke-linejoin="round" stroke-miterlimit="10" d="M87.524,164.856
		c-0.783,1.134-1.868,2.057-3.112,2.65"/>
	<path fill="#FFFFFF" stroke="#000000" stroke-linecap="round" stroke-linejoin="round" stroke-miterlimit="10" d="M75.912,165.965
		c1.503,0.891,3.199,1.455,4.937,1.64"/>
	<path fill="none" stroke="#000000" stroke-linecap="round" stroke-linejoin="round" stroke-miterlimit="10" d="M84.435,167.957
		c1.649-0.433,3.494-0.038,4.823,1.031"/>
	<path fill="none" stroke="#000000" stroke-linecap="round" stroke-linejoin="round" stroke-miterlimit="10" d="M77.09,170.998"/>
	<path fill="none" stroke="#000000" stroke-linecap="round" stroke-linejoin="round" stroke-miterlimit="10" d="M76.547,171.618
		c0.61-1.785,2.213-3.194,4.061-3.57"/>
</g>
</svg>
