<?xml version="1.0" encoding="utf-8"?>
<!-- Generator: Adobe Illustrator 22.0.1, SVG Export Plug-In . SVG Version: 6.00 Build 0)  -->
<svg version="1.1" id="Шар_1" xmlns="http://www.w3.org/2000/svg" xmlns:xlink="http://www.w3.org/1999/xlink" x="0px" y="0px"
	 width="67.116px" height="108.197px" viewBox="0 0 67.116 108.197" enable-background="new 0 0 67.116 108.197"
	 xml:space="preserve">
<g>
	<g>
		<path d="M25.789,51.688c0.874,0.072,1.332,2.031,1.154,2.744c-0.117,0.47-0.396,0.957-0.572,1.409
			c-0.333,0.855-0.68,1.685-0.595,2.615c0.122,1.338,1.018,2.163,1.846,3.139c2.957,3.488-2.608,5.406-1.314,8.862
			c0.498,1.33,1.808,1.653,2.765,2.524c3.016,2.746-0.37,5.145-1.112,7.971c-0.437,1.666,0.033,3.263,0.775,4.765
			c1.216,2.465,4.595,6.532,1.16,8.864c-0.529,0.359-0.03,1.226,0.505,0.863c4.661-3.164-0.38-8.101-1.388-11.663
			c-0.957-3.384,2.238-5.24,2.392-8.351c0.098-1.99-1.154-2.78-2.6-3.813c-3.209-2.292-0.265-4.205,0.611-6.69
			c0.576-1.634-0.048-2.782-1.085-4.04c-1.572-1.909-1.584-3.136-0.74-5.366c0.347-0.917,0.604-1.702,0.414-2.69
			c-0.242-1.257-0.936-2.04-2.214-2.145C25.147,50.635,25.151,51.636,25.789,51.688L25.789,51.688z"/>
	</g>
</g>
<g>
	<g>
		<path d="M24.38,47.625c-0.457,0.977-0.956,1.944-1.373,2.938c-0.188,0.449-0.346,0.954,0.189,1.25
			c0.182,0.1,0.424,0.087,0.622,0.062c0.449-0.058,0.818-0.229,1.305-0.191c0.343,0.027,0.65,0.056,0.984-0.043
			c0.148-0.044,0.296-0.149,0.443-0.184c0.483-0.117,1.017,0.028,1.469,0.265c0.569,0.299,1.075-0.564,0.505-0.863
			c-0.846-0.444-1.507-0.634-2.422-0.299c-0.585,0.214-0.996,0.027-1.582,0.044c-0.059,0.002-0.942,0.18-0.863,0.266
			c0.043,0.162,0.086,0.324,0.129,0.486c0.256-1.098,0.981-2.203,1.458-3.225C25.515,47.551,24.653,47.042,24.38,47.625
			L24.38,47.625z"/>
	</g>
</g>
<g>
	<g>
		<path d="M26.046,48.165c0.826,1.152,1.651,2.304,2.477,3.455c0.144-0.251,0.288-0.502,0.432-0.752
			c-0.377,0.007-0.682-0.066-1.01-0.254c-0.56-0.32-1.064,0.544-0.505,0.863c0.479,0.274,0.963,0.401,1.515,0.391
			c0.35-0.007,0.662-0.431,0.432-0.752c-0.826-1.152-1.651-2.304-2.477-3.455C26.538,47.142,25.671,47.64,26.046,48.165
			L26.046,48.165z"/>
	</g>
</g>
<g>
	<g>
		<path d="M45.013,39.821c2.379,0.934,0.278,3.97-0.663,5.051c-0.653,0.751-1.413,1.447-1.876,2.344
			c-1.043,2.023-0.07,3.696,0.61,5.641c1.931,5.522-5.832,5.356-5.47,10.183c0.175,2.338,2.568,3.62,2.867,5.914
			c0.467,3.575-3.877,4.941-5.561,7.538c-1.272,1.962-1.222,4.305-0.872,6.539c0.547,3.495,2.243,9.525-2.687,10.686
			c-0.626,0.147-0.361,1.112,0.266,0.964c7.492-1.765,2.165-11.39,3.411-16.029c0.959-3.567,5.266-4.517,6.426-7.955
			c0.976-2.892-1.372-4.166-2.458-6.491c-1.596-3.419,2.68-4.671,4.441-6.734c1.533-1.795,1.087-3.614,0.28-5.647
			c-0.549-1.381-1.129-2.502-0.391-4.104c0.384-0.834,1.118-1.469,1.72-2.142c0.761-0.851,1.493-1.651,1.806-2.773
			c0.457-1.639,0.075-3.298-1.584-3.949C44.679,38.622,44.42,39.588,45.013,39.821L45.013,39.821z"/>
	</g>
</g>
<g>
	<g>
		<path d="M44.883,33.888c-0.927,0.996-1.584,2.183-2.438,3.234c-0.396,0.487-1.175,1.076-0.604,1.742
			c0.163,0.191,0.435,0.267,0.674,0.313c0.276,0.053,0.539-0.03,0.84,0.028c0.402,0.078,0.632,0.237,0.987,0.403
			c0.421,0.197,0.758,0.263,1.218,0.275c0.307,0.008,0.632-0.092,0.939-0.007c0.492,0.136,0.914,0.643,1.25,1.011
			c0.435,0.476,1.141-0.233,0.707-0.707c-0.574-0.627-1.177-1.214-2.053-1.332c-0.566-0.076-0.971,0.117-1.557-0.103
			c-0.347-0.13-0.632-0.401-0.988-0.52c-0.129-0.043-0.83-0.073-0.879-0.112c-0.073-0.058,0.357-0.515,0.497-0.701
			c0.707-0.941,1.31-1.952,2.114-2.817C46.028,34.124,45.323,33.416,44.883,33.888L44.883,33.888z"/>
	</g>
</g>
<g>
	<g>
		<path d="M46.911,35.809c0.501,1.749,1.002,3.498,1.503,5.246c0.205-0.205,0.41-0.41,0.615-0.615
			c-0.493-0.165-0.829-0.413-1.167-0.806c-0.419-0.489-1.124,0.221-0.707,0.707c0.444,0.518,0.963,0.847,1.608,1.063
			c0.365,0.122,0.716-0.263,0.615-0.615c-0.501-1.749-1.002-3.498-1.503-5.246C47.699,34.926,46.734,35.189,46.911,35.809
			L46.911,35.809z"/>
	</g>
</g>
<g>
	<g>
		<path d="M25.683,48.36c9.415-3.34,23.428-10.438,21.239-22.676c-0.764-4.272-3.827-8.276-8.341-8.821
			c-3.975-0.48-8.026,1.642-9.334,5.502c0.321,0.089,0.643,0.177,0.964,0.266c1.721-6.822-4.347-11.873-10.597-12.527
			c-6.586-0.689-14.647,1.932-17.529,8.358c-2.606,5.812-0.459,12.856,3.506,17.51c5.078,5.959,12.512,9.933,19.825,12.388
			c0.611,0.205,0.874-0.76,0.266-0.964C15.219,43.884,0.586,35.469,2.048,22.431c0.773-6.889,7.075-10.628,13.476-11.309
			c6.583-0.7,15.787,3.06,13.723,11.243c-0.159,0.629,0.759,0.872,0.964,0.266c1.341-3.958,6.133-5.777,9.959-4.38
			c4.318,1.577,6.345,6.665,5.901,10.97c-1.026,9.947-12.427,15.256-20.654,18.175C24.815,47.609,25.074,48.576,25.683,48.36z"/>
	</g>
</g>
<g>
	<path fill="#FFFFFF" d="M45.858,35.677c-2.557-5.811-4.875-12.264-6.53-18.393c-0.696-2.578-1.314-5.221-1.191-7.889
		s1.076-5.398,3.082-7.161c3.363-2.957,9.346-1.999,11.618,1.86c2.299,3.906,0.712,8.975-1.754,12.777
		c1.282-2.107,2.602-4.258,4.514-5.816c1.913-1.558,4.566-2.435,6.893-1.616c2.949,1.038,4.472,4.551,4.075,7.652
		c-0.397,3.101-2.299,5.805-4.437,8.085C57.38,30.239,52.593,34.005,45.858,35.677L45.858,35.677z"/>
	<g>
		<path d="M46.29,35.424c-2.095-4.808-3.938-9.724-5.465-14.743c-1.401-4.606-3.287-9.985-1.502-14.734
			c1.725-4.589,7.104-6.456,11.212-3.593c4.905,3.419,2.674,10.152,0.116,14.263c0.288,0.168,0.576,0.336,0.863,0.505
			c2.208-3.614,6.256-9.48,11.333-6.993c4.563,2.235,3.552,8.266,1.306,11.725c-4.105,6.323-11.182,11.434-18.428,13.34
			c-0.622,0.164-0.358,1.128,0.266,0.964c4.877-1.282,9.139-3.74,12.892-7.089c3.487-3.112,7.629-7.064,8.182-11.979
			c0.425-3.775-1.774-8.047-5.869-8.43c-5.057-0.473-8.247,4.195-10.545,7.958c-0.337,0.551,0.524,1.05,0.863,0.505
			c2.561-4.116,4.62-10.205,0.969-14.363c-2.667-3.038-7.737-3.698-11.043-1.338c-4.511,3.221-4.17,9.502-3.04,14.266
			c1.646,6.939,4.181,13.713,7.025,20.241C45.682,36.517,46.544,36.009,46.29,35.424z"/>
	</g>
</g>
<g>
	<path fill="#EFD5DF" d="M45.792,31.694c-2.193-4.913-4.01-9.989-5.429-15.171c-0.597-2.18-1.127-4.414-1.021-6.669
		s0.923-4.564,2.644-6.054c2.884-2.5,8.017-1.69,9.966,1.573c1.972,3.302,0.611,7.587-1.505,10.802c1.1-1.782,2.232-3.6,3.872-4.917
		s3.917-2.059,5.913-1.367c2.53,0.877,3.836,3.848,3.495,6.469s-1.972,4.907-3.806,6.835C55.848,27.475,51.57,30.28,45.792,31.694
		L45.792,31.694z"/>
</g>
<g>
	<path fill="#EFD5DF" d="M25.775,46.627c3.74-1.488,6.43-2.246,9.686-4.681s5.977-5.938,6.699-10.07s-0.952-8.859-4.518-10.778
		s-8.729-0.024-9.715,4.047c0.845-3.242-0.945-6.816-3.666-8.599s-6.142-2.023-9.298-1.457c-3.542,0.636-7.07,2.361-9.103,5.468
		C2.337,25.938,4.532,33.755,9.058,38.26S19.799,44.767,25.775,46.627L25.775,46.627z"/>
</g>
<g>
	<path fill="none" stroke="#000000" stroke-linecap="round" stroke-linejoin="round" stroke-miterlimit="10" d="M30.255,93.779
		c0.337-0.311,0.75-0.322,1.429-0.339c0.571-0.015,0.873-0.022,1.135,0.189c0.208,0.167,0.292,0.516,0.459,1.213
		c0.134,0.56,0.122,0.79,0.024,0.996c-0.087,0.183-0.216,0.29-0.279,0.341c-0.353,0.287-0.695,0.219-2.058,0.249
		c-0.406,0.009-0.495,0.018-0.626-0.053c-0.485-0.262-0.501-1.052-0.506-1.258C29.826,94.814,29.813,94.187,30.255,93.779z"/>
	<path fill="#FFFFFF" stroke="#000000" stroke-linecap="round" stroke-linejoin="round" stroke-miterlimit="10" d="M30.255,93.779
		c-0.623-0.644-1.885-1.881-3.29-2.754c-0.315-0.196-0.798-0.428-1.438-0.472c-0.507-0.035-1.049,0.121-1.381,0.506
		c-0.404,0.468-0.42,1.159-0.296,1.765c0.124,0.606,0.365,1.191,0.4,1.808c0.046,0.786-0.244,1.586-0.059,2.351
		c0.161,0.666,0.664,1.212,0.811,1.882c0.141,0.643-0.016,1.439,0.491,1.858c0.341,0.282,0.862,0.243,1.248,0.026
		c0.53-0.298,0.834-0.743,0.937-0.927c0.415-0.741,1.18-1.808,2.659-3.446l0.362-0.06c-0.193,0.929-0.528,2.101-1.13,3.378
		c-0.711,1.508-1.555,2.651-2.242,3.447l0.026-0.112c0.2,0.161,0.475,0.417,0.714,0.79c0.446,0.696,0.43,1.272,0.608,1.883
		c0.155,0.534,0.502,1.248,1.359,1.997l0.067-0.155c1.505-3.482,2.028-7.382,1.493-11.137l0.392,0.025
		c-0.007,3.793,1.055,7.582,3.03,10.82l0.088,0.144c0.098-0.952,0.396-1.593,0.654-2.006c0.432-0.691,0.907-0.99,1.182-1.8
		c0.162-0.477,0.179-0.907,0.168-1.192l0.042,0.107c-1.941-1.679-3.435-3.869-4.291-6.288l0.441-0.378
		c2.409,0.951,3.538,1.659,4.123,2.154c0.145,0.123,0.595,0.443,1.204,0.537c0.437,0.067,0.939-0.08,1.158-0.465
		c0.326-0.571-0.101-1.261-0.196-1.912c-0.099-0.678,0.179-1.367,0.095-2.047c-0.097-0.781-0.65-1.427-0.885-2.179
		c-0.184-0.59-0.166-1.223-0.264-1.833c-0.098-0.611-0.357-1.252-0.9-1.547c-0.447-0.243-1.008-0.197-1.47,0.014
		c-0.605,0.277-0.981,0.689-1.179,0.95c-1.097,1.444-2.087,3.313-2.432,3.979"/>
	<path fill="#EFD5DF" stroke="#000000" stroke-linecap="round" stroke-linejoin="round" stroke-miterlimit="10" d="M30.186,93.722
		c0.346-0.306,0.775-0.312,1.479-0.322c0.592-0.008,0.906-0.013,1.18,0.2c0.218,0.169,0.308,0.516,0.489,1.212
		c0.145,0.559,0.135,0.788,0.035,0.991c-0.089,0.181-0.221,0.286-0.286,0.337c-0.363,0.282-0.719,0.21-2.133,0.226
		c-0.422,0.005-0.514,0.012-0.65-0.059c-0.506-0.266-0.531-1.053-0.538-1.258C29.752,94.747,29.732,94.124,30.186,93.722z"/>
	<path fill="none" stroke="#000000" stroke-linecap="round" stroke-linejoin="round" stroke-miterlimit="10" d="M36.523,91.851
		c-0.783,1.134-1.868,2.057-3.112,2.65"/>
	<path fill="#FFFFFF" stroke="#000000" stroke-linecap="round" stroke-linejoin="round" stroke-miterlimit="10" d="M24.911,92.96
		c1.503,0.891,3.199,1.455,4.937,1.64"/>
	<path fill="none" stroke="#000000" stroke-linecap="round" stroke-linejoin="round" stroke-miterlimit="10" d="M33.434,94.952
		c1.649-0.433,3.494-0.038,4.823,1.031"/>
	<path fill="none" stroke="#000000" stroke-linecap="round" stroke-linejoin="round" stroke-miterlimit="10" d="M26.089,97.993"/>
	<path fill="none" stroke="#000000" stroke-linecap="round" stroke-linejoin="round" stroke-miterlimit="10" d="M25.546,98.613
		c0.61-1.785,2.213-3.194,4.061-3.57"/>
</g>
</svg>
