<?xml version="1.0" encoding="utf-8"?>
<!-- Generator: Adobe Illustrator 22.0.1, SVG Export Plug-In . SVG Version: 6.00 Build 0)  -->
<svg version="1.1" id="Шар_1" xmlns="http://www.w3.org/2000/svg" xmlns:xlink="http://www.w3.org/1999/xlink" x="0px" y="0px"
	 width="825.335px" height="151px" viewBox="0 0 825.335 151" enable-background="new 0 0 825.335 151" xml:space="preserve">
<g>
	<path d="M750.85,45.699c-0.007-0.056-0.059-0.093-0.08-0.145c-0.045-0.113-0.084-0.229-0.178-0.301c-0.001,0,0-0.001-0.001-0.002
		c-0.038-0.029-0.086-0.014-0.128-0.033c-0.111-0.053-0.221-0.114-0.358-0.096c-43.286,5.378-63.601,3.153-96.662-2.816
		c-21.334-3.855-54.873-8.073-59.097-4.884c-0.47,0.354-0.601,0.759-0.63,1.035c-0.016,0.161-0.047,0.33-0.023,0.525
		c0,0.008-0.007,0.013-0.007,0.021c0.394,3.94,0.831,6.571,1.223,9.515c0.385,2.882,0.883,6.871,1.269,10.726
		c-41.511,7.973-114.692,20.339-169.895,20.467c-0.286,0.001-0.555,0.001-0.841,0.001c-64.422,0-146.874-17.197-194.072-28.49
		l-0.889-18.792c0-0.011-0.01-0.016-0.011-0.027c0.007-1.176-0.244-2.109-0.344-2.464c-0.537-1.893-1.808-3.4-3.778-4.482
		c-10.327-5.676-38.439,1.4-54.277,6.124l-0.457,0.136c-27.901,8.288-41.549,10.334-96.584,2.799
		c-0.062-0.009-0.108,0.036-0.167,0.044c-0.059,0.007-0.115-0.025-0.172-0.002c-0.031,0.012-0.038,0.048-0.065,0.064
		c-0.078,0.044-0.122,0.103-0.177,0.174c-0.055,0.071-0.101,0.128-0.124,0.213c-0.009,0.031-0.042,0.047-0.046,0.079
		c-0.009,0.062,0.036,0.108,0.044,0.167c0.007,0.059-0.025,0.115-0.002,0.173C80.72,51.35,85.257,57.712,95.427,65.021
		c9.797,7.041,20.397,9.984,24.056,10.844c-2.803,2.393-11.32,9.404-23.292,16.896c-5.331,3.336-10.143,5.951-13.657,7.86
		c-0.888,0.483-1.707,0.928-2.452,1.34c-0.145,0.079-0.253,0.215-0.307,0.383c-0.002,0.008-0.013,0.011-0.015,0.019
		c0,0.001-0.001,0.001-0.001,0.002c-0.036,0.126,0.008,0.244,0.042,0.361c0.014,0.049-0.009,0.1,0.016,0.146c0,0,0,0,0.001,0.001
		c0.001,0.002,0.003,0.002,0.004,0.004c0.08,0.142,0.21,0.226,0.352,0.279c0.019,0.008,0.026,0.031,0.046,0.036
		c21.087,5.989,39.471,9.001,56.254,9.001c19.575,0,37.68-4.47,54.646-12.74l0.124,8.148c0.026,1.76,1.347,3.603,3.004,4.194
		C195.346,112.189,305.499,151,425.268,151c103.043,0,204.814-34.098,205.831-34.443c1.685-0.572,2.96-2.411,2.9-4.188l-0.129-3.852
		c22.067,8.946,43.345,16.33,68.958,16.33c12.744,0,26.988-1.893,42.504-6.266c0.035-0.01,0.046-0.047,0.078-0.061
		c0.172-0.059,0.328-0.162,0.407-0.342c0.146-0.34-0.01-0.733-0.35-0.879c-20.79-8.963-35.389-19.17-47.171-33.008
		c9.246-2.453,18.24-6.731,26.749-12.723c9.308-6.555,17.948-15.094,25.681-25.38c0.068-0.09,0.061-0.199,0.078-0.303
		c0.011-0.064,0.058-0.114,0.05-0.181C750.853,45.702,750.85,45.701,750.85,45.699z M595.222,40.705
		c2.789,1.874,10.529,5.277,31.661,12.303c-3.923,0.853-14.502,3.111-29.383,5.983c-0.39-3.838-0.881-7.786-1.262-10.649
		C595.912,45.903,595.556,43.637,595.222,40.705z M230.015,50.898c-13.846-3.327-24.514-6.109-30.616-7.74
		c0.879,0.034,1.752,0.086,2.64,0.086c11.985,0,23.652-1.548,27.281-7.032L230.015,50.898z M190.278,44.2l0.819,53.792
		c-30.947,15.26-64.125,16.806-108.908,4.344c0.334-0.182,0.628-0.344,0.985-0.538c3.528-1.918,8.361-4.543,13.729-7.901
		c14.809-9.268,24.378-17.817,24.474-17.902c0.191-0.171,0.266-0.435,0.197-0.681c-0.071-0.246-0.273-0.43-0.525-0.475
		c-0.129-0.024-13.061-2.437-24.84-10.903c-9.689-6.963-14.153-13.096-20.21-27.939c54.326,7.382,68.085,5.295,95.998-2.996
		l0.457-0.137c26.999-8.052,45.913-10.266,53.252-6.232c1.667,0.916,2.692,2.117,3.134,3.674c0.121,0.426,0.443,1.557,0.243,2.919
		c-0.972,6.664-13.778,9.491-36.227,8.252c-0.054-0.004-0.099,0.043-0.153,0.055c-0.529,0.023-1.033,0.14-1.435,0.451
		C190.625,42.477,190.265,43.284,190.278,44.2z M630.67,115.29c-1.014,0.344-102.577,34.373-205.402,34.373
		c-119.529,0-229.474-38.734-230.571-39.125c-1.129-0.404-2.098-1.757-2.116-2.956l-0.965-63.403
		c-0.008-0.495,0.158-0.899,0.468-1.135c0.198-0.152,0.446-0.229,0.725-0.23c0.007,0,0.013,0.001,0.02,0.001
		c0.15,0.002,0.308,0.023,0.471,0.069c1.358,0.383,136.533,38.166,232.145,38.166c0.281,0,0.563-0.001,0.843-0.001
		c81.263-0.189,201.371-26.836,202.575-27.105c0.494-0.11,0.967-0.021,1.314,0.249c0.353,0.272,0.554,0.701,0.57,1.21l1.915,57.01
		C632.7,113.593,631.788,114.911,630.67,115.29z M724.276,70.474c-8.692,6.121-17.89,10.423-27.34,12.786
		c-0.225,0.056-0.402,0.223-0.473,0.442c-0.073,0.219-0.026,0.46,0.123,0.636c11.707,14.021,26.147,24.373,46.605,33.415
		c-45.628,12.396-75.625,3.015-109.371-10.695l-1.736-51.696c-0.029-0.914-0.415-1.703-1.087-2.225
		c-0.153-0.119-0.344-0.154-0.514-0.236c-0.067-0.062-0.112-0.145-0.204-0.176c-33.67-11.078-35.26-13.421-35.232-14.129
		c0.914-2.319,27.052-0.59,58.159,5.028c32.777,5.919,53.122,8.158,95.472,3.014C741.28,56.245,733.081,64.273,724.276,70.474z"/>
</g>
<g>
	<g>
		<path d="M38.711,67.701c-4.499,0-7.996-1.003-9.538-1.446c-1.969-0.564-6.066-1.739-10.25-5.109
			c-1.86-1.498-5.32-4.769-7.593-9.853c-0.644-1.438-1.842-4.116-2.056-7.868c-0.11-1.894,0.048-3.802,0.466-5.67l0.133-0.593
			l0.602,0.076c4.5,0.559,8.898,0.01,12.718-1.595c4.147-1.743,6.948-4.398,9.658-6.968c1.206-1.143,1.692-1.719,2.662-2.867
			c0.775-0.92,1.844-2.185,3.805-4.362c4.921-5.461,7.182-7.917,9.209-8.899c5.444-2.637,10.975-1.383,13.1-0.722
			c5.674,1.769,9.438,4.8,10.595,8.534c0.541,1.744,0.4,3.221,0.263,4.65c-0.162,1.697-0.315,3.3,0.605,5.429l0,0
			c0.64,1.483,1.637,2.828,2.964,4l1.035,0.916l-8.68,1.562c-0.319,0.427-0.61,0.878-0.867,1.342
			c-1.829,3.292-1.591,6.543-1.433,8.694c0.031,0.415,0.057,0.782,0.065,1.092c0.178,7.344-9.364,15.152-18.307,18.174
			C44.587,67.324,41.461,67.701,38.711,67.701z M10.924,38.635c-0.299,1.558-0.405,3.14-0.315,4.714
			c0.201,3.506,1.334,6.037,1.941,7.397c2.159,4.828,5.446,7.934,7.212,9.357c3.974,3.202,7.895,4.325,9.78,4.866
			c2.64,0.756,9.648,2.764,17.897-0.02c8.53-2.883,17.556-10.351,17.398-16.875c-0.007-0.29-0.033-0.635-0.061-1.025
			c-0.159-2.17-0.426-5.801,1.596-9.443c0.332-0.597,0.715-1.174,1.136-1.715l0.158-0.201l6.546-1.178
			c-1.007-1.074-1.795-2.261-2.349-3.544c-1.055-2.444-0.879-4.296-0.708-6.086c0.129-1.357,0.252-2.64-0.209-4.126
			c-1.024-3.302-4.474-6.019-9.715-7.653c-1.541-0.481-6.965-1.85-12.121,0.649c-1.877,0.909-4.335,3.638-8.799,8.591
			c-1.945,2.159-3.007,3.416-3.776,4.328c-0.971,1.149-1.505,1.782-2.759,2.972c-2.802,2.656-5.694,5.397-10.066,7.234
			C19.851,38.498,15.447,39.098,10.924,38.635z"/>
	</g>
	<g>
		<path d="M64.633,27.579c-0.003,0-0.005,0-0.008,0c-0.368-0.004-0.665-0.307-0.661-0.677c0.013-1.153-0.584-2.221-1.52-2.718
			c-1.221-0.651-2.807-0.282-3.765,0.871c-0.234,0.287-0.656,0.321-0.942,0.088c-0.285-0.236-0.324-0.658-0.088-0.942
			c1.361-1.638,3.643-2.144,5.421-1.198c1.395,0.742,2.249,2.242,2.231,3.915C65.298,27.285,64.998,27.579,64.633,27.579z"/>
	</g>
	<g>
		<path fill="#EFD5DF" d="M42.012,31.998c1.127,0.36,1.376,2.487,1.473,3.311c0.391,3.335-0.787,10.736-3.775,14.16
			c-5.382,6.167-21.364,4.847-38.032-5.661c16.564,2.29,23.41-0.438,26.512-3.616c1.341-1.373,5.05-3.555,12.467-7.919
			C40.873,32.146,41.449,31.818,42.012,31.998z"/>
	</g>
	<g>
		<path fill="#EFD5DF" d="M10.456,37.59c-3.28,0.388-7.657-12.44-9.105-21.625C0.312,9.38,0.538,3.137,1.521,2.973
			c1.069-0.179,2.898,6.86,4.035,6.614c0.523-0.113,0.46-1.669,1.37-5.613C7.635,0.896,7.941,0.68,8.122,0.67
			c1.046-0.059,1.542,6.549,3.255,6.689c1.316,0.108,2.151-3.7,2.799-3.606C16.054,4.025,15.607,36.982,10.456,37.59z"/>
		<path d="M10.315,38.267c-4.273,0-8.425-14.584-9.626-22.197C0.246,13.263-0.928,2.704,1.409,2.312
			c1.045-0.157,1.656,1.257,2.674,3.625c0.345,0.805,0.87,2.027,1.259,2.65C5.405,8.294,5.473,7.903,5.543,7.5
			c0.154-0.882,0.364-2.086,0.73-3.676c0.742-3.223,1.102-3.78,1.81-3.821c0.963-0.074,1.361,1.236,1.903,3.198
			c0.261,0.944,0.956,3.452,1.443,3.493c0.193-0.004,0.613-0.618,1.214-1.882c0.504-1.061,0.827-1.822,1.628-1.72
			c0.515,0.074,1.723,0.249,1.578,11.362c-0.05,3.876-0.543,23.238-5.315,23.801l0,0C10.461,38.263,10.388,38.267,10.315,38.267z
			 M1.657,3.931C1.25,5.38,1.101,10.087,2.011,15.861c1.628,10.321,5.994,21.292,8.367,21.066l0,0
			c0.26-0.031,0.79-0.297,1.425-1.729c2.995-6.762,3.115-26.084,2.245-30.22c-0.068,0.138-0.135,0.281-0.196,0.408
			c-0.609,1.284-1.325,2.734-2.532,2.641C9.902,7.91,9.317,5.796,8.698,3.559C8.553,3.035,8.361,2.34,8.183,1.846
			C8.042,2.272,7.842,2.972,7.577,4.124C7.218,5.683,7.011,6.865,6.861,7.729C6.58,9.341,6.452,10.077,5.699,10.24
			c-1.133,0.252-1.807-1.355-2.845-3.775C2.504,5.649,2.014,4.508,1.657,3.931z"/>
	</g>
	<g>
		<path fill="none" stroke="#000000" stroke-width="0.5" stroke-linecap="round" stroke-miterlimit="10" d="M30.439,82.962"/>
	</g>
	<g>
		<path d="M38.226,83.164c-0.185,0-0.37-0.077-0.503-0.227c-1.406-1.6-3.42-2.696-5.527-3.006l-0.456-0.068l-0.099-0.451
			c-0.944-4.277-0.905-8.791,0.115-13.055c0.085-0.359,0.438-0.59,0.806-0.495c0.359,0.086,0.581,0.447,0.495,0.806
			c-0.939,3.923-1.007,8.067-0.202,12.017c2.245,0.44,4.365,1.65,5.874,3.368c0.243,0.278,0.216,0.7-0.061,0.944
			C38.54,83.109,38.382,83.164,38.226,83.164z"/>
	</g>
	<g>
		<path d="M35.189,84.654c-0.255,0-0.498-0.146-0.61-0.394c-0.618-1.372-1.583-2.572-2.793-3.475
			c-0.256-0.189-0.645-0.478-0.754-0.982c-0.085-0.411,0.094-0.85,0.447-1.096c0.316-0.216,0.703-0.231,1.014-0.037
			c0.312,0.196,0.408,0.609,0.212,0.922c-0.03,0.048-0.067,0.091-0.107,0.131c1.386,1.037,2.492,2.415,3.202,3.988
			c0.152,0.336,0.001,0.733-0.336,0.884C35.374,84.636,35.281,84.654,35.189,84.654z"/>
	</g>
	<g>
		<path d="M29.453,83.909c-0.052,0-0.106-0.007-0.161-0.02c-0.358-0.089-0.577-0.451-0.489-0.81c0.283-1.152,0.694-2.272,1.219-3.33
			c0.14-0.281,0.4-0.805,0.908-1.097c0.33-0.191,0.75-0.243,1.119-0.136c0.325,0.095,0.585,0.306,0.731,0.592
			c0.17,0.328,0.04,0.731-0.289,0.9c-0.327,0.17-0.73,0.042-0.9-0.289c-0.152,0.183-0.295,0.47-0.371,0.624
			c-0.482,0.971-0.858,1.999-1.119,3.057C30.028,83.705,29.753,83.909,29.453,83.909z"/>
	</g>
	<g>
		<path fill="none" stroke="#000000" stroke-width="0.5" stroke-linecap="round" stroke-miterlimit="10" d="M41.174,83.468"/>
	</g>
	<g>
		<path d="M48.96,83.671c-0.185,0-0.37-0.077-0.503-0.227c-1.406-1.6-3.42-2.696-5.527-3.006l-0.456-0.068l-0.099-0.451
			c-0.944-4.278-0.905-8.792,0.115-13.055c0.084-0.359,0.442-0.589,0.806-0.495c0.359,0.086,0.581,0.447,0.495,0.806
			c-0.938,3.921-1.007,8.067-0.202,12.017c2.245,0.44,4.365,1.65,5.874,3.368c0.243,0.278,0.216,0.7-0.061,0.944
			C49.275,83.616,49.117,83.671,48.96,83.671z"/>
	</g>
	<g>
		<path d="M45.923,85.161c-0.255,0-0.498-0.146-0.61-0.394c-0.618-1.372-1.583-2.572-2.793-3.475
			c-0.256-0.189-0.645-0.478-0.754-0.982c-0.085-0.41,0.094-0.849,0.445-1.095c0.313-0.218,0.7-0.233,1.012-0.04
			c0.313,0.195,0.41,0.606,0.216,0.921c-0.031,0.05-0.068,0.094-0.108,0.133c1.386,1.037,2.492,2.415,3.202,3.989
			c0.152,0.336,0.001,0.733-0.336,0.884C46.109,85.143,46.016,85.161,45.923,85.161z"/>
	</g>
	<g>
		<path d="M40.188,84.414c-0.052,0-0.106-0.007-0.161-0.02c-0.358-0.089-0.577-0.451-0.489-0.81
			c0.285-1.152,0.695-2.272,1.219-3.328c0.206-0.415,0.458-0.839,0.905-1.097c0.336-0.193,0.755-0.243,1.125-0.135
			c0.323,0.095,0.583,0.304,0.729,0.59c0.17,0.328,0.04,0.731-0.289,0.9c-0.327,0.174-0.728,0.042-0.9-0.289
			c-0.133,0.171-0.257,0.394-0.371,0.624c-0.482,0.971-0.858,1.997-1.119,3.055C40.762,84.21,40.488,84.414,40.188,84.414z"/>
	</g>
</g>
<g>
	<g>
		<path d="M786.626,78.4c-2.754,0-5.878-0.375-9.157-1.483c-8.94-3.021-18.483-10.829-18.306-18.174
			c0.008-0.308,0.034-0.674,0.065-1.088c0.159-2.151,0.397-5.404-1.432-8.7c-0.256-0.462-0.549-0.913-0.867-1.34l-8.684-1.564
			l1.037-0.914c1.327-1.17,2.323-2.516,2.963-4l0,0c0.92-2.129,0.768-3.732,0.606-5.429c-0.138-1.429-0.28-2.906,0.264-4.65
			c1.157-3.736,4.919-6.766,10.594-8.534c2.124-0.66,7.657-1.916,13.102,0.722c2.025,0.982,4.287,3.438,9.209,8.899
			c1.954,2.171,3.023,3.437,3.799,4.355c0.972,1.151,1.46,1.728,2.662,2.87c2.709,2.569,5.512,5.226,9.664,6.971
			c3.822,1.607,8.227,2.155,12.718,1.595l0.604-0.076l0.133,0.593c0.415,1.867,0.575,3.775,0.468,5.67
			c-0.217,3.754-1.416,6.431-2.059,7.868c-2.158,4.824-5.319,8.02-7.592,9.853c-4.183,3.369-8.279,4.544-10.249,5.109
			C794.622,77.398,791.122,78.4,786.626,78.4z M751.124,45.212l6.55,1.178l0.157,0.201c0.421,0.541,0.805,1.118,1.136,1.715
			c2.022,3.644,1.756,7.277,1.594,9.447c-0.026,0.389-0.052,0.733-0.06,1.023c-0.157,6.523,8.869,13.993,17.397,16.874
			c8.242,2.784,15.262,0.777,17.898,0.02c1.886-0.541,5.81-1.665,9.779-4.866c1.769-1.424,5.055-4.534,7.211-9.357
			c0.611-1.36,1.742-3.89,1.944-7.397c0.089-1.574-0.016-3.157-0.313-4.714c-4.52,0.464-8.927-0.136-12.788-1.76
			c-4.379-1.841-7.271-4.582-10.066-7.235c-1.257-1.191-1.792-1.825-2.764-2.977c-0.771-0.91-1.831-2.167-3.77-4.321
			c-4.318-4.79-6.923-7.682-8.801-8.591c-5.152-2.498-10.578-1.127-12.119-0.649c-5.241,1.633-8.692,4.35-9.713,7.653
			c-0.462,1.487-0.34,2.769-0.212,4.126c0.172,1.791,0.347,3.642-0.708,6.086C752.919,42.951,752.133,44.139,751.124,45.212z"/>
	</g>
	<g>
		<path d="M760.704,38.28c-0.366,0-0.664-0.294-0.669-0.661c-0.018-1.672,0.836-3.173,2.231-3.915
			c1.776-0.94,4.06-0.442,5.421,1.198c0.235,0.283,0.196,0.705-0.086,0.942c-0.285,0.233-0.705,0.199-0.943-0.088
			c-0.959-1.153-2.537-1.519-3.765-0.871c-0.935,0.499-1.534,1.566-1.52,2.718c0.005,0.37-0.293,0.673-0.661,0.677
			C760.71,38.28,760.707,38.28,760.704,38.28z"/>
	</g>
	<g>
		<path fill="#EFD5DF" d="M783.326,42.699c-1.127,0.36-1.376,2.487-1.473,3.311c-0.391,3.335,0.787,10.736,3.775,14.16
			c5.382,6.167,21.364,4.847,38.032-5.661c-16.564,2.29-23.41-0.438-26.512-3.616c-1.341-1.373-5.05-3.555-12.467-7.919
			C784.464,42.847,783.889,42.519,783.326,42.699z"/>
	</g>
	<g>
		<path fill="#EFD5DF" d="M814.881,48.291c3.28,0.388,7.657-12.44,9.105-21.625c1.038-6.585,0.812-12.828-0.17-12.993
			c-1.069-0.179-2.898,6.86-4.035,6.614c-0.523-0.113-0.46-1.669-1.37-5.613c-0.71-3.078-1.016-3.293-1.196-3.303
			c-1.046-0.059-1.542,6.549-3.255,6.689c-1.316,0.108-2.151-3.7-2.799-3.606C809.284,14.725,809.73,47.682,814.881,48.291z"/>
		<path d="M815.023,48.968c-0.073,0-0.146-0.004-0.219-0.013c-4.773-0.563-5.267-19.924-5.316-23.8
			c-0.146-11.114,1.063-11.289,1.578-11.363c0.786-0.104,1.123,0.658,1.628,1.72c0.601,1.264,0.964,1.835,1.212,1.882
			c0.489-0.04,1.183-2.55,1.445-3.494c0.53-1.918,0.886-3.199,1.839-3.199c0.021,0,0.042,0.001,0.065,0.003
			c0.705,0.04,1.066,0.598,1.808,3.821c0.368,1.59,0.577,2.794,0.732,3.676c0.071,0.404,0.138,0.796,0.201,1.089
			c0.389-0.624,0.914-1.85,1.262-2.654c1.019-2.368,1.638-3.789,2.67-3.622c2.336,0.392,1.163,10.95,0.721,13.757
			C823.449,34.383,819.298,48.968,815.023,48.968z M811.288,15.679c-0.867,4.136-0.747,23.456,2.247,30.217
			c0.47,1.063,0.977,1.677,1.426,1.731l0,0c0.029,0.003,0.06,0.005,0.089,0.005c2.38,0,6.67-10.878,8.276-21.071
			c0.909-5.772,0.76-10.479,0.355-11.929c-0.358,0.577-0.846,1.715-1.197,2.53c-1.037,2.419-1.698,4.017-2.845,3.779
			c-0.755-0.165-0.883-0.9-1.163-2.512c-0.152-0.865-0.358-2.047-0.716-3.605c-0.266-1.149-0.465-1.851-0.609-2.277
			c-0.178,0.494-0.368,1.186-0.512,1.709c-0.622,2.239-1.207,4.354-2.626,4.47c-1.215,0.091-1.923-1.357-2.531-2.641
			C811.423,15.959,811.356,15.816,811.288,15.679z"/>
	</g>
	<g>
		<path fill="none" stroke="#000000" stroke-width="0.5" stroke-linecap="round" stroke-miterlimit="10" d="M794.898,93.662"/>
	</g>
	<g>
		<path d="M787.112,93.865c-0.157,0-0.313-0.055-0.441-0.166c-0.277-0.244-0.306-0.667-0.06-0.944
			c1.51-1.718,3.629-2.929,5.875-3.368c0.805-3.951,0.734-8.096-0.206-12.017c-0.086-0.359,0.136-0.72,0.494-0.806
			c0.355-0.085,0.721,0.136,0.807,0.495c1.021,4.261,1.063,8.775,0.118,13.055l-0.099,0.451l-0.457,0.068
			c-2.106,0.308-4.12,1.404-5.528,3.006C787.483,93.788,787.297,93.865,787.112,93.865z M793.045,89.97h0.016H793.045z"/>
	</g>
	<g>
		<path d="M790.147,95.355c-0.091,0-0.186-0.02-0.277-0.06c-0.334-0.152-0.486-0.547-0.332-0.884
			c0.713-1.577,1.821-2.955,3.203-3.988c-0.042-0.038-0.076-0.08-0.107-0.128c-0.196-0.313-0.102-0.726,0.212-0.922
			c0.311-0.197,0.698-0.179,1.008,0.033c0.353,0.244,0.536,0.683,0.452,1.092c-0.11,0.511-0.499,0.799-0.758,0.99
			c-1.204,0.897-2.171,2.099-2.793,3.475C790.644,95.209,790.401,95.355,790.147,95.355z"/>
	</g>
	<g>
		<path d="M795.884,94.609c-0.3,0-0.575-0.204-0.651-0.508c-0.259-1.057-0.635-2.085-1.116-3.057
			c-0.078-0.153-0.222-0.442-0.379-0.533c-0.17,0.33-0.572,0.409-0.901,0.242c-0.327-0.17-0.452-0.619-0.282-0.947
			c0.149-0.286,0.408-0.495,0.734-0.589c0.371-0.107,0.786-0.055,1.121,0.137c0.502,0.291,0.763,0.814,0.904,1.095
			c0.525,1.061,0.935,2.181,1.22,3.331c0.086,0.359-0.131,0.721-0.491,0.81C795.991,94.603,795.937,94.609,795.884,94.609z"/>
	</g>
	<g>
		<path fill="none" stroke="#000000" stroke-width="0.5" stroke-linecap="round" stroke-miterlimit="10" d="M784.163,94.169"/>
	</g>
	<g>
		<path d="M776.377,94.372c-0.157,0-0.313-0.055-0.441-0.166c-0.277-0.244-0.306-0.667-0.06-0.944
			c1.51-1.718,3.629-2.929,5.875-3.368c0.805-3.953,0.734-8.097-0.206-12.017c-0.086-0.359,0.136-0.72,0.494-0.806
			c0.36-0.085,0.724,0.136,0.807,0.495c1.021,4.261,1.063,8.775,0.118,13.055l-0.099,0.451l-0.457,0.068
			c-2.106,0.308-4.12,1.404-5.528,3.006C776.748,94.294,776.562,94.372,776.377,94.372z M782.31,90.476h0.016H782.31z"/>
	</g>
	<g>
		<path d="M779.413,95.862c-0.091,0-0.185-0.02-0.277-0.06c-0.334-0.152-0.486-0.547-0.332-0.884
			c0.713-1.577,1.821-2.956,3.203-3.988c-0.042-0.039-0.076-0.082-0.107-0.132c-0.196-0.313-0.099-0.726,0.214-0.921
			c0.308-0.192,0.698-0.18,1.006,0.037c0.353,0.244,0.536,0.683,0.452,1.091c-0.11,0.511-0.499,0.799-0.758,0.99
			c-1.204,0.897-2.171,2.099-2.793,3.475C779.909,95.716,779.666,95.862,779.413,95.862z"/>
	</g>
	<g>
		<path d="M785.15,95.115c-0.3,0-0.575-0.204-0.651-0.508c-0.259-1.057-0.635-2.083-1.116-3.055
			c-0.115-0.229-0.24-0.453-0.381-0.534c-0.17,0.325-0.572,0.413-0.899,0.242c-0.327-0.17-0.452-0.618-0.282-0.946
			c0.146-0.285,0.408-0.494,0.732-0.589c0.363-0.108,0.784-0.061,1.121,0.136c0.447,0.259,0.7,0.681,0.907,1.097
			c0.525,1.059,0.935,2.179,1.22,3.328c0.086,0.359-0.131,0.721-0.491,0.81C785.257,95.108,785.202,95.115,785.15,95.115z"/>
	</g>
</g>
<g>
	<path fill="#1E1E1E" d="M244.857,100.851c0.839-1.129,1.622-2.375,2.349-3.74c0.726-1.364,1.412-2.887,2.057-4.57
		c0.645-1.683,1.263-3.553,1.855-5.614c0.591-2.06,1.182-4.334,1.771-6.825l9.615,2.275l-5.074,21.448L244.857,100.851z
		 M260.758,104.613l5.424-22.927l-18.49-4.374l-0.175,0.74l0.555,0.131c1.109,0.262,1.738,0.769,1.886,1.52
		c0.148,0.751,0.09,1.681-0.172,2.79c-0.834,3.526-1.839,6.783-3.014,9.771c-1.176,2.989-2.677,5.647-4.503,7.975l-1.479-0.35
		c-0.37-0.088-0.708-0.037-1.012,0.151c-0.305,0.188-0.501,0.467-0.589,0.837l-1.618,6.841l1.664,0.394
		c0.445-1.222,0.892-2.23,1.34-3.022c0.447-0.792,0.923-1.402,1.428-1.829c0.504-0.427,1.042-0.691,1.612-0.79
		c0.57-0.099,1.175-0.073,1.817,0.078l12.018,2.843c0.641,0.152,1.194,0.4,1.659,0.744c0.465,0.344,0.827,0.82,1.087,1.429
		c0.26,0.608,0.412,1.367,0.458,2.275c0.045,0.909-0.007,2.009-0.156,3.302l1.664,0.394l1.618-6.841
		c0.087-0.37,0.037-0.707-0.151-1.012c-0.189-0.304-0.467-0.501-0.837-0.588L260.758,104.613z"/>
	<path fill="#1E1E1E" d="M282.168,104.524c-0.407,0.888-0.882,1.634-1.427,2.237c-0.544,0.603-1.142,1.048-1.791,1.333
		c-0.65,0.286-1.323,0.36-2.019,0.223c-0.696-0.137-1.291-0.46-1.784-0.97c-0.494-0.51-0.879-1.147-1.154-1.911
		c-0.276-0.764-0.434-1.634-0.475-2.611c-0.041-0.976,0.044-1.998,0.254-3.067c0.21-1.069,0.518-2.048,0.925-2.936
		s0.882-1.633,1.427-2.237c0.544-0.603,1.141-1.047,1.791-1.333c0.65-0.285,1.323-0.36,2.019-0.223
		c0.696,0.137,1.29,0.46,1.785,0.97c0.493,0.51,0.878,1.147,1.154,1.911c0.276,0.764,0.434,1.634,0.475,2.61
		c0.041,0.976-0.044,1.999-0.254,3.068C282.883,102.657,282.574,103.636,282.168,104.524z M270.07,102.729
		c0.143,1.177,0.489,2.245,1.036,3.205c0.547,0.959,1.277,1.78,2.188,2.463c0.912,0.683,2.026,1.153,3.344,1.412
		c1.292,0.254,2.496,0.238,3.611-0.046c1.114-0.285,2.106-0.768,2.976-1.449s1.593-1.539,2.171-2.575
		c0.577-1.035,0.991-2.187,1.24-3.455c0.249-1.268,0.301-2.49,0.159-3.667c-0.143-1.177-0.488-2.245-1.036-3.205
		c-0.547-0.96-1.283-1.782-2.207-2.467c-0.924-0.685-2.033-1.154-3.325-1.408c-1.318-0.259-2.527-0.245-3.629,0.042
		c-1.102,0.287-2.088,0.771-2.957,1.452c-0.87,0.681-1.594,1.54-2.171,2.575c-0.578,1.036-0.991,2.187-1.24,3.455
		C269.979,100.33,269.926,101.553,270.07,102.729z"/>
	<path fill="#1E1E1E" d="M303.545,99.137c0.488,0.311,0.887,0.775,1.197,1.39c0.31,0.616,0.511,1.387,0.603,2.313
		c0.092,0.926,0.032,2.04-0.181,3.34c-0.221,1.35-0.524,2.456-0.909,3.317c-0.385,0.861-0.821,1.521-1.306,1.981
		c-0.486,0.459-1.009,0.753-1.569,0.879c-0.56,0.127-1.115,0.145-1.665,0.055c-0.575-0.094-1.102-0.289-1.579-0.586
		c-0.478-0.296-0.874-0.74-1.188-1.33c-0.314-0.59-0.516-1.355-0.606-2.294c-0.091-0.939-0.025-2.083,0.196-3.433
		c0.213-1.3,0.51-2.374,0.893-3.223c0.383-0.848,0.819-1.515,1.309-2c0.49-0.484,1.009-0.797,1.559-0.938
		c0.549-0.141,1.111-0.165,1.686-0.07C302.538,98.625,303.057,98.826,303.545,99.137z M308.657,93.081
		c0.779-0.052,1.246-0.553,1.401-1.503l0.399-2.438l-0.75-0.123c-0.178,0.459-0.517,0.762-1.016,0.912
		c-0.5,0.149-1.191,0.255-2.073,0.315l-5.84,0.392c-1.012,0.065-1.906,0.272-2.681,0.62c-0.776,0.348-1.451,0.944-2.025,1.786
		c-0.575,0.843-1.084,1.992-1.527,3.447c-0.444,1.455-0.854,3.332-1.23,5.632l-0.246,1.5c-0.262,1.6-0.286,3.002-0.072,4.205
		c0.213,1.203,0.611,2.225,1.193,3.064c0.581,0.84,1.325,1.507,2.233,2.002c0.907,0.495,1.923,0.835,3.048,1.019
		s2.196,0.186,3.214,0.006c1.017-0.18,1.933-0.556,2.746-1.129c0.812-0.573,1.506-1.357,2.08-2.355
		c0.573-0.997,0.98-2.22,1.217-3.671c0.237-1.45,0.249-2.738,0.036-3.864c-0.214-1.126-0.596-2.087-1.145-2.883
		c-0.55-0.796-1.229-1.433-2.036-1.912c-0.807-0.479-1.674-0.794-2.598-0.945c-1.875-0.307-3.417-0.142-4.625,0.494
		c-1.208,0.637-2.203,1.853-2.985,3.651l-0.188-0.031c0.353-1.534,0.739-2.792,1.157-3.777c0.417-0.984,0.897-1.759,1.44-2.325
		c0.542-0.566,1.146-0.967,1.814-1.205c0.668-0.237,1.418-0.39,2.251-0.459L308.657,93.081z"/>
	<path fill="#1E1E1E" d="M320.608,102.112c0.212-0.253,0.462-0.5,0.75-0.744c0.288-0.243,0.603-0.45,0.945-0.622
		c0.342-0.171,0.723-0.293,1.141-0.366c0.418-0.072,0.891-0.073,1.419-0.003c0.753,0.1,1.373,0.387,1.86,0.861
		c0.486,0.474,0.866,1.08,1.138,1.819c0.272,0.739,0.427,1.59,0.466,2.554c0.038,0.963-0.015,1.985-0.158,3.065
		c-0.144,1.08-0.366,2.079-0.667,2.997c-0.301,0.918-0.686,1.698-1.154,2.338c-0.469,0.641-1.025,1.123-1.668,1.446
		c-0.644,0.324-1.393,0.428-2.246,0.315c-0.578-0.077-1.158-0.275-1.742-0.596c-0.584-0.32-1.146-0.657-1.687-1.01L320.608,102.112z
		 M314.362,123.132l3.39,0.451l1.052-7.91c0.541,0.353,1.172,0.699,1.894,1.038c0.722,0.339,1.61,0.578,2.665,0.718
		c1.23,0.164,2.324,0.06,3.281-0.311c0.956-0.371,1.785-0.932,2.485-1.682c0.7-0.75,1.269-1.665,1.707-2.744
		c0.437-1.079,0.741-2.259,0.912-3.54c0.17-1.281,0.185-2.499,0.045-3.655c-0.14-1.155-0.438-2.186-0.893-3.09
		c-0.455-0.904-1.07-1.656-1.846-2.258c-0.776-0.602-1.729-0.978-2.859-1.128c-1.407-0.187-2.542-0.108-3.405,0.237
		c-0.864,0.345-1.516,0.732-1.956,1.158l-0.188-0.025c-0.124-0.604-0.413-1.077-0.865-1.418c-0.453-0.341-1.157-0.576-2.111-0.702
		l-3.39-0.451l-0.1,0.753l0.753,0.1c1.13,0.15,1.806,0.592,2.028,1.324c0.222,0.733,0.258,1.664,0.108,2.794L314.362,123.132z"/>
	<path fill="#1E1E1E" d="M350.13,114.218c-0.325,0.921-0.731,1.707-1.219,2.357c-0.488,0.65-1.042,1.147-1.664,1.489
		c-0.622,0.343-1.285,0.478-1.99,0.405c-0.706-0.073-1.327-0.341-1.865-0.805c-0.538-0.463-0.979-1.063-1.322-1.799
		c-0.344-0.736-0.58-1.588-0.709-2.557c-0.129-0.968-0.137-1.994-0.025-3.078c0.112-1.083,0.331-2.086,0.656-3.007
		s0.731-1.707,1.219-2.357c0.488-0.65,1.042-1.146,1.664-1.489c0.621-0.343,1.285-0.478,1.99-0.405
		c0.705,0.073,1.327,0.342,1.865,0.805c0.538,0.463,0.978,1.063,1.322,1.799c0.344,0.737,0.58,1.588,0.709,2.557
		c0.129,0.968,0.137,1.995,0.025,3.078C350.673,112.295,350.454,113.297,350.13,114.218z M337.919,113.525
		c0.249,1.159,0.69,2.192,1.321,3.098c0.632,0.906,1.433,1.658,2.402,2.255c0.969,0.597,2.122,0.965,3.457,1.104
		c1.31,0.136,2.507,0.012,3.592-0.372c1.084-0.384,2.028-0.955,2.833-1.712c0.804-0.757,1.447-1.677,1.929-2.761
		c0.481-1.083,0.789-2.268,0.923-3.553c0.133-1.285,0.075-2.507-0.174-3.666c-0.249-1.159-0.69-2.192-1.321-3.098
		c-0.632-0.906-1.439-1.658-2.421-2.257c-0.983-0.599-2.129-0.966-3.439-1.102c-1.336-0.139-2.539-0.015-3.611,0.37
		c-1.072,0.386-2.009,0.957-2.814,1.714c-0.804,0.757-1.448,1.678-1.929,2.761c-0.482,1.084-0.789,2.268-0.923,3.553
		C337.612,111.143,337.67,112.366,337.919,113.525z"/>
	<path fill="#1E1E1E" d="M388.928,105.131l-17.448-1.066l-0.046,0.758l0.379,0.023c1.138,0.069,1.843,0.462,2.117,1.176
		c0.273,0.715,0.376,1.641,0.306,2.779l-0.811,13.275l3.414,0.209l0.997-16.31l7.586,0.464l-0.996,16.31l3.414,0.209
		L388.928,105.131z"/>
	<path fill="#1E1E1E" d="M408.064,117.887c-0.26,0.942-0.612,1.754-1.053,2.435c-0.442,0.682-0.961,1.216-1.557,1.6
		c-0.597,0.385-1.249,0.565-1.958,0.541c-0.709-0.024-1.348-0.249-1.916-0.674c-0.569-0.425-1.05-0.993-1.443-1.704
		c-0.394-0.71-0.688-1.545-0.883-2.502c-0.195-0.957-0.274-1.98-0.237-3.069c0.038-1.088,0.187-2.104,0.447-3.045
		c0.26-0.942,0.612-1.753,1.053-2.435c0.442-0.682,0.96-1.215,1.557-1.6c0.596-0.385,1.249-0.565,1.958-0.541
		c0.708,0.024,1.347,0.25,1.916,0.674c0.568,0.425,1.049,0.993,1.443,1.704c0.394,0.711,0.688,1.545,0.884,2.502
		c0.195,0.957,0.274,1.981,0.237,3.069C408.473,115.931,408.324,116.946,408.064,117.887z M395.835,118.037
		c0.328,1.139,0.839,2.139,1.532,2.999c0.693,0.86,1.543,1.555,2.552,2.084c1.008,0.529,2.183,0.816,3.525,0.863
		c1.316,0.045,2.502-0.161,3.557-0.619c1.055-0.458,1.958-1.092,2.708-1.903c0.75-0.811,1.328-1.773,1.734-2.887
		c0.405-1.114,0.631-2.317,0.675-3.608c0.044-1.291-0.098-2.506-0.426-3.646c-0.329-1.139-0.839-2.139-1.532-2.999
		c-0.693-0.86-1.55-1.555-2.571-2.085c-1.021-0.529-2.19-0.817-3.507-0.862c-1.342-0.046-2.534,0.16-3.576,0.618
		c-1.042,0.458-1.939,1.093-2.689,1.904s-1.329,1.773-1.734,2.887c-0.406,1.114-0.631,2.317-0.675,3.608
		C395.364,115.683,395.506,116.898,395.835,118.037z"/>
	<path fill="#1E1E1E" d="M426.376,115.326l-3.987-6.652c-0.481-0.785-1.115-1.393-1.899-1.825c-0.785-0.431-1.799-0.647-3.04-0.647
		l-0.95,0l0,0.95c0.76,0,1.463,0.14,2.109,0.419c0.646,0.279,1.146,0.71,1.5,1.293l3.607,5.892l-3.992,5.484
		c-0.66,0.933-1.337,1.645-2.034,2.137c-0.697,0.491-1.476,0.8-2.337,0.926l0,0.76c0.202,0.101,0.475,0.19,0.817,0.266
		c0.342,0.076,0.703,0.114,1.083,0.114c0.962,0,1.868-0.24,2.717-0.721c0.849-0.481,1.654-1.253,2.414-2.317l3.992-5.508
		l-0.004,8.17l3.42,0.001l0.004-8.17l3.988,5.512c0.76,1.064,1.563,1.838,2.412,2.319c0.848,0.481,1.754,0.723,2.717,0.723
		c0.38,0,0.741-0.038,1.083-0.113c0.342-0.076,0.614-0.165,0.817-0.266l0-0.76c-0.861-0.126-1.64-0.436-2.337-0.928
		c-0.697-0.492-1.374-1.205-2.032-2.138l-3.988-5.487l3.613-5.888c0.355-0.582,0.855-1.013,1.502-1.291
		c0.646-0.278,1.349-0.417,2.109-0.417l0-0.95l-0.95,0c-1.242,0-2.255,0.215-3.04,0.645c-0.786,0.431-1.42,1.038-1.901,1.823
		l-3.993,6.648l0.004-9.12l-3.42-0.001L426.376,115.326z"/>
	<path fill="#1E1E1E" d="M456.123,119.861c-0.357,0.597-0.799,1.14-1.326,1.629c-0.527,0.49-1.258,0.752-2.194,0.788
		c-0.481,0.018-0.94-0.034-1.375-0.156c-0.436-0.122-0.824-0.33-1.165-0.621c-0.341-0.291-0.621-0.661-0.841-1.109
		c-0.22-0.448-0.342-0.976-0.365-1.583c-0.044-1.139,0.459-2.077,1.508-2.815c1.049-0.737,2.523-1.142,4.422-1.215l1.139-0.044
		L456.123,119.861z M459.679,123.337l-0.393-10.253c-0.065-1.696-0.302-3.062-0.709-4.099c-0.408-1.036-0.932-1.828-1.574-2.373
		c-0.642-0.546-1.365-0.898-2.17-1.058c-0.805-0.159-1.638-0.222-2.498-0.189c-0.583,0.022-1.157,0.07-1.725,0.142
		c-0.568,0.073-1.103,0.17-1.605,0.29c-0.503,0.121-0.959,0.278-1.37,0.471c-0.411,0.193-0.726,0.408-0.945,0.645
		c-0.463,0.5-0.721,1.035-0.775,1.608c-0.054,0.573-0.069,1.188-0.043,1.846l1.709-0.065c0.231-1.251,0.698-2.118,1.402-2.602
		c0.704-0.483,1.588-0.745,2.651-0.786c0.556-0.021,1.086,0.048,1.586,0.205c0.5,0.158,0.936,0.465,1.309,0.92
		c0.372,0.455,0.676,1.102,0.911,1.943c0.235,0.841,0.378,1.919,0.428,3.235l-1.139,0.044c-1.291,0.049-2.516,0.179-3.674,0.388
		c-1.158,0.21-2.173,0.534-3.043,0.972c-0.871,0.439-1.559,1.01-2.064,1.714c-0.505,0.704-0.738,1.575-0.698,2.613
		c0.04,1.038,0.263,1.891,0.669,2.56c0.406,0.669,0.895,1.196,1.468,1.579c0.572,0.384,1.178,0.646,1.817,0.786
		c0.639,0.14,1.225,0.2,1.756,0.18c1.443-0.055,2.586-0.327,3.429-0.816c0.843-0.489,1.445-0.981,1.807-1.476l0.19-0.007
		l1.395,1.658L459.679,123.337z"/>
	<path fill="#1E1E1E" d="M471.801,106.235l6.671-0.48l1.172,16.298l3.411-0.245l-1.281-17.814l-15.388,1.106l0.055,0.758
		c0.581-0.042,1.055,0.014,1.422,0.165c0.366,0.152,0.657,0.391,0.871,0.718c0.214,0.327,0.369,0.723,0.466,1.186
		c0.096,0.463,0.165,0.973,0.205,1.528c0.187,2.603,0.2,4.723,0.038,6.36c-0.162,1.637-0.445,2.915-0.848,3.833
		c-0.404,0.918-0.892,1.557-1.462,1.915c-0.571,0.359-1.16,0.56-1.766,0.603l0.068,0.948c0.207,0.061,0.523,0.115,0.945,0.161
		c0.422,0.046,0.734,0.061,0.937,0.047c0.707-0.051,1.39-0.278,2.046-0.681c0.657-0.403,1.215-1.122,1.673-2.159
		c0.459-1.036,0.789-2.45,0.99-4.243c0.201-1.792,0.199-4.116-0.006-6.972L471.801,106.235z"/>
	<path fill="#1E1E1E" d="M502.398,113.988c-0.127,0.969-0.361,1.822-0.703,2.558c-0.342,0.737-0.782,1.338-1.318,1.802
		c-0.537,0.465-1.158,0.734-1.863,0.809c-0.705,0.075-1.369-0.058-1.991-0.4c-0.622-0.341-1.178-0.836-1.667-1.485
		c-0.489-0.648-0.897-1.433-1.224-2.354c-0.327-0.921-0.548-1.922-0.663-3.006c-0.115-1.083-0.109-2.109,0.017-3.078
		c0.127-0.969,0.361-1.821,0.703-2.558c0.342-0.737,0.781-1.337,1.318-1.802c0.536-0.464,1.158-0.734,1.863-0.809
		c0.705-0.075,1.369,0.059,1.991,0.4c0.622,0.342,1.178,0.837,1.667,1.485c0.489,0.649,0.897,1.433,1.224,2.354
		c0.327,0.921,0.548,1.923,0.663,3.006C502.531,111.993,502.525,113.019,502.398,113.988z M490.31,115.843
		c0.484,1.082,1.129,2.001,1.935,2.756c0.806,0.755,1.745,1.324,2.818,1.707c1.072,0.383,2.276,0.504,3.611,0.362
		c1.31-0.139,2.455-0.509,3.436-1.11c0.981-0.601,1.786-1.355,2.416-2.262c0.63-0.908,1.068-1.941,1.314-3.101
		c0.246-1.159,0.301-2.382,0.165-3.667c-0.136-1.285-0.447-2.468-0.931-3.551c-0.484-1.082-1.129-2.001-1.936-2.756
		c-0.806-0.755-1.752-1.324-2.837-1.705c-1.085-0.382-2.283-0.503-3.592-0.364c-1.336,0.142-2.487,0.512-3.455,1.112
		s-1.767,1.353-2.397,2.26c-0.63,0.908-1.068,1.942-1.314,3.101c-0.247,1.16-0.301,2.382-0.165,3.667
		C489.515,113.577,489.825,114.761,490.31,115.843z"/>
	<path fill="#1E1E1E" d="M518.838,109.221c3.388-0.47,5.247,0.488,5.577,2.871c0.17,1.23-0.112,2.19-0.848,2.88
		c-0.736,0.691-1.856,1.14-3.362,1.349c-0.376,0.052-0.814,0.075-1.314,0.067c-0.5-0.007-0.895-0.042-1.185-0.104l-0.939-6.775
		L518.838,109.221z M515.724,101.98c0.262-0.138,0.633-0.28,1.111-0.423c0.479-0.143,0.906-0.241,1.283-0.293
		c1.129-0.157,2.108-0.017,2.935,0.418c0.828,0.436,1.314,1.18,1.461,2.233c0.146,1.054-0.133,1.905-0.836,2.552
		c-0.703,0.648-1.72,1.063-3.049,1.248l-2.07,0.287L515.724,101.98z M509.09,101.173l0.104,0.753l0.376-0.052
		c1.129-0.157,1.898,0.089,2.308,0.735c0.409,0.647,0.692,1.534,0.849,2.664l1.827,13.174l6.211-0.861
		c1.129-0.157,2.166-0.377,3.112-0.662c0.945-0.285,1.743-0.664,2.393-1.138c0.65-0.474,1.133-1.052,1.447-1.735
		c0.314-0.682,0.406-1.501,0.273-2.455c-0.157-1.129-0.681-2.009-1.575-2.64c-0.893-0.63-2.074-0.984-3.542-1.063
		c1.292-0.46,2.187-1.057,2.686-1.792c0.499-0.734,0.676-1.628,0.53-2.682c-0.118-0.853-0.412-1.541-0.881-2.065
		c-0.469-0.523-1.061-0.914-1.774-1.174c-0.714-0.259-1.514-0.404-2.4-0.434c-0.887-0.031-1.795,0.019-2.723,0.147L509.09,101.173z"
		/>
	<path fill="#1E1E1E" d="M544.682,110.194c-0.277,0.639-0.645,1.234-1.103,1.787c-0.459,0.554-1.15,0.909-2.073,1.066
		c-0.475,0.081-0.936,0.089-1.384,0.023c-0.448-0.065-0.86-0.22-1.235-0.464c-0.376-0.244-0.702-0.574-0.978-0.99
		c-0.277-0.415-0.465-0.923-0.567-1.522c-0.191-1.124,0.185-2.119,1.13-2.987c0.944-0.867,2.353-1.46,4.226-1.779l1.124-0.191
		L544.682,110.194z M548.659,113.179l-1.721-10.114c-0.285-1.673-0.697-2.997-1.235-3.972c-0.539-0.974-1.162-1.691-1.869-2.149
		c-0.708-0.458-1.47-0.713-2.289-0.767c-0.819-0.053-1.653-0.008-2.502,0.137c-0.575,0.098-1.138,0.22-1.692,0.365
		c-0.553,0.146-1.072,0.311-1.554,0.496c-0.483,0.185-0.915,0.4-1.297,0.645c-0.382,0.245-0.667,0.499-0.853,0.762
		c-0.394,0.555-0.58,1.12-0.56,1.695s0.086,1.187,0.197,1.836l1.686-0.287c0.066-1.27,0.417-2.191,1.053-2.762
		c0.635-0.571,1.477-0.945,2.526-1.124c0.549-0.093,1.083-0.094,1.599-0.002c0.517,0.092,0.989,0.339,1.418,0.742
		c0.428,0.403,0.813,1.005,1.156,1.808c0.342,0.803,0.624,1.854,0.845,3.152l-1.124,0.191c-1.274,0.217-2.471,0.504-3.592,0.862
		c-1.121,0.358-2.085,0.811-2.891,1.359c-0.806,0.549-1.414,1.204-1.824,1.968c-0.41,0.764-0.527,1.658-0.353,2.681
		c0.174,1.024,0.506,1.841,0.995,2.452c0.489,0.611,1.043,1.069,1.66,1.375c0.617,0.306,1.252,0.487,1.904,0.543
		c0.652,0.056,1.24,0.039,1.765-0.05c1.424-0.242,2.521-0.66,3.294-1.255c0.772-0.594,1.306-1.16,1.6-1.699l0.187-0.032l1.598,1.463
		L548.659,113.179z"/>
	<path fill="#1E1E1E" d="M558.349,94.676l3.236,16.016l3.352-0.677l-3.236-16.016l6.146-1.242l-0.301-1.49l-13.223,2.671
		c-0.572,0.116-1.019,0.297-1.344,0.543c-0.325,0.247-0.559,0.527-0.703,0.84c-0.144,0.314-0.222,0.659-0.236,1.036
		c-0.014,0.378,0.016,0.753,0.092,1.125l0.451,2.235l0.745-0.15c-0.246-1.216-0.06-2.217,0.557-3.001
		c0.617-0.784,1.484-1.288,2.602-1.514L558.349,94.676z"/>
	<path fill="#1E1E1E" d="M578.856,97.834c0.248-0.162,0.603-0.338,1.067-0.526c0.463-0.188,0.88-0.325,1.25-0.413
		c1.405-0.332,2.566-0.295,3.483,0.113c0.917,0.408,1.541,1.314,1.874,2.72c0.332,1.405,0.18,2.495-0.456,3.271
		c-0.637,0.775-1.657,1.329-3.063,1.662c-0.37,0.088-0.804,0.151-1.302,0.191c-0.498,0.04-0.895,0.043-1.189,0.008L578.856,97.834z
		 M577.85,93.582c-0.216-0.912-0.442-1.646-0.677-2.202c-0.236-0.556-0.522-0.97-0.86-1.241c-0.338-0.271-0.736-0.412-1.193-0.421
		c-0.458-0.009-1.007,0.063-1.648,0.214l-3.143,0.744l0.175,0.74l0.555-0.131c1.109-0.262,1.898-0.091,2.367,0.514
		c0.469,0.605,0.834,1.462,1.097,2.572l3.062,12.943l6.102-1.443c1.06-0.251,2.033-0.565,2.92-0.945
		c0.887-0.379,1.622-0.846,2.207-1.401c0.584-0.554,0.995-1.212,1.232-1.971c0.237-0.759,0.236-1.643-0.003-2.655
		c-0.239-1.01-0.635-1.802-1.187-2.375c-0.552-0.572-1.214-0.975-1.985-1.21c-0.771-0.234-1.638-0.321-2.6-0.263
		c-0.962,0.059-1.974,0.213-3.034,0.464l-2.773,0.656L577.85,93.582z"/>
</g>
</svg>
