<?xml version="1.0" encoding="utf-8"?>
<!-- Generator: Adobe Illustrator 22.0.1, SVG Export Plug-In . SVG Version: 6.00 Build 0)  -->
<svg version="1.1" id="Шар_1" xmlns="http://www.w3.org/2000/svg" xmlns:xlink="http://www.w3.org/1999/xlink" x="0px" y="0px"
	 width="216.879px" height="327px" viewBox="0 0 216.879 327" enable-background="new 0 0 216.879 327" xml:space="preserve">
<g>
	<g>
		<g>
			<path d="M71.143,322.374c-1.461,0-2.927-0.156-4.398-0.51c-3.121-0.752-5.916-2.354-8.619-3.903
				c-3.408-1.953-6.627-3.797-10.377-4.013c-3.077-0.172-4.774,0.825-6.732,1.985c-2.08,1.233-4.439,2.631-8.752,2.703
				c-8.396,0.159-15.38-3.906-16.147-4.368c-0.75-0.453-1.358-0.865-1.781-1.164c-0.35-0.248-0.433-0.734-0.185-1.085
				c0.249-0.351,0.734-0.432,1.085-0.185c0.4,0.284,0.975,0.674,1.685,1.102c0.29,0.175,7.223,4.285,15.317,4.145
				c3.901-0.065,5.977-1.296,7.984-2.486c1.994-1.181,4.068-2.412,7.615-2.2c4.116,0.237,7.646,2.26,11.061,4.216
				c2.608,1.495,5.305,3.04,8.211,3.739c6.681,1.611,13.531-1.273,20.159-4.061c7.096-2.985,14.433-6.073,21.757-3.824
				c2.689,0.826,5.092,2.324,7.416,3.773c3.196,1.992,6.215,3.875,9.804,4.029c2.472,0.103,4.085-0.771,6.14-1.879
				c1.908-1.031,4.07-2.199,7.347-2.756c4.446-0.758,9.109-0.367,13.863,1.16c0.409,0.131,0.634,0.57,0.503,0.978
				c-0.132,0.409-0.571,0.633-0.978,0.503c-4.512-1.45-8.93-1.822-13.126-1.108c-3.025,0.515-4.979,1.57-6.869,2.592
				c-2.085,1.126-4.049,2.191-6.946,2.064c-3.998-0.172-7.334-2.252-10.561-4.264c-2.239-1.396-4.555-2.84-7.049-3.606
				c-6.784-2.083-13.542,0.76-20.697,3.77C82.418,320.018,76.816,322.374,71.143,322.374z"/>
		</g>
		<g>
			<path d="M161.226,327c-2.67,0-5.267-0.796-7.793-1.569c-2.576-0.791-5.244-1.609-7.88-1.516c-2.2,0.075-4.277,0.752-6.477,1.469
				c-1.66,0.541-3.376,1.101-5.158,1.381c-2.958,0.463-6.265-0.341-8.226-2.008c-1.211-1.029-1.856-2.33-1.865-3.76
				c-0.002-0.429,0.343-0.78,0.773-0.782c0.002,0,0.003,0,0.005,0c0.428,0,0.776,0.345,0.778,0.773
				c0.006,0.977,0.449,1.846,1.316,2.583c1.61,1.368,4.478,2.054,6.977,1.656c1.659-0.261,3.315-0.801,4.917-1.322
				c2.206-0.719,4.486-1.462,6.906-1.544c2.908-0.093,5.691,0.756,8.389,1.582c3.066,0.94,5.964,1.824,8.93,1.387
				c3.066-0.454,5.558-2.229,8.196-4.106c2.066-1.47,4.202-2.99,6.677-3.871c4.214-1.497,8.746-0.95,13.127-0.422
				c1.819,0.22,3.7,0.447,5.514,0.519c6.839,0.271,13.889-1.776,19.319-5.622c0.351-0.248,0.836-0.165,1.085,0.185
				c0.248,0.351,0.165,0.836-0.185,1.085c-5.705,4.04-13.11,6.184-20.281,5.906c-1.876-0.074-3.788-0.305-5.637-0.529
				c-4.399-0.529-8.551-1.031-12.419,0.343c-2.271,0.807-4.317,2.263-6.296,3.672c-2.672,1.901-5.435,3.868-8.87,4.377
				C162.436,326.959,161.829,327,161.226,327z"/>
		</g>
		<g>
			<g>
				<path d="M116.867,149.464c-0.393,0-0.786-0.005-1.18-0.016c-5.196-0.144-10.268-1.23-15.073-3.23
					c-0.396-0.165-0.585-0.62-0.419-1.016c0.166-0.397,0.624-0.584,1.016-0.419c4.629,1.925,9.513,2.972,14.518,3.11
					c4.762,0.131,9.473-0.566,13.999-2.074c0.411-0.135,0.848,0.084,0.984,0.491c0.136,0.408-0.084,0.848-0.491,0.984
					C125.896,148.735,121.409,149.464,116.867,149.464z"/>
			</g>
			<g>
				<path d="M14.787,313.247c-0.228,0-0.453-0.099-0.607-0.29c-0.269-0.335-0.216-0.824,0.118-1.094
					c0.089-0.071,8.913-7.238,14.652-17.5c5.365-9.595,5.624-22.089,5.779-29.555c0.019-0.947,0.037-1.82,0.064-2.604
					c1.098-33.004,14.489-58.45,19.53-68.029c11.799-22.423,25.839-35.164,33.157-40.764c4.122-3.154,8.514-6.044,13.052-8.589
					c0.378-0.211,0.848-0.076,1.059,0.298c0.21,0.374,0.077,0.849-0.298,1.059c-4.475,2.51-8.804,5.358-12.868,8.468
					c-7.217,5.522-21.065,18.094-32.725,40.253c-4.996,9.492-18.265,34.708-19.352,67.356c-0.026,0.779-0.043,1.645-0.063,2.585
					c-0.157,7.611-0.421,20.348-5.975,30.283c-5.892,10.534-14.944,17.88-15.035,17.953
					C15.131,313.191,14.958,313.247,14.787,313.247z"/>
			</g>
			<g>
				<path d="M216.1,313.247c-0.163,0-0.327-0.051-0.467-0.156c-7.233-5.444-12.82-11.933-16.604-19.287
					c-5.481-10.651-5.656-20.242-5.809-28.704c-0.024-1.303-0.048-2.589-0.089-3.858c-1.063-32.366-14.047-57.362-18.935-66.772
					c-11.409-21.966-24.957-34.428-32.017-39.901c-3.976-3.082-8.212-5.906-12.59-8.393c-0.374-0.212-0.504-0.687-0.292-1.06
					c0.211-0.374,0.685-0.506,1.06-0.292c4.441,2.523,8.739,5.388,12.773,8.516c7.162,5.551,20.899,18.183,32.445,40.413
					c4.932,9.495,18.034,34.719,19.108,67.437c0.043,1.277,0.066,2.57,0.09,3.881c0.159,8.697,0.322,17.691,5.638,28.02
					c3.675,7.144,9.111,13.455,16.156,18.756c0.343,0.258,0.412,0.746,0.153,1.089C216.569,313.14,216.336,313.247,216.1,313.247z"
					/>
			</g>
			<g>
				<path d="M184.921,300.293c-0.12,0-0.242-0.028-0.357-0.087c-9.438-4.886-15.982-15.905-17.505-29.475
					c-0.228-2.033-0.355-4.101-0.477-6.102c-0.168-2.738-0.342-5.571-0.778-8.306c-0.874-5.477-2.762-9.717-5.609-12.601
					c-0.302-0.305-0.299-0.798,0.008-1.1c0.305-0.302,0.797-0.298,1.1,0.008c3.08,3.119,5.112,7.644,6.038,13.449
					c0.448,2.81,0.624,5.681,0.794,8.456c0.122,1.981,0.247,4.029,0.471,6.023c1.464,13.052,7.697,23.619,16.674,28.267
					c0.381,0.197,0.53,0.667,0.333,1.048C185.474,300.14,185.203,300.293,184.921,300.293z"/>
			</g>
			<g>
				<path d="M100.913,146.278c-0.093,0-0.186-0.016-0.277-0.051c-0.402-0.153-0.602-0.603-0.45-1.004
					c2.464-6.455,3.937-12.885,4.259-18.595c0.275-4.868-0.381-6.982-1.129-8.542c-0.441-0.918-0.899-1.546-1.481-2.339
					c-0.534-0.73-1.139-1.556-1.896-2.821c-1.228-2.052-2.254-4.236-3.048-6.493c-0.143-0.405,0.071-0.849,0.475-0.992
					c0.403-0.138,0.849,0.07,0.992,0.475c0.76,2.159,1.741,4.248,2.916,6.21c0.72,1.203,1.302,1.999,1.816,2.701
					c0.604,0.825,1.126,1.538,1.628,2.586c0.799,1.663,1.575,4.07,1.28,9.303c-0.33,5.867-1.837,12.458-4.358,19.061
					C101.521,146.087,101.226,146.278,100.913,146.278z"/>
			</g>
			<g>
				<path d="M130.115,146.887c-0.327,0-0.631-0.207-0.739-0.534c-1.318-4-2.273-8.105-2.837-12.202
					c-1.091-7.926-1.75-12.71,0.742-17.084c0.216-0.38,0.469-0.776,0.753-1.223c0.703-1.106,1.577-2.481,2.588-4.68
					c0.76-1.654,1.411-3.372,1.935-5.106c0.124-0.411,0.559-0.644,0.969-0.52c0.411,0.124,0.644,0.558,0.52,0.969
					c-0.544,1.802-1.22,3.587-2.011,5.307c-1.054,2.295-1.96,3.72-2.688,4.864c-0.269,0.424-0.508,0.8-0.714,1.159
					c-2.231,3.915-1.635,8.243-0.553,16.101c0.552,4.004,1.486,8.018,2.775,11.927c0.134,0.408-0.087,0.848-0.495,0.983
					C130.278,146.875,130.196,146.887,130.115,146.887z"/>
			</g>
			<g>
				<path d="M133.273,107.6c-0.248,0-0.491-0.118-0.642-0.338c-0.94-1.369-3.049-3.859-6.623-5.153
					c-4.468-1.616-8.422-0.36-9.916,0.254c-0.213,0.086-0.45,0.076-0.652-0.027c-1.287-0.661-4.738-2.093-8.954-1.108
					c-4.263,0.994-6.725,3.84-7.586,5.017c-0.254,0.349-0.741,0.423-1.087,0.169c-0.347-0.254-0.422-0.741-0.169-1.087
					c0.963-1.318,3.718-4.501,8.488-5.614c4.406-1.028,8.061,0.299,9.699,1.081c1.865-0.709,6.03-1.837,10.706-0.147
					c3.985,1.442,6.332,4.212,7.377,5.736c0.243,0.354,0.153,0.839-0.201,1.081C133.578,107.556,133.425,107.6,133.273,107.6z"/>
			</g>
			<g>
				<path d="M58.883,300.978c-0.264,0-0.523-0.135-0.668-0.379c-0.22-0.368-0.1-0.846,0.269-1.066
					c8.676-5.187,14.252-16.115,14.916-29.231c0.102-2.004,0.103-4.056,0.103-6.041c0.001-2.781,0.002-5.656,0.277-8.489
					c0.569-5.849,2.32-10.49,5.205-13.794c0.283-0.322,0.773-0.356,1.098-0.074c0.324,0.283,0.356,0.774,0.074,1.098
					c-2.667,3.053-4.291,7.4-4.828,12.92c-0.268,2.757-0.269,5.595-0.27,8.338c0,2.004-0.001,4.076-0.104,6.12
					c-0.691,13.636-6.55,25.034-15.673,30.488C59.156,300.942,59.019,300.978,58.883,300.978z"/>
			</g>
		</g>
	</g>
	<g>
		<path d="M112.405,81.898c-0.912,0-1.826-0.058-2.743-0.178c-12.787-1.673-18.718-14.746-18.965-15.301l1.422-0.63
			c0.232,0.523,5.814,12.828,17.745,14.39c11.476,1.494,22.913-7.371,26.027-20.201l1.512,0.366
			C134.352,72.918,123.691,81.898,112.405,81.898z"/>
	</g>
	<g>
		<g>
			<path d="M113.667,29.993c3.026,5.467-11.433,6.621-13.461,10.922c-1.089,2.31,1.046,4.697-0.716,6.807
				c-1.784,2.137-5.378,2.158-7.696,3.54c-3.408,2.031-3.248,4.942-1.888,8.301c1.019,2.515,2.028,4.146,0.052,6.726
				c-0.774,1.011-1.968,1.653-2.694,2.72c-0.661,0.972-1.059,1.92-0.692,3.103c0.594,1.915,2.689,2.227,3.875,3.575
				c3.287,3.738-3.08,7.195-4.756,9.638c-2.734,3.986,0.005,7.331,1.391,11.21c2.201,6.16-4.547,10.838-3.567,17.246
				c0.857,5.599,5.224,10.174,8.975,14.095c0.693,0.725,1.792-0.376,1.1-1.1c-5.676-5.933-11.081-12.286-6.833-20.597
				c2.087-4.083,3.273-6.872,1.323-11.312c-0.658-1.499-1.679-2.978-1.954-4.612c-0.474-2.821,1.044-4.437,2.884-6.215
				c1.456-1.407,3.177-2.844,3.727-4.895c0.384-1.432,0.283-2.75-0.618-3.952c-0.601-0.802-1.477-1.095-2.165-1.755
				c-1.714-0.695-2.051-2.032-1.009-4.012c0.34-0.346,0.689-0.682,1.046-1.009c1.021-1.396,2.35-2.079,2.677-3.915
				c0.301-1.691-0.41-3.295-1.032-4.824c-1.098-2.699-2.351-4.779,0.941-7.073c1.103-0.769,2.654-1.046,3.891-1.518
				c1.72-0.656,3.769-1.435,4.811-3.07c1.088-1.707,0.286-2.42,0.215-4.191c-0.218-5.443,6.286-5.472,9.787-7.113
				c2.964-1.39,5.561-4.191,3.727-7.505C114.526,28.332,113.182,29.116,113.667,29.993L113.667,29.993z"/>
		</g>
	</g>
	<g>
		<path d="M144.39,123.473c-0.234,0-0.465-0.105-0.618-0.305c-0.262-0.34-0.197-0.829,0.144-1.09
			c5.255-4.034,7.787-7.746,7.524-11.033c-0.061-0.764-0.21-1.362-0.399-2.12c-0.225-0.902-0.504-2.024-0.709-3.794
			c-0.441-3.802,0.657-6.85,1.018-7.852l0.071-0.199c0.768-2.23,1.549-3.214,2.238-4.082c0.602-0.76,1.079-1.36,1.444-2.76
			c0.406-1.554,0.232-2.396-0.031-3.669c-0.26-1.255-0.582-2.816-0.484-5.569c0.067-1.899,0.297-3.21,0.465-4.167
			c0.232-1.322,0.327-1.869-0.115-2.652c-0.649-1.147-1.609-1.42-2.826-1.767c-1.142-0.325-2.436-0.694-3.448-1.919
			c-1.879-2.276-0.819-5.067,0.117-7.529c0.837-2.203,1.627-4.282,0.594-5.938c-0.738-1.184-2.232-1.854-3.813-2.563
			c-1.591-0.713-3.235-1.451-4.288-2.811c-1.541-1.989-1.292-4.607-1.071-6.916c0.244-2.56,0.455-4.77-1.481-5.896
			c-0.798-0.465-1.895-0.653-2.956-0.836c-1.711-0.294-3.48-0.598-4.44-2.058c-0.564-0.858-0.602-1.826-0.635-2.68
			c-0.03-0.756-0.055-1.408-0.398-1.905c-0.687-0.994-2.204-1.122-3.544-1.234c-3.726-0.311-7.874-0.23-12.326,0.247
			c-0.424,0.049-0.81-0.264-0.856-0.69c-0.046-0.427,0.263-0.81,0.69-0.856c4.55-0.488,8.796-0.574,12.622-0.25
			c1.515,0.127,3.589,0.301,4.693,1.9c0.6,0.869,0.639,1.857,0.672,2.729c0.029,0.745,0.054,1.389,0.381,1.886
			c0.589,0.896,1.956,1.131,3.404,1.38c1.197,0.205,2.435,0.419,3.475,1.024c2.797,1.627,2.505,4.688,2.247,7.389
			c-0.211,2.218-0.412,4.313,0.753,5.815c0.815,1.053,2.214,1.68,3.695,2.344c1.724,0.774,3.508,1.574,4.497,3.16
			c1.442,2.31,0.431,4.968-0.46,7.314c-0.899,2.365-1.674,4.408-0.371,5.987c0.703,0.852,1.616,1.113,2.674,1.414
			c1.307,0.373,2.79,0.795,3.752,2.497c0.717,1.268,0.539,2.282,0.293,3.686c-0.169,0.963-0.379,2.162-0.443,3.953
			c-0.091,2.567,0.21,4.026,0.453,5.2c0.274,1.326,0.51,2.472,0.014,4.377c-0.448,1.717-1.071,2.503-1.731,3.334
			c-0.641,0.808-1.303,1.644-1.985,3.622l-0.078,0.219c-0.365,1.013-1.335,3.705-0.936,7.145c0.194,1.67,0.449,2.694,0.674,3.597
			c0.197,0.794,0.368,1.48,0.44,2.372c0.307,3.846-2.428,8.016-8.129,12.391C144.722,123.421,144.555,123.473,144.39,123.473z"/>
	</g>
	<g>
		<path d="M144.932,123.001c-0.056,0-0.113-0.006-0.17-0.019c-0.419-0.093-0.684-0.509-0.589-0.928
			c1.501-6.715,2.367-13.5,2.574-20.164l0.043-1.357c0.182-5.589,0.283-8.668-1.098-11.079c-0.915-1.6-2.342-3.076-3.723-4.503
			c-2.319-2.397-4.716-4.876-4.948-8.152c-0.15-2.112,0.664-4.076,1.452-5.975l0.194-0.469c1.367-3.328,1.257-4.401,0.933-5.658
			c-0.375-1.449-1.534-2.787-3.35-3.869c-0.211-0.126-0.35-0.344-0.376-0.588c-0.804-7.733-2.742-12.311-5.759-13.606
			c-0.257-0.111-0.551-0.214-0.87-0.327c-1.338-0.474-3.171-1.123-4.636-2.93c-0.763-0.942-1.079-2.018-1.384-3.059
			c-0.143-0.485-0.284-0.971-0.477-1.438c-1.176-2.842-4.655-4.892-8.163-4.759c-0.422,0.046-0.79-0.319-0.806-0.748
			c-0.016-0.429,0.319-0.79,0.748-0.806c4.152-0.152,8.224,2.25,9.658,5.718c0.214,0.516,0.374,1.056,0.532,1.595
			c0.274,0.934,0.533,1.817,1.1,2.516c1.189,1.467,2.718,2.008,3.947,2.443c0.353,0.125,0.679,0.242,0.964,0.364
			c3.569,1.533,5.747,6.275,6.652,14.493c1.985,1.265,3.27,2.853,3.724,4.611c0.39,1.512,0.548,2.873-1,6.638l-0.195,0.473
			c-0.719,1.733-1.461,3.524-1.338,5.271c0.192,2.712,2.292,4.882,4.515,7.18c1.448,1.496,2.944,3.042,3.956,4.812
			c1.599,2.794,1.494,6.029,1.303,11.902l-0.044,1.355c-0.21,6.762-1.088,13.644-2.611,20.454
			C145.609,122.755,145.288,123.001,144.932,123.001z"/>
	</g>
	<g>
		<path d="M90.908,127.78c-0.122,0-0.245-0.028-0.359-0.089c-6.553-3.426-10.077-7.223-10.474-11.285
			c-0.17-1.734,0.303-3.009,0.721-4.133c0.46-1.239,0.857-2.308,0.389-3.899c-0.419-1.426-1.851-2.661-3.235-3.858
			c-1.954-1.686-3.972-3.431-3.545-5.966c0.33-1.953,2.084-3.271,3.631-4.435l0.55-0.416c0.683-0.524,2.855-2.356,2.149-3.923
			c-0.369-0.817-1.382-1.347-2.454-1.908c-1.045-0.548-2.126-1.114-2.841-2.051c-1.897-2.488-0.027-5.164,1.622-7.526
			c1.462-2.093,2.842-4.069,1.916-5.762c-0.308-0.564-0.896-1.11-1.465-1.639c-1.038-0.963-2.214-2.055-2.028-3.617
			c0.193-1.625,1.718-2.477,3.064-3.23c0.978-0.546,1.988-1.111,2.349-1.865c0.437-0.913-0.077-1.883-0.977-3.372
			c-0.82-1.357-1.748-2.895-1.258-4.552c0.584-1.974,2.664-2.778,4.675-3.555c1.606-0.621,3.266-1.263,3.809-2.428
			c0.216-0.465,0.248-1.023,0.283-1.614c0.027-0.451,0.053-0.918,0.16-1.395c0.417-1.86,1.704-3.088,2.644-3.985l0.132-0.127
			c2.112-2.023,4.165-3.059,6.338-4.155c1.217-0.613,2.475-1.248,3.798-2.089c2.093-1.33,2.775-2.163,3.564-3.128
			c0.338-0.414,0.684-0.836,1.142-1.303c0.637-0.651,1.492-1.47,2.45-2.042c1.692-1.007,3.349-0.993,4.555-0.989
			c0.229,0.002,0.443,0.004,0.643-0.004c1.993-0.059,3.031-0.884,4.344-1.929c1.022-0.813,2.18-1.735,3.939-2.356
			c6.446-2.27,15.808,1.218,18.558,6.915c0.243,0.503,0.381,0.964,0.502,1.371c0.225,0.754,0.374,1.253,1.058,1.768
			c0.861,0.65,2.186,0.718,3.589,0.788c1.726,0.087,3.511,0.178,4.697,1.419c1.059,1.109,1.016,2.522,0.978,3.77
			c-0.028,0.941-0.055,1.83,0.368,2.497c0.547,0.864,1.767,1.328,3.059,1.821c1.556,0.592,3.166,1.205,3.905,2.665
			c0.75,1.481,0.16,2.974-0.361,4.291c-0.347,0.877-0.674,1.707-0.633,2.476c0.074,1.343,1.246,2.462,2.487,3.647
			c0.819,0.782,1.665,1.59,2.271,2.533c1.72,2.68,1.148,5.697,0.595,8.615c-0.185,0.977-0.377,1.987-0.468,2.942
			c-0.409,4.294,0.953,6.733,2.154,8.886c1.158,2.073,2.25,4.031,1.167,6.898c-0.586,1.549-1.439,2.609-2.191,3.544
			c-0.999,1.242-1.788,2.223-1.843,4.048c-0.049,1.623,0.64,2.851,1.308,4.039c0.326,0.58,0.662,1.179,0.896,1.802
			c1.847,4.932-4.371,12.734-19.011,23.852c-0.343,0.261-0.829,0.194-1.089-0.149c-0.261-0.342-0.194-0.829,0.149-1.09
			c17.219-13.076,19.562-19.218,18.494-22.067c-0.191-0.51-0.485-1.033-0.796-1.586c-0.735-1.309-1.568-2.792-1.507-4.847
			c0.071-2.346,1.147-3.683,2.187-4.976c0.712-0.885,1.448-1.801,1.947-3.119c0.828-2.19,0.032-3.616-1.069-5.59
			c-1.247-2.235-2.799-5.015-2.344-9.791c0.097-1.026,0.295-2.072,0.488-3.084c0.519-2.74,1.009-5.327-0.377-7.485
			c-0.505-0.787-1.284-1.53-2.036-2.248c-1.405-1.341-2.858-2.729-2.965-4.686c-0.062-1.11,0.346-2.138,0.739-3.133
			c0.458-1.158,0.853-2.159,0.419-3.016c-0.466-0.923-1.731-1.404-3.069-1.913c-1.474-0.561-2.997-1.142-3.821-2.442
			c-0.678-1.071-0.641-2.296-0.608-3.377c0.033-1.079,0.061-2.011-0.549-2.649c-0.757-0.793-2.162-0.864-3.65-0.94
			c-1.575-0.08-3.205-0.162-4.447-1.1c-1.091-0.823-1.356-1.709-1.612-2.566c-0.109-0.368-0.223-0.749-0.412-1.139
			c-2.406-4.981-10.961-8.13-16.64-6.124c-1.512,0.534-2.517,1.333-3.489,2.105c-1.355,1.078-2.756,2.192-5.265,2.267
			c-0.22,0.007-0.454,0.004-0.7,0.004c-1.142-0.002-2.431-0.014-3.75,0.77c-0.907,0.54-1.767,1.418-2.134,1.793
			c-0.42,0.43-0.738,0.819-1.049,1.199c-0.801,0.978-1.63,1.991-3.933,3.455c-1.388,0.883-2.681,1.535-3.932,2.165
			c-2.067,1.042-4.018,2.026-5.961,3.888l-0.135,0.129c-0.84,0.802-1.886,1.801-2.2,3.2c-0.084,0.374-0.103,0.76-0.125,1.145
			c-0.039,0.678-0.084,1.446-0.426,2.181c-0.807,1.734-2.765,2.491-4.658,3.223c-1.736,0.671-3.377,1.306-3.744,2.546
			c-0.295,1,0.381,2.12,1.098,3.306c0.881,1.458,1.879,3.111,1.049,4.847c-0.574,1.2-1.804,1.887-2.993,2.552
			c-1.12,0.627-2.178,1.218-2.278,2.055c-0.087,0.725,0.525,1.35,1.541,2.293c0.66,0.613,1.342,1.246,1.772,2.033
			c1.388,2.539-0.415,5.121-2.006,7.398c-1.785,2.556-2.787,4.214-1.66,5.692c0.506,0.663,1.39,1.126,2.326,1.616
			c1.259,0.659,2.56,1.34,3.15,2.647c0.807,1.786-0.148,3.9-2.618,5.796l-0.563,0.426c-1.379,1.037-2.805,2.109-3.031,3.451
			c-0.283,1.671,1.251,2.996,3.027,4.53c1.555,1.342,3.162,2.731,3.71,4.595c0.614,2.087,0.087,3.506-0.423,4.879
			c-0.393,1.06-0.766,2.062-0.63,3.439c0.343,3.507,3.589,6.891,9.646,10.059c0.381,0.199,0.528,0.668,0.329,1.049
			C91.459,127.628,91.188,127.78,90.908,127.78z"/>
	</g>
	<g>
		<g>
			<path d="M121.602,23.142c-3.232-1.16-5.85-0.71-8.877,0.718c-2.398,1.131-4.268,0.498-6.765,0.547
				c-1.566,0.031-2.217,1.01-3.674,1.471c-2.794,0.885-5.467-0.298-7.459,2.547c-1.318,1.883-1.12,3.966,0.403,5.604
				c0.183-0.443,0.367-0.885,0.55-1.328c-5.06,0.39-16.646,2.722-12.615,10.429c0.155-0.381,0.31-0.762,0.465-1.143
				c-4.115,1.575-8.778,3.328-11.624,6.881c-1.196,1.493-1.836,3.081-2.048,4.983c-0.437,3.921,0.273,6.696-2.415,10.024
				c-2.203,2.727-4.912,5.522-2.904,9.174c1.043,1.898,3.052,3.056,4.177,4.878c1.891,3.063-0.716,5.213-2.168,7.62
				c-1.881,3.118-0.961,5.289,1.566,7.667c3.613,3.4,2.213,6.493,1.068,10.552c-0.644,2.284-0.774,4.415,0.002,6.693
				c1.59,4.665,5.975,9.163,9.52,12.454c4.013,3.725,8.883,6.062,14.447,5.554c0.989-0.09,0.998-1.647,0-1.556
				c-6.713,0.613-11.834-3.208-16.109-7.974c-4.298-4.791-8.142-9.174-6.007-15.891c0.935-2.94,2.087-5.996,0.235-8.816
				c-1.645-2.505-5.288-3.314-3.812-7.162c0.625-1.629,2.14-2.858,2.899-4.437c1.111-2.311,0.66-4.301-0.899-6.277
				c-1.079-1.367-2.797-2.504-3.575-4.091c-1.656-3.38,1.533-5.746,3.317-8.096c2.863-3.77,1.336-7.029,2.376-11.306
				c1.285-5.286,7.878-7.657,12.368-9.376c0.48-0.184,0.715-0.665,0.465-1.143c-3.332-6.371,7.515-7.799,11.272-8.088
				c0.67-0.052,1.028-0.813,0.55-1.328c-0.838-3.292-0.033-4.958,2.414-4.998c0.847-0.266,1.713-0.382,2.596-0.35
				c0.602-0.105,1.179-0.208,1.759-0.368c0.481-0.132,0.816-0.548,1.265-0.688c3.197-0.996,2.499,0.084,4.572,0.107
				c1.341,0.015,2.175-0.064,3.384-0.678c3.094-1.573,5.316-2.589,8.868-1.313C122.133,24.98,122.539,23.478,121.602,23.142
				L121.602,23.142z"/>
		</g>
	</g>
	<g>
		<path d="M134.375,95.572c-4.255,0-7.09-0.91-8.842-1.796c-0.825-0.417-2.756-1.393-4.182-3.499c-0.19-0.28-0.677-1.05-1.082-2.134
			c-1.196-3.193-0.864-6.774-0.375-9.215l1.525,0.305c-0.634,3.17-0.526,6.141,0.307,8.364c0.346,0.927,0.753,1.572,0.913,1.806
			c1.2,1.772,2.818,2.59,3.596,2.983c2.108,1.066,5.965,2.164,12.384,1.343c2.789-0.357,5.56-1.082,8.234-2.156l0.58,1.443
			c-2.797,1.123-5.697,1.883-8.617,2.257C137.188,95.482,135.712,95.572,134.375,95.572z"/>
	</g>
	<g>
		<g>
			<path d="M147.131,101.242c-4.349,2.233-8.977,3.668-13.83,4.262c-0.981,0.12-0.993,1.677,0,1.556
				c5.133-0.628,10.015-2.112,14.616-4.475C148.807,102.128,148.021,100.785,147.131,101.242L147.131,101.242z"/>
		</g>
	</g>
	<g>
		<path d="M161.292,97.539l-0.881-1.282c4.727-3.247,24.383-22.359,32.95-34.983c0.962-1.417,2.728-4.021,3.277-7.746
			c0.434-2.949,0.096-5.459-0.345-5.725c-0.003,0.005-0.076,0.012-0.214,0.088c-1.736,0.946-3.184,6.164-4.048,9.281
			c-0.221,0.797-0.418,1.502-0.589,2.049c-1.278,4.059-4.84,7.484-11.938,14.307l-0.223,0.215c-4.337,4.17-9.09,8.028-14.128,11.468
			l-0.877-1.285c4.966-3.391,9.652-7.194,13.926-11.304l0.224-0.216c6.907-6.639,10.374-9.972,11.532-13.651
			c0.168-0.534,0.359-1.222,0.574-1.998c1.312-4.727,2.666-9.066,4.803-10.231c0.63-0.345,1.129-0.301,1.436-0.204
			c2.323,0.737,1.508,6.749,1.407,7.432c-0.601,4.077-2.57,6.98-3.516,8.375C185.992,74.904,166.085,94.246,161.292,97.539z"/>
	</g>
	<g>
		<g>
			<path d="M108.985,80.948c-0.564,4.576-2.688,9.04-6.74,11.509c-4.049,2.467-9.56,3.536-14.214,3.995
				c-0.987,0.097-0.997,1.654,0,1.556c5.329-0.526,11.689-1.693,16.103-4.949c3.888-2.869,5.831-7.431,6.407-12.11
				C110.663,79.957,109.106,79.966,108.985,80.948L108.985,80.948z"/>
		</g>
	</g>
	<g>
		<g>
			<path d="M86.184,107.406c3.814,0.028,7.627,0.056,11.441,0.084c1.001,0.007,1.002-1.548,0-1.556
				c-3.814-0.028-7.627-0.056-11.441-0.084C85.183,105.843,85.182,107.398,86.184,107.406L86.184,107.406z"/>
		</g>
	</g>
	<g>
		<path d="M69.78,106.163c-0.029,0-0.058-0.002-0.088-0.005c-17.347-1.953-29.291-2.895-30.541-2.836
			c-1.966,0.056-3.797,0.283-3.815,0.286c-2.009,0.314-4.06,0.481-6.071,0.492c-3.206,0.026-4.469-0.35-5.338-0.753
			c-0.652-0.302-3.884-1.905-3.551-3.851c0.305-1.784,3.22-2.259,5.792-2.677c2.823-0.461,5.896-0.404,9.135,0.169
			c0.891,0.157,2.259,0.438,3.72,0.878c3.993,1.199,14.691,1.069,31.832-0.374c0.428-0.043,0.804,0.282,0.84,0.709
			c0.036,0.428-0.282,0.804-0.709,0.84c-17.581,1.48-28.171,1.587-32.375,0.326c-1.426-0.43-2.73-0.697-3.579-0.848
			c-3.068-0.542-5.965-0.597-8.612-0.166c-1.204,0.196-4.394,0.715-4.512,1.404c-0.061,0.355,0.95,1.38,2.671,2.178
			c0.441,0.204,1.392,0.638,4.676,0.608c1.935-0.011,3.908-0.172,5.864-0.477c0.101-0.013,1.947-0.242,3.986-0.301
			c1.474-0.065,13.673,0.922,30.761,2.845c0.426,0.049,0.734,0.434,0.686,0.86C70.508,105.87,70.17,106.163,69.78,106.163z"/>
	</g>
	<g>
		<path d="M189.803,44.042c-0.022,0-0.045-0.001-0.068-0.003c-0.428-0.036-0.745-0.414-0.708-0.842
			c0.114-1.322,0.916-2.555,2.451-3.772c0.23-0.183,0.466-0.36,0.703-0.538c0.813-0.61,1.581-1.186,2.079-1.947
			c0.715-1.089,0.765-2.594,0.123-3.658c-0.653-1.082-2.033-1.685-3.211-1.4c-1.104,0.267-1.984,1.357-2.02,2.451
			c0.009,0.106,0.011,0.212,0.005,0.32c-0.022,0.409-0.359,0.731-0.769,0.735c-0.003,0-0.005,0-0.008,0
			c-0.407,0-0.746-0.314-0.776-0.721c-0.006-0.085-0.01-0.169-0.01-0.254c-0.057-0.325-0.343-0.532-0.524-0.633
			c-0.489-0.272-1.121-0.279-1.502-0.013c-0.899,0.626-1.012,2.068-0.601,3.1c0.493,1.24,1.594,2.256,2.565,3.152
			c0.316,0.292,0.336,0.784,0.045,1.099c-0.292,0.316-0.783,0.335-1.099,0.045c-1.094-1.009-2.333-2.153-2.957-3.722
			c-0.641-1.613-0.45-3.83,1.158-4.95c0.87-0.606,2.134-0.633,3.148-0.07c0.078,0.043,0.153,0.09,0.225,0.138
			c0.55-1.06,1.549-1.899,2.753-2.189c1.834-0.447,3.903,0.441,4.909,2.108c0.955,1.583,0.892,3.718-0.154,5.315
			c-0.647,0.988-1.562,1.675-2.446,2.339c-0.226,0.169-0.451,0.339-0.671,0.513c-1.18,0.937-1.792,1.815-1.867,2.687
			C190.542,43.737,190.202,44.042,189.803,44.042z"/>
	</g>
	<g>
		<path d="M178.718,59.593c-0.138,0-0.277-0.036-0.404-0.114c-0.109-0.066-0.197-0.156-0.259-0.258
			c-0.291,0.223-0.708,0.214-0.99-0.038c-0.682-0.61-1.489-1.073-2.343-1.563c-0.704-0.405-1.432-0.823-2.105-1.339
			c-1.644-1.26-2.957-3.455-2.188-5.518c0.594-1.597,2.434-2.592,4.095-2.216c0.694,0.156,1.313,0.542,1.787,1.06
			c0.492-0.778,1.24-1.393,2.133-1.668c1.824-0.565,3.953,0.4,4.738,2.144c0.69,1.534,0.377,3.475-0.861,5.324
			c-0.438,0.655-0.94,1.251-1.426,1.827c-0.561,0.664-1.089,1.29-1.512,1.985C179.237,59.46,178.98,59.593,178.718,59.593z
			 M173.794,50.022c-0.807,0-1.625,0.526-1.907,1.284c-0.489,1.312,0.526,2.858,1.676,3.74c0.592,0.453,1.243,0.828,1.934,1.225
			c0.886,0.508,1.802,1.035,2.605,1.752c0.045,0.039,0.084,0.083,0.116,0.129c0.452-0.691,0.978-1.315,1.488-1.92
			c0.48-0.569,0.933-1.107,1.323-1.688c0.918-1.374,1.193-2.803,0.734-3.822c-0.466-1.035-1.78-1.628-2.862-1.295
			c-0.896,0.276-1.564,1.159-1.66,2.088c0.041,0.261,0.052,0.527,0.028,0.793c-0.034,0.389-0.351,0.693-0.741,0.709
			c-0.394,0.03-0.731-0.257-0.8-0.643c-0.045-0.256-0.061-0.514-0.051-0.77c-0.171-0.729-0.766-1.375-1.496-1.54
			C174.055,50.036,173.924,50.022,173.794,50.022z"/>
	</g>
	<g>
		<path d="M31.916,92.013c-0.786,0-1.601-0.308-2.381-0.905c-1.771-1.355-3.324-4.215-3.612-6.651
			c-0.154-1.307,0.17-1.97,0.507-2.447c0.444-0.625,1.146-0.999,1.979-1.052c0.88-0.059,1.79,0.247,2.472,0.805
			c0.011-0.057,0.023-0.114,0.036-0.17c0.194-0.801,0.734-1.481,1.521-1.913c0.854-0.472,1.891-0.573,2.771-0.273
			c1.922,0.655,2.629,2.727,2.744,3.848c0.161,1.568-0.52,2.708-1.461,4.285c-1.616,2.708-2.506,4.2-4.144,4.443l0,0
			C32.206,92.002,32.062,92.013,31.916,92.013z M28.616,82.505c-0.036,0-0.071,0.002-0.107,0.004
			c-0.251,0.016-0.595,0.098-0.809,0.399c-0.126,0.178-0.337,0.476-0.232,1.366c0.24,2.03,1.562,4.49,3.012,5.599
			c0.591,0.451,1.145,0.645,1.641,0.57l0,0c0.872-0.129,1.561-1.228,3.037-3.701c0.94-1.576,1.352-2.316,1.248-3.328
			c-0.071-0.701-0.52-2.134-1.698-2.535c-0.467-0.156-1.047-0.095-1.52,0.163c-0.4,0.22-0.669,0.545-0.759,0.916
			c-0.127,0.527,0.041,1.155,0.219,1.821c0.238,0.893,0.509,1.905,0.096,2.917c-0.132,0.324-0.468,0.522-0.811,0.479
			c-0.348-0.041-0.625-0.309-0.678-0.655c-0.211-1.38-0.446-2.588-1.184-3.389C29.72,82.748,29.147,82.505,28.616,82.505z"/>
	</g>
	<g>
		<path d="M25.089,116.673c-0.979,0-1.98-0.425-2.658-1.179c-0.382-0.425-0.647-0.94-0.786-1.488c-0.3,0.233-0.627,0.443-0.99,0.608
			c-1.066,0.487-2.58,0.529-3.561-0.472c-0.841-0.864-0.994-2.341-0.372-3.593c0.475-0.958,1.104-1.659,2.172-2.418
			c3.303-2.352,4.817-3.428,6.098-3.125l0,0c2.551,0.596,3.595,3.925,3.674,6.016c0.018,0.466,0.098,4.585-2.567,5.489
			C25.775,116.62,25.433,116.673,25.089,116.673z M22.513,111.288c0.144,0,0.288,0.039,0.416,0.121
			c0.32,0.202,0.447,0.606,0.302,0.956c-0.283,0.681-0.137,1.54,0.356,2.089c0.573,0.636,1.447,0.777,2.014,0.583
			c1.205-0.408,1.564-2.589,1.512-3.956c-0.062-1.62-0.891-4.19-2.474-4.56l0,0c-0.612-0.141-2.38,1.124-4.842,2.877
			c-0.864,0.615-1.319,1.114-1.681,1.843c-0.281,0.567-0.34,1.372,0.093,1.815c0.428,0.439,1.23,0.405,1.801,0.144
			c0.738-0.337,1.343-1.007,1.927-1.655C22.087,111.376,22.299,111.288,22.513,111.288z"/>
	</g>
	<g>
		<path d="M42.91,129.258c-0.896,0-1.821-0.303-2.574-0.91c-1.357-1.093-1.692-2.605-1.963-4.323
			c-0.189-1.194-0.541-3.415,0.894-4.912c0-0.001,0.001-0.002,0.002-0.002c0.267-0.276,0.594-0.517,0.972-0.715
			c3.992-2.086,9.959,2.405,11.115,3.326c0.276,0.22,1.116,0.892,1.148,1.897c0.039,1.248-1.094,2.007-2.166,2.301
			c-1.345,0.368-2.778,0.359-4.118-0.002c0.062,0.927-0.266,1.828-0.899,2.428C44.677,128.954,43.807,129.258,42.91,129.258z
			 M40.389,120.19c-0.901,0.94-0.638,2.6-0.481,3.592c0.236,1.493,0.475,2.607,1.403,3.355c0.788,0.634,2.156,0.818,2.939,0.079
			c0.34-0.321,0.492-0.879,0.387-1.42c-0.029-0.147-0.109-0.443-0.321-0.666c-0.163-0.095-0.324-0.196-0.48-0.303
			c-0.326-0.224-0.433-0.657-0.248-1.006c0.187-0.349,0.605-0.502,0.971-0.359c0.252,0.099,0.482,0.235,0.684,0.406
			c1.415,0.771,3.123,0.981,4.681,0.553c0.582-0.16,1.031-0.491,1.023-0.753c-0.002-0.085-0.063-0.329-0.564-0.729
			c-2.274-1.815-6.817-4.523-9.424-3.163C40.732,119.895,40.539,120.034,40.389,120.19z"/>
	</g>
	<g>
		<path d="M10.811,99.777c-3.13,0-6.225-1.177-8.547-3.306C1.02,95.33,0.278,94.123,0.06,92.885
			c-0.258-1.461,0.313-3.317,1.904-4.035c0.834-0.378,1.87-0.283,2.7,0.251c0.109,0.07,0.211,0.146,0.307,0.226
			c0.42-0.767,0.944-1.392,1.567-1.868c1.281-0.98,2.949-1.211,4.257-0.59c2.292,1.089,2.567,4.02,2.573,6.129l0.02,5.948
			c0.002,0.43-0.346,0.779-0.775,0.781c-0.002,0-0.002,0-0.003,0c-0.093,0-0.182-0.016-0.264-0.046
			C11.837,99.746,11.323,99.777,10.811,99.777z M3.045,90.179c-0.158,0-0.31,0.029-0.442,0.088
			c-0.826,0.374-1.164,1.486-1.012,2.347c0.158,0.894,0.738,1.805,1.724,2.709c2.252,2.065,5.47,3.137,8.515,2.849l-0.017-5.169
			c-0.005-1.689-0.187-4.017-1.685-4.729c-0.775-0.368-1.837-0.199-2.645,0.421c-0.731,0.558-1.312,1.476-1.679,2.652
			c-0.115,0.367-0.474,0.592-0.858,0.538c-0.379-0.057-0.66-0.382-0.662-0.765c-0.002-0.377-0.322-0.623-0.46-0.711
			C3.587,90.258,3.307,90.179,3.045,90.179z"/>
	</g>
	<g>
		<path d="M200.308,71.716c-1.734,0-3.395-0.362-4.029-1.596c-0.414-0.804-0.34-1.857,0.213-3.044
			c0.988-2.122,3.663-4.746,6.67-5.431c1.985-0.451,3.348-0.217,4.05,0.697c0.931,1.21,0.46,2.921-0.534,3.875
			c-0.045,0.044-0.091,0.086-0.137,0.127c1.009,0.512,1.719,1.666,1.549,2.633c-0.263,1.49-2.273,1.932-3.603,2.225
			C203.506,71.419,201.877,71.716,200.308,71.716z M204.918,62.975c-0.349,0-0.81,0.049-1.412,0.187
			c-2.434,0.554-4.761,2.759-5.606,4.571c-0.333,0.714-0.419,1.325-0.238,1.676l0,0c0.456,0.89,3.187,1.006,6.49,0.273
			c1.542-0.339,2.351-0.667,2.405-0.975c0.048-0.27-0.371-0.886-0.883-1.043c-0.671-0.202-1.491-0.05-2.213,0.085
			c-0.406,0.079-0.804-0.18-0.901-0.586c-0.095-0.404,0.144-0.812,0.544-0.927c0.871-0.248,1.859-0.531,2.496-1.142
			c0.48-0.461,0.753-1.316,0.378-1.805C205.906,63.197,205.657,62.975,204.918,62.975z"/>
	</g>
	<g>
		<path d="M201.555,44.242c-0.107,0-0.216-0.022-0.321-0.07l-0.788-0.358c-0.257-0.116-0.431-0.362-0.454-0.644
			c-0.024-0.281,0.106-0.553,0.341-0.71c0.159-0.106,0.318-0.212,0.479-0.315c-0.826-3.126,0.407-6.718,3.046-8.615
			c1.227-0.882,2.565-0.987,3.412-0.271c0.463,0.39,0.72,0.99,0.734,1.637c0.283-0.103,0.58-0.177,0.891-0.212
			c0.886-0.096,1.868,0.257,2.496,0.908c0.517,0.536,0.747,1.206,0.647,1.887c-0.247,1.673-2.128,2.256-3.033,2.536
			c-2.295,0.713-4.491,1.698-6.546,2.936c-0.045,0.085-0.106,0.162-0.179,0.226c0.075,0.19,0.076,0.408-0.015,0.608
			C202.134,44.073,201.851,44.242,201.555,44.242z M205.913,34.337c-0.34,0-0.785,0.195-1.148,0.456
			c-2.002,1.439-2.999,4.09-2.553,6.497c2-1.149,4.121-2.075,6.331-2.762c0.916-0.284,1.864-0.658,1.955-1.278
			c0.029-0.197-0.048-0.393-0.228-0.58c-0.295-0.305-0.78-0.487-1.204-0.441c-0.868,0.097-1.651,0.731-2.513,1.487
			c-0.308,0.274-0.779,0.257-1.069-0.04c-0.289-0.295-0.296-0.766-0.017-1.07c0.37-0.403,0.752-0.819,0.911-1.271
			c0.122-0.343,0.071-0.732-0.113-0.888C206.176,34.371,206.054,34.337,205.913,34.337z"/>
	</g>
	<g>
		<path d="M169.217,42.8c-0.122,0-0.247-0.029-0.363-0.09c-0.088-0.046-0.163-0.108-0.225-0.179
			c-1.043-0.027-2.187-0.166-3.285-0.569c-1.782-0.654-3.161-1.968-3.687-3.515c-0.635-1.865,0.101-4.032,1.676-4.933
			c0.88-0.504,2.05-0.547,3.048-0.108c0.305,0.133,0.58,0.304,0.818,0.504c0.242-0.536,0.546-1.06,0.971-1.521
			c0.817-0.885,2.304-1.549,3.644-0.921c1.274,0.599,1.747,2.053,1.651,3.23c-0.094,1.143-0.622,2.14-1.088,3.02l-1.791,3.382
			c0.183,0.133,0.307,0.345,0.32,0.589c0.022,0.429-0.308,0.795-0.737,0.817c-0.115,0.005-0.234,0.011-0.355,0.016
			C169.665,42.701,169.444,42.8,169.217,42.8z M164.935,34.656c-0.3,0-0.588,0.069-0.829,0.208
			c-0.935,0.534-1.373,1.916-0.976,3.082c0.377,1.107,1.405,2.062,2.751,2.557c0.981,0.36,2.044,0.467,3.009,0.478l2.113-3.99
			c0.415-0.784,0.844-1.595,0.911-2.42c0.053-0.64-0.191-1.426-0.761-1.694c-0.593-0.28-1.392,0.084-1.84,0.567
			c-0.587,0.637-0.891,1.541-1.185,2.417c-0.112,0.33-0.44,0.551-0.776,0.529c-0.348-0.017-0.642-0.264-0.719-0.604
			c-0.093-0.404-0.412-0.753-0.877-0.956C165.491,34.713,165.208,34.656,164.935,34.656z"/>
	</g>
	<g>
		<path fill="none" stroke="#000000" stroke-miterlimit="10" d="M92.184,127.049"/>
	</g>
	<g>
		<path fill="#EFD5DF" d="M98.78,4.93c0.825-0.441,3.457,5.122,6.006,4.582c2.467-0.523,2.788-6.325,4.552-6.278
			c0.771,0.021,0.927,1.135,3.106,3.244c1.341,1.297,2.012,1.946,2.686,1.912c2.397-0.12,3.447-7.68,4.132-7.61
			c0.626,0.064,0.685,6.463-0.326,24.036c-1.493-0.804-2.822-1.12-3.695-1.259c-0.317-0.05-1.064-0.155-2.031-0.139
			c-0.58,0.009-1.647,0.068-3.131,0.458c-2.649,0.697-2.87,1.463-3.682,1.323c-1.751-0.301-2.063-4.091-3.325-8.614
			C101.139,9.646,98.157,5.263,98.78,4.93z"/>
		<path d="M106.584,25.993c-0.1,0-0.206-0.009-0.317-0.028c-1.81-0.311-2.362-2.663-3.127-5.918
			c-0.236-1.006-0.494-2.106-0.814-3.253c-1.063-3.811-2.45-6.845-3.367-8.853c-1.036-2.267-1.464-3.205-0.545-3.696l0,0
			c0.887-0.47,1.615,0.428,2.625,1.673c0.99,1.221,2.467,3.07,3.587,2.833c0.9-0.191,1.557-1.83,2.085-3.147
			c0.649-1.618,1.263-3.148,2.601-3.148c0.016,0,0.031,0,0.047,0c0.785,0.021,1.188,0.561,1.698,1.245
			c0.399,0.534,0.945,1.265,1.929,2.217c0.987,0.956,1.766,1.728,2.106,1.694c1.006-0.05,2.068-3.476,2.521-4.94
			c0.586-1.893,0.848-2.755,1.73-2.666c1.04,0.106,1.791,0.183,0.371,24.854c-0.015,0.265-0.165,0.504-0.396,0.634
			c-0.232,0.129-0.516,0.131-0.748,0.006c-1.1-0.592-2.26-0.987-3.448-1.176c-0.601-0.095-1.252-0.136-1.897-0.13
			c-0.931,0.014-1.895,0.156-2.945,0.432c-1.313,0.346-1.966,0.697-2.443,0.952C107.443,25.792,107.069,25.993,106.584,25.993z
			 M100.635,7.868c0.926,2.037,2.191,4.928,3.189,8.507c0.327,1.169,0.59,2.289,0.831,3.315c0.532,2.264,1.082,4.605,1.876,4.742
			c0.097,0.014,0.155,0,0.57-0.222c0.514-0.277,1.293-0.695,2.784-1.087c1.173-0.309,2.257-0.467,3.316-0.484
			c0.725-0.01,1.474,0.04,2.164,0.15c0.978,0.154,1.936,0.431,2.864,0.823c0.648-11.494,0.769-17.175,0.703-19.939
			c-0.791,2.529-1.809,5.395-3.761,5.493c-1.018,0.054-1.765-0.678-3.266-2.13c-1.074-1.039-1.687-1.861-2.093-2.405
			c-0.202-0.27-0.431-0.577-0.526-0.63c-0.288,0.081-0.836,1.447-1.131,2.181c-0.7,1.747-1.494,3.726-3.207,4.089
			C103.303,10.621,101.829,9.253,100.635,7.868z M98.78,4.93h0.015H98.78z"/>
	</g>
	<g>
		<g>
			<path d="M99.338,56.723c3.003,0,3.008-4.667,0-4.667C96.335,52.056,96.33,56.723,99.338,56.723L99.338,56.723z"/>
		</g>
	</g>
	<g>
		<g>
			<path d="M127.039,54.719c0.018-0.136,0.037-0.271,0.055-0.407c0.163-1.204-0.288-2.565-1.63-2.87
				c-1.095-0.249-2.696,0.336-2.87,1.63c-0.018,0.136-0.037,0.271-0.055,0.407c-0.163,1.204,0.288,2.565,1.63,2.87
				C125.264,56.598,126.864,56.013,127.039,54.719L127.039,54.719z"/>
		</g>
	</g>
	<g>
		<g>
			<path d="M108.708,71.39c3.612,1.735,7.682,1.273,10.796-1.252c0.778-0.631-0.329-1.725-1.1-1.1
				c-2.531,2.053-5.985,2.414-8.911,1.009C108.595,69.615,107.805,70.956,108.708,71.39L108.708,71.39z"/>
		</g>
	</g>
	<g>
		
			<ellipse transform="matrix(0.1339 -0.991 0.991 0.1339 22.7643 156.0947)" fill="#EFD5DF" cx="100.684" cy="65.024" rx="3.605" ry="3.673"/>
	</g>
	<g>
		
			<ellipse transform="matrix(0.1339 -0.991 0.991 0.1339 46.8064 180.3896)" fill="#EFD5DF" cx="126.604" cy="63.417" rx="3.605" ry="3.673"/>
	</g>
	<g>
		<path d="M133.096,95.208l-1.32-0.823c0.56-0.898,1.243-2.363,1.319-4.239l0.009-0.216c0.043-0.993,0.098-2.23-0.578-3.171
			c-0.15-0.208-0.326-0.393-0.5-0.578c-0.368-0.392-0.785-0.836-1.031-1.469c-0.492-1.268-0.058-2.656,0.393-3.598
			c0.122-0.256,0.255-0.507,0.388-0.759c0.325-0.614,0.632-1.193,0.759-1.822c0.207-1.023-0.072-2.172-0.374-3.161l-0.299-0.965
			c-0.387-1.234-0.548-1.745-0.525-2.76c0.024-1.06,0.343-2.107,0.944-3.113l1.335,0.799c-0.463,0.772-0.706,1.563-0.724,2.35
			c-0.017,0.759,0.082,1.076,0.453,2.258l0.304,0.979c0.357,1.175,0.686,2.56,0.41,3.922c-0.172,0.849-0.547,1.557-0.909,2.241
			c-0.123,0.232-0.246,0.465-0.359,0.702c-0.261,0.545-0.652,1.576-0.346,2.364c0.136,0.352,0.404,0.637,0.714,0.967
			c0.22,0.235,0.439,0.471,0.629,0.735c0.99,1.379,0.92,2.979,0.869,4.147l-0.009,0.21C134.56,92.424,133.756,94.15,133.096,95.208z
			"/>
	</g>
	<g>
		<path d="M126.806,94.077c-0.159-0.788-0.273-1.596-0.339-2.399c-0.042-0.507-0.043-0.894-0.044-1.203
			c-0.002-0.519-0.014-0.58-0.081-0.658c-0.232-0.275-0.536-0.506-0.857-0.75c-0.308-0.234-0.614-0.471-0.889-0.75
			c-0.749-0.757-1.281-2.018-0.779-3.126c0.259-0.572,0.711-0.908,1.073-1.178c0.209-0.155,0.406-0.302,0.526-0.463
			c0.462-0.611,0.17-1.738-0.256-2.589l-0.256-0.493c-0.497-0.941-1.059-2.008-0.971-3.246l1.551,0.109
			c-0.055,0.796,0.359,1.581,0.796,2.412l0.27,0.52c0.396,0.789,1.198,2.778,0.109,4.223c-0.255,0.339-0.566,0.57-0.84,0.774
			c-0.275,0.204-0.492,0.366-0.585,0.572c-0.178,0.393,0.098,1.017,0.469,1.392c0.224,0.227,0.475,0.415,0.725,0.605
			c0.374,0.284,0.76,0.578,1.103,0.983c0.445,0.527,0.447,1.051,0.448,1.658c0.001,0.278,0.002,0.624,0.039,1.079
			c0.062,0.744,0.167,1.491,0.314,2.22L126.806,94.077z"/>
	</g>
	<g>
		<path d="M95.574,95.731c-0.649-1.651-0.586-3.664,0.166-5.257c0.163-0.346,0.359-0.678,0.554-1.007
			c0.338-0.568,0.657-1.104,0.744-1.685c0.093-0.627-0.079-1.311-0.262-2.036c-0.229-0.911-0.467-1.854-0.243-2.861
			c0.147-0.656,0.469-1.2,0.755-1.68c0.156-0.262,0.314-0.524,0.435-0.806c0.576-1.33,0.289-3.002-0.083-4.743l1.521-0.325
			c0.428,1.997,0.748,3.934-0.01,5.686c-0.149,0.343-0.337,0.664-0.526,0.982c-0.248,0.416-0.481,0.81-0.573,1.224
			c-0.144,0.646,0.039,1.374,0.232,2.143c0.212,0.842,0.431,1.711,0.292,2.646c-0.131,0.883-0.564,1.61-0.946,2.251
			c-0.17,0.287-0.343,0.573-0.485,0.875c-0.574,1.218-0.622,2.76-0.125,4.024L95.574,95.731z"/>
	</g>
	<g>
		<path d="M98.827,128.531c-0.125,0-0.254-0.01-0.386-0.031c-0.71-0.113-1.22-0.517-1.67-0.875c-0.343-0.272-0.64-0.507-0.946-0.557
			c-0.426-0.068-0.886,0.208-1.419,0.527c-0.583,0.349-1.244,0.745-2.052,0.784l-0.074-1.554c0.418-0.02,0.859-0.284,1.327-0.564
			c0.694-0.415,1.475-0.887,2.464-0.728c0.709,0.113,1.218,0.517,1.667,0.874c0.344,0.273,0.641,0.508,0.948,0.558
			c0.409,0.066,0.858-0.191,1.378-0.489c0.512-0.292,1.091-0.624,1.78-0.713c0.643-0.083,1.245,0.068,1.774,0.201l0.359,0.087
			c0.558,0.126,0.979,0.108,1.192-0.049l0.921,1.255c-0.598,0.438-1.422,0.543-2.453,0.311l-0.396-0.095
			c-0.434-0.109-0.845-0.215-1.2-0.166c-0.381,0.049-0.781,0.278-1.204,0.52C100.254,128.159,99.604,128.531,98.827,128.531z"/>
	</g>
	<g>
		<path d="M98.612,127.75l-1.37-0.737c0.431-0.803,0.144-1.906-0.172-2.692c-0.115-0.285-0.243-0.566-0.371-0.848
			c-0.365-0.804-0.742-1.636-0.866-2.581c-0.103-0.78-0.026-1.562,0.049-2.318c0.112-1.145,0.21-2.135-0.306-2.852
			c-0.137-0.191-0.311-0.359-0.482-0.528c-0.424-0.421-0.905-0.899-1.054-1.633c-0.139-0.69,0.09-1.323,0.274-1.831l0.106-0.302
			c0.477-1.442,0.179-3.137-0.759-4.317l1.218-0.968c1.256,1.581,1.655,3.846,1.017,5.773l-0.12,0.343
			c-0.137,0.376-0.265,0.731-0.212,0.993c0.055,0.272,0.319,0.534,0.624,0.838c0.232,0.23,0.463,0.464,0.649,0.723
			c0.859,1.193,0.717,2.638,0.592,3.912c-0.069,0.7-0.134,1.361-0.055,1.963c0.094,0.716,0.408,1.408,0.741,2.142
			c0.137,0.301,0.273,0.602,0.396,0.908C99.153,125.33,99.188,126.679,98.612,127.75z"/>
	</g>
	<g>
		<path d="M126.452,127.709c-0.144,0-0.289-0.039-0.419-0.123c-0.362-0.232-0.466-0.713-0.235-1.075
			c0.937-1.458,1.947-1.872,2.63-1.961c0.638-0.086,1.178-0.088,2.63,0.601c0.687,0.328,1.254,0.599,1.796,0.599
			c0.008,0,0.017,0,0.026,0c0.709-0.011,1.344-0.47,2.079-1.002c0.578-0.419,1.176-0.851,1.889-1.114
			c0.987-0.363,1.635-0.269,2.266-0.176c0.5,0.072,0.971,0.141,1.753-0.011c1.07-0.21,2.101-0.674,3.063-1.379
			c0.346-0.255,0.832-0.18,1.088,0.167c0.254,0.346,0.179,0.833-0.167,1.088c-1.148,0.842-2.388,1.398-3.685,1.651
			c-1.04,0.202-1.725,0.103-2.278,0.024c-0.535-0.08-0.888-0.131-1.502,0.096c-0.513,0.188-1,0.541-1.515,0.914
			c-0.828,0.599-1.767,1.278-2.966,1.297c-0.895-0.033-1.717-0.368-2.424-0.706c-1.234-0.586-1.499-0.551-1.807-0.512
			c-0.552,0.073-1.079,0.508-1.565,1.265C126.958,127.583,126.708,127.709,126.452,127.709z"/>
	</g>
	<g>
		<path d="M134.666,126.672c-0.248,0-0.493-0.118-0.643-0.34c-0.242-0.355-0.15-0.839,0.204-1.081
			c0.623-0.425,0.963-0.846,0.985-1.22c0.006-0.106-0.016-0.153-0.179-0.387c-0.188-0.267-0.472-0.673-0.514-1.309
			c-0.059-0.9,0.37-1.628,0.748-2.27c0.308-0.524,0.576-0.978,0.522-1.396c-0.068-0.529-0.662-0.941-1.238-1.338
			c-1.553-1.072-1.754-2.139-1.654-2.848c0.118-0.842,0.681-1.384,1.134-1.82c0.144-0.139,0.29-0.277,0.417-0.427
			c0.513-0.606,0.697-1.549,0.456-2.344c-0.09-0.299-0.175-0.483-0.254-0.659c-0.066-0.145-0.129-0.287-0.192-0.46
			c-0.082-0.226-0.135-0.434-0.165-0.553c-0.183-0.714-0.172-1.572,0.027-2.507c0.09-0.42,0.501-0.687,0.923-0.599
			c0.42,0.09,0.688,0.503,0.599,0.923c-0.189,0.885-0.131,1.452-0.048,1.772c0.03,0.118,0.067,0.27,0.126,0.432
			c0.048,0.131,0.097,0.239,0.147,0.35c0.103,0.227,0.209,0.464,0.325,0.85c0.393,1.3,0.095,2.791-0.758,3.799
			c-0.16,0.19-0.343,0.367-0.525,0.542c-0.338,0.325-0.63,0.606-0.673,0.916c-0.074,0.526,0.576,1.06,0.969,1.331
			c0.764,0.529,1.771,1.224,1.926,2.441c0.121,0.947-0.329,1.711-0.725,2.383c-0.302,0.513-0.564,0.957-0.535,1.378
			c0.013,0.193,0.081,0.299,0.235,0.519c0.197,0.282,0.496,0.707,0.458,1.369c-0.051,0.886-0.61,1.699-1.661,2.415
			C134.969,126.628,134.817,126.672,134.666,126.672z"/>
	</g>
	<g>
		<path d="M142.077,124.741c-0.101,0-0.204-0.02-0.302-0.061c-0.396-0.167-0.582-0.623-0.415-1.019
			c0.328-0.779,0.472-1.556,0.431-2.311c-0.03-0.539-0.168-0.847-0.342-1.237c-0.172-0.388-0.368-0.827-0.437-1.473
			c-0.128-1.191,0.194-2.281,0.507-3.334c0.2-0.673,0.388-1.308,0.456-1.948c0.09-0.837-0.025-1.695-0.146-2.603
			c-0.103-0.769-0.209-1.565-0.191-2.381c0.033-1.496,0.294-2.973,0.797-4.517c0.133-0.408,0.573-0.632,0.981-0.499
			c0.409,0.133,0.632,0.572,0.499,0.981c-0.456,1.398-0.691,2.729-0.721,4.07c-0.016,0.696,0.077,1.398,0.177,2.141
			c0.128,0.959,0.26,1.951,0.15,2.973c-0.083,0.782-0.301,1.516-0.512,2.226c-0.281,0.948-0.547,1.843-0.452,2.725
			c0.043,0.403,0.162,0.669,0.311,1.006c0.201,0.45,0.427,0.959,0.473,1.783c0.056,0.993-0.129,2.003-0.549,3.001
			C142.668,124.563,142.38,124.741,142.077,124.741z"/>
	</g>
	<g>
		<g>
			<path d="M30.236,318.038c4.689-3.432,8.542-7.692,11.449-12.725c0.502-0.868-0.842-1.653-1.343-0.785
				c-2.769,4.794-6.422,8.897-10.891,12.167C28.651,317.28,29.427,318.63,30.236,318.038L30.236,318.038z"/>
		</g>
	</g>
	<g>
		<g>
			<path d="M70.837,322.27c3.014-2.011,6.497-3.833,9.058-6.43c2.49-2.526,3.722-6.001,5.872-8.788
				c0.611-0.792-0.74-1.567-1.343-0.785c-2.066,2.678-3.252,6.039-5.629,8.473c-2.433,2.491-5.862,4.264-8.743,6.187
				C69.223,321.48,70.001,322.828,70.837,322.27L70.837,322.27z"/>
		</g>
	</g>
	<g>
		<g>
			<path d="M154.388,317.04c-7.439-11.211-15.041-22.981-15.939-36.783c-0.065-0.994-1.621-1.001-1.556,0
				c0.917,14.099,8.543,26.102,16.151,37.568C153.596,318.655,154.944,317.877,154.388,317.04L154.388,317.04z"/>
		</g>
	</g>
	<g>
		<g>
			<path d="M195.685,301.756c1.539,6.367,5.121,11.752,10.333,15.703c0.798,0.605,1.574-0.745,0.785-1.343
				c-4.877-3.697-8.183-8.835-9.618-14.774C196.95,300.37,195.449,300.782,195.685,301.756L195.685,301.756z"/>
		</g>
	</g>
	<g>
		<g>
			<path d="M126.703,147.963c4.506,2.138,7.772,5.966,9.121,10.776c0.27,0.962,1.771,0.554,1.5-0.414
				c-1.449-5.168-4.98-9.402-9.835-11.705C126.588,146.193,125.798,147.534,126.703,147.963L126.703,147.963z"/>
		</g>
	</g>
	<g>
		<g>
			<path d="M103.89,146.62c-4.856,2.304-8.386,6.536-9.835,11.705c-0.271,0.965,1.23,1.378,1.5,0.414
				c1.348-4.81,4.614-8.637,9.121-10.776C105.579,147.534,104.791,146.193,103.89,146.62L103.89,146.62z"/>
		</g>
	</g>
</g>
</svg>
