<?xml version="1.0" encoding="utf-8"?>
<!-- Generator: Adobe Illustrator 22.0.1, SVG Export Plug-In . SVG Version: 6.00 Build 0)  -->
<svg version="1.1" id="Шар_1" xmlns="http://www.w3.org/2000/svg" xmlns:xlink="http://www.w3.org/1999/xlink" x="0px" y="0px"
	 width="212.426px" height="265px" viewBox="0 0 212.426 265" enable-background="new 0 0 212.426 265" xml:space="preserve">
<g>
	<g>
		<path fill="#EFD5DF" d="M189.674,62.556c5.068,13.636-21.133,22.222-20.71,51.123c0.306,20.859,14.481,52.352,16.767,57.432
			c0.056,0.124,0.095,0.21,0.157,0.347c8.366,18.562,19.207,36.133,24.975,55.659c0.861,2.915,1.537,5.527,0.86,8.68
			c-1.9,8.855-12.583,13.428-16.886,15.27c-8.786,3.761-16.607,3.985-31.048,4.399c-5.502,0.158-11.804,0.05-14.748,0
			c-3.555-0.061-9.249-0.161-14.748-0.518c-10.632-0.69-18.672-2.224-25.874-3.622c-20.143-3.912-24.752-7.033-27.397-9.218
			c-2.144-1.77-5.044-4.221-6.756-8.376c-0.936-2.272-2.55-7.56,1.811-19.923c5.271-14.944,11.778-18.981,22.35-42.351
			c0.009-0.019,0.077-0.171,0.156-0.346c1.481-3.289,15.766-35.386,16.562-55.621c1.155-29.353-25.872-38.864-20.505-52.934
			C103.22,40.07,181.413,40.329,189.674,62.556z"/>
	</g>
	<g>
		<path d="M157.233,255.973c-3.416,0-6.505-0.053-8.2-0.082c-3.443-0.059-9.206-0.157-14.768-0.518
			c-10.887-0.707-19.226-2.328-25.927-3.63c-21.335-4.143-25.401-7.503-27.587-9.307c-2.027-1.674-5.09-4.204-6.878-8.542
			c-0.71-1.725-2.872-6.973,1.803-20.226c2.661-7.543,5.576-12.229,9.267-18.161c3.676-5.909,7.842-12.607,13.098-24.225
			l0.155-0.344c1.608-3.572,15.739-35.47,16.526-55.465c0.627-15.926-7.166-26.009-13.427-34.111
			c-5.342-6.912-9.561-12.372-7.049-18.957c4.498-11.796,27.186-17.043,47.861-17.043c0.176,0,0.35,0.001,0.525,0.002
			c20.494,0.088,43.11,5.392,47.44,17.044l0,0c2.373,6.385-1.765,11.572-7.006,18.14c-6.196,7.767-13.907,17.432-13.677,33.124
			c0.275,18.752,11.791,46.294,16.73,57.264l0.156,0.345c2.751,6.104,5.822,12.203,8.791,18.101
			c6.06,12.036,12.325,24.48,16.204,37.615c0.911,3.084,1.554,5.697,0.869,8.888c-1.947,9.068-12.588,13.626-17.132,15.571
			c-8.864,3.794-16.8,4.021-31.206,4.434C161.661,255.952,159.382,255.973,157.233,255.973z M98.428,171.458l0.388,0.175
			c-5.279,11.669-9.461,18.391-13.151,24.323c-3.664,5.888-6.557,10.539-9.186,17.994c-4.567,12.947-2.498,17.97-1.819,19.62
			c1.707,4.142,4.672,6.59,6.634,8.21c2.127,1.757,6.086,5.026,27.208,9.128c6.676,1.298,14.986,2.912,25.819,3.616
			c5.542,0.359,11.292,0.458,14.728,0.516c2.756,0.046,9.209,0.159,14.728,0c14.303-0.409,22.181-0.635,30.894-4.364
			c4.425-1.895,14.783-6.33,16.637-14.969c0.643-2.995,0.024-5.503-0.852-8.47c-3.858-13.061-10.106-25.471-16.148-37.473
			c-2.974-5.906-6.049-12.014-8.807-18.133l-0.157-0.347c-4.96-11.019-16.527-38.69-16.805-57.6
			c-0.234-15.996,7.583-25.793,13.863-33.666c5.073-6.358,9.079-11.38,6.873-17.315c-4.188-11.27-26.446-16.404-46.647-16.49
			c-0.175-0.001-0.351-0.002-0.527-0.002c-20.382,0-42.707,5.078-47.061,16.495c-2.341,6.14,1.749,11.434,6.928,18.135
			c6.346,8.211,14.243,18.43,13.605,34.664c-0.794,20.155-14.985,52.193-16.6,55.779l-0.121,0.269L98.428,171.458z"/>
	</g>
</g>
<g>
	<g>
		<path fill="#FFFFFF" d="M39.07,166.316c-0.303-0.817-1.527-3.815-4.723-5.415c-4.969-2.488-9.884,0.82-10.149,1.005
			c-4.142,2.89-5.908,8.845-3.618,13.566c1.483,3.057,4.168,4.57,6.007,5.282c0.752,0.292,1.409,0.466,1.887,0.565
			c-0.158,1.863-0.185,4.262,0.231,7.006c0.499,3.285,1.464,5.945,2.325,7.847c-0.716,0.919-1.738,2.56-1.407,4.321
			c0.12,0.639,0.459,1.515,0.804,1.507c0.422-0.01,0.628-1.342,0.904-1.306c0.202,0.026,0.155,0.748,0.512,1.772
			c0.137,0.392,0.508,1.458,0.895,1.444c0.54-0.02,0.904-2.135,1.005-2.11c0.064,0.016-0.204,0.836,0.112,1.7
			c0.065,0.178,0.142,0.322,0.189,0.41c0.18,0.334,0.41,0.764,0.804,1.005c0.48,0.294,1.252,0.337,1.507,0
			c0.289-0.381-0.287-0.977-0.1-1.206c0.461-0.566,4.633,2.255,8.762,3.76c1.56,0.569,2.307,0.655,2.894,0.662
			c1.247,0.014,1.749-0.332,2.713-0.1c1.008,0.242,1.228,0.804,2.211,1.507c1.713,1.225,4.173,1.757,6.23,1.206
			c1.195-0.32,2.135-0.974,2.613-1.306c1.034-0.72,1.025-1.003,1.809-1.608c1.462-1.127,2.294-0.756,5.828-2.211
			c0.85-0.35,1.475-0.649,1.909-1.306c0.558-0.846,0.479-1.799,0.703-1.809c0.316-0.014,0.45,1.882,0.904,1.909
			c0.347,0.02,0.737-1.056,0.904-1.809c0.252-1.129,0.101-1.967,0.301-2.01c0.249-0.054,0.539,1.224,1.005,1.206
			c0.336-0.013,0.604-0.691,0.703-1.105c0.202-0.846-0.123-1.345,0.1-1.507c0.386-0.281,1.532,1.09,2.01,0.804
			c0.316-0.189,0.205-1.022,0-1.608c-0.181-0.517-0.649-1.45-2.311-2.412c-1.636-0.946-3.061-1.129-5.426-1.407
			c-3.576-0.42-4.188,0.121-4.421,0.402c-0.421,0.508-0.451,1.191-0.402,1.708c-0.133-0.285-0.328-0.631-0.615-0.987
			c0,0-0.091-0.113-0.189-0.219c-0.459-0.501-5.63-3.288-10.551-0.804c-1.525,0.77-1.704,1.378-2.914,1.507
			c-1.806,0.192-2.803-1.014-4.622-2.01c-3.861-2.113-8.761-1.817-12.058-0.301c-1.48,0.68-2.57,1.575-3.316,2.311
			c-0.769-1.755-5.807-13.71,0.201-22.409c0.762-1.103,1.796-2.29,3.216-3.417L39.07,166.316c2.502-1.459,7.185-3.716,13.264-3.807
			c0.925-0.014,17.64,0.016,24.016,13.749c4.431,9.543,1.005,18.787,0.301,20.517l0.306-0.807c0.517,1.4,1.802,2.373,3.278,2.482
			c1.418,0.104,2.783-0.608,3.523-1.835c-0.064,0.095-1.368,1.974-3.523,1.835c-1.54-0.099-3.021-1.198-3.278-2.482
			c-0.163-0.816,0.258-1.257,0.748-2.476c0.76-1.892,0.797-3.45,0.862-6.192c0.059-2.495-0.241-4.382-0.324-4.878
			c-0.264-1.574-0.785-3.738-1.894-6.165c1.156-0.032,4.224-0.281,5.929-2.494c2.631-3.416,0.158-9.097-2.814-11.958
			c-0.943-0.908-3.158-3.04-6.23-2.814c-3.185,0.235-6.087,2.915-7.214,6.79c4.986,2.522,7.408,5.608,8.634,7.638
			c0.146,0.242,0.242,0.424,0.36,0.64c3.217,5.884,3.505,10.655,3.554,11.854c0.058,1.419,0.105,2.564-0.191,4.105
			c-0.707,3.676-2.575,5.479-1.726,6.756c0.62,0.933,1.937,0.451,2.713,1.608c0.571,0.851,0.229,1.906,0.201,2.814
			c-0.219,7.174-5.992,11.766-6.632,12.259c-2.754,2.122-5.611,2.96-7.537,3.316l-3.216-7.436c2.635,3.113,3.21,5.649,3.216,7.436
			c0.007,2.081-0.751,5.269-0.288,8.498c0.03,0.208,0.099,0.656,0.188,1.35c0,0,0.291,2.27,0.402,4.321
			c0.179,3.305,0.391,7.234-1.206,10.652c-3.368,7.207-13.031,8.394-13.465,8.441c-2.932,0.318-5.375-0.163-6.934-0.603
			l-3.769,2.124c0.355,0.645,0.957,1.521,1.96,2.197c0.925,0.623,1.304,0.513,2.211,1.005c1.357,0.736,2.399,2.189,2.713,3.718
			c0.066,0.32,0.537,2.613-0.804,3.718c-0.377,0.31-0.793,0.442-1.105,0.502c0.074-0.553,0.181-1.909-0.502-3.417
			c-0.675-1.49-1.747-2.301-2.211-2.613l-5.527,0.201c0.531,0.407,1.605,1.349,2.11,2.914c0.455,1.411,0.547,3.633-0.502,4.22
			c-0.177,0.099-0.543,0.239-2.211-0.301c-1.37-0.444-2.413-0.783-3.618-1.608c-2.226-1.525-3.244-3.508-3.919-4.823
			c-0.442-0.861-1.379-2.731-1.608-5.326c-0.195-2.217,0.156-3.921,0.301-4.522c0.435-1.798,1.161-3.158,1.708-4.02
			c-2.571-0.487-9.508-2.176-13.666-8.139c-3.954-5.67-4.086-13.325-4.12-15.274c-0.007-0.428-0.019-1.867-0.1-3.919
			c-0.135-3.417-0.203-5.126-0.502-7.034c-0.63-4.018-0.945-6.027-2.512-7.637c-1.511-1.552-2.426-0.989-5.225-3.417
			c-1.571-1.362-2.327-2.445-2.613-3.718c-0.114-0.511-0.444-1.98,0.402-2.814c0.327-0.322,0.727-0.448,1.005-0.502
			c1.617-0.026,4.111,0.162,6.733,1.407c5.253,2.494,7.442,7.534,8.24,9.446c2.861,6.856,0.391,10.692,2.311,23.514
			c0.277,1.85,0.815,5.019,3.316,7.537c1.662,1.673,3.576,2.44,4.823,2.814c-0.042,2.032,0.288,3.584,0.612,4.651
			c0.464,1.528,1.055,2.518,0.781,3.978c-0.161,0.857-0.47,1.077-0.88,2.054c-0.705,1.683-0.684,3.17-0.666,4.47
			c0.039,2.722,1.307,9.668,6.771,11.969c0.89,0.375,2.644,0.943,5.164,0.625c0.291,0.272,1.204,1.054,2.589,1.155
			c2.11,0.153,3.478-1.41,3.628-1.587c0.28-0.148,0.657-0.391,0.995-0.785c1.374-1.605,0.705-4.089,0.634-4.339
			c-1.116-3.925-6.773-4.648-6.49-6.357c0.146-0.885,1.772-1.346,2.774-1.631c0.318-0.09,2.041-0.553,3.87-0.028
			c0.261,0.075,0.516,0.168,0.994,0.274c1.676,0.37,2.265,0.051,2.413-0.037c0.299-0.178,0.247-0.274,0.43-0.339
			c0.897-0.318,2.056,2.033,3.505,2.949c1.17,0.74,3.224,0.985,7.107-0.963c1.738,0.393,3.142,0.609,4.056,0.825
			c4.748,1.121,5.506,1.855,5.828,2.211c1.424,1.573,1.827,4.283,0.804,5.326c-0.435,0.444-1.202,0.666-1.608,0.402
			c-0.431-0.28-0.292-1.007-0.387-2.319c-0.076-1.06-0.263-1.921-0.417-2.504l0.804,4.823c-0.202,0.351-1.046,1.722-2.814,2.311
			c-1.504,0.502-2.787,0.141-3.216,0c0.205-0.147,1.157-0.865,1.375-2.176c0.289-1.736-0.968-2.951-1.074-3.049
			c0.156,0.149,1.252,1.233,1.105,2.814c-0.133,1.436-1.197,2.251-1.407,2.412c-1.558,1.193-3.638,0.718-5.024,0.402
			c-3.688-0.842-5.803-3.316-6.833-4.522c-0.478-0.559-2.246-2.668-1.909-4.22c0.091-0.419,0.229-0.627,0.402-1.306
			c0.33-1.3,0.264-2.431,0.159-3.179c0.787,0.972,1.944,2.056,3.559,2.576c5.524,1.78,13.081-4.097,15.475-10.853
			c0.489-1.381,1.936-5.463,0-9.848c-1.496-3.387-4.198-5.115-5.293-5.735c-0.77-0.707-3.735-3.259-8.106-3.251
			c-6.791,0.013-10.459,6.195-10.617,6.474c0.822,1.282,3.328,5.552,2.512,11.054c-0.658,4.434-3.335,8.854-6.431,10.35
			c-0.635,0.307-4.111,1.986-7.637,0.502c-2.765-1.164-3.944-3.592-5.225-6.23c-0.839-1.727-3.07-6.494-1.708-12.159
			c0.709-2.949,2.139-5.09,2.914-6.23c1.282-1.885,2.645-3.246,3.688-4.155l3.145,5.663c-0.444-0.742-0.933-1.717-1.306-2.914
			c-0.567-1.816-0.642-3.416-0.603-4.522c3.961,3.591,8.259,5.122,10.853,3.618c0.434-0.252,0.889-0.628,1.306-1.206
			c0.104,0.826,0.357,3.685-1.507,6.23c-0.168,0.229-2.862,3.805-6.13,3.216c-0.301-0.054-1.567-0.317-3.015-1.909
			c-3.454-3.799-2.851-9.566-2.412-13.767c0.381-3.642,0.662-5.985,2.613-7.938c1.626-1.627,3.619-2.191,4.823-2.412"/>
	</g>
	<g>
		<path d="M42.077,265c-0.106,0-0.214-0.004-0.325-0.012c-1.096-0.08-1.935-0.544-2.468-0.949c-0.117,0.133-0.252,0.246-0.408,0.333
			c-0.305,0.17-0.779,0.305-2.55-0.268c-0.923-0.3-1.714-0.557-2.511-0.949c-3.917-1.677-5.795-5.675-6.552-8.992
			c-0.168-0.657-0.305-1.389-0.374-2.184c-0.048-0.545-0.065-1.061-0.059-1.54c-0.012-1.236,0.031-2.621,0.679-4.199
			c0.238-0.722,0.536-1.423,0.891-2.097c0.028-0.168,0.044-0.331,0.048-0.49c-3.62-0.8-9.458-2.869-13.141-8.15
			c-1.837-2.634-4.056-7.462-4.196-15.507l-0.003-0.247c-0.009-0.605-0.027-1.911-0.097-3.666c-0.134-3.393-0.202-5.097-0.497-6.985
			c-0.615-3.922-0.924-5.892-2.397-7.406c-0.647-0.664-1.174-0.908-1.842-1.216c-0.808-0.373-1.813-0.837-3.358-2.176
			c-1.643-1.426-2.439-2.569-2.749-3.946c-0.122-0.547-0.495-2.21,0.52-3.21c0.317-0.312,0.728-0.52,1.22-0.617
			c2.567-0.05,4.893,0.441,6.998,1.439c5.507,2.615,7.722,7.923,8.45,9.667c1.594,3.819,1.569,6.677,1.534,10.635
			c-0.028,3.2-0.063,7.183,0.805,12.98c0.234,1.56,0.72,4.806,3.197,7.3c1.161,1.169,2.614,2.044,4.324,2.605
			c0.066-0.778,0.19-1.582,0.388-2.405c0.74-3.082,2.25-5.303,2.976-6.37c1.024-1.506,2.237-2.885,3.605-4.101
			c-0.027-1.917,0.17-3.8,0.342-5.449c0.371-3.542,0.638-6.098,2.736-8.198c1.071-1.071,2.463-1.858,4.069-2.304
			c-0.676-0.329-1.317-0.657-1.906-0.957c-1.006-0.513-2.121-1.081-2.679-1.258c0.105,0.282,0.223,0.696-0.051,1.057
			c-0.417,0.553-1.424,0.499-2.067,0.106c-0.491-0.3-0.76-0.8-0.956-1.164c-0.046-0.085-0.112-0.211-0.175-0.365
			c-0.192,0.355-0.422,0.575-0.741,0.588c-0.651-0.016-1.016-0.878-1.311-1.727c-0.11-0.314-0.183-0.598-0.237-0.845
			c-0.169,0.351-0.39,0.654-0.769,0.662c-0.005,0-0.011,0-0.016,0c-0.824,0-1.157-1.542-1.215-1.853
			c-0.324-1.724,0.51-3.342,1.334-4.456c-1.092-2.468-1.851-5.066-2.254-7.726c-0.076-0.505-0.14-1.011-0.192-1.519
			c-0.183-1.615-0.241-3.329-0.083-5.065c0.003-0.051,0.007-0.102,0.011-0.153c-0.417-0.102-0.963-0.261-1.589-0.503
			c-2.007-0.778-4.718-2.363-6.236-5.494c-2.333-4.807-0.683-11.001,3.756-14.1c0.216-0.15,5.35-3.657,10.583-1.036
			c2.788,1.396,4.168,3.839,4.748,5.192c4.146-2.323,8.623-3.561,13.041-3.629c0.437,0.002,6.939-0.046,13.441,3.088
			c1.262-3.736,4.198-6.366,7.437-6.605c3.261-0.235,5.569,1.982,6.555,2.931c3.01,2.898,5.677,8.863,2.857,12.524
			c-1.5,1.948-3.961,2.493-5.624,2.626c1.501,3.461,2.018,6.851,2.026,9.863c0.032,0.892,0.037,1.738-0.082,2.701
			c-0.075,1.652-0.241,2.92-0.798,4.345c-0.241,0.95-0.497,1.763-0.725,2.406c0.19,0.452,0.471,0.848,0.818,1.17
			c0.422,0.126,0.891,0.31,1.281,0.747c0.242,0.076,0.494,0.125,0.753,0.144c1.924,0.129,3.092-1.575,3.141-1.648
			c0.129-0.191,0.386-0.244,0.581-0.12c0.194,0.124,0.254,0.38,0.134,0.578c-0.829,1.374-2.345,2.15-3.917,2.038
			c-0.058-0.004-0.115-0.009-0.173-0.015c0.142,0.564,0.076,1.147,0.016,1.679c-0.026,0.229-0.051,0.455-0.058,0.671
			c-0.217,7.152-5.701,11.737-6.798,12.583c-2.143,1.652-4.623,2.771-7.376,3.331c-0.022,0.664-0.1,1.418-0.183,2.209
			c-0.187,1.789-0.399,3.818-0.105,5.876l0.022,0.156c0.018,0.122,0.042,0.282,0.07,0.481c1.452,0.855,3.898,2.676,5.289,5.827
			c2.004,4.538,0.505,8.77,0.012,10.161c-1.356,3.827-4.493,7.593-8.057,9.713c0.502,0.103,0.966,0.192,1.389,0.271
			c0.605,0.116,1.124,0.215,1.541,0.314c4.998,1.18,5.705,1.963,6.046,2.339c1.595,1.761,1.988,4.689,0.793,5.908
			c-0.427,0.437-1.14,0.727-1.733,0.62c-0.433,0.645-1.336,1.691-2.858,2.199c-1.358,0.452-2.568,0.264-3.273,0.065
			c-1.688,1.149-3.79,0.671-5.196,0.348c-3.828-0.873-6.012-3.431-7.061-4.66c-1.091-1.276-2.322-3.107-2.002-4.586
			c0.047-0.22,0.106-0.387,0.176-0.582c0.066-0.186,0.144-0.401,0.23-0.74c0.212-0.834,0.278-1.705,0.198-2.593
			c-0.019,0.002-0.032,0.004-0.042,0.005c-0.116,0.012-0.233,0.024-0.351,0.035c-0.554,0.276-1.443,0.292-2.58,0.045
			c-1.131-0.06-2.263-0.225-3.389-0.495c-0.139,0.012-0.27,0.027-0.392,0.044c-0.514,0.422-1.047,0.772-1.59,1.034
			c-0.465,0.225-1.061,0.476-1.752,0.687c0.212,0.39,1.003,0.839,1.833,1.309c1.638,0.929,3.878,2.197,4.58,4.568
			c0.079,0.231,0.144,0.466,0.193,0.705c0.175,0.857,0.432,2.959-0.922,4.108c-0.284,0.324-0.627,0.6-1.023,0.818
			C45.323,263.714,44.024,265,42.077,265z M39.703,263.289c0.431,0.347,1.152,0.782,2.111,0.852c1.561,0.12,2.684-0.836,3.105-1.257
			c-0.037-0.075-0.051-0.16-0.04-0.246c0.083-0.618,0.134-1.855-0.468-3.184c-0.534-1.178-1.334-1.924-1.95-2.358l-4.334,0.158
			c0.56,0.585,1.119,1.376,1.447,2.397C39.915,260.706,40.072,262.218,39.703,263.289z M51.999,251.157
			c0.002,0.714-0.085,1.415-0.257,2.096c-0.095,0.373-0.179,0.612-0.253,0.817c-0.057,0.16-0.107,0.296-0.146,0.476
			c-0.189,0.876,0.473,2.281,1.818,3.854c0.991,1.16,3.052,3.573,6.605,4.384c1.303,0.297,3.271,0.749,4.671-0.325
			c0-0.001,0-0.001,0.001-0.001c0.367-0.281,0.959-0.849,1.173-1.711c0.016-0.064,0.029-0.13,0.041-0.198
			c0.15-0.902-0.182-1.647-0.495-2.121c-0.193-0.29-0.381-0.482-0.454-0.553c-0.168-0.163-0.174-0.43-0.013-0.599
			c0.163-0.17,0.43-0.178,0.6-0.016c0.014,0.013,0.037,0.036,0.069,0.069c0.385,0.392,1.314,1.514,1.167,3.092
			c-0.018,0.197-0.051,0.383-0.096,0.559c-0.174,0.691-0.522,1.218-0.854,1.589c0.587,0.091,1.363,0.102,2.202-0.178
			c1.282-0.427,2.047-1.311,2.415-1.858c-0.208-0.339-0.222-0.814-0.237-1.413c-0.007-0.263-0.015-0.565-0.039-0.907l-0.414-2.484
			c-0.037-0.223,0.108-0.437,0.329-0.486c0.224-0.044,0.442,0.087,0.5,0.307c0.221,0.834,0.365,1.696,0.429,2.561l0.343,2.057
			c0.252,0.007,0.651-0.105,0.925-0.385c0.79-0.806,0.536-3.251-0.816-4.743c-0.237-0.264-0.87-0.963-5.611-2.082
			c-0.408-0.096-0.914-0.193-1.505-0.305c-0.69-0.131-1.493-0.285-2.387-0.484c-0.123,0.06-0.247,0.117-0.37,0.172
			c-3.129,1.483-5.433,1.712-7.031,0.701c-0.363-0.23-0.704-0.536-1.024-0.866C52.837,251.891,52.408,251.55,51.999,251.157z
			 M34.163,262.379c0.012,0.005,0.022,0.009,0.034,0.014c1.413,0.595,2.997,0.804,4.706,0.622c0.27-0.779,0.198-2.068-0.136-3.105
			c-0.426-1.32-1.303-2.2-1.965-2.707c-0.143-0.11-0.201-0.296-0.147-0.466c0.055-0.171,0.211-0.29,0.389-0.296l5.527-0.201
			c0.102-0.007,0.178,0.022,0.252,0.072c0.719,0.482,1.712,1.358,2.361,2.79c0.507,1.118,0.621,2.17,0.592,2.991
			c0.12-0.059,0.23-0.128,0.33-0.207c1.188-1.426,0.596-3.666,0.525-3.918c-0.001-0.002-0.002-0.003-0.002-0.004
			c-0.411-1.191-1.282-2.264-2.336-2.835c-0.364-0.197-0.627-0.286-0.907-0.381c-0.378-0.129-0.769-0.261-1.339-0.644
			c-0.766-0.516-1.414-1.209-1.932-2.063c-1.551,0.336-3.431,0.388-5.331-0.411c-2.911-1.225-4.14-3.755-5.441-6.433
			c-0.061-0.127-0.133-0.275-0.212-0.442c-0.107,0.368-0.248,0.628-0.405,0.919c-0.12,0.222-0.258,0.474-0.409,0.836
			c-0.003,0.008-0.007,0.017-0.011,0.026c-0.105,0.323-0.198,0.652-0.279,0.984c-0.115,0.471-0.334,1.555-0.347,2.983
			c0.001,0.103,0.002,0.206,0.004,0.306c0.012,0.833,0.124,1.909,0.382,3.077c0.379,1.529,0.945,2.629,1.232,3.188
			c0.655,1.276,1.643,3.202,3.781,4.668C33.452,261.996,33.807,262.202,34.163,262.379z M53.825,251.512
			c0.433,0.268,0.886,0.478,1.353,0.629c5.407,1.743,12.739-4.367,14.945-10.591c0.466-1.312,1.879-5.304,0.012-9.534
			c-1.129-2.555-3.007-4.176-4.371-5.08c0.087,0.733,0.276,2.428,0.359,3.981c0.177,3.273,0.397,7.341-1.245,10.855
			c-2.698,5.775-9.211,7.782-12.231,8.417c0.165,0.178,0.333,0.373,0.506,0.574C53.367,251.007,53.592,251.267,53.825,251.512z
			 M29.607,243.748c0.194,0.445,0.37,0.807,0.5,1.074c1.284,2.643,2.392,4.923,5.008,6.025c1.799,0.757,3.59,0.662,5.044,0.313
			l0.061-0.035c0.408-0.925,1.895-1.359,2.937-1.656l0.729-0.41c0.099-0.056,0.217-0.07,0.324-0.039
			c0.022,0.007,0.043,0.012,0.065,0.018c2.117-1.968,3.815-5.289,4.323-8.715c0.669-4.508-0.925-8.204-2.14-10.259
			c-0.915,1.054-3.317,3.412-6.158,2.901c-0.623-0.112-1.876-0.526-3.254-2.042c-1.937-2.131-2.648-4.825-2.82-7.53
			c-1.104,1.048-2.092,2.21-2.946,3.464c-0.697,1.026-2.148,3.16-2.852,6.091c-0.645,2.682-0.465,5.153-0.018,7.173
			c0.007,0.022,0.014,0.046,0.021,0.068c0.107,0.354,0.222,0.679,0.33,0.988c0.206,0.584,0.396,1.125,0.486,1.7
			c0.011,0.027,0.021,0.055,0.032,0.082c0.041,0.007,0.082,0.016,0.122,0.023c0.139,0.027,0.255,0.12,0.311,0.249
			c0.056,0.129,0.044,0.277-0.032,0.397C29.657,243.669,29.632,243.708,29.607,243.748z M48.257,249.69
			c0.735,0.037,1.47,0.027,2.201-0.031c0.04-0.03,0.061-0.054,0.085-0.082c0.061-0.07,0.153-0.175,0.348-0.244
			c0.325-0.117,0.638-0.046,0.947,0.142c2.46-0.456,9.556-2.25,12.271-8.063c1.551-3.321,1.347-7.106,1.167-10.447
			c-0.11-2.012-0.396-4.269-0.399-4.292c-0.016-0.125-0.032-0.243-0.046-0.352c-1.111-0.991-3.867-3.038-7.686-3.038
			c-0.007,0-0.013,0-0.02,0c-5.3,0.01-8.608,3.883-9.778,5.536c-0.101,0.176-0.212,0.352-0.33,0.526
			c1.293,2.093,3.161,6.124,2.422,11.103c-0.494,3.332-2.074,6.58-4.097,8.717c0.599,0.007,1.281,0.064,1.97,0.262l0.209,0.063
			C47.71,249.55,47.928,249.617,48.257,249.69z M2.255,191.369c-0.086,0-0.172,0-0.258,0.002c-0.251,0.056-0.516,0.187-0.713,0.381
			c-0.678,0.668-0.383,1.984-0.286,2.418c0.265,1.183,0.983,2.194,2.476,3.489c1.454,1.262,2.359,1.679,3.157,2.048
			c0.718,0.331,1.338,0.617,2.095,1.394c1.662,1.707,1.984,3.766,2.628,7.867c0.303,1.937,0.371,3.657,0.507,7.083
			c0.07,1.765,0.088,3.079,0.097,3.688l0.003,0.241c0.137,7.833,2.274,12.502,4.044,15.038c3.409,4.889,8.783,6.906,12.286,7.73
			c-0.256-0.71-0.509-1.528-0.71-2.435c-0.399-1.359-0.599-2.816-0.596-4.337c-1.853-0.603-3.433-1.553-4.697-2.825
			c-2.673-2.692-3.188-6.124-3.434-7.774c-0.879-5.865-0.843-9.884-0.815-13.114c0.034-3.856,0.058-6.642-1.468-10.3
			c-0.697-1.669-2.817-6.75-8.031-9.225C6.628,191.828,4.514,191.369,2.255,191.369z M35.17,224.331
			c0.265,2.203,0.964,4.327,2.507,6.022c1.253,1.379,2.358,1.701,2.775,1.776c2.974,0.539,5.474-2.728,5.699-3.03
			c0.05-0.085,0.204-0.342,0.461-0.707c0.883-1.543,1.061-3.147,1.047-4.255c-0.23,0.207-0.476,0.388-0.738,0.539
			c-2.552,1.483-6.666,0.28-10.641-3.052c0.038,1.179,0.234,2.34,0.585,3.462c0.221,0.708,0.503,1.398,0.842,2.059l0.431,0.775
			c0.112,0.203,0.041,0.459-0.159,0.574c-0.203,0.116-0.458,0.049-0.577-0.149c-0.157-0.261-0.305-0.529-0.445-0.799L35.17,224.331z
			 M48.013,222.678c0.035,0,0.071,0.004,0.105,0.013c0.169,0.043,0.295,0.186,0.316,0.359c0.099,0.789,0.15,1.998-0.149,3.341
			c1.821-1.847,4.783-3.948,8.837-3.957c0.007,0,0.015,0,0.022,0c3.42,0,6.041,1.521,7.51,2.642
			c-0.258-2.078-0.041-4.152,0.135-5.832c0.091-0.874,0.178-1.702,0.183-2.385l-3.057-7.069c-0.484,0.336-1.478,1.026-2.74,1.364
			c-2.128,0.569-4.713,0.071-6.587-1.272c-0.363-0.259-0.623-0.497-0.853-0.707c-0.397-0.361-0.658-0.6-1.209-0.732
			c-0.48-0.115-0.816-0.066-1.282,0.003c-0.364,0.054-0.779,0.102-1.337,0.109c-0.616-0.007-1.409-0.095-3.034-0.687
			c-0.779-0.284-1.558-0.613-2.313-0.958c-0.031,0.014-0.063,0.024-0.098,0.031c-1.848,0.339-3.439,1.131-4.599,2.293
			c-1.8,1.803-2.092,3.874-2.491,7.682c-0.172,1.643-0.369,3.526-0.334,5.428l0.546,0.984c-0.135-0.872-0.187-1.759-0.155-2.652
			c0.007-0.166,0.107-0.312,0.26-0.377c0.152-0.065,0.328-0.034,0.451,0.077c3.912,3.546,7.975,4.942,10.353,3.564
			c0.444-0.256,0.839-0.622,1.175-1.086C47.75,222.742,47.879,222.678,48.013,222.678z M62.642,209.221
			c1.958,2.362,3.02,4.725,3.165,7.036c2.562-0.544,4.87-1.599,6.868-3.138c0.64-0.493,6.257-5.023,6.467-11.936
			c0.007-0.239,0.035-0.488,0.064-0.741c0.076-0.675,0.148-1.313-0.192-1.821c-0.261-0.095-0.51-0.212-0.744-0.35
			c0.089,0.265,0.517,1.658-0.193,2.084c-0.476,0.288-1.04-0.097-1.534-0.439c-0.09-0.062-0.212-0.146-0.323-0.215
			c0.027,0.266,0.05,0.637-0.059,1.091c-0.079,0.329-0.39,1.405-1.101,1.432c-0.339-0.014-0.577-0.204-0.764-0.478
			c-0.025,0.28-0.066,0.6-0.144,0.949c-0.183,0.818-0.568,2.167-1.345,2.141c-0.472-0.027-0.671-0.52-0.838-1.105
			c-0.087,0.259-0.208,0.539-0.389,0.814c-0.502,0.762-1.218,1.101-2.102,1.465c-1.618,0.666-2.698,0.961-3.488,1.176
			c-0.971,0.265-1.506,0.411-2.243,0.979c-0.316,0.244-0.492,0.43-0.677,0.627C62.944,208.928,62.814,209.065,62.642,209.221z
			 M49.966,207.525c0.232,0,0.479,0.024,0.759,0.091c0.764,0.183,1.144,0.53,1.584,0.931c0.223,0.203,0.453,0.413,0.775,0.644
			c1.651,1.181,4.01,1.64,5.873,1.14c1.123-0.3,2.004-0.914,2.478-1.243c0.548-0.381,0.775-0.623,1.017-0.88
			c0.201-0.212,0.408-0.432,0.778-0.717c0.869-0.671,1.533-0.852,2.538-1.125c0.81-0.221,1.818-0.495,3.387-1.141
			c0.796-0.329,1.345-0.585,1.716-1.148c0.271-0.411,0.371-0.868,0.444-1.202c0.081-0.364,0.171-0.779,0.595-0.798
			c0.457-0.015,0.623,0.489,0.798,1.135c0.042,0.158,0.108,0.399,0.173,0.584c0.14-0.266,0.319-0.736,0.442-1.286
			c0.117-0.525,0.142-0.993,0.16-1.334c0.026-0.488,0.047-0.91,0.466-1c0.42-0.088,0.638,0.322,0.825,0.688
			c0.061,0.118,0.172,0.336,0.26,0.454c0.094-0.129,0.222-0.401,0.3-0.725c0.09-0.373,0.056-0.666,0.029-0.902
			c-0.032-0.279-0.071-0.627,0.234-0.849c0.43-0.312,0.938,0.036,1.428,0.373c0.161,0.11,0.437,0.3,0.598,0.366
			c0.03-0.192-0.011-0.617-0.165-1.06c-0.118-0.335-0.312-0.66-0.583-0.972c-0.212-0.124-0.409-0.292-0.572-0.535
			c-0.002-0.003-0.005-0.007-0.007-0.011c-0.006-0.007-0.011-0.016-0.016-0.024c-0.273-0.222-0.588-0.436-0.945-0.642
			c-1.522-0.88-2.852-1.069-5.264-1.352c-1.594-0.188-3.59-0.296-4.044,0.251c-0.261,0.316-0.364,0.785-0.305,1.396
			c0.02,0.206-0.111,0.396-0.311,0.451c-0.2,0.052-0.408-0.042-0.496-0.229c-0.154-0.326-0.342-0.629-0.562-0.901
			c-0.002-0.003-0.084-0.103-0.17-0.198c-0.318-0.33-5.252-3.136-10.047-0.713c-0.576,0.29-0.946,0.554-1.272,0.787
			c-0.53,0.377-0.947,0.674-1.789,0.764c-1.446,0.154-2.412-0.484-3.526-1.223c-0.417-0.277-0.85-0.564-1.346-0.836
			c-3.878-2.122-8.66-1.675-11.676-0.289c-1.155,0.531-2.224,1.274-3.176,2.209c-0.757,0.977-1.59,2.45-1.307,3.96
			c0.083,0.441,0.243,0.84,0.366,1.046c0.062-0.12,0.129-0.279,0.172-0.383c0.177-0.425,0.347-0.863,0.808-0.806
			c0.413,0.054,0.488,0.463,0.569,0.896c0.055,0.295,0.129,0.698,0.29,1.157c0.225,0.644,0.38,0.94,0.475,1.075
			c0.174-0.292,0.375-0.993,0.448-1.249c0.139-0.486,0.258-0.871,0.677-0.764c0.385,0.095,0.336,0.486,0.315,0.654
			c-0.034,0.276-0.097,0.789,0.095,1.313c0.056,0.154,0.124,0.279,0.165,0.356c0.159,0.295,0.356,0.661,0.651,0.842
			c0.378,0.232,0.876,0.193,0.947,0.106c0.008-0.048-0.061-0.229-0.099-0.326c-0.098-0.252-0.231-0.598,0.007-0.891
			c0.461-0.566,1.462-0.06,3.884,1.175c1.542,0.786,3.462,1.765,5.353,2.454c1.506,0.549,2.214,0.63,2.754,0.636
			c0.495,0.001,0.853-0.048,1.203-0.1C49.399,207.565,49.67,207.525,49.966,207.525z M40.181,192.228
			c2.15,0,4.403,0.452,6.429,1.561c0.528,0.289,0.996,0.599,1.408,0.873c1.057,0.701,1.823,1.21,2.966,1.086
			c0.619-0.066,0.908-0.271,1.385-0.611c0.334-0.238,0.749-0.534,1.382-0.853c5.07-2.559,10.454,0.24,11.055,0.896
			c0.076,0.083,0.149,0.169,0.184,0.212c0.086-0.262,0.213-0.495,0.382-0.699c0.417-0.503,1.312-0.963,4.798-0.553
			c2.315,0.272,3.844,0.452,5.589,1.462c0.092,0.053,0.182,0.107,0.269,0.161c0.071-0.603,0.357-1.272,0.681-2.031
			c0.383-0.896,0.851-1.991,1.16-3.36c0.211-1.513,0.326-3.223,0.241-5.051c-0.169-2.282-0.871-6.309-3.468-11.059l-0.066-0.122
			c-0.088-0.162-0.17-0.313-0.285-0.502c-0.744-1.232-1.651-2.376-2.716-3.429c-0.694-0.678-1.418-1.293-2.162-1.851
			c-1.081-0.804-2.277-1.539-3.584-2.199c-0.032-0.017-0.061-0.037-0.087-0.059c-6.417-3.214-12.972-3.18-13.402-3.168
			c-4.447,0.067-8.96,1.362-13.05,3.745c-0.002,0.002-0.005,0.003-0.007,0.005l-4.557,3.984c-1.237,0.982-2.291,2.101-3.146,3.337
			c-1.657,2.4-2.448,5.074-2.712,7.715c-0.13,1.801-0.094,3.613,0.107,5.405c0.468,3.699,1.598,6.827,2.208,8.32
			c0.911-0.816,1.913-1.477,2.985-1.97C35.809,192.721,37.938,192.228,40.181,192.228z M30.394,160.399
			c-3.24,0-5.807,1.754-5.953,1.855c-4.106,2.866-5.633,8.59-3.478,13.031c1.398,2.883,3.913,4.349,5.777,5.073
			c0.539,0.208,1.013,0.349,1.386,0.445c0.351-2.497,1.181-5.002,2.756-7.281c0.903-1.306,2.014-2.487,3.302-3.507l4.381-3.822
			c-0.493-1.205-1.757-3.583-4.408-4.911C32.87,160.636,31.586,160.399,30.394,160.399z M72.232,169.664
			c1.689,1.662,3.2,3.688,4.383,6.158c1.495-0.077,3.928-0.5,5.328-2.317c2.517-3.269,0.008-8.717-2.771-11.393
			c-0.905-0.871-3.033-2.919-5.904-2.696c-2.931,0.216-5.601,2.667-6.732,6.142c0.984,0.514,1.963,1.104,2.915,1.78
			C70.47,168.055,71.398,168.832,72.232,169.664z"/>
	</g>
</g>
<g>
	<g>
		<path fill="#FFFFFF" d="M122.432,241.158c-0.829-8.847-2.318-22.948-4.929-40.325c-4.121-27.428-6.083-30.043-4.778-39.734
			c3.076-22.836,14.669-26.164,14.178-43.929c-0.262-9.465-5.457-17.975-8.562-26.92c-3.105-8.945-3.492-20.352,3.817-26.372
			l-0.603,0.462c4.818-1.186,10.125-0.214,14.211,2.602c3.073,2.118,5.383,5.142,8.03,7.773l0,0
			c-2.328,5.18-2.805,6.417-2.805,6.418c-0.637,1.652-1.418,3.979-2.037,6.916c0.346-1.884,0.976-4.44,2.198-7.302
			c0.584-1.367,2.29-5.285,5.354-8.678c5.366-5.943,12.549-7.673,15.645-8.223l-0.118,0.034c7.308,6.02,6.921,17.427,3.817,26.372
			c-3.105,8.945-8.3,17.456-8.562,26.92c-0.491,17.766,11.101,21.093,14.178,43.929c1.306,9.691-0.657,12.306-4.778,39.734
			c-2.611,17.377-4.1,31.478-4.929,40.325"/>
	</g>
	<g>
		<path d="M162.183,241.198l-0.847-0.08c1.242-13.26,2.901-26.836,4.932-40.349c1.366-9.093,2.511-15.549,3.346-20.263
			c1.716-9.678,2.294-12.937,1.43-19.352c-1.496-11.106-5.048-17.614-8.18-23.355c-3.356-6.151-6.256-11.463-6.002-20.642
			c0.186-6.717,2.857-13.031,5.441-19.136c1.092-2.583,2.222-5.253,3.145-7.912c2.965-8.543,3.575-19.773-3.547-25.789
			c-4.38,0.824-10.439,2.889-15.081,8.03c-2.044,2.264-3.82,5.144-5.278,8.56c-0.043,0.1-0.085,0.202-0.128,0.303
			c-0.018,0.046-0.027,0.068-0.027,0.07c-0.841,2.179-1.519,4.483-2.018,6.851l-0.834-0.165c0.446-2.424,1.148-4.799,2.088-7.066
			c0.129-0.325,0.729-1.785,2.664-6.097c-0.74-0.745-1.46-1.525-2.16-2.28c-1.724-1.863-3.506-3.79-5.605-5.236
			c-3.928-2.71-9.024-3.668-13.671-2.587c-6.659,6.101-6.013,17.042-3.11,25.406c0.923,2.659,2.053,5.329,3.145,7.912
			c2.584,6.105,5.255,12.419,5.441,19.136c0.254,9.18-2.645,14.491-6.002,20.642c-3.132,5.741-6.684,12.249-8.18,23.355
			c-0.864,6.415-0.286,9.674,1.43,19.352c0.836,4.714,1.98,11.17,3.346,20.263c2.031,13.513,3.69,27.089,4.932,40.349l-0.847,0.08
			c-1.24-13.245-2.897-26.804-4.925-40.302c-1.364-9.082-2.508-15.531-3.343-20.241c-1.733-9.775-2.317-13.068-1.435-19.613
			c1.517-11.262,5.108-17.843,8.277-23.649c3.297-6.042,6.144-11.261,5.897-20.212c-0.181-6.557-2.82-12.796-5.373-18.828
			c-1.097-2.595-2.233-5.279-3.166-7.964c-2.84-8.183-3.551-18.785,2.331-25.296l-0.587,0.144l2.216-1.697l0.193,0.242
			c4.756-0.981,9.912,0.051,13.914,2.809c2.176,1.501,3.991,3.462,5.746,5.358c0.759,0.82,1.543,1.668,2.343,2.463l0.011,0.011
			c0.66-0.953,1.355-1.835,2.083-2.642c4.919-5.447,11.354-7.55,15.886-8.356l0.072,0.312l0.155-0.188
			c7.604,6.264,7.025,17.972,3.948,26.84c-0.933,2.686-2.068,5.369-3.166,7.964c-2.553,6.032-5.192,12.271-5.373,18.828
			c-0.247,8.95,2.6,14.169,5.897,20.212c3.169,5.807,6.759,12.387,8.277,23.649c0.882,6.545,0.298,9.839-1.435,19.613
			c-0.835,4.709-1.979,11.158-3.343,20.241C165.08,214.394,163.423,227.953,162.183,241.198z"/>
	</g>
</g>
<g>
	<g>
		<path d="M161.832,63.865c-0.29-5.781,1.292-11.632,4.457-16.477l0.712,0.465c-3.068,4.695-4.601,10.366-4.321,15.969
			L161.832,63.865z"/>
	</g>
</g>
<g>
	<g>
		<path d="M122.286,63.865l-0.848-0.043c0.281-5.602-1.253-11.273-4.321-15.969l0.712-0.465
			C120.994,52.234,122.577,58.085,122.286,63.865z"/>
	</g>
</g>
<g>
	<g>
		<g>
			<path d="M140.961,20.078c-0.5,0-0.745-0.071-0.796-0.403c-0.05-0.385,0.22-0.508,0.774-0.623
				c-0.447-2.162-0.892-4.757,0.185-7.065c0.553-1.184,1.457-2.18,2.333-3.143c0.416-0.457,0.846-0.931,1.225-1.412
				c0.637-0.81,2.019-2.883,1.062-4.64c-0.881-1.621-3.277-2.114-5.141-1.892c-1.71,0.207-3.255,0.911-4.241,1.934
				c-1.049,1.087-1.457,2.594-1.041,3.838l-0.807,0.269c-0.523-1.564-0.05-3.363,1.235-4.696c1.136-1.179,2.824-1.955,4.752-2.188
				c2.131-0.257,4.918,0.361,5.989,2.329c0.842,1.55,0.427,3.581-1.142,5.573c-0.398,0.504-0.837,0.989-1.263,1.457
				c-0.871,0.958-1.694,1.863-2.192,2.931c-1.029,2.203-0.478,4.837-0.036,6.954l0.09,0.427l-0.429,0.079c-0.001,0-0.002,0-0.002,0
				l0.01,0.256C141.31,20.07,141.122,20.078,140.961,20.078z"/>
		</g>
	</g>
	<g>
		<g>
			<path d="M98.097,35.334l-0.327-0.784c14.168-5.918,28.745-11.472,43.327-16.509l0.042,0.124l0.46-0.088l0.123,0.647l-0.348,0.12
				C126.809,23.876,112.249,29.424,98.097,35.334z"/>
		</g>
	</g>
	<g>
		<g>
			<path d="M185.427,34.477c-14.896-4.606-29.769-9.814-44.205-15.481l-0.136-0.054l-0.215-0.362l0.729-0.437l0.068,0.114
				c14.374,5.639,29.18,10.822,44.01,15.408L185.427,34.477z"/>
		</g>
	</g>
	<g>
		<g>
			<path d="M170.755,41.61c-4.39,0-8.762-0.1-13.059-0.198l-57.454-1.304c-1.316-0.03-2.809-0.064-4.132-0.632
				c-1.25-0.538-2.536-1.82-2.403-3.365c0.067-0.78,0.598-1.522,1.384-1.937c0.73-0.385,1.513-0.401,2.145-0.043l-0.417,0.74
				c-0.378-0.212-0.862-0.193-1.331,0.055c-0.525,0.276-0.891,0.771-0.934,1.258c-0.096,1.125,0.913,2.09,1.892,2.511
				c1.173,0.503,2.577,0.535,3.817,0.563l57.454,1.304c8.277,0.189,16.834,0.383,25.24-0.141c1.596-0.1,3.136-0.24,4.443-0.862
				c1.167-0.557,2.313-1.723,2.243-3.073c-0.032-0.609-0.421-1.233-1.014-1.627c-0.539-0.359-1.149-0.457-1.667-0.269l-0.289-0.8
				c0.777-0.281,1.66-0.149,2.426,0.361c0.813,0.54,1.346,1.418,1.392,2.29c0.09,1.743-1.304,3.207-2.726,3.885
				c-1.443,0.688-3.073,0.839-4.755,0.944C178.94,41.523,174.839,41.61,170.755,41.61z"/>
		</g>
	</g>
	<g>
		<g>
			<path d="M140.852,30.139c-3.397,0-6.161-2.458-6.161-5.48c0-3.021,2.764-5.48,6.161-5.48c3.397,0,6.161,2.458,6.161,5.48
				C147.013,27.68,144.249,30.139,140.852,30.139z M140.852,20.029c-2.928,0-5.311,2.077-5.311,4.63s2.383,4.63,5.311,4.63
				s5.311-2.077,5.311-4.63S143.78,20.029,140.852,20.029z"/>
		</g>
	</g>
	<g>
		<g>
			<path d="M103.411,40.242c-1.347-0.705-2.345-1.911-2.668-3.227c-0.327-1.329,0.026-2.785,0.945-3.895l0.654,0.541
				c-0.748,0.904-1.037,2.082-0.774,3.151c0.266,1.082,1.103,2.083,2.237,2.676L103.411,40.242z"/>
		</g>
	</g>
	<g>
		<g>
			<path d="M181.007,41.23l-0.362-0.769c1.374-0.646,2.429-1.787,2.822-3.054c0.388-1.252,0.139-2.659-0.67-3.766l0.687-0.501
				c0.965,1.323,1.262,3.012,0.794,4.519C183.809,39.172,182.616,40.474,181.007,41.23z"/>
		</g>
	</g>
</g>
<g>
	<g>
		<path d="M101.504,55.136c-0.471,0-1.343-0.653-2.942-7.875c-0.092-0.415-2.238-10.174-0.634-10.738l0,0
			c0.123-0.044,0.315-0.067,0.547,0.059c1.007,0.544,2.545,4.328,3.296,7.382c1.087,4.424,1.103,9.642,0.354,10.81
			c-0.124,0.193-0.281,0.31-0.465,0.344C101.612,55.126,101.561,55.136,101.504,55.136z M98.228,37.462
			c-0.232,1.05,0.188,5.218,1.164,9.615c0.759,3.426,1.623,6.287,2.113,7.052c0.403-1.082,0.538-5.498-0.559-9.963
			C100.133,40.863,98.82,38.114,98.228,37.462z"/>
	</g>
</g>
<g>
	<g>
		<path d="M182.55,55.136c-0.056,0-0.108-0.01-0.153-0.018c-0.185-0.035-0.341-0.151-0.466-0.344
			c-0.75-1.169-0.735-6.387,0.354-10.81c0.751-3.054,2.289-6.837,3.296-7.382c0.232-0.125,0.424-0.102,0.547-0.059l0,0
			c1.603,0.564-0.542,10.323-0.634,10.738C183.887,54.484,183.018,55.136,182.55,55.136z M185.828,37.462
			c-0.592,0.652-1.905,3.401-2.717,6.705c-1.098,4.464-0.964,8.878-0.56,9.962c0.487-0.765,1.351-3.625,2.114-7.051
			C185.639,42.679,186.059,38.511,185.828,37.462z"/>
	</g>
</g>
<g>
	<g>
		<rect x="120.506" y="240.733" width="39.328" height="0.85"/>
	</g>
</g>
<g>
	<g>
		<path d="M48.013,223.528c-0.162,0-0.317-0.093-0.388-0.251c-0.096-0.214-0.001-0.466,0.213-0.562
			c2.414-1.085,4.006-2.977,3.871-4.602c-0.092-1.107-0.989-2.336-1.327-2.799c-0.61-0.838-0.889-1.221-1.44-1.472
			c-0.142-0.064-0.281-0.111-0.408-0.154c-0.359-0.123-0.766-0.262-0.921-0.691c-0.213-0.59,0.259-1.161,0.461-1.405
			c0.679-0.822,1.403-2.075,2.165-3.74c0.099-0.213,0.351-0.305,0.564-0.21c0.213,0.098,0.307,0.35,0.21,0.564
			c-0.804,1.757-1.546,3.036-2.269,3.912c-0.353,0.426-0.342,0.559-0.331,0.59c0.017,0.046,0.274,0.134,0.398,0.176
			c0.151,0.051,0.316,0.109,0.485,0.185c0.754,0.343,1.139,0.87,1.775,1.745c0.412,0.563,1.375,1.883,1.486,3.229
			c0.168,2.009-1.589,4.198-4.369,5.447C48.131,223.516,48.071,223.528,48.013,223.528z"/>
	</g>
</g>
<g>
	<g>
		<path d="M29.546,177.373c-0.042,0-0.085-0.006-0.128-0.02c-0.513-0.161-3.122-1.104-4.113-3.848
			c-0.661-1.828-0.603-4.356,1.013-5.88c2.127-2.005,5.536-1.109,7.276,0.168c0.685,0.503,1.256,1.153,1.697,1.932
			c0.115,0.204,0.043,0.463-0.161,0.579c-0.203,0.114-0.462,0.044-0.579-0.161c-0.381-0.674-0.872-1.234-1.46-1.665
			c-1.461-1.072-4.437-1.888-6.19-0.234c-1.336,1.259-1.363,3.405-0.796,4.972c0.855,2.367,3.122,3.186,3.569,3.327
			c0.223,0.07,0.348,0.309,0.277,0.533C29.895,177.257,29.727,177.373,29.546,177.373z"/>
	</g>
</g>
<g>
	<g>
		<path d="M74.806,173.817l-0.3-0.795c0.778-0.294,1.442-0.739,1.974-1.322c1.16-1.274,1.587-2.592,1.235-3.813
			c-0.321-1.115-1.208-2.019-2.257-2.304c-1.695-0.456-3.645,0.688-4.441,2.614l-0.785-0.324c0.955-2.316,3.35-3.678,5.449-3.111
			c1.33,0.361,2.449,1.495,2.851,2.888c0.305,1.06,0.306,2.721-1.423,4.62C76.484,172.956,75.71,173.476,74.806,173.817z"/>
	</g>
</g>
<g>
	<g>
		<path d="M28.921,182.003c0.293-0.239,0.568-0.239,2.412-0.201c1.943,0.04,2.92,0.06,3.216,0.1
			c1.086,0.148,3.427,0.605,3.417,1.105c-0.01,0.455-1.954,0.326-5.024,1.407c-2.447,0.862-3.203,1.645-3.919,1.206
			C28.069,185.036,27.978,182.773,28.921,182.003z"/>
	</g>
	<g>
		<path d="M29.455,186.172c-0.225,0-0.439-0.056-0.656-0.188c-0.539-0.331-0.897-1.062-0.957-1.955
			c-0.052-0.776,0.133-1.802,0.81-2.355l0,0c0.422-0.344,0.764-0.338,2.689-0.296c2.029,0.041,2.946,0.061,3.265,0.105
			c2.525,0.344,3.797,0.86,3.783,1.535c-0.012,0.566-0.585,0.671-1.624,0.862c-0.847,0.154-2.127,0.389-3.683,0.937
			c-0.875,0.308-1.525,0.604-2.048,0.842C30.398,185.948,29.905,186.172,29.455,186.172z M29.19,182.333
			c-0.346,0.282-0.547,0.94-0.5,1.638c0.04,0.601,0.257,1.106,0.554,1.288c0.24,0.147,0.547,0.032,1.438-0.375
			c0.538-0.245,1.207-0.549,2.117-0.87c1.619-0.57,2.939-0.812,3.812-0.972c0.194-0.036,0.401-0.073,0.578-0.11
			c-0.574-0.216-1.654-0.466-2.698-0.608c-0.271-0.037-1.292-0.058-3.146-0.096C29.637,182.193,29.356,182.196,29.19,182.333
			L29.19,182.333z"/>
	</g>
</g>
<g>
	<g>
		<path d="M29.986,189.295c0.293-0.239,0.568-0.239,2.412-0.201c1.943,0.04,2.92,0.06,3.216,0.1
			c1.086,0.148,3.427,0.605,3.417,1.105c-0.01,0.455-1.954,0.326-5.024,1.407c-2.447,0.862-3.203,1.645-3.919,1.206
			C29.133,192.328,29.042,190.065,29.986,189.295z"/>
	</g>
	<g>
		<path d="M30.519,193.463c-0.225,0-0.439-0.056-0.656-0.188c-0.539-0.331-0.896-1.062-0.957-1.955
			c-0.052-0.776,0.133-1.802,0.81-2.355l0,0c0.42-0.342,0.765-0.334,2.689-0.296c2.09,0.043,2.951,0.062,3.263,0.105
			c2.526,0.344,3.8,0.86,3.786,1.535c-0.012,0.566-0.585,0.671-1.625,0.862c-0.847,0.154-2.127,0.388-3.683,0.937
			c-0.875,0.308-1.526,0.604-2.048,0.842C31.462,193.239,30.969,193.463,30.519,193.463z M30.254,189.624
			c-0.346,0.282-0.547,0.941-0.5,1.639c0.041,0.601,0.258,1.106,0.554,1.287c0.239,0.146,0.547,0.032,1.438-0.375
			c0.538-0.245,1.207-0.549,2.117-0.87c1.619-0.57,2.94-0.812,3.813-0.972c0.194-0.036,0.4-0.073,0.577-0.11
			c-0.574-0.216-1.654-0.466-2.698-0.608c-0.277-0.037-1.365-0.06-3.166-0.096C30.702,189.484,30.419,189.488,30.254,189.624
			L30.254,189.624z"/>
	</g>
</g>
<g>
	<g>
		<path d="M41.683,179.491c-0.044-0.037-0.147-0.162,0.068-0.812c0.215-0.65,0.872-2.635,2.746-3.208
			c1.632-0.498,3.511,0.281,3.517,0.804c0.005,0.445-1.347,0.374-3.517,1.608C42.948,178.764,41.982,179.741,41.683,179.491z"/>
	</g>
	<g>
		<path d="M41.793,179.962c-0.137,0-0.262-0.045-0.382-0.144l0,0c-0.336-0.279-0.221-0.799-0.065-1.272
			c0.234-0.706,0.945-2.844,3.025-3.481c1.305-0.399,2.86-0.069,3.61,0.48c0.3,0.22,0.453,0.464,0.456,0.726
			c0.007,0.526-0.502,0.686-1.145,0.889c-0.591,0.185-1.483,0.466-2.586,1.093c-0.6,0.341-1.118,0.703-1.535,0.993
			C42.574,179.663,42.146,179.962,41.793,179.962z M45.627,175.734c-0.327,0-0.67,0.041-1.007,0.144
			c-1.661,0.507-2.267,2.332-2.466,2.932c-0.015,0.046-0.028,0.088-0.04,0.126c0.175-0.11,0.385-0.257,0.571-0.387
			c0.431-0.301,0.967-0.676,1.601-1.036c1.182-0.672,2.126-0.969,2.751-1.165c0.159-0.051,0.333-0.105,0.457-0.152
			C47.227,176.011,46.48,175.734,45.627,175.734z"/>
	</g>
</g>
<g>
	<g>
		<path d="M65.197,176.878c-0.042-0.513,2.21-1.736,3.919-0.904c1.621,0.789,2.118,3.118,1.708,3.417
			c-0.276,0.201-0.833-0.615-2.512-1.407C66.403,177.083,65.227,177.243,65.197,176.878z"/>
	</g>
	<g>
		<path d="M70.738,179.849c-0.277,0-0.562-0.206-0.877-0.434c-0.386-0.28-0.915-0.663-1.73-1.047
			c-0.983-0.463-1.769-0.635-2.288-0.748c-0.554-0.121-1.031-0.225-1.069-0.708c-0.026-0.311,0.183-0.62,0.62-0.918
			c0.791-0.541,2.487-1.096,3.908-0.402c1.377,0.67,1.994,2.243,2.073,3.136c0.044,0.49-0.057,0.827-0.301,1.005
			C70.963,179.815,70.851,179.849,70.738,179.849z M65.797,176.738c0.073,0.017,0.152,0.034,0.227,0.051
			c0.558,0.122,1.4,0.305,2.469,0.81c0.887,0.418,1.477,0.845,1.867,1.127c0.059,0.043,0.121,0.088,0.179,0.129
			c-0.041-0.613-0.524-1.971-1.608-2.499C67.77,175.791,66.323,176.339,65.797,176.738z"/>
	</g>
</g>
<g>
	<g>
		<path d="M40.678,166.829c-0.045,0.932,2.483,1.493,6.833,3.115c6.093,2.272,6.515,3.179,8.943,3.015
			c2.838-0.192,4.873-1.607,6.029-2.412c1.178-0.819,3.6-2.504,3.216-3.919c-0.251-0.924-1.675-1.636-2.613-1.306
			c-0.93,0.327-0.683,1.43-1.809,2.814c-1.529,1.878-3.881,2.173-4.22,2.211c-1.32,0.146-2.363-0.206-3.417-0.603
			c-6.507-2.453-8.879-4.926-11.556-4.019C41.932,165.776,40.709,166.19,40.678,166.829z"/>
	</g>
	<g>
		<path d="M55.926,173.403c-1.288,0-2.102-0.359-3.781-1.101c-1.077-0.476-2.551-1.127-4.782-1.959
			c-1.091-0.408-2.067-0.747-2.917-1.043c-2.912-1.013-4.24-1.477-4.191-2.491l0,0c0.038-0.803,1.076-1.276,1.69-1.486
			c1.863-0.63,3.567,0.212,6.15,1.488c1.477,0.73,3.317,1.638,5.697,2.535c1.047,0.395,2.014,0.71,3.22,0.579
			c0.415-0.046,2.56-0.366,3.937-2.057c0.476-0.585,0.683-1.109,0.865-1.57c0.23-0.584,0.447-1.135,1.132-1.376
			c0.568-0.198,1.296-0.111,1.95,0.232c0.625,0.328,1.067,0.825,1.213,1.364c0.464,1.704-2.038,3.444-3.383,4.379
			c-1.15,0.8-3.289,2.287-6.243,2.487C56.286,173.396,56.101,173.403,55.926,173.403z M43.235,165.96
			c-0.344,0-0.678,0.053-1.014,0.167c-0.76,0.261-1.111,0.579-1.119,0.724l0,0c-0.018,0.379,1.833,1.023,3.623,1.647
			c0.854,0.298,1.837,0.64,2.935,1.049c2.253,0.841,3.741,1.498,4.827,1.978c1.824,0.806,2.504,1.106,3.938,1.011
			c2.72-0.183,4.657-1.53,5.814-2.335c0.92-0.639,3.356-2.334,3.05-3.459c-0.084-0.307-0.378-0.619-0.788-0.835
			c-0.444-0.232-0.931-0.304-1.273-0.183c-0.307,0.108-0.407,0.335-0.623,0.886c-0.195,0.494-0.437,1.108-0.997,1.795
			c-1.545,1.899-3.837,2.291-4.503,2.365c-1.388,0.149-2.505-0.209-3.615-0.628c-2.419-0.912-4.279-1.83-5.773-2.568
			C45.786,166.619,44.451,165.96,43.235,165.96z M40.678,166.829h0.008H40.678z"/>
	</g>
</g>
<g>
	<g>
		<path d="M45.903,164.516c0.046-0.872,2.932-1.949,5.005-1.249c0.522,0.176,0.865,0.423,2.002,0.795
			c1.204,0.394,1.807,0.591,2.447,0.568c1.415-0.052,1.672-0.858,3.086-0.741c0.244,0.02,0.617,0.109,1.363,0.287
			c1.072,0.256,1.609,0.387,1.668,0.568c0.192,0.579-1.523,2.009-3.524,2.503c-1.244,0.307-2.266,0.171-2.704,0.108
			C54.002,167.175,45.824,166.004,45.903,164.516z"/>
	</g>
	<g>
		<path d="M56.346,167.864c-0.534,0-0.942-0.058-1.16-0.089c-9.806-1.408-9.734-2.769-9.707-3.282l0,0
			c0.019-0.357,0.257-0.693,0.709-0.999c1.098-0.745,3.216-1.184,4.856-0.629c0.218,0.074,0.408,0.159,0.629,0.259
			c0.312,0.14,0.701,0.315,1.369,0.534c1.155,0.378,1.74,0.576,2.299,0.547c0.578-0.021,0.93-0.185,1.303-0.359
			c0.456-0.212,0.977-0.456,1.833-0.381c0.278,0.022,0.662,0.115,1.427,0.297c1.374,0.328,1.838,0.438,1.974,0.847
			c0.074,0.222,0.037,0.471-0.111,0.738c-0.429,0.777-1.971,1.882-3.715,2.311C57.413,167.816,56.829,167.864,56.346,167.864z
			 M46.328,164.537c0.059,0.319,1.781,1.364,8.971,2.395c0.378,0.054,1.364,0.194,2.548-0.099c1.711-0.422,2.951-1.474,3.18-1.896
			c-0.256-0.095-0.816-0.229-1.32-0.349c-0.7-0.168-1.085-0.26-1.299-0.277c-0.642-0.052-0.977,0.106-1.404,0.305
			c-0.413,0.193-0.881,0.411-1.631,0.438c-0.72,0.02-1.345-0.179-2.595-0.588c-0.712-0.233-1.124-0.419-1.454-0.568
			c-0.195-0.088-0.36-0.164-0.552-0.228c-1.31-0.442-3.115-0.095-4.035,0.481C46.424,164.346,46.336,164.496,46.328,164.537z"/>
	</g>
</g>
<g>
	<g>
		<path stroke="#000000" stroke-miterlimit="10" d="M74.04,183.51"/>
	</g>
</g>
<g>
	<g>
		<path d="M72.834,183.108c0.029-0.381,1.185-0.224,2.613-1.306c0.867-0.658,1.122-1.205,1.407-1.105
			c0.651,0.229,1.243,2.463,0.301,3.417C75.943,185.341,72.786,183.749,72.834,183.108z"/>
	</g>
	<g>
		<path d="M75.879,184.991c-0.671,0-1.39-0.202-2.002-0.48c-0.458-0.208-1.517-0.765-1.467-1.434v-0.001
			c0.035-0.456,0.472-0.585,0.896-0.709c0.451-0.133,1.131-0.333,1.885-0.904c0.347-0.264,0.588-0.507,0.783-0.703
			c0.311-0.314,0.603-0.611,1.022-0.465c0.635,0.223,0.906,1.2,0.974,1.494c0.246,1.069,0.055,2.049-0.511,2.622
			C77.046,184.827,76.482,184.991,75.879,184.991z M73.392,183.228c0.31,0.271,1.064,0.701,1.931,0.858
			c0.398,0.073,1.129,0.134,1.53-0.272c0.388-0.393,0.418-1.128,0.317-1.686c-0.092-0.51-0.275-0.838-0.389-0.97
			c-0.06,0.055-0.137,0.133-0.204,0.201c-0.202,0.203-0.477,0.481-0.872,0.782c-0.878,0.666-1.649,0.892-2.159,1.042
			C73.495,183.197,73.442,183.212,73.392,183.228z"/>
	</g>
</g>
<g>
	<g>
		<path d="M71.829,189.54c0.2-0.331,1.127,0.34,2.814,0.1c2.082-0.296,2.898-1.636,3.417-1.306c0.754,0.479,0.337,4.14-1.608,4.823
			C74.194,193.951,71.442,190.182,71.829,189.54z"/>
	</g>
	<g>
		<path d="M75.803,193.692c-1.296,0-2.599-1.003-3.473-2.078c-0.388-0.477-1.249-1.655-0.865-2.293h0.001
			c0.243-0.404,0.701-0.308,1.143-0.213c0.467,0.1,1.106,0.234,1.975,0.112c1.065-0.151,1.775-0.603,2.294-0.932
			c0.49-0.31,0.949-0.603,1.41-0.312c0.637,0.405,0.573,1.604,0.515,2.102c-0.149,1.3-0.818,2.992-2.21,3.482
			C76.332,193.649,76.068,193.692,75.803,193.692z M72.261,189.902c0.168,0.467,0.805,1.457,1.779,2.206
			c0.588,0.453,1.462,0.934,2.271,0.648c0.893-0.314,1.408-1.452,1.592-2.411c0.186-0.971,0.023-1.57-0.076-1.657
			c-0.033,0.024-0.289,0.186-0.494,0.316c-0.551,0.35-1.384,0.879-2.63,1.056c-1.02,0.146-1.773-0.016-2.271-0.123
			C72.377,189.926,72.318,189.914,72.261,189.902z"/>
	</g>
</g>
<g>
	<g>
		<path d="M52.335,176.275c-0.467,0.352,1.316,6.179,4.622,6.23c3.612,0.056,5.186-6.843,4.723-7.135
			c-0.362-0.228-2.035,3.556-4.823,3.618C54.33,179.044,52.695,176.004,52.335,176.275z"/>
	</g>
	<g>
		<path d="M57.004,182.93c-0.017,0-0.035,0-0.053,0c-2.384-0.037-4.085-2.674-4.818-4.923c-0.553-1.696-0.19-1.969-0.054-2.072l0,0
			c0.42-0.315,0.797,0.078,1.32,0.625c0.716,0.752,1.911,2.004,3.391,2.004c0.019,0,0.038,0,0.058-0.001
			c1.728-0.038,3.024-1.737,3.797-2.752c0.495-0.65,0.823-1.078,1.262-0.8c0.392,0.246,0.363,1.136-0.085,2.645
			C61.452,178.898,60.02,182.93,57.004,182.93z M52.764,177.128c0.193,0.832,0.727,2.248,1.622,3.39
			c0.801,1.023,1.668,1.548,2.578,1.562c0.012,0,0.025,0,0.037,0c0.864,0,1.676-0.475,2.414-1.411
			c1.045-1.327,1.625-3.166,1.833-4.245c-0.826,1.081-2.307,2.943-4.381,2.99c-0.026,0.001-0.052,0.001-0.079,0.001
			c-1.843,0-3.193-1.416-4.004-2.267C52.777,177.141,52.771,177.134,52.764,177.128z"/>
	</g>
</g>
<g>
	<g>
		<path d="M11.527,203.708c-0.428-0.422,1.212-4.828,2.999-4.622c1.108,0.127,2.109,2.008,1.764,2.713
			c-0.213,0.436-0.818,0.171-2.029,0.502C12.46,202.795,11.763,203.941,11.527,203.708z"/>
	</g>
	<g>
		<path d="M11.584,204.168c-0.121,0-0.241-0.044-0.354-0.156l0,0c-0.564-0.555,0.295-2.438,0.472-2.81
			c0.391-0.818,1.445-2.691,2.873-2.538c0.676,0.078,1.358,0.633,1.823,1.486c0.388,0.709,0.49,1.395,0.274,1.837
			c-0.228,0.466-0.67,0.502-1.138,0.539c-0.303,0.025-0.681,0.055-1.16,0.187c-0.991,0.271-1.618,0.754-2.032,1.073
			C12.113,203.962,11.845,204.168,11.584,204.168z M11.825,203.406L11.825,203.406L11.825,203.406z M14.405,199.504
			c-0.379,0-0.759,0.332-1.017,0.622c-0.757,0.848-1.274,2.165-1.445,2.894c0.448-0.341,1.152-0.839,2.207-1.128
			c0.556-0.153,0.996-0.188,1.316-0.213c0.176-0.014,0.394-0.032,0.445-0.066c0.061-0.129,0.023-0.542-0.258-1.057
			c-0.319-0.583-0.791-1.004-1.176-1.048C14.453,199.505,14.429,199.504,14.405,199.504z"/>
	</g>
</g>
<g>
	<g>
		<path d="M11.591,208.532c-0.839,0.798-0.491,2.87,0.201,3.115c0.544,0.193,0.955-0.869,2.512-1.407
			c1.386-0.479,2.358-0.086,2.412-0.301C16.826,209.499,12.91,207.277,11.591,208.532z"/>
	</g>
	<g>
		<path d="M11.928,212.097c-0.088,0-0.181-0.016-0.278-0.05c-0.421-0.149-0.747-0.637-0.897-1.34
			c-0.16-0.754-0.114-1.857,0.545-2.484c1.13-1.076,3.498-0.159,4.719,0.551c1.098,0.64,1.178,0.999,1.111,1.267
			c-0.106,0.422-0.534,0.4-0.879,0.384c-0.412-0.023-1.035-0.051-1.807,0.216c-0.738,0.255-1.187,0.635-1.548,0.94
			C12.584,211.846,12.287,212.097,11.928,212.097z M12.743,208.578c-0.314,0-0.645,0.059-0.858,0.261l0,0
			c-0.377,0.359-0.42,1.128-0.3,1.691c0.096,0.452,0.275,0.689,0.349,0.715c0.058-0.012,0.262-0.186,0.412-0.312
			c0.393-0.333,0.931-0.788,1.82-1.096c0.587-0.203,1.102-0.262,1.516-0.273c-0.643-0.388-1.659-0.855-2.588-0.965
			C12.985,208.586,12.865,208.578,12.743,208.578z M11.591,208.532H11.6H11.591z"/>
	</g>
</g>
<g>
	<g>
		<path d="M17.907,217.355c0.07,0.674,0.06,1.553-0.461,1.928c-0.502,0.361-1.099-0.018-2.211-0.1
			c-1.99-0.147-3.286,0.832-3.417,0.603c-0.088-0.154,0.418-0.727,3.115-2.613"/>
	</g>
	<g>
		<path d="M11.876,220.243c-0.173,0-0.321-0.064-0.426-0.247c-0.237-0.413-0.203-0.764,3.24-3.172
			c0.19-0.132,0.456-0.089,0.592,0.105c0.134,0.192,0.087,0.457-0.105,0.592c-0.902,0.631-1.53,1.096-1.969,1.437
			c0.56-0.147,1.262-0.257,2.058-0.2c0.424,0.032,0.781,0.105,1.067,0.163c0.502,0.102,0.708,0.13,0.863,0.017
			c0.268-0.193,0.369-0.74,0.287-1.539c-0.024-0.234,0.145-0.442,0.378-0.466c0.226-0.03,0.442,0.145,0.466,0.378
			c0.12,1.164-0.087,1.922-0.635,2.316c-0.473,0.34-0.987,0.237-1.53,0.126c-0.277-0.056-0.591-0.12-0.961-0.148
			c-1.192-0.093-2.113,0.258-2.668,0.466C12.309,220.156,12.077,220.243,11.876,220.243z"/>
	</g>
</g>
<g>
	<g>
		<path d="M16.26,223.404c-0.55-0.025-0.648,1.174-1.507,1.407c-0.994,0.269-1.811-1.078-2.311-0.804
			c-0.542,0.297-0.495,2.383,0.603,3.115c1.328,0.886,3.886-0.416,4.12-1.909C17.291,224.401,16.749,223.426,16.26,223.404z"/>
	</g>
	<g>
		<path d="M14.096,227.834c-0.486,0-0.93-0.12-1.288-0.359c-0.832-0.555-1.166-1.706-1.127-2.6c0.027-0.618,0.224-1.059,0.556-1.241
			c0.455-0.25,0.9,0.063,1.293,0.338c0.369,0.259,0.752,0.526,1.111,0.429c0.292-0.08,0.467-0.366,0.653-0.669
			c0.212-0.346,0.484-0.787,0.985-0.752l0,0c0.285,0.012,0.561,0.173,0.798,0.464c0.331,0.406,0.617,1.13,0.506,1.834
			c-0.137,0.874-0.931,1.748-2.023,2.227C15.062,227.725,14.56,227.834,14.096,227.834z M12.584,224.394
			c0.027,0.023-0.095,0.324-0.045,0.864c0.048,0.524,0.268,1.195,0.74,1.51c0.452,0.302,1.195,0.285,1.94-0.041
			c0.82-0.36,1.433-0.995,1.524-1.58c0.096-0.613-0.31-1.238-0.487-1.312c-0.062,0.055-0.167,0.225-0.238,0.341
			c-0.227,0.37-0.538,0.877-1.155,1.045c-0.747,0.203-1.366-0.235-1.82-0.553C12.893,224.563,12.666,224.404,12.584,224.394z"/>
	</g>
</g>
<g>
	<g>
		<path d="M14.652,231.644c-0.6,0.834,0.473,3.402,2.11,3.718c1.946,0.376,3.716-2.619,3.618-4.019
			c-0.01-0.143-0.033-0.415-0.23-0.586c-0.418-0.361-1.204,0.092-2.182,0.385C15.936,231.75,15.061,231.074,14.652,231.644z"/>
	</g>
	<g>
		<path d="M17.102,235.819c-0.14,0-0.281-0.013-0.42-0.04c-1.166-0.225-1.984-1.316-2.36-2.261
			c-0.344-0.864-0.349-1.657-0.015-2.122c0,0,0,0,0.001,0c0.331-0.459,0.827-0.439,1.347-0.416c0.505,0.019,1.2,0.051,2.192-0.246
			c0.237-0.071,0.463-0.153,0.675-0.228c0.721-0.26,1.405-0.505,1.906-0.071c0.334,0.288,0.364,0.715,0.376,0.876
			c0.076,1.087-0.729,2.741-1.794,3.685C18.396,235.54,17.745,235.819,17.102,235.819z M14.997,231.892
			c-0.13,0.182-0.133,0.691,0.115,1.311c0.302,0.759,0.954,1.591,1.731,1.74c0.642,0.122,1.225-0.249,1.603-0.583
			c0.954-0.847,1.562-2.254,1.51-2.99c-0.005-0.071-0.017-0.236-0.083-0.293c-0.127-0.112-0.647,0.078-1.065,0.227
			c-0.225,0.081-0.465,0.166-0.717,0.242c-1.129,0.339-1.94,0.305-2.472,0.281C15.188,231.813,15.052,231.817,14.997,231.892z"/>
	</g>
</g>
<g>
	<g>
		<path d="M23.696,234.658c-0.549,0.201-0.11,1.418-0.904,2.914c-0.441,0.831-0.924,1.11-0.804,1.306
			c0.205,0.337,1.763-0.242,2.814-0.804c0.742-0.397,1.896-1.014,1.809-1.608c-0.036-0.247-0.26-0.303-1.407-1.005
			C24.019,234.738,23.904,234.582,23.696,234.658z"/>
	</g>
	<g>
		<path d="M22.3,239.396c-0.303,0-0.546-0.084-0.676-0.297c-0.219-0.358,0.04-0.675,0.247-0.93c0.157-0.193,0.353-0.435,0.544-0.795
			c0.376-0.71,0.447-1.346,0.505-1.857c0.061-0.55,0.12-1.07,0.629-1.257l0,0c0.347-0.126,0.57,0.016,1.109,0.36
			c0.188,0.12,0.435,0.277,0.766,0.48c0.286,0.175,0.513,0.31,0.695,0.417c0.604,0.356,0.854,0.504,0.91,0.889
			c0.131,0.889-1.116,1.556-2.026,2.043C24.377,238.783,23.119,239.396,22.3,239.396z M23.841,235.11
			c-0.033,0.118-0.057,0.333-0.076,0.5c-0.062,0.553-0.147,1.31-0.599,2.162c-0.155,0.293-0.317,0.525-0.456,0.705
			c0.462-0.124,1.169-0.392,1.891-0.777c1.42-0.76,1.604-1.061,1.588-1.172l0,0c-0.025,0-0.246-0.13-0.501-0.281
			c-0.185-0.11-0.417-0.246-0.706-0.423c-0.337-0.207-0.588-0.367-0.78-0.489C24.059,235.244,23.928,235.161,23.841,235.11z
			 M23.696,234.658h0.008H23.696z"/>
	</g>
</g>
<g>
	<g>
		<path d="M29.022,232.046c-0.383-1.708,0.806-3.872,2.01-4.02c1.387-0.169,1.777,2.463,4.321,4.421
			c4.19,3.226,10.141,1.479,10.25,2.412c0.063,0.545-1.953,1.247-3.015,1.507c-1.459,0.358-2.653,0.261-3.216,0.201
			C37.018,236.316,29.807,235.547,29.022,232.046z"/>
	</g>
	<g>
		<path d="M40.418,237.052c-0.512,0-0.895-0.041-1.092-0.062c-2.44-0.26-9.867-1.051-10.719-4.851
			c-0.24-1.071,0.058-2.405,0.76-3.401c0.466-0.661,1.039-1.063,1.613-1.133c0.99-0.115,1.557,0.736,2.217,1.726
			c0.561,0.842,1.259,1.89,2.414,2.78c2.612,2.01,6.03,2.004,8.061,2.001c1.408-0.002,2.272-0.004,2.353,0.699
			c0.12,1.037-2.523,1.77-3.337,1.969C41.811,236.995,41.024,237.052,40.418,237.052z M31.15,228.444
			c-0.022,0-0.045,0.002-0.067,0.004c-0.328,0.04-0.7,0.325-1.021,0.78c-0.561,0.795-0.813,1.891-0.625,2.725l0,0
			c0.476,2.127,3.834,3.537,9.98,4.192c0.395,0.042,1.593,0.173,3.069-0.191c1.07-0.263,2.082-0.678,2.507-0.959
			c-0.32-0.035-0.844-0.033-1.32-0.033c-2.145,0.006-5.738,0.01-8.58-2.177c-1.267-0.975-2.009-2.088-2.604-2.982
			C31.903,228.923,31.564,228.444,31.15,228.444z"/>
	</g>
</g>
<g>
	<g>
		<path d="M34.347,241.19c-0.199,0.356,1.521,1.826,3.417,2.914c1.996,1.146,5.666,3.253,8.24,1.708
			c1.868-1.121,2.686-3.881,2.01-4.522c-0.642-0.609-2.167,1.133-5.125,1.608C38.336,243.629,34.636,240.674,34.347,241.19z"/>
	</g>
	<g>
		<path d="M43.903,246.783c-2.326,0-4.824-1.433-6.349-2.308c-0.173-0.1-4.181-2.417-3.578-3.492
			c0.283-0.505,0.832-0.264,1.827,0.174c1.525,0.671,4.077,1.795,7.018,1.321c1.445-0.232,2.551-0.789,3.359-1.197
			c0.89-0.448,1.593-0.804,2.126-0.299c0.296,0.281,0.417,0.76,0.349,1.386c-0.137,1.249-1.016,2.958-2.433,3.808
			C45.503,246.609,44.713,246.783,43.903,246.783z M35.374,241.897c0.569,0.509,1.488,1.2,2.601,1.839
			c1.906,1.093,5.449,3.129,7.81,1.712c1.166-0.7,1.913-2.156,2.024-3.171c0.046-0.425-0.038-0.629-0.089-0.677
			c-0.099-0.091-0.761,0.242-1.158,0.442c-0.857,0.432-2.032,1.024-3.607,1.277c-3.188,0.508-5.99-0.722-7.495-1.384
			C35.433,241.922,35.403,241.909,35.374,241.897z M34.348,241.19h0.008H34.348z"/>
	</g>
</g>
<g>
	<g>
		<path d="M29.624,242.898c-0.337,0.216,0.233,2.738,2.11,4.02c2.04,1.393,4.869,0.803,4.924,0.402
			c0.043-0.319-1.688-0.366-3.919-1.809C30.638,244.152,29.898,242.723,29.624,242.898z"/>
	</g>
	<g>
		<path d="M34.788,248.219c-1.022,0-2.249-0.237-3.293-0.949c-1.712-1.169-2.399-3.234-2.387-4.079
			c0.005-0.311,0.101-0.53,0.287-0.649l0,0c0.414-0.262,0.743,0.087,1.2,0.575c0.479,0.51,1.202,1.281,2.375,2.038
			c1.288,0.832,2.419,1.188,3.094,1.4c0.604,0.19,1.082,0.339,1.015,0.823c-0.046,0.339-0.392,0.493-0.505,0.543
			C36.202,248.087,35.552,248.219,34.788,248.219z M30.038,243.763c0.206,0.778,0.8,2.028,1.937,2.804
			c1.245,0.851,2.763,0.871,3.639,0.736c-0.729-0.232-1.839-0.617-3.105-1.435C31.302,245.088,30.52,244.276,30.038,243.763z"/>
	</g>
</g>
<g>
	<g>
		<path d="M37.462,210.039c0.011-1.402,2.017-2.697,2.814-2.311c0.619,0.3,0.165,1.451,1.105,2.412
			c0.752,0.768,1.659,0.66,1.708,1.105c0.051,0.457-0.85,1.053-1.708,1.206C39.73,212.745,37.45,211.541,37.462,210.039z"/>
	</g>
	<g>
		<path d="M40.854,212.921c-0.989,0-2.072-0.386-2.849-1.042c-0.629-0.531-0.973-1.186-0.967-1.843l0.425,0.003l-0.425-0.003
			c0.008-1.026,0.814-1.89,1.565-2.355c0.7-0.434,1.394-0.561,1.859-0.335c0.481,0.233,0.569,0.729,0.647,1.165
			c0.08,0.447,0.162,0.909,0.577,1.332c0.322,0.329,0.68,0.466,0.995,0.586c0.347,0.132,0.779,0.296,0.832,0.769
			c0.091,0.823-1.158,1.511-2.056,1.672C41.262,212.904,41.06,212.921,40.854,212.921z M37.888,210.042
			c-0.003,0.401,0.233,0.822,0.666,1.187c0.744,0.63,1.879,0.958,2.754,0.803c0.687-0.123,1.212-0.51,1.335-0.702
			c-0.07-0.034-0.178-0.076-0.264-0.108c-0.357-0.137-0.847-0.323-1.3-0.786c-0.598-0.61-0.718-1.285-0.806-1.777
			c-0.046-0.26-0.09-0.505-0.182-0.549c-0.154-0.077-0.571,0.001-1.04,0.292C38.475,208.759,37.893,209.405,37.888,210.042
			L37.888,210.042z"/>
	</g>
</g>
<g>
	<g>
		<path d="M69.116,208.632c-0.182,0.23,0.187,0.564,0.904,2.412c0.631,1.625,0.605,2.036,1.005,2.211
			c0.898,0.392,2.814-0.904,2.814-2.11C73.839,209.358,69.643,207.969,69.116,208.632z"/>
	</g>
	<g>
		<path d="M71.402,213.75c-0.199,0-0.384-0.035-0.547-0.106c-0.442-0.193-0.559-0.538-0.792-1.226
			c-0.102-0.301-0.237-0.697-0.439-1.22c-0.297-0.764-0.536-1.271-0.694-1.607c-0.26-0.55-0.417-0.883-0.147-1.223l0,0
			c0.493-0.621,1.92-0.21,2.51-0.004c1.436,0.5,2.97,1.494,2.97,2.78c0,0.876-0.719,1.658-1.391,2.098
			C72.364,213.575,71.847,213.75,71.402,213.75z M69.544,208.89c0.04,0.094,0.098,0.217,0.155,0.339
			c0.164,0.346,0.41,0.87,0.717,1.662c0.209,0.538,0.347,0.945,0.452,1.254c0.183,0.54,0.239,0.682,0.327,0.72
			c0.203,0.086,0.669,0.022,1.213-0.334c0.602-0.393,1.006-0.951,1.006-1.387c0-0.457-0.458-0.988-1.257-1.455
			C71.127,209.088,69.965,208.84,69.544,208.89z"/>
	</g>
</g>
<g>
	<g>
		<path d="M66.704,207.326c-0.447-0.551-2.654-0.08-3.015,1.005c-0.474,1.426,2.394,3.466,2.914,3.115
			c0.288-0.194-0.31-1.008-0.1-2.613C66.626,207.894,66.908,207.577,66.704,207.326z"/>
	</g>
	<g>
		<path d="M66.443,211.91c-0.524,0-1.181-0.429-1.579-0.731c-0.991-0.753-1.926-1.932-1.577-2.981
			c0.284-0.854,1.316-1.327,2.115-1.473c0.357-0.064,1.23-0.162,1.633,0.334c0,0.001,0,0.001,0,0.001
			c0.256,0.317,0.164,0.648,0.067,0.999c-0.058,0.209-0.13,0.47-0.177,0.83c-0.109,0.832,0.016,1.419,0.106,1.848
			c0.085,0.402,0.173,0.817-0.189,1.062C66.725,211.876,66.589,211.91,66.443,211.91z M65.976,207.519
			c-0.165,0-0.373,0.022-0.616,0.084c-0.64,0.162-1.15,0.509-1.267,0.862c-0.132,0.397,0.189,0.901,0.392,1.165
			c0.547,0.713,1.324,1.211,1.734,1.374c-0.007-0.031-0.013-0.062-0.019-0.091c-0.098-0.461-0.245-1.158-0.118-2.134
			c0.055-0.42,0.139-0.725,0.201-0.947c0.024-0.088,0.053-0.193,0.064-0.255C66.285,207.546,66.157,207.519,65.976,207.519z"/>
	</g>
</g>
<g>
	<g>
		<path d="M71.126,205.417c-0.1,0.476,2.72,1.712,3.015,1.306c0.156-0.216-0.359-0.951-1.005-1.306
			C72.278,204.944,71.184,205.139,71.126,205.417z"/>
	</g>
	<g>
		<path d="M73.887,207.229c-0.326,0-0.832-0.11-1.625-0.462c-1.696-0.753-1.592-1.25-1.552-1.438l0,0
			c0.029-0.139,0.126-0.332,0.422-0.467c0.497-0.228,1.441-0.242,2.208,0.183c0.588,0.323,1.13,0.94,1.233,1.406
			c0.056,0.252-0.017,0.423-0.09,0.522C74.425,207.054,74.298,207.229,73.887,207.229z M71.791,205.564
			c0.437,0.289,1.265,0.649,1.776,0.774c-0.145-0.183-0.37-0.401-0.637-0.548C72.533,205.569,72.089,205.532,71.791,205.564z"/>
	</g>
</g>
<g>
	<g>
		<path d="M78.763,200.794c1.028,0.838,0.284,3.09-0.1,3.115c-0.166,0.011-0.185-0.4-0.703-1.306
			c-0.687-1.201-1.238-1.503-1.105-1.809C77.02,200.411,78.144,200.29,78.763,200.794z"/>
	</g>
	<g>
		<path d="M78.649,204.334c-0.359,0-0.494-0.32-0.613-0.605c-0.09-0.215-0.213-0.509-0.446-0.915
			c-0.297-0.52-0.569-0.864-0.767-1.115c-0.286-0.362-0.533-0.674-0.359-1.074c0.11-0.253,0.375-0.442,0.744-0.531
			c0.523-0.128,1.29-0.063,1.823,0.371l0,0c0.821,0.668,0.778,1.955,0.491,2.853c-0.207,0.651-0.487,0.993-0.832,1.016
			C78.676,204.334,78.663,204.334,78.649,204.334z M77.315,200.945c0.047,0.066,0.114,0.149,0.175,0.227
			c0.215,0.272,0.51,0.646,0.838,1.221c0.164,0.286,0.28,0.526,0.367,0.72c0.095-0.286,0.177-0.676,0.163-1.064
			c-0.011-0.295-0.083-0.696-0.364-0.925l0,0C78.137,200.832,77.556,200.856,77.315,200.945z"/>
	</g>
</g>
<g>
	<g>
		<path d="M47.364,193.692c-2.072,0-3.694-2.709-3.694-6.167s1.623-6.166,3.694-6.166s3.695,2.708,3.695,6.166
			S49.436,193.692,47.364,193.692z M47.364,182.209c-1.542,0-2.844,2.434-2.844,5.316s1.302,5.317,2.844,5.317
			s2.845-2.435,2.845-5.317S48.906,182.209,47.364,182.209z"/>
	</g>
</g>
<g>
	<g>
		<path d="M65.196,193.692c-2.072,0-3.695-2.709-3.695-6.167s1.623-6.166,3.695-6.166s3.695,2.708,3.695,6.166
			S67.268,193.692,65.196,193.692z M65.196,182.209c-1.542,0-2.845,2.434-2.845,5.316s1.303,5.317,2.845,5.317
			c1.542,0,2.845-2.435,2.845-5.317S66.738,182.209,65.196,182.209z"/>
	</g>
</g>
<g>
	<g>
		<ellipse cx="64.017" cy="188.902" rx="2.077" ry="3.404"/>
	</g>
	<g>
		<path d="M64.017,192.73c-1.403,0-2.502-1.682-2.502-3.829c0-2.147,1.099-3.829,2.502-3.829c1.403,0,2.502,1.682,2.502,3.829
			C66.519,191.049,65.42,192.73,64.017,192.73z M64.017,185.923c-0.896,0-1.652,1.364-1.652,2.979c0,1.614,0.756,2.979,1.652,2.979
			s1.652-1.364,1.652-2.979C65.669,187.288,64.913,185.923,64.017,185.923z"/>
	</g>
</g>
<g>
	<g>
		<ellipse cx="46.252" cy="188.698" rx="1.997" ry="2.952"/>
	</g>
	<g>
		<path d="M46.252,192.075c-1.358,0-2.422-1.483-2.422-3.376c0-1.894,1.064-3.377,2.422-3.377c1.358,0,2.421,1.483,2.421,3.377
			C48.673,190.592,47.61,192.075,46.252,192.075z M46.252,186.171c-0.852,0-1.572,1.157-1.572,2.527c0,1.369,0.72,2.526,1.572,2.526
			c0.852,0,1.571-1.157,1.571-2.526C47.823,187.328,47.104,186.171,46.252,186.171z"/>
	</g>
</g>
<g>
	<g>
		<circle fill="#FFFFFF" cx="45.903" cy="190.442" r="0.903"/>
	</g>
	<g>
		<path d="M45.903,191.77c-0.732,0-1.328-0.596-1.328-1.328s0.596-1.328,1.328-1.328s1.328,0.596,1.328,1.328
			S46.635,191.77,45.903,191.77z M45.903,189.964c-0.264,0-0.478,0.214-0.478,0.478c0,0.264,0.214,0.478,0.478,0.478
			c0.264,0,0.478-0.214,0.478-0.478C46.381,190.178,46.167,189.964,45.903,189.964z"/>
	</g>
</g>
<g>
	<g>
		<circle fill="#FFFFFF" cx="63.637" cy="190.442" r="0.903"/>
	</g>
	<g>
		<path d="M63.637,191.77c-0.732,0-1.328-0.596-1.328-1.328s0.596-1.328,1.328-1.328c0.732,0,1.328,0.596,1.328,1.328
			S64.369,191.77,63.637,191.77z M63.637,189.964c-0.264,0-0.478,0.214-0.478,0.478c0,0.264,0.214,0.478,0.478,0.478
			c0.264,0,0.478-0.214,0.478-0.478C64.115,190.178,63.901,189.964,63.637,189.964z"/>
	</g>
</g>
<g>
	<g>
		<path d="M56.16,204.908c-0.988,0-1.987-0.248-2.713-0.62c-1.545-0.793-2.402-2.343-3.091-3.589
			c-0.277-0.5-0.522-1.025-0.729-1.561c-0.084-0.219,0.025-0.465,0.244-0.549c0.219-0.082,0.465,0.026,0.549,0.244
			c0.193,0.5,0.421,0.989,0.678,1.454c0.666,1.206,1.422,2.57,2.736,3.244c1.52,0.781,3.893,0.749,4.674-0.456
			c0.462-0.714,0.292-1.663,0.149-2.165c-0.065-0.226,0.066-0.461,0.292-0.525c0.227-0.069,0.461,0.066,0.525,0.292
			c0.315,1.107,0.225,2.122-0.252,2.859C58.581,204.529,57.38,204.908,56.16,204.908z"/>
	</g>
</g>
<g>
	<g>
		<path d="M61.616,204.824c-0.351,0-0.728-0.061-1.108-0.222c-1.363-0.581-2.145-2.212-1.86-3.879
			c0.04-0.232,0.265-0.388,0.491-0.348c0.232,0.04,0.387,0.26,0.348,0.491c-0.22,1.284,0.35,2.526,1.355,2.955
			c1.066,0.453,2.171-0.238,2.217-0.268c0.612-0.389,0.874-0.945,1.151-1.532c0.4-0.843,0.595-1.818,0.563-2.82
			c-0.007-0.234,0.177-0.431,0.412-0.438c0.225,0.013,0.431,0.178,0.438,0.412c0.036,1.136-0.187,2.246-0.644,3.21
			c-0.302,0.639-0.645,1.365-1.462,1.885C63.401,204.341,62.608,204.824,61.616,204.824z"/>
	</g>
</g>
<g>
	<g>
		<path d="M49.119,200.415c-0.062,0-0.125-0.013-0.184-0.042c-0.212-0.101-0.3-0.355-0.198-0.567
			c0.165-0.344,0.485-0.828,1.066-1.184c0.831-0.508,1.682-0.418,2.009-0.356c0.231,0.044,0.383,0.266,0.339,0.496
			c-0.044,0.231-0.271,0.379-0.496,0.339c-0.232-0.042-0.83-0.106-1.408,0.247c-0.404,0.247-0.627,0.586-0.744,0.827
			C49.428,200.326,49.277,200.415,49.119,200.415z"/>
	</g>
</g>
<g>
	<g>
		<path d="M64.191,199.814c-0.077,0-0.154-0.021-0.225-0.064c-0.199-0.124-0.26-0.387-0.136-0.586
			c0.078-0.125,0.51-0.752,1.34-0.803c0.748-0.057,1.213,0.398,1.34,0.535c0.161,0.172,0.153,0.441-0.018,0.601
			c-0.17,0.16-0.439,0.153-0.601-0.018c-0.029-0.031-0.295-0.29-0.67-0.27c-0.43,0.027-0.661,0.388-0.67,0.404
			C64.472,199.742,64.332,199.814,64.191,199.814z"/>
	</g>
</g>
<g>
	<g>
		<path d="M59.318,201.23c-0.097,0-0.194-0.004-0.29-0.013c-0.572-0.052-1.174-0.433-2.496-1.267
			c-1.078-0.681-1.412-1.037-1.652-1.457c-0.465-0.813-0.57-1.489-0.314-2.008c0,0,0,0,0-0.001c0.342-0.688,1.09-0.812,3.879-0.938
			c3.111-0.143,3.633-0.039,4.057,0.446c0.843,0.966,0.431,2.565-0.052,3.405C61.813,200.507,60.556,201.23,59.318,201.23z
			 M55.328,196.862c-0.085,0.172-0.104,0.52,0.29,1.208c0.145,0.254,0.348,0.515,1.365,1.159c1.131,0.715,1.754,1.107,2.123,1.141
			c1.003,0.092,2.08-0.48,2.607-1.396c0.373-0.65,0.667-1.83,0.149-2.423c-0.142-0.164-0.492-0.288-3.379-0.157
			C56.249,196.496,55.452,196.614,55.328,196.862L55.328,196.862z"/>
	</g>
</g>
<g>
	<g>
		<path d="M57.781,209.173c-0.1,0-0.201-0.003-0.301-0.011c-2.083-0.16-3.595-1.961-4.147-2.729
			c-0.737-1.022-1.29-2.286-1.599-3.655c-0.052-0.229,0.091-0.456,0.32-0.508c0.23-0.057,0.457,0.091,0.508,0.32
			c0.285,1.259,0.79,2.416,1.46,3.346c0.484,0.671,1.795,2.245,3.523,2.377c1.946,0.17,3.767-1.531,4.685-4.278
			c0.075-0.223,0.32-0.343,0.538-0.269c0.223,0.075,0.343,0.315,0.269,0.538C62.035,207.299,59.995,209.173,57.781,209.173z"/>
	</g>
</g>
<g>
	<g>
		<path d="M60.474,207.025c-0.051,0-0.104-0.009-0.154-0.029c-0.622-0.242-1.923-0.649-3.636-0.65c-0.985,0-1.978,0.135-2.87,0.391
			c-0.229,0.066-0.461-0.066-0.525-0.291c-0.065-0.226,0.066-0.461,0.291-0.525c0.967-0.277,2.041-0.424,3.104-0.424
			c1.76,0.001,3.117,0.385,3.945,0.708c0.218,0.085,0.327,0.331,0.242,0.55C60.804,206.922,60.644,207.025,60.474,207.025z"/>
	</g>
</g>
<g>
	<g>
		<path d="M40.415,221.08c-0.687,0-1.357-0.152-1.92-0.404c-1.145-0.511-2.503-1.759-2.563-3.589
			c-0.034-1.041,0.393-2.104,1.17-2.917c0.803-0.84,1.885-1.329,2.968-1.341l0,0c0.014,0,0.029,0,0.043,0
			c2.264,0,3.492,2.032,3.543,2.118c0.761,1.285,1.01,3.339-0.243,4.813C42.608,220.707,41.491,221.08,40.415,221.08z
			 M40.08,213.679c-0.857,0.01-1.718,0.403-2.364,1.079c-0.621,0.648-0.961,1.487-0.935,2.301c0.043,1.346,1.066,2.397,2.06,2.842
			c1.2,0.536,2.933,0.473,3.924-0.691c0.984-1.156,0.772-2.795,0.159-3.829c-0.011-0.017-1.033-1.701-2.813-1.701
			C40.102,213.679,40.091,213.679,40.08,213.679L40.08,213.679z"/>
	</g>
</g>
<g>
	<g>
		<path d="M44.6,220.948c-0.738,0-1.511-0.2-2.24-0.601c-0.206-0.114-0.281-0.372-0.168-0.578c0.115-0.206,0.374-0.28,0.578-0.168
			c1.162,0.64,2.494,0.654,3.395,0.035c0.955-0.657,1.311-1.937,1.028-3.703c-0.253-1.574-0.915-2.617-1.968-3.097
			c-1.247-0.57-2.855-0.232-4.004,0.837c-0.173,0.159-0.441,0.149-0.601-0.022c-0.16-0.173-0.15-0.442,0.022-0.601
			c1.421-1.32,3.356-1.707,4.936-0.988c1.327,0.605,2.153,1.862,2.454,3.736c0.427,2.669-0.517,3.941-1.385,4.537
			C46.054,220.745,45.345,220.948,44.6,220.948z"/>
	</g>
</g>
<g>
	<g>
		<path d="M47.725,220.595c-0.683,0-1.248-0.144-1.437-0.199c-0.226-0.066-0.355-0.301-0.29-0.526
			c0.065-0.226,0.302-0.358,0.526-0.29c0.194,0.056,1.911,0.518,2.91-0.406c1.273-1.177,0.303-3.574-0.178-4.398
			c-0.682-1.164-1.606-1.875-2.602-2.003c-0.373-0.049-0.755-0.018-1.14,0.089c-0.222,0.06-0.461-0.071-0.523-0.297
			s0.071-0.46,0.297-0.523c0.493-0.136,0.988-0.174,1.473-0.112c1.263,0.162,2.409,1.02,3.227,2.416
			c0.719,1.23,1.647,3.951,0.023,5.452C49.33,220.427,48.459,220.595,47.725,220.595z"/>
	</g>
</g>
<g>
	<g>
		<path fill="none" stroke="#000000" stroke-linecap="round" stroke-linejoin="round" stroke-miterlimit="10" d="M35.955,219.585"/>
	</g>
</g>
<g>
	<g>
		<path d="M86.087,191.162c-0.807,0-1.694-0.18-2.463-0.786c-0.887-0.701-1.336-1.545-1.266-2.38
			c0.081-0.949,0.806-1.744,2.155-2.36c0.216-0.099,2.159-0.931,4.097,0.112l0,0c1.08,0.583,2.636,2.023,2.215,3.412
			c-0.33,1.084-1.651,1.423-2.713,1.695C87.668,190.969,86.92,191.162,86.087,191.162z M86.501,186.075
			c-0.863,0-1.523,0.284-1.633,0.334c-0.393,0.179-1.584,0.723-1.663,1.658c-0.064,0.757,0.639,1.399,0.945,1.64
			c1.233,0.971,2.933,0.534,3.752,0.325c0.856-0.219,1.921-0.492,2.111-1.119c0.242-0.798-0.914-1.936-1.805-2.416l0,0
			C87.616,186.178,87.021,186.075,86.501,186.075z"/>
	</g>
</g>
<g>
	<g>
		<path fill="#FFFFFF" d="M83.52,193.76c-0.078,0.264-0.54,1.908,0.442,3.241c0.153,0.208,0.486,0.659,0.99,0.834
			c1.149,0.398,2.906-0.733,4.182-2.896"/>
	</g>
	<g>
		<path d="M85.443,198.339c-0.218,0-0.429-0.033-0.63-0.103c-0.627-0.217-1.022-0.751-1.19-0.979
			c-1.051-1.426-0.656-3.131-0.51-3.62l0.815,0.244c-0.118,0.393-0.438,1.762,0.376,2.867c0.134,0.182,0.41,0.554,0.788,0.685
			c0.84,0.29,2.409-0.562,3.676-2.71l0.732,0.432C88.337,197.127,86.755,198.339,85.443,198.339z"/>
	</g>
</g>
<g>
	<g>
		<path d="M41.08,228.428c0.104-0.37,1.72,0.29,3.819-0.603c1.054-0.448,1.491-0.974,1.708-0.804
			c0.36,0.282-0.151,2.273-1.507,2.914C43.323,230.775,40.948,228.897,41.08,228.428z"/>
	</g>
	<g>
		<path d="M44.102,230.577c-1.135,0-2.219-0.625-2.79-1.106c-0.518-0.437-0.733-0.826-0.641-1.157l0,0
			c0.13-0.464,0.627-0.447,1.152-0.427c0.676,0.022,1.701,0.061,2.91-0.452c0.447-0.19,0.771-0.393,1.032-0.555
			c0.386-0.242,0.752-0.468,1.104-0.193c0.223,0.174,0.312,0.486,0.263,0.926c-0.084,0.748-0.66,2.144-1.85,2.707
			C44.895,230.502,44.495,230.577,44.102,230.577z M41.76,228.735c0.246,0.226,0.648,0.515,1.179,0.735
			c0.525,0.217,1.294,0.406,1.978,0.081c0.866-0.409,1.294-1.46,1.369-1.995c-0.025,0.015-0.049,0.031-0.072,0.045
			c-0.271,0.168-0.641,0.4-1.15,0.616c-1.382,0.588-2.569,0.545-3.273,0.52C41.782,228.736,41.771,228.735,41.76,228.735z"/>
	</g>
</g>
<g>
	<g>
		<path d="M69.819,232.146c-0.52,1.102-1.128,1.529-1.608,1.708c-0.726,0.272-1.342,0.048-1.708,0.502
			c-0.262,0.326-0.279,0.854-0.1,1.206c0.492,0.968,2.89,1.442,3.919,0.201C71.066,234.866,70.957,233.235,69.819,232.146"/>
	</g>
	<g>
		<path d="M68.51,236.935c-0.135,0-0.274-0.007-0.413-0.023c-0.957-0.107-1.77-0.561-2.073-1.157
			c-0.267-0.525-0.205-1.226,0.149-1.664c0.328-0.408,0.777-0.453,1.172-0.494c0.232-0.024,0.473-0.049,0.718-0.14
			c0.539-0.203,1.002-0.704,1.373-1.491c0.058-0.124,0.173-0.212,0.307-0.237c0.134-0.027,0.272,0.016,0.371,0.11
			c1.234,1.181,1.474,3.063,0.535,4.196C70.17,236.612,69.39,236.935,68.51,236.935z M69.899,232.891
			c-0.422,0.68-0.938,1.137-1.538,1.362c-0.348,0.129-0.671,0.163-0.93,0.189c-0.357,0.037-0.5,0.062-0.597,0.182
			c-0.144,0.178-0.168,0.52-0.053,0.746c0.168,0.332,0.761,0.625,1.41,0.697c0.759,0.087,1.434-0.129,1.803-0.574
			C70.489,234.896,70.524,233.794,69.899,232.891z"/>
	</g>
</g>
<g>
	<g>
		<path d="M69.819,240.788c0.468,0.661-0.048,2.102-1.005,2.713c-1.395,0.89-3.754,0.034-4.019-1.206
			c-0.147-0.686,0.333-1.551,1.005-1.909c0.12-0.064,0.408-0.198,1.708-0.1C68.885,240.389,69.574,240.441,69.819,240.788z"/>
	</g>
	<g>
		<path d="M67.456,244.295c-0.55,0-1.083-0.127-1.511-0.305c-0.854-0.357-1.425-0.942-1.567-1.605
			c-0.183-0.852,0.365-1.917,1.221-2.373c0.251-0.134,0.661-0.244,1.94-0.149c1.557,0.118,2.266,0.171,2.627,0.681l0,0
			c0.237,0.334,0.31,0.806,0.207,1.328c-0.154,0.791-0.677,1.572-1.331,1.989C68.551,244.173,67.995,244.295,67.456,244.295z
			 M66.703,240.677c-0.354,0-0.598,0.028-0.703,0.084c-0.516,0.276-0.893,0.964-0.789,1.446c0.081,0.375,0.487,0.759,1.063,0.998
			c0.813,0.341,1.721,0.316,2.311-0.061c0.461-0.294,0.844-0.871,0.954-1.437c0.056-0.288,0.032-0.533-0.067-0.673l0,0
			c-0.129-0.183-0.993-0.248-1.992-0.324C67.184,240.687,66.923,240.677,66.703,240.677z"/>
	</g>
</g>
<g>
	<g>
		<path d="M61.378,247.521L61.378,247.521c0,0,0.891,2.26,2.11,2.512c1.205,0.249,2.753-1.456,2.512-2.01
			c-0.184-0.422-1.273,0.139-2.512-0.603c-0.728-0.436-1.014-1.027-1.407-0.904C61.66,246.648,61.379,247.52,61.378,247.521z"/>
	</g>
	<g>
		<path d="M63.736,250.483c-0.111,0-0.222-0.011-0.333-0.034c-1.403-0.29-2.32-2.519-2.419-2.772
			c-0.037-0.091-0.04-0.193-0.009-0.286c0.081-0.254,0.394-1.097,0.98-1.281c0.468-0.143,0.811,0.168,1.114,0.445
			c0.178,0.162,0.378,0.345,0.639,0.501c0.606,0.363,1.151,0.362,1.615,0.362c0.398,0.003,0.878-0.002,1.067,0.436
			c0.21,0.482-0.177,1.069-0.426,1.376C65.43,249.887,64.569,250.483,63.736,250.483z M61.834,247.51
			c0.344,0.798,1.062,1.966,1.741,2.107c0.353,0.071,0.849-0.116,1.32-0.51c0.394-0.33,0.603-0.658,0.676-0.837
			c-0.076-0.004-0.165-0.003-0.247-0.003c-0.511,0.012-1.246,0.002-2.053-0.483c-0.334-0.199-0.578-0.422-0.775-0.602
			c-0.113-0.102-0.266-0.243-0.325-0.261C62.111,246.958,61.945,247.233,61.834,247.51z"/>
	</g>
</g>
<g>
	<g>
		<path d="M78.75,188.122l-0.676-0.516c0.448-0.586,1.247-1.387,2.507-1.879c1.861-0.728,3.586-0.319,4.24-0.11l-0.259,0.81
			c-0.569-0.183-2.063-0.538-3.673,0.091C79.813,186.939,79.132,187.623,78.75,188.122z"/>
	</g>
</g>
<g>
	<g>
		<path fill="#FFFFFF" d="M83.285,191.851c-0.166,0.51,0.085,1.451,0.1,1.507c0.137,0.501,0.36,0.912,0.502,1.105
			c1.006,1.364,5.022,1.391,6.13-0.703c0.049-0.093,0.608-1.188,0.1-2.11C89.003,189.624,83.782,190.326,83.285,191.851z"/>
	</g>
	<g>
		<path d="M86.523,195.847c-1.317,0-2.456-0.425-2.977-1.131c-0.176-0.239-0.418-0.691-0.57-1.246
			c-0.012-0.041-0.307-1.099-0.095-1.751c0.344-1.058,2.047-1.583,3.4-1.711c1.57-0.15,3.502,0.151,4.21,1.437
			c0.612,1.114-0.023,2.375-0.098,2.514c-0.557,1.053-1.829,1.753-3.402,1.87C86.833,195.841,86.676,195.847,86.523,195.847z
			 M87.05,190.821c-0.222,0-0.452,0.011-0.689,0.033c-1.488,0.141-2.527,0.684-2.672,1.128v0.001c-0.1,0.307,0.03,0.993,0.105,1.259
			c0.129,0.476,0.334,0.833,0.435,0.969c0.394,0.534,1.53,0.862,2.698,0.77c1.28-0.095,2.294-0.627,2.714-1.42
			c0.022-0.041,0.508-0.973,0.104-1.706C89.387,191.203,88.363,190.821,87.05,190.821z"/>
	</g>
</g>
</svg>
