<?xml version="1.0" encoding="utf-8"?>
<!-- Generator: Adobe Illustrator 22.0.1, SVG Export Plug-In . SVG Version: 6.00 Build 0)  -->
<svg version="1.1" id="Шар_1" xmlns="http://www.w3.org/2000/svg" xmlns:xlink="http://www.w3.org/1999/xlink" x="0px" y="0px"
	 width="825.335px" height="276.248px" viewBox="0 0 825.335 276.248" enable-background="new 0 0 825.335 276.248"
	 xml:space="preserve">
<g>
	<path d="M750.85,170.947c-0.007-0.056-0.059-0.093-0.08-0.145c-0.045-0.113-0.084-0.229-0.178-0.301c-0.001,0,0-0.001-0.001-0.002
		c-0.038-0.029-0.086-0.014-0.128-0.033c-0.111-0.053-0.221-0.114-0.358-0.096c-43.286,5.378-63.601,3.153-96.662-2.816
		c-21.334-3.855-54.873-8.073-59.097-4.884c-0.47,0.354-0.601,0.759-0.63,1.035c-0.016,0.161-0.047,0.33-0.023,0.525
		c0,0.008-0.007,0.013-0.007,0.021c0.394,3.94,0.831,6.571,1.223,9.515c0.385,2.882,0.883,6.871,1.269,10.726
		c-41.511,7.973-114.692,20.339-169.895,20.467c-0.286,0.001-0.555,0.001-0.841,0.001c-64.422,0-146.874-17.197-194.072-28.49
		l-0.889-18.792c0-0.011-0.01-0.016-0.011-0.027c0.007-1.176-0.244-2.109-0.344-2.464c-0.537-1.893-1.808-3.4-3.778-4.482
		c-10.327-5.676-38.439,1.4-54.277,6.124l-0.457,0.136c-27.901,8.288-41.549,10.334-96.584,2.799
		c-0.062-0.009-0.108,0.036-0.167,0.044c-0.059,0.007-0.115-0.025-0.172-0.002c-0.031,0.012-0.038,0.048-0.065,0.064
		c-0.078,0.044-0.122,0.103-0.177,0.174c-0.055,0.071-0.101,0.128-0.124,0.213c-0.009,0.031-0.042,0.047-0.046,0.079
		c-0.009,0.062,0.036,0.108,0.044,0.167c0.007,0.059-0.025,0.115-0.002,0.173c6.401,15.922,10.937,22.283,21.108,29.593
		c9.797,7.041,20.397,9.984,24.056,10.844c-2.803,2.393-11.32,9.404-23.292,16.896c-5.331,3.336-10.143,5.951-13.657,7.86
		c-0.888,0.483-1.707,0.928-2.452,1.34c-0.145,0.079-0.253,0.215-0.307,0.383c-0.002,0.008-0.013,0.011-0.015,0.019
		c0,0.001-0.001,0.001-0.001,0.002c-0.036,0.126,0.008,0.244,0.042,0.361c0.014,0.049-0.009,0.1,0.016,0.146c0,0,0,0,0.001,0.001
		c0.001,0.002,0.003,0.002,0.004,0.004c0.08,0.142,0.21,0.226,0.352,0.279c0.019,0.008,0.026,0.031,0.046,0.036
		c21.087,5.989,39.471,9.001,56.254,9.001c19.575,0,37.68-4.47,54.646-12.74l0.124,8.148c0.026,1.76,1.347,3.603,3.004,4.194
		c1.099,0.392,111.252,39.203,231.02,39.203c103.043,0,204.814-34.098,205.831-34.443c1.685-0.572,2.96-2.411,2.9-4.188
		l-0.129-3.852c22.067,8.946,43.345,16.33,68.958,16.33c12.744,0,26.988-1.893,42.504-6.266c0.035-0.01,0.046-0.047,0.078-0.061
		c0.172-0.059,0.328-0.162,0.407-0.342c0.146-0.34-0.01-0.733-0.35-0.879c-20.79-8.963-35.389-19.17-47.171-33.008
		c9.246-2.453,18.24-6.731,26.749-12.723c9.308-6.555,17.948-15.094,25.681-25.38c0.068-0.09,0.061-0.199,0.078-0.303
		c0.011-0.064,0.058-0.114,0.05-0.181C750.853,170.949,750.85,170.948,750.85,170.947z M595.222,165.953
		c2.789,1.874,10.529,5.277,31.661,12.303c-3.923,0.853-14.502,3.111-29.383,5.983c-0.39-3.838-0.881-7.786-1.262-10.649
		C595.912,171.151,595.556,168.885,595.222,165.953z M230.015,176.146c-13.846-3.327-24.514-6.109-30.616-7.74
		c0.879,0.034,1.752,0.086,2.64,0.086c11.985,0,23.652-1.548,27.281-7.032L230.015,176.146z M190.278,169.448l0.819,53.792
		c-30.947,15.26-64.125,16.806-108.908,4.344c0.334-0.182,0.628-0.344,0.985-0.538c3.528-1.918,8.361-4.543,13.729-7.901
		c14.809-9.268,24.378-17.817,24.474-17.902c0.191-0.171,0.266-0.435,0.197-0.681c-0.071-0.246-0.273-0.43-0.525-0.475
		c-0.129-0.024-13.061-2.437-24.84-10.903c-9.689-6.963-14.153-13.096-20.21-27.939c54.326,7.382,68.085,5.295,95.998-2.996
		l0.457-0.137c26.999-8.052,45.913-10.266,53.252-6.232c1.667,0.916,2.692,2.117,3.134,3.674c0.121,0.426,0.443,1.557,0.243,2.919
		c-0.972,6.664-13.778,9.491-36.227,8.252c-0.054-0.004-0.099,0.043-0.153,0.055c-0.529,0.023-1.033,0.14-1.435,0.451
		C190.625,167.725,190.265,168.532,190.278,169.448z M630.67,240.538c-1.014,0.344-102.577,34.373-205.402,34.373
		c-119.529,0-229.474-38.734-230.571-39.125c-1.129-0.404-2.098-1.757-2.116-2.956l-0.965-63.403
		c-0.008-0.495,0.158-0.899,0.468-1.135c0.198-0.152,0.446-0.229,0.725-0.23c0.007,0,0.013,0.001,0.02,0.001
		c0.15,0.002,0.308,0.023,0.471,0.069c1.358,0.383,136.533,38.166,232.145,38.166c0.281,0,0.563-0.001,0.843-0.001
		c81.263-0.189,201.371-26.836,202.575-27.105c0.494-0.11,0.967-0.021,1.314,0.249c0.353,0.272,0.554,0.701,0.57,1.21l1.915,57.01
		C632.7,238.841,631.788,240.159,630.67,240.538z M724.276,195.721c-8.692,6.121-17.89,10.423-27.34,12.786
		c-0.225,0.056-0.402,0.223-0.473,0.442c-0.073,0.219-0.026,0.46,0.123,0.636c11.707,14.021,26.147,24.373,46.605,33.415
		c-45.628,12.396-75.625,3.015-109.371-10.695l-1.736-51.696c-0.029-0.914-0.415-1.703-1.087-2.225
		c-0.153-0.119-0.344-0.154-0.514-0.236c-0.067-0.062-0.112-0.145-0.204-0.176c-33.67-11.078-35.26-13.421-35.232-14.129
		c0.914-2.319,27.052-0.59,58.159,5.028c32.777,5.919,53.122,8.158,95.472,3.014C741.28,181.493,733.081,189.52,724.276,195.721z"/>
</g>
<g>
	<g>
		<path d="M38.711,192.948c-4.499,0-7.996-1.003-9.538-1.446c-1.969-0.564-6.066-1.739-10.25-5.109
			c-1.86-1.498-5.32-4.769-7.593-9.853c-0.644-1.438-1.842-4.116-2.056-7.868c-0.11-1.894,0.048-3.802,0.466-5.67l0.133-0.593
			l0.602,0.076c4.5,0.559,8.898,0.01,12.718-1.595c4.147-1.743,6.948-4.398,9.658-6.968c1.206-1.143,1.692-1.719,2.662-2.867
			c0.775-0.92,1.844-2.185,3.805-4.362c4.921-5.461,7.182-7.917,9.209-8.899c5.444-2.637,10.975-1.383,13.1-0.722
			c5.674,1.769,9.438,4.8,10.595,8.534c0.541,1.744,0.4,3.221,0.263,4.65c-0.162,1.697-0.315,3.3,0.605,5.429l0,0
			c0.64,1.483,1.637,2.828,2.964,4l1.035,0.916l-8.68,1.562c-0.319,0.427-0.61,0.878-0.867,1.342
			c-1.829,3.292-1.591,6.543-1.433,8.694c0.031,0.415,0.057,0.782,0.065,1.092c0.178,7.344-9.364,15.152-18.307,18.174
			C44.587,192.572,41.461,192.948,38.711,192.948z M10.924,163.883c-0.299,1.558-0.405,3.14-0.315,4.714
			c0.201,3.506,1.334,6.037,1.941,7.397c2.159,4.828,5.446,7.934,7.212,9.357c3.974,3.202,7.895,4.325,9.78,4.866
			c2.64,0.756,9.648,2.764,17.897-0.02c8.53-2.883,17.556-10.351,17.398-16.875c-0.007-0.29-0.033-0.635-0.061-1.025
			c-0.159-2.17-0.426-5.801,1.596-9.443c0.332-0.597,0.715-1.174,1.136-1.715l0.158-0.201l6.546-1.178
			c-1.007-1.074-1.795-2.261-2.349-3.544c-1.055-2.444-0.879-4.296-0.708-6.086c0.129-1.357,0.252-2.64-0.209-4.126
			c-1.024-3.302-4.474-6.019-9.715-7.653c-1.541-0.481-6.965-1.85-12.121,0.649c-1.877,0.909-4.335,3.638-8.799,8.591
			c-1.945,2.159-3.007,3.416-3.776,4.328c-0.971,1.149-1.505,1.782-2.759,2.972c-2.802,2.656-5.694,5.397-10.066,7.234
			C19.851,163.746,15.447,164.345,10.924,163.883z"/>
	</g>
	<g>
		<path d="M64.633,152.827c-0.003,0-0.005,0-0.008,0c-0.368-0.004-0.665-0.307-0.661-0.677c0.013-1.153-0.584-2.221-1.52-2.718
			c-1.221-0.651-2.807-0.282-3.765,0.871c-0.234,0.287-0.656,0.321-0.942,0.088c-0.285-0.236-0.324-0.658-0.088-0.942
			c1.361-1.638,3.643-2.144,5.421-1.198c1.395,0.742,2.249,2.242,2.231,3.915C65.298,152.533,64.998,152.827,64.633,152.827z"/>
	</g>
	<g>
		<path fill="#EFD5DF" d="M42.012,157.246c1.127,0.36,1.376,2.487,1.473,3.311c0.391,3.335-0.787,10.736-3.775,14.16
			c-5.382,6.167-21.364,4.847-38.032-5.661c16.564,2.29,23.41-0.438,26.512-3.616c1.341-1.373,5.05-3.555,12.467-7.919
			C40.873,157.394,41.449,157.066,42.012,157.246z"/>
	</g>
	<g>
		<path fill="#EFD5DF" d="M10.456,162.838c-3.28,0.388-7.657-12.44-9.105-21.625c-1.038-6.585-0.812-12.828,0.17-12.993
			c1.069-0.179,2.898,6.86,4.035,6.614c0.523-0.113,0.46-1.669,1.37-5.613c0.71-3.078,1.016-3.293,1.196-3.303
			c1.046-0.059,1.542,6.549,3.255,6.689c1.316,0.108,2.151-3.7,2.799-3.606C16.054,129.272,15.607,162.229,10.456,162.838z"/>
		<path d="M10.315,163.515c-4.273,0-8.425-14.584-9.626-22.197c-0.443-2.807-1.617-13.366,0.72-13.757
			c1.045-0.157,1.656,1.257,2.674,3.625c0.345,0.805,0.87,2.027,1.259,2.65c0.063-0.294,0.131-0.684,0.201-1.088
			c0.154-0.882,0.364-2.086,0.73-3.676c0.742-3.223,1.102-3.78,1.81-3.821c0.963-0.074,1.361,1.236,1.903,3.198
			c0.261,0.944,0.956,3.452,1.443,3.493c0.193-0.004,0.613-0.618,1.214-1.882c0.504-1.061,0.827-1.822,1.628-1.72
			c0.515,0.074,1.723,0.249,1.578,11.362c-0.05,3.876-0.543,23.238-5.315,23.801l0,0C10.461,163.511,10.388,163.515,10.315,163.515z
			 M1.657,129.179c-0.408,1.449-0.556,6.156,0.354,11.93c1.628,10.321,5.994,21.292,8.367,21.066l0,0
			c0.26-0.031,0.79-0.297,1.425-1.729c2.995-6.762,3.115-26.084,2.245-30.22c-0.068,0.138-0.135,0.281-0.196,0.408
			c-0.609,1.284-1.325,2.734-2.532,2.641c-1.419-0.116-2.004-2.23-2.623-4.467c-0.145-0.524-0.337-1.219-0.515-1.712
			c-0.141,0.426-0.341,1.126-0.606,2.278c-0.359,1.558-0.566,2.741-0.716,3.605c-0.281,1.612-0.409,2.347-1.163,2.511
			c-1.133,0.252-1.807-1.355-2.845-3.775C2.504,130.896,2.014,129.756,1.657,129.179z"/>
	</g>
	<g>
		<path fill="none" stroke="#000000" stroke-width="0.5" stroke-linecap="round" stroke-miterlimit="10" d="M30.439,208.209"/>
	</g>
	<g>
		<path d="M38.226,208.412c-0.185,0-0.37-0.077-0.503-0.227c-1.406-1.6-3.42-2.696-5.527-3.006l-0.456-0.068l-0.099-0.451
			c-0.944-4.277-0.905-8.791,0.115-13.055c0.085-0.359,0.438-0.59,0.806-0.495c0.359,0.086,0.581,0.447,0.495,0.806
			c-0.939,3.923-1.007,8.067-0.202,12.017c2.245,0.44,4.365,1.65,5.874,3.367c0.243,0.278,0.216,0.7-0.061,0.944
			C38.54,208.357,38.382,208.412,38.226,208.412z"/>
	</g>
	<g>
		<path d="M35.189,209.902c-0.255,0-0.498-0.146-0.61-0.395c-0.618-1.372-1.583-2.572-2.793-3.475
			c-0.256-0.189-0.645-0.478-0.754-0.982c-0.085-0.411,0.094-0.85,0.447-1.096c0.316-0.216,0.703-0.231,1.014-0.037
			c0.312,0.196,0.408,0.609,0.212,0.922c-0.03,0.048-0.067,0.091-0.107,0.131c1.386,1.037,2.492,2.415,3.202,3.988
			c0.152,0.336,0.001,0.733-0.336,0.884C35.374,209.884,35.281,209.902,35.189,209.902z"/>
	</g>
	<g>
		<path d="M29.453,209.156c-0.052,0-0.106-0.007-0.161-0.02c-0.358-0.089-0.577-0.451-0.489-0.81
			c0.283-1.152,0.694-2.272,1.219-3.33c0.14-0.281,0.4-0.805,0.908-1.097c0.33-0.191,0.75-0.243,1.119-0.136
			c0.325,0.095,0.585,0.306,0.731,0.592c0.17,0.328,0.04,0.732-0.289,0.9c-0.327,0.17-0.73,0.042-0.9-0.289
			c-0.152,0.183-0.295,0.47-0.371,0.624c-0.482,0.971-0.858,1.999-1.119,3.057C30.028,208.952,29.753,209.156,29.453,209.156z"/>
	</g>
	<g>
		<path fill="none" stroke="#000000" stroke-width="0.5" stroke-linecap="round" stroke-miterlimit="10" d="M41.174,208.716"/>
	</g>
	<g>
		<path d="M48.96,208.918c-0.185,0-0.37-0.077-0.503-0.227c-1.406-1.6-3.42-2.696-5.527-3.006l-0.456-0.068l-0.099-0.451
			c-0.944-4.278-0.905-8.792,0.115-13.055c0.084-0.359,0.442-0.589,0.806-0.495c0.359,0.086,0.581,0.447,0.495,0.806
			c-0.938,3.921-1.007,8.067-0.202,12.017c2.245,0.44,4.365,1.65,5.874,3.368c0.243,0.278,0.216,0.7-0.061,0.944
			C49.275,208.864,49.117,208.918,48.96,208.918z"/>
	</g>
	<g>
		<path d="M45.923,210.409c-0.255,0-0.498-0.146-0.61-0.394c-0.618-1.372-1.583-2.572-2.793-3.475
			c-0.256-0.189-0.645-0.478-0.754-0.982c-0.085-0.41,0.094-0.849,0.445-1.095c0.313-0.218,0.7-0.233,1.012-0.04
			c0.313,0.195,0.41,0.606,0.216,0.921c-0.031,0.05-0.068,0.094-0.108,0.133c1.386,1.037,2.492,2.415,3.202,3.989
			c0.152,0.336,0.001,0.733-0.336,0.884C46.109,210.391,46.016,210.409,45.923,210.409z"/>
	</g>
	<g>
		<path d="M40.188,209.662c-0.052,0-0.106-0.007-0.161-0.02c-0.358-0.089-0.577-0.451-0.489-0.81
			c0.285-1.152,0.695-2.272,1.219-3.328c0.206-0.415,0.458-0.839,0.905-1.097c0.336-0.193,0.755-0.243,1.125-0.135
			c0.323,0.095,0.583,0.304,0.729,0.59c0.17,0.328,0.04,0.731-0.289,0.9c-0.327,0.174-0.728,0.042-0.9-0.289
			c-0.133,0.171-0.257,0.394-0.371,0.624c-0.482,0.971-0.858,1.997-1.119,3.055C40.762,209.458,40.488,209.662,40.188,209.662z"/>
	</g>
</g>
<g>
	<g>
		<path d="M786.626,203.648c-2.754,0-5.878-0.375-9.157-1.483c-8.94-3.021-18.483-10.829-18.306-18.174
			c0.008-0.308,0.034-0.674,0.065-1.088c0.159-2.151,0.397-5.404-1.432-8.7c-0.256-0.462-0.549-0.913-0.867-1.34l-8.684-1.564
			l1.037-0.914c1.327-1.17,2.323-2.516,2.963-4l0,0c0.92-2.129,0.768-3.732,0.606-5.429c-0.138-1.429-0.28-2.906,0.264-4.65
			c1.157-3.736,4.919-6.766,10.594-8.534c2.124-0.66,7.657-1.916,13.102,0.722c2.025,0.982,4.287,3.438,9.209,8.899
			c1.954,2.171,3.023,3.437,3.799,4.355c0.972,1.151,1.46,1.728,2.662,2.87c2.709,2.569,5.512,5.226,9.664,6.971
			c3.822,1.607,8.227,2.155,12.718,1.595l0.604-0.076l0.133,0.593c0.415,1.867,0.575,3.775,0.468,5.67
			c-0.217,3.754-1.416,6.431-2.059,7.868c-2.158,4.824-5.319,8.02-7.592,9.853c-4.183,3.369-8.279,4.544-10.249,5.109
			C794.622,202.646,791.122,203.648,786.626,203.648z M751.124,170.46l6.55,1.178l0.157,0.201c0.421,0.541,0.805,1.118,1.136,1.715
			c2.022,3.644,1.756,7.277,1.594,9.447c-0.026,0.389-0.052,0.733-0.06,1.023c-0.157,6.523,8.869,13.993,17.397,16.874
			c8.242,2.784,15.262,0.777,17.898,0.02c1.886-0.541,5.81-1.665,9.779-4.866c1.769-1.424,5.055-4.534,7.211-9.357
			c0.611-1.36,1.742-3.89,1.944-7.397c0.089-1.574-0.016-3.157-0.313-4.714c-4.52,0.464-8.927-0.136-12.788-1.76
			c-4.379-1.841-7.271-4.582-10.066-7.235c-1.257-1.191-1.792-1.825-2.764-2.977c-0.771-0.91-1.831-2.167-3.77-4.321
			c-4.318-4.79-6.923-7.682-8.801-8.591c-5.152-2.498-10.578-1.127-12.119-0.649c-5.241,1.633-8.692,4.35-9.713,7.653
			c-0.462,1.487-0.34,2.769-0.212,4.126c0.172,1.791,0.347,3.642-0.708,6.086C752.919,168.199,752.133,169.386,751.124,170.46z"/>
	</g>
	<g>
		<path d="M760.704,163.528c-0.366,0-0.664-0.294-0.669-0.661c-0.018-1.672,0.836-3.173,2.231-3.915
			c1.776-0.94,4.06-0.442,5.421,1.198c0.235,0.283,0.196,0.705-0.086,0.942c-0.285,0.233-0.705,0.199-0.943-0.088
			c-0.959-1.153-2.537-1.519-3.765-0.871c-0.935,0.499-1.534,1.566-1.52,2.718c0.005,0.37-0.293,0.673-0.661,0.677
			C760.71,163.528,760.707,163.528,760.704,163.528z"/>
	</g>
	<g>
		<path fill="#EFD5DF" d="M783.326,167.946c-1.127,0.36-1.376,2.487-1.473,3.311c-0.391,3.335,0.787,10.736,3.775,14.16
			c5.382,6.167,21.364,4.847,38.032-5.661c-16.564,2.29-23.41-0.438-26.512-3.616c-1.341-1.373-5.05-3.555-12.467-7.919
			C784.464,168.095,783.889,167.767,783.326,167.946z"/>
	</g>
	<g>
		<path fill="#EFD5DF" d="M814.881,173.539c3.28,0.388,7.657-12.44,9.105-21.625c1.038-6.585,0.812-12.828-0.17-12.993
			c-1.069-0.179-2.898,6.86-4.035,6.614c-0.523-0.113-0.46-1.669-1.37-5.613c-0.71-3.078-1.016-3.293-1.196-3.303
			c-1.046-0.059-1.542,6.549-3.255,6.689c-1.316,0.108-2.151-3.7-2.799-3.606C809.284,139.973,809.73,172.93,814.881,173.539z"/>
		<path d="M815.023,174.215c-0.073,0-0.146-0.004-0.219-0.013c-4.773-0.563-5.267-19.924-5.316-23.8
			c-0.146-11.114,1.063-11.289,1.578-11.363c0.786-0.105,1.123,0.658,1.628,1.72c0.601,1.264,0.964,1.835,1.212,1.882
			c0.489-0.04,1.183-2.55,1.445-3.494c0.53-1.918,0.886-3.199,1.839-3.199c0.021,0,0.042,0.001,0.065,0.003
			c0.705,0.04,1.066,0.598,1.808,3.821c0.368,1.59,0.577,2.794,0.732,3.676c0.071,0.404,0.138,0.796,0.201,1.089
			c0.389-0.624,0.914-1.85,1.262-2.654c1.019-2.368,1.638-3.789,2.67-3.622c2.336,0.392,1.163,10.95,0.721,13.757
			C823.449,159.631,819.298,174.215,815.023,174.215z M811.288,140.927c-0.867,4.136-0.747,23.456,2.247,30.217
			c0.47,1.063,0.977,1.677,1.426,1.731l0,0c0.029,0.003,0.06,0.005,0.089,0.005c2.38,0,6.67-10.878,8.276-21.071
			c0.909-5.772,0.76-10.479,0.355-11.929c-0.358,0.577-0.846,1.715-1.197,2.53c-1.037,2.419-1.698,4.017-2.845,3.779
			c-0.755-0.165-0.883-0.9-1.163-2.512c-0.152-0.865-0.358-2.047-0.716-3.605c-0.266-1.149-0.465-1.851-0.609-2.277
			c-0.178,0.494-0.368,1.186-0.512,1.709c-0.622,2.239-1.207,4.354-2.626,4.47c-1.215,0.091-1.923-1.357-2.531-2.641
			C811.423,141.207,811.356,141.064,811.288,140.927z"/>
	</g>
	<g>
		<path fill="none" stroke="#000000" stroke-width="0.5" stroke-linecap="round" stroke-miterlimit="10" d="M794.898,218.91"/>
	</g>
	<g>
		<path d="M787.112,219.112c-0.157,0-0.313-0.055-0.441-0.166c-0.277-0.244-0.306-0.667-0.06-0.944
			c1.51-1.718,3.629-2.929,5.875-3.368c0.805-3.951,0.734-8.096-0.206-12.017c-0.086-0.359,0.136-0.72,0.494-0.806
			c0.355-0.085,0.721,0.136,0.807,0.495c1.021,4.261,1.063,8.775,0.118,13.055l-0.099,0.451l-0.457,0.068
			c-2.106,0.308-4.12,1.404-5.528,3.006C787.483,219.035,787.297,219.112,787.112,219.112z M793.045,215.217h0.016H793.045z"/>
	</g>
	<g>
		<path d="M790.147,220.603c-0.091,0-0.186-0.02-0.277-0.06c-0.334-0.152-0.486-0.547-0.332-0.884
			c0.713-1.577,1.821-2.955,3.203-3.988c-0.042-0.038-0.076-0.08-0.107-0.128c-0.196-0.313-0.102-0.726,0.212-0.922
			c0.311-0.197,0.698-0.179,1.008,0.033c0.353,0.244,0.536,0.683,0.452,1.092c-0.11,0.511-0.499,0.799-0.758,0.99
			c-1.204,0.897-2.171,2.099-2.793,3.475C790.644,220.457,790.401,220.603,790.147,220.603z"/>
	</g>
	<g>
		<path d="M795.884,219.857c-0.3,0-0.575-0.204-0.651-0.508c-0.259-1.057-0.635-2.085-1.116-3.057
			c-0.078-0.153-0.222-0.442-0.379-0.533c-0.17,0.33-0.572,0.409-0.901,0.242c-0.327-0.17-0.452-0.619-0.282-0.947
			c0.149-0.286,0.408-0.495,0.734-0.589c0.371-0.107,0.786-0.055,1.121,0.137c0.502,0.291,0.763,0.814,0.904,1.095
			c0.525,1.061,0.935,2.181,1.22,3.331c0.086,0.359-0.131,0.721-0.491,0.81C795.991,219.85,795.937,219.857,795.884,219.857z"/>
	</g>
	<g>
		<path fill="none" stroke="#000000" stroke-width="0.5" stroke-linecap="round" stroke-miterlimit="10" d="M784.163,219.416"/>
	</g>
	<g>
		<path d="M776.377,219.619c-0.157,0-0.313-0.055-0.441-0.166c-0.277-0.244-0.306-0.667-0.06-0.944
			c1.51-1.718,3.629-2.929,5.875-3.368c0.805-3.953,0.734-8.097-0.206-12.017c-0.086-0.359,0.136-0.72,0.494-0.806
			c0.36-0.085,0.724,0.136,0.807,0.495c1.021,4.261,1.063,8.775,0.118,13.055l-0.099,0.451l-0.457,0.068
			c-2.106,0.308-4.12,1.404-5.528,3.006C776.748,219.542,776.562,219.619,776.377,219.619z M782.31,215.724h0.016H782.31z"/>
	</g>
	<g>
		<path d="M779.413,221.11c-0.091,0-0.185-0.02-0.277-0.06c-0.334-0.152-0.486-0.547-0.332-0.884
			c0.713-1.577,1.821-2.956,3.203-3.988c-0.042-0.039-0.076-0.082-0.107-0.132c-0.196-0.314-0.099-0.726,0.214-0.921
			c0.308-0.192,0.698-0.18,1.006,0.037c0.353,0.244,0.536,0.683,0.452,1.091c-0.11,0.511-0.499,0.799-0.758,0.99
			c-1.204,0.897-2.171,2.099-2.793,3.475C779.909,220.963,779.666,221.11,779.413,221.11z"/>
	</g>
	<g>
		<path d="M785.15,220.363c-0.3,0-0.575-0.204-0.651-0.508c-0.259-1.057-0.635-2.083-1.116-3.055
			c-0.115-0.229-0.24-0.453-0.381-0.534c-0.17,0.325-0.572,0.413-0.899,0.242c-0.327-0.17-0.452-0.618-0.282-0.946
			c0.146-0.285,0.408-0.494,0.732-0.589c0.363-0.108,0.784-0.061,1.121,0.136c0.447,0.259,0.7,0.681,0.907,1.097
			c0.525,1.059,0.935,2.179,1.22,3.328c0.086,0.359-0.131,0.721-0.491,0.81C785.257,220.356,785.202,220.363,785.15,220.363z"/>
	</g>
</g>
<path fill="#1E1E1C" d="M263.396,212.386c0.26-1.11,0.472-2.179,0.635-3.208c0.163-1.028,0.076-1.881-0.259-2.559
	c-0.475-0.97-1.385-1.918-2.729-2.845c-1.344-0.926-3.04-1.63-5.087-2.11c-1.579-0.37-3.146-0.373-4.701-0.009
	c-1.556,0.364-2.993,1.029-4.312,1.994c-1.319,0.966-2.471,2.186-3.453,3.659c-0.984,1.474-1.691,3.136-2.125,4.986
	c-0.411,1.751-0.53,3.454-0.358,5.107c0.171,1.654,0.624,3.165,1.357,4.533c0.733,1.369,1.731,2.546,2.997,3.532
	c1.265,0.986,2.773,1.684,4.524,2.095c1.11,0.26,2.175,0.406,3.196,0.437c1.02,0.031,2.006-0.095,2.958-0.38
	c0.951-0.284,1.882-0.73,2.792-1.336c0.909-0.607,1.796-1.419,2.66-2.44l-0.61-0.729c-1.429,1.435-2.914,2.439-4.454,3.015
	c-1.54,0.576-3.235,0.647-5.085,0.213c-1.579-0.37-2.854-1.007-3.826-1.912c-0.972-0.904-1.694-1.959-2.166-3.162
	c-0.473-1.204-0.719-2.51-0.74-3.92c-0.021-1.41,0.131-2.805,0.455-4.187c0.52-2.22,1.191-4.027,2.013-5.422
	c0.821-1.394,1.747-2.459,2.778-3.193c1.031-0.734,2.13-1.179,3.299-1.334c1.168-0.155,2.357-0.091,3.565,0.192
	c2.047,0.48,3.572,1.436,4.577,2.868c1.004,1.432,1.457,3.412,1.359,5.939L263.396,212.386z"/>
<path fill="#1E1E1C" d="M284.996,215.879l-17.159-3.336l-0.145,0.746l0.373,0.073c1.119,0.218,1.767,0.699,1.945,1.443
	c0.178,0.745,0.158,1.676-0.059,2.795l-2.538,13.056l3.357,0.653l3.118-16.04l7.46,1.45l-3.118,16.04l3.357,0.653L284.996,215.879z"
	/>
<path fill="#1E1E1C" d="M299.814,232.834c-0.469,0.514-1.01,0.959-1.623,1.333c-0.613,0.375-1.382,0.487-2.307,0.336
	c-0.475-0.077-0.914-0.219-1.317-0.426c-0.403-0.206-0.742-0.487-1.018-0.84c-0.276-0.353-0.478-0.771-0.604-1.253
	c-0.127-0.483-0.141-1.024-0.043-1.624c0.183-1.125,0.862-1.944,2.037-2.459c1.174-0.514,2.7-0.619,4.575-0.313l1.125,0.184
	L299.814,232.834z M302.608,236.947l1.651-10.126c0.273-1.675,0.313-3.061,0.12-4.158c-0.194-1.096-0.551-1.976-1.071-2.639
	c-0.521-0.662-1.16-1.152-1.917-1.468c-0.757-0.316-1.561-0.543-2.411-0.682c-0.576-0.094-1.148-0.161-1.719-0.203
	c-0.571-0.041-1.115-0.053-1.631-0.035c-0.517,0.019-0.995,0.082-1.436,0.189c-0.441,0.108-0.792,0.256-1.054,0.444
	c-0.553,0.398-0.912,0.872-1.079,1.422c-0.167,0.55-0.303,1.151-0.409,1.801l1.688,0.275c0.475-1.18,1.105-1.937,1.891-2.271
	c0.786-0.334,1.704-0.415,2.754-0.244c0.55,0.09,1.055,0.262,1.514,0.516c0.459,0.255,0.826,0.642,1.1,1.161
	c0.274,0.52,0.443,1.215,0.507,2.085c0.063,0.871-0.011,1.956-0.223,3.256l-1.125-0.184c-1.275-0.208-2.501-0.324-3.678-0.349
	c-1.177-0.025-2.235,0.092-3.175,0.349c-0.941,0.258-1.728,0.681-2.363,1.27c-0.635,0.589-1.036,1.397-1.203,2.422
	c-0.167,1.025-0.118,1.906,0.147,2.642c0.265,0.736,0.64,1.35,1.125,1.839c0.484,0.49,1.026,0.867,1.625,1.131
	c0.598,0.264,1.16,0.439,1.685,0.525c1.425,0.232,2.599,0.193,3.523-0.119c0.923-0.312,1.611-0.674,2.064-1.088l0.188,0.031
	l1.038,1.902L302.608,236.947z"/>
<path fill="#1E1E1C" d="M316.575,221.282c-1.108,0.349-2.057,0.892-2.846,1.629c-0.79,0.737-1.429,1.642-1.919,2.713
	c-0.49,1.072-0.821,2.247-0.993,3.528c-0.173,1.28-0.165,2.502,0.023,3.665c0.188,1.163,0.565,2.204,1.132,3.124
	c0.566,0.92,1.337,1.695,2.313,2.325c0.975,0.63,2.166,1.04,3.573,1.23c1.506,0.203,2.871,0.08,4.095-0.368
	c1.223-0.449,2.358-1.331,3.405-2.647l-0.677-0.667c-0.782,0.866-1.622,1.507-2.522,1.922c-0.9,0.415-2.015,0.534-3.345,0.354
	c-0.954-0.129-1.743-0.439-2.367-0.933c-0.624-0.493-1.115-1.115-1.474-1.867c-0.359-0.751-0.582-1.612-0.668-2.583
	c-0.087-0.97-0.057-1.995,0.089-3.075c0.146-1.079,0.388-2.076,0.729-2.988c0.34-0.913,0.783-1.683,1.328-2.313
	c0.545-0.629,1.184-1.099,1.916-1.41c0.732-0.31,1.575-0.401,2.529-0.272c1.33,0.179,2.402,0.714,3.216,1.603
	c0.813,0.89,1.161,2.145,1.045,3.764l0.753,0.102c0.095-0.703,0.17-1.313,0.227-1.829c0.056-0.516,0.085-0.966,0.086-1.35
	c0-0.383-0.05-0.722-0.15-1.017c-0.101-0.295-0.249-0.57-0.444-0.827c-0.413-0.541-1.064-0.974-1.953-1.299
	c-0.89-0.324-1.999-0.576-3.33-0.756C318.939,220.853,317.683,220.933,316.575,221.282z"/>
<path fill="#1E1E1C" d="M343.547,242.136l3.401,0.362l1.889-17.76l-3.401-0.362l-9.463,13.515l1.045-9.824
	c0.099-0.932,0.129-1.699,0.092-2.302c-0.038-0.602-0.171-1.088-0.399-1.456s-0.557-0.633-0.986-0.793
	c-0.429-0.16-0.971-0.275-1.626-0.345l-3.212-0.342l-0.08,0.756l0.567,0.06c1.134,0.121,1.821,0.544,2.062,1.27
	c0.241,0.727,0.301,1.656,0.181,2.79l-1.407,13.225l3.401,0.362l9.463-13.515L343.547,242.136z"/>
<path fill="#1E1E1C" d="M365.526,229.155c0.513,0.269,0.949,0.697,1.31,1.284c0.36,0.587,0.626,1.339,0.796,2.254
	c0.17,0.915,0.204,2.03,0.101,3.343c-0.106,1.364-0.315,2.491-0.626,3.382c-0.311,0.891-0.689,1.585-1.135,2.084
	c-0.446,0.499-0.942,0.835-1.489,1.008c-0.547,0.174-1.099,0.238-1.654,0.195c-0.581-0.045-1.122-0.195-1.623-0.451
	c-0.501-0.255-0.933-0.664-1.296-1.225c-0.363-0.562-0.629-1.307-0.798-2.235c-0.169-0.928-0.2-2.074-0.094-3.438
	c0.103-1.313,0.308-2.409,0.618-3.287c0.31-0.878,0.688-1.579,1.136-2.103c0.447-0.524,0.939-0.88,1.474-1.066
	c0.535-0.187,1.093-0.258,1.675-0.212C364.479,228.73,365.013,228.886,365.526,229.155z M370.108,222.69
	c0.771-0.117,1.195-0.656,1.27-1.616l0.192-2.463l-0.758-0.059c-0.139,0.472-0.45,0.803-0.935,0.994
	c-0.485,0.191-1.165,0.354-2.039,0.489l-5.786,0.883c-1.003,0.15-1.876,0.432-2.62,0.844c-0.744,0.412-1.366,1.063-1.867,1.951
	c-0.502,0.889-0.912,2.076-1.231,3.563c-0.32,1.487-0.569,3.393-0.751,5.716l-0.118,1.515c-0.126,1.617-0.032,3.015,0.283,4.196
	c0.314,1.181,0.797,2.165,1.447,2.952c0.65,0.788,1.448,1.39,2.394,1.807c0.945,0.417,1.987,0.67,3.124,0.758
	c1.137,0.089,2.204,0,3.203-0.265c0.999-0.265,1.879-0.717,2.641-1.357c0.761-0.639,1.386-1.48,1.874-2.522
	c0.487-1.042,0.789-2.295,0.903-3.76c0.114-1.464,0.017-2.749-0.29-3.853c-0.308-1.104-0.77-2.029-1.384-2.776
	c-0.615-0.747-1.345-1.325-2.19-1.734c-0.845-0.409-1.735-0.65-2.669-0.723c-1.894-0.148-3.417,0.147-4.566,0.883
	c-1.15,0.736-2.039,2.033-2.667,3.889l-0.189-0.015c0.223-1.558,0.501-2.845,0.835-3.861c0.333-1.016,0.746-1.829,1.238-2.438
	c0.492-0.61,1.061-1.061,1.707-1.353c0.645-0.293,1.38-0.508,2.204-0.648L370.108,222.69z"/>
<path fill="#1E1E1C" d="M390.125,239.659c-0.276,0.937-0.64,1.743-1.093,2.418c-0.453,0.675-0.981,1.2-1.583,1.574
	c-0.603,0.375-1.258,0.545-1.966,0.509c-0.709-0.036-1.344-0.271-1.905-0.706c-0.562-0.434-1.033-1.01-1.415-1.727
	c-0.382-0.717-0.663-1.556-0.842-2.516c-0.179-0.96-0.241-1.984-0.186-3.072c0.055-1.088,0.221-2.1,0.497-3.038
	c0.276-0.937,0.641-1.743,1.093-2.418c0.453-0.674,0.98-1.199,1.583-1.574c0.602-0.375,1.258-0.545,1.967-0.509
	c0.708,0.036,1.343,0.272,1.904,0.706c0.561,0.435,1.033,1.01,1.415,1.727c0.382,0.717,0.663,1.556,0.842,2.516
	c0.179,0.96,0.241,1.985,0.186,3.072C390.567,237.71,390.401,238.722,390.125,239.659z M377.895,239.607
	c0.309,1.145,0.804,2.153,1.482,3.024c0.679,0.872,1.518,1.58,2.517,2.126c1,0.546,2.169,0.853,3.511,0.921
	c1.315,0.067,2.504-0.12,3.567-0.56c1.062-0.44,1.975-1.06,2.739-1.858c0.764-0.798,1.357-1.751,1.782-2.858
	c0.424-1.107,0.669-2.306,0.735-3.596s-0.057-2.508-0.366-3.652c-0.31-1.144-0.803-2.153-1.482-3.024
	c-0.678-0.872-1.524-1.581-2.536-2.127c-1.013-0.546-2.177-0.853-3.492-0.92c-1.341-0.068-2.536,0.118-3.586,0.559
	c-1.05,0.441-1.956,1.061-2.72,1.859c-0.764,0.798-1.358,1.751-1.782,2.858c-0.424,1.107-0.669,2.306-0.735,3.596
	C377.463,237.245,377.585,238.463,377.895,239.607z"/>
<path fill="#1E1E1C" d="M415.718,237.959l1.71,0.014c3.546,0.03,5.31,1.249,5.289,3.655c-0.01,1.242-0.43,2.15-1.258,2.725
	c-0.829,0.576-2.002,0.857-3.522,0.844c-0.71-0.006-1.329-0.074-1.86-0.206c-0.531-0.131-0.999-0.299-1.402-0.506
	c-0.404-0.206-0.756-0.437-1.058-0.693c-0.302-0.255-0.566-0.499-0.792-0.729l-0.765,0.564c0.325,0.434,0.696,0.836,1.111,1.206
	c0.415,0.371,0.887,0.698,1.417,0.981c0.53,0.283,1.129,0.504,1.799,0.661c0.67,0.158,1.435,0.24,2.297,0.247
	c1.038,0.009,2.02-0.065,2.947-0.222c0.926-0.157,1.733-0.428,2.42-0.815c0.687-0.387,1.236-0.908,1.647-1.563
	c0.411-0.655,0.621-1.477,0.629-2.465c0.01-1.14-0.369-2.087-1.135-2.841c-0.767-0.753-1.832-1.275-3.198-1.566
	c1.142-0.269,2.064-0.743,2.767-1.421c0.702-0.678,1.059-1.587,1.068-2.727c0.008-0.937-0.182-1.724-0.569-2.361
	c-0.388-0.636-0.902-1.148-1.545-1.533c-0.643-0.385-1.369-0.664-2.178-0.835c-0.81-0.171-1.645-0.261-2.506-0.268
	c-1.241-0.01-2.319,0.082-3.232,0.277c-0.914,0.195-1.614,0.531-2.099,1.008c-0.486,0.477-0.769,1.026-0.85,1.646
	c-0.081,0.62-0.126,1.462-0.135,2.526l0.76,0.006c0.087-1.24,0.595-2.212,1.526-2.913c0.93-0.701,2.08-1.046,3.448-1.035
	c1.064,0.009,1.96,0.302,2.691,0.878c0.73,0.576,1.09,1.434,1.08,2.574c-0.01,1.14-0.429,1.992-1.257,2.555
	c-0.828,0.563-2.002,0.838-3.522,0.825l-1.71-0.015L415.718,237.959z"/>
<path fill="#1E1E1C" d="M443.038,242.504c-0.366,0.592-0.816,1.128-1.349,1.61c-0.534,0.482-1.269,0.734-2.205,0.756
	c-0.481,0.012-0.939-0.047-1.373-0.176c-0.434-0.129-0.819-0.342-1.156-0.638c-0.337-0.296-0.612-0.67-0.825-1.121
	c-0.214-0.451-0.328-0.98-0.342-1.588c-0.027-1.14,0.489-2.07,1.549-2.793c1.06-0.722,2.539-1.106,4.439-1.151l1.14-0.027
	L443.038,242.504z M446.544,246.031l-0.245-10.257c-0.04-1.697-0.257-3.066-0.649-4.109c-0.392-1.042-0.906-1.841-1.54-2.396
	c-0.635-0.555-1.352-0.918-2.155-1.089c-0.802-0.171-1.634-0.246-2.495-0.226c-0.583,0.014-1.158,0.053-1.727,0.117
	c-0.569,0.065-1.105,0.153-1.609,0.266c-0.505,0.114-0.963,0.264-1.377,0.451c-0.414,0.187-0.732,0.398-0.954,0.631
	c-0.47,0.493-0.736,1.025-0.798,1.597c-0.062,0.572-0.086,1.187-0.07,1.845l1.71-0.041c0.249-1.247,0.729-2.108,1.44-2.581
	c0.711-0.473,1.598-0.722,2.662-0.748c0.557-0.013,1.085,0.063,1.583,0.228c0.498,0.166,0.93,0.478,1.296,0.938
	c0.366,0.46,0.66,1.112,0.883,1.956c0.223,0.844,0.35,1.924,0.382,3.241l-1.14,0.027c-1.292,0.031-2.518,0.143-3.679,0.335
	c-1.161,0.193-2.18,0.502-3.057,0.928c-0.877,0.427-1.573,0.988-2.088,1.684c-0.516,0.697-0.761,1.564-0.736,2.602
	c0.025,1.039,0.235,1.895,0.632,2.57c0.396,0.675,0.878,1.208,1.445,1.6c0.567,0.392,1.169,0.663,1.806,0.812
	c0.637,0.149,1.222,0.218,1.753,0.205c1.444-0.035,2.59-0.29,3.441-0.766c0.85-0.476,1.46-0.96,1.828-1.45l0.19-0.005l1.37,1.678
	L446.544,246.031z"/>
<path fill="#1E1E1C" d="M480.858,230.044l0.644,8.145c0.078,0.985,0.249,1.867,0.514,2.647c0.265,0.779,0.665,1.428,1.202,1.944
	c0.536,0.517,1.214,0.895,2.034,1.135c0.819,0.24,1.822,0.313,3.01,0.219l-0.06-0.758c-0.43,0.034-0.834-0.099-1.213-0.4
	c-0.38-0.3-0.71-0.706-0.992-1.218c-0.282-0.511-0.52-1.102-0.712-1.773c-0.193-0.671-0.317-1.36-0.373-2.067l-0.958-12.122
	l-3.409,0.27l-4.694,12.95l-6.671-12.052l-3.599,0.285l1.407,17.804l1.515-0.12l-1.123-14.206l7.563,13.697l0.758-0.06
	L480.858,230.044z"/>
<path fill="#1E1E1C" d="M507.357,231.251c-0.306-2.667-1.159-4.648-2.556-5.941c-1.398-1.293-3.38-1.792-5.948-1.497
	c-1.183,0.136-2.212,0.503-3.087,1.1c-0.875,0.598-1.592,1.349-2.151,2.255c-0.56,0.906-0.944,1.938-1.155,3.097
	c-0.211,1.159-0.243,2.38-0.096,3.664c0.147,1.284,0.449,2.467,0.905,3.549c0.455,1.083,1.065,2.001,1.827,2.755
	c0.762,0.754,1.662,1.32,2.7,1.698c1.038,0.378,2.223,0.491,3.558,0.338c1.435-0.165,2.677-0.613,3.728-1.346
	c1.05-0.732,1.921-1.865,2.612-3.398l-0.82-0.48c-0.545,1.032-1.196,1.859-1.953,2.481c-0.758,0.623-1.753,1.005-2.986,1.146
	c-0.806,0.092-1.543-0.001-2.213-0.282c-0.67-0.28-1.262-0.716-1.776-1.307c-0.514-0.591-0.935-1.314-1.263-2.169
	c-0.328-0.855-0.551-1.798-0.669-2.83l11.439-1.313L507.357,231.251z M495.843,232.573c-0.113-0.982-0.116-1.899-0.01-2.753
	c0.106-0.854,0.3-1.603,0.583-2.247c0.283-0.645,0.644-1.164,1.083-1.559c0.439-0.395,0.948-0.625,1.527-0.692
	c1.334-0.153,2.395,0.318,3.184,1.413c0.789,1.095,1.309,2.738,1.56,4.927L495.843,232.573z"/>
<path fill="#1E1E1C" d="M520.672,230.935c-0.42-0.066-0.813-0.213-1.179-0.441c-0.366-0.228-0.677-0.559-0.934-0.996
	c-0.256-0.436-0.432-0.98-0.528-1.632l-0.221-1.504c-0.136-0.927-0.298-1.678-0.484-2.253c-0.187-0.574-0.437-1.011-0.75-1.311
	c-0.313-0.3-0.697-0.474-1.152-0.522c-0.455-0.048-1.009-0.025-1.66,0.071l-3.196,0.469l0.11,0.752l0.376-0.055
	c1.128-0.166,1.899,0.073,2.314,0.716c0.414,0.644,0.705,1.529,0.87,2.657l0.166,1.128c0.166,1.128,0.501,2.02,1.007,2.675
	c0.505,0.656,1.113,1.13,1.822,1.422c0.709,0.293,1.475,0.455,2.299,0.488c0.824,0.033,1.637-0.01,2.439-0.128
	c0.852-0.125,1.587-0.31,2.204-0.554c0.617-0.244,1.102-0.469,1.456-0.675l1.066,7.256l3.384-0.497l-2.595-17.67l-3.384,0.497
	l1.309,8.91c-0.354,0.206-0.833,0.43-1.438,0.672c-0.605,0.242-1.283,0.419-2.035,0.529
	C521.514,231.003,521.091,231.002,520.672,230.935z"/>
<path fill="#1E1E1C" d="M540.335,219.68l2.883,16.084l3.366-0.604l-2.883-16.084l6.172-1.106l-0.268-1.496l-13.278,2.38
	c-0.574,0.103-1.026,0.274-1.356,0.513c-0.331,0.24-0.571,0.514-0.721,0.824c-0.151,0.311-0.237,0.654-0.259,1.031
	c-0.023,0.378,0,0.753,0.067,1.127l0.402,2.244l0.748-0.134c-0.219-1.221-0.012-2.218,0.622-2.988
	c0.634-0.77,1.512-1.255,2.634-1.457L540.335,219.68z"/>
<path fill="#1E1E1C" d="M565.938,233.858c-0.128,0.856-0.312,1.575-0.55,2.157c-0.239,0.582-0.532,1.059-0.88,1.431
	c-0.348,0.372-0.758,0.667-1.23,0.884c-0.472,0.217-0.981,0.384-1.525,0.5l0.238,1.115l1.115-0.238
	c0.644-0.137,1.224-0.333,1.74-0.585c0.516-0.253,0.963-0.613,1.343-1.083c0.379-0.469,0.703-1.076,0.972-1.82
	c0.269-0.744,0.481-1.663,0.636-2.758l3.007-21.428l-1.858,0.396l-1.932,13.895l-6.432-9.391c-0.597-0.857-1.317-1.467-2.159-1.832
	c-0.842-0.364-1.82-0.428-2.935-0.19l-3.159,0.674l0.159,0.743c0.962-0.102,1.847,0.008,2.654,0.328
	c0.806,0.32,1.496,0.911,2.068,1.774l9.037,13.226L565.938,233.858z"/>
<path fill="#1E1E1C" d="M578.547,202.723l-3.509,0.849l5.187,18.489l2.165-0.524L578.547,202.723z M580.575,224.967
	c-0.305,0.478-0.392,0.988-0.261,1.529c0.137,0.567,0.452,0.999,0.945,1.296c0.493,0.297,1.013,0.38,1.56,0.248
	c0.547-0.132,0.971-0.444,1.273-0.934c0.302-0.49,0.385-1.018,0.248-1.585c-0.131-0.541-0.442-0.955-0.932-1.241
	c-0.49-0.285-1.008-0.362-1.555-0.23C581.306,224.184,580.88,224.49,580.575,224.967z"/>
<g>
	<g>
		<g>
			<path d="M624.411,135.386c0.874,0.072,1.332,2.031,1.154,2.744c-0.117,0.47-0.396,0.957-0.572,1.409
				c-0.333,0.855-0.68,1.685-0.595,2.615c0.122,1.338,1.018,2.163,1.846,3.139c2.957,3.488-2.608,5.406-1.314,8.862
				c0.498,1.33,1.808,1.653,2.765,2.524c3.016,2.746-0.37,5.145-1.112,7.971c-0.437,1.666,0.034,3.263,0.775,4.765
				c1.216,2.465,4.595,6.532,1.16,8.864c-0.529,0.359-0.03,1.226,0.505,0.863c4.661-3.164-0.38-8.101-1.388-11.663
				c-0.957-3.384,2.238-5.24,2.392-8.351c0.098-1.99-1.154-2.78-2.6-3.813c-3.209-2.292-0.265-4.205,0.611-6.69
				c0.576-1.634-0.048-2.782-1.085-4.04c-1.572-1.909-1.584-3.136-0.74-5.366c0.347-0.917,0.604-1.702,0.414-2.69
				c-0.242-1.257-0.936-2.04-2.214-2.145C623.77,134.333,623.773,135.333,624.411,135.386L624.411,135.386z"/>
		</g>
	</g>
	<g>
		<g>
			<path d="M623.003,131.323c-0.457,0.977-0.956,1.944-1.373,2.938c-0.188,0.449-0.346,0.954,0.189,1.25
				c0.182,0.1,0.424,0.087,0.622,0.062c0.449-0.058,0.818-0.229,1.305-0.191c0.343,0.027,0.65,0.056,0.984-0.043
				c0.148-0.044,0.296-0.149,0.443-0.184c0.483-0.117,1.017,0.028,1.469,0.265c0.569,0.299,1.076-0.564,0.505-0.863
				c-0.846-0.444-1.507-0.634-2.422-0.299c-0.585,0.214-0.996,0.027-1.582,0.044c-0.059,0.002-0.942,0.18-0.863,0.266
				c0.043,0.162,0.086,0.324,0.129,0.486c0.256-1.098,0.981-2.203,1.458-3.225C624.137,131.248,623.275,130.74,623.003,131.323
				L623.003,131.323z"/>
		</g>
	</g>
	<g>
		<g>
			<path d="M624.669,131.863c0.826,1.152,1.651,2.304,2.477,3.455c0.144-0.251,0.288-0.502,0.432-0.752
				c-0.378,0.007-0.682-0.066-1.01-0.254c-0.56-0.32-1.064,0.544-0.505,0.863c0.479,0.274,0.963,0.401,1.515,0.391
				c0.35-0.007,0.662-0.431,0.432-0.752c-0.826-1.152-1.651-2.304-2.477-3.455C625.161,130.839,624.293,131.338,624.669,131.863
				L624.669,131.863z"/>
		</g>
	</g>
	<g>
		<g>
			<path d="M643.635,123.519c2.379,0.934,0.278,3.97-0.663,5.051c-0.653,0.751-1.413,1.447-1.876,2.344
				c-1.043,2.023-0.07,3.696,0.61,5.641c1.931,5.522-5.832,5.356-5.47,10.183c0.175,2.338,2.568,3.62,2.867,5.914
				c0.467,3.575-3.877,4.941-5.561,7.538c-1.272,1.962-1.222,4.305-0.872,6.539c0.547,3.495,2.243,9.525-2.687,10.686
				c-0.626,0.148-0.361,1.112,0.266,0.964c7.492-1.765,2.165-11.39,3.411-16.029c0.959-3.567,5.266-4.517,6.426-7.955
				c0.976-2.892-1.372-4.166-2.458-6.491c-1.596-3.419,2.68-4.671,4.441-6.734c1.533-1.795,1.087-3.614,0.28-5.647
				c-0.549-1.381-1.129-2.502-0.391-4.104c0.384-0.834,1.118-1.469,1.72-2.142c0.761-0.851,1.493-1.651,1.806-2.773
				c0.457-1.639,0.075-3.298-1.584-3.949C643.302,122.319,643.042,123.286,643.635,123.519L643.635,123.519z"/>
		</g>
	</g>
	<g>
		<g>
			<path d="M643.506,117.586c-0.927,0.996-1.584,2.183-2.438,3.234c-0.396,0.487-1.175,1.076-0.604,1.742
				c0.163,0.191,0.435,0.267,0.674,0.313c0.276,0.053,0.539-0.03,0.84,0.028c0.402,0.078,0.632,0.237,0.987,0.403
				c0.421,0.197,0.758,0.263,1.218,0.275c0.307,0.008,0.632-0.092,0.939-0.007c0.492,0.136,0.914,0.643,1.25,1.011
				c0.435,0.476,1.141-0.233,0.707-0.707c-0.574-0.627-1.177-1.214-2.053-1.332c-0.566-0.076-0.971,0.117-1.557-0.103
				c-0.347-0.13-0.632-0.401-0.988-0.52c-0.129-0.043-0.83-0.073-0.879-0.112c-0.073-0.058,0.357-0.515,0.497-0.701
				c0.707-0.941,1.31-1.952,2.114-2.817C644.651,117.822,643.945,117.113,643.506,117.586L643.506,117.586z"/>
		</g>
	</g>
	<g>
		<g>
			<path d="M645.534,119.507c0.501,1.749,1.002,3.498,1.503,5.246c0.205-0.205,0.41-0.41,0.615-0.615
				c-0.493-0.165-0.829-0.413-1.167-0.806c-0.419-0.489-1.124,0.221-0.707,0.707c0.444,0.518,0.963,0.847,1.608,1.063
				c0.365,0.122,0.716-0.263,0.615-0.615c-0.501-1.749-1.002-3.498-1.503-5.246C646.321,118.624,645.356,118.886,645.534,119.507
				L645.534,119.507z"/>
		</g>
	</g>
	<g>
		<g>
			<path d="M624.305,132.058c9.415-3.34,23.428-10.438,21.239-22.676c-0.764-4.272-3.827-8.276-8.341-8.821
				c-3.975-0.48-8.026,1.642-9.334,5.502c0.321,0.089,0.643,0.177,0.964,0.266c1.721-6.822-4.347-11.873-10.597-12.527
				c-6.586-0.689-14.647,1.932-17.529,8.358c-2.606,5.812-0.459,12.856,3.506,17.51c5.078,5.959,12.512,9.933,19.825,12.388
				c0.612,0.205,0.874-0.76,0.266-0.964c-10.464-3.512-25.097-11.927-23.635-24.964c0.773-6.889,7.075-10.628,13.476-11.309
				c6.583-0.7,15.787,3.06,13.723,11.243c-0.159,0.629,0.759,0.872,0.964,0.266c1.341-3.958,6.133-5.777,9.959-4.38
				c4.318,1.577,6.345,6.665,5.901,10.97c-1.026,9.947-12.427,15.256-20.654,18.175
				C623.437,131.307,623.697,132.274,624.305,132.058z"/>
		</g>
	</g>
	<g>
		<path fill="#FFFFFF" d="M644.48,119.374c-2.557-5.811-4.875-12.264-6.53-18.393c-0.696-2.578-1.314-5.221-1.191-7.889
			c0.124-2.668,1.076-5.398,3.082-7.161c3.363-2.957,9.346-1.999,11.618,1.86c2.299,3.906,0.712,8.975-1.754,12.777
			c1.282-2.107,2.602-4.258,4.514-5.816c1.913-1.558,4.566-2.435,6.893-1.616c2.949,1.038,4.472,4.551,4.075,7.652
			c-0.397,3.101-2.299,5.805-4.437,8.085C656.002,113.937,651.216,117.703,644.48,119.374L644.48,119.374z"/>
		<g>
			<path d="M644.912,119.122c-2.095-4.808-3.938-9.724-5.465-14.743c-1.401-4.606-3.287-9.985-1.502-14.734
				c1.725-4.589,7.104-6.456,11.212-3.593c4.905,3.419,2.674,10.152,0.116,14.263c0.288,0.168,0.576,0.336,0.863,0.505
				c2.208-3.614,6.256-9.48,11.333-6.993c4.563,2.235,3.552,8.266,1.306,11.725c-4.105,6.323-11.182,11.434-18.428,13.34
				c-0.622,0.164-0.358,1.128,0.266,0.964c4.877-1.282,9.139-3.74,12.892-7.089c3.487-3.112,7.629-7.064,8.182-11.979
				c0.425-3.775-1.774-8.047-5.869-8.43c-5.057-0.473-8.247,4.195-10.545,7.958c-0.337,0.551,0.524,1.05,0.863,0.505
				c2.561-4.116,4.62-10.205,0.969-14.363c-2.667-3.038-7.737-3.698-11.043-1.338c-4.511,3.221-4.17,9.502-3.04,14.266
				c1.646,6.939,4.181,13.713,7.025,20.241C644.305,120.215,645.167,119.707,644.912,119.122z"/>
		</g>
	</g>
	<g>
		<path fill="#EFD5DF" d="M644.414,115.391c-2.193-4.913-4.01-9.989-5.429-15.171c-0.597-2.18-1.127-4.414-1.021-6.669
			c0.106-2.255,0.923-4.564,2.644-6.054c2.884-2.5,8.017-1.69,9.966,1.573c1.972,3.302,0.611,7.587-1.505,10.802
			c1.1-1.782,2.232-3.6,3.872-4.917s3.917-2.059,5.913-1.367c2.53,0.877,3.836,3.848,3.495,6.469s-1.972,4.907-3.806,6.835
			C654.47,111.173,650.192,113.978,644.414,115.391L644.414,115.391z"/>
	</g>
	<g>
		<path fill="#EFD5DF" d="M624.397,130.325c3.74-1.488,6.43-2.246,9.686-4.681c3.256-2.435,5.977-5.938,6.699-10.07
			c0.722-4.132-0.952-8.859-4.518-10.778c-3.567-1.919-8.729-0.024-9.715,4.047c0.845-3.242-0.945-6.816-3.667-8.599
			s-6.142-2.023-9.298-1.457c-3.542,0.636-7.07,2.361-9.103,5.468c-3.522,5.382-1.327,13.199,3.199,17.704
			C612.206,126.463,618.422,128.465,624.397,130.325L624.397,130.325z"/>
	</g>
	<g>
		<path fill="none" stroke="#000000" stroke-linecap="round" stroke-linejoin="round" stroke-miterlimit="10" d="M628.877,177.477
			c0.337-0.311,0.75-0.322,1.429-0.339c0.571-0.015,0.873-0.022,1.135,0.189c0.208,0.167,0.292,0.516,0.459,1.213
			c0.134,0.56,0.122,0.79,0.024,0.996c-0.087,0.183-0.216,0.29-0.279,0.341c-0.353,0.287-0.695,0.219-2.058,0.249
			c-0.406,0.009-0.495,0.018-0.626-0.053c-0.485-0.262-0.501-1.052-0.506-1.258C628.448,178.511,628.435,177.885,628.877,177.477z"
			/>
		<path fill="#FFFFFF" stroke="#000000" stroke-linecap="round" stroke-linejoin="round" stroke-miterlimit="10" d="
			M628.877,177.477c-0.623-0.644-1.885-1.881-3.29-2.754c-0.315-0.196-0.798-0.428-1.438-0.472
			c-0.507-0.035-1.049,0.121-1.381,0.506c-0.404,0.468-0.42,1.159-0.296,1.765s0.365,1.191,0.4,1.808
			c0.045,0.786-0.244,1.586-0.059,2.351c0.161,0.666,0.664,1.212,0.811,1.882c0.141,0.643-0.016,1.439,0.491,1.858
			c0.341,0.282,0.862,0.243,1.248,0.026c0.53-0.298,0.834-0.743,0.937-0.927c0.415-0.741,1.18-1.808,2.659-3.446l0.362-0.06
			c-0.193,0.929-0.528,2.101-1.13,3.378c-0.711,1.508-1.555,2.651-2.242,3.447l0.026-0.112c0.2,0.161,0.475,0.417,0.714,0.79
			c0.446,0.696,0.43,1.272,0.608,1.883c0.155,0.534,0.502,1.248,1.359,1.997l0.067-0.155c1.505-3.482,2.028-7.382,1.494-11.137
			l0.392,0.025c-0.007,3.793,1.055,7.582,3.03,10.82l0.088,0.144c0.098-0.952,0.396-1.593,0.654-2.006
			c0.432-0.691,0.907-0.99,1.182-1.8c0.162-0.477,0.179-0.907,0.168-1.192l0.042,0.107c-1.941-1.679-3.435-3.869-4.29-6.288
			l0.441-0.378c2.409,0.951,3.538,1.659,4.123,2.154c0.145,0.123,0.595,0.443,1.204,0.537c0.437,0.067,0.939-0.081,1.158-0.465
			c0.326-0.571-0.101-1.261-0.196-1.912c-0.099-0.678,0.179-1.367,0.095-2.047c-0.097-0.781-0.65-1.427-0.885-2.179
			c-0.185-0.59-0.166-1.223-0.264-1.833c-0.098-0.611-0.357-1.252-0.9-1.547c-0.447-0.243-1.008-0.197-1.47,0.014
			c-0.605,0.277-0.981,0.689-1.179,0.95c-1.097,1.444-2.087,3.313-2.432,3.979"/>
		<path fill="#EFD5DF" stroke="#000000" stroke-linecap="round" stroke-linejoin="round" stroke-miterlimit="10" d="M628.809,177.42
			c0.346-0.306,0.775-0.312,1.479-0.322c0.593-0.008,0.906-0.013,1.18,0.2c0.218,0.169,0.308,0.516,0.489,1.212
			c0.145,0.559,0.135,0.788,0.035,0.991c-0.089,0.181-0.221,0.286-0.286,0.337c-0.363,0.282-0.719,0.21-2.133,0.226
			c-0.422,0.005-0.514,0.012-0.65-0.059c-0.506-0.266-0.531-1.053-0.538-1.258C628.375,178.445,628.354,177.821,628.809,177.42z"/>
		<path fill="none" stroke="#000000" stroke-linecap="round" stroke-linejoin="round" stroke-miterlimit="10" d="M635.145,175.549
			c-0.783,1.134-1.868,2.057-3.112,2.65"/>
		<path fill="#FFFFFF" stroke="#000000" stroke-linecap="round" stroke-linejoin="round" stroke-miterlimit="10" d="
			M623.533,176.658c1.503,0.891,3.199,1.455,4.937,1.64"/>
		<path fill="none" stroke="#000000" stroke-linecap="round" stroke-linejoin="round" stroke-miterlimit="10" d="M632.056,178.65
			c1.649-0.433,3.494-0.038,4.823,1.031"/>
		<path fill="none" stroke="#000000" stroke-linecap="round" stroke-linejoin="round" stroke-miterlimit="10" d="M624.711,181.691"
			/>
		<path fill="none" stroke="#000000" stroke-linecap="round" stroke-linejoin="round" stroke-miterlimit="10" d="M624.168,182.311
			c0.61-1.785,2.213-3.194,4.061-3.57"/>
	</g>
</g>
<g>
	<g>
		<g>
			<path d="M185.465,93.318c3.526,0.08,2.566,4.804,1.723,6.753c-0.637,1.473-1.479,2.946-1.64,4.576
				c-0.284,2.88,1.66,4.64,3.33,6.681c5.136,6.278-5.677,9.847-2.655,15.889c1.374,2.747,5.015,3.273,6.438,5.944
				c2.398,4.502-3.468,8.969-4.311,13.106c-0.753,3.697,1.167,7.192,2.914,10.3c2.2,3.912,5.181,10.31,0.017,13.355
				c-0.554,0.327-0.051,1.191,0.505,0.863c5.873-3.463,2.647-10.629,0.124-15.108c-1.057-1.876-2.135-3.825-2.545-5.962
				c-0.546-2.842,0.476-5.125,1.941-7.477c1.535-2.465,3.428-5.277,2.678-8.34c-0.599-2.445-2.766-3.57-4.67-4.915
				c-3.831-2.708-2.315-5.668-0.126-8.836c1.217-1.76,2.563-3.744,2.241-5.998c-0.389-2.727-2.922-4.151-4.183-6.394
				c-2.252-4.005,2.033-7.231,1.777-11.232c-0.136-2.126-1.251-4.153-3.557-4.205C184.821,92.304,184.821,93.304,185.465,93.318
				L185.465,93.318z"/>
		</g>
	</g>
	<g>
		<g>
			<path d="M183.432,86.685c-0.84,1.703-1.796,3.388-2.534,5.136c-0.25,0.593-0.575,1.275,0.176,1.683
				c0.232,0.126,0.551,0.095,0.802,0.079c0.818-0.052,1.646-0.305,2.515-0.279c0.54,0.016,1.003,0.074,1.535-0.049
				c0.325-0.075,0.659-0.241,0.976-0.32c0.978-0.244,1.802,0.098,2.689,0.587c0.564,0.311,1.069-0.552,0.505-0.863
				c-0.985-0.543-2.013-1.075-3.168-0.842c-0.438,0.088-0.855,0.301-1.296,0.406c-0.794,0.189-1.366-0.081-2.151-0.095
				c-0.321-0.006-0.824,0.153-1.128,0.124c-0.17,0.067-0.332,0.15-0.486,0.249c-0.022-0.398,0.092-0.758,0.341-1.08
				c0.571-1.446,1.399-2.835,2.087-4.229C184.579,86.615,183.717,86.107,183.432,86.685L183.432,86.685z"/>
		</g>
	</g>
	<g>
		<g>
			<path d="M186.372,87.313c1.415,2.064,2.83,4.128,4.245,6.192c0.144-0.251,0.288-0.502,0.432-0.752
				c-0.732-0.001-1.337-0.171-1.965-0.548c-0.553-0.332-1.057,0.532-0.505,0.863c0.782,0.469,1.559,0.683,2.47,0.684
				c0.358,0.001,0.651-0.433,0.432-0.752c-1.415-2.064-2.83-4.128-4.245-6.192C186.874,86.281,186.007,86.78,186.372,87.313
				L186.372,87.313z"/>
		</g>
	</g>
	<g>
		<path fill="#FFFFFF" d="M183.496,87.611c-4.057-4.23-9.82-6.269-14.808-9.346c-4.988-3.077-9.636-8.215-8.906-14.03
			c0.696-5.546,6.678-9.571,12.22-8.842s10.072,5.515,11.304,10.967c-1.088-3.462-0.093-7.493,2.483-10.05
			c2.575-2.557,6.614-3.523,10.068-2.41c7.258,2.34,9.294,12.438,5.876,19.255c-3.418,6.817-10.338,11.041-16.912,14.905
			L183.496,87.611z"/>
		<g>
			<path d="M183.849,87.257c-3.668-3.667-8.362-5.728-12.832-8.215c-4.894-2.723-10.674-7.122-10.808-13.307
				c-0.123-5.698,5.293-10.103,10.79-9.918c5.923,0.199,10.448,5.228,11.823,10.675c0.321-0.089,0.643-0.177,0.964-0.266
				c-1.861-6.85,4.031-13.792,11.237-12.04c5.195,1.264,7.716,6.598,7.815,11.569c0.11,5.523-2.786,10.197-6.721,13.866
				c-2.122,1.978-4.5,3.657-6.942,5.214c-1.085,0.692-2.193,1.343-3.291,2.014c-1.037,0.633-1.156,0.652-2.256,0.278
				c-0.611-0.208-0.873,0.758-0.266,0.964c0.577,0.196,1.115,0.487,1.708,0.399c0.779-0.115,1.96-1.158,2.639-1.57
				c0.881-0.535,1.757-1.078,2.621-1.64c3.011-1.961,5.94-4.142,8.345-6.83c4.065-4.545,6.189-10.381,4.676-16.444
				c-1.361-5.455-5.915-9.711-11.79-8.977c-6.526,0.816-10.43,7.237-8.738,13.462c0.169,0.621,1.122,0.359,0.964-0.266
				c-1.345-5.331-5.407-10.101-10.966-11.204c-5.007-0.994-10.631,1.733-12.755,6.428c-2.512,5.552,0.904,11.297,5.115,14.884
				c5.487,4.674,12.809,6.478,17.961,11.63C183.598,88.42,184.305,87.713,183.849,87.257z"/>
		</g>
	</g>
	<g>
		<path fill="#EFD5DF" d="M184.836,85.39c-3.214-3.355-7.781-4.972-11.732-7.412c-3.952-2.44-7.634-6.516-7.055-11.129
			c0.552-4.399,5.292-7.593,9.683-7.015c4.391,0.577,7.98,4.374,8.955,8.699c-0.862-2.746-0.073-5.944,1.968-7.972
			s5.241-2.795,7.977-1.912c5.75,1.856,7.363,9.866,4.654,15.273c-2.709,5.408-8.192,8.759-13.402,11.825L184.836,85.39z"/>
		<g>
			<path fill="#EFD5DF" d="M185.19,85.037c-5.489-5.429-17.273-7.276-18.591-16.119c-0.706-4.735,3.538-8.682,8.141-8.644
				c4.76,0.04,8.344,4.059,9.465,8.392c0.321-0.089,0.643-0.177,0.964-0.266c-1.457-5.584,3.525-11.157,9.33-9.269
				c3.932,1.278,5.648,5.622,5.563,9.458c-0.096,4.355-2.583,7.975-5.741,10.796c-1.673,1.495-3.531,2.767-5.426,3.961
				c-1.246,0.785-2.489,2.051-3.926,1.562c-0.611-0.208-0.873,0.758-0.266,0.964c2.059,0.701,3.603-0.95,5.344-2.075
				c2.466-1.593,4.866-3.357,6.839-5.548c3.324-3.693,5.058-8.509,3.727-13.429c-1.165-4.307-4.875-7.61-9.526-6.944
				c-5.214,0.746-8.176,5.833-6.883,10.79c0.162,0.622,1.126,0.359,0.964-0.266c-1.088-4.204-4.227-7.996-8.618-8.93
				c-4.013-0.854-8.468,1.239-10.277,4.945c-2.002,4.1,0.174,8.512,3.213,11.41c4.401,4.197,10.655,5.624,14.997,9.919
				C184.941,86.197,185.648,85.49,185.19,85.037z"/>
		</g>
	</g>
	<g>
		<g>
			<path d="M201.019,127.054c0.231,0.713,0.462,1.426,0.693,2.139c-0.273,0.433-0.546,0.867-0.819,1.3
				c-0.332,0.428-0.761,0.783-1.102,1.205c-0.366,0.454-0.739,0.918-0.931,1.479c-0.579,1.693,0.495,2.843,0.816,4.445
				c0.768,3.832-5.087,4.062-4.399,7.784c0.087,0.471,0.304,0.887,0.546,1.296c0.805,1.361,1.421,1.539,1.444,3.247
				c0.035,2.671-2.494,3.309-3.927,5.215c-1.103,1.467-1.213,3.214-1.007,4.982c0.327,2.813,2.024,7.679-1.969,8.699
				c-0.623,0.159-0.359,1.124,0.266,0.964c5.473-1.398,2.316-7.833,2.612-11.471c0.295-3.629,4.103-4.156,5.183-7.236
				c0.653-1.862-0.453-2.946-1.392-4.413c-2.055-3.209,1.344-3.906,3.001-5.928c1.152-1.406,0.845-2.754,0.247-4.353
				c-0.711-1.899-0.459-3.188,0.872-4.729c0.547-0.634,1.099-1.16,1.412-1.948c0.535-1.348,0.369-2.897-1.041-3.541
				C200.942,125.925,200.434,126.786,201.019,127.054L201.019,127.054z"/>
		</g>
	</g>
	<g>
		<g>
			<path d="M201.123,122.823c-0.763,0.766-1.586,1.502-2.302,2.311c-0.359,0.406-0.597,0.902-0.068,1.307
				c0.241,0.184,0.502,0.113,0.77,0.128c0.514,0.028,0.842,0.282,1.3,0.46c0.373,0.145,0.655,0.107,1.048,0.099
				c0.611-0.012,0.96,0.356,1.348,0.786c0.433,0.478,1.138-0.231,0.707-0.707c-0.598-0.662-1.149-1.06-2.055-1.078
				c-0.622-0.013-0.911-0.202-1.452-0.433c-0.418-0.179-0.895-0.007-1.281-0.167c0.116,0.116,0.233,0.233,0.349,0.349
				c-0.074-0.177,2.12-2.122,2.343-2.346C202.285,123.073,201.578,122.366,201.123,122.823L201.123,122.823z"/>
		</g>
	</g>
	<g>
		<g>
			<path d="M202.549,123.907c0.386,1.364,0.772,2.727,1.158,4.091c0.205-0.205,0.41-0.41,0.615-0.615
				c-0.365-0.124-0.609-0.311-0.858-0.603c-0.418-0.491-1.122,0.22-0.707,0.707c0.357,0.419,0.779,0.684,1.299,0.86
				c0.366,0.124,0.714-0.264,0.615-0.615c-0.386-1.364-0.772-2.727-1.158-4.091C203.339,123.023,202.374,123.286,202.549,123.907
				L202.549,123.907z"/>
		</g>
	</g>
	<g>
		<path fill="#FFFFFF" d="M201.157,123.471c-1.412-3.004-4.136-5.141-6.255-7.694c-2.12-2.554-3.684-6.152-2.241-9.14
			c1.377-2.85,5.315-3.928,8.157-2.534s4.407,4.782,4.081,7.93c0.042-2.055,1.306-4.038,3.151-4.944
			c1.845-0.906,4.187-0.694,5.838,0.528c3.471,2.569,2.737,8.356-0.331,11.396s-7.546,4.054-11.772,4.938L201.157,123.471z"/>
		<g>
			<path d="M201.589,123.219c-2.422-4.719-9.167-8.258-8.977-14.068c0.124-3.8,3.941-6.035,7.421-4.805
				c3.168,1.119,4.558,4.542,4.367,7.687c-0.039,0.647,0.946,0.634,1,0c0.392-4.565,6.401-7.023,9.293-2.882
				c1.537,2.201,1.166,5.373-0.081,7.616c-1.412,2.539-3.997,4.045-6.64,5.04c-1.412,0.531-5.285,2.211-6.563,1.234
				c-0.511-0.391-1.01,0.477-0.505,0.863c1.242,0.95,2.565,0.222,4.017-0.14c2.135-0.531,4.264-1.204,6.184-2.299
				c3.184-1.816,5.497-4.865,5.583-8.632c0.077-3.35-2.035-6.397-5.514-6.76c-3.682-0.384-6.473,2.437-6.775,5.96
				c0.333,0,0.667,0,1,0c0.367-6.055-6.18-12.221-11.751-7.44c-7.115,6.106,4.577,14.262,7.076,19.131
				C201.019,124.296,201.883,123.791,201.589,123.219z"/>
		</g>
	</g>
	<g>
		<path fill="#EFD5DF" d="M202.278,122.522c-1.118-2.382-3.276-4.076-4.955-6.1c-1.679-2.025-2.918-4.878-1.772-7.248
			c1.092-2.261,4.214-3.117,6.465-2.012c2.252,1.104,3.491,3.791,3.232,6.288c0.034-1.629,1.036-3.203,2.499-3.922
			s3.318-0.552,4.627,0.417c2.75,2.036,2.166,6.626-0.266,9.038c-2.432,2.412-5.981,3.218-9.331,3.921L202.278,122.522z"/>
		<g>
			<path fill="#EFD5DF" d="M202.71,122.27c-1.884-3.587-6.345-6-6.974-10.172c-0.463-3.07,1.966-5.426,5.021-4.799
				c2.866,0.589,4.124,3.471,3.991,6.15c-0.032,0.653,0.934,0.627,1,0c0.39-3.725,5.332-5.394,7.346-1.962
				c1.021,1.74,0.653,4.112-0.312,5.788c-1.169,2.031-3.368,3.204-5.503,3.958c-1.057,0.374-3.807,1.577-4.749,0.856
				c-0.511-0.391-1.009,0.477-0.505,0.863c1.009,0.772,2.023,0.208,3.218-0.09c1.947-0.486,3.907-1.116,5.594-2.231
				c2.406-1.591,4.069-4.235,3.84-7.204c-0.485-6.289-9.281-6.184-9.93,0.021c0.333,0,0.667,0,1,0
				c0.237-4.801-4.772-9.75-9.346-6.092c-5.987,4.788,3.429,11.582,5.444,15.417C202.146,123.344,203.009,122.839,202.71,122.27z"/>
		</g>
	</g>
	<g>
		<g>
			<path d="M156.865,61.004c3-0.717,4.815,2.375,5.306,4.905c0.533,2.749-0.538,5.496-0.935,8.198
				c-0.538,3.667,0.252,6.709,3.097,9.146c2.926,2.507,7.355,4.296,7.538,8.725c0.159,3.838-2.276,7.318-3.253,10.914
				c-0.76,2.796-0.563,5.756,1.681,7.822c2.578,2.374,6.346,2.617,9.206,4.507c5.101,3.371,2.959,9.792,1.339,14.456
				c-1.47,4.232-2.256,8.191-0.405,12.447c2.133,4.905,6.367,8.326,9.648,12.408c3.582,4.455,6.359,11.587,1.355,16.159
				c-0.476,0.435,0.233,1.141,0.707,0.707c2.946-2.691,3.559-6.842,2.542-10.59c-1.258-4.638-4.867-8.148-8.008-11.586
				c-4.476-4.899-7.653-10.048-5.674-16.859c1.296-4.46,3.816-9.137,2.25-13.886c-1.214-3.68-4.631-4.922-7.935-6.197
				c-2.296-0.886-4.898-1.925-5.808-4.45c-0.762-2.113-0.101-4.376,0.63-6.398c1.219-3.37,3.342-6.999,2.581-10.717
				c-0.76-3.708-4.268-5.504-7.01-7.632c-2.984-2.316-4.028-4.995-3.491-8.78c0.371-2.614,1.357-5.279,1.024-7.949
				c-0.42-3.364-2.804-7.235-6.651-6.316C155.973,60.189,156.238,61.154,156.865,61.004L156.865,61.004z"/>
		</g>
	</g>
	<g>
		<g>
			<path d="M151.934,52.392c-0.646,2.768-1.484,5.561-1.951,8.364c-0.155,0.929-0.311,1.912,0.903,2.028
				c0.438,0.042,0.676-0.202,1.036-0.348c1.279-0.519,2.305-0.956,3.672-1.107c0.869-0.096,1.418-0.323,2.162-0.744
				c0.477-0.27,1.234-0.935,1.765-1.083c1.143-0.318,2.429,0.097,3.529,0.412c0.62,0.177,0.884-0.787,0.266-0.964
				c-1.663-0.476-3.116-0.788-4.761-0.135c-0.308,0.122-0.539,0.379-0.826,0.536c-0.811,0.751-1.749,1.087-2.815,1.009
				c-0.449-0.001-0.896,0.027-1.342,0.083c-0.19,0.038-1.291,0.531-1.444,0.531c-1.517-0.004-0.807-0.373-0.872-1.273
				c-0.074-1.02,0.588-2.518,0.822-3.522c0.274-1.174,0.548-2.348,0.822-3.522C153.044,52.032,152.08,51.765,151.934,52.392
				L151.934,52.392z"/>
		</g>
	</g>
	<g>
		<g>
			<path d="M156.373,52.062c2.753,2.518,5.507,5.036,8.26,7.553c0.074-0.279,0.147-0.557,0.221-0.836
				c-1.125,0.26-2.062,0.21-3.162-0.143c-0.614-0.197-0.877,0.768-0.266,0.964c1.25,0.402,2.415,0.44,3.694,0.143
				c0.359-0.083,0.493-0.586,0.221-0.836c-2.753-2.518-5.507-5.036-8.26-7.553C156.606,50.921,155.897,51.627,156.373,52.062
				L156.373,52.062z"/>
		</g>
	</g>
	<g>
		<path fill="#FFFFFF" d="M152.11,53.627c-7.322-4.767-16.382-5.777-24.665-8.555s-16.773-8.666-17.682-17.356
			c-0.867-8.288,6.455-16.158,14.748-16.976c8.293-0.819,16.491,4.597,20.126,12.096c-2.753-4.658-2.672-10.848,0.202-15.433
			s8.41-7.355,13.802-6.908c11.33,0.94,17.706,14.913,15.051,25.968s-11.272,19.532-19.509,27.369L152.11,53.627z"/>
		<g>
			<path d="M152.362,53.195c-7.307-4.604-15.897-5.737-23.981-8.342c-7.364-2.373-15.73-7.131-17.77-15.212
				c-2.11-8.355,4.543-16.665,12.661-18.219c8.69-1.664,17.125,4.15,20.933,11.666c0.288-0.168,0.576-0.336,0.863-0.505
				c-3.823-6.906-1.692-15.831,5.328-19.744c5.841-3.256,12.825-2.056,17.418,2.703c4.084,4.231,6.084,10.372,5.969,16.188
				c-0.131,6.628-3.34,12.894-7.224,18.11c-2.367,3.178-5.057,6.096-7.851,8.9c-1.315,1.32-2.626,2.674-4.017,3.915
				c-0.898,0.801-1.374,0.591-2.582,0.471c-0.64-0.063-0.636,0.937,0,1c0.607,0.06,1.622,0.389,2.205,0.187
				c1.344-0.465,2.944-2.734,3.96-3.734c2.965-2.919,5.845-5.941,8.392-9.237c4.533-5.866,8.275-12.979,8.118-20.578
				c-0.129-6.239-2.584-12.802-7.357-16.969c-4.893-4.271-11.85-5.027-17.536-1.821c-7.481,4.218-9.786,13.707-5.686,21.112
				c0.314,0.566,1.153,0.066,0.863-0.505c-5.915-11.675-22.101-17.343-31.72-6.51c-4.064,4.576-5.338,10.893-2.74,16.524
				c2.701,5.853,8.566,9.728,14.354,12.083c8.848,3.599,18.671,4.197,26.896,9.378C152.404,54.403,152.906,53.538,152.362,53.195z"
				/>
		</g>
	</g>
	<g>
		<path fill="#EFD5DF" d="M153.304,49.949c-5.802-3.783-12.981-4.584-19.545-6.789c-6.564-2.205-13.291-6.876-14.013-13.769
			c-0.688-6.574,5.113-12.816,11.684-13.464c6.571-0.649,13.067,3.649,15.948,9.597c-2.182-3.695-2.118-8.606,0.158-12.242
			c2.276-3.636,6.663-5.833,10.935-5.478c8.978,0.747,14.031,11.831,11.929,20.6s-8.929,15.492-15.454,21.707L153.304,49.949z"/>
		<g>
			<path fill="#EFD5DF" d="M153.556,49.517c-5.525-3.458-11.936-4.47-18.078-6.335c-5.914-1.796-12.658-5.228-14.732-11.528
				c-2.196-6.67,2.872-13.572,9.423-15.023c6.948-1.539,13.718,3.168,16.778,9.145c0.288-0.168,0.576-0.336,0.863-0.505
				c-3.972-7.294,0.709-16.591,9.236-16.992c6.271-0.295,10.829,4.882,12.505,10.467c1.895,6.314,0.115,12.569-3.353,17.994
				c-1.843,2.882-4.09,5.484-6.454,7.947c-1.115,1.162-2.263,2.293-3.421,3.413c-1.248,1.207-1.383,1.511-3.02,1.349
				c-0.64-0.063-0.636,0.937,0,1c0.561,0.056,1.295,0.285,1.835,0.12c1.102-0.338,2.528-2.373,3.33-3.167
				c2.314-2.29,4.553-4.665,6.538-7.249c3.746-4.878,6.74-10.817,6.324-17.122C170.678,13.129,161.3,2.847,151.07,9.14
				c-5.71,3.512-7.266,10.865-4.123,16.636c0.309,0.568,1.156,0.066,0.863-0.505c-3.057-5.971-9.456-10.529-16.38-9.845
				c-5.958,0.589-11.386,5.517-12.143,11.526c-0.859,6.821,4.579,12.125,10.179,14.956c7.527,3.805,16.35,3.944,23.585,8.472
				C153.599,50.723,154.101,49.858,153.556,49.517z"/>
		</g>
	</g>
	<g>
		<g>
			<path d="M159.819,114.889c4.464-1.72,3.157,6.92,4.177,8.961c1.058,2.115,3.308,2.457,5.168,3.57
				c5.045,3.02-1.51,9.764,3.344,12.764c2.848,1.76,6.88,0.114,7.864,4.452c0.712,3.139-1.018,6.309,0.067,9.442
				c1.871,5.401,14.633,9.082,10.137,15.883c-0.356,0.538,0.51,1.04,0.863,0.505c4.385-6.633-5.464-10.57-8.694-14.439
				c-3.221-3.857-0.196-8.09-1.578-12.309c-0.908-2.771-3.277-3.21-5.853-3.68c-5.292-0.966-3.118-5.114-3.022-8.8
				c0.066-2.547-1.223-4-3.435-5.08c-2.176-1.062-4.087-1.709-4.415-4.534c-0.171-1.473,0.132-3.008-0.244-4.46
				c-0.538-2.077-2.38-4.112-4.645-3.24C158.959,114.154,159.217,115.121,159.819,114.889L159.819,114.889z"/>
		</g>
	</g>
	<g>
		<g>
			<path d="M155.959,110.568c-0.04,1.615-0.298,3.383-0.125,4.988c0.071,0.658,0.451,1.098,1.143,0.891
				c0.337-0.101,0.435-0.327,0.682-0.548c0.672-0.6,1.221-0.515,1.969-0.859c0.471-0.216,0.683-0.517,1.049-0.873
				c0.674-0.654,1.489-0.64,2.373-0.571c0.642,0.05,0.639-0.951,0-1c-0.797-0.062-1.676-0.108-2.401,0.298
				c-0.403,0.225-0.6,0.585-0.941,0.874c-0.552,0.469-0.973,0.46-1.6,0.667c-0.3,0.099-0.52,0.23-0.793,0.379
				c-0.495,0.27-0.349,0.547-0.456-0.255c-0.168-1.262,0.068-2.715,0.1-3.99C156.975,109.925,155.975,109.925,155.959,110.568
				L155.959,110.568z"/>
		</g>
	</g>
	<g>
		<g>
			<path d="M158.445,110.076c1.77,1.053,3.54,2.105,5.31,3.158c0-0.288,0-0.576,0-0.863c-0.539,0.248-1.037,0.3-1.616,0.238
				c-0.639-0.069-0.634,0.932,0,1c0.768,0.082,1.425-0.054,2.121-0.374c0.352-0.162,0.298-0.686,0-0.863
				c-1.77-1.053-3.54-2.105-5.31-3.158C158.395,108.883,157.891,109.747,158.445,110.076L158.445,110.076z"/>
		</g>
	</g>
	<g>
		<path fill="#FFFFFF" d="M156.417,111.198c-4.491-1.757-9.5-1.288-14.288-1.863c-4.788-0.574-10.035-2.806-11.499-7.4
			c-1.396-4.382,1.68-9.455,6.07-10.826c4.39-1.371,9.427,0.639,12.231,4.284c-2.009-2.209-2.658-5.564-1.618-8.363
			s3.722-4.916,6.686-5.278c6.229-0.76,11.238,6.077,11.041,12.349c-0.197,6.272-3.906,11.817-7.48,16.975L156.417,111.198z"/>
		<g>
			<path d="M156.55,110.716c-7.528-2.7-20.116,0.794-24.806-7.495c-2.296-4.059-0.032-9.23,3.993-11.191
				c4.555-2.219,9.839,0.058,12.841,3.718c0.236-0.236,0.471-0.471,0.707-0.707c-3.5-4.249-1.933-10.855,3.504-12.518
				c4.438-1.357,8.469,1.771,10.374,5.573c2.13,4.252,1.463,8.926-0.348,13.165c-0.896,2.097-2.041,4.066-3.272,5.983
				c-0.842,1.311-1.551,3.287-3.126,3.454c-0.633,0.067-0.64,1.068,0,1c0.406-0.043,1.09,0.01,1.446-0.229
				c0.99-0.662,1.923-2.755,2.544-3.721c1.718-2.676,3.292-5.489,4.244-8.538c1.602-5.126,0.968-10.743-2.811-14.774
				c-3.16-3.372-8.132-4.366-11.985-1.52c-4.223,3.119-4.509,8.908-1.277,12.831c0.41,0.497,1.112-0.213,0.707-0.707
				c-2.999-3.656-8.021-5.889-12.717-4.413c-3.83,1.204-6.769,5.039-6.771,9.08c-0.001,4.419,3.569,7.497,7.415,8.958
				c6.126,2.327,12.905,0.804,19.072,3.015C156.891,111.898,157.152,110.932,156.55,110.716z"/>
		</g>
	</g>
	<g>
		<path fill="#EFD5DF" d="M156.65,109.077c-3.559-1.395-7.528-1.024-11.323-1.481c-3.794-0.457-7.953-2.228-9.114-5.873
			c-1.108-3.476,1.329-7.499,4.807-8.585c3.479-1.086,7.471,0.509,9.693,3.402c-1.593-1.753-2.108-4.414-1.285-6.633
			c0.823-2.22,2.948-3.898,5.296-4.184c4.936-0.601,8.907,4.824,8.753,9.798c-0.155,4.974-3.091,9.372-5.922,13.461L156.65,109.077z
			"/>
		<g>
			<path fill="#EFD5DF" d="M156.783,108.594c-5.881-2.071-14.11,0.345-18.721-4.719c-2.825-3.102-1.558-7.791,1.96-9.768
				c3.592-2.018,7.921-0.114,10.338,2.785c0.415,0.497,1.106-0.213,0.707-0.707c-2.935-3.638-1.17-9.31,3.695-9.932
				c3.545-0.453,6.398,2.433,7.568,5.529c1.225,3.24,0.501,6.731-0.886,9.799c-0.689,1.524-1.547,2.967-2.45,4.372
				c-0.627,0.977-1.159,2.498-2.345,2.623c-0.633,0.067-0.64,1.068,0,1c1.821-0.193,2.224-1.589,3.209-3.118
				c1.367-2.124,2.635-4.366,3.391-6.788c1.298-4.164,0.803-8.726-2.318-11.969c-2.604-2.706-6.663-3.424-9.729-1.004
				c-3.271,2.581-3.355,7.083-0.842,10.197c0.236-0.236,0.471-0.471,0.707-0.707c-2.361-2.832-6.13-4.589-9.829-3.621
				c-3.282,0.859-5.851,4.075-5.785,7.501c0.191,9.994,15.159,7.413,21.064,9.493C157.126,109.773,157.387,108.807,156.783,108.594z
				"/>
		</g>
	</g>
	<g>
		<path fill="none" stroke="#000000" stroke-linecap="round" stroke-linejoin="round" stroke-miterlimit="10" d="M190.512,166.784
			c0.337-0.311,0.75-0.322,1.429-0.339c0.571-0.015,0.873-0.022,1.135,0.189c0.208,0.167,0.292,0.516,0.459,1.213
			c0.134,0.56,0.122,0.79,0.024,0.996c-0.087,0.183-0.216,0.29-0.279,0.342c-0.353,0.287-0.695,0.219-2.058,0.249
			c-0.406,0.009-0.495,0.018-0.626-0.053c-0.485-0.262-0.501-1.052-0.506-1.258C190.083,167.819,190.07,167.192,190.512,166.784z"/>
		<path fill="#FFFFFF" stroke="#000000" stroke-linecap="round" stroke-linejoin="round" stroke-miterlimit="10" d="
			M190.512,166.784c-0.623-0.644-1.885-1.881-3.29-2.754c-0.315-0.196-0.798-0.428-1.438-0.472
			c-0.507-0.035-1.049,0.121-1.381,0.506c-0.404,0.468-0.42,1.159-0.296,1.765c0.124,0.606,0.365,1.191,0.4,1.808
			c0.046,0.786-0.244,1.586-0.059,2.351c0.161,0.666,0.664,1.212,0.811,1.882c0.141,0.643-0.016,1.439,0.491,1.858
			c0.341,0.282,0.862,0.243,1.248,0.026c0.53-0.298,0.834-0.743,0.937-0.927c0.415-0.741,1.18-1.808,2.659-3.446l0.362-0.06
			c-0.193,0.929-0.528,2.101-1.13,3.378c-0.711,1.508-1.555,2.651-2.242,3.447l0.026-0.112c0.2,0.161,0.475,0.417,0.714,0.79
			c0.446,0.696,0.43,1.272,0.608,1.883c0.155,0.534,0.502,1.248,1.359,1.997l0.067-0.155c1.505-3.482,2.028-7.382,1.493-11.137
			l0.392,0.025c-0.007,3.793,1.055,7.582,3.03,10.82l0.088,0.144c0.098-0.952,0.396-1.593,0.654-2.006
			c0.432-0.691,0.907-0.99,1.182-1.8c0.162-0.477,0.179-0.907,0.168-1.192l0.042,0.107c-1.941-1.679-3.435-3.869-4.29-6.288
			l0.441-0.378c2.409,0.951,3.538,1.659,4.123,2.154c0.145,0.123,0.595,0.443,1.204,0.537c0.437,0.067,0.939-0.081,1.158-0.465
			c0.326-0.571-0.101-1.261-0.196-1.912c-0.099-0.678,0.179-1.367,0.095-2.047c-0.097-0.781-0.65-1.427-0.885-2.179
			c-0.184-0.59-0.166-1.223-0.264-1.833c-0.098-0.611-0.357-1.252-0.9-1.547c-0.447-0.243-1.008-0.197-1.47,0.014
			c-0.605,0.277-0.981,0.689-1.179,0.95c-1.097,1.444-2.087,3.313-2.432,3.979"/>
		<path fill="#EFD5DF" stroke="#000000" stroke-linecap="round" stroke-linejoin="round" stroke-miterlimit="10" d="
			M190.444,166.727c0.346-0.306,0.775-0.312,1.479-0.322c0.592-0.008,0.906-0.013,1.18,0.2c0.218,0.169,0.308,0.516,0.489,1.212
			c0.145,0.559,0.135,0.788,0.035,0.991c-0.089,0.181-0.221,0.286-0.286,0.337c-0.363,0.282-0.719,0.21-2.133,0.226
			c-0.422,0.005-0.514,0.012-0.65-0.059c-0.506-0.266-0.531-1.053-0.538-1.258C190.01,167.752,189.989,167.128,190.444,166.727z"/>
		<path fill="none" stroke="#000000" stroke-linecap="round" stroke-linejoin="round" stroke-miterlimit="10" d="M196.78,164.856
			c-0.783,1.134-1.868,2.057-3.112,2.65"/>
		<path fill="#FFFFFF" stroke="#000000" stroke-linecap="round" stroke-linejoin="round" stroke-miterlimit="10" d="
			M185.168,165.965c1.503,0.891,3.199,1.455,4.937,1.64"/>
		<path fill="none" stroke="#000000" stroke-linecap="round" stroke-linejoin="round" stroke-miterlimit="10" d="M193.691,167.957
			c1.649-0.433,3.494-0.038,4.823,1.031"/>
		<path fill="none" stroke="#000000" stroke-linecap="round" stroke-linejoin="round" stroke-miterlimit="10" d="M186.346,170.998"
			/>
		<path fill="none" stroke="#000000" stroke-linecap="round" stroke-linejoin="round" stroke-miterlimit="10" d="M185.803,171.618
			c0.61-1.785,2.213-3.194,4.061-3.57"/>
	</g>
</g>
</svg>
