<?xml version="1.0" encoding="utf-8"?>
<!-- Generator: Adobe Illustrator 22.0.1, SVG Export Plug-In . SVG Version: 6.00 Build 0)  -->
<svg version="1.1" id="Шар_1" xmlns="http://www.w3.org/2000/svg" xmlns:xlink="http://www.w3.org/1999/xlink" x="0px" y="0px"
	 width="256.602px" height="277px" viewBox="0 0 256.602 277" enable-background="new 0 0 256.602 277" xml:space="preserve">
<g>
	<g>
		<path d="M145.486,79.217c0,7.268,0,14.537,0,21.805c0,0.616,0.957,0.617,0.957,0c0-7.268,0-14.537,0-21.805
			C146.443,78.602,145.486,78.601,145.486,79.217L145.486,79.217z"/>
	</g>
	<g>
		<path d="M154.864,60.762c-0.09,5.103-2.33,13.87-8.899,13.87c-6.51,0-8.892-8.761-8.899-13.87
			c-0.007-5.11,2.401-13.87,8.899-13.87C152.532,46.892,154.774,55.659,154.864,60.762c0.011,0.615,0.968,0.617,0.957,0
			c-0.09-5.082-1.712-11.507-6.651-14.03c-4.204-2.147-8.398,0.491-10.581,4.175c-3.087,5.211-3.278,12.331-0.929,17.851
			c1.654,3.886,5.321,7.788,9.953,6.626c6.073-1.523,8.113-9.224,8.208-14.622C155.832,60.146,154.875,60.146,154.864,60.762z"/>
	</g>
	<g>
		<ellipse fill="#EFD5DF" cx="145.003" cy="60.762" rx="8.416" ry="13.761"/>
		<g>
			<path fill="#EFD5DF" d="M152.94,60.762c-0.081,4.557-1.861,13.283-7.937,13.283c-6.025,0-7.931-8.726-7.937-13.283
				c-0.006-4.547,1.922-13.283,7.937-13.283C151.079,47.479,152.86,56.206,152.94,60.762c0.011,0.615,0.968,0.617,0.957,0
				c-0.084-4.758-1.424-11.025-6.039-13.492c-3.881-2.075-7.659,0.643-9.537,4.068c-2.793,5.094-2.946,11.909-0.756,17.243
				c1.46,3.555,4.738,7.399,9.025,6.198c5.592-1.567,7.22-9.081,7.307-14.016C153.908,60.146,152.951,60.146,152.94,60.762z"/>
		</g>
	</g>
	<g>
		<path d="M145.965,78.743c-8.577-0.268-11.667-11.006-11.763-17.981c-0.008-0.615-0.966-0.617-0.957,0
			c0.104,7.538,3.562,18.651,12.72,18.938C146.581,79.719,146.58,78.762,145.965,78.743L145.965,78.743z"/>
	</g>
	<g>
		<path d="M134.202,60.762c0.074-5.394,1.481-11.353,5.51-15.219c4.799-4.605,10.943-2.684,14.496,2.408
			c0.35,0.502,1.18,0.024,0.826-0.483c-3.424-4.907-9.331-7.571-14.632-3.748c-5.248,3.786-7.073,10.906-7.158,17.042
			C133.236,61.378,134.193,61.378,134.202,60.762L134.202,60.762z"/>
	</g>
	<g>
		<path d="M153.657,95.103c5.242-3.673,9.682-8.22,13.357-13.454c0.355-0.505-0.475-0.984-0.826-0.483
			c-3.579,5.097-7.908,9.533-13.013,13.11C152.673,94.628,153.151,95.458,153.657,95.103L153.657,95.103z"/>
	</g>
	<g>
		<path d="M154.654,101.392c8.622-2.219,16.616-6.15,23.745-11.471c0.488-0.364,0.011-1.195-0.483-0.826
			c-7.07,5.277-14.964,9.174-23.517,11.374C153.803,100.622,154.056,101.546,154.654,101.392L154.654,101.392z"/>
	</g>
	<g>
		<path d="M156.662,111.72c7.774,3.44,15.972,5.523,24.456,6.113c0.615,0.043,0.612-0.915,0-0.957
			c-8.306-0.577-16.362-2.614-23.973-5.982C156.587,110.646,156.099,111.471,156.662,111.72L156.662,111.72z"/>
	</g>
</g>
<g>
	<g>
		<path fill="#EFD5DF" d="M56.351,27.053c0.704-0.919,0.361-1.567,0.316-7.568c-0.023-2.987-0.104-4.026-0.467-4.102
			c-0.509-0.107-1.326,1.725-2.115,3.494c-0.709,1.59-1.179,2.944-1.471,3.862c0.106,0.829-0.01,1.079-0.148,1.144
			c-0.166,0.078-0.355-0.118-0.997-0.334c0,0-0.267-0.09-0.602-0.166c-0.804-0.182-2.09,1.196-2.574,1.747
			c-0.248-0.044-0.618-0.091-1.065-0.073c-0.263,0.011-1.269,0.074-2.429,0.717c-1.115,0.618-1.182,1.112-1.697,1.058
			c-0.69-0.072-0.793-0.806-1.614-1.192c-0.512-0.24-1.145-0.017-1.545,0.381c-0.4,0.399-0.62,0.94-0.83,1.464
			c-0.236-1.272-1.902-2.026-3.013-1.364c-0.768,0.458-1.428,1.462-2.278,1.184c-0.872-0.286-1.019-1.76-1.934-1.825
			c-0.817-0.058-1.237,1.109-2.045,1.238c-0.685,0.11-1.212-0.553-1.803-0.917c-0.244-0.15-1.469-0.518-2.356-0.011
			c-0.722,0.413-1.244,1.447-1.091,2.088c0.441,1.848,6.81,1.409,19.401,1.297c2.49-0.022,3.735-0.033,4.362-0.025
			c2.256,0.03,2.476,0.101,3.238,0C52.673,29.005,55.1,28.684,56.351,27.053z"/>
		<g>
			<path d="M56.764,27.294c0.529-0.74,0.505-1.594,0.5-2.472c-0.015-2.582-0.001-5.214-0.175-7.789
				c-0.043-0.633,0.023-2.046-0.89-2.13c-1.445-0.133-2.493,3.622-2.863,4.505c-0.436,1.042-0.709,2.184-1.184,3.202
				c-0.149,0.318,0.213,0.567-0.049,0.676c0.039-0.016-1.055-0.363-1.109-0.366c-0.718-0.046-1.197,0.217-1.776,0.647
				c-0.975,0.724-1.01,0.847-2.233,1.027c-0.884,0.13-1.613,0.418-2.428,0.765c-0.597,0.254-1.111,0.866-1.875,0.654
				c-0.258-0.071-0.643-0.664-0.953-0.788c-1.607-0.641-2.55,0.87-3.077,2.132c0.308,0,0.615,0,0.923,0
				c-0.313-0.876-0.834-1.56-1.769-1.84c-1.163-0.348-1.526,0.315-2.494,0.59c-2.896,0.822-1.587-1.015-3.423-1.107
				c-1.443-0.072-1.167,1.483-3.029,0.81c-1.035-0.374-1.465-1.01-2.74-0.691c-0.954,0.239-1.827,1.093-1.983,2.091
				c-0.164,1.053,0.382,1.611,1.308,1.982c1.595,0.64,3.622,0.54,5.305,0.57c3.8,0.07,7.604-0.049,11.403-0.093
				c2.882-0.033,5.799,0.102,8.677,0.008c2.156-0.07,4.377-0.647,5.861-2.288c0.412-0.456-0.263-1.135-0.677-0.677
				c-2.51,2.777-7.035,1.938-10.375,1.966c-5.131,0.042-10.276,0.248-15.406,0.116c-1.322-0.034-2.784-0.002-4.065-0.383
				c-1.133-0.337-1.214-0.336-0.195-1.461c1.671-1.844,1.755-0.077,3.424,0.172c0.553,0.083,0.72-0.101,1.231-0.253
				c0.683-0.203,1.148-0.592,1.965-0.116c0.193,0.113,0.321,0.511,0.511,0.658c1.364,1.05,4.843-1.776,5.55,0.199
				c0.169,0.471,0.742,0.433,0.923,0c0.81-0.307,1.621-0.614,2.431-0.922c0.11,0.105,0.22,0.211,0.33,0.316
				c0.156,0.03,0.228,0.223,0.425,0.204c0.314-0.03,0.487,0.102,0.851,0.001c0.911-0.253,1.6-1.23,2.594-1.505
				c0.691-0.191,1.534,0.084,2.15-0.108c0.417-0.13,0.667-0.583,0.979-0.87c0.532-0.489,1.064-0.881,1.832-0.774
				c0.289,0.04,0.59,0.349,0.868,0.337c0.547-0.024,0.687,0.111,1.016-0.423c0.317-0.516,0.207-1.468,0.378-2.059
				c0.38-1.308,1-2.58,1.576-3.812c0.207-0.443,0.41-0.891,0.653-1.316c0.251-0.438,0.135-0.866,0.395-0.556
				c0.323,0.385,0.118,2.037,0.126,2.52c0.035,1.997,0.096,3.995,0.124,5.992c0.011,0.753,0.093,1.532-0.366,2.173
				C55.579,27.313,56.409,27.792,56.764,27.294z"/>
		</g>
	</g>
	<g>
		<path d="M25.427,28.153c-1.883-1.501-0.785-2.014,0.822-2.493c1.689-0.503,3.485-0.692,5.233-0.861
			c6.028-0.58,12.122-0.546,18.17-0.489c0.616,0.006,0.617-0.951,0-0.957c-7.152-0.067-14.582-0.306-21.66,0.941
			c-2.495,0.44-6.74,1.746-3.242,4.535C25.227,29.21,25.909,28.537,25.427,28.153L25.427,28.153z"/>
	</g>
	<g>
		<path d="M26.842,24.466c-5.71-4.109-6.829-12.297-2.594-17.87c0.249-0.328-0.166-0.839-0.54-0.703
			c-2.548,0.929-5.532,2.078-6.687,4.759c-0.882,2.047-0.479,4.318,1.31,5.667c0.123-0.292,0.246-0.583,0.369-0.875
			c-0.963-0.399-1.927-0.798-2.89-1.197c-0.305-0.126-0.592,0.186-0.606,0.461c-0.164,3.263,1.013,6.205,3.369,8.464
			c0.193-0.251,0.387-0.501,0.58-0.752c-1.279-0.871-3.902-2-4.709,0.177c-0.776,2.094,2.715,3.808,4.098,4.462
			c-0.032-0.251-0.065-0.501-0.097-0.752c-0.438,0.543-0.877,1.086-1.315,1.629c-0.278,0.344-0.084,0.76,0.338,0.817
			c2.544,0.342,5.088,0.684,7.633,1.025c0.608,0.082,0.602-0.876,0-0.957c-2.544-0.342-5.088-0.684-7.633-1.025
			c0.113,0.272,0.226,0.545,0.338,0.817c0.438-0.543,0.877-1.086,1.315-1.629c0.176-0.217,0.208-0.607-0.097-0.752
			c-0.824-0.39-2.515-1.025-2.892-1.861c-0.796-0.55-0.492-1.229,0.911-2.035c0.586,0.229,1.128,0.532,1.627,0.909
			c0.452,0.308,0.968-0.379,0.58-0.752c-2.185-2.094-3.24-4.768-3.089-7.787c-0.202,0.154-0.404,0.308-0.606,0.461
			c0.963,0.399,1.927,0.798,2.89,1.197c0.544,0.225,0.76-0.579,0.369-0.875c-2.109-1.592-1.355-4.496,0.245-6.07
			c1.335-1.313,3.184-1.98,4.904-2.607c-0.18-0.234-0.36-0.469-0.54-0.703c-4.582,6.029-3.17,14.785,2.937,19.18
			C26.859,25.653,27.338,24.823,26.842,24.466L26.842,24.466z"/>
	</g>
	<g>
		<path fill="#FFFFFF" d="M23.525,26.447c-0.563-1.375-2.292-1.778-3.356-2.207c-2.025-0.816-3.167-2.336-4.599-4.242
			c-2.575-3.429-2.308-7.901-1.994-10.131c-1.613,1.623-3.274,3.396-3.744,5.636c-0.47,2.24,0.814,5.002,3.089,5.25
			c-1.042,0.053-2.083,0.106-3.125,0.159c1.052,2.834,3.501,5.11,6.404,5.954c-0.871-0.149-1.801-0.292-2.61,0.063
			c-0.809,0.355-1.366,1.42-0.873,2.153c0.246,0.366,0.677,0.556,1.093,0.701c1.252,0.436,2.586,0.634,3.91,0.582
			c-0.163,0.678-0.326,1.357-0.489,2.035c3.022-1.165,6.044-2.331,9.066-3.496c-0.758-0.105-1.73-0.378-2.284-1.161
			C23.678,27.268,23.718,26.918,23.525,26.447z"/>
		<g>
			<path d="M23.938,26.206c-0.628-1.089-1.48-1.55-2.61-2.042c-2.134-0.93-3.513-1.992-4.92-3.85
				c-2.348-3.098-2.847-6.671-2.353-10.447c0.056-0.427-0.551-0.609-0.817-0.338c-1.956,1.99-4.202,4.398-3.948,7.414
				c0.174,2.066,1.432,3.846,3.505,4.272c0.042-0.313,0.085-0.627,0.127-0.94c-1.042,0.053-2.083,0.106-3.125,0.159
				c-0.275,0.014-0.588,0.301-0.461,0.606c1.272,3.064,3.588,5.242,6.738,6.288c0.085-0.308,0.17-0.615,0.254-0.923
				c-1.571-0.245-4.175-0.283-4.247,1.956c-0.078,2.415,4.047,2.486,5.64,2.483c-0.154-0.202-0.308-0.404-0.461-0.606
				c-0.163,0.678-0.326,1.357-0.489,2.035C16.693,32.597,17,33,17.359,32.862c3.022-1.165,6.044-2.331,9.066-3.496
				c0.395-0.152,0.511-0.824,0-0.923c-1.153-0.1-1.966-0.807-2.438-2.123c-0.174-0.589-1.098-0.339-0.923,0.254
				c0.498,1.69,1.362,2.454,3.107,2.792c0-0.308,0-0.615,0-0.923c-3.022,1.165-6.044,2.331-9.066,3.496
				c0.196,0.196,0.392,0.392,0.589,0.589c0.163-0.678,0.326-1.357,0.489-2.035c0.072-0.3-0.142-0.606-0.461-0.606
				c-0.755,0.001-2.097,0.235-2.635-0.244c-0.654-0.013-0.754-0.437-0.301-1.271c-0.305-1.237,0.124-1.585,1.288-1.043
				c0.599,0.093,0.851-0.725,0.254-0.923c-2.81-0.933-4.934-2.884-6.069-5.619c-0.154,0.202-0.308,0.404-0.461,0.606
				c1.042-0.053,2.083-0.106,3.125-0.159c0.512-0.026,0.682-0.826,0.127-0.94c-2.31-0.475-3.182-2.91-2.655-5.027
				c0.504-2.024,2.107-3.621,3.521-5.06c-0.272-0.113-0.545-0.226-0.817-0.338c-0.418,3.193-0.213,6.604,1.448,9.441
				c0.892,1.522,2.135,3.132,3.51,4.232c1.506,1.205,4.055,1.415,5.055,3.148C23.42,27.222,24.247,26.741,23.938,26.206z"/>
		</g>
	</g>
	<g>
		<path d="M60.623,23.872c6.158-4.406,11.254-9.97,15.258-16.387c0.327-0.524-0.501-1.005-0.826-0.483
			C71.14,13.276,66.16,18.738,60.14,23.046C59.643,23.401,60.12,24.232,60.623,23.872L60.623,23.872z"/>
	</g>
	<g>
		<path d="M59.281,17.35c3.799-5.004,6.437-10.671,7.974-16.755c0.151-0.597-0.772-0.852-0.923-0.254
			c-1.518,6.009-4.127,11.586-7.877,16.526C58.082,17.358,58.913,17.835,59.281,17.35L59.281,17.35z"/>
	</g>
	<g>
		<path d="M20.666,39.21c-3.292,7.928-4.238,16.49-2.827,24.953c0.101,0.606,1.024,0.349,0.923-0.254
			c-1.383-8.289-0.394-16.686,2.827-24.444C21.825,38.897,20.899,38.649,20.666,39.21L20.666,39.21z"/>
	</g>
	<g>
		<path d="M15.843,40.38c-3.605,6.726-5.433,14.137-5.373,21.768c0.005,0.616,0.962,0.617,0.957,0
			c-0.059-7.468,1.714-14.702,5.242-21.285C16.96,40.321,16.134,39.837,15.843,40.38L15.843,40.38z"/>
	</g>
	<g>
		<path d="M11.256,41.209C7.095,44.501,3.377,48.245,0.11,52.426c-0.375,0.48,0.298,1.162,0.677,0.677
			c3.267-4.181,6.985-7.925,11.146-11.217C12.416,41.504,11.734,40.831,11.256,41.209L11.256,41.209z"/>
	</g>
</g>
<g>
	<g>
		<path d="M229.959,218.995c6.014,0.747,11.987,0.211,17.774-1.583c0.586-0.182,0.336-1.106-0.254-0.923
			c-5.709,1.77-11.59,2.285-17.519,1.549C229.35,217.962,229.355,218.92,229.959,218.995L229.959,218.995z"/>
	</g>
	<g>
		<path d="M231.773,229.579c8.849-1.577,15.631,6.719,24.367,6.585c0.615-0.009,0.617-0.967,0-0.957
			c-8.842,0.135-15.552-8.168-24.621-6.551C230.913,228.764,231.169,229.687,231.773,229.579L231.773,229.579z"/>
	</g>
	<g>
		<path d="M215.75,225.151c1.127,0.814,1.52,3.189,1.889,4.459c0.429,1.477,0.867,3.254,0.179,4.726
			c-0.854,1.827-2.231,3.32-2.843,5.303c-1.49,4.823-1.311,10.605-1.257,15.566c0.012,1.139,0.454,3.683-0.038,4.643
			c-0.349,0.681-0.27-0.525-0.34-1.018c-0.177-1.248-0.287-2.51-0.43-3.763c-0.502-4.39-1.001-8.781-1.506-13.17
			c-0.111-0.964,0.007-1.232-0.882-1.646c-0.6-0.279-1.359-0.334-1.903,0.086c-1.274,0.984-0.751,3.703-0.742,5.016
			c0.04,5.729-1.841,11.818-7.427,14.497c-3.863,1.853-9.427,0.625-13.457,0.319c-2.395-0.182-4.806-0.291-7.195-0.544
			c-1.672-0.177-1.545-0.459-0.085-1.573c2.463-1.88,5.509-3.144,8.316-4.406c0.698-0.314,1.394-0.636,2.102-0.926
			c1.575-0.645,1.9-0.417,3.392,0.432c0.671,0.382,0.993,0.604,1.823,0.514c6.544-0.711,6.21-7.704,6.849-12.505
			c0.59-4.435,2.515-8.438,5.58-11.699C209.273,227.866,213.163,223.994,215.75,225.151c0.558,0.249,1.045-0.575,0.483-0.826
			c-2.814-1.258-6.348,1.768-8.204,3.524c-3.751,3.55-6.121,8.14-6.794,13.256c-0.316,2.406-0.144,4.994-0.89,7.32
			c-0.405,1.262-1.119,2.244-2.2,3.002c-0.55,0.386-1.29,0.819-1.918,1.011c-0.703,0.332-1.43,0.289-2.182-0.129
			c-0.112-0.19-0.256-0.348-0.432-0.473c-1.928-0.901-2.662-0.516-4.665,0.361c-2.662,1.165-5.34,2.367-7.854,3.832
			c-0.836,0.487-4.895,2.668-3.204,4.159c0.317,0.279,0.911,0.276,1.305,0.331c1.533,0.217,3.1,0.261,4.643,0.373
			c4.722,0.344,9.794,1.233,14.526,0.554c2.901-0.417,5.319-2.3,7.095-4.567c2.865-3.659,3.424-7.924,3.36-12.489
			c-0.011-0.809-0.406-4.457,1.627-2.493c0.306,0.296,0.271,2.373,0.323,2.822c0.126,1.098,0.251,2.195,0.377,3.293
			c0.484,4.233,0.968,8.467,1.453,12.7c0.029,0.251,0.196,0.486,0.479,0.479c0.351-0.01,0.702-0.019,1.054-0.029
			c0.265-0.007,0.469-0.214,0.479-0.479c0.142-4.145-0.016-8.282,0.238-12.424c0.196-3.208,0.25-6.781,1.612-9.744
			c1.022-2.223,2.766-3.771,2.655-6.341c-0.074-1.728-0.708-3.445-1.277-5.06c-0.365-1.035-0.681-2.122-1.604-2.788
			C215.733,223.963,215.254,224.793,215.75,225.151z"/>
	</g>
	<path fill="#EFD5DF" d="M217.077,234.353c-1.892,2.86-2.919,5.277-3.065,6.375c-0.092,0.695-0.123,1.471-0.123,1.471
		c-0.03,0.774,0.001,1.348,0.012,1.571c0.059,1.194,0.03,2.556-0.027,5.279c-0.037,1.765-0.077,2.02-0.09,2.456
		c-0.009,0.321-0.003,0.559-0.002,0.624c0.022,1.213-0.181,2.521-0.046,4.183c0.069,0.842,0.104,1.687,0.184,2.528
		c0.034,0.364,0.103,1.05-0.23,1.241c-0.095,0.055-0.2,0.055-0.276,0.046c-0.466-5.068-0.723-8.286-0.873-10.328
		c-0.111-1.508-0.337-3.008-0.377-4.519c-0.026-0.985-0.199-1.961-0.266-2.943c-0.068-0.982-0.097-1.724-0.644-2.207
		c-0.334-0.295-0.738-0.384-1.011-0.414c-0.26-0.048-1.676-0.29-2.36,0.521c-0.237,0.281-0.332,0.625-0.398,1.456
		c-0.096,1.207-0.144,1.81,0.031,2.835c0.284,1.671,0.196,5.284-0.858,8.214c-0.267,0.743-1.667,4.4-5.397,6.494
		c-1.577,0.885-2.99,1.157-4.042,1.352c-2.713,0.502-3.127-0.147-7.708-0.322c-3.408-0.13-6.801-0.938-10.206-0.736
		c-0.066,0.004-0.32,0.023-0.383-0.098c-0.098-0.186,0.324-0.586,0.48-0.734c0.884-0.838,7.387-4.329,10.569-6.018
		c0.406-0.239,0.926-0.476,1.195-0.276c0.471,0.351-0.404,1.613,0.027,2.272c0.653,0.997,4.193,0.454,6.822-1.398
		c2.368-1.668,3.377-3.962,4-5.425c1.856-4.362,0.525-6.292,2.758-11.171c0.572-1.251,1.102-2.09,1.64-2.942
		c1.609-2.549,4.938-7.825,7.846-7.233c1.174,0.239,1.871,1.351,2.329,2.084C218.18,231.137,217.226,233.938,217.077,234.353z"/>
	<g>
		<path d="M219.093,232.176c1.24-0.621,2.514-1.396,3.109-2.714c0.293-0.648,0.356-1.341,0.381-2.043
			c0.016-0.453-0.096-0.946-0.033-1.394c0.118-0.834,0.105-1.059,0.624-0.609c1.748,1.514,1.365,5.347,0.561,7.129
			c-0.63,1.395-1.671,2.597-2.979,3.401c-0.466,0.286-0.161,0.999,0.369,0.875c1.266-0.296,3.142-1.278,4.379-1.249
			c2.563,0.061-0.302,3.768-1.097,4.622c-1.529,1.643-3.524,2.906-4.97,4.608c-2.28,2.684,3.537,0.407,4.076,0.199
			c-0.202-0.154-0.404-0.308-0.606-0.461c-0.065,1.835-0.876,3.401-2.357,4.472c-1.114,0.805-2.318,0.823-3.536,1.285
			c-1.72,0.653-2.626,2.242-3.052,3.946c-0.149,0.598,0.773,0.853,0.923,0.254c0.538-2.151,1.669-2.962,3.679-3.587
			c1.015-0.316,1.876-0.606,2.724-1.266c1.641-1.277,2.503-3.036,2.577-5.105c0.01-0.288-0.318-0.573-0.606-0.461
			c-0.907,0.35-1.883,0.61-2.77,1.004c-0.238,0.106-0.583,0.082-0.799,0.216c-0.078,0.048,0.175,0.306,0.424,0.181
			c1.277-0.644,2.621-2.332,3.661-3.313c2.154-2.033,4.694-4.534,2.973-7.64c-0.095-0.172-0.347-0.29-0.54-0.22
			c-1.75,0.638-3.523,1.168-5.337,1.592c0.123,0.292,0.246,0.583,0.369,0.875c4.395-2.7,5.372-8.677,2.153-12.685
			c-0.099-0.123-0.32-0.173-0.466-0.123c-0.918,0.316-1.211,0.793-1.315,1.763c-0.119,1.118,0.161,2.237-0.288,3.316
			c-0.474,1.139-1.67,1.782-2.715,2.306C218.059,231.625,218.543,232.451,219.093,232.176L219.093,232.176z"/>
	</g>
	<g>
		<path d="M225.447,215.596c5.419-4.001,10.141-8.745,14.116-14.183c0.364-0.498-0.466-0.976-0.826-0.483
			c-3.874,5.3-8.492,9.94-13.773,13.84C224.474,215.132,224.951,215.963,225.447,215.596L225.447,215.596z"/>
	</g>
</g>
<g>
	<g>
		<path d="M56.044,49.848c-0.698,12.062,4.478,25.462,15.735,31.21c9.591,4.897,18.952-0.815,24.162-9.258
			c4.206-6.816,5.597-14.918,4.669-22.812c-0.071-0.604-1.029-0.612-0.957,0c1.363,11.596-2.73,25.415-13.65,31.288
			c-9.336,5.021-19.078-1.895-24.049-9.83c-3.862-6.165-5.37-13.382-4.953-20.597C57.037,49.233,56.08,49.235,56.044,49.848
			L56.044,49.848z"/>
	</g>
	<g>
		<path d="M78.245,39.89c-3.184,8.902-11.61,15.013-21.062,15.318c-0.614,0.02-0.617,0.977,0,0.957
			c9.903-0.32,18.652-6.702,21.985-16.021C79.376,39.564,78.451,39.314,78.245,39.89L78.245,39.89z"/>
	</g>
	<g>
		<path d="M78.245,40.145c3.693,8.941,12.515,14.321,22.164,13.53c0.61-0.05,0.615-1.008,0-0.957
			c-9.19,0.753-17.704-4.263-21.242-12.828C78.936,39.329,78.01,39.575,78.245,40.145L78.245,40.145z"/>
	</g>
	<g>
		<path d="M59.886,109.65c-0.317,4.846,2,8.65,4.087,12.771c1.659,3.277,3.828,6.541,4.178,10.279
			c0.45,4.815-1.186,9.625-3.024,13.996c-0.238,0.567,0.687,0.815,0.923,0.254c1.757-4.179,3.273-8.696,3.117-13.292
			c-0.113-3.345-1.449-5.943-2.932-8.881c-2.372-4.698-5.749-9.675-5.392-15.128C60.884,109.035,59.926,109.037,59.886,109.65
			L59.886,109.65z"/>
	</g>
	<g>
		<path d="M93.863,105.877c-5.739,0.237-10.894,2.784-14.237,7.514c0.275,0,0.551,0,0.826,0c-3.12-5.916-10.611-9.86-17.127-7.388
			c-0.57,0.216-0.323,1.142,0.254,0.923c6.138-2.328,13.112,1.385,16.046,6.948c0.18,0.342,0.631,0.276,0.826,0
			c3.137-4.438,8.043-6.818,13.411-7.04C94.477,106.809,94.48,105.852,93.863,105.877L93.863,105.877z"/>
	</g>
	<g>
		<path d="M64.577,101.713c3.431-1.19,8.365-2.438,9.961-6.129c1.752-4.052,1.635-9.42,1.064-13.669
			c-0.081-0.601-1.039-0.609-0.957,0c0.539,4.018,0.463,8.176-0.612,12.111c-1.163,4.254-6.001,5.477-9.711,6.764
			C63.744,100.991,63.993,101.916,64.577,101.713L64.577,101.713z"/>
	</g>
	<g>
		<path d="M61.065,116.421c-0.58,6.174-0.701,12.363-0.58,18.561c0.063,3.233,0.34,6.385,1.178,9.509
			c2.239,8.349,6.584,17.952,14.57,22.21c1.706,0.91,2.833,2.207,3.761,3.891c0.244,0.443,0.79,1.26,0.821,1.742
			c0.073,1.15-0.134,1.074-1.19,0.79c-1.224-0.33-2.692-1.628-3.625-2.429c-2.134-1.832-3.994-4.061-5.778-6.222
			c-6.629-8.033-11.55-16.998-13.436-27.279c-0.993-5.415-2.106-10.871-2.353-16.384c-0.268-5.996,0.241-11.398,4.644-15.801
			c0.438-0.438-0.225-1.093-0.677-0.677c-0.19,0.175-0.379,0.349-0.568,0.524c-0.454,0.419,0.224,1.094,0.677,0.677
			c0.189-0.175,0.379-0.349,0.568-0.524c0.454-0.419-0.224-1.094-0.677-0.677c-0.189,0.175-0.379,0.349-0.568,0.524
			c0.226,0.226,0.451,0.451,0.677,0.677c0.189-0.175,0.379-0.35,0.568-0.524c-0.226-0.226-0.451-0.451-0.677-0.677
			c-3.25,3.25-4.579,6.887-4.888,11.429c-0.371,5.448,0.458,10.797,1.377,16.143c0.812,4.721,1.439,9.562,3.13,14.069
			c2.152,5.738,5.332,11.06,8.995,15.955c2.361,3.154,4.908,6.295,7.804,8.981c1.081,1.003,6.213,5.451,7.131,2.727
			c0.449-1.331-1.07-3.513-1.733-4.546c-1.093-1.703-2.4-2.584-4.112-3.545c-4.9-2.749-8.049-7.823-10.385-12.772
			c-2.084-4.417-3.724-9.226-4.119-14.124c-0.593-7.346-0.267-14.9,0.421-22.228C62.079,115.808,61.122,115.812,61.065,116.421
			L61.065,116.421z"/>
	</g>
	<g>
		<path d="M61.076,152.673c-9.342,12.219-16.371,25.66-21.65,40.082c-5.319,14.534-9.066,29.557-13.037,44.495
			c-1.62,6.093-3.258,12.198-5.323,18.159c-1.521,4.391-3.226,9.05-6.142,12.735c-0.837,1.058-6.537,6.181-3.086,6.861
			c2.044,0.403,4.989-1.028,6.883-1.57c3.693-1.057,7.402-2.175,11.178-2.902c1.665-0.32,3.484-0.662,5.115-0.022
			c1.493,0.587,2.42,1.844,3.71,2.708c1.339,0.898,2.951,1.253,4.553,1.218c3.649-0.078,7.5-1.826,10.73-3.434
			c3.328-1.657,6.308-0.003,8.928,2.368c0.456,0.412,1.135-0.262,0.677-0.677c-1.97-1.783-4.332-3.447-7.106-3.433
			c-1.555,0.008-2.735,0.837-4.105,1.469c-3.611,1.668-9.214,4.153-12.976,1.816c-1.694-1.053-2.852-2.704-4.893-3.193
			c-1.252-0.3-2.574-0.129-3.827,0.068c-3.289,0.518-6.524,1.477-9.724,2.375c-1.744,0.489-3.481,1.004-5.226,1.487
			c-0.697,0.193-2.868,1.119-3.587,0.782c-1.351-0.634,2.53-4.137,3.329-5.116c2.529-3.102,4.133-6.93,5.537-10.641
			c2.1-5.55,3.704-11.285,5.259-17.008c3.862-14.209,7.313-28.535,12.022-42.499c5.55-16.459,13.012-31.814,23.587-45.646
			C62.277,152.667,61.446,152.19,61.076,152.673L61.076,152.673z"/>
	</g>
	<g>
		<path d="M98.755,153.753c23.343,24.169,42.101,52.495,55.35,83.371c3.096,7.215,5.883,14.559,8.394,21.997
			c0.196,0.581,1.121,0.331,0.923-0.254c-10.141-30.044-25.067-58.392-44.558-83.433c-6.07-7.798-12.567-15.25-19.432-22.357
			C99.003,152.633,98.326,153.31,98.755,153.753L98.755,153.753z"/>
	</g>
	<g>
		<path d="M93.763,100.306c-8.22-0.127-8.078-13.964-7.545-19.49c0.059-0.613-0.899-0.609-0.957,0
			c-0.589,6.121-0.475,20.309,8.503,20.447C94.379,101.273,94.379,100.316,93.763,100.306L93.763,100.306z"/>
	</g>
	<g>
		<path d="M97.315,114.015c3.15,12.303,3.252,25.021-1.861,36.807c-1.058,2.44-2.096,5.122-4.023,7.028
			c-1.999,1.976-4.811,2.477-6.728,4.574c-1.3,1.422-5.046,6.449-1.115,6.819c4.038,0.379,6.331-3.692,8.32-6.494
			c1.41-1.986,3.188-3.644,4.641-5.593c1.741-2.334,3.157-4.907,4.428-7.521c3.332-6.851,5.999-14.54,6.212-22.219
			c0.224-8.081,1.283-21.323-7.78-25.29c-0.559-0.245-1.047,0.58-0.483,0.826c8.371,3.665,7.452,15.739,7.329,23.259
			c-0.116,7.112-2.155,14.156-5.029,20.624c-1.917,4.314-4.169,8.523-7.36,12.033c-1.484,1.632-2.763,3.351-3.975,5.191
			c-1.231,1.869-3.113,4.067-5.515,4.249c-1.951,0.148-1.808-0.501-1.172-1.98c0.506-1.175,1.312-2.295,2.175-3.229
			c1.752-1.894,4.17-2.381,6.099-4.008c3.248-2.741,4.828-7.47,6.256-11.343c4.013-10.888,3.342-22.903,0.503-33.99
			C98.086,113.164,97.162,113.417,97.315,114.015L97.315,114.015z"/>
	</g>
	<g>
		<path d="M100.748,51.978c-3.241-2.641-7.191-3.805-10.88-5.642c-4.773-2.377-8.07-6.43-8.714-11.815
			c-0.072-0.604-1.03-0.611-0.957,0c0.511,4.274,2.559,8.155,6.041,10.75c4.237,3.158,9.71,4.025,13.832,7.384
			C100.545,53.04,101.226,52.367,100.748,51.978L100.748,51.978z"/>
	</g>
	<g>
		<path d="M75.772,34.661c-3.306,8.292-10.651,14.4-19.376,16.223c-0.603,0.126-0.348,1.049,0.254,0.923
			c9.076-1.896,16.615-8.292,20.045-16.892C76.923,34.343,75.997,34.095,75.772,34.661L75.772,34.661z"/>
	</g>
	<g>
		<path d="M85.337,36.331c8.072,1.338,13.776,8.431,15.552,16.127c1.357,5.881,0.052,12.058-1.19,17.839
			c-1.815,8.453-4.789,16.765-6.086,25.312c-0.463,3.049-0.107,5.948-0.154,8.997c-0.036,2.322-0.538,4.525-1.072,6.77
			c-0.146,0.613-0.528,1.56-0.109,2.142c0.092,0.128,0.24,0.257,0.413,0.237c1.279-0.15,2.173-1.84,2.853-2.773
			c0.363-0.498-0.467-0.976-0.826-0.483c-0.185,0.254-1.824,2.286-1.665,2.388c-0.173-0.111,0.434-1.947,0.506-2.238
			c0.371-1.505,0.667-3.02,0.789-4.567c0.212-2.692-0.265-5.364-0.062-8.054c0.544-7.213,3.258-14.28,4.923-21.28
			c2.364-9.944,5.436-20.773,0.428-30.413c-2.861-5.507-7.814-9.894-14.046-10.927C84.988,35.308,84.729,36.23,85.337,36.331
			L85.337,36.331z"/>
	</g>
	<g>
		<path d="M59.222,67.401c1.755,8.82,3.53,17.748,4.174,26.734c0.398,5.557-1.105,11.168,0.122,16.637
			c0.257,1.143,0.53,2.453,1.033,3.511c0.048,0.101,0.312,0.84,0.278,0.882c0.278-0.351,0.049-0.235-0.235-0.603
			c-1.923-2.489-3.55-5.075-4.681-8.029c-1.696-4.429-2.397-9.285-3.4-13.903c-1.563-7.203-2.898-14.42-3.874-21.727
			c-1.261-9.447-2.561-18.973,2.477-27.674c3.762-6.496,10.495-10.756,17.714-12.417c7.067-1.626,14.867-0.853,21.153,2.902
			c6.294,3.759,10.145,10.357,11.5,17.453c0.96,5.026,0.79,10.24,0.501,15.321c-0.396,6.953-1.321,13.84-2.838,20.638
			c-1.212,5.429-2.72,10.822-4.716,16.018c-0.242,0.63-3.224,8.303-4.33,7.56c-0.513-0.344-0.992,0.484-0.483,0.826
			c3.164,2.125,7.607-13.484,8.074-15.034c3.632-12.064,5.624-24.82,5.45-37.434c-0.106-7.65-1.773-15.449-6.916-21.378
			c-5.053-5.825-12.751-8.634-20.347-8.632c-7.478,0.002-15.073,2.611-20.662,7.644c-7.106,6.4-9.622,16.324-8.629,25.613
			c0.89,8.32,2.121,16.642,3.791,24.841c1.08,5.302,2.196,10.614,3.458,15.876c0.513,2.137,1.244,4.212,2.201,6.191
			c0.971,2.009,2.396,5.145,4.337,6.491c0.602,0.417,1.186,0.714,1.466-0.152c0.228-0.705-0.567-2.096-0.766-2.732
			c-0.577-1.838-0.983-3.702-1.111-5.632c-0.215-3.26,0.573-6.443,0.539-9.698c-0.103-10.158-2.388-20.441-4.359-30.35
			C60.025,66.542,59.102,66.798,59.222,67.401L59.222,67.401z"/>
	</g>
	<g>
		<path d="M56.407,58.132c2.033,18.516,4.067,37.032,6.1,55.547c0.067,0.606,1.024,0.612,0.957,0
			c-2.033-18.516-4.067-37.032-6.1-55.547C57.297,57.526,56.339,57.519,56.407,58.132L56.407,58.132z"/>
	</g>
	<g>
		<path d="M97.074,67.71c-0.539,10.785-3.239,21.32-7.959,31.032c-0.268,0.552,0.557,1.038,0.826,0.483
			c4.796-9.867,7.542-20.558,8.09-31.515C98.062,67.095,97.104,67.096,97.074,67.71L97.074,67.71z"/>
	</g>
	<g>
		<path d="M64.529,75.457c1.367,8.069,2.733,16.137,4.1,24.206c0.103,0.606,1.025,0.349,0.923-0.254
			c-1.367-8.069-2.733-16.137-4.1-24.206C65.349,74.596,64.427,74.853,64.529,75.457L64.529,75.457z"/>
	</g>
	<g>
		<path d="M50.496,59.847c-2.973,19.138-7.263,38.009-11.019,56.998c-2.155,10.894-4.219,21.808-6.052,32.762
			c-1.49,8.903-3.051,17.912-3.531,26.939c-0.103,1.946-0.617,5.272,0.53,7.044c0.167,0.258,0.327,0.416,0.565,0.605
			c0.685,0.541,1.85,0.781,2.616,1.262c0.695,0.436,1.328,0.93,2.135,1.155c1.003,0.28,1.8,0.009,2.8-0.204
			c1.875-0.398,3.394-0.659,4.992-1.778c0.501-0.351,0.023-1.181-0.483-0.826c-1.404,0.984-2.771,1.263-4.409,1.607
			c-1.954,0.411-2.739,0.373-4.55-0.779c-1.175-0.748-2.559-0.786-3.043-2.106c-0.739-2.018-0.273-4.883-0.135-6.959
			c0.59-8.927,2.107-17.815,3.593-26.628c2.974-17.632,6.462-35.182,10.151-52.677c2.532-12.004,4.88-24.033,6.764-36.158
			C51.513,59.499,50.591,59.239,50.496,59.847L50.496,59.847z"/>
	</g>
	<g>
		<path d="M105.826,53.265c2.045,17.098,4.67,34.165,6.345,51.302c1.088,11.134,1.117,22.295,0.811,33.466
			c-0.207,7.551-0.744,15.302,0.534,22.79c1.292,7.567,5.26,13.625,11.928,17.537c0.532,0.312,1.015-0.515,0.483-0.826
			c-6.329-3.714-10.104-9.382-11.414-16.546c-1.337-7.315-0.795-14.951-0.591-22.338c0.295-10.648,0.328-21.286-0.594-31.908
			c-0.491-5.658-1.298-11.274-2.02-16.905c-1.562-12.184-3.066-24.375-4.525-36.572C106.71,52.661,105.752,52.653,105.826,53.265
			L105.826,53.265z"/>
	</g>
	<g>
		<path d="M112.062,271.028c-1.904-1.758-6.802,1.862-8.52,2.555c-1.964,0.792-3.869,1.285-5.966,0.814
			c-1.37-0.308-2.643-0.669-4.066-0.635c-2.409,0.057-4.627,0.895-6.896,1.608c-3.248,1.02-5.45,0.513-8.498-0.701
			c-2.198-0.875-3.98-1.05-6.253-0.342c-2.631,0.82-7.087,2.333-7.739-1.827c-0.053-0.337-0.454-0.396-0.703-0.286
			c-0.117,0.051-0.234,0.103-0.351,0.154c0.218,0.218,0.437,0.436,0.655,0.655c7.791-13.115,13.063-27.523,15.344-42.613
			c2.358-15.599,2.146-31.791,1.231-47.508c-0.313,0.042-0.627,0.085-0.94,0.127c4.57,13.255,7.402,26.787,9.152,40.674
			c1.285,10.193,3.193,19.907,8.342,28.942c1.818,3.19,3.921,6.211,6.235,9.06c1.398,1.721,2.874,3.377,4.417,4.971
			c0.829,0.856,1.676,1.694,2.541,2.514c0.335,0.317,0.68,0.625,1.011,0.946c0.102,0.099,1.672,2,1.08,0.989
			c-0.311-0.531-1.138-0.05-0.826,0.483c0.268,0.458,0.421,0.815,0.865,1.093c0.169,0.106,0.445,0.08,0.58-0.075
			c0.348-0.401,0.671-1.154,0.505-1.693c-0.144-0.468-0.836-0.846-1.18-1.158c-1.013-0.921-2.007-1.865-2.975-2.834
			c-2.93-2.931-5.644-6.084-8.04-9.468c-3.606-5.095-6.482-10.698-8.355-16.658c-3.309-10.529-3.509-21.819-5.571-32.615
			c-1.649-8.63-3.994-17.121-6.857-25.424c-0.166-0.483-0.973-0.442-0.94,0.127c0.91,15.624,1.147,31.747-1.197,47.254
			c-2.269,15.012-7.495,29.335-15.247,42.384c-0.266,0.447,0.245,0.835,0.655,0.655c0.117-0.051,0.234-0.103,0.351-0.154
			c-0.234-0.095-0.469-0.191-0.703-0.286c0.62,3.957,4.803,3.861,7.776,2.882c1.855-0.611,3.468-1.124,5.441-0.571
			c1.369,0.383,2.614,1.108,3.965,1.542c2.366,0.76,4.574,0.306,6.878-0.446c2.632-0.859,5.32-1.787,8.128-1.313
			c1.289,0.218,2.503,0.722,3.826,0.74c1.874,0.025,3.698-0.692,5.389-1.424c1.158-0.501,5.656-3.498,6.781-2.46
			C111.837,272.122,112.515,271.447,112.062,271.028z"/>
	</g>
	<g>
		<path d="M162.499,258.867c-0.898,4.257-7.141,5.268-10.817,5.368c-2.057,0.056-3.962-0.958-5.986-0.739
			c-2.12,0.229-3.953,1.331-5.457,2.79c-1.704,1.654-3.011,3.903-5.235,4.936c-3.543,1.646-8.165-0.638-11.294-2.276
			c-1.698-0.889-3.262-1.936-5.263-1.696c-2.492,0.299-4.397,2.122-5.95,3.946c-0.397,0.466,0.277,1.147,0.677,0.677
			c2.179-2.559,4.874-4.687,8.259-3.069c2.899,1.386,5.674,3.053,8.87,3.718c2.296,0.478,4.559,0.159,6.46-1.261
			c1.947-1.455,3.19-3.634,5.101-5.131c2.42-1.895,4.402-1.722,7.124-1.147c1.695,0.358,3.455,0.224,5.157-0.024
			c3.525-0.515,8.424-1.796,9.277-5.838C163.548,258.521,162.626,258.264,162.499,258.867L162.499,258.867z"/>
	</g>
	<g>
		<path d="M65.454,147.609c0.616,0,0.617-0.957,0-0.957C64.838,146.652,64.837,147.609,65.454,147.609L65.454,147.609z"/>
	</g>
	<g>
		<path d="M65.465,146.658c6.334,10.347,21.494,10.947,28.675,1.199c0.366-0.496-0.465-0.974-0.826-0.483
			c-6.758,9.173-21.094,8.484-27.022-1.199C65.97,145.65,65.142,146.13,65.465,146.658L65.465,146.658z"/>
	</g>
	<g>
		<path d="M57.183,56.166c0.616,0,0.617-0.957,0-0.957C56.567,55.209,56.566,56.166,57.183,56.166L57.183,56.166z"/>
	</g>
	<g>
		<path d="M101.583,57.757c2.105,8.836,2.972,18.755-0.784,27.306c-1.796,4.087-3.551,7.613-3.979,12.172
			c-0.251,2.677-0.223,5.363-0.945,7.976c-0.729,2.638-2.041,5.05-3.699,7.213c-0.375,0.489,0.456,0.966,0.826,0.483
			c3.11-4.056,4.305-8.505,4.621-13.525c0.195-3.102,0.582-6.169,1.727-9.08c0.777-1.975,1.917-3.78,2.688-5.758
			c3.363-8.629,2.569-18.217,0.467-27.042C102.363,56.904,101.44,57.157,101.583,57.757L101.583,57.757z"/>
	</g>
	<g>
		<path d="M57.541,46.402c6.552-2.932,12.145-7.38,16.523-13.064c0.376-0.488-0.455-0.965-0.826-0.483
			c-4.271,5.546-9.794,9.863-16.179,12.721C56.497,45.827,56.983,46.652,57.541,46.402L57.541,46.402z"/>
	</g>
	<g>
		<path d="M83.769,37.947c4.553,4.101,9.773,7.219,15.541,9.289c0.581,0.208,0.831-0.716,0.254-0.923
			c-5.613-2.015-10.687-5.051-15.119-9.043C83.989,36.859,83.31,37.534,83.769,37.947L83.769,37.947z"/>
	</g>
	<g>
		<path d="M71.748,81.091c-0.005-0.287-0.01-0.574-0.014-0.862c-0.319,0-0.638,0-0.957,0c0.414,5.664,0.827,11.327,1.241,16.991
			c0.045,0.611,1.002,0.616,0.957,0c-0.414-5.664-0.827-11.327-1.241-16.991c-0.044-0.607-0.968-0.623-0.957,0
			c0.005,0.287,0.01,0.574,0.014,0.862C70.801,81.706,71.758,81.708,71.748,81.091L71.748,81.091z"/>
	</g>
	<g>
		<path d="M90.702,77.011c-0.101,5.762-1.596,11.312-4.413,16.339c-0.301,0.538,0.525,1.021,0.826,0.483
			c2.896-5.168,4.44-10.899,4.543-16.822C91.67,76.395,90.713,76.395,90.702,77.011L90.702,77.011z"/>
	</g>
	<g>
		<path d="M33.034,269.468c9.885-10.436,12.623-25.446,14.605-39.165c2.159-14.948,3.648-31.29,13.187-43.672
			c0.376-0.488-0.455-0.965-0.826-0.483c-9.094,11.805-10.961,27.309-12.96,41.615c-1.99,14.243-4.385,30.155-14.682,41.027
			C31.934,269.238,32.61,269.916,33.034,269.468L33.034,269.468z"/>
	</g>
	<g>
		<path d="M64.227,150.016c0.627-1.049,1.254-2.099,1.88-3.148c0.317-0.53-0.511-1.012-0.826-0.483
			c-0.627,1.049-1.254,2.099-1.88,3.148C63.084,150.063,63.911,150.545,64.227,150.016L64.227,150.016z"/>
	</g>
	<g>
		<path d="M96.233,150.664c-0.994-0.894-1.623-1.888-2.046-3.176c-0.308,0.085-0.615,0.17-0.923,0.254
			c0.04,0.106,0.079,0.213,0.119,0.319c0.212,0.567,1.115,0.34,0.923-0.254c-0.893-2.77-1.644-5.594-2.229-8.445
			c-0.739-3.601-1.51-7.627-0.102-11.148c1.699-4.247,4.223-8.201,5.743-12.502c0.893-2.528,1.916-6.535,0.23-8.926
			c-0.352-0.5-1.182-0.022-0.826,0.483c2.187,3.102-0.434,8.799-1.873,11.593c-1.73,3.36-3.943,7.055-4.756,10.777
			c-0.722,3.306,0.039,7.005,0.72,10.257c0.578,2.755,1.307,5.486,2.171,8.166c0.308-0.085,0.615-0.17,0.923-0.254
			c-0.04-0.106-0.079-0.213-0.119-0.319c-0.212-0.568-1.118-0.339-0.923,0.254c0.47,1.431,1.168,2.588,2.292,3.598
			C96.013,151.752,96.692,151.077,96.233,150.664L96.233,150.664z"/>
	</g>
	<g>
		<path d="M36.532,186.007c-1.805-4.334,0.668-8.821,2.005-12.944c1.353-4.173,2.356-8.453,3.124-12.77
			c1.502-8.437,2.117-16.998,2.722-25.536c0.044-0.615-0.914-0.612-0.957,0c-0.661,9.326-1.326,18.689-3.178,27.87
			c-0.869,4.307-2.02,8.536-3.489,12.676c-1.265,3.565-2.692,7.257-1.15,10.959C35.843,186.821,36.769,186.576,36.532,186.007
			L36.532,186.007z"/>
	</g>
	<g>
		<path d="M120.478,179.104c0.06,0.08,0.121,0.16,0.181,0.24c0.132,0.176,0.316,0.276,0.54,0.22
			c1.538-0.385,3.075-0.771,4.613-1.156c0.597-0.15,0.344-1.073-0.254-0.923c-1.538,0.385-3.075,0.771-4.613,1.156
			c0.18,0.073,0.36,0.147,0.54,0.22c-0.06-0.08-0.121-0.16-0.181-0.24C120.938,178.135,120.107,178.611,120.478,179.104
			L120.478,179.104z"/>
	</g>
	<g>
		<path d="M111.311,166.214c-4.687-5.871-1.498-13.581-0.496-20.136c0.941-6.156,0.741-12.389-0.43-18.497
			c-0.116-0.604-1.038-0.348-0.923,0.254c1.509,7.874,1.048,15.477-0.605,23.281c-1.14,5.382-1.893,11.177,1.777,15.775
			C111.019,167.372,111.692,166.691,111.311,166.214L111.311,166.214z"/>
	</g>
	<g>
		<path d="M40.964,185.757c1.79-1.599,2.188-3.797,2.459-6.09c0.443-3.747,1.244-7.326,2.329-10.938
			c1.996-6.642,4.372-13.281,3.595-20.324c-0.067-0.606-1.025-0.612-0.957,0c0.736,6.67-1.399,12.975-3.316,19.265
			c-0.894,2.934-1.749,5.892-2.23,8.926c-0.46,2.895-0.184,6.366-2.556,8.485C39.827,185.491,40.506,186.166,40.964,185.757
			L40.964,185.757z"/>
	</g>
	<g>
		<path d="M58.739,105.148c0.616,0,0.617-0.957,0-0.957C58.123,104.191,58.122,105.148,58.739,105.148L58.739,105.148z"/>
	</g>
	<g>
		<path d="M91.337,107.064c0.616,0,0.617-0.957,0-0.957C90.721,106.107,90.72,107.064,91.337,107.064L91.337,107.064z"/>
	</g>
	<path fill="#EFD5DF" d="M109.024,269.932c-0.966-1.27-5.049,1.931-9.007,3.02c-4.066,1.118-4.17-1.334-9.633-0.141
		c-2.584,0.564-5.092,2.042-7.702,1.678c-2.223-0.31-4.226-1.94-6.466-1.972c-1.864-0.027-3.602,1.059-5.447,1.365
		c-1.845,0.306-4.181-0.698-4.324-2.831l-0.311,0.137c7.247-12.091,10.558-23.043,12.205-30.423
		c2.968-13.304,2.895-25.613,2.829-36.682c-0.031-5.151-0.225-9.457-0.407-12.524c0.772,2.23,1.907,5.659,3.095,9.907
		c5.442,19.458,4.47,29.201,7.422,39.844c2.108,7.602,6.84,17.907,18.7,28.353c-0.041,0.461-0.128,1.046-0.339,1.087
		C109.414,270.793,109.218,270.188,109.024,269.932z"/>
	<g>
		<path d="M53.534,52.043c-0.078,5.019,0.277,10.026,1.137,14.973c0.889,5.115,2.18,10.098,2.869,15.255
			c1.13,8.459,1.858,16.817,1.825,25.361c-0.002,0.616,0.955,0.617,0.957,0c0.033-8.543-0.7-16.904-1.825-25.361
			c-0.595-4.47-1.563-8.808-2.468-13.221c-1.149-5.602-1.627-11.293-1.538-17.007C54.501,51.427,53.544,51.426,53.534,52.043
			L53.534,52.043z"/>
	</g>
	<g>
		<path d="M119.886,267.083c-7.368-9.029-12.828-19.406-16.116-30.585c-0.173-0.59-1.097-0.339-0.923,0.254
			c3.336,11.343,8.887,21.847,16.362,31.008C119.599,268.237,120.273,267.557,119.886,267.083L119.886,267.083z"/>
	</g>
	<g>
		<path d="M103.458,184.227c10.508,11.515,20.805,23.732,26.692,38.349c5.665,14.067,7.481,29.848,17.312,41.95
			c0.389,0.478,1.062-0.203,0.677-0.677c-10.273-12.645-11.704-29.475-18.101-43.986c-6.053-13.73-15.877-25.326-25.902-36.312
			C103.719,183.094,103.044,183.773,103.458,184.227L103.458,184.227z"/>
	</g>
	<g>
		<path d="M56.479,269.916c3.007-3.387,5.434-7.152,7.259-11.3c0.246-0.559-0.579-1.046-0.826-0.483
			c-1.793,4.074-4.153,7.775-7.109,11.106C55.395,269.698,56.069,270.378,56.479,269.916L56.479,269.916z"/>
	</g>
	<g>
		<path d="M75.074,274.456c2.271-3.342,3.451-7.114,3.514-11.152c0.01-0.616-0.947-0.616-0.957,0
			c-0.061,3.883-1.202,7.458-3.383,10.669C73.9,274.484,74.729,274.963,75.074,274.456L75.074,274.456z"/>
	</g>
	<g>
		<path d="M107.959,271.407c-5.431-4.332-9.58-9.917-12.11-16.39c-0.222-0.567-1.148-0.32-0.923,0.254
			c2.592,6.633,6.786,12.371,12.356,16.813C107.759,272.464,108.441,271.791,107.959,271.407L107.959,271.407z"/>
	</g>
	<g>
		<path d="M68.199,63.631c1.848,0,1.851-2.871,0-2.871C66.352,60.76,66.349,63.631,68.199,63.631L68.199,63.631z"/>
	</g>
	<g>
		<path d="M88.871,63.085c0.018-0.102,0.036-0.204,0.053-0.307c0.128-0.737-0.197-1.582-1.003-1.766
			c-0.698-0.159-1.629,0.212-1.766,1.003c-0.018,0.102-0.036,0.204-0.053,0.307c-0.128,0.737,0.197,1.582,1.003,1.766
			C87.802,64.246,88.733,63.876,88.871,63.085L88.871,63.085z"/>
	</g>
	<g>
		<path d="M75.585,74.341c2.571,1.357,5.639,1.181,7.979-0.575c0.487-0.365,0.01-1.197-0.483-0.826
			c-2.068,1.551-4.716,1.787-7.013,0.575C75.523,73.228,75.039,74.053,75.585,74.341L75.585,74.341z"/>
	</g>
	
		<ellipse transform="matrix(0.1712 -0.9852 0.9852 0.1712 -12.1344 126.1527)" fill="#EFD5DF" cx="68.915" cy="70.289" rx="2.733" ry="2.784"/>
	
		<ellipse transform="matrix(0.1712 -0.9852 0.9852 0.1712 4.6447 145.1474)" fill="#EFD5DF" cx="88.594" cy="69.813" rx="2.733" ry="2.784"/>
</g>
</svg>
