<?xml version="1.0" encoding="utf-8"?>
<!-- Generator: Adobe Illustrator 22.0.1, SVG Export Plug-In . SVG Version: 6.00 Build 0)  -->
<svg version="1.1" id="Шар_1" xmlns="http://www.w3.org/2000/svg" xmlns:xlink="http://www.w3.org/1999/xlink" x="0px" y="0px"
	 width="190px" height="80px" viewBox="0 0 190 80" enable-background="new 0 0 190 80" xml:space="preserve">
<g>
	<path fill-rule="evenodd" clip-rule="evenodd" fill="#F3BE67" d="M14.223,79.769C6.44,74.444,1.102,64.308,0.107,52.032
		c-0.565-6.969,0.994-16.779,7.173-17.336c7.482-0.674,14.327,1.922,20.364,3.467c3.486,0.892,7,2.469,9.951,1.849
		c-2.358-3.578-5.203-6.669-5.091-12.713c1.353-0.805,2.878-1.439,4.396-2.081c-0.781-2.217-0.355-5.06,0-7.396
		c-1.983-1.413-7.741-2.329-7.405,0.924c0.099,0.962,0.917,1.72,2.545,1.619c1.122,0.111,0.722-1.435,0.925-1.619
		c2.342,0.072,1.521,2.843,0.463,3.699c-4.548,2.143-6.906-5.344-3.471-6.935c3.016-1.397,6.685,2.295,9.719,2.312
		c4.501,0.027,11.581-9.331,8.331-14.331c-0.343-0.526-1.318-1.536-2.546-1.618c-3.858-0.258-4.314,4.837-0.926,6.009
		c-6.233,2.554-7.258-8.474,0.232-7.858c1.348,0.11,3.032,0.682,3.934,2.08c3.358,5.203-4.206,12.138,1.157,16.181
		c4.709,0.484,5.44-2.645,9.487-2.081c3.992,0.556,3.853,7.049-0.232,6.935c-2.155-0.061-3.334-3.088-0.925-4.161
		c-0.876,3.258,4.312,0.969,1.389-1.387c-2.471-0.31-3.901,0.42-5.785,0.694c0.859,2.458,0.487,6.287-0.232,8.552
		c1.002,1.387,2.595,2.185,3.471,3.698c-1.711,4.84-4.301,8.801-8.793,10.864c-0.086,0.916,0.212,2.215-0.232,2.774
		c9.925,4.571,20.797,8.195,27.074,16.411c0.267,3.569-1.211,6.533-2.777,8.783c-2.867,4.118-7.84,7.817-12.034,9.939
		c1.925-2.321,4.603-3.901,3.702-8.782c-0.6-3.256-4.354-7.748-6.247-10.402c-2.586-3.625-5.145-6.955-7.174-9.245
		c4.534,3.264,8.032,9.084,12.264,14.331c0.584,0.723,3.403,4.383,5.091,3.929c1.389-0.373,1.315-2.349,0.926-3.929
		c-1.545-6.269-10.619-11.821-15.041-15.718c4.916,2.623,9.459,6.675,13.653,10.864c1.328,1.327,2.487,3.468,4.628,3.698
		c1.255-3.266-1.874-5.525-3.703-7.164c-5.968-5.349-14.453-9.416-22.678-12.251c2.439,9.263,4.812,22.842,3.24,35.365
		c-1.639-0.212-3.183-0.519-5.091-0.463c0.659-9.2,1.565-19.138,0.925-28.893c-1.051,6.887-1.406,14.468-3.471,20.341
		c-1.595-0.41-2.862-1.147-4.165-1.849c3.029-7.376,5.321-15.487,6.248-24.963c-7.77-2.792-20.987-7.915-32.166-7.166
		c-1.249,0.084-3.203,0.165-4.397,0.694c-2.291,1.016-3.48,4.746-3.007,8.09c7.307-1.387,18.6-3.551,28.231-2.542
		c-0.848,0-1.697,0-2.545,0c-9.044,0.982-18.458,1.595-25.223,4.854c0.042,0.504-0.189,0.735-0.694,0.693
		c-1.272,3.202-0.492,7.872,1.156,10.171c9.504-4.221,17.994-9.456,29.389-11.788c-4.003,1.401-9.221,3.672-14.347,6.01
		c-4.607,2.101-10.369,4.327-12.727,7.628c-1.83,2.561,1.289,9.428,3.934,10.863c5.78-4.167,9.489-10.4,15.736-14.099
		c-2.098,2.184-4.472,4.21-6.48,6.471c-1.958,2.207-4.109,4.794-4.859,8.091c3.747-1.543,6.181-5.538,8.793-8.553
		c2.635-3.041,5.291-6.147,8.563-8.552c0.001-0.077-0.002-0.154,0-0.231c-0.02,0.888-3.347,4.028-4.629,5.547
		C23.158,66.221,18.163,73.891,14.223,79.769z M42.454,18.747c2.091,0.43,4.184,0.937,6.247,0.232
		C47.682,16.771,43.697,16.76,42.454,18.747z M37.825,18.285c-0.927,1.63-0.906,5.019-0.231,6.933
		c4.899-1.614,11.561-0.346,15.273,1.388c0.682-1.903,1.266-5.867,0-7.628C48.028,20.593,42.103,20.124,37.825,18.285z
		 M45.231,38.394c0.884-1.644,2.695-7.419,2.082-9.94c-0.985-4.054-8.243-4.283-10.413-0.924c-0.126,5.52,0.708,10.081,4.165,12.02
		c0.309-2.144-0.761-5.974,0-8.553C40.548,35.655,42.176,44.071,45.231,38.394z M47.313,39.781c2.307-1.491,6.866-7.672,6.48-10.401
		c-0.22-1.553-3.463-4.038-5.553-1.849c-0.653,4.665-1.983,8.653-3.008,12.945C45.667,40.35,46.573,40.259,47.313,39.781z
		 M39.214,39.781c-1.773-3.238-2.428-7.591-4.628-10.401C33.413,33.761,36.954,37.302,39.214,39.781z M54.95,29.842
		c-2.129,3.267-4.211,6.581-6.248,9.939c3.785-1.843,6.297-4.96,6.942-9.939C55.412,29.842,55.181,29.842,54.95,29.842z"/>
	<g>
		<path fill="#F3BE67" d="M147.613,24.717c0-3.918,2.515-6.53,5.13-8.071c-1.24-1.741-1.643-3.114-1.643-4.621
			c0-2.646,2.716-6.162,7.208-6.162c1.71,0,3.151,0.335,4.057,0.837c0.402,0.235,0.436,0.435,0.436,0.837
			c0,1.005-0.134,3.349-0.235,3.851c-0.101,0.502-0.201,0.569-0.335,0.569c-0.168,0-0.201-0.134-0.201-0.636
			c0-0.871-0.201-1.976-1.039-2.846c-0.738-0.77-1.878-1.474-3.353-1.474c-2.012,0-4.258,1.239-4.258,4.387
			c0,2.612,1.81,4.789,5.297,8.573c1.14,1.239,5.264,5.09,6.337,5.995c0.939-1.272,1.71-3.516,1.71-5.559
			c0-0.502-0.134-1.139-0.637-1.641c-0.436-0.435-1.14-0.536-1.643-0.536c-0.201,0-0.402-0.067-0.402-0.234
			c0-0.167,0.268-0.235,0.536-0.235c0.805,0,2.146,0.034,4.023,0.235c0.503,0.067,0.604,0.335,0.604,0.67
			c0,2.712-1.844,6.095-3.319,7.903c2.213,1.875,3.688,2.78,4.627,3.316c1.073,0.636,2.783,1.306,3.99,1.306
			c0.302,0,0.469,0.033,0.469,0.234c0,0.134-0.268,0.234-0.57,0.234h-3.286c-2.481,0-3.286-0.234-6.974-3.148
			c-0.771,0.77-3.42,3.617-8.382,3.617C149.892,32.118,147.613,27.63,147.613,24.717z M163.27,27.865
			c-1.877-1.54-5.197-4.722-6.068-5.659c-0.872-0.938-3.017-3.316-3.956-4.688c-1.743,1.139-3.017,2.947-3.017,5.626
			c0,4.186,2.95,7.2,6.705,7.2C160.051,30.343,162.13,29.037,163.27,27.865z"/>
	</g>
	<g>
		<path fill="#1E1E1E" d="M92.013,35.535c10.548,0,15.702,5.029,15.702,13.01c0,7.782-4.994,13.329-14.663,13.329h-7.911v-21.55
			c0-2.394-0.4-3.991-2.797-3.991h-0.799v-0.798H92.013z M88.857,59.959c1.638,0.359,2.996,0.519,4.075,0.519
			c5.913,0,10.428-4.55,10.428-11.773c0-7.064-4.395-11.773-10.508-11.773c-1.159,0-2.557,0.199-3.995,0.638V59.959z"/>
		<path fill="#1E1E1E" d="M117.088,49.702h-2.797v12.172h-3.596v-21.55c0-2.394-0.4-3.991-2.797-3.991H107.1v-0.798h10.388
			c3.396,0,9.988,0.798,9.988,7.184c0,4.589-3.596,6.186-6.393,6.784l4.195,6.984c2.038,3.392,3.396,4.39,5.394,4.589v0.798
			c-0.4,0.2-1.398,0.399-2.397,0.399c-2.797,0-4.595-1.397-7.192-5.787L117.088,49.702z M123.481,42.718
			c0-4.19-3.995-5.787-6.193-5.787c-0.999,0-2.198,0.199-2.997,0.399v10.576c0.799,0.199,1.998,0.399,2.997,0.399
			C119.486,48.305,123.481,46.709,123.481,42.718z"/>
		<path fill="#1E1E1E" d="M146.335,35.535c2.797,0,3.396,1.596,3.396,3.193v2.993h-0.799c0-3.193-1.798-4.589-4.994-4.589h-7.431
			v10.376h10.787v1.596h-10.787v11.174h6.992c3.596,0,5.593-1.197,6.792-4.39l0.799,0.2l-1.398,3.791
			c-0.44,1.197-1.398,1.995-2.996,1.995H132.91v-21.55c0-2.394-0.4-3.991-2.797-3.991h-0.799v-0.798H146.335z"/>
		<path fill="#1E1E1E" d="M162.134,62.553c-4.355,0-9.109-1.876-9.109-4.869v-4.27h0.719c0.879,5.348,3.556,7.543,8.031,7.543
			c2.757,0,5.234-1.437,5.234-4.071c0-2.315-1.478-3.791-4.395-5.507l-4.914-2.913c-3.396-1.995-4.675-3.911-4.675-6.864
			c0-4.11,3.076-6.784,7.751-6.784c3.955,0,8.63,1.796,8.63,4.789v4.27h-0.719c-0.879-5.348-3.436-7.463-7.911-7.463
			c-2.357,0-4.634,1.556-4.634,4.031c0,2.315,1.518,3.512,4.435,5.228l4.914,2.913c3.396,1.996,4.954,3.632,4.954,6.585
			C170.445,59.639,167.288,62.553,162.134,62.553z"/>
		<path fill="#1E1E1E" d="M181.69,62.553c-4.355,0-9.109-1.876-9.109-4.869v-4.27h0.719c0.879,5.348,3.556,7.543,8.031,7.543
			c2.757,0,5.234-1.437,5.234-4.071c0-2.315-1.478-3.791-4.395-5.507l-4.914-2.913c-3.396-1.995-4.675-3.911-4.675-6.864
			c0-4.11,3.076-6.784,7.751-6.784c3.955,0,8.63,1.796,8.63,4.789v4.27h-0.719c-0.879-5.348-3.436-7.463-7.911-7.463
			c-2.357,0-4.634,1.556-4.634,4.031c0,2.315,1.518,3.512,4.435,5.228l4.914,2.913C188.442,50.58,190,52.216,190,55.17
			C190,59.639,186.844,62.553,181.69,62.553z"/>
	</g>
	<g>
		<path fill="#1E1E1E" d="M91.103,12.255c5.618,0,8.829,4.409,8.829,9.821c0,5.412-3.211,9.821-8.829,9.821
			c-5.618,0-8.829-4.409-8.829-9.821C82.274,16.664,85.484,12.255,91.103,12.255z M91.103,13.858c-3.01,0-5.016,3.608-5.016,8.217
			c0,4.61,2.006,8.218,5.016,8.218c3.01,0,5.016-3.608,5.016-8.218C96.119,17.466,94.112,13.858,91.103,13.858z"/>
		<path fill="#1E1E1E" d="M112.131,25.884l5.618-13.228h2.007l-8.227,19.241h-0.803l-6.22-14.631
			c-1.284-3.006-2.207-4.009-4.174-4.129v-0.802c0.201,0,1.003-0.08,1.365-0.08c2.408,0,5.016,0.802,6.822,5.01L112.131,25.884z"/>
		<path fill="#1E1E1E" d="M138.335,22.677h-11.959c0,4.409,2.006,7.616,5.418,7.616c2.608,0,4.214-1.203,5.618-3.207l0.803,0.601
			c-1.806,3.006-4.214,4.209-7.223,4.209c-5.618,0-8.427-4.409-8.427-9.821c0-5.411,2.809-9.821,7.825-9.821
			c5.418,0,8.026,3.207,8.026,8.819L138.335,22.677z M134.804,21.073c0-4.409-1.405-7.015-4.214-7.015
			c-2.408,0-4.214,3.006-4.214,7.015H134.804z"/>
	</g>
	<g>
		<path fill="#1E1E1E" d="M84.57,44.496v-1.988h-6.398V17.662c0-4.969-0.995-5.963-4.477-5.963h-4.477v0.994h0.995
			c2.985,0,3.482,1.988,3.482,4.969v26.834H84.57z"/>
		<path fill="#1E1E1E" d="M94.215,38.93c0,0,0,3.168-3.234,3.578h-1.472v1.988h5.601V38.93H94.215z"/>
	</g>
</g>
</svg>
