<svg width="93" height="93" viewBox="0 0 93 93" fill="none" xmlns="http://www.w3.org/2000/svg">
<g clip-path="url(#clip0_239_19)" filter="url(#filter0_d_239_19)">
<g clip-path="url(#clip1_239_19)">
<g clip-path="url(#clip2_239_19)">
<path d="M61.2408 58.5698C61.2408 58.5698 52.955 37.4174 51.3696 35.3029C49.7833 33.1863 48.5269 31.283 50.2237 29.3531C53.1331 26.0489 52.075 23.1912 52.075 23.1912C48.3286 21.2527 46.5221 23.808 46.5221 23.808L46.492 23.9349L46.4783 23.8738C46.4783 23.8738 44.6713 21.3189 40.9254 23.257C40.9254 23.257 39.8682 26.1151 42.7762 29.4202C44.4739 31.3484 43.2171 33.253 41.6304 35.3679C40.0445 37.4832 31.7592 58.6356 31.7592 58.6356C31.7592 58.6356 36.7829 61.6327 39.7796 61.6327C42.7758 61.6327 44.0102 62.6907 47.2714 62.5144C48.7458 62.4335 50.1119 62.0843 51.3786 61.7084C51.9287 61.6241 52.5275 61.5677 53.2195 61.5677C56.2166 61.5677 61.2408 58.5698 61.2408 58.5698Z" fill="#F3BE67"/>
</g>
</g>
<path d="M14.1071 26.7647L12.1973 32.3067L4 29.4816L4.27838 28.6735L11.7584 31.2515L13.3901 26.5176L14.1071 26.7647Z" fill="black"/>
<path d="M17.4357 26.5816L16.7985 26.1937C16.8647 26.1011 16.9273 26.01 16.9868 25.9201C17.045 25.8324 17.0793 25.7638 17.09 25.7149C17.1273 25.6217 17.1276 25.5118 17.0909 25.3855C17.0535 25.2565 16.9482 25.068 16.7755 24.82C16.6024 24.572 16.3438 24.2153 15.9989 23.7493L9.12244 22.8073L9.57961 22.0563L15.4977 22.929L11.9098 18.2288L12.343 17.5176L17.6373 24.6014C17.7396 24.7313 17.8182 24.8795 17.8738 25.0465C17.9312 25.2143 17.9491 25.3895 17.9272 25.5719C17.9054 25.7544 17.8349 25.952 17.7153 26.1645C17.6838 26.2322 17.6464 26.2978 17.603 26.3606C17.5587 26.4256 17.5028 26.499 17.4357 26.5816Z" fill="black"/>
<path d="M19.4994 14.3787L17.114 17.031L16.5405 16.5156L18.926 13.8633L19.4994 14.3787Z" fill="black"/>
<path d="M26.6109 12.633L24.1953 14.3117L19.2474 7.19175L21.663 5.513C22.4191 4.98752 23.1599 4.70793 23.8854 4.67393C24.6121 4.64145 25.2885 4.80629 25.9145 5.16815C26.5435 5.53061 27.0853 6.03879 27.5398 6.69329C28.0416 7.41549 28.34 8.1395 28.4347 8.86534C28.5288 9.59422 28.422 10.2833 28.1138 10.9324C27.8085 11.582 27.3076 12.1488 26.6109 12.633ZM26.8379 7.18083C26.4433 6.61284 25.9876 6.18177 25.4713 5.887C24.9537 5.59072 24.4066 5.45654 23.8305 5.48477C23.2573 5.51361 22.679 5.73066 22.0958 6.13593L20.3822 7.32715L24.464 13.201L26.178 12.01C26.7663 11.6011 27.1713 11.1276 27.3926 10.589C27.613 10.0487 27.6721 9.48463 27.5705 8.89661C27.4675 8.30707 27.2232 7.73515 26.8379 7.18083Z" fill="black"/>
<path d="M33.2309 2.09668L33.5126 2.80097C33.005 3.02197 32.6113 3.34618 32.3311 3.77422C32.0509 4.20195 31.9264 4.68554 31.9574 5.22438L33.4276 8.8985L32.6571 9.20693L30.2932 3.29882L31.0175 3.00891L31.5846 4.42629C31.6232 3.92843 31.7589 3.4837 31.9917 3.0927C32.2264 2.70079 32.5263 2.41422 32.8915 2.23238C32.964 2.19686 33.029 2.16741 33.0864 2.14434C33.1419 2.12218 33.1902 2.10609 33.2309 2.09668Z" fill="black"/>
<path d="M40.6365 7.11054C40.1878 7.19311 39.7559 7.1843 39.3409 7.08413C38.9253 6.98213 38.5501 6.80636 38.2146 6.55743C37.8792 6.3085 37.5975 6.0022 37.3689 5.63913C37.1406 5.27605 36.9852 4.87018 36.9029 4.4215C36.7954 3.83682 36.8309 3.27522 37.0088 2.73638C37.1873 2.19997 37.4864 1.74188 37.9056 1.36272C38.323 0.983858 38.8321 0.739179 39.4332 0.628679C40.0503 0.515144 40.6168 0.564626 41.1319 0.776215C41.6453 0.988412 42.0782 1.31172 42.4312 1.74673C42.7864 2.18327 43.0168 2.68963 43.1228 3.26611C43.1343 3.32895 43.1458 3.39088 43.1568 3.45189C43.168 3.51291 43.1723 3.55936 43.1698 3.59123L37.8127 4.57541C37.9356 5.0168 38.1348 5.39263 38.4101 5.70288C38.687 6.011 39.0139 6.23625 39.3907 6.37923C39.7692 6.51948 40.1584 6.55318 40.5585 6.47941C40.9665 6.40443 41.3335 6.22988 41.6586 5.95636C41.9856 5.68011 42.1905 5.36105 42.2731 4.9995L43.018 5.06113C42.9424 5.38139 42.7949 5.68557 42.5748 5.97366C42.3547 6.26175 42.0794 6.5043 41.7485 6.70163C41.4155 6.89925 41.0448 7.03555 40.6365 7.11054ZM37.6803 3.99195L42.3034 3.14286C42.1872 2.69205 41.9917 2.31441 41.7175 2.00993C41.441 1.70393 41.1149 1.48354 40.7397 1.34905C40.3627 1.2167 39.9702 1.18816 39.5622 1.26284C39.1542 1.33782 38.7993 1.50357 38.4982 1.7607C38.1994 2.01934 37.9754 2.34264 37.8264 2.73091C37.6791 3.11705 37.6303 3.5372 37.6803 3.99195Z" fill="black"/>
<path d="M48.4459 6.61473C47.9262 6.59439 47.4457 6.49087 47.0046 6.30418C46.5635 6.11535 46.1871 5.83941 45.875 5.47603L46.2414 4.90471C46.5854 5.25291 46.9357 5.50943 47.2927 5.67396C47.6479 5.8388 48.0285 5.92896 48.435 5.94475C48.9323 5.96418 49.3394 5.87978 49.6566 5.69187C49.9738 5.50396 50.1399 5.22316 50.1541 4.84977C50.1639 4.59811 50.0962 4.4023 49.9511 4.26236C49.8056 4.12028 49.5947 4.00159 49.3172 3.90596C49.04 3.81034 48.7073 3.70561 48.3194 3.59116C47.8846 3.45243 47.5216 3.31005 47.2295 3.16434C46.9378 3.01862 46.7208 2.83861 46.5784 2.62459C46.4378 2.41239 46.3741 2.13948 46.3871 1.80525C46.4032 1.39057 46.5198 1.05118 46.7368 0.786766C46.9557 0.522659 47.2487 0.326552 47.6151 0.198445C47.9836 0.0703379 48.3919 0.0150879 48.8394 0.0323915C49.3263 0.0515165 49.7543 0.145624 50.1238 0.315016C50.4911 0.484409 50.7871 0.711784 51.0114 0.997141L50.5873 1.54175C50.3706 1.27309 50.108 1.06939 49.7993 0.931266C49.4905 0.793141 49.1454 0.716641 48.7638 0.701766C48.5039 0.691749 48.2541 0.716034 48.014 0.774927C47.776 0.835945 47.5786 0.942802 47.422 1.0955C47.2654 1.2485 47.1813 1.46312 47.1706 1.73968C47.1618 1.96644 47.2116 2.14525 47.3203 2.27548C47.429 2.40571 47.5959 2.51864 47.8215 2.61427C48.0452 2.70777 48.3221 2.81037 48.6521 2.92239C49.1278 3.07114 49.5412 3.21959 49.8931 3.36773C50.2467 3.51587 50.5163 3.69893 50.7021 3.91689C50.8897 4.13698 50.9762 4.43782 50.9613 4.81941C50.9383 5.4135 50.6963 5.86886 50.2352 6.18548C49.7747 6.49998 49.1782 6.64296 48.4459 6.61473Z" fill="black"/>
<path d="M55.6384 7.73618C55.1336 7.61081 54.6843 7.41167 54.2903 7.13936C53.8968 6.86493 53.5842 6.51826 53.3525 6.09902L53.8273 5.61392C54.0933 6.02465 54.3844 6.34704 54.7004 6.58079C55.0146 6.81424 55.3692 6.97999 55.7638 7.07804C56.2465 7.19795 56.6624 7.19826 57.0112 7.07865C57.36 6.95904 57.5795 6.71801 57.6696 6.35524C57.7303 6.11086 57.7039 5.90534 57.5901 5.73868C57.4769 5.5702 57.2941 5.41083 57.0418 5.26117C56.7899 5.1112 56.4854 4.9409 56.1287 4.74995C55.7313 4.52561 55.4047 4.31251 55.1485 4.11063C54.8923 3.90876 54.7162 3.68836 54.6206 3.44976C54.5261 3.21358 54.5192 2.93308 54.5999 2.60856C54.7001 2.20602 54.8831 1.89729 55.1491 1.68267C55.4171 1.46865 55.7438 1.33599 56.1287 1.28499C56.5158 1.23429 56.9265 1.26313 57.3612 1.3712C57.8339 1.48868 58.234 1.66809 58.5612 1.90883C58.8863 2.14926 59.1298 2.43218 59.2916 2.75701L58.7658 3.20386C58.6083 2.89665 58.3924 2.64408 58.1183 2.44615C57.8442 2.24822 57.5218 2.10311 57.1511 2.01113C56.8986 1.94829 56.649 1.92158 56.4022 1.93038C56.1569 1.94161 55.942 2.00627 55.7571 2.12436C55.5726 2.24215 55.4469 2.43552 55.3804 2.70388C55.3258 2.92427 55.3382 3.10915 55.4177 3.25881C55.4976 3.40847 55.6381 3.55297 55.8397 3.69231C56.0398 3.82922 56.2899 3.98617 56.5907 4.16284C57.0261 4.40509 57.401 4.63429 57.7152 4.85074C58.0315 5.06749 58.2583 5.30154 58.3958 5.5529C58.5348 5.80668 58.5582 6.11876 58.4659 6.48942C58.3226 7.06651 57.9929 7.46327 57.4778 7.67972C56.9629 7.89434 56.3497 7.91317 55.6384 7.73618Z" fill="black"/>
<path d="M63.0116 10.6073C62.5951 10.4017 62.252 10.1358 61.9828 9.80918C61.7144 9.48102 61.5189 9.114 61.3969 8.70843C61.2748 8.30285 61.2305 7.88635 61.2642 7.45862C61.2979 7.03089 61.4142 6.61621 61.6124 6.21459C61.8793 5.67393 62.2429 5.24012 62.7041 4.91287C63.164 4.58744 63.6746 4.39953 64.2356 4.34975C64.7948 4.29875 65.3557 4.41228 65.9186 4.69005C66.4516 4.95325 66.8624 5.30782 67.1508 5.75407C67.4392 6.20032 67.5788 6.68027 67.5697 7.1936L66.734 7.06793C66.7173 6.69605 66.6053 6.35636 66.3976 6.04884C66.1921 5.74253 65.9134 5.50241 65.5616 5.32877C65.1821 5.14146 64.7872 5.06952 64.3764 5.11353C63.9648 5.15452 63.5808 5.30084 63.2238 5.5528C62.8695 5.80385 62.5841 6.14871 62.3677 6.58768C62.1558 7.01723 62.0574 7.45437 62.0726 7.8991C62.0905 8.34323 62.2059 8.74637 62.4181 9.10914C62.6276 9.47282 62.9223 9.74816 63.3018 9.93546C63.5498 10.0578 63.8115 10.1319 64.0868 10.1571C64.3594 10.1835 64.6178 10.1634 64.8618 10.0979C65.108 10.0329 65.3035 9.92818 65.4489 9.78307L66.0737 10.3644C65.8384 10.5845 65.5485 10.743 65.2037 10.8398C64.8606 10.9376 64.5012 10.9685 64.1254 10.9324C63.7477 10.8957 63.3765 10.7873 63.0116 10.6073Z" fill="black"/>
<path d="M69.5444 15.0143C69.192 14.7247 68.9218 14.3902 68.7339 14.011C68.5472 13.6304 68.4422 13.233 68.4194 12.8186C68.3966 12.4042 68.4504 11.9956 68.5812 11.5928C68.712 11.19 68.9169 10.8187 69.1962 10.4787C69.4858 10.1262 69.8164 9.84604 70.188 9.6384C70.558 9.43227 70.95 9.30144 71.364 9.24619C71.7781 9.19094 72.1894 9.21917 72.5977 9.33058C73.0073 9.44017 73.3885 9.63992 73.7407 9.92952C74.0931 10.2191 74.3612 10.5531 74.5448 10.9313C74.7312 11.309 74.8375 11.7063 74.8636 12.1231C74.8897 12.5399 74.8372 12.9501 74.7063 13.3529C74.5743 13.7573 74.3633 14.1358 74.0737 14.4886C73.7944 14.8283 73.4699 15.1012 73.0999 15.3073C72.7298 15.5134 72.3394 15.6455 71.9284 15.7031C71.5173 15.7608 71.1063 15.7344 70.6953 15.6236C70.287 15.5125 69.9032 15.3094 69.5444 15.0143ZM69.8392 11.0233C69.5402 11.387 69.3474 11.784 69.2603 12.2151C69.1762 12.6459 69.199 13.0584 69.3283 13.4534C69.4549 13.8486 69.6816 14.1807 70.0086 14.4497C70.3355 14.7184 70.7074 14.8756 71.1239 14.9218C71.5377 14.9679 71.9517 14.9063 72.3664 14.7366C72.7823 14.5654 73.1372 14.3013 73.431 13.944C73.7313 13.5788 73.9231 13.178 74.0066 12.7415C74.0913 12.3035 74.0713 11.886 73.9459 11.489C73.8202 11.0892 73.5941 10.7546 73.2671 10.486C72.9402 10.2173 72.5683 10.0652 72.1512 10.0297C71.7338 9.99115 71.3197 10.0543 70.909 10.2191C70.5013 10.3837 70.1446 10.6517 69.8392 11.0233Z" fill="black"/>
<path d="M76.0876 16.7652C76.5706 16.4046 77.0873 16.1736 77.6374 16.0722C78.1859 15.9717 78.7123 16.0075 79.2171 16.1796C79.7217 16.3517 80.1418 16.6626 80.4779 17.1125C80.7954 17.5375 80.9669 18.002 80.9924 18.5059C81.0182 19.0095 80.9417 19.4749 80.7632 19.902L83.8748 17.5791L84.3715 18.2439L78.029 22.979C77.9379 23.047 77.8866 23.1162 77.875 23.1867C77.8617 23.2586 77.8808 23.3357 77.9321 23.4183L77.4036 23.8129C77.2861 23.697 77.2042 23.601 77.1577 23.5251C77.0618 23.3828 77.0272 23.2207 77.0536 23.0388C77.08 22.8567 77.1553 22.7195 77.2791 22.6269L77.7779 22.2544C77.2946 22.3008 76.8265 22.224 76.3733 22.024C75.9201 21.8239 75.5542 21.538 75.2765 21.1658C75.0133 20.8133 74.8418 20.4354 74.7619 20.031C74.6848 19.6276 74.6888 19.2238 74.7738 18.8204C74.8588 18.4166 75.0145 18.0366 75.2404 17.6802C75.4662 17.3235 75.7485 17.0187 76.0876 16.7652ZM78.4831 21.6044L80.0586 20.4281C80.2305 20.1682 80.3422 19.8726 80.3932 19.5408C80.443 19.2071 80.4369 18.8781 80.375 18.5536C80.3112 18.2302 80.1916 17.951 80.0164 17.716C79.8127 17.4431 79.5711 17.2385 79.2912 17.1019C79.0098 16.9668 78.7117 16.8918 78.3969 16.8769C78.0818 16.8621 77.7688 16.9052 77.4576 17.0062C77.1465 17.107 76.8602 17.2552 76.5988 17.4501C76.3259 17.6538 76.1007 17.8954 75.9228 18.1753C75.7449 18.4549 75.6262 18.7548 75.5667 19.0748C75.5042 19.3947 75.506 19.7077 75.5719 20.0137C75.638 20.3197 75.7713 20.6069 75.9714 20.875C76.0973 21.0437 76.2619 21.1952 76.4653 21.3294C76.6656 21.4633 76.8851 21.5711 77.124 21.6527C77.3617 21.7329 77.6003 21.7699 77.8404 21.7635C78.0787 21.7584 78.2928 21.7052 78.4831 21.6044Z" fill="black"/>
<path d="M79.6221 28.9836C79.4466 28.5625 79.3637 28.1384 79.3737 27.7116C79.3856 27.2839 79.4779 26.8798 79.6503 26.4995C79.8227 26.1191 80.0622 25.7788 80.3688 25.4789C80.6754 25.1789 81.0394 24.9412 81.4605 24.7658C82.0093 24.5372 82.5658 24.4528 83.1298 24.5129C83.692 24.5739 84.2026 24.7691 84.6623 25.0991C85.121 25.4269 85.4676 25.8729 85.7026 26.4366C85.9439 27.0158 86.0156 27.5799 85.9178 28.1284C85.8192 28.6752 85.5945 29.1666 85.2442 29.6032C84.8927 30.0424 84.4464 30.3752 83.9052 30.6007C83.846 30.6253 83.788 30.6496 83.7309 30.6733C83.6738 30.6969 83.6292 30.7112 83.5973 30.7155L81.5024 25.6874C81.0971 25.9011 80.772 26.1753 80.527 26.5101C80.2845 26.8458 80.1333 27.2132 80.0735 27.6114C80.0164 28.0109 80.0659 28.3983 80.2222 28.7738C80.3819 29.1569 80.6299 29.4784 80.9663 29.7386C81.3054 29.9999 81.6605 30.1326 82.0312 30.1369L82.1286 30.8779C81.7996 30.8718 81.4711 30.7917 81.143 30.6378C80.8148 30.4838 80.5194 30.2659 80.2568 29.9839C79.9933 29.7 79.7817 29.3667 79.6221 28.9836ZM82.0446 25.4348L83.8526 29.7738C84.2688 29.5646 84.5964 29.2938 84.8359 28.9617C85.0766 28.6266 85.223 28.2614 85.2752 27.8661C85.3247 27.4697 85.2697 27.0802 85.11 26.6971C84.9503 26.314 84.7133 26.0025 84.3985 25.7624C84.0827 25.525 83.7191 25.3744 83.308 25.311C82.8997 25.2484 82.4784 25.2897 82.0446 25.4348Z" fill="black"/>
<path d="M8.08734 60.4103L6.11169 54.7174L14.5343 51.7949L14.8227 52.6258L7.13443 55.2936L8.82168 60.1556L8.08734 60.4103Z" fill="black"/>
<path d="M7.26001 64.5186L7.91269 64.1197C7.96703 64.2244 8.02046 64.3237 8.07267 64.4175C8.1261 64.5131 8.17285 64.5774 8.21292 64.6114C8.27971 64.6892 8.38049 64.7414 8.51528 64.7678C8.64885 64.7927 8.87015 64.7845 9.17888 64.7435C9.4858 64.7034 9.93417 64.6354 10.5234 64.5389L14.6225 58.6973L15.094 59.4689L11.5097 64.4663L17.4955 63.4011L17.9412 64.1306L8.97246 65.6351C8.80549 65.667 8.63306 65.6694 8.45456 65.643C8.27515 65.6147 8.10637 65.5483 7.94851 65.4441C7.79217 65.3388 7.64494 65.1809 7.50681 64.97C7.46097 64.9108 7.41878 64.8458 7.38053 64.7751C7.34197 64.7043 7.3019 64.6187 7.26001 64.5186Z" fill="black"/>
<path d="M19.188 70.884L16.7367 68.158L17.3259 67.6279L19.7776 70.354L19.188 70.884Z" fill="black"/>
<path d="M22.9365 77.5464L20.4526 75.8194L25.5423 68.5L28.0261 70.227C28.8024 70.7668 29.336 71.3806 29.6272 72.0685C29.9213 72.7558 30.006 73.4673 29.8819 74.2029C29.7586 74.9369 29.4632 75.6403 28.9951 76.3133C28.4791 77.0556 27.8868 77.6032 27.2192 77.9559C26.5511 78.306 25.8486 78.4499 25.1122 78.3879C24.3769 78.3242 23.6517 78.0437 22.9365 77.5464ZM28.2732 75.8112C28.6785 75.2281 28.9308 74.634 29.0297 74.0289C29.1275 73.4254 29.0607 72.8511 28.8288 72.3053C28.5959 71.7613 28.1807 71.2813 27.5823 70.8651L25.8204 69.6402L21.6184 75.6834L23.3803 76.9083C23.9853 77.3291 24.5876 77.5479 25.1868 77.5649C25.7867 77.5847 26.351 77.4402 26.8799 77.1317C27.4117 76.8227 27.8762 76.3825 28.2732 75.8112Z" fill="black"/>
<path d="M35.6913 76.7693L35.4008 77.4937C34.8677 77.2979 34.345 77.2593 33.8322 77.3786C33.3195 77.4979 32.8839 77.769 32.5253 78.1925L31.0114 81.9692L30.2179 81.6514L32.6525 75.5781L33.3999 75.8774L32.8156 77.3349C33.1956 76.9913 33.6121 76.7569 34.0651 76.6312C34.5159 76.5049 34.9421 76.5046 35.3434 76.63C35.4232 76.6531 35.4928 76.6764 35.5523 76.7004C35.6096 76.7235 35.6561 76.7466 35.6913 76.7693Z" fill="black"/>
<path d="M39.367 84.3487C38.9062 84.2631 38.4955 84.0946 38.1351 83.843C37.772 83.5928 37.4751 83.2868 37.2441 82.925C37.0131 82.5631 36.855 82.1651 36.7693 81.7313C36.6834 81.2996 36.6834 80.8534 36.7687 80.3929C36.8801 79.7921 37.1206 79.2657 37.4903 78.8134C37.8595 78.3632 38.3142 78.0329 38.8552 77.8225C39.3961 77.6122 39.9751 77.5642 40.5919 77.6786C41.2273 77.7964 41.7531 78.0514 42.1696 78.4436C42.5861 78.8359 42.8842 79.3058 43.0639 79.8537C43.2433 80.4035 43.2779 80.9748 43.168 81.5674C43.1559 81.6324 43.1443 81.6952 43.1328 81.7562C43.1213 81.8191 43.1082 81.8661 43.0943 81.8968L37.5866 80.8753C37.5416 81.3437 37.5957 81.7778 37.7481 82.1776C37.8989 82.5753 38.1306 82.911 38.4429 83.1851C38.7529 83.4611 39.1138 83.6372 39.5258 83.7137C39.9438 83.7914 40.3606 83.7574 40.7762 83.6116C41.1893 83.4678 41.5017 83.237 41.7139 82.9195L42.4085 83.2501C42.22 83.53 41.9668 83.7686 41.6489 83.9656C41.3311 84.1629 40.9768 84.2956 40.5861 84.3639C40.1936 84.4316 39.7871 84.4267 39.367 84.3487ZM37.6746 80.2648L42.427 81.1464C42.4816 80.6716 42.4319 80.2371 42.2783 79.8434C42.1271 79.4479 41.8955 79.1173 41.5837 78.8516C41.2698 78.5854 40.9028 78.4136 40.4826 78.3356C40.0646 78.2579 39.6633 78.2876 39.279 78.4239C38.8968 78.5608 38.5634 78.7888 38.2796 79.1079C37.9943 79.4245 37.7924 79.81 37.6746 80.2648Z" fill="black"/>
<path d="M48.6268 84.9669C48.0904 84.9866 47.5889 84.9162 47.1223 84.7556C46.6557 84.5971 46.2489 84.3446 45.9016 83.9979L46.2292 83.3816C46.6111 83.7104 46.9905 83.9466 47.3676 84.0899C47.7467 84.2307 48.1447 84.2936 48.5612 84.2784C49.0727 84.2596 49.4838 84.1412 49.7937 83.9232C50.104 83.7074 50.2518 83.4065 50.2378 83.0207C50.2284 82.7629 50.1437 82.5678 49.9837 82.4348C49.8241 82.3021 49.5979 82.1971 49.3062 82.1191C49.0141 82.0432 48.665 81.9618 48.2591 81.8756C47.8026 81.7663 47.4192 81.6482 47.1089 81.521C46.7984 81.3941 46.5622 81.2272 46.3995 81.0205C46.2371 80.8137 46.1493 80.5381 46.1366 80.1935C46.1208 79.7664 46.2152 79.4097 46.4195 79.1234C46.6217 78.835 46.9067 78.6107 47.2747 78.4504C47.6408 78.2904 48.0536 78.2018 48.5138 78.1848C49.015 78.1663 49.4616 78.2294 49.8532 78.3742C50.2427 78.519 50.5645 78.7291 50.8183 79.005L50.4248 79.5958C50.182 79.3384 49.8972 79.1504 49.5706 79.0324C49.2418 78.9143 48.8815 78.8624 48.4896 78.8769C48.2215 78.8866 47.968 78.9313 47.7291 79.0102C47.4884 79.0913 47.2935 79.2163 47.145 79.3848C46.9963 79.5536 46.9271 79.7801 46.9374 80.0648C46.9459 80.2979 47.0115 80.4774 47.1338 80.603C47.254 80.7287 47.4334 80.8316 47.672 80.9118C47.9103 80.9898 48.2027 81.073 48.5487 81.1616C49.0466 81.2776 49.4819 81.3978 49.8544 81.5226C50.2287 81.6473 50.5198 81.8143 50.7281 82.0235C50.936 82.2326 51.0474 82.5344 51.0617 82.9284C51.0842 83.5392 50.8717 84.024 50.4242 84.3834C49.9768 84.745 49.3778 84.9393 48.6268 84.9669Z" fill="black"/>
<path d="M57.136 83.6788C56.6148 83.8066 56.1093 83.839 55.62 83.7762C55.1312 83.7155 54.6813 83.5503 54.2712 83.2811L54.4673 82.6114C54.9078 82.8564 55.327 83.0106 55.7256 83.0747C56.1254 83.136 56.5276 83.1171 56.9326 83.0179C57.4298 82.8961 57.8084 82.697 58.068 82.4208C58.3281 82.1466 58.4122 81.8221 58.3202 81.4469C58.2589 81.1962 58.1366 81.0222 57.9532 80.9248C57.7698 80.8273 57.5273 80.7699 57.2255 80.7526C56.9241 80.7372 56.5659 80.7283 56.1509 80.7259C55.6819 80.7113 55.2824 80.6731 54.9527 80.6115C54.623 80.5499 54.3577 80.4342 54.1567 80.2645C53.9558 80.0948 53.8143 79.8425 53.732 79.5077C53.6303 79.0927 53.6507 78.7242 53.7928 78.4024C53.9324 78.0791 54.1661 77.8019 54.4943 77.5706C54.8203 77.3399 55.2068 77.1696 55.654 77.06C56.1412 76.9407 56.5911 76.9122 57.0042 76.9744C57.415 77.0372 57.7726 77.1781 58.0768 77.397L57.8108 78.0551C57.5209 77.852 57.204 77.7257 56.8603 77.6759C56.5146 77.6268 56.1512 77.6489 55.7702 77.7424C55.5095 77.8062 55.2702 77.9012 55.0526 78.0269C54.8331 78.155 54.6676 78.3168 54.5562 78.512C54.4448 78.7072 54.4227 78.9433 54.4907 79.2199C54.5462 79.4464 54.6467 79.6088 54.7918 79.7071C54.9351 79.8058 55.1315 79.8705 55.381 79.9005C55.6303 79.9287 55.9332 79.9512 56.2902 79.9679C56.8015 79.9806 57.2519 80.0107 57.6417 80.0575C58.0336 80.1039 58.3524 80.2083 58.5986 80.3713C58.8448 80.5341 59.0148 80.807 59.1086 81.1901C59.254 81.7836 59.1441 82.3015 58.7783 82.7441C58.4131 83.1885 57.8658 83.5003 57.136 83.6788Z" fill="black"/>
<path d="M65.8475 80.3481C65.4173 80.5585 64.9841 80.669 64.5482 80.6799C64.1114 80.6936 63.6897 80.6228 63.2829 80.4674C62.8761 80.3123 62.5094 80.0861 62.1825 79.7886C61.8564 79.493 61.5923 79.1384 61.3905 78.7249C61.1185 78.1685 60.9943 77.5996 61.018 77.0179C61.0426 76.4384 61.2104 75.9047 61.5213 75.4175C61.8322 74.93 62.2772 74.545 62.8558 74.2621C63.4047 73.9938 63.9523 73.8823 64.4987 73.9279C65.043 73.9743 65.5209 74.1625 65.9325 74.4922L65.3023 75.093C64.9905 74.8732 64.6444 74.7506 64.2644 74.7251C63.8852 74.7014 63.5145 74.7779 63.153 74.9546C62.7617 75.1458 62.4545 75.4224 62.2314 75.7839C62.0073 76.1439 61.8856 76.548 61.8659 76.9967C61.847 77.4423 61.9481 77.8916 62.1694 78.3442C62.3862 78.7874 62.6797 79.1414 63.0501 79.4061C63.4235 79.6718 63.8242 79.8333 64.2519 79.8906C64.6809 79.9453 65.0898 79.8776 65.4796 79.6869C65.7355 79.5619 65.9604 79.3967 66.1544 79.1918C66.3475 78.9848 66.4944 78.7613 66.5952 78.5212C66.6963 78.2811 66.7327 78.0552 66.7051 77.8436L67.5694 77.7007C67.6015 78.0297 67.5496 78.3652 67.4133 78.7073C67.2773 79.0494 67.0764 79.3624 66.8107 79.6466C66.5433 79.9313 66.2221 80.1651 65.8475 80.3481Z" fill="black"/>
<path d="M73.6697 75.1481C73.3063 75.4441 72.9138 75.6472 72.4918 75.7568C72.0695 75.8694 71.6473 75.8952 71.225 75.8348C70.8027 75.7741 70.4014 75.6366 70.0213 75.4216C69.6425 75.2085 69.3104 74.9265 69.0244 74.5762C68.7284 74.2128 68.5135 73.8236 68.3796 73.4077C68.2457 72.9922 68.1935 72.5699 68.2227 72.1415C68.2515 71.7132 68.3638 71.3034 68.559 70.9127C68.7527 70.5229 69.0314 70.1802 69.3945 69.8839C69.7578 69.5879 70.1488 69.3848 70.5681 69.2749C70.9873 69.165 71.4096 69.1389 71.8349 69.1972C72.2586 69.2564 72.6609 69.3936 73.041 69.6082C73.4228 69.8217 73.7616 70.11 74.0576 70.4734C74.3433 70.8237 74.5515 71.2069 74.6824 71.6221C74.8162 72.0377 74.8709 72.4579 74.8469 72.8823C74.8211 73.3082 74.7106 73.7165 74.5151 74.1075C74.3211 74.5 74.0391 74.847 73.6697 75.1481ZM69.7044 74.038C70.011 74.4141 70.3726 74.6891 70.7891 74.8637C71.2059 75.0352 71.6266 75.0971 72.051 75.0495C72.4742 75 72.8546 74.8379 73.1921 74.5625C73.5297 74.2872 73.765 73.9451 73.8976 73.5362C74.0273 73.1266 74.0485 72.6968 73.9608 72.2463C73.8733 71.7927 73.6791 71.3811 73.3779 71.0117C73.0713 70.6355 72.7061 70.3608 72.282 70.1868C71.8598 70.0117 71.4357 69.9473 71.0098 69.9935C70.5811 70.0393 70.198 70.1999 69.8604 70.4749C69.5229 70.7503 69.2934 71.0942 69.1719 71.5077C69.0493 71.9193 69.029 72.3486 69.1112 72.7954C69.195 73.2411 69.3926 73.6555 69.7044 74.038Z" fill="black"/>
<path d="M75.961 68.3248C75.4662 67.9523 75.0897 67.5085 74.8314 66.9937C74.5749 66.48 74.4586 65.9494 74.4832 65.402C74.5066 64.8562 74.6921 64.3526 75.0396 63.8906C75.3675 63.4552 75.7767 63.152 76.267 62.9814C76.756 62.8123 77.2372 62.7531 77.7105 62.8044L74.5218 60.4037L75.0357 59.7207L81.5343 64.614C81.6284 64.6847 81.7125 64.7172 81.7868 64.7111C81.8594 64.7038 81.9295 64.6622 81.9969 64.5863L82.5388 64.9943C82.458 65.1428 82.3864 65.2518 82.3238 65.321C82.2118 65.4561 82.0616 65.5371 81.8736 65.5632C81.687 65.5881 81.53 65.5526 81.4034 65.4573L80.8913 65.0718C81.0762 65.5365 81.1357 66.0219 81.0698 66.528C81.0039 67.034 80.8278 67.4776 80.541 67.8585C80.269 68.2198 79.9438 68.497 79.5659 68.6903C79.1907 68.8834 78.7915 68.9963 78.3686 69.0294C77.9457 69.0625 77.5253 69.0185 77.1073 68.8974C76.6908 68.7778 76.3089 68.5868 75.961 68.3248ZM80.048 64.5648L78.4327 63.3484C78.1261 63.2546 77.8022 63.23 77.4606 63.2752C77.1161 63.3208 76.7937 63.4215 76.4925 63.5776C76.1917 63.7336 75.9507 63.9318 75.7694 64.1726C75.5585 64.4531 75.4258 64.7509 75.3711 65.0669C75.3168 65.3826 75.329 65.698 75.4073 66.0125C75.4826 66.3276 75.6149 66.6239 75.8043 66.9008C75.9941 67.1807 76.2227 67.4211 76.4898 67.6224C76.7703 67.8333 77.0739 67.986 77.4011 68.0798C77.7284 68.1736 78.0587 68.2052 78.392 68.1746C78.7247 68.1409 79.0331 68.0474 79.3167 67.8941C79.599 67.7423 79.8437 67.5286 80.051 67.2532C80.1812 67.0802 80.2845 66.8747 80.36 66.637C80.4326 66.3996 80.4751 66.1513 80.4872 65.8914C80.4982 65.6334 80.4663 65.3872 80.3919 65.1531C80.3175 64.9188 80.2031 64.7226 80.048 64.5648Z" fill="black"/>
<path d="M85.743 58.6179C85.5611 59.0499 85.3086 59.4151 84.9859 59.7135C84.6641 60.0146 84.3016 60.2396 83.8988 60.3877C83.4959 60.5362 83.0734 60.6057 82.6314 60.5966C82.1915 60.5881 81.7556 60.4931 81.3236 60.3112C80.7604 60.0741 80.2975 59.7265 79.9344 59.2691C79.5735 58.8125 79.3479 58.2973 79.2581 57.7242C79.1679 57.1507 79.2447 56.5752 79.4885 55.9966C79.7392 55.401 80.1008 54.9417 80.5728 54.619C81.0449 54.296 81.5676 54.105 82.1414 54.0464C82.7167 53.9887 83.2822 54.0768 83.8378 54.3105C83.8988 54.336 83.9577 54.3609 84.0144 54.3852C84.0733 54.4101 84.1164 54.4326 84.1437 54.4532L81.9693 59.6154C82.417 59.7593 82.8527 59.7994 83.2761 59.736C83.6966 59.6734 84.0742 59.5189 84.4088 59.2721C84.7445 59.0283 84.9937 58.7132 85.1565 58.3271C85.3216 57.9352 85.3775 57.5208 85.324 57.0836C85.2718 56.6495 85.1131 56.2947 84.848 56.0199L85.3192 55.4119C85.5523 55.6557 85.7314 55.9541 85.8562 56.3068C85.981 56.6596 86.035 57.0339 86.0183 57.43C86.0007 57.828 85.909 58.2239 85.743 58.6179ZM81.3919 59.399L83.2682 54.9444C82.8159 54.7896 82.3809 54.7452 81.9635 54.8114C81.5449 54.8749 81.1724 55.0303 80.8461 55.2783C80.5191 55.5282 80.2726 55.8499 80.1069 56.2437C79.9417 56.6356 79.885 57.0339 79.9363 57.4385C79.9885 57.8414 80.1399 58.2154 80.3907 58.5608C80.639 58.9072 80.9726 59.1868 81.3919 59.399Z" fill="black"/>
<path d="M4.15356 42.4436C4.15356 40.5626 5.6784 39.0381 7.55903 39.0381C9.43996 39.0381 10.9645 40.5629 10.9645 42.4436C10.9645 44.3245 9.43965 45.849 7.55903 45.8493C5.6781 45.8493 4.15356 44.3245 4.15356 42.4436Z" fill="black"/>
<path d="M82.1887 42.4436C82.1887 40.5626 83.7136 39.0381 85.5945 39.0381C87.4754 39.0381 89 40.5629 89 42.4436C89 44.3245 87.4751 45.849 85.5945 45.8493C83.7136 45.8493 82.189 44.3245 82.1887 42.4436Z" fill="black"/>
</g>
<defs>
<filter id="filter0_d_239_19" x="0" y="0" width="93" height="93" filterUnits="userSpaceOnUse" color-interpolation-filters="sRGB">
<feFlood flood-opacity="0" result="BackgroundImageFix"/>
<feColorMatrix in="SourceAlpha" type="matrix" values="0 0 0 0 0 0 0 0 0 0 0 0 0 0 0 0 0 0 127 0" result="hardAlpha"/>
<feOffset dy="4"/>
<feGaussianBlur stdDeviation="2"/>
<feComposite in2="hardAlpha" operator="out"/>
<feColorMatrix type="matrix" values="0 0 0 0 0 0 0 0 0 0 0 0 0 0 0 0 0 0 0.25 0"/>
<feBlend mode="normal" in2="BackgroundImageFix" result="effect1_dropShadow_239_19"/>
<feBlend mode="normal" in="SourceGraphic" in2="effect1_dropShadow_239_19" result="shape"/>
</filter>
<clipPath id="clip0_239_19">
<rect width="85" height="85" fill="white" transform="translate(4)"/>
</clipPath>
<clipPath id="clip1_239_19">
<rect width="29.4816" height="40.0694" fill="white" transform="translate(31.7592 22.4648)"/>
</clipPath>
<clipPath id="clip2_239_19">
<rect width="29.4816" height="40.0694" fill="white" transform="translate(31.7592 22.4648)"/>
</clipPath>
</defs>
</svg>
