<svg width="158" height="158" viewBox="0 0 158 158" fill="none" xmlns="http://www.w3.org/2000/svg">
<g clip-path="url(#clip0_239_19)" filter="url(#filter0_d_239_19)">
<g clip-path="url(#clip1_239_19)">
<g clip-path="url(#clip2_239_19)">
<path d="M105.013 103.359C105.013 103.359 90.3912 66.0314 87.5934 62.3C84.7941 58.5648 82.577 55.206 85.5714 51.8002C90.7055 45.9693 88.8382 40.9263 88.8382 40.9263C82.2271 37.5054 79.0391 42.0148 79.0391 42.0148L78.986 42.2387L78.9617 42.1309C78.9617 42.1309 75.773 37.6223 69.1626 41.0425C69.1626 41.0425 67.2969 46.0862 72.4287 51.9187C75.4246 55.3214 73.2067 58.6824 70.4066 62.4146C67.6081 66.1475 52.9868 103.475 52.9868 103.475C52.9868 103.475 61.8523 108.764 67.1405 108.764C72.4279 108.764 74.6064 110.631 80.3614 110.32C82.9633 110.178 85.374 109.561 87.6094 108.898C88.5802 108.749 89.6367 108.65 90.858 108.65C96.147 108.65 105.013 103.359 105.013 103.359Z" fill="#F3BE67"/>
</g>
</g>
<path d="M21.8361 47.2329L18.4659 57.013L4 52.0276L4.49125 50.6015L17.6912 55.1508L20.5707 46.7969L21.8361 47.2329Z" fill="black"/>
<path d="M27.7102 46.9094L26.5857 46.2248C26.7025 46.0614 26.8129 45.9007 26.9179 45.7421C27.0207 45.5873 27.0813 45.4662 27.1 45.38C27.1659 45.2155 27.1665 45.0216 27.1016 44.7987C27.0357 44.571 26.8499 44.2383 26.545 43.8007C26.2397 43.363 25.7832 42.7335 25.1747 41.9112L13.0397 40.2489L13.8465 38.9235L24.2902 40.4637L17.9586 32.1692L18.7231 30.9141L28.0659 43.415C28.2465 43.6442 28.3852 43.9057 28.4832 44.2003C28.5845 44.4966 28.6161 44.8057 28.5775 45.1276C28.539 45.4496 28.4147 45.7984 28.2036 46.1734C28.1479 46.2928 28.082 46.4085 28.0054 46.5194C27.9272 46.6341 27.8286 46.7637 27.7102 46.9094Z" fill="black"/>
<path d="M31.352 25.3755L27.1423 30.056L26.1304 29.1464L30.34 24.4658L31.352 25.3755Z" fill="black"/>
<path d="M43.9016 22.2936L39.639 25.2561L30.9073 12.6915L35.17 9.729C36.5045 8.80168 37.8116 8.30829 39.092 8.24829C40.3745 8.19097 41.5681 8.48186 42.6727 9.12043C43.7827 9.76007 44.739 10.6569 45.5409 11.8119C46.4265 13.0863 46.9531 14.364 47.1202 15.6449C47.2863 16.9311 47.0977 18.1472 46.554 19.2926C46.015 20.439 45.1311 21.4392 43.9016 22.2936ZM44.3023 12.6722C43.6059 11.6699 42.8018 10.9092 41.8906 10.389C40.9772 9.86614 40.0118 9.62936 38.995 9.67918C37.9836 9.73007 36.9631 10.1131 35.934 10.8283L32.9098 12.9304L40.1131 23.296L43.1377 21.1944C44.1759 20.4728 44.8906 19.637 45.2811 18.6867C45.67 17.7331 45.7745 16.7378 45.595 15.7001C45.4134 14.6597 44.9822 13.6504 44.3023 12.6722Z" fill="black"/>
<path d="M55.5839 3.70117L56.081 4.94403C55.1853 5.33403 54.4905 5.90617 53.996 6.66153C53.5016 7.41635 53.2819 8.26974 53.3366 9.22064L55.931 15.7044L54.5714 16.2487L50.3998 5.8226L51.678 5.31099L52.6787 7.81224C52.7467 6.93367 52.9862 6.14885 53.3971 5.45885C53.8112 4.76724 54.3405 4.26153 54.985 3.94064C55.113 3.87796 55.2276 3.82599 55.3289 3.78528C55.4269 3.74617 55.5121 3.71778 55.5839 3.70117Z" fill="black"/>
<path d="M68.6527 12.5482C67.861 12.6939 67.0986 12.6784 66.3663 12.5016C65.6329 12.3216 64.9708 12.0114 64.3788 11.5721C63.7868 11.1328 63.2897 10.5923 62.8863 9.95157C62.4835 9.31086 62.2092 8.59461 62.064 7.80282C61.8743 6.77103 61.937 5.77996 62.251 4.82907C62.566 3.88246 63.0936 3.07407 63.8335 2.40496C64.5701 1.73639 65.4685 1.30461 66.5292 1.10961C67.6183 0.909249 68.6179 0.996571 69.527 1.36996C70.4329 1.74443 71.1968 2.31496 71.8199 3.08264C72.4467 3.853 72.8533 4.74657 73.0402 5.76389C73.0606 5.87478 73.081 5.98407 73.1002 6.09175C73.1201 6.19943 73.1276 6.28139 73.1233 6.33764L63.6695 8.07443C63.8865 8.85336 64.2379 9.51657 64.7238 10.0641C65.2124 10.6078 65.7893 11.0053 66.4542 11.2576C67.1222 11.5051 67.809 11.5646 68.5151 11.4344C69.2351 11.3021 69.8827 10.9941 70.4565 10.5114C71.0335 10.0239 71.3951 9.46086 71.5408 8.82282L72.8554 8.93157C72.722 9.49675 72.4617 10.0335 72.0733 10.5419C71.6849 11.0503 71.199 11.4784 70.6151 11.8266C70.0274 12.1753 69.3733 12.4159 68.6527 12.5482ZM63.436 7.04478L71.5943 5.54639C71.3892 4.75086 71.0442 4.08443 70.5604 3.54711C70.0724 3.00711 69.497 2.61818 68.8349 2.38086C68.1695 2.14728 67.4768 2.09693 66.7568 2.22871C66.0368 2.36103 65.4106 2.65354 64.8792 3.10729C64.352 3.56371 63.9567 4.13425 63.6936 4.81943C63.4338 5.50086 63.3476 6.24228 63.436 7.04478Z" fill="black"/>
<path d="M82.4339 11.6741C81.5168 11.6382 80.6688 11.4555 79.8904 11.1261C79.112 10.7928 78.4477 10.3059 77.897 9.66462L78.5436 8.65641C79.1505 9.27087 79.7688 9.72355 80.3988 10.0139C81.0255 10.3048 81.6973 10.4639 82.4147 10.4918C83.2922 10.5261 84.0105 10.3771 84.5704 10.0455C85.1302 9.71391 85.4232 9.21837 85.4484 8.55945C85.4655 8.11534 85.3461 7.7698 85.09 7.52284C84.8334 7.27212 84.4611 7.06266 83.9714 6.89391C83.4823 6.72516 82.8952 6.54034 82.2105 6.33837C81.4434 6.09355 80.8027 5.8423 80.2873 5.58516C79.7725 5.32802 79.3895 5.01034 79.1382 4.63266C78.8902 4.2582 78.7777 3.77659 78.8007 3.18677C78.8291 2.45498 79.0348 1.85605 79.4179 1.38945C79.8041 0.923374 80.3211 0.577303 80.9677 0.351231C81.618 0.12516 82.3386 0.0276597 83.1282 0.0581954C83.9875 0.0919454 84.7429 0.258017 85.3948 0.556945C86.043 0.855874 86.5654 1.25712 86.9613 1.7607L86.2129 2.72177C85.8304 2.24766 85.367 1.8882 84.8222 1.64445C84.2773 1.4007 83.6682 1.2657 82.9948 1.23945C82.5363 1.22177 82.0954 1.26462 81.6716 1.36855C81.2516 1.47623 80.9034 1.6648 80.627 1.93427C80.3505 2.20427 80.2022 2.58302 80.1834 3.07105C80.1679 3.47123 80.2557 3.78677 80.4475 4.01659C80.6393 4.24641 80.9339 4.4457 81.332 4.61445C81.7268 4.77945 82.2154 4.96052 82.7977 5.1582C83.6372 5.4207 84.3668 5.68266 84.9877 5.94409C85.6118 6.20552 86.0875 6.52855 86.4154 6.9132C86.7464 7.30159 86.8991 7.83248 86.8729 8.50587C86.8322 9.55427 86.4052 10.3578 85.5914 10.9166C84.7788 11.4716 83.7261 11.7239 82.4339 11.6741Z" fill="black"/>
<path d="M95.1266 13.6538C94.2357 13.4326 93.4428 13.0811 92.7475 12.6006C92.0532 12.1163 91.5014 11.5045 91.0927 10.7647L91.9305 9.90863C92.3998 10.6335 92.9135 11.2024 93.4712 11.6149C94.0257 12.0268 94.6514 12.3193 95.3478 12.4924C96.1996 12.704 96.9335 12.7045 97.5491 12.4935C98.1646 12.2824 98.5519 11.857 98.711 11.2168C98.8182 10.7856 98.7716 10.4229 98.5707 10.1288C98.3709 9.83149 98.0484 9.55024 97.6032 9.28613C97.1585 9.02149 96.6212 8.72096 95.9918 8.38399C95.2905 7.9881 94.7141 7.61203 94.2619 7.25578C93.8098 6.89953 93.4991 6.5106 93.3303 6.08953C93.1637 5.67274 93.1514 5.17774 93.2939 4.60506C93.4707 3.89471 93.7937 3.34988 94.263 2.97113C94.736 2.59346 95.3125 2.35935 95.9918 2.26935C96.6748 2.17988 97.3996 2.23078 98.1668 2.42149C99.0009 2.62881 99.7069 2.94542 100.284 3.37024C100.858 3.79453 101.288 4.29381 101.573 4.86703L100.646 5.6556C100.367 5.11346 99.9866 4.66774 99.5028 4.31846C99.0191 3.96917 98.4502 3.7131 97.796 3.55078C97.3503 3.43988 96.91 3.39274 96.4744 3.40828C96.0416 3.4281 95.6623 3.54221 95.336 3.7506C95.0103 3.95846 94.7885 4.29971 94.6712 4.77328C94.5748 5.16221 94.5968 5.48846 94.7371 5.75256C94.878 6.01667 95.126 6.27167 95.4818 6.51756C95.8348 6.75917 96.2762 7.03613 96.8071 7.34792C97.5753 7.77542 98.2369 8.17988 98.7914 8.56185C99.3496 8.94435 99.7498 9.35738 99.9925 9.80096C100.238 10.2488 100.279 10.7995 100.116 11.4536C99.8634 12.472 99.2816 13.1722 98.3725 13.5542C97.4639 13.9329 96.3818 13.9661 95.1266 13.6538Z" fill="black"/>
<path d="M108.138 18.7189C107.403 18.3562 106.798 17.8869 106.322 17.3105C105.849 16.7314 105.504 16.0837 105.289 15.368C105.073 14.6523 104.995 13.9173 105.054 13.1624C105.114 12.4076 105.319 11.6758 105.669 10.9671C106.14 10.013 106.782 9.24745 107.595 8.66995C108.407 8.09566 109.308 7.76406 110.298 7.6762C111.285 7.5862 112.275 7.78655 113.268 8.27673C114.209 8.7412 114.934 9.36691 115.442 10.1544C115.951 10.9419 116.198 11.7889 116.182 12.6948L114.707 12.473C114.677 11.8167 114.48 11.2173 114.113 10.6746C113.751 10.1341 113.259 9.71031 112.638 9.40388C111.968 9.07334 111.271 8.94638 110.547 9.02405C109.82 9.09638 109.142 9.35459 108.512 9.79923C107.887 10.2423 107.384 10.8508 107.002 11.6255C106.628 12.3835 106.454 13.1549 106.481 13.9398C106.513 14.7235 106.716 15.4349 107.091 16.0751C107.46 16.7169 107.98 17.2028 108.65 17.5333C109.088 17.7492 109.55 17.8799 110.035 17.9244C110.517 17.971 110.972 17.9357 111.403 17.8199C111.838 17.7053 112.183 17.5205 112.439 17.2644L113.542 18.2903C113.127 18.6787 112.615 18.9583 112.006 19.1292C111.401 19.3017 110.767 19.3564 110.104 19.2926C109.437 19.2278 108.782 19.0366 108.138 18.7189Z" fill="black"/>
<path d="M119.667 26.4961C119.045 25.985 118.568 25.3946 118.236 24.7255C117.907 24.0538 117.721 23.3525 117.681 22.6213C117.641 21.89 117.736 21.1689 117.967 20.458C118.198 19.7471 118.559 19.092 119.052 18.492C119.563 17.87 120.147 17.3755 120.802 17.0091C121.455 16.6454 122.147 16.4145 122.878 16.317C123.608 16.2195 124.334 16.2693 125.055 16.4659C125.777 16.6593 126.45 17.0118 127.072 17.5229C127.694 18.0339 128.167 18.6232 128.491 19.2907C128.82 19.9571 129.007 20.6584 129.053 21.3939C129.099 22.1295 129.007 22.8532 128.776 23.5641C128.543 24.2777 128.17 24.9457 127.659 25.5682C127.167 26.1677 126.594 26.6493 125.941 27.013C125.288 27.3768 124.599 27.6098 123.874 27.7116C123.148 27.8134 122.423 27.7668 121.697 27.5713C120.977 27.3752 120.3 27.0168 119.667 26.4961ZM120.187 19.453C119.659 20.0948 119.319 20.7955 119.165 21.5563C119.017 22.3164 119.057 23.0445 119.285 23.7414C119.509 24.4389 119.909 25.025 120.486 25.4996C121.063 25.9738 121.719 26.2513 122.454 26.3327C123.184 26.4141 123.915 26.3054 124.647 26.0059C125.38 25.7038 126.007 25.2377 126.525 24.6071C127.055 23.9627 127.394 23.2555 127.541 22.4852C127.69 21.7121 127.655 20.9755 127.434 20.2748C127.212 19.5693 126.813 18.9789 126.236 18.5048C125.659 18.0307 125.003 17.7623 124.267 17.6996C123.53 17.6316 122.799 17.743 122.075 18.0339C121.355 18.3243 120.726 18.7973 120.187 19.453Z" fill="black"/>
<path d="M131.213 29.5867C132.066 28.9503 132.978 28.5426 133.948 28.3637C134.916 28.1863 135.845 28.2496 136.736 28.5533C137.626 28.8571 138.368 29.4056 138.961 30.1996C139.521 30.9496 139.824 31.7692 139.869 32.6585C139.914 33.5472 139.779 34.3685 139.464 35.1222L144.956 31.023L145.832 32.1962L134.639 40.5522C134.479 40.6722 134.388 40.7944 134.368 40.9187C134.344 41.0456 134.378 41.1817 134.468 41.3274L133.536 42.0238C133.328 41.8192 133.184 41.6499 133.102 41.516C132.933 41.2647 132.871 40.9787 132.918 40.6578C132.965 40.3363 133.098 40.0942 133.316 39.9308L134.196 39.2735C133.343 39.3554 132.517 39.2199 131.718 38.8669C130.918 38.5138 130.272 38.0092 129.782 37.3524C129.318 36.7305 129.015 36.0635 128.874 35.3499C128.738 34.638 128.745 33.9255 128.895 33.2135C129.045 32.501 129.32 31.8303 129.718 31.2013C130.117 30.5719 130.615 30.034 131.213 29.5867ZM135.441 38.1265L138.221 36.0506C138.524 35.5921 138.721 35.0703 138.811 34.4847C138.899 33.896 138.889 33.3153 138.779 32.7426C138.667 32.1721 138.456 31.6792 138.147 31.2646C137.787 30.783 137.361 30.4219 136.867 30.1808C136.37 29.9424 135.844 29.8101 135.289 29.7838C134.733 29.7576 134.18 29.8337 133.631 30.0121C133.082 30.1899 132.577 30.4513 132.116 30.7953C131.634 31.1547 131.236 31.5812 130.923 32.0751C130.609 32.5685 130.399 33.0978 130.294 33.6624C130.184 34.2271 130.187 34.7794 130.303 35.3194C130.42 35.8594 130.655 36.3662 131.008 36.8392C131.231 37.1371 131.521 37.4044 131.88 37.6412C132.233 37.8774 132.621 38.0676 133.042 38.2117C133.462 38.3531 133.883 38.4185 134.307 38.4072C134.727 38.3981 135.105 38.3044 135.441 38.1265Z" fill="black"/>
<path d="M137.451 51.1491C137.141 50.4061 136.995 49.6577 137.013 48.9045C137.033 48.1497 137.196 47.4366 137.501 46.7654C137.805 46.0941 138.228 45.4936 138.769 44.9643C139.31 44.435 139.952 44.0156 140.695 43.7059C141.664 43.3025 142.646 43.1536 143.641 43.2597C144.633 43.3673 145.534 43.7118 146.345 44.2941C147.155 44.8727 147.766 45.6597 148.181 46.6545C148.607 47.6766 148.733 48.672 148.561 49.64C148.387 50.6048 147.99 51.4722 147.372 52.2425C146.752 53.0177 145.964 53.6048 145.009 54.0029C144.905 54.0463 144.802 54.0891 144.702 54.1309C144.601 54.1727 144.522 54.1979 144.466 54.2054L140.769 45.3323C140.054 45.7095 139.48 46.1932 139.048 46.7841C138.62 47.3766 138.353 48.0248 138.247 48.7277C138.147 49.4327 138.234 50.1163 138.51 50.7789C138.792 51.455 139.229 52.0223 139.823 52.4814C140.421 52.9427 141.048 53.1768 141.702 53.1843L141.874 54.492C141.293 54.4813 140.714 54.3398 140.135 54.0682C139.556 53.7966 139.034 53.412 138.571 52.9143C138.106 52.4134 137.733 51.8252 137.451 51.1491ZM141.726 44.8866L144.916 52.5436C145.651 52.1745 146.229 51.6966 146.652 51.1106C147.076 50.5191 147.335 49.8747 147.427 49.1772C147.514 48.4775 147.417 47.7902 147.135 47.1141C146.854 46.4381 146.435 45.8884 145.88 45.4647C145.323 45.0457 144.681 44.78 143.955 44.6681C143.235 44.5577 142.491 44.6306 141.726 44.8866Z" fill="black"/>
<path d="M11.2129 106.608L7.72644 96.5616L22.5898 91.4043L23.0988 92.8705L9.53126 97.5784L12.5088 106.158L11.2129 106.608Z" fill="black"/>
<path d="M9.75305 113.857L10.9048 113.153C11.0007 113.338 11.095 113.513 11.1872 113.678C11.2814 113.847 11.3639 113.961 11.4347 114.021C11.5525 114.158 11.7304 114.25 11.9682 114.297C12.2039 114.341 12.5945 114.326 13.1393 114.254C13.6809 114.183 14.4722 114.063 15.512 113.893L22.7457 103.584L23.5777 104.946L17.2525 113.765L27.8157 111.885L28.6022 113.172L12.775 115.827C12.4804 115.883 12.1761 115.888 11.8611 115.841C11.5445 115.791 11.2466 115.674 10.9681 115.49C10.6922 115.304 10.4323 115.026 10.1886 114.653C10.1077 114.549 10.0332 114.434 9.96573 114.31C9.89769 114.185 9.82698 114.034 9.75305 113.857Z" fill="black"/>
<path d="M30.8023 125.091L26.4764 120.28L27.5163 119.345L31.8427 124.155L30.8023 125.091Z" fill="black"/>
<path d="M37.4173 136.848L33.0341 133.8L42.0158 120.884L46.3991 123.931C47.7689 124.884 48.7107 125.967 49.2244 127.181C49.7435 128.394 49.893 129.65 49.6739 130.948C49.4564 132.243 48.9351 133.484 48.1091 134.672C47.1983 135.982 46.1532 136.948 44.9751 137.571C43.796 138.188 42.5564 138.442 41.2567 138.333C39.9592 138.221 38.6794 137.726 37.4173 136.848ZM46.8351 133.786C47.5503 132.757 47.9955 131.708 48.1701 130.641C48.3426 129.576 48.2248 128.562 47.8155 127.599C47.4046 126.639 46.6717 125.792 45.6158 125.058L42.5066 122.896L35.0912 133.56L38.2005 135.722C39.2682 136.465 40.331 136.851 41.3885 136.881C42.4471 136.916 43.443 136.661 44.3762 136.116C45.3148 135.571 46.1344 134.794 46.8351 133.786Z" fill="black"/>
<path d="M59.9259 135.475L59.4132 136.753C58.4725 136.408 57.55 136.34 56.6452 136.55C55.7404 136.761 54.9716 137.239 54.3389 137.987L51.6673 144.651L50.267 144.091L54.5634 133.373L55.8823 133.901L54.8511 136.473C55.5218 135.867 56.2568 135.453 57.0561 135.231C57.8516 135.009 58.6038 135.008 59.312 135.229C59.4529 135.27 59.5755 135.311 59.6805 135.354C59.7818 135.394 59.8638 135.435 59.9259 135.475Z" fill="black"/>
<path d="M66.4123 148.852C65.5991 148.701 64.8743 148.404 64.2384 147.96C63.5977 147.518 63.0737 146.978 62.6661 146.34C62.2584 145.701 61.9793 144.999 61.8282 144.233C61.6766 143.471 61.6766 142.684 61.8271 141.871C62.0237 140.811 62.448 139.882 63.1005 139.084C63.7519 138.289 64.5544 137.707 65.5091 137.335C66.4637 136.964 67.4853 136.879 68.5739 137.081C69.6952 137.289 70.623 137.739 71.358 138.431C72.093 139.123 72.6191 139.953 72.9362 140.92C73.2528 141.89 73.3139 142.898 73.12 143.944C73.0986 144.058 73.0782 144.169 73.0578 144.277C73.0375 144.388 73.0144 144.471 72.9898 144.525L63.2703 142.722C63.1911 143.549 63.2864 144.315 63.5553 145.021C63.8216 145.722 64.2303 146.315 64.7816 146.799C65.3286 147.286 65.9655 147.596 66.6925 147.731C67.4302 147.868 68.1657 147.808 68.8991 147.551C69.6282 147.297 70.1794 146.89 70.5539 146.33L71.7796 146.913C71.4469 147.407 71.0002 147.828 70.4393 148.176C69.8784 148.524 69.2532 148.758 68.5637 148.879C67.8711 148.998 67.1537 148.99 66.4123 148.852ZM63.4257 141.645L71.8123 143.201C71.9087 142.363 71.8209 141.596 71.5498 140.902C71.283 140.203 70.8743 139.62 70.3241 139.151C69.7702 138.682 69.1225 138.378 68.3811 138.241C67.6434 138.103 66.9352 138.156 66.2569 138.397C65.5825 138.638 64.9943 139.04 64.4934 139.603C63.9898 140.162 63.6336 140.843 63.4257 141.645Z" fill="black"/>
<path d="M82.7532 149.943C81.8066 149.978 80.9216 149.853 80.0982 149.57C79.2748 149.29 78.5569 148.844 77.9441 148.233L78.5221 147.145C79.1961 147.725 79.8657 148.142 80.5311 148.395C81.2002 148.644 81.9025 148.754 82.6375 148.728C83.5402 148.694 84.2655 148.486 84.8125 148.101C85.36 147.72 85.6209 147.189 85.5962 146.508C85.5796 146.053 85.4302 145.709 85.1478 145.474C84.8661 145.24 84.4669 145.055 83.9521 144.917C83.4368 144.783 82.8207 144.64 82.1044 144.488C81.2987 144.295 80.6221 144.086 80.0746 143.862C79.5266 143.638 79.1098 143.343 78.8227 142.978C78.5361 142.614 78.3812 142.127 78.3587 141.519C78.3309 140.765 78.4975 140.136 78.858 139.631C79.2148 139.122 79.7178 138.726 80.3671 138.443C81.0132 138.161 81.7418 138.004 82.5539 137.974C83.4384 137.942 84.2264 138.053 84.9175 138.309C85.6048 138.564 86.1727 138.935 86.6205 139.422L85.9262 140.464C85.4977 140.01 84.9952 139.678 84.4187 139.47C83.8386 139.262 83.2027 139.17 82.5111 139.196C82.038 139.213 81.5907 139.292 81.1691 139.431C80.7443 139.574 80.4003 139.795 80.1384 140.092C79.8759 140.39 79.7537 140.789 79.7719 141.292C79.7869 141.703 79.9027 142.02 80.1186 142.242C80.3307 142.464 80.6473 142.645 81.0684 142.787C81.4889 142.924 82.0048 143.071 82.6155 143.228C83.4941 143.432 84.2623 143.644 84.9196 143.864C85.5802 144.085 86.0939 144.379 86.4614 144.748C86.8284 145.118 87.025 145.65 87.0502 146.345C87.0898 147.423 86.7148 148.279 85.9252 148.913C85.1355 149.551 84.0786 149.894 82.7532 149.943Z" fill="black"/>
<path d="M97.7693 147.669C96.8495 147.895 95.9575 147.952 95.094 147.841C94.2315 147.734 93.4375 147.442 92.7138 146.967L93.0598 145.785C93.8372 146.218 94.577 146.49 95.2804 146.603C95.9859 146.711 96.6957 146.678 97.4104 146.503C98.2879 146.288 98.9559 145.936 99.414 145.449C99.8731 144.965 100.021 144.393 99.8591 143.73C99.7509 143.288 99.535 142.981 99.2115 142.809C98.8879 142.637 98.4598 142.536 97.9273 142.505C97.3954 142.478 96.7632 142.462 96.0309 142.458C95.2032 142.432 94.4982 142.365 93.9165 142.256C93.3347 142.147 92.8665 141.943 92.5118 141.644C92.1572 141.344 91.9075 140.899 91.7624 140.308C91.5829 139.576 91.6188 138.926 91.8695 138.358C92.1159 137.787 92.5284 137.298 93.1075 136.89C93.6829 136.483 94.3649 136.182 95.154 135.989C96.0138 135.778 96.8077 135.728 97.5368 135.838C98.2616 135.949 98.8927 136.197 99.4295 136.583L98.9602 137.745C98.4486 137.386 97.8893 137.164 97.2829 137.076C96.6727 136.989 96.0315 137.028 95.3591 137.193C94.899 137.306 94.4768 137.473 94.0927 137.695C93.7054 137.921 93.4134 138.207 93.2168 138.551C93.0202 138.896 92.9811 139.312 93.1011 139.8C93.1991 140.2 93.3765 140.487 93.6325 140.66C93.8854 140.834 94.232 140.948 94.6724 141.001C95.1122 141.051 95.6468 141.091 96.2768 141.12C97.179 141.143 97.974 141.196 98.6618 141.278C99.3534 141.36 99.9159 141.545 100.35 141.832C100.785 142.12 101.085 142.601 101.25 143.277C101.507 144.325 101.313 145.238 100.668 146.02C100.023 146.804 99.0572 147.354 97.7693 147.669Z" fill="black"/>
<path d="M113.143 141.792C112.384 142.163 111.619 142.358 110.85 142.377C110.079 142.401 109.335 142.276 108.617 142.002C107.899 141.728 107.252 141.329 106.675 140.804C106.1 140.283 105.634 139.657 105.277 138.927C104.797 137.945 104.578 136.941 104.62 135.915C104.663 134.892 104.96 133.95 105.508 133.091C106.057 132.23 106.842 131.551 107.863 131.052C108.832 130.578 109.798 130.381 110.763 130.462C111.723 130.544 112.566 130.876 113.293 131.458L112.181 132.518C111.63 132.13 111.02 131.914 110.349 131.869C109.68 131.827 109.026 131.962 108.388 132.274C107.697 132.611 107.155 133.099 106.761 133.737C106.366 134.373 106.151 135.086 106.116 135.877C106.083 136.664 106.261 137.457 106.652 138.255C107.034 139.038 107.553 139.662 108.206 140.129C108.865 140.598 109.572 140.883 110.327 140.984C111.084 141.081 111.806 140.961 112.493 140.625C112.945 140.404 113.342 140.113 113.684 139.751C114.025 139.386 114.284 138.991 114.462 138.568C114.641 138.144 114.705 137.745 114.656 137.372L116.181 137.12C116.238 137.7 116.146 138.292 115.906 138.896C115.666 139.5 115.311 140.052 114.843 140.554C114.371 141.056 113.804 141.469 113.143 141.792Z" fill="black"/>
<path d="M126.946 132.614C126.305 133.137 125.613 133.495 124.868 133.689C124.123 133.887 123.378 133.933 122.632 133.826C121.887 133.719 121.179 133.476 120.508 133.097C119.84 132.721 119.254 132.223 118.749 131.605C118.227 130.964 117.847 130.277 117.611 129.543C117.375 128.81 117.283 128.065 117.334 127.309C117.385 126.553 117.583 125.83 117.928 125.14C118.269 124.452 118.761 123.848 119.402 123.325C120.043 122.802 120.733 122.444 121.473 122.25C122.213 122.056 122.958 122.01 123.709 122.113C124.456 122.217 125.166 122.46 125.837 122.838C126.511 123.215 127.109 123.724 127.631 124.365C128.135 124.983 128.503 125.659 128.734 126.392C128.97 127.126 129.066 127.867 129.024 128.616C128.978 129.368 128.783 130.088 128.438 130.778C128.096 131.471 127.598 132.083 126.946 132.614ZM119.949 130.655C120.49 131.319 121.128 131.805 121.863 132.113C122.599 132.415 123.341 132.525 124.09 132.44C124.837 132.353 125.508 132.067 126.104 131.581C126.699 131.095 127.115 130.491 127.349 129.77C127.578 129.047 127.615 128.289 127.46 127.494C127.306 126.693 126.963 125.967 126.432 125.315C125.891 124.651 125.246 124.166 124.498 123.859C123.753 123.55 123.004 123.437 122.253 123.518C121.496 123.599 120.82 123.882 120.224 124.368C119.629 124.854 119.224 125.461 119.009 126.19C118.793 126.917 118.757 127.674 118.902 128.463C119.05 129.249 119.399 129.98 119.949 130.655Z" fill="black"/>
<path d="M130.99 120.573C130.117 119.916 129.453 119.133 128.997 118.224C128.544 117.318 128.339 116.381 128.382 115.416C128.423 114.452 128.751 113.564 129.364 112.748C129.943 111.98 130.665 111.445 131.53 111.144C132.393 110.845 133.242 110.741 134.077 110.831L128.45 106.595L129.357 105.39L140.825 114.025C140.991 114.15 141.14 114.207 141.271 114.196C141.399 114.183 141.523 114.11 141.642 113.976L142.598 114.696C142.455 114.958 142.329 115.15 142.219 115.273C142.021 115.511 141.756 115.654 141.424 115.7C141.095 115.744 140.818 115.681 140.594 115.513L139.691 114.833C140.017 115.653 140.122 116.509 140.006 117.403C139.889 118.296 139.579 119.078 139.072 119.751C138.592 120.388 138.019 120.877 137.352 121.218C136.689 121.559 135.985 121.758 135.239 121.817C134.493 121.875 133.751 121.797 133.013 121.584C132.278 121.373 131.604 121.036 130.99 120.573ZM138.202 113.938L135.352 111.791C134.811 111.626 134.239 111.583 133.636 111.662C133.028 111.743 132.459 111.921 131.928 112.196C131.397 112.471 130.972 112.821 130.652 113.246C130.28 113.741 130.046 114.266 129.949 114.824C129.853 115.381 129.875 115.938 130.013 116.493C130.146 117.049 130.379 117.572 130.714 118.06C131.048 118.554 131.452 118.979 131.923 119.334C132.418 119.706 132.954 119.976 133.531 120.141C134.109 120.307 134.692 120.362 135.28 120.308C135.867 120.249 136.411 120.084 136.912 119.813C137.41 119.545 137.842 119.168 138.208 118.682C138.438 118.377 138.62 118.014 138.753 117.595C138.881 117.176 138.956 116.738 138.978 116.279C138.997 115.824 138.941 115.389 138.809 114.976C138.678 114.563 138.476 114.217 138.202 113.938Z" fill="black"/>
<path d="M148.252 103.443C147.931 104.206 147.486 104.85 146.916 105.377C146.348 105.908 145.709 106.305 144.998 106.566C144.287 106.828 143.541 106.951 142.761 106.935C141.985 106.92 141.216 106.752 140.453 106.431C139.46 106.013 138.643 105.4 138.002 104.592C137.365 103.787 136.967 102.878 136.808 101.866C136.649 100.854 136.785 99.8384 137.215 98.8173C137.657 97.7663 138.295 96.9557 139.129 96.3863C139.962 95.8163 140.884 95.4793 141.897 95.3759C142.912 95.2741 143.91 95.4295 144.89 95.842C144.998 95.887 145.102 95.9309 145.202 95.9738C145.306 96.0177 145.382 96.0573 145.43 96.0938L141.593 105.204C142.383 105.458 143.152 105.528 143.899 105.416C144.641 105.306 145.307 105.033 145.898 104.598C146.49 104.168 146.93 103.611 147.217 102.93C147.509 102.238 147.607 101.507 147.513 100.736C147.421 99.9697 147.141 99.3434 146.673 98.8586L147.504 97.7856C147.916 98.2157 148.232 98.7423 148.452 99.3648C148.672 99.9873 148.768 100.648 148.738 101.347C148.707 102.049 148.545 102.748 148.252 103.443ZM140.574 104.822L143.885 96.9606C143.087 96.6873 142.319 96.6091 141.583 96.7259C140.844 96.8379 140.187 97.1122 139.611 97.5498C139.034 97.9907 138.599 98.5586 138.306 99.2534C138.015 99.945 137.915 100.648 138.005 101.362C138.097 102.073 138.365 102.733 138.807 103.343C139.245 103.954 139.834 104.447 140.574 104.822Z" fill="black"/>
<path d="M4.27112 74.9012C4.27112 71.582 6.96201 68.8916 10.2808 68.8916C13.6 68.8916 16.2904 71.5825 16.2904 74.9012C16.2904 78.2205 13.5995 80.9109 10.2808 80.9114C6.96148 80.9114 4.27112 78.2205 4.27112 74.9012Z" fill="black"/>
<path d="M141.98 74.9012C141.98 71.582 144.671 68.8916 147.99 68.8916C151.31 68.8916 154 71.5825 154 74.9012C154 78.2205 151.309 80.9109 147.99 80.9114C144.671 80.9114 141.981 78.2205 141.98 74.9012Z" fill="black"/>
</g>
<defs>
<filter id="filter0_d_239_19" x="0" y="0" width="158" height="158" filterUnits="userSpaceOnUse" color-interpolation-filters="sRGB">
<feFlood flood-opacity="0" result="BackgroundImageFix"/>
<feColorMatrix in="SourceAlpha" type="matrix" values="0 0 0 0 0 0 0 0 0 0 0 0 0 0 0 0 0 0 127 0" result="hardAlpha"/>
<feOffset dy="4"/>
<feGaussianBlur stdDeviation="2"/>
<feComposite in2="hardAlpha" operator="out"/>
<feColorMatrix type="matrix" values="0 0 0 0 0 0 0 0 0 0 0 0 0 0 0 0 0 0 0.25 0"/>
<feBlend mode="normal" in2="BackgroundImageFix" result="effect1_dropShadow_239_19"/>
<feBlend mode="normal" in="SourceGraphic" in2="effect1_dropShadow_239_19" result="shape"/>
</filter>
<clipPath id="clip0_239_19">
<rect width="150" height="150" fill="white" transform="translate(4)"/>
</clipPath>
<clipPath id="clip1_239_19">
<rect width="52.0264" height="70.7107" fill="white" transform="translate(52.9868 39.6445)"/>
</clipPath>
<clipPath id="clip2_239_19">
<rect width="52.0264" height="70.7107" fill="white" transform="translate(52.9868 39.6445)"/>
</clipPath>
</defs>
</svg>
