<svg width="85" height="85" viewBox="0 0 85 85" fill="none" xmlns="http://www.w3.org/2000/svg">
<g clip-path="url(#clip0_239_19)">
<path d="M57.2408 58.5698C57.2408 58.5698 48.955 37.4174 47.3696 35.3029C45.7833 33.1863 44.5269 31.283 46.2237 29.3531C49.1331 26.0489 48.075 23.1912 48.075 23.1912C44.3286 21.2527 42.5221 23.808 42.5221 23.808L42.492 23.9349L42.4783 23.8738C42.4783 23.8738 40.6713 21.3189 36.9254 23.257C36.9254 23.257 35.8682 26.1151 38.7762 29.4202C40.4739 31.3484 39.2171 33.253 37.6304 35.3679C36.0445 37.4832 27.7592 58.6356 27.7592 58.6356C27.7592 58.6356 32.7829 61.6327 35.7796 61.6327C38.7758 61.6327 40.0102 62.6907 43.2714 62.5144C44.7458 62.4335 46.1119 62.0843 47.3786 61.7084C47.9287 61.6241 48.5275 61.5677 49.2195 61.5677C52.2166 61.5677 57.2408 58.5698 57.2408 58.5698Z" fill="#F3BE67"/>
<path d="M10.1071 26.7647L8.19734 32.3067L0 29.4816L0.278375 28.6735L7.75837 31.2515L9.39007 26.5176L10.1071 26.7647Z" fill="black"/>
<path d="M13.4357 26.5816L12.7985 26.1937C12.8647 26.1011 12.9273 26.01 12.9868 25.9201C13.045 25.8324 13.0793 25.7638 13.09 25.7149C13.1273 25.6217 13.1276 25.5118 13.0909 25.3855C13.0535 25.2565 12.9482 25.068 12.7755 24.82C12.6024 24.572 12.3438 24.2153 11.9989 23.7493L5.12244 22.8073L5.57961 22.0563L11.4977 22.929L7.90983 18.2288L8.34303 17.5176L13.6373 24.6014C13.7396 24.7313 13.8182 24.8795 13.8738 25.0465C13.9312 25.2143 13.9491 25.3895 13.9272 25.5719C13.9054 25.7544 13.8349 25.952 13.7153 26.1645C13.6838 26.2322 13.6464 26.2978 13.603 26.3606C13.5587 26.4256 13.5028 26.499 13.4357 26.5816Z" fill="black"/>
<path d="M15.4994 14.3787L13.114 17.031L12.5405 16.5156L14.926 13.8633L15.4994 14.3787Z" fill="black"/>
<path d="M22.6109 12.633L20.1953 14.3117L15.2474 7.19175L17.663 5.513C18.4191 4.98752 19.1599 4.70793 19.8854 4.67393C20.6121 4.64145 21.2885 4.80629 21.9145 5.16815C22.5435 5.53061 23.0853 6.03879 23.5398 6.69329C24.0416 7.41549 24.34 8.1395 24.4347 8.86534C24.5288 9.59422 24.422 10.2833 24.1138 10.9324C23.8085 11.582 23.3076 12.1488 22.6109 12.633ZM22.8379 7.18083C22.4433 6.61284 21.9876 6.18177 21.4713 5.887C20.9537 5.59072 20.4066 5.45654 19.8305 5.48477C19.2573 5.51361 18.679 5.73066 18.0958 6.13593L16.3822 7.32715L20.464 13.201L22.178 12.01C22.7663 11.6011 23.1713 11.1276 23.3926 10.589C23.613 10.0487 23.6721 9.48463 23.5705 8.89661C23.4675 8.30707 23.2232 7.73515 22.8379 7.18083Z" fill="black"/>
<path d="M29.2309 2.09668L29.5126 2.80097C29.005 3.02197 28.6113 3.34618 28.3311 3.77422C28.0509 4.20195 27.9264 4.68554 27.9574 5.22438L29.4276 8.8985L28.6571 9.20693L26.2932 3.29882L27.0175 3.00891L27.5846 4.42629C27.6232 3.92843 27.7589 3.4837 27.9917 3.0927C28.2264 2.70079 28.5263 2.41422 28.8915 2.23238C28.964 2.19686 29.029 2.16741 29.0864 2.14434C29.1419 2.12218 29.1902 2.10609 29.2309 2.09668Z" fill="black"/>
<path d="M36.6365 7.11054C36.1878 7.19311 35.7559 7.1843 35.3409 7.08413C34.9253 6.98213 34.5501 6.80636 34.2146 6.55743C33.8792 6.3085 33.5975 6.0022 33.3689 5.63913C33.1406 5.27605 32.9852 4.87018 32.9029 4.4215C32.7954 3.83682 32.8309 3.27522 33.0088 2.73638C33.1873 2.19997 33.4864 1.74188 33.9056 1.36272C34.323 0.983858 34.8321 0.739179 35.4332 0.628679C36.0503 0.515144 36.6168 0.564626 37.1319 0.776215C37.6453 0.988412 38.0782 1.31172 38.4312 1.74673C38.7864 2.18327 39.0168 2.68963 39.1228 3.26611C39.1343 3.32895 39.1458 3.39088 39.1568 3.45189C39.168 3.51291 39.1723 3.55936 39.1698 3.59123L33.8127 4.57541C33.9356 5.0168 34.1348 5.39263 34.4101 5.70288C34.687 6.011 35.0139 6.23625 35.3907 6.37923C35.7692 6.51948 36.1584 6.55318 36.5585 6.47941C36.9665 6.40443 37.3335 6.22988 37.6586 5.95636C37.9856 5.68011 38.1905 5.36105 38.2731 4.9995L39.018 5.06113C38.9424 5.38139 38.7949 5.68557 38.5748 5.97366C38.3547 6.26175 38.0794 6.5043 37.7485 6.70163C37.4155 6.89925 37.0448 7.03555 36.6365 7.11054ZM33.6803 3.99195L38.3034 3.14286C38.1872 2.69205 37.9917 2.31441 37.7175 2.00993C37.441 1.70393 37.1149 1.48354 36.7397 1.34905C36.3627 1.2167 35.9702 1.18816 35.5622 1.26284C35.1542 1.33782 34.7993 1.50357 34.4982 1.7607C34.1994 2.01934 33.9754 2.34264 33.8264 2.73091C33.6791 3.11705 33.6303 3.5372 33.6803 3.99195Z" fill="black"/>
<path d="M44.4459 6.61473C43.9262 6.59439 43.4457 6.49087 43.0046 6.30418C42.5635 6.11535 42.1871 5.83941 41.875 5.47603L42.2414 4.90471C42.5854 5.25291 42.9357 5.50943 43.2927 5.67396C43.6479 5.8388 44.0285 5.92896 44.435 5.94475C44.9323 5.96418 45.3394 5.87978 45.6566 5.69187C45.9738 5.50396 46.1399 5.22316 46.1541 4.84977C46.1639 4.59811 46.0962 4.4023 45.9511 4.26236C45.8056 4.12028 45.5947 4.00159 45.3172 3.90596C45.04 3.81034 44.7073 3.70561 44.3194 3.59116C43.8846 3.45243 43.5216 3.31005 43.2295 3.16434C42.9378 3.01862 42.7208 2.83861 42.5784 2.62459C42.4378 2.41239 42.3741 2.13948 42.3871 1.80525C42.4032 1.39057 42.5198 1.05118 42.7368 0.786766C42.9557 0.522659 43.2487 0.326552 43.6151 0.198445C43.9836 0.0703379 44.3919 0.0150879 44.8394 0.0323915C45.3263 0.0515165 45.7543 0.145624 46.1238 0.315016C46.4911 0.484409 46.7871 0.711784 47.0114 0.997141L46.5873 1.54175C46.3706 1.27309 46.108 1.06939 45.7993 0.931266C45.4905 0.793141 45.1454 0.716641 44.7638 0.701766C44.5039 0.691749 44.2541 0.716034 44.014 0.774927C43.776 0.835945 43.5786 0.942802 43.422 1.0955C43.2654 1.2485 43.1813 1.46312 43.1706 1.73968C43.1618 1.96644 43.2116 2.14525 43.3203 2.27548C43.429 2.40571 43.5959 2.51864 43.8215 2.61427C44.0452 2.70777 44.3221 2.81037 44.6521 2.92239C45.1278 3.07114 45.5412 3.21959 45.8931 3.36773C46.2467 3.51587 46.5163 3.69893 46.7021 3.91689C46.8897 4.13698 46.9762 4.43782 46.9613 4.81941C46.9383 5.4135 46.6963 5.86886 46.2352 6.18548C45.7747 6.49998 45.1782 6.64296 44.4459 6.61473Z" fill="black"/>
<path d="M51.6384 7.73618C51.1336 7.61081 50.6843 7.41167 50.2903 7.13936C49.8968 6.86493 49.5842 6.51826 49.3525 6.09902L49.8273 5.61392C50.0933 6.02465 50.3844 6.34704 50.7004 6.58079C51.0146 6.81424 51.3692 6.97999 51.7638 7.07804C52.2465 7.19795 52.6624 7.19826 53.0112 7.07865C53.36 6.95904 53.5795 6.71801 53.6696 6.35524C53.7303 6.11086 53.7039 5.90534 53.5901 5.73868C53.4769 5.5702 53.2941 5.41083 53.0418 5.26117C52.7899 5.1112 52.4854 4.9409 52.1287 4.74995C51.7313 4.52561 51.4047 4.31251 51.1485 4.11063C50.8923 3.90876 50.7162 3.68836 50.6206 3.44976C50.5261 3.21358 50.5192 2.93308 50.5999 2.60856C50.7001 2.20602 50.8831 1.89729 51.1491 1.68267C51.4171 1.46865 51.7438 1.33599 52.1287 1.28499C52.5158 1.23429 52.9265 1.26313 53.3612 1.3712C53.8339 1.48868 54.234 1.66809 54.5612 1.90883C54.8863 2.14926 55.1298 2.43218 55.2916 2.75701L54.7658 3.20386C54.6083 2.89665 54.3924 2.64408 54.1183 2.44615C53.8442 2.24822 53.5218 2.10311 53.1511 2.01113C52.8986 1.94829 52.649 1.92158 52.4022 1.93038C52.1569 1.94161 51.942 2.00627 51.7571 2.12436C51.5726 2.24215 51.4469 2.43552 51.3804 2.70388C51.3258 2.92427 51.3382 3.10915 51.4177 3.25881C51.4976 3.40847 51.6381 3.55297 51.8397 3.69231C52.0398 3.82922 52.2899 3.98617 52.5907 4.16284C53.0261 4.40509 53.401 4.63429 53.7152 4.85074C54.0315 5.06749 54.2583 5.30154 54.3958 5.5529C54.5348 5.80668 54.5582 6.11876 54.4659 6.48942C54.3226 7.06651 53.9929 7.46327 53.4778 7.67972C52.9629 7.89434 52.3497 7.91317 51.6384 7.73618Z" fill="black"/>
<path d="M59.0116 10.6073C58.5951 10.4017 58.252 10.1358 57.9828 9.80918C57.7144 9.48102 57.5189 9.114 57.3969 8.70843C57.2748 8.30285 57.2305 7.88635 57.2642 7.45862C57.2979 7.03089 57.4142 6.61621 57.6124 6.21459C57.8793 5.67393 58.2429 5.24012 58.7041 4.91287C59.164 4.58744 59.6746 4.39953 60.2356 4.34975C60.7948 4.29875 61.3557 4.41228 61.9186 4.69005C62.4516 4.95325 62.8624 5.30782 63.1508 5.75407C63.4392 6.20032 63.5788 6.68027 63.5697 7.1936L62.734 7.06793C62.7173 6.69605 62.6053 6.35636 62.3976 6.04884C62.1921 5.74253 61.9134 5.50241 61.5616 5.32877C61.1821 5.14146 60.7872 5.06952 60.3764 5.11353C59.9648 5.15452 59.5808 5.30084 59.2238 5.5528C58.8695 5.80385 58.5841 6.14871 58.3677 6.58768C58.1558 7.01723 58.0574 7.45437 58.0726 7.8991C58.0905 8.34323 58.2059 8.74637 58.4181 9.10914C58.6276 9.47282 58.9223 9.74816 59.3018 9.93546C59.5498 10.0578 59.8115 10.1319 60.0868 10.1571C60.3594 10.1835 60.6178 10.1634 60.8618 10.0979C61.108 10.0329 61.3035 9.92818 61.4489 9.78307L62.0737 10.3644C61.8384 10.5845 61.5485 10.743 61.2037 10.8398C60.8606 10.9376 60.5012 10.9685 60.1254 10.9324C59.7477 10.8957 59.3765 10.7873 59.0116 10.6073Z" fill="black"/>
<path d="M65.5444 15.0143C65.192 14.7247 64.9218 14.3902 64.7339 14.011C64.5472 13.6304 64.4422 13.233 64.4194 12.8186C64.3966 12.4042 64.4504 11.9956 64.5812 11.5928C64.712 11.19 64.9169 10.8187 65.1962 10.4787C65.4858 10.1262 65.8164 9.84604 66.188 9.6384C66.558 9.43227 66.95 9.30144 67.364 9.24619C67.7781 9.19094 68.1894 9.21917 68.5977 9.33058C69.0073 9.44017 69.3885 9.63992 69.7407 9.92952C70.0931 10.2191 70.3612 10.5531 70.5448 10.9313C70.7312 11.309 70.8375 11.7063 70.8636 12.1231C70.8897 12.5399 70.8372 12.9501 70.7063 13.3529C70.5743 13.7573 70.3633 14.1358 70.0737 14.4886C69.7944 14.8283 69.4699 15.1012 69.0999 15.3073C68.7298 15.5134 68.3394 15.6455 67.9284 15.7031C67.5173 15.7608 67.1063 15.7344 66.6953 15.6236C66.287 15.5125 65.9032 15.3094 65.5444 15.0143ZM65.8392 11.0233C65.5402 11.387 65.3474 11.784 65.2603 12.2151C65.1762 12.6459 65.199 13.0584 65.3283 13.4534C65.4549 13.8486 65.6816 14.1807 66.0086 14.4497C66.3355 14.7184 66.7074 14.8756 67.1239 14.9218C67.5377 14.9679 67.9517 14.9063 68.3664 14.7366C68.7823 14.5654 69.1372 14.3013 69.431 13.944C69.7313 13.5788 69.9231 13.178 70.0066 12.7415C70.0913 12.3035 70.0713 11.886 69.9459 11.489C69.8202 11.0892 69.5941 10.7546 69.2671 10.486C68.9402 10.2173 68.5683 10.0652 68.1512 10.0297C67.7338 9.99115 67.3197 10.0543 66.909 10.2191C66.5013 10.3837 66.1446 10.6517 65.8392 11.0233Z" fill="black"/>
<path d="M72.0876 16.7652C72.5706 16.4046 73.0873 16.1736 73.6374 16.0722C74.1859 15.9717 74.7123 16.0075 75.2171 16.1796C75.7217 16.3517 76.1418 16.6626 76.4779 17.1125C76.7954 17.5375 76.9669 18.002 76.9924 18.5059C77.0182 19.0095 76.9417 19.4749 76.7632 19.902L79.8748 17.5791L80.3715 18.2439L74.029 22.979C73.9379 23.047 73.8866 23.1162 73.875 23.1867C73.8617 23.2586 73.8808 23.3357 73.9321 23.4183L73.4036 23.8129C73.2861 23.697 73.2042 23.601 73.1577 23.5251C73.0618 23.3828 73.0272 23.2207 73.0536 23.0388C73.08 22.8567 73.1553 22.7195 73.2791 22.6269L73.7779 22.2544C73.2946 22.3008 72.8265 22.224 72.3733 22.024C71.9201 21.8239 71.5542 21.538 71.2765 21.1658C71.0133 20.8133 70.8418 20.4354 70.7619 20.031C70.6848 19.6276 70.6888 19.2238 70.7738 18.8204C70.8588 18.4166 71.0145 18.0366 71.2404 17.6802C71.4662 17.3235 71.7485 17.0187 72.0876 16.7652ZM74.4831 21.6044L76.0586 20.4281C76.2305 20.1682 76.3422 19.8726 76.3932 19.5408C76.443 19.2071 76.4369 18.8781 76.375 18.5536C76.3112 18.2302 76.1916 17.951 76.0164 17.716C75.8127 17.4431 75.5711 17.2385 75.2912 17.1019C75.0098 16.9668 74.7117 16.8918 74.3969 16.8769C74.0818 16.8621 73.7688 16.9052 73.4576 17.0062C73.1465 17.107 72.8602 17.2552 72.5988 17.4501C72.3259 17.6538 72.1007 17.8954 71.9228 18.1753C71.7449 18.4549 71.6262 18.7548 71.5667 19.0748C71.5042 19.3947 71.506 19.7077 71.5719 20.0137C71.638 20.3197 71.7713 20.6069 71.9714 20.875C72.0973 21.0437 72.2619 21.1952 72.4653 21.3294C72.6656 21.4633 72.8851 21.5711 73.124 21.6527C73.3617 21.7329 73.6003 21.7699 73.8404 21.7635C74.0787 21.7584 74.2928 21.7052 74.4831 21.6044Z" fill="black"/>
<path d="M75.6221 28.9836C75.4466 28.5625 75.3637 28.1384 75.3737 27.7116C75.3856 27.2839 75.4779 26.8798 75.6503 26.4995C75.8227 26.1191 76.0622 25.7788 76.3688 25.4789C76.6754 25.1789 77.0394 24.9412 77.4605 24.7658C78.0093 24.5372 78.5658 24.4528 79.1298 24.5129C79.692 24.5739 80.2026 24.7691 80.6623 25.0991C81.121 25.4269 81.4676 25.8729 81.7026 26.4366C81.9439 27.0158 82.0156 27.5799 81.9178 28.1284C81.8192 28.6752 81.5945 29.1666 81.2442 29.6032C80.8927 30.0424 80.4464 30.3752 79.9052 30.6007C79.846 30.6253 79.788 30.6496 79.7309 30.6733C79.6738 30.6969 79.6292 30.7112 79.5973 30.7155L77.5024 25.6874C77.0971 25.9011 76.772 26.1753 76.527 26.5101C76.2845 26.8458 76.1333 27.2132 76.0735 27.6114C76.0164 28.0109 76.0659 28.3983 76.2222 28.7738C76.3819 29.1569 76.6299 29.4784 76.9663 29.7386C77.3054 29.9999 77.6605 30.1326 78.0312 30.1369L78.1286 30.8779C77.7996 30.8718 77.4711 30.7917 77.143 30.6378C76.8148 30.4838 76.5194 30.2659 76.2568 29.9839C75.9933 29.7 75.7817 29.3667 75.6221 28.9836ZM78.0446 25.4348L79.8526 29.7738C80.2688 29.5646 80.5964 29.2938 80.8359 28.9617C81.0766 28.6266 81.223 28.2614 81.2752 27.8661C81.3247 27.4697 81.2697 27.0802 81.11 26.6971C80.9503 26.314 80.7133 26.0025 80.3985 25.7624C80.0827 25.525 79.7191 25.3744 79.308 25.311C78.8997 25.2484 78.4784 25.2897 78.0446 25.4348Z" fill="black"/>
<path d="M4.08734 60.4103L2.11169 54.7174L10.5343 51.7949L10.8227 52.6258L3.13443 55.2936L4.82168 60.1556L4.08734 60.4103Z" fill="black"/>
<path d="M3.26001 64.5186L3.91269 64.1197C3.96703 64.2244 4.02046 64.3237 4.07267 64.4175C4.1261 64.5131 4.17285 64.5774 4.21292 64.6114C4.27971 64.6892 4.38049 64.7414 4.51528 64.7678C4.64885 64.7927 4.87015 64.7845 5.17888 64.7435C5.4858 64.7034 5.93417 64.6354 6.5234 64.5389L10.6225 58.6973L11.094 59.4689L7.50971 64.4663L13.4955 63.4011L13.9412 64.1306L4.97246 65.6351C4.80549 65.667 4.63306 65.6694 4.45456 65.643C4.27515 65.6147 4.10637 65.5483 3.94851 65.4441C3.79217 65.3388 3.64494 65.1809 3.50681 64.97C3.46097 64.9108 3.41878 64.8458 3.38053 64.7751C3.34197 64.7043 3.3019 64.6187 3.26001 64.5186Z" fill="black"/>
<path d="M15.188 70.884L12.7367 68.158L13.3259 67.6279L15.7776 70.354L15.188 70.884Z" fill="black"/>
<path d="M18.9365 77.5464L16.4526 75.8194L21.5423 68.5L24.0261 70.227C24.8024 70.7668 25.336 71.3806 25.6272 72.0685C25.9213 72.7558 26.006 73.4673 25.8819 74.2029C25.7586 74.9369 25.4632 75.6403 24.9951 76.3133C24.4791 77.0556 23.8868 77.6032 23.2192 77.9559C22.5511 78.306 21.8486 78.4499 21.1122 78.3879C20.3769 78.3242 19.6517 78.0437 18.9365 77.5464ZM24.2732 75.8112C24.6785 75.2281 24.9308 74.634 25.0297 74.0289C25.1275 73.4254 25.0607 72.8511 24.8288 72.3053C24.5959 71.7613 24.1807 71.2813 23.5823 70.8651L21.8204 69.6402L17.6184 75.6834L19.3803 76.9083C19.9853 77.3291 20.5876 77.5479 21.1868 77.5649C21.7867 77.5847 22.351 77.4402 22.8799 77.1317C23.4117 76.8227 23.8762 76.3825 24.2732 75.8112Z" fill="black"/>
<path d="M31.6913 76.7693L31.4008 77.4937C30.8677 77.2979 30.345 77.2593 29.8322 77.3786C29.3195 77.4979 28.8839 77.769 28.5253 78.1925L27.0114 81.9692L26.2179 81.6514L28.6525 75.5781L29.3999 75.8774L28.8156 77.3349C29.1956 76.9913 29.6121 76.7569 30.0651 76.6312C30.5159 76.5049 30.9421 76.5046 31.3434 76.63C31.4232 76.6531 31.4928 76.6764 31.5523 76.7004C31.6096 76.7235 31.6561 76.7466 31.6913 76.7693Z" fill="black"/>
<path d="M35.367 84.3487C34.9062 84.2631 34.4955 84.0946 34.1351 83.843C33.772 83.5928 33.4751 83.2868 33.2441 82.925C33.0131 82.5631 32.855 82.1651 32.7693 81.7313C32.6834 81.2996 32.6834 80.8534 32.7687 80.3929C32.8801 79.7921 33.1206 79.2657 33.4903 78.8134C33.8595 78.3632 34.3142 78.0329 34.8552 77.8225C35.3961 77.6122 35.9751 77.5642 36.5919 77.6786C37.2273 77.7964 37.7531 78.0514 38.1696 78.4436C38.5861 78.8359 38.8842 79.3058 39.0639 79.8537C39.2433 80.4035 39.2779 80.9748 39.168 81.5674C39.1559 81.6324 39.1443 81.6952 39.1328 81.7562C39.1213 81.8191 39.1082 81.8661 39.0943 81.8968L33.5866 80.8753C33.5416 81.3437 33.5957 81.7778 33.7481 82.1776C33.8989 82.5753 34.1306 82.911 34.4429 83.1851C34.7529 83.4611 35.1138 83.6372 35.5258 83.7137C35.9438 83.7914 36.3606 83.7574 36.7762 83.6116C37.1893 83.4678 37.5017 83.237 37.7139 82.9195L38.4085 83.2501C38.22 83.53 37.9668 83.7686 37.6489 83.9656C37.3311 84.1629 36.9768 84.2956 36.5861 84.3639C36.1936 84.4316 35.7871 84.4267 35.367 84.3487ZM33.6746 80.2648L38.427 81.1464C38.4816 80.6716 38.4319 80.2371 38.2783 79.8434C38.1271 79.4479 37.8955 79.1173 37.5837 78.8516C37.2698 78.5854 36.9028 78.4136 36.4826 78.3356C36.0646 78.2579 35.6633 78.2876 35.279 78.4239C34.8968 78.5608 34.5634 78.7888 34.2796 79.1079C33.9943 79.4245 33.7924 79.81 33.6746 80.2648Z" fill="black"/>
<path d="M44.6268 84.9669C44.0904 84.9866 43.5889 84.9162 43.1223 84.7556C42.6557 84.5971 42.2489 84.3446 41.9016 83.9979L42.2292 83.3816C42.6111 83.7104 42.9905 83.9466 43.3676 84.0899C43.7467 84.2307 44.1447 84.2936 44.5612 84.2784C45.0727 84.2596 45.4838 84.1412 45.7937 83.9232C46.104 83.7074 46.2518 83.4065 46.2378 83.0207C46.2284 82.7629 46.1437 82.5678 45.9837 82.4348C45.8241 82.3021 45.5979 82.1971 45.3062 82.1191C45.0141 82.0432 44.665 81.9618 44.2591 81.8756C43.8026 81.7663 43.4192 81.6482 43.1089 81.521C42.7984 81.3941 42.5622 81.2272 42.3995 81.0205C42.2371 80.8137 42.1493 80.5381 42.1366 80.1935C42.1208 79.7664 42.2152 79.4097 42.4195 79.1234C42.6217 78.835 42.9067 78.6107 43.2747 78.4504C43.6408 78.2904 44.0536 78.2018 44.5138 78.1848C45.015 78.1663 45.4616 78.2294 45.8532 78.3742C46.2427 78.519 46.5645 78.7291 46.8183 79.005L46.4248 79.5958C46.182 79.3384 45.8972 79.1504 45.5706 79.0324C45.2418 78.9143 44.8815 78.8624 44.4896 78.8769C44.2215 78.8866 43.968 78.9313 43.7291 79.0102C43.4884 79.0913 43.2935 79.2163 43.145 79.3848C42.9963 79.5536 42.9271 79.7801 42.9374 80.0648C42.9459 80.2979 43.0115 80.4774 43.1338 80.603C43.254 80.7287 43.4334 80.8316 43.672 80.9118C43.9103 80.9898 44.2027 81.073 44.5487 81.1616C45.0466 81.2776 45.4819 81.3978 45.8544 81.5226C46.2287 81.6473 46.5198 81.8143 46.7281 82.0235C46.936 82.2326 47.0474 82.5344 47.0617 82.9284C47.0842 83.5392 46.8717 84.024 46.4242 84.3834C45.9768 84.745 45.3778 84.9393 44.6268 84.9669Z" fill="black"/>
<path d="M53.136 83.6788C52.6148 83.8066 52.1093 83.839 51.62 83.7762C51.1312 83.7155 50.6813 83.5503 50.2712 83.2811L50.4673 82.6114C50.9078 82.8564 51.327 83.0106 51.7256 83.0747C52.1254 83.136 52.5276 83.1171 52.9326 83.0179C53.4298 82.8961 53.8084 82.697 54.068 82.4208C54.3281 82.1466 54.4122 81.8221 54.3202 81.4469C54.2589 81.1962 54.1366 81.0222 53.9532 80.9248C53.7698 80.8273 53.5273 80.7699 53.2255 80.7526C52.9241 80.7372 52.5659 80.7283 52.1509 80.7259C51.6819 80.7113 51.2824 80.6731 50.9527 80.6115C50.623 80.5499 50.3577 80.4342 50.1567 80.2645C49.9558 80.0948 49.8143 79.8425 49.732 79.5077C49.6303 79.0927 49.6507 78.7242 49.7928 78.4024C49.9324 78.0791 50.1661 77.8019 50.4943 77.5706C50.8203 77.3399 51.2068 77.1696 51.654 77.06C52.1412 76.9407 52.5911 76.9122 53.0042 76.9744C53.415 77.0372 53.7726 77.1781 54.0768 77.397L53.8108 78.0551C53.5209 77.852 53.204 77.7257 52.8603 77.6759C52.5146 77.6268 52.1512 77.6489 51.7702 77.7424C51.5095 77.8062 51.2702 77.9012 51.0526 78.0269C50.8331 78.155 50.6676 78.3168 50.5562 78.512C50.4448 78.7072 50.4227 78.9433 50.4907 79.2199C50.5462 79.4464 50.6467 79.6088 50.7918 79.7071C50.9351 79.8058 51.1315 79.8705 51.381 79.9005C51.6303 79.9287 51.9332 79.9512 52.2902 79.9679C52.8015 79.9806 53.2519 80.0107 53.6417 80.0575C54.0336 80.1039 54.3524 80.2083 54.5986 80.3713C54.8448 80.5341 55.0148 80.807 55.1086 81.1901C55.254 81.7836 55.1441 82.3015 54.7783 82.7441C54.4131 83.1885 53.8658 83.5003 53.136 83.6788Z" fill="black"/>
<path d="M61.8475 80.3481C61.4173 80.5585 60.9841 80.669 60.5482 80.6799C60.1114 80.6936 59.6897 80.6228 59.2829 80.4674C58.8761 80.3123 58.5094 80.0861 58.1825 79.7886C57.8564 79.493 57.5923 79.1384 57.3905 78.7249C57.1185 78.1685 56.9943 77.5996 57.018 77.0179C57.0426 76.4384 57.2104 75.9047 57.5213 75.4175C57.8322 74.93 58.2772 74.545 58.8558 74.2621C59.4047 73.9938 59.9523 73.8823 60.4987 73.9279C61.043 73.9743 61.5209 74.1625 61.9325 74.4922L61.3023 75.093C60.9905 74.8732 60.6444 74.7506 60.2644 74.7251C59.8852 74.7014 59.5145 74.7779 59.153 74.9546C58.7617 75.1458 58.4545 75.4224 58.2314 75.7839C58.0073 76.1439 57.8856 76.548 57.8659 76.9967C57.847 77.4423 57.9481 77.8916 58.1694 78.3442C58.3862 78.7874 58.6797 79.1414 59.0501 79.4061C59.4235 79.6718 59.8242 79.8333 60.2519 79.8906C60.6809 79.9453 61.0898 79.8776 61.4796 79.6869C61.7355 79.5619 61.9604 79.3967 62.1544 79.1918C62.3475 78.9848 62.4944 78.7613 62.5952 78.5212C62.6963 78.2811 62.7327 78.0552 62.7051 77.8436L63.5694 77.7007C63.6015 78.0297 63.5496 78.3652 63.4133 78.7073C63.2773 79.0494 63.0764 79.3624 62.8107 79.6466C62.5433 79.9313 62.2221 80.1651 61.8475 80.3481Z" fill="black"/>
<path d="M69.6697 75.1481C69.3063 75.4441 68.9138 75.6472 68.4918 75.7568C68.0695 75.8694 67.6473 75.8952 67.225 75.8348C66.8027 75.7741 66.4014 75.6366 66.0213 75.4216C65.6425 75.2085 65.3104 74.9265 65.0244 74.5762C64.7284 74.2128 64.5135 73.8236 64.3796 73.4077C64.2457 72.9922 64.1935 72.5699 64.2227 72.1415C64.2515 71.7132 64.3638 71.3034 64.559 70.9127C64.7527 70.5229 65.0314 70.1802 65.3945 69.8839C65.7578 69.5879 66.1488 69.3848 66.5681 69.2749C66.9873 69.165 67.4096 69.1389 67.8349 69.1972C68.2586 69.2564 68.6609 69.3936 69.041 69.6082C69.4228 69.8217 69.7616 70.11 70.0576 70.4734C70.3433 70.8237 70.5515 71.2069 70.6824 71.6221C70.8162 72.0377 70.8709 72.4579 70.8469 72.8823C70.8211 73.3082 70.7106 73.7165 70.5151 74.1075C70.3211 74.5 70.0391 74.847 69.6697 75.1481ZM65.7044 74.038C66.011 74.4141 66.3726 74.6891 66.7891 74.8637C67.2059 75.0352 67.6266 75.0971 68.051 75.0495C68.4742 75 68.8546 74.8379 69.1921 74.5625C69.5297 74.2872 69.765 73.9451 69.8976 73.5362C70.0273 73.1266 70.0485 72.6968 69.9608 72.2463C69.8733 71.7927 69.6791 71.3811 69.3779 71.0117C69.0713 70.6355 68.7061 70.3608 68.282 70.1868C67.8598 70.0117 67.4357 69.9473 67.0098 69.9935C66.5811 70.0393 66.198 70.1999 65.8604 70.4749C65.5229 70.7503 65.2934 71.0942 65.1719 71.5077C65.0493 71.9193 65.029 72.3486 65.1112 72.7954C65.195 73.2411 65.3926 73.6555 65.7044 74.038Z" fill="black"/>
<path d="M71.961 68.3248C71.4662 67.9523 71.0897 67.5085 70.8314 66.9937C70.5749 66.48 70.4586 65.9494 70.4832 65.402C70.5066 64.8562 70.6921 64.3526 71.0396 63.8906C71.3675 63.4552 71.7767 63.152 72.267 62.9814C72.756 62.8123 73.2372 62.7531 73.7105 62.8044L70.5218 60.4037L71.0357 59.7207L77.5343 64.614C77.6284 64.6847 77.7125 64.7172 77.7868 64.7111C77.8594 64.7038 77.9295 64.6622 77.9969 64.5863L78.5388 64.9943C78.458 65.1428 78.3864 65.2518 78.3238 65.321C78.2118 65.4561 78.0616 65.5371 77.8736 65.5632C77.687 65.5881 77.53 65.5526 77.4034 65.4573L76.8913 65.0718C77.0762 65.5365 77.1357 66.0219 77.0698 66.528C77.0039 67.034 76.8278 67.4776 76.541 67.8585C76.269 68.2198 75.9438 68.497 75.5659 68.6903C75.1907 68.8834 74.7915 68.9963 74.3686 69.0294C73.9457 69.0625 73.5253 69.0185 73.1073 68.8974C72.6908 68.7778 72.3089 68.5868 71.961 68.3248ZM76.048 64.5648L74.4327 63.3484C74.1261 63.2546 73.8022 63.23 73.4606 63.2752C73.1161 63.3208 72.7937 63.4215 72.4925 63.5776C72.1917 63.7336 71.9507 63.9318 71.7694 64.1726C71.5585 64.4531 71.4258 64.7509 71.3711 65.0669C71.3168 65.3826 71.329 65.698 71.4073 66.0125C71.4826 66.3276 71.6149 66.6239 71.8043 66.9008C71.9941 67.1807 72.2227 67.4211 72.4898 67.6224C72.7703 67.8333 73.0739 67.986 73.4011 68.0798C73.7284 68.1736 74.0587 68.2052 74.392 68.1746C74.7247 68.1409 75.0331 68.0474 75.3167 67.8941C75.599 67.7423 75.8437 67.5286 76.051 67.2532C76.1812 67.0802 76.2845 66.8747 76.36 66.637C76.4326 66.3996 76.4751 66.1513 76.4872 65.8914C76.4982 65.6334 76.4663 65.3872 76.3919 65.1531C76.3175 64.9188 76.2031 64.7226 76.048 64.5648Z" fill="black"/>
<path d="M81.743 58.6179C81.5611 59.0499 81.3086 59.4151 80.9859 59.7135C80.6641 60.0146 80.3016 60.2396 79.8988 60.3877C79.4959 60.5362 79.0734 60.6057 78.6314 60.5966C78.1915 60.5881 77.7556 60.4931 77.3236 60.3112C76.7604 60.0741 76.2975 59.7265 75.9344 59.2691C75.5735 58.8125 75.3479 58.2973 75.2581 57.7242C75.1679 57.1507 75.2447 56.5752 75.4885 55.9966C75.7392 55.401 76.1008 54.9417 76.5728 54.619C77.0449 54.296 77.5676 54.105 78.1414 54.0464C78.7167 53.9887 79.2822 54.0768 79.8378 54.3105C79.8988 54.336 79.9577 54.3609 80.0144 54.3852C80.0733 54.4101 80.1164 54.4326 80.1437 54.4532L77.9693 59.6154C78.417 59.7593 78.8527 59.7994 79.2761 59.736C79.6966 59.6734 80.0742 59.5189 80.4088 59.2721C80.7445 59.0283 80.9937 58.7132 81.1565 58.3271C81.3216 57.9352 81.3775 57.5208 81.324 57.0836C81.2718 56.6495 81.1131 56.2947 80.848 56.0199L81.3192 55.4119C81.5523 55.6557 81.7314 55.9541 81.8562 56.3068C81.981 56.6596 82.035 57.0339 82.0183 57.43C82.0007 57.828 81.909 58.2239 81.743 58.6179ZM77.3919 59.399L79.2682 54.9444C78.8159 54.7896 78.3809 54.7452 77.9635 54.8114C77.5449 54.8749 77.1724 55.0303 76.8461 55.2783C76.5191 55.5282 76.2726 55.8499 76.1069 56.2437C75.9417 56.6356 75.885 57.0339 75.9363 57.4385C75.9885 57.8414 76.1399 58.2154 76.3907 58.5608C76.639 58.9072 76.9726 59.1868 77.3919 59.399Z" fill="black"/>
<path d="M0.153564 42.4436C0.153564 40.5626 1.6784 39.0381 3.55903 39.0381C5.43996 39.0381 6.96449 40.5629 6.96449 42.4436C6.96449 44.3245 5.43965 45.849 3.55903 45.8493C1.6781 45.8493 0.153564 44.3245 0.153564 42.4436Z" fill="black"/>
<path d="M78.1887 42.4436C78.1887 40.5626 79.7136 39.0381 81.5945 39.0381C83.4754 39.0381 85 40.5629 85 42.4436C85 44.3245 83.4751 45.849 81.5945 45.8493C79.7136 45.8493 78.189 44.3245 78.1887 42.4436Z" fill="black"/>
</g>
<defs>
<clipPath id="clip0_239_19">
<rect width="85" height="85" fill="white"/>
</clipPath>
</defs>
</svg>
