<?xml version="1.0" encoding="utf-8"?>
<!-- Generator: Adobe Illustrator 22.0.1, SVG Export Plug-In . SVG Version: 6.00 Build 0)  -->
<svg version="1.1" id="Layer_1" xmlns="http://www.w3.org/2000/svg" xmlns:xlink="http://www.w3.org/1999/xlink" x="0px" y="0px"
	 width="80px" height="80px" viewBox="0 0 80 80" enable-background="new 0 0 80 80" xml:space="preserve">
<g>
	<path fill="#F3BE67" d="M48.693,2.144c2.393,0,4.455,1.535,5.13,3.82c0.914,3.092,3.801,5.251,7.022,5.251
		c0.576,0,1.155-0.069,1.719-0.205c0.422-0.102,0.851-0.153,1.274-0.153c1.623,0,3.142,0.745,4.166,2.045
		c1.011,1.283,1.37,2.936,0.986,4.533c-0.914,3.795,1.303,7.635,5.047,8.741c1.793,0.53,3.152,1.924,3.635,3.729
		c0.484,1.806,0.004,3.692-1.284,5.047c-2.689,2.83-2.689,7.263,0,10.093c1.288,1.355,1.767,3.242,1.284,5.047
		c-0.484,1.806-1.843,3.2-3.635,3.729c-3.743,1.106-5.96,4.946-5.046,8.741c0.385,1.597,0.025,3.25-0.986,4.533
		c-1.024,1.3-2.542,2.045-4.166,2.045c-0.423,0-0.851-0.052-1.274-0.153c-0.564-0.136-1.143-0.205-1.719-0.205
		c-3.221,0-6.108,2.159-7.022,5.251c-0.675,2.285-2.737,3.82-5.13,3.82c-1.355,0-2.65-0.522-3.647-1.469
		c-1.368-1.3-3.16-2.015-5.047-2.015c-1.887,0-3.679,0.716-5.047,2.015c-0.997,0.947-2.292,1.469-3.647,1.469
		c-2.393,0-4.455-1.535-5.13-3.82c-0.914-3.092-3.801-5.251-7.022-5.251c-0.576,0-1.155,0.069-1.719,0.205
		c-0.422,0.102-0.851,0.153-1.274,0.153c-1.623,0-3.142-0.745-4.166-2.045c-1.011-1.283-1.37-2.936-0.986-4.533
		c0.914-3.795-1.303-7.635-5.047-8.741c-1.793-0.53-3.152-1.924-3.635-3.729c-0.484-1.805-0.004-3.692,1.284-5.047
		c2.689-2.83,2.689-7.263,0-10.093c-1.288-1.355-1.767-3.242-1.284-5.047c0.484-1.806,1.843-3.2,3.635-3.729
		c3.744-1.106,5.96-4.946,5.046-8.741c-0.385-1.597-0.025-3.25,0.986-4.533c1.024-1.3,2.542-2.045,4.166-2.045
		c0.423,0,0.851,0.052,1.274,0.153c0.564,0.136,1.143,0.205,1.719,0.205c3.221,0,6.108-2.159,7.022-5.251
		c0.675-2.285,2.737-3.82,5.131-3.82c1.355,0,2.65,0.522,3.646,1.469c1.368,1.3,3.16,2.015,5.047,2.015s3.679-0.716,5.047-2.015
		C46.043,2.665,47.338,2.144,48.693,2.144 M48.693,1.144c-1.53,0-3.082,0.553-4.335,1.744l0,0c-1.221,1.16-2.789,1.74-4.358,1.74
		c-1.568,0-3.137-0.58-4.358-1.74l0,0c-1.254-1.191-2.805-1.744-4.335-1.744c-2.653,0-5.24,1.662-6.089,4.537v0
		c-0.81,2.74-3.321,4.535-6.063,4.535c-0.49,0-0.988-0.057-1.485-0.177h0c-0.511-0.123-1.015-0.181-1.508-0.181
		c-3.943,0-7.107,3.727-6.124,7.812v0c0.788,3.275-1.127,6.593-4.358,7.548l0,0c-4.534,1.34-6.05,6.998-2.793,10.425h0
		c2.32,2.442,2.32,6.274,0,8.715l0,0c-3.256,3.427-1.74,9.085,2.793,10.425h0c3.23,0.955,5.146,4.273,4.358,7.548v0
		c-0.984,4.086,2.18,7.812,6.124,7.812c0.493,0,0.998-0.058,1.508-0.181h0c0.497-0.12,0.994-0.177,1.485-0.177
		c2.742,0,5.253,1.795,6.063,4.535v0c0.85,2.876,3.436,4.537,6.089,4.537c1.53,0,3.082-0.553,4.335-1.744h0
		c1.221-1.16,2.789-1.74,4.358-1.74c1.568,0,3.137,0.58,4.358,1.74h0c1.254,1.191,2.805,1.744,4.335,1.744
		c2.653,0,5.24-1.662,6.089-4.537v0c0.81-2.74,3.321-4.535,6.063-4.535c0.49,0,0.988,0.057,1.485,0.177h0
		c0.511,0.123,1.015,0.181,1.508,0.181c3.943,0,7.107-3.727,6.124-7.812l0,0c-0.788-3.275,1.127-6.593,4.358-7.548h0
		c4.534-1.34,6.05-6.998,2.793-10.425v0c-2.32-2.442-2.32-6.274,0-8.715c3.256-3.427,1.74-9.085-2.793-10.425l0,0
		c-3.23-0.955-5.146-4.273-4.358-7.548l0,0c0.984-4.086-2.18-7.812-6.124-7.812c-0.493,0-0.998,0.058-1.508,0.181h0
		c-0.497,0.12-0.994,0.177-1.485,0.177c-2.742,0-5.253-1.795-6.063-4.535v0C53.933,2.805,51.346,1.144,48.693,1.144L48.693,1.144z"
		/>
</g>
<g>
	<path fill="#F3BE67" d="M40,1c1.869,0,3.568,0.952,4.543,2.546c1.342,2.194,3.68,3.503,6.254,3.503
		c1.215,0,2.423-0.308,3.495-0.891c0.8-0.435,1.653-0.655,2.538-0.655c2.555,0,5.248,1.945,5.331,5.199
		c0.1,3.902,3.235,7.037,7.137,7.137c1.869,0.048,3.542,1.043,4.477,2.661c0.935,1.619,0.959,3.566,0.066,5.208
		c-1.865,3.429-0.717,7.712,2.612,9.749C78.048,36.432,79,38.131,79,40s-0.952,3.568-2.546,4.543
		c-3.33,2.037-4.477,6.32-2.612,9.749c0.893,1.642,0.868,3.589-0.066,5.208c-0.935,1.619-2.608,2.614-4.477,2.661
		c-3.902,0.1-7.037,3.235-7.137,7.137c-0.083,3.254-2.776,5.199-5.332,5.199c-0.884,0-1.738-0.22-2.538-0.655
		c-1.072-0.583-2.28-0.891-3.495-0.891c-2.574,0-4.912,1.31-6.254,3.503C43.568,78.048,41.869,79,40,79s-3.568-0.952-4.543-2.546
		c-1.342-2.193-3.68-3.503-6.254-3.503c-1.214,0-2.423,0.308-3.495,0.891c-0.8,0.435-1.653,0.655-2.538,0.655
		c-2.555,0-5.248-1.945-5.332-5.199c-0.1-3.902-3.235-7.037-7.137-7.137C8.833,62.114,7.16,61.119,6.225,59.5
		c-0.935-1.619-0.959-3.566-0.066-5.208c1.865-3.429,0.717-7.712-2.612-9.749C1.952,43.568,1,41.869,1,40s0.952-3.568,2.546-4.543
		c3.33-2.037,4.477-6.32,2.612-9.749C5.266,24.066,5.29,22.119,6.225,20.5c0.935-1.619,2.608-2.614,4.477-2.661
		c3.902-0.1,7.037-3.235,7.137-7.137c0.083-3.254,2.776-5.199,5.332-5.199c0.884,0,1.738,0.22,2.538,0.655
		c1.072,0.583,2.28,0.891,3.495,0.891c2.574,0,4.912-1.31,6.254-3.503C36.432,1.952,38.131,1,40,1 M40,0
		c-2.081,0-4.162,1.008-5.396,3.024l0,0c-1.189,1.943-3.266,3.025-5.401,3.025c-1.023,0-2.059-0.248-3.017-0.769l0,0
		c-0.98-0.533-2.01-0.777-3.015-0.777c-3.255,0-6.239,2.562-6.331,6.173v0c-0.086,3.367-2.795,6.077-6.163,6.163l0,0
		C5.95,16.96,3.022,22.032,5.28,26.185l0,0c1.609,2.959,0.617,6.66-2.256,8.418l0,0c-4.032,2.467-4.032,8.325,0,10.792h0
		c2.873,1.758,3.865,5.459,2.256,8.418l0,0c-2.258,4.153,0.67,9.226,5.396,9.346h0c3.367,0.086,6.077,2.795,6.163,6.163v0
		c0.092,3.611,3.076,6.173,6.331,6.173c1.005,0,2.036-0.244,3.015-0.777l0,0c0.959-0.521,1.994-0.77,3.017-0.769
		c2.135,0,4.212,1.083,5.401,3.025l0,0C35.838,78.992,37.919,80,40,80c2.081,0,4.162-1.008,5.396-3.024l0,0
		c1.189-1.943,3.266-3.025,5.401-3.025c1.023,0,2.059,0.248,3.017,0.769l0,0c0.98,0.533,2.01,0.777,3.015,0.777
		c3.255,0,6.239-2.562,6.331-6.173v0c0.086-3.367,2.795-6.077,6.163-6.163h0c4.726-0.121,7.655-5.193,5.396-9.346v0
		c-1.609-2.959-0.617-6.66,2.256-8.418c4.032-2.467,4.032-8.325,0-10.792v0c-2.873-1.758-3.865-5.459-2.256-8.418v0
		c2.258-4.153-0.67-9.226-5.396-9.346l0,0c-3.367-0.086-6.077-2.795-6.163-6.163v0c-0.092-3.611-3.076-6.173-6.331-6.173
		c-1.005,0-2.036,0.244-3.015,0.777l0,0c-0.959,0.521-1.994,0.769-3.017,0.769c-2.135,0-4.212-1.083-5.401-3.025l0,0
		C44.162,1.008,42.081,0,40,0L40,0z"/>
</g>
<g>
	<g>
		<g>
			<path d="M37.539,29.128c-4.895,0.009-6.377,6.774-7.317,10.424c-0.691,2.683-1.229,5.411-2.095,8.047
				c-0.503,1.53-1.101,3.027-1.787,4.484c-0.478,1.014-0.997,2.009-1.553,2.982c-0.366,0.642-1.386,1.705-1.452,2.371
				c-0.137,1.38,1.251,1.75,2.461,1.611c1.475-0.169,2.605-1.323,4.027-1.672c2.262-0.555,3.725,0.82,5.629,1.563
				c1.098,0.429,1.966,0.423,3.03-0.108c0.633-0.316,1.142-0.838,1.77-1.157c1.465-0.742,2.682-0.478,4.125-0.08
				c1.626,0.449,3.016,1.081,4.731,0.967c2.256-0.15,4.249-1.416,6.483-0.139c0.141,0.08,0.367,0.106,0.505,0
				c0.131-0.1,0.262-0.201,0.392-0.301c0.205-0.158,0.343-0.435,0.179-0.684c-2.54-3.867-4.615-8.007-5.859-12.476
				c-0.8-2.873-1.345-5.806-2.25-8.652c-0.674-2.119-1.496-5.077-3.417-6.439c-1.014-0.719-2.154-0.845-3.288-0.492
				c-0.712,0.221-1.346,1.017-2.215,0.829c-0.628-0.136-1.259-0.864-1.964-1.06c-0.621-0.173-0.886,0.792-0.266,0.964
				c1.071,0.298,1.84,1.415,3.025,1.252c1.872-0.257,2.659-2.223,4.632-0.217c2.027,2.062,2.723,5.874,3.425,8.574
				c1.706,6.564,3.533,12.463,7.315,18.222c0.06-0.228,0.12-0.456,0.179-0.684c-0.296,0.227-1.744-0.411-2.291-0.438
				c-1.219-0.061-2.397,0.357-3.579,0.571c-3.138,0.569-5.819-1.744-8.866-1.149c-1.182,0.231-1.923,1.037-2.974,1.543
				c-2.177,1.048-3.426-0.646-5.211-1.239c-2.942-0.977-4.778,1.062-7.49,1.169c-2.021,0.079-1.022-0.287-0.376-1.365
				c0.451-0.752,0.879-1.52,1.283-2.298c0.563-1.085,1.078-2.194,1.546-3.323c0.934-2.25,1.613-4.565,2.191-6.928
				c0.912-3.727,2.029-13.662,7.324-13.672C38.182,30.126,38.183,29.126,37.539,29.128z"/>
		</g>
	</g>
	<g>
		<g>
			<path d="M35.486,41.728c-0.505,4.987-1.865,9.715-4.079,14.213c-0.283,0.575,0.579,1.083,0.863,0.505
				c2.289-4.65,3.693-9.561,4.215-14.717C36.551,41.089,35.551,41.093,35.486,41.728L35.486,41.728z"/>
		</g>
	</g>
	<g>
		<g>
			<path d="M41.593,42.512C42.49,47.74,44,52.772,46.102,57.641c0.254,0.589,1.116,0.081,0.863-0.505
				c-2.067-4.786-3.527-9.752-4.409-14.889C42.448,41.614,41.484,41.882,41.593,42.512L41.593,42.512z"/>
		</g>
	</g>
	<g>
		<g>
			<path d="M44.1,29.544c-0.496-1.162-1.042-2.41-1.024-3.705c0.015-1.138,0.524-1.832,0.915-2.826
				c0.503-1.28,0.591-2.399,0.211-3.731c-0.065-0.227-0.258-0.347-0.482-0.367c-0.607-0.054-1.079-0.049-1.633,0.194
				c-0.532,0.234-0.948,0.931-1.491,1.075c-1.499,0.397-2.877-2.406-4.492-1.266c-0.75,0.53-0.636,2.141-0.488,2.916
				c0.16,0.839,0.617,1.511,0.918,2.296c0.738,1.925,0.134,3.615-0.634,5.415c-0.25,0.585,0.611,1.095,0.863,0.505
				c0.912-2.137,1.549-4.125,0.681-6.376c-0.414-1.072-1.355-2.317-0.845-3.557c0.488-1.185,1.351,0.127,2.144,0.603
				c0.52,0.312,0.976,0.544,1.612,0.493c0.8-0.064,1.043-0.497,1.728-0.905c2.291-1.364,1.09,2.003,0.601,3.104
				c-1.037,2.332-0.411,4.383,0.552,6.638C43.488,30.639,44.35,30.13,44.1,29.544L44.1,29.544z"/>
		</g>
	</g>
</g>
</svg>
