<?xml version="1.0" encoding="utf-8"?>
<!-- Generator: Adobe Illustrator 22.0.1, SVG Export Plug-In . SVG Version: 6.00 Build 0)  -->
<svg version="1.1" id="Layer_1" xmlns="http://www.w3.org/2000/svg" xmlns:xlink="http://www.w3.org/1999/xlink" x="0px" y="0px"
	 width="80px" height="80px" viewBox="0 0 80 80" enable-background="new 0 0 80 80" xml:space="preserve">
<g>
	<path fill="#F3BE67" d="M48.693,2.144c2.393,0,4.455,1.535,5.13,3.82c0.914,3.092,3.801,5.251,7.022,5.251
		c0.576,0,1.155-0.069,1.719-0.205c0.422-0.102,0.851-0.153,1.274-0.153c1.623,0,3.142,0.745,4.166,2.045
		c1.011,1.283,1.37,2.936,0.986,4.533c-0.914,3.795,1.303,7.635,5.046,8.741c1.793,0.53,3.152,1.924,3.635,3.729
		c0.484,1.806,0.004,3.692-1.284,5.047c-2.689,2.83-2.689,7.263,0,10.093c1.288,1.355,1.767,3.242,1.284,5.047
		c-0.484,1.805-1.843,3.2-3.635,3.729c-3.744,1.106-5.96,4.946-5.046,8.741c0.385,1.597,0.025,3.25-0.986,4.533
		c-1.024,1.3-2.542,2.045-4.166,2.045c-0.423,0-0.851-0.052-1.274-0.153c-0.564-0.136-1.143-0.205-1.719-0.205
		c-3.221,0-6.108,2.159-7.022,5.251c-0.675,2.285-2.737,3.82-5.13,3.82c-1.355,0-2.65-0.522-3.647-1.469
		c-1.368-1.3-3.16-2.015-5.047-2.015s-3.679,0.716-5.047,2.015c-0.997,0.947-2.292,1.469-3.647,1.469
		c-2.393,0-4.455-1.535-5.13-3.82c-0.914-3.092-3.801-5.251-7.022-5.251c-0.576,0-1.155,0.069-1.719,0.205
		c-0.422,0.102-0.851,0.153-1.274,0.153c-1.623,0-3.142-0.745-4.166-2.045c-1.011-1.283-1.37-2.936-0.986-4.533
		c0.914-3.795-1.303-7.635-5.047-8.741c-1.793-0.53-3.152-1.924-3.635-3.729c-0.484-1.806-0.004-3.692,1.284-5.047
		c2.689-2.83,2.689-7.263,0-10.093c-1.288-1.355-1.767-3.242-1.284-5.047c0.484-1.805,1.843-3.2,3.635-3.729
		c3.744-1.106,5.96-4.946,5.047-8.741c-0.385-1.597-0.025-3.25,0.986-4.533c1.024-1.3,2.542-2.045,4.166-2.045
		c0.423,0,0.851,0.052,1.274,0.153c0.564,0.136,1.143,0.205,1.719,0.205c3.221,0,6.108-2.159,7.022-5.251
		c0.675-2.285,2.737-3.82,5.131-3.82c1.355,0,2.65,0.522,3.646,1.469c1.368,1.3,3.16,2.015,5.047,2.015
		c1.887,0,3.679-0.716,5.047-2.015C46.043,2.665,47.338,2.144,48.693,2.144 M48.693,1.144c-1.53,0-3.082,0.553-4.335,1.744v0
		c-1.221,1.16-2.789,1.74-4.358,1.74s-3.137-0.58-4.358-1.74v0c-1.254-1.191-2.805-1.744-4.335-1.744
		c-2.653,0-5.24,1.662-6.089,4.537l0,0c-0.81,2.74-3.321,4.535-6.063,4.535c-0.49,0-0.988-0.057-1.485-0.177h0
		c-0.511-0.123-1.015-0.181-1.508-0.181c-3.943,0-7.107,3.727-6.124,7.812v0c0.788,3.275-1.127,6.593-4.358,7.548h0
		c-4.534,1.34-6.05,6.998-2.793,10.425v0c2.32,2.442,2.32,6.274,0,8.715v0c-3.256,3.427-1.74,9.085,2.793,10.425l0,0
		c3.23,0.955,5.146,4.273,4.358,7.548v0c-0.984,4.086,2.18,7.812,6.124,7.812c0.493,0,0.998-0.058,1.508-0.181h0
		c0.497-0.12,0.994-0.177,1.485-0.177c2.742,0,5.253,1.795,6.063,4.535l0,0c0.85,2.876,3.436,4.537,6.089,4.537
		c1.53,0,3.082-0.553,4.335-1.744v0c1.221-1.16,2.789-1.74,4.358-1.74s3.137,0.58,4.358,1.74v0c1.254,1.191,2.805,1.744,4.335,1.744
		c2.653,0,5.24-1.662,6.089-4.537l0,0c0.81-2.74,3.321-4.535,6.063-4.535c0.49,0,0.988,0.057,1.485,0.177h0
		c0.511,0.123,1.015,0.181,1.508,0.181c3.943,0,7.107-3.727,6.124-7.812v0c-0.788-3.275,1.127-6.593,4.358-7.548v0
		c4.534-1.34,6.05-6.998,2.793-10.425v0c-2.32-2.442-2.32-6.274,0-8.715v0c3.256-3.427,1.74-9.085-2.793-10.425
		c-3.23-0.955-5.146-4.273-4.358-7.548v0c0.984-4.086-2.18-7.812-6.124-7.812c-0.493,0-0.998,0.058-1.508,0.181h0
		c-0.497,0.12-0.994,0.177-1.485,0.177c-2.742,0-5.253-1.795-6.063-4.535l0,0C53.933,2.805,51.346,1.144,48.693,1.144L48.693,1.144z
		"/>
</g>
<g>
	<path fill="#F3BE67" d="M40,1c1.869,0,3.568,0.952,4.543,2.546c1.342,2.194,3.68,3.503,6.254,3.503
		c1.215,0,2.423-0.308,3.495-0.891c0.8-0.435,1.653-0.655,2.538-0.655c2.555,0,5.248,1.945,5.331,5.199
		c0.1,3.902,3.235,7.037,7.137,7.137c1.869,0.048,3.542,1.043,4.477,2.661c0.935,1.619,0.959,3.566,0.067,5.208
		c-1.865,3.429-0.717,7.712,2.612,9.749C78.048,36.432,79,38.131,79,40s-0.952,3.568-2.546,4.543
		c-3.33,2.037-4.477,6.32-2.612,9.749c0.893,1.642,0.868,3.589-0.066,5.208c-0.935,1.619-2.608,2.614-4.477,2.661
		c-3.902,0.1-7.037,3.235-7.137,7.137c-0.083,3.254-2.776,5.199-5.332,5.199c-0.884,0-1.738-0.22-2.538-0.655
		c-1.072-0.583-2.28-0.891-3.495-0.891c-2.574,0-4.912,1.31-6.254,3.503C43.568,78.048,41.869,79,40,79s-3.568-0.952-4.543-2.546
		c-1.342-2.193-3.68-3.503-6.254-3.503c-1.214,0-2.423,0.308-3.495,0.891c-0.8,0.435-1.653,0.655-2.538,0.655
		c-2.555,0-5.248-1.945-5.332-5.199c-0.1-3.902-3.235-7.037-7.137-7.137C8.833,62.114,7.16,61.119,6.225,59.5
		c-0.935-1.619-0.959-3.566-0.067-5.208c1.865-3.429,0.717-7.712-2.612-9.749C1.952,43.568,1,41.869,1,40
		c0-1.869,0.952-3.568,2.546-4.543c3.33-2.037,4.477-6.32,2.612-9.749C5.266,24.066,5.29,22.119,6.225,20.5
		c0.935-1.619,2.608-2.614,4.477-2.661c3.902-0.1,7.037-3.235,7.137-7.137c0.083-3.254,2.776-5.199,5.332-5.199
		c0.884,0,1.738,0.22,2.538,0.655c1.072,0.583,2.28,0.891,3.495,0.891c2.574,0,4.912-1.31,6.254-3.503C36.432,1.952,38.131,1,40,1
		 M40,0c-2.081,0-4.162,1.008-5.396,3.024v0c-1.189,1.943-3.266,3.025-5.401,3.025c-1.023,0-2.059-0.248-3.017-0.769l0,0
		c-0.98-0.533-2.01-0.777-3.015-0.777c-3.255,0-6.239,2.562-6.331,6.173v0c-0.086,3.367-2.795,6.077-6.163,6.163h0
		C5.95,16.96,3.022,22.032,5.28,26.185v0c1.609,2.959,0.617,6.66-2.256,8.418v0c-4.032,2.467-4.032,8.325,0,10.792v0
		c2.873,1.758,3.865,5.459,2.256,8.418v0c-2.258,4.153,0.67,9.226,5.396,9.346h0c3.367,0.086,6.077,2.795,6.163,6.163v0
		c0.092,3.611,3.076,6.173,6.331,6.173c1.005,0,2.036-0.244,3.015-0.777h0c0.959-0.521,1.994-0.77,3.017-0.769
		c2.135,0,4.212,1.083,5.401,3.025v0C35.838,78.992,37.919,80,40,80s4.162-1.008,5.396-3.024v0c1.189-1.943,3.266-3.025,5.401-3.025
		c1.023,0,2.059,0.248,3.017,0.769h0c0.98,0.533,2.01,0.777,3.015,0.777c3.255,0,6.239-2.562,6.331-6.173l0,0
		c0.086-3.367,2.795-6.077,6.163-6.163h0c4.726-0.121,7.655-5.193,5.396-9.346v0c-1.609-2.959-0.617-6.66,2.256-8.418v0
		c4.032-2.467,4.032-8.325,0-10.792v0c-2.873-1.758-3.865-5.459-2.256-8.418v0c2.258-4.153-0.67-9.226-5.396-9.346h0
		c-3.367-0.086-6.077-2.795-6.163-6.163l0,0c-0.092-3.611-3.076-6.173-6.331-6.173c-1.005,0-2.036,0.244-3.015,0.777l0,0
		c-0.959,0.521-1.994,0.769-3.017,0.769c-2.135,0-4.212-1.083-5.401-3.025v0C44.162,1.008,42.081,0,40,0L40,0z"/>
</g>
<g>
	<path fill="none" stroke="#000000" stroke-linecap="round" stroke-linejoin="round" stroke-miterlimit="10" d="M21.745,34.442
		c0.984-2.234,3.328-5,5.627-4.724c2.29,0.274,3.77,3.478,4.298,3.154c0.283-0.173-0.286-1.003-0.058-1.979
		c0.424-1.815,3.421-3.376,6.072-2.823c2.601,0.544,3.843,2.911,4.034,3.291c0.476-0.682,2.65-3.642,6.258-3.965
		c1.46-0.131,4.724,0.029,5.522,2.032c0.421,1.057-0.018,2.19-0.311,2.781c2.311,0.219,4.562,1.599,5.503,3.722
		c0.941,2.122,0.319,4.92-1.619,6.197c-1.939,1.277-4.991,0.549-5.897-1.588c-0.589,2.854-2.783,5.106-5.59,5.741
		c-2.954,0.669-6.054-0.574-7.767-3.124c-0.203,0.682-0.803,2.342-2.415,3.395c-2.657,1.736-6.7,0.934-7.585-0.907
		c-0.761-1.585,1.06-3.439,0.312-4.202c-0.944-0.963-3.932,1.903-5.816,0.879C20.524,41.349,20.495,37.282,21.745,34.442z"/>
	<g>
		<g>
			<path d="M23.647,48.78c-0.919,0.828-1.23,2.324-0.515,3.382c0.72,1.065,2.244,1.238,3.3,0.592
				c1.13-0.691,1.422-2.143,0.787-3.277c-0.714-1.277-2.28-1.65-3.471-0.776c-0.514,0.377-0.015,1.245,0.505,0.863
				c1.728-1.267,3.285,1.573,1.513,2.413c-0.632,0.3-1.496,0.186-1.862-0.466c-0.38-0.678-0.091-1.537,0.451-2.025
				C24.833,49.055,24.124,48.35,23.647,48.78z"/>
		</g>
	</g>
</g>
</svg>
