<?xml version="1.0" encoding="utf-8"?>
<!-- Generator: Adobe Illustrator 22.0.1, SVG Export Plug-In . SVG Version: 6.00 Build 0)  -->
<svg version="1.1" id="Layer_1" xmlns="http://www.w3.org/2000/svg" xmlns:xlink="http://www.w3.org/1999/xlink" x="0px" y="0px"
	 width="80px" height="80px" viewBox="0 0 80 80" enable-background="new 0 0 80 80" xml:space="preserve">
<g display="none">
	<circle display="inline" fill="#F3BE67" cx="36.556" cy="38.155" r="25.619"/>
</g>
<g>
	<path fill="#F3BE67" d="M48.693,2.144c2.393,0,4.455,1.535,5.13,3.82c0.914,3.092,3.801,5.251,7.022,5.251
		c0.576,0,1.155-0.069,1.719-0.205c0.422-0.102,0.851-0.153,1.274-0.153c1.623,0,3.142,0.745,4.166,2.045
		c1.011,1.283,1.37,2.936,0.986,4.533c-0.914,3.795,1.303,7.635,5.046,8.741c1.793,0.53,3.152,1.924,3.635,3.729
		c0.484,1.806,0.004,3.692-1.284,5.047c-2.689,2.83-2.689,7.263,0,10.093c1.288,1.355,1.767,3.242,1.284,5.047
		c-0.484,1.805-1.843,3.2-3.635,3.729c-3.744,1.106-5.96,4.946-5.047,8.741c0.385,1.597,0.025,3.25-0.986,4.533
		c-1.024,1.3-2.542,2.045-4.166,2.045c-0.423,0-0.851-0.052-1.274-0.153c-0.564-0.136-1.143-0.205-1.719-0.205
		c-3.221,0-6.108,2.159-7.022,5.251c-0.675,2.285-2.737,3.82-5.13,3.82c-1.355,0-2.65-0.522-3.647-1.469
		c-1.368-1.3-3.16-2.015-5.047-2.015s-3.679,0.716-5.047,2.015c-0.997,0.947-2.292,1.469-3.647,1.469
		c-2.393,0-4.455-1.535-5.13-3.82c-0.914-3.092-3.801-5.251-7.022-5.251c-0.576,0-1.155,0.069-1.719,0.205
		c-0.422,0.102-0.851,0.153-1.274,0.153c-1.623,0-3.142-0.745-4.166-2.045c-1.011-1.283-1.37-2.936-0.986-4.533
		c0.914-3.795-1.303-7.635-5.047-8.741c-1.793-0.53-3.152-1.924-3.635-3.729c-0.484-1.805-0.004-3.692,1.284-5.047
		c2.689-2.83,2.689-7.263,0-10.093c-1.288-1.355-1.767-3.242-1.284-5.047c0.484-1.805,1.843-3.2,3.635-3.729
		c3.744-1.106,5.96-4.946,5.047-8.741c-0.385-1.597-0.025-3.25,0.986-4.533c1.024-1.3,2.542-2.045,4.166-2.045
		c0.423,0,0.851,0.052,1.274,0.153c0.564,0.136,1.143,0.205,1.719,0.205c3.221,0,6.108-2.159,7.022-5.251
		c0.675-2.285,2.737-3.82,5.131-3.82c1.355,0,2.65,0.522,3.646,1.469c1.368,1.3,3.16,2.015,5.047,2.015s3.679-0.716,5.047-2.015
		C46.043,2.665,47.338,2.144,48.693,2.144 M48.693,1.144c-1.53,0-3.082,0.553-4.335,1.744v0c-1.221,1.16-2.789,1.74-4.358,1.74
		c-1.568,0-3.137-0.58-4.358-1.74v0c-1.254-1.191-2.805-1.744-4.335-1.744c-2.653,0-5.24,1.662-6.089,4.537l0,0
		c-0.81,2.74-3.321,4.535-6.063,4.535c-0.49,0-0.988-0.057-1.485-0.177h0c-0.511-0.123-1.015-0.181-1.508-0.181
		c-3.943,0-7.107,3.727-6.124,7.812v0c0.788,3.275-1.127,6.593-4.358,7.548h0c-4.534,1.34-6.05,6.998-2.793,10.425v0
		c2.32,2.442,2.32,6.274,0,8.715v0c-3.256,3.427-1.74,9.085,2.793,10.425h0c3.23,0.955,5.146,4.273,4.358,7.548v0
		c-0.984,4.086,2.18,7.812,6.124,7.812c0.493,0,0.998-0.058,1.508-0.181h0c0.497-0.12,0.994-0.177,1.485-0.177
		c2.742,0,5.253,1.795,6.063,4.535l0,0c0.85,2.876,3.436,4.537,6.089,4.537c1.53,0,3.082-0.553,4.335-1.744v0
		c1.221-1.16,2.789-1.74,4.358-1.74c1.568,0,3.137,0.58,4.358,1.74v0c1.254,1.191,2.805,1.744,4.335,1.744
		c2.653,0,5.24-1.662,6.089-4.537l0,0c0.81-2.74,3.321-4.535,6.063-4.535c0.49,0,0.988,0.057,1.485,0.177h0
		c0.511,0.123,1.015,0.181,1.508,0.181c3.943,0,7.107-3.727,6.124-7.812v0c-0.788-3.275,1.127-6.593,4.358-7.548h0
		c4.534-1.34,6.05-6.998,2.793-10.425l0,0c-2.32-2.442-2.32-6.274,0-8.715l0,0c3.256-3.427,1.74-9.085-2.793-10.425h0
		c-3.23-0.955-5.146-4.273-4.358-7.548v0c0.984-4.086-2.18-7.812-6.124-7.812c-0.493,0-0.998,0.058-1.508,0.181h0
		c-0.497,0.12-0.994,0.177-1.485,0.177c-2.742,0-5.253-1.795-6.063-4.535l0,0C53.933,2.805,51.346,1.144,48.693,1.144L48.693,1.144z
		"/>
</g>
<g>
	<path fill="#F3BE67" d="M40,1c1.869,0,3.568,0.952,4.543,2.546c1.342,2.194,3.68,3.503,6.254,3.503
		c1.215,0,2.423-0.308,3.495-0.891c0.8-0.435,1.653-0.655,2.538-0.655c2.555,0,5.248,1.945,5.331,5.199
		c0.1,3.902,3.235,7.037,7.137,7.137c1.869,0.048,3.542,1.043,4.477,2.661s0.959,3.566,0.066,5.208
		c-1.865,3.429-0.717,7.712,2.612,9.749C78.048,36.432,79,38.131,79,40c0,1.869-0.952,3.568-2.546,4.543
		c-3.33,2.037-4.477,6.32-2.612,9.749c0.893,1.642,0.868,3.589-0.067,5.208s-2.608,2.614-4.477,2.661
		c-3.902,0.1-7.037,3.235-7.137,7.137c-0.083,3.254-2.776,5.199-5.332,5.199c-0.884,0-1.738-0.22-2.538-0.655
		c-1.072-0.583-2.28-0.891-3.495-0.891c-2.574,0-4.912,1.31-6.254,3.503C43.568,78.048,41.869,79,40,79s-3.568-0.952-4.543-2.546
		c-1.342-2.193-3.68-3.503-6.254-3.503c-1.214,0-2.423,0.308-3.495,0.891c-0.8,0.435-1.653,0.655-2.538,0.655
		c-2.555,0-5.248-1.945-5.332-5.199c-0.1-3.902-3.235-7.037-7.137-7.137C8.833,62.114,7.16,61.119,6.225,59.5
		c-0.935-1.619-0.959-3.566-0.067-5.208c1.865-3.429,0.717-7.712-2.612-9.749C1.952,43.568,1,41.869,1,40s0.952-3.568,2.546-4.543
		c3.33-2.037,4.477-6.32,2.612-9.749C5.266,24.066,5.29,22.119,6.225,20.5c0.935-1.619,2.608-2.614,4.477-2.661
		c3.902-0.1,7.037-3.235,7.137-7.137c0.083-3.254,2.776-5.199,5.332-5.199c0.884,0,1.738,0.22,2.538,0.655
		c1.072,0.583,2.28,0.891,3.495,0.891c2.574,0,4.912-1.31,6.254-3.503C36.432,1.952,38.131,1,40,1 M40,0
		c-2.081,0-4.162,1.008-5.396,3.024v0c-1.189,1.943-3.266,3.025-5.401,3.025c-1.023,0-2.059-0.248-3.017-0.769l0,0
		c-0.98-0.533-2.01-0.777-3.015-0.777c-3.255,0-6.239,2.562-6.331,6.173v0c-0.086,3.367-2.795,6.077-6.163,6.163h0
		C5.95,16.96,3.022,22.032,5.28,26.185v0c1.609,2.959,0.617,6.66-2.256,8.418v0c-4.032,2.467-4.032,8.325,0,10.792
		c2.873,1.758,3.865,5.459,2.256,8.418v0c-2.258,4.153,0.67,9.226,5.396,9.346h0c3.367,0.086,6.077,2.795,6.163,6.163v0
		c0.092,3.611,3.076,6.173,6.331,6.173c1.005,0,2.036-0.244,3.015-0.777l0,0c0.959-0.521,1.994-0.77,3.017-0.769
		c2.135,0,4.212,1.083,5.401,3.025v0C35.838,78.992,37.919,80,40,80s4.162-1.008,5.396-3.024v0c1.189-1.943,3.266-3.025,5.401-3.025
		c1.023,0,2.059,0.248,3.017,0.769l0,0c0.98,0.533,2.01,0.777,3.015,0.777c3.255,0,6.239-2.562,6.331-6.173l0,0
		c0.086-3.367,2.795-6.077,6.163-6.163c4.726-0.121,7.655-5.193,5.396-9.346l0,0c-1.609-2.959-0.617-6.66,2.256-8.418h0
		c4.032-2.467,4.032-8.325,0-10.792l0,0c-2.873-1.758-3.865-5.459-2.256-8.418l0,0c2.258-4.153-0.67-9.226-5.396-9.346
		c-3.367-0.086-6.077-2.795-6.163-6.163l0,0c-0.092-3.611-3.076-6.173-6.331-6.173c-1.005,0-2.036,0.244-3.015,0.777l0,0
		c-0.959,0.521-1.994,0.769-3.017,0.769c-2.135,0-4.212-1.083-5.401-3.025v0C44.162,1.008,42.081,0,40,0L40,0z"/>
</g>
<g>
	<g>
		<path fill="#FFFFFF" d="M28.248,27.57c4.402-0.175,8.803-0.35,13.204-0.525c0.948,8.864,1.897,17.729,2.845,26.593
			c-5.876-0.247-11.751-0.495-17.627-0.742C27.196,44.454,27.722,36.012,28.248,27.57z"/>
	</g>
	<g>
		<path fill="#FFFFFF" d="M42.266,29.541c-2.286-0.188-4.732-0.295-7.321-0.282c-2.589,0.013-5.035,0.144-7.319,0.354
			c-0.065-0.149-1.18-4.671-1.672-6.784c2.431-0.556,5.393-1,8.769-1.017c3.237-0.016,8.719,0.99,8.851,1.055
			C43.138,25.092,42.702,27.316,42.266,29.541z"/>
		<path d="M27.626,29.963c-0.138,0-0.265-0.082-0.32-0.209c-0.093-0.21-1.297-5.143-1.692-6.845
			c-0.021-0.09-0.005-0.186,0.044-0.265c0.05-0.079,0.128-0.135,0.219-0.156c2.91-0.666,5.886-1.011,8.845-1.025
			c0.026,0,0.054,0,0.08,0c3.216,0,8.68,0.968,8.928,1.091c0.143,0.07,0.22,0.226,0.189,0.381l-1.309,6.673
			c-0.035,0.175-0.195,0.3-0.372,0.281c-2.419-0.198-4.884-0.303-7.291-0.281c-2.422,0.012-4.874,0.131-7.288,0.353
			C27.648,29.963,27.637,29.963,27.626,29.963z M26.375,23.094c0.459,1.951,1.261,5.204,1.509,6.145
			c2.341-0.207,4.714-0.318,7.059-0.33c2.317-0.007,4.703,0.076,7.04,0.258l1.184-6.038c-1.132-0.218-5.647-0.994-8.441-0.966
			C31.933,22.177,29.126,22.49,26.375,23.094z"/>
	</g>
	<g>
		<path fill="#FFFFFF" d="M44.528,51.688c-2.811,0.188-5.819,0.295-9.003,0.282c-3.184-0.013-6.191-0.144-9-0.354
			c-0.08,0.149-1.451,4.671-2.056,6.784c2.989,0.556,6.631,1,10.783,1.017c3.981,0.016,10.722-0.99,10.884-1.055
			C45.6,56.137,45.064,53.913,44.528,51.688z"/>
		<path d="M35.344,59.767c-0.031,0-0.063,0-0.093,0c-3.626-0.015-7.275-0.359-10.846-1.022c-0.098-0.018-0.183-0.076-0.234-0.16
			s-0.065-0.186-0.039-0.28c0.458-1.599,1.963-6.629,2.086-6.855c0.065-0.121,0.196-0.193,0.334-0.182
			c2.972,0.223,5.991,0.342,8.975,0.354c2.987,0.015,6.006-0.083,8.979-0.281c0.17-0.011,0.323,0.102,0.363,0.267l1.608,6.673
			c0.041,0.169-0.048,0.342-0.21,0.407C46.054,58.771,39.307,59.767,35.344,59.767z M24.912,58.125
			c3.408,0.611,6.886,0.927,10.341,0.941c3.425-0.015,9.024-0.753,10.457-0.982l-1.453-6.027c-2.895,0.186-5.822,0.27-8.732,0.263
			c-2.912-0.012-5.857-0.125-8.76-0.336C26.486,52.842,25.498,56.104,24.912,58.125z"/>
	</g>
	<g>
		<path fill="#FFFFFF" d="M27.703,36.371c-0.03-0.116-0.092-0.409-0.005-0.754c0.061-0.24,0.168-0.403,0.235-0.49
			c0.039,0.01,4.492,0.779,7.197,0.796c2.755,0.018,5.186-0.291,7.201-0.697c0.037,0.031,0.278,0.24,0.314,0.63
			c0.033,0.351-0.123,0.6-0.155,0.649l0.001-1.379c0.032-0.049,0.187-0.298,0.154-0.649c-0.037-0.39-0.276-0.598-0.313-0.63
			c-2.008,0.406-4.43,0.714-7.175,0.697c-2.696-0.017-7.132-0.786-7.171-0.796c-0.066,0.087-0.173,0.25-0.234,0.49
			c-0.087,0.345-0.025,0.638,0.005,0.754l0.332-4.136c-0.028-0.116-0.087-0.409-0.005-0.754c0.057-0.24,0.159-0.403,0.222-0.49
			c0.037,0.01,4.242,0.779,6.797,0.796c2.602,0.018,4.898-0.291,6.801-0.697c0.035,0.031,0.262,0.24,0.297,0.63
			c0.031,0.351-0.116,0.6-0.146,0.649l0.14,1.379c0.031-0.049,0.181-0.298,0.149-0.649c-0.036-0.39-0.267-0.598-0.303-0.63
			c-1.941,0.406-4.283,0.714-6.938,0.697c-2.606-0.017-6.896-0.786-6.934-0.796c-0.064,0.087-0.167,0.25-0.226,0.49
			c-0.084,0.345-0.024,0.638,0.005,0.754l-0.044,1.379c-0.029-0.116-0.09-0.409-0.005-0.754c0.059-0.24,0.164-0.403,0.229-0.49
			c0.039,0.01,4.387,0.779,7.03,0.796c2.691,0.018,5.065-0.291,7.034-0.697c0.037,0.031,0.271,0.24,0.307,0.63
			c0.032,0.351-0.12,0.6-0.151,0.649l0.292,4.136c0.033-0.049,0.192-0.298,0.158-0.649c-0.038-0.39-0.283-0.598-0.321-0.63
			c-2.056,0.406-4.535,0.714-7.346,0.697c-2.76-0.017-7.302-0.786-7.342-0.796c-0.068,0.087-0.177,0.25-0.239,0.49
			c-0.089,0.345-0.026,0.638,0.005,0.754l-0.046,1.379c-0.031-0.116-0.095-0.409-0.005-0.754c0.063-0.24,0.174-0.403,0.243-0.49
			c0.041,0.01,4.645,0.779,7.444,0.796c2.85,0.018,5.364-0.291,7.448-0.697c0.039,0.031,0.287,0.24,0.325,0.63
			c0.034,0.351-0.127,0.6-0.16,0.649l0.153,1.379c0.034-0.049,0.198-0.298,0.163-0.649c-0.039-0.39-0.292-0.598-0.332-0.63
			c-2.126,0.406-4.69,0.714-7.598,0.697c-2.854-0.017-7.552-0.786-7.593-0.796c-0.07,0.087-0.183,0.25-0.248,0.49
			c-0.092,0.345-0.027,0.638,0.005,0.754l0.016,1.324c-0.032-0.116-0.099-0.409-0.005-0.754c0.065-0.24,0.18-0.403,0.252-0.49
			c0.042,0.01,4.821,0.779,7.725,0.796c2.958,0.018,5.567-0.291,7.729-0.697c0.04,0.031,0.298,0.24,0.337,0.63
			c0.036,0.351-0.132,0.6-0.166,0.649l0.159,1.379c0.035-0.049,0.206-0.298,0.169-0.649c-0.04-0.39-0.303-0.598-0.344-0.63
			c-2.207,0.406-4.868,0.714-7.885,0.697c-2.962-0.017-7.837-0.786-7.881-0.796c-0.073,0.087-0.19,0.25-0.257,0.49
			c-0.096,0.345-0.028,0.638,0.005,0.754l-0.05,1.379c-0.034-0.116-0.102-0.409-0.005-0.754c0.067-0.24,0.186-0.403,0.26-0.49
			c0.044,0.01,4.986,0.779,7.99,0.796c3.059,0.018,5.757-0.291,7.994-0.697c0.042,0.031,0.308,0.24,0.349,0.63
			c0.037,0.351-0.136,0.6-0.172,0.649l0.331,4.136c0.037-0.049,0.218-0.298,0.179-0.649c-0.043-0.39-0.321-0.598-0.365-0.63
			c-2.336,0.406-5.154,0.714-8.349,0.697c-3.137-0.017-8.299-0.786-8.344-0.796c-0.077,0.087-0.202,0.25-0.272,0.49
			c-0.101,0.345-0.029,0.638,0.006,0.754l-0.053,1.379c-0.035-0.116-0.108-0.409-0.006-0.754c0.071-0.24,0.197-0.403,0.276-0.49
			c0.046,0.01,5.28,0.779,8.46,0.796c3.239,0.018,6.096-0.291,8.465-0.697c0.044,0.031,0.326,0.24,0.37,0.63
			c0.039,0.351-0.144,0.6-0.182,0.649l0.174,1.379c0.039-0.049,0.225-0.298,0.186-0.649c-0.044-0.39-0.332-0.598-0.377-0.63
			c-2.416,0.406-5.331,0.714-8.635,0.697c-3.244-0.017-8.583-0.786-8.63-0.796c-0.08,0.087-0.208,0.25-0.281,0.49
			c-0.105,0.345-0.03,0.638,0.006,0.754l0.4-4.136c-0.034-0.116-0.105-0.409-0.006-0.754c0.069-0.24,0.191-0.403,0.267-0.49
			c0.045,0.01,5.105,0.779,8.18,0.796c3.132,0.018,5.894-0.291,8.184-0.697c0.043,0.031,0.316,0.24,0.357,0.63
			c0.038,0.351-0.139,0.6-0.176,0.649l0.001-1.379c0.036-0.049,0.213-0.298,0.175-0.649c-0.042-0.39-0.314-0.598-0.356-0.63
			c-2.282,0.406-5.035,0.714-8.155,0.697c-3.064-0.017-8.106-0.786-8.151-0.796c-0.075,0.087-0.197,0.25-0.266,0.49
			c-0.099,0.345-0.029,0.638,0.005,0.754L27.703,36.371z"/>
		<path d="M44.264,51.966c-0.031,0-0.063-0.004-0.093-0.013c-0.137-0.038-0.236-0.153-0.255-0.293L43.8,50.736
			c-2.759,0.444-5.558,0.667-8.365,0.647c-2.921-0.016-7.395-0.618-8.469-0.771l-0.087,0.901c-0.017,0.166-0.146,0.297-0.313,0.314
			c-0.17,0.015-0.321-0.085-0.37-0.244c-0.098-0.312-0.1-0.653-0.006-0.96c0.025-0.083,0.057-0.163,0.095-0.239l0.037-0.392
			c-0.034-0.205-0.04-0.463,0.043-0.745c0.009-0.028,0.018-0.056,0.027-0.083l0.016-0.401c-0.051-0.193-0.099-0.522,0.01-0.894
			c0.035-0.117,0.083-0.23,0.143-0.337l0.016-0.16c-0.055-0.219-0.089-0.531,0.013-0.881c0.031-0.109,0.073-0.213,0.126-0.313
			c-0.027-0.034-0.048-0.073-0.061-0.116c-0.064-0.218-0.117-0.561-0.005-0.95c0.019-0.065,0.041-0.129,0.067-0.191l0.042-0.569
			c-0.015-0.161-0.01-0.354,0.042-0.564l0.044-0.587c-0.048-0.214-0.072-0.511,0.02-0.841c0.016-0.058,0.035-0.113,0.055-0.165
			l0.049-0.65c-0.009-0.142-0.002-0.302,0.035-0.472l0.005-0.068l-0.006-0.452c-0.046-0.188-0.094-0.519,0.007-0.892
			c0.03-0.114,0.071-0.222,0.123-0.325l0.016-0.207c-0.047-0.213-0.072-0.511,0.016-0.845c0.008-0.028,0.016-0.056,0.024-0.083
			l0.014-0.416c-0.067-0.292-0.065-0.595,0.008-0.878c0.031-0.121,0.074-0.235,0.129-0.343L27.35,36.4
			c-0.048-0.214-0.079-0.523,0.01-0.87c0.028-0.114,0.068-0.223,0.118-0.327c-0.027-0.036-0.048-0.077-0.061-0.123
			c-0.045-0.174-0.106-0.525-0.006-0.928c0.021-0.083,0.048-0.163,0.08-0.241l0.033-0.408c-0.029-0.199-0.035-0.451,0.033-0.728
			c0.008-0.03,0.016-0.059,0.024-0.087l0.013-0.418c-0.041-0.186-0.082-0.508,0.007-0.872c0.028-0.118,0.068-0.231,0.119-0.337
			l0.014-0.18c-0.045-0.211-0.073-0.517,0.008-0.86c0.055-0.227,0.148-0.433,0.279-0.613c0.085-0.118,0.233-0.17,0.374-0.133
			c0.021,0.003,4.198,0.767,6.708,0.784c2.249,0.021,4.512-0.216,6.726-0.689c0.108-0.023,0.22,0.006,0.302,0.078
			c0.087,0.075,0.373,0.358,0.417,0.863c0.027,0.295-0.043,0.539-0.111,0.7c0.107,0.147,0.227,0.373,0.254,0.679
			c0.026,0.286-0.037,0.522-0.108,0.689c0.111,0.146,0.235,0.375,0.265,0.688c0.027,0.295-0.044,0.538-0.115,0.7
			c0.111,0.147,0.233,0.373,0.263,0.677c0.031,0.344-0.071,0.619-0.153,0.775v0.095c0.072,0.134,0.134,0.303,0.153,0.508
			c0.026,0.277-0.035,0.508-0.104,0.67l0.004,0.052c0.108,0.147,0.222,0.366,0.25,0.656c0.028,0.29-0.041,0.528-0.113,0.69
			c0.117,0.147,0.248,0.377,0.278,0.688c0.028,0.295-0.044,0.537-0.118,0.7c0.118,0.15,0.243,0.374,0.274,0.678
			c0.021,0.219-0.014,0.409-0.064,0.559c0.139,0.143,0.316,0.395,0.354,0.765c0.03,0.294-0.043,0.536-0.12,0.699
			c0.12,0.148,0.25,0.373,0.282,0.678c0.03,0.287-0.041,0.524-0.117,0.689c0.124,0.147,0.262,0.376,0.294,0.69
			c0.03,0.291-0.044,0.533-0.123,0.698c0.124,0.147,0.258,0.372,0.29,0.678c0.037,0.352-0.078,0.629-0.173,0.791v0.074
			c0.081,0.135,0.15,0.305,0.173,0.514c0.03,0.28-0.038,0.515-0.115,0.68l0.003,0.035c0.123,0.148,0.252,0.369,0.284,0.664
			c0.031,0.287-0.041,0.524-0.121,0.69c0.131,0.148,0.273,0.376,0.308,0.688c0.033,0.293-0.043,0.534-0.126,0.7
			c0.13,0.148,0.27,0.373,0.304,0.678c0.052,0.452-0.163,0.783-0.257,0.904C44.473,51.917,44.37,51.966,44.264,51.966z
			 M27.065,49.921c0.954,0.133,5.495,0.747,8.374,0.762c2.796,0.023,5.613-0.207,8.373-0.658c0,0,0.001-0.001,0.001-0.002
			c0.032-0.041,0.134-0.191,0.111-0.397c-0.015-0.131-0.075-0.23-0.13-0.294c-2.756,0.461-5.563,0.684-8.358,0.673
			c-2.851-0.016-7.255-0.619-8.304-0.771c-0.014,0.022-0.027,0.046-0.039,0.071L27.065,49.921z M27.167,48.534
			c0.777,0.112,5.371,0.755,8.272,0.771c2.716,0.021,5.428-0.201,8.1-0.641l-0.056-0.689c-2.679,0.447-5.416,0.658-8.114,0.651
			c-2.756-0.016-7.004-0.599-8.137-0.763L27.167,48.534z M27.245,47.16c0.843,0.122,5.326,0.751,8.128,0.767
			c2.661,0.012,5.37-0.202,8.015-0.645l-0.016-0.693c-2.638,0.453-5.331,0.679-8.003,0.66c-2.723-0.016-6.977-0.615-8.02-0.769
			c-0.037,0.065-0.067,0.135-0.089,0.209C27.208,46.873,27.222,47.043,27.245,47.16z M27.356,45.773
			c0.679,0.101,5.199,0.758,8.018,0.774c2.664,0.015,5.325-0.207,7.943-0.66l-0.053-0.659c-2.595,0.44-5.228,0.655-7.864,0.64
			c-2.705-0.015-6.948-0.614-7.99-0.769c-0.001,0.002-0.003,0.005-0.004,0.008L27.356,45.773z M27.514,44.41
			c0.935,0.138,5.197,0.744,7.89,0.759c2.634,0.01,5.288-0.206,7.891-0.655c0.041-0.06,0.124-0.208,0.104-0.403
			c-0.014-0.128-0.066-0.226-0.116-0.29c-2.599,0.46-5.268,0.675-7.881,0.67c-2.665-0.016-6.787-0.61-7.827-0.768
			c-0.014,0.024-0.025,0.049-0.037,0.075L27.514,44.41z M27.561,43.014c0.59,0.091,5.037,0.76,7.844,0.776
			c2.556,0.018,5.107-0.199,7.621-0.636l-0.079-0.683c-2.511,0.44-5.083,0.648-7.609,0.641c-2.624-0.016-6.686-0.609-7.716-0.768
			c-0.004,0.008-0.009,0.017-0.013,0.025L27.561,43.014z M27.716,41.652c0.897,0.137,5.024,0.745,7.625,0.76
			c2.55,0.007,5.105-0.205,7.618-0.654c0.026-0.039,0.121-0.194,0.099-0.406c-0.012-0.125-0.062-0.221-0.108-0.287
			c-2.509,0.459-5.058,0.688-7.611,0.668c-2.547-0.015-6.527-0.605-7.559-0.767c-0.028,0.054-0.052,0.11-0.069,0.169L27.716,41.652z
			 M27.766,40.258c0.583,0.092,4.885,0.76,7.576,0.775c2.436,0.006,4.849-0.191,7.234-0.613l-0.071-0.649
			c-2.414,0.439-4.864,0.66-7.319,0.639c-2.469-0.015-6.28-0.584-7.375-0.758L27.766,40.258z M27.863,38.953
			c0.888,0.141,4.82,0.741,7.326,0.756c2.438,0.024,4.913-0.204,7.328-0.652c0.029-0.047,0.115-0.202,0.095-0.409
			c-0.012-0.123-0.057-0.217-0.102-0.283c-2.415,0.458-4.86,0.69-7.325,0.667c-2.458-0.016-6.253-0.599-7.271-0.765
			c0,0.001-0.001,0.001-0.001,0.002L27.863,38.953z M27.965,37.568c0.771,0.125,4.727,0.748,7.225,0.763
			c2.39,0.019,4.748-0.198,7.084-0.634l-0.048-0.687c-2.342,0.441-4.731,0.662-7.099,0.642c-2.396-0.015-6.032-0.577-7.112-0.754
			L27.965,37.568z M28.023,36.192c0.804,0.132,4.659,0.745,7.108,0.761c2.329,0.021,4.697-0.2,7.01-0.638l-0.013-0.69
			c-2.312,0.446-4.703,0.662-7,0.65c-2.353-0.016-6.014-0.594-7.021-0.763c-0.029,0.06-0.052,0.125-0.069,0.192
			C27.988,35.895,28.001,36.071,28.023,36.192z M28.122,34.806c0.668,0.112,4.575,0.752,7.01,0.768
			c2.322,0.019,4.652-0.205,6.946-0.653l-0.046-0.656c-2.269,0.433-4.573,0.648-6.878,0.631c-2.348-0.016-5.955-0.588-6.979-0.76
			L28.122,34.806z M28.258,33.442c0.86,0.144,4.541,0.738,6.9,0.753c2.307,0.02,4.627-0.203,6.902-0.649
			c0.035-0.061,0.107-0.213,0.089-0.415c-0.011-0.119-0.051-0.212-0.091-0.277c-2.276,0.455-4.611,0.678-6.903,0.663
			c-2.316-0.015-5.859-0.59-6.853-0.761c-0.007,0.015-0.014,0.03-0.02,0.046L28.258,33.442z M28.343,32.054
			c0.727,0.125,4.452,0.747,6.816,0.762c2.232,0.004,4.466-0.197,6.664-0.629l-0.069-0.681c-2.195,0.434-4.469,0.646-6.654,0.632
			c-2.235-0.015-5.646-0.569-6.703-0.752L28.343,32.054z M28.409,30.68c0.77,0.133,4.411,0.743,6.694,0.758
			c2.208,0.006,4.466-0.204,6.663-0.648c0.034-0.062,0.103-0.214,0.084-0.416c-0.011-0.118-0.047-0.21-0.084-0.275
			c-2.198,0.454-4.485,0.667-6.667,0.661c-2.231-0.016-5.637-0.585-6.615-0.759c-0.025,0.058-0.046,0.12-0.062,0.183
			C28.377,30.379,28.389,30.558,28.409,30.68z"/>
	</g>
	<g>
		<path fill="#FFFFFF" d="M62.113,25.349c-0.04-0.202-0.17-0.862-0.656-1.269c-0.717-0.6-1.723-0.246-2.198-0.07
			c-1.937,0.716-3.064,2.621-3.245,2.927c-2.634,4.447-5.683,8.562-8.235,13.071c-0.514,0.907-3.029,4.932-8.06,12.981
			c-4.219,6.75-4.445,7.028-4.336,7.157c0.947,1.12,17.157-20.714,24.609-29.611C60.39,30.058,62.537,27.501,62.113,25.349z
			 M57.54,30.808c-0.063,0.083-0.126,0.165-0.188,0.246c-1.797,2.324-3.55,3.922-3.971,3.603c-0.436-0.33,0.721-2.589,2.582-5.045
			c1.862-2.456,3.724-4.179,4.159-3.849C60.558,26.094,59.401,28.352,57.54,30.808z"/>
		<path d="M35.481,60.537c-0.146,0-0.275-0.059-0.366-0.166c-0.25-0.297-0.25-0.297,2.123-4.082l2.184-3.487
			c5.021-8.031,7.54-12.062,8.053-12.968c1.395-2.463,2.959-4.843,4.472-7.146c1.263-1.923,2.569-3.911,3.767-5.932
			c0.414-0.699,1.575-2.394,3.425-3.077c0.454-0.167,1.659-0.612,2.544,0.13c0.388,0.325,0.648,0.819,0.775,1.47l0,0
			c0.396,2.011-1.204,4.293-2.193,5.475c-2.505,2.991-5.937,7.363-9.569,11.992c-9.479,12.077-14.067,17.769-15.203,17.79
			C35.487,60.537,35.483,60.537,35.481,60.537z M60.461,24.095c-0.426,0-0.849,0.156-1.082,0.242
			c-1.639,0.605-2.688,2.143-3.063,2.775c-1.207,2.037-2.518,4.032-3.785,5.961c-1.507,2.293-3.064,4.664-4.447,7.106
			c-0.521,0.919-3.043,4.955-8.068,12.994l-2.185,3.488c-0.797,1.271-1.331,2.123-1.664,2.667
			c2.277-2.107,8.692-10.281,13.977-17.014c3.637-4.633,7.071-9.01,9.58-12.005c1.551-1.852,2.295-3.634,2.046-4.894
			c0,0,0-0.001,0-0.001c-0.095-0.489-0.275-0.849-0.537-1.067C61.007,24.159,60.733,24.095,60.461,24.095z M53.487,35.037
			c-0.12,0-0.227-0.032-0.317-0.101c-0.388-0.293-0.287-0.961,0.329-2.164c0.496-0.971,1.272-2.168,2.185-3.371
			c0.599-0.79,3.645-4.688,4.649-3.917c1.016,0.771-1.916,4.746-2.514,5.535c-0.001,0-0.001,0.001-0.001,0.001l-0.189,0.247
			C56.899,32.21,54.619,35.037,53.487,35.037z M59.86,26.108c-0.478,0.21-1.838,1.367-3.618,3.716
			c-1.782,2.349-2.527,3.973-2.601,4.489c0.458-0.198,1.721-1.258,3.433-3.473l0.188-0.244
			C59.042,28.247,59.787,26.625,59.86,26.108z M57.54,30.808h0.009H57.54z"/>
	</g>
	<g>
		<path d="M33.018,57.642c-0.032,0-0.064-0.004-0.097-0.014c-3.154-0.907-6.369-2.016-7.98-4.697
			c-1.317-2.189-1.298-5.254,0.05-7.998c1.205-2.453,3.228-4.407,5.233-6.153l0.38-0.33c1.514-1.311,3.078-2.667,3.949-4.434
			c0.259-0.527,0.443-1.127,0.531-1.745c-3.581,1.063-7.401,1.345-11.059,0.745c-0.794-0.13-1.599-0.337-2.11-0.964
			c-0.345-0.422-0.488-0.955-0.414-1.54c0.109-0.856,0.696-1.789,1.495-2.375c1.992-1.461,4.632-1.573,6.944-1.487
			c1.439,0.052,3.078,0.191,4.312,1.18c1.067,0.855,1.539,2.147,1.579,3.469c2.416-0.824,4.699-2.02,6.716-3.554
			c0.388-0.295,0.77-0.604,1.151-0.913c1.2-0.971,2.44-1.974,3.909-2.574c3.009-1.229,6.382-0.517,8.656,0.126
			c1.989,0.562,3.083,1.468,3.251,2.694c0.133,0.967-0.41,2.008-1.383,2.652c-0.835,0.552-1.833,0.765-2.713,0.953
			c-0.194,0.042-0.376-0.082-0.415-0.269c-0.041-0.189,0.08-0.375,0.269-0.416c0.86-0.184,1.749-0.374,2.473-0.853
			c0.614-0.407,1.186-1.175,1.076-1.973c-0.127-0.924-1.051-1.636-2.747-2.115c-3.456-0.977-6.063-1.025-8.202-0.152
			c-1.373,0.56-2.573,1.531-3.734,2.47c-0.387,0.313-0.773,0.625-1.167,0.925c-2.145,1.632-4.583,2.892-7.161,3.742
			c-0.071,0.81-0.294,1.601-0.63,2.282c-0.933,1.894-2.552,3.296-4.118,4.653l-0.379,0.329c-1.95,1.698-3.914,3.592-5.063,5.933
			c-1.244,2.533-1.274,5.341-0.079,7.329c1.482,2.465,4.429,3.481,7.574,4.385c0.186,0.053,0.293,0.248,0.239,0.433
			C33.31,57.542,33.17,57.642,33.018,57.642z M28.879,27.329c-1.913,0-3.931,0.244-5.469,1.373c-0.642,0.471-1.13,1.234-1.215,1.899
			c-0.05,0.395,0.038,0.734,0.263,1.009c0.364,0.446,1.023,0.608,1.681,0.716c3.642,0.598,7.448,0.295,11.001-0.802
			c0.011-1.202-0.377-2.386-1.325-3.147c-1.067-0.855-2.572-0.978-3.899-1.027C29.575,27.337,29.229,27.329,28.879,27.329z"/>
	</g>
</g>
</svg>
