<?xml version="1.0"?><svg xmlns="http://www.w3.org/2000/svg" viewBox="0 0 109.48 104.45"><defs><style>.cls-1{fill:#fff;}</style></defs><title>Ресурс 32</title><g id="Шар_2" data-name="Шар 2"><g id="Шар_1-2" data-name="Шар 1"><path class="cls-1" d="M17.66,16,53.25,14.6q3.82,35.84,7.66,71.67l-47.5-2Q15.54,50.15,17.66,16Z" transform="translate(-0.05)"/><path class="cls-1" d="M83.88,66.38a18.23,18.23,0,1,0,18.24,18.23A18.23,18.23,0,0,0,83.88,66.38Zm-5.8,28.54a3.6,3.6,0,1,1,3.59-3.6A3.6,3.6,0,0,1,78.08,94.92Zm0-13.11a3.6,3.6,0,1,1,3.59-3.59A3.59,3.59,0,0,1,78.1,81.81Zm8.41-3.59a3.6,3.6,0,1,1,3.59,3.59A3.6,3.6,0,0,1,86.51,78.22Zm5.09,16.7a3.6,3.6,0,1,1,3.59-3.6A3.6,3.6,0,0,1,91.6,94.92Z" transform="translate(-0.05)"/><path d="M83.88,65.88a18.73,18.73,0,1,0,18.4,15.17,19,19,0,0,0-18.4-15.17c-.64,0-.64,1,0,1A17.73,17.73,0,1,1,66.46,81.31,18,18,0,0,1,83.88,66.88.5.5,0,0,0,83.88,65.88Z" transform="translate(-0.05)"/><path d="M78.08,94.42c-4-.22-4-6.19,0-6.19s4,6,0,6.19c-.64,0-.64,1,0,1A4.1,4.1,0,1,0,74,91.13a4.16,4.16,0,0,0,4.08,4.29C78.72,95.45,78.72,94.45,78.08,94.42Z" transform="translate(-0.05)"/><path d="M78.1,81.31c-4-.21-4-6.19,0-6.19s4,6,0,6.19c-.64,0-.64,1,0,1A4.1,4.1,0,1,0,74,78a4.16,4.16,0,0,0,4.08,4.29C78.74,82.34,78.74,81.34,78.1,81.31Z" transform="translate(-0.05)"/><path d="M87,78.22c.21-4,6.19-4,6.19,0s-6,4-6.19,0c0-.64-1-.65-1,0a4.1,4.1,0,1,0,4.29-4.08A4.16,4.16,0,0,0,86,78.22C86,78.86,87,78.86,87,78.22Z" transform="translate(-0.05)"/><path d="M91.6,94.42c-4-.22-4-6.19,0-6.19s4,6,0,6.19c-.64,0-.65,1,0,1a4.1,4.1,0,1,0-4.09-4.29,4.16,4.16,0,0,0,4.09,4.29C92.24,95.45,92.24,94.45,91.6,94.42Z" transform="translate(-0.05)"/><path class="cls-1" d="M78.36,78A84.28,84.28,0,0,1,92.48,90.86l-.26-.4" transform="translate(-0.05)"/><path d="M78.23,78.25A87.55,87.55,0,0,1,92.3,91a.25.25,0,0,0,.4-.3l-.26-.4c-.18-.27-.61,0-.43.25a.59.59,0,0,0-.22-.87c-.29-.33-.58-.65-.88-1-.59-.64-1.2-1.26-1.81-1.88-1.12-1.13-2.28-2.23-3.46-3.29a87.83,87.83,0,0,0-7.15-5.76c-.26-.19-.51.24-.26.43Z" transform="translate(-0.05)"/><path class="cls-1" d="M78.08,90.65A67.71,67.71,0,0,1,89.86,78.1" transform="translate(-0.05)"/><path d="M78.3,90.78A71,71,0,0,1,90,78.27c.25-.2-.11-.56-.35-.35A71,71,0,0,0,77.87,90.53c-.2.26.24.51.43.25Z" transform="translate(-0.05)"/><path class="cls-1" d="M55.44,21.33c-6.16-.51-12.75-.8-19.73-.76S22.14,21,16,21.52c-.18-.4-3.18-12.59-4.51-18.28A108.5,108.5,0,0,1,35.11.5C43.84.46,58.61,3.17,59,3.34Q57.21,12.34,55.44,21.33Z" transform="translate(-0.05)"/><path d="M55.44,20.83a229.72,229.72,0,0,0-36.91,0,11.55,11.55,0,0,1-2.15.28c-.22-.21-.28-1-.36-1.34-.39-1.54-.77-3.08-1.15-4.62-1-4-2-8-2.91-12l-.35.61A98,98,0,0,1,40.77,1.25c4,.32,8,.85,12,1.48a35.84,35.84,0,0,1,6.09,1.1l-.35-.62q-1.75,9-3.52,18c-.13.63.84.9,1,.27q1.77-9,3.53-18a.53.53,0,0,0-.35-.62,38.25,38.25,0,0,0-6.38-1.14C48.76,1.1,44.77.57,40.77.25A98.77,98.77,0,0,0,11.35,2.76a.5.5,0,0,0-.35.61c1.41,6,2.44,12.45,4.5,18.28A.51.51,0,0,0,16,22a232,232,0,0,1,39.45-.19C56.08,21.88,56.08,20.88,55.44,20.83Z" transform="translate(-0.05)"/><path class="cls-1" d="M61.54,81c-7.58.5-15.68.79-24.27.76s-16.68-.39-24.25-1c-.22.41-3.91,12.59-5.54,18.29a163.76,163.76,0,0,0,29.06,2.74c10.73,0,28.89-2.67,29.33-2.85Q63.71,90,61.54,81Z" transform="translate(-0.05)"/><path d="M61.54,80.51A349.19,349.19,0,0,1,13,80.31a.47.47,0,0,0-.43.25,65.14,65.14,0,0,0-2.2,7C9.24,91.34,8.09,95.15,7,99a.5.5,0,0,0,.35.62,147.87,147.87,0,0,0,36.18,2.5c5.06-.33,10.11-.88,15.14-1.53A48.52,48.52,0,0,0,66,99.47a.49.49,0,0,0,.35-.61q-2.16-9-4.33-18c-.15-.63-1.12-.36-1,.26q2.18,9,4.34,18l.35-.62a50.43,50.43,0,0,1-7.64,1.11c-4.84.62-9.7,1.14-14.57,1.46A146.28,146.28,0,0,1,7.61,98.61l.35.62q1.82-6.3,3.74-12.55a35.74,35.74,0,0,1,1.48-4.78c.47-1,.24-.64,1.6-.46,1.61.22,3.3.22,4.92.31a347.66,347.66,0,0,0,41.84-.24C62.17,81.47,62.18,80.47,61.54,80.51Z" transform="translate(-0.05)"/><path class="cls-1" d="M16.2,39.73a4.06,4.06,0,0,1,0-2,3.72,3.72,0,0,1,.64-1.32c.1,0,12.1,2.1,19.39,2.15a95.21,95.21,0,0,0,19.4-1.88,2.51,2.51,0,0,1,.85,1.7A2.79,2.79,0,0,1,56,40.1V36.38a2.83,2.83,0,0,0,.41-1.75,2.59,2.59,0,0,0-.84-1.7,93.89,93.89,0,0,1-19.34,1.88C29,34.77,17.06,32.69,17,32.67A3.49,3.49,0,0,0,16.33,34a4.1,4.1,0,0,0,0,2l.89-11.15a4.5,4.5,0,0,1,0-2,3.72,3.72,0,0,1,.6-1.32c.1,0,11.43,2.1,18.31,2.15a85.11,85.11,0,0,0,18.33-1.88,2.55,2.55,0,0,1,.8,1.7,2.92,2.92,0,0,1-.39,1.75L55.24,29a2.83,2.83,0,0,0,.41-1.75,2.61,2.61,0,0,0-.82-1.7,87.84,87.84,0,0,1-18.7,1.88c-7,0-18.58-2.12-18.68-2.14a3.7,3.7,0,0,0-.61,1.32,4.22,4.22,0,0,0,0,2l-.12,3.71a4.22,4.22,0,0,1,0-2A3.51,3.51,0,0,1,17.34,29c.1,0,11.82,2.1,18.94,2.15a91,91,0,0,0,19-1.88,2.53,2.53,0,0,1,.82,1.7,2.9,2.9,0,0,1-.4,1.75l.78,11.14a2.72,2.72,0,0,0,.43-1.75A2.46,2.46,0,0,0,56,40.37a99.07,99.07,0,0,1-19.79,1.87c-7.44,0-19.68-2.12-19.79-2.14a3.63,3.63,0,0,0-.64,1.32,4.1,4.1,0,0,0,0,2l-.12,3.71a4,4,0,0,1,0-2,3.53,3.53,0,0,1,.66-1.32c.11,0,12.52,2.1,20.06,2.15a101.77,101.77,0,0,0,20.07-1.88,2.54,2.54,0,0,1,.87,1.7,2.77,2.77,0,0,1-.43,1.75l.41,3.71a2.64,2.64,0,0,0,.44-1.75,2.45,2.45,0,0,0-.89-1.69,105.91,105.91,0,0,1-20.48,1.87c-7.69,0-20.35-2.11-20.46-2.14a3.58,3.58,0,0,0-.67,1.32,4,4,0,0,0,0,2l0,3.56a4,4,0,0,1,0-2A3.44,3.44,0,0,1,16,51.09c.11,0,13,2.1,20.82,2.15A108.49,108.49,0,0,0,57.6,51.36a2.5,2.5,0,0,1,.91,1.7,2.64,2.64,0,0,1-.44,1.75l.42,3.71A2.55,2.55,0,0,0,59,56.77,2.47,2.47,0,0,0,58,55.08,113.9,113.9,0,0,1,36.77,57c-8,0-21.12-2.11-21.23-2.14a3.4,3.4,0,0,0-.7,1.32,3.84,3.84,0,0,0,0,2l-.14,3.71a3.76,3.76,0,0,1,0-2,3.56,3.56,0,0,1,.7-1.32c.12,0,13.44,2.1,21.53,2.15a116.15,116.15,0,0,0,21.55-1.88A2.51,2.51,0,0,1,59,62.24l.9,11.14a2.52,2.52,0,0,0,.48-1.75,2.42,2.42,0,0,0-1-1.69,128.44,128.44,0,0,1-22.5,1.88c-8.45,0-22.36-2.12-22.49-2.15A3.37,3.37,0,0,0,13.64,71a3.66,3.66,0,0,0,0,2l-.14,3.71a3.57,3.57,0,0,1,0-2,3.52,3.52,0,0,1,.74-1.32c.12,0,14.23,2.1,22.8,2.15a129.94,129.94,0,0,0,22.81-1.88,2.42,2.42,0,0,1,.51,3.45l.46,3.71a2.4,2.4,0,0,0,.5-1.75,2.45,2.45,0,0,0-1-1.69A137.26,137.26,0,0,1,37,79.25c-8.75,0-23.13-2.12-23.26-2.15A3.35,3.35,0,0,0,13,78.42a3.45,3.45,0,0,0,0,2L14.11,69.3a3.66,3.66,0,0,1,0-2A3.4,3.4,0,0,1,14.82,66c.12,0,13.75,2.1,22,2.15a121.74,121.74,0,0,0,22.06-1.88,2.47,2.47,0,0,1,.48,3.45V66a2.59,2.59,0,0,0,.47-1.75,2.46,2.46,0,0,0-1-1.69,121.79,121.79,0,0,1-22,1.87c-8.25,0-21.84-2.11-22-2.14a3.38,3.38,0,0,0-.72,1.32,3.54,3.54,0,0,0,0,2Z" transform="translate(-0.05)"/><path d="M16.56,39.63a7.81,7.81,0,0,1,.27-2.86c.15-.07.64.11.8.13,1.24.17,2.46.39,3.69.57,3.44.51,6.89.94,10.36,1.22a80.83,80.83,0,0,0,12.83-.1c2.12-.17,4.23-.42,6.34-.73,1-.15,2-.32,3-.5.28,0,1.1-.36,1.35-.25a3.77,3.77,0,0,1,.47,2.8l.7.19a22.24,22.24,0,0,1,0-3.65c.2-1.14.8-2.12-.09-3.26s-2.4-.3-3.74-.07a92.15,92.15,0,0,1-9.8,1.13,101.07,101.07,0,0,1-25.73-2,.4.4,0,0,0-.43.18A4.63,4.63,0,0,0,16,36.12c.08.44.7.29.73-.1.28-3.41.59-6.82.82-10.23a8.72,8.72,0,0,0,.06-1,11.43,11.43,0,0,1,.25-2.86c.15-.05.42.1.56.1,2.2-.06,4.72.78,6.9,1.07a83.39,83.39,0,0,0,20.7.45c1.64-.18,3.28-.41,4.9-.68.74-.13,1.49-.35,2.24-.41,2.09-.17,1.36.75,1.4,2.61,0,1.28.2,2.61.33,3.9a.38.38,0,0,0,.7.19c.88-1.58.52-4.15-1.56-3.85A120.73,120.73,0,0,1,37.58,27a97.07,97.07,0,0,1-20-2.13.41.41,0,0,0-.43.18c-1.26,1.92-.69,5-.76,7.25l.73-.1a12.75,12.75,0,0,1,.23-2.87c.12,0,.34.09.48.08a12.36,12.36,0,0,1,2.32.39c2.24.35,4.48.67,6.72.94A86.09,86.09,0,0,0,46.49,31c1.5-.16,3-.35,4.48-.59,1-.15,3.49-1.06,4.36-.47.14.09,0,3.74.08,4.51l.66,9.4a.38.38,0,0,0,.7.19,3.11,3.11,0,0,0,.12-3.08c-.66-1.25-1.14-.88-2.46-.64a97.68,97.68,0,0,1-17.24,1.59,110.5,110.5,0,0,1-20.67-2.13.38.38,0,0,0-.42.17c-1.32,1.88-.73,5-.81,7.25l.74-.1s-.09-2.54.3-2.82c0,0,0,0,.12,0a4,4,0,0,1,1.3.2c1.62.26,3.24.49,4.86.71a111.25,111.25,0,0,0,13.76,1.2,100.37,100.37,0,0,0,16.51-1.24c.84-.14,2.66-.86,3.46-.59,2.14.72.12,2.22.19,3.2.08,1.18.26,2.36.39,3.54a.38.38,0,0,0,.7.19,3.06,3.06,0,0,0,0-3.34c-.76-1.06-1.46-.54-2.7-.32A105.63,105.63,0,0,1,37.34,49.3,116.79,116.79,0,0,1,16,47.17a.37.37,0,0,0-.42.17c-1.37,1.89-.69,4.88-.66,7.1l.73-.1c-.19-.91,0-2.65.52-2.83a4.93,4.93,0,0,1,1.5.23c1.52.23,3,.44,4.57.64a123.6,123.6,0,0,0,14.24,1.23,106.44,106.44,0,0,0,17.2-1.21c.61-.09,3.36-.95,3.83-.62s.15,2.41.19,3.1c.07,1.22.28,2.44.42,3.64a.38.38,0,0,0,.7.19,3,3,0,0,0,0-3.34c-.82-1.13-1.81-.48-3.08-.27a112.83,112.83,0,0,1-18,1.48,125.16,125.16,0,0,1-22.1-2.13.38.38,0,0,0-.43.17c-1.38,1.84-.78,5-.86,7.25l.74-.1c-.83-3.71.91-2.77,3.26-2.44s4.76.64,7.14.9a112.71,112.71,0,0,0,20.86.49c3.35-.25,6.69-.65,10-1.18,2.2-.36,2.31-1,2.41,2.31,0,.13-.19.23-.18.39,0,.41.06.81.1,1.22l.79,9.92a.38.38,0,0,0,.7.19,2.87,2.87,0,0,0-.06-3.41c-1-1.13-2.44-.31-3.74-.12a125.2,125.2,0,0,1-19,1.4,140.38,140.38,0,0,1-22.87-2.13.39.39,0,0,0-.36.09c-1.5,1.88-.89,5-1,7.33l.73-.09c-.74-3.14.41-2.86,2.38-2.59,1.76.24,3.51.46,5.27.67A146.27,146.27,0,0,0,36.73,75.9a126,126,0,0,0,18.72-1.2,22.43,22.43,0,0,1,3.78-.57c1.54.09.66,1.9.75,3s.31,2.45.47,3.67a.38.38,0,0,0,.7.19c.73-1,.85-3.25-.58-3.9-.56-.25-1.24.05-1.83.14q-2.68.42-5.38.74a121,121,0,0,1-20.84.73c-5.31-.31-10.59-.9-15.86-1.59-.6-.08-2.24-.62-2.88-.4-1.34.47-1.37,2.71-1.1,3.83.1.44.69.3.73-.1l1-9.92c0-.41.1-.82.12-1.23,0-.56-.34-2.59.26-3,.09-.06.34.1.45.07,1.28-.34,3.85.54,5.16.71a135.35,135.35,0,0,0,18.43,1.37c3.88,0,7.77-.26,11.63-.67,1.64-.17,3.27-.38,4.9-.62,1.35-.2,6.34-1.6,3.76,2.3l.7.19A18.4,18.4,0,0,1,59.86,66c.24-1.11.83-2.87-.58-3.63-.53-.28-.89-.1-1.54,0-1.61.27-3.23.51-4.85.72-3.41.43-6.85.72-10.29.86a130.25,130.25,0,0,1-27.52-2,.38.38,0,0,0-.37.09,4.25,4.25,0,0,0-.8,3.72c.1.43.71.3.74-.1l1.92-25.86c0-.48-.71-.48-.75,0L13.9,65.59l.74-.1c-.72-3.16.36-2.86,2.36-2.58q2.64.38,5.28.69a132.76,132.76,0,0,0,14.36,1.16,119.36,119.36,0,0,0,17.92-1.18c1-.15,2.72-.76,3.74-.59q1.83-.5.91,2.58l-.13.19c0,.08,0,.18,0,.27v3.64a.38.38,0,0,0,.7.19,2.88,2.88,0,0,0,0-3.38c-1-1.19-2.47-.34-3.81-.14a121.14,121.14,0,0,1-18.54,1.39,135,135,0,0,1-22.42-2.14.39.39,0,0,0-.37.1c-1.35,1.74-.93,4.86-1.14,7l-.75,7.73.74-.1c-.22-.89-.25-2.61.65-2.83a3.57,3.57,0,0,1,1.16.16q2,.27,4,.51c4.2.51,8.43,1,12.66,1.23a115.29,115.29,0,0,0,15.1-.11q4-.27,8-.78,1.6-.21,3.21-.45a5.92,5.92,0,0,1,1.49-.23c.78-.28,1,.14.76,1.26a1.16,1.16,0,0,1,.06,1.52l.7.18a14.45,14.45,0,0,1-.39-3.72c.18-1.11.91-3-.7-3.7-.54-.23-1.23,0-1.8.14-1.75.28-3.51.52-5.27.73-3.44.4-6.88.67-10.34.8a139.73,139.73,0,0,1-28.36-2,.39.39,0,0,0-.37.1,4.14,4.14,0,0,0-.82,3.71.38.38,0,0,0,.74-.1c0-1.21.12-2.42.14-3.64,0-.57-.32-2.66.41-3,.2-.11,1,.14,1.21.17,4,.56,7.91,1,11.88,1.41A115.08,115.08,0,0,0,44.24,72c2.94-.16,5.87-.41,8.79-.77,1.19-.15,2.37-.31,3.55-.48s5.49-1.33,3,2.42l.7.19c-.27-3.39-1.06-7.1-.84-10.49.09-1.28.88-2.51-.11-3.8a1.41,1.41,0,0,0-.89-.66,7.56,7.56,0,0,0-2.23.38c-1.27.21-2.55.39-3.83.56a122.92,122.92,0,0,1-36.82-1.21.41.41,0,0,0-.42.17A4.27,4.27,0,0,0,14.36,62a.38.38,0,0,0,.74-.1c0-1.18.11-2.36.13-3.54,0-.09,0-.18,0-.27a16.57,16.57,0,0,1,.25-2.88c.15-.08.68.11.84.13,3.66.29,7.31,1,11,1.4a103.35,103.35,0,0,0,15.64.49c3-.15,6-.41,9-.8,1.08-.14,2.15-.29,3.23-.46,1.28-.2,5.42-1.42,3,2.39l.7.19a16,16,0,0,1-.39-3.68c.17-1.14.9-2.68-.44-3.59-1.08-.74-3.69.3-4.94.48-3.41.5-6.85.83-10.3,1a117.6,117.6,0,0,1-26.74-2,.42.42,0,0,0-.43.17,4.37,4.37,0,0,0-.7,3.64.38.38,0,0,0,.74-.1c0-1.16,0-2.32-.05-3.48,0-.19,0-2.92.22-3.07s.67.13.84.14c3.55.34,7.09,1,10.64,1.41a95.25,95.25,0,0,0,15.2.46q4.14-.21,8.26-.75c1.19-.16,2.39-.34,3.58-.53a7,7,0,0,1,1.86-.33c1.15.19,1.6,1.37.75,2.76l.7.19a16.79,16.79,0,0,1-.41-3.64c.16-1.19.82-2.12-.12-3.3s-3.09-.15-4.46.06c-3.26.52-6.54.86-9.83,1.06a109.67,109.67,0,0,1-26.44-2,.42.42,0,0,0-.43.17,4.56,4.56,0,0,0-.68,3.64c.09.43.73.31.74-.1,0-1.14.1-2.29.12-3.44,0-1-.41-2.39.38-3.13.05-.06-.15,0,.42,0a20.15,20.15,0,0,1,4.12.63c1.93.27,3.86.53,5.8.74a90.16,90.16,0,0,0,14.6.57c2.81-.13,5.61-.39,8.39-.76,1.21-.16,2.42-.34,3.62-.55a6.88,6.88,0,0,1,1.88-.33c1.16.18,1.59,1.33.75,2.75l.7.19-.7-9.92c-.08-1.1.43-2,.31-3.07-.31-2.61-1.84-1.83-3.79-1.48a95.15,95.15,0,0,1-35.2-.75.42.42,0,0,0-.43.17,4.71,4.71,0,0,0-.64,3.64c.09.43.73.31.74-.1,0-1.09.11-2.19.1-3.29,0-.83.06-1.61.13-2.43.1-1.37-.09-.78.45-.9,1-.23,2.9.48,3.94.64,1.8.27,3.62.52,5.43.74a81,81,0,0,0,14.18.58c2.49-.13,5-.37,7.46-.71q2-.27,3.93-.63A5.54,5.54,0,0,1,54.21,26c1.06.2,1.21,1.86.71,2.75l.7.19a19.32,19.32,0,0,1-.36-3.54c.11-1.17.75-2.15-.07-3.32s-1.71-.47-3-.23A83.71,83.71,0,0,1,43,23.06a92,92,0,0,1-25.09-1.9.39.39,0,0,0-.43.17c-1.17,1.82-.75,5-.92,7.18L16,36l.74-.1s-.08-2.57.28-2.82c0,0,0,0,.13,0a4.29,4.29,0,0,1,1.31.22c1.7.28,3.4.53,5.1.76a102.86,102.86,0,0,0,12.76,1.14A92.7,92.7,0,0,0,52.41,33.9l1.87-.32c1.33-.24,1.19-.58,1.39,1.09a7.26,7.26,0,0,1,0,1.89c0,1.18,0,2.36,0,3.54a.38.38,0,0,0,.7.19,3.18,3.18,0,0,0,.12-3.09c-.57-1.1-.91-.92-2.05-.7a94.69,94.69,0,0,1-16.79,1.65A104.87,104.87,0,0,1,16.91,36a.41.41,0,0,0-.42.17,4.67,4.67,0,0,0-.66,3.64C15.93,40.3,16.65,40.1,16.56,39.63Z" transform="translate(-0.05)"/><path class="cls-1" d="M108.92,10a6,6,0,0,0-1.77-3.42c-1.93-1.62-4.64-.66-5.92-.19C96,8.35,93,13.48,92.49,14.31c-7.1,12-15.32,23.07-22.2,35.22-1.38,2.45-8.16,13.29-21.72,35-11.37,18.19-12,18.94-11.68,19.29,2.55,3,46.24-55.82,66.32-79.8C104.28,22.72,110.07,15.83,108.92,10ZM96.6,24.74c-.17.22-.34.45-.51.66-4.84,6.27-9.56,10.57-10.7,9.71s1.94-7,7-13.59,10-11.26,11.21-10.37S101.62,18.12,96.6,24.74Z" transform="translate(-0.05)"/><path d="M109.41,9.9c-1-4.82-5.11-5.42-9.13-3.63s-6.57,5-8.7,8.58c-7.06,11.8-15,23-22,34.88C60,66.12,49.51,82,39.45,98.13c-.41.67-4.18,5.22-2.73,6.17,1.71,1.11,5.88-4.33,6.7-5.23C55.1,86.3,65.51,72.29,76.19,58.7c6.65-8.48,13.29-17,20-25.38,2.59-3.22,5.25-6.37,7.85-9.59,3.09-3.84,6.11-8.7,5.33-13.83-.1-.64-1.07-.37-1,.26,1.22,8-7.34,15.54-11.93,21.23-5.38,6.67-10.67,13.41-16,20.15C70.06,64.89,59.69,78.36,48.78,91.37c-3.14,3.75-6.28,7.8-10,11-.43.36-.93.63-1.35,1s0,0-.07.32a10.22,10.22,0,0,1,1.25-2.22c9.59-15.77,19.64-31.27,29.32-47,5.08-8.25,10-16.54,15.35-24.65,3.54-5.39,6.76-11,10.38-16.37,2.65-3.91,12.94-12.21,14.8-3.26C108.57,10.79,109.54,10.53,109.41,9.9Z" transform="translate(-0.05)"/><path d="M96.17,24.49c-.68.89-9.42,11.61-10.52,9.82-.61-1,1.89-4.66,2.37-5.48a70.32,70.32,0,0,1,4.76-7.06c.83-1.09,8.7-11.35,10.3-10,.91.79-1.48,4.48-2,5.32a70.5,70.5,0,0,1-5,7.39c-.39.51.48,1,.86.5a51.33,51.33,0,0,0,6.51-10.45c.38-.87,1.43-3,.27-3.82s-3.24,1.11-4.06,1.81a55.59,55.59,0,0,0-7.83,8.74A51.7,51.7,0,0,0,85.46,31.6c-.39.89-1.51,3.15-.32,3.95s2.87-.84,3.64-1.47A53.18,53.18,0,0,0,97,25C97.42,24.48,96.55,24,96.17,24.49Z" transform="translate(-0.05)"/><path d="M90.79,23.85c3.63-.79,7.81-1.79,9.77-5.32a5.9,5.9,0,0,0-1.22-7.41c-2.59-2.41-6.46-3.27-9.81-4A38.81,38.81,0,0,0,76,6.08c-9.49,1.2-15.55,8.46-23.15,13.43a66.24,66.24,0,0,1-26.14,10,65,65,0,0,1-14.21.62c-4.26-.28-13.79-.6-11.41-7.32,1.83-5.19,8.2-7.12,13.11-7.7a41.1,41.1,0,0,1,14.08.5,10.72,10.72,0,0,1,8.47,10.49c.17,4.87-2,9.2-5.16,12.81-5.87,6.8-13.63,11.59-19,18.9S4.36,75.05,8.84,83.37c4.25,7.88,13.55,10.78,21.58,13.1a.37.37,0,0,0,.2-.72C22.14,93.3,11.91,90.07,8.56,80.92c-3.68-10,1.87-20.28,8.66-27.45,6-6.34,14.33-11.17,18.42-19.12,3-5.74,2.84-14.1-3.14-17.88-3.37-2.14-7.62-2.31-11.49-2.4A35.24,35.24,0,0,0,8.79,15.48C5.49,16.6,2.2,18.56.7,21.84c-1.12,2.45-.9,5.32,1.48,6.91,3.06,2.05,8.07,2,11.59,2.15A66.84,66.84,0,0,0,27,30.19a67,67,0,0,0,25.29-9.37c4.43-2.77,8.22-6.33,12.48-9.33A25.77,25.77,0,0,1,81,6.63c5.19.2,11.8,1.16,16.34,3.94,3.2,1.95,4.49,5.6,1.76,8.73-2.14,2.46-5.47,3.17-8.51,3.82-.47.11-.27.83.2.73Z" transform="translate(-0.05)"/><path d="M83.88,67.85a16.53,16.53,0,1,0,16.27,13.66A16.75,16.75,0,0,0,83.88,67.85a.5.5,0,0,0,0,1A15.53,15.53,0,1,1,68.36,84.37,15.7,15.7,0,0,1,83.88,68.85.5.5,0,0,0,83.88,67.85Z" transform="translate(-0.05)"/></g></g></svg>