<?xml version="1.0" encoding="utf-8"?>
<!-- Generator: Adobe Illustrator 22.1.0, SVG Export Plug-In . SVG Version: 6.00 Build 0)  -->
<svg version="1.1" id="Шар_1" xmlns="http://www.w3.org/2000/svg" xmlns:xlink="http://www.w3.org/1999/xlink" x="0px" y="0px"
	 width="21.773px" height="29.2px" viewBox="0 0 21.773 29.2" enable-background="new 0 0 21.773 29.2" xml:space="preserve">
<path fill="#f9c268" d="M18.179,17.61c-1.629-4.37-3.313-8.889-3.788-10.577c-0.009-0.032-0.03-0.056-0.044-0.085l1.026-4.217
	c0.045-0.185,0-0.38-0.122-0.526c-0.315-0.378-2.027-2.238-4.83-2.204C7.663,0.058,6.029,1.962,5.73,2.343
	C5.598,2.51,5.565,2.733,5.642,2.931l1.659,4.267c-1.066,2.836-7.103,19.934-7.283,20.637c-0.052,0.203,0.006,0.419,0.153,0.569
	c0.148,0.15,0.361,0.213,0.566,0.164c0.702-0.166,1.399-0.384,2.072-0.648c0.758-0.297,1.296-0.579,1.69-0.784
	c0.574-0.301,0.739-0.371,0.906-0.32c0.207,0.062,0.306,0.251,0.499,0.701c0.216,0.504,0.512,1.194,1.315,1.52
	c0.285,0.116,0.579,0.164,0.87,0.164c1.186,0,2.32-0.792,2.579-0.986c0.589-0.441,0.877-0.875,1.087-1.192
	c0.166-0.25,0.212-0.306,0.264-0.313c0.15-0.02,0.397,0.286,0.635,0.583c0.424,0.529,0.953,1.188,1.877,1.4
	c1.07,0.246,1.888-0.285,2.613-0.75c0.643-0.414,1.2-0.77,1.869-0.619c0.525,0.119,0.906,0.486,1.212,0.78
	c0.293,0.283,0.739,0.712,1.252,0.387C22.079,28.11,22.09,28.103,18.179,17.61z M10.446,1.201c1.899-0.067,3.183,1.037,3.686,1.555
	l-0.934,3.839H8.355L6.891,2.832C7.392,2.296,8.609,1.239,10.446,1.201z M19.28,26.153c-1.164-0.266-2.062,0.314-2.784,0.779
	c-0.696,0.447-1.153,0.716-1.697,0.59c-0.517-0.118-0.853-0.537-1.208-0.98c-0.409-0.512-0.918-1.148-1.756-1.019
	c-0.584,0.09-0.848,0.486-1.079,0.835c-0.18,0.271-0.384,0.578-0.806,0.895c-0.479,0.358-1.573,0.96-2.278,0.671
	c-0.33-0.133-0.467-0.422-0.664-0.881c-0.219-0.512-0.492-1.148-1.256-1.378c-0.655-0.196-1.139,0.055-1.808,0.406
	c-0.39,0.204-0.875,0.458-1.572,0.73c-0.278,0.109-0.561,0.209-0.846,0.301c1.283-3.735,5.727-16.35,6.832-19.308h5.008
	c0.611,1.979,2.173,6.168,3.688,10.234c1.115,2.993,2.428,6.515,3.091,8.473C19.898,26.355,19.61,26.227,19.28,26.153z"/>
</svg>
