<?xml version="1.0" encoding="utf-8"?>
<!-- Generator: Adobe Illustrator 22.0.1, SVG Export Plug-In . SVG Version: 6.00 Build 0)  -->
<svg version="1.1" id="Шар_1" xmlns="http://www.w3.org/2000/svg" xmlns:xlink="http://www.w3.org/1999/xlink" x="0px" y="0px"
	 width="13.36px" height="15.4px" viewBox="0 0 13.36 15.4" enable-background="new 0 0 13.36 15.4" xml:space="preserve">
<path fill="#F3BE67" d="M12.462,7.84C11.5,7.917,10.533,8.012,9.566,8.119C9.553,7.47,9.546,6.826,9.536,6.177
	c1.06-0.12,2.122-0.224,3.18-0.308c0.385-0.031,0.673-0.368,0.643-0.754c-0.031-0.385-0.355-0.664-0.754-0.643
	C11.578,4.555,10.548,4.655,9.52,4.77C9.504,3.492,9.482,2.211,9.477,0.941c-0.002-0.386-0.314-0.697-0.7-0.697
	c-0.001,0-0.002,0-0.003,0C8.388,0.245,8.076,0.56,8.077,0.947c0.005,1.329,0.028,2.667,0.045,4.002
	C7.521,5.025,6.917,5.095,6.321,5.182C5.914,5.241,5.502,5.315,5.093,5.38C5.07,3.818,5.046,2.253,5.04,0.698
	C5.038,0.312,4.725,0,4.34,0C4.339,0,4.338,0,4.337,0C3.95,0.002,3.639,0.317,3.639,0.703c0.007,1.63,0.031,3.267,0.055,4.903
	c-1,0.175-2.001,0.364-2.995,0.57C0.322,6.255,0.079,6.625,0.157,7.004c0.068,0.33,0.36,0.558,0.685,0.558
	c0.048,0,0.096-0.005,0.144-0.015C1.889,7.359,2.8,7.185,3.711,7.023C3.722,7.666,3.742,8.3,3.756,8.941
	C2.685,9.126,1.616,9.324,0.557,9.543C0.18,9.622-0.064,9.992,0.014,10.371c0.068,0.33,0.36,0.558,0.685,0.558
	c0.048,0,0.096-0.005,0.144-0.015c0.976-0.203,1.962-0.388,2.95-0.561c0.03,1.169,0.052,2.344,0.091,3.501l-0.008,0.595
	c-0.004,0.387,0.307,0.703,0.693,0.707c0.002,0,0.005,0,0.007,0c0.384,0,0.696-0.31,0.7-0.693l0.007-0.63
	c-0.041-1.227-0.065-2.469-0.095-3.705c0.398-0.064,0.797-0.135,1.194-0.193c0.605-0.089,1.216-0.159,1.825-0.236
	c0.034,1.468,0.065,2.94,0.114,4.392l-0.008,0.601c-0.006,0.386,0.304,0.704,0.69,0.71c0.003,0,0.007,0,0.01,0
	c0.382,0,0.694-0.307,0.7-0.69l0.007-0.633c-0.05-1.511-0.082-3.034-0.117-4.555c0.992-0.11,1.984-0.207,2.971-0.285
	c0.385-0.031,0.673-0.368,0.643-0.754C13.185,8.098,12.863,7.83,12.462,7.84z M6.179,8.55C5.837,8.6,5.494,8.662,5.151,8.716
	C5.137,8.075,5.12,7.438,5.109,6.796c0.472-0.077,0.946-0.16,1.415-0.229c0.534-0.078,1.075-0.139,1.613-0.209
	c0.01,0.646,0.02,1.288,0.033,1.934C7.505,8.375,6.839,8.453,6.179,8.55z"/>
</svg>
