<?xml version="1.0" encoding="utf-8"?>
<svg version="1.1" xmlns="http://www.w3.org/2000/svg" xmlns:xlink="http://www.w3.org/1999/xlink" x="0px" y="0px"
	 width="184.41px" height="24.415px" viewBox="0 0 184.41 24.415" enable-background="new 0 0 184.41 24.415" xml:space="preserve">
	<path fill-rule="evenodd" clip-rule="evenodd" fill="none" stroke="#f9c268" stroke-miterlimit="10" d="M16.504,15.503
	c0.833,0,4.094-2.051,4.094-5.792c0-3.742-3.251-7.483-8.867-7.483C4.933,2.228,0.5,7.696,0.5,12.014
	c0,7.195,4.729,11.512,13.595,11.512c13.3,0,30.797-21.873,56.746-21.873c14.482,0,29.555,18.42,42.559,18.42
	c19.348,0,23.938-19.572,40.029-19.572c4.197,0,6.077,2.591,6.077,5.181c0,1.9-1.77,3.67-5.08,3.67
	c-3.329,0-3.988-3.934-3.988-3.934"/>
	<path fill-rule="evenodd" clip-rule="evenodd" fill="none" stroke="#f9c268" stroke-miterlimit="10" d="M33.504,5.501
	c0,0-0.66,4-4,4c-3.32,0-5.096-1.8-5.096-3.732c0-2.634,1.886-5.269,6.096-5.269c16.141,0,20.746,19.904,40.154,19.904
	c13.045,0,28.165-18.732,42.692-18.732c26.03,0,43.582,22.243,56.923,22.243c8.894,0,13.638-4.39,13.638-11.707
	c0-4.39-4.447-9.951-11.266-9.951c-5.633,0-8.894,3.804-8.894,7.609c0,3.804,3.321,5.853,4.151,5.853"/>
</svg>
