<?xml version="1.0" encoding="utf-8"?>
<!-- Generator: Adobe Illustrator 22.0.1, SVG Export Plug-In . SVG Version: 6.00 Build 0)  -->
<svg version="1.1" id="Шар_1" xmlns="http://www.w3.org/2000/svg" xmlns:xlink="http://www.w3.org/1999/xlink" x="0px" y="0px"
	 width="132.468px" height="113.855px" viewBox="0 0 132.468 113.855" enable-background="new 0 0 132.468 113.855"
	 xml:space="preserve">
<g>
	<g>
		<path fill="#EFD5DF" d="M125.306,59.391c-1.047-1.665-4.464,0.969-8.584-1.645c-4.229-2.683-6.738-9.332-8.134-13.034
			c-0.112-0.297-0.173-0.473-0.234-0.633c-1.562-4.173-8.461-21.382-19.998-26.433c-2.84-1.243-8.59-2.902-17.455,0.382
			c-6.694,5.146-8.52,10.377-9.125,13.443c-2.463,12.485,8.547,29.054,10.545,32.104c2.992,4.567,6.371,8.589,5.808,13.77
			c-0.537,4.935-4.176,6.558-3.388,8.346c1.586,3.596,18.689,2.439,33.051-6.244C118.963,72.694,127.089,62.226,125.306,59.391z"/>
	</g>
	<g>
		<path fill="#EFD5DF" d="M65.467,98.92c-0.3-2.143-4.691-1.034-7.538-5.511c-2.922-4.595-2.519-12.4-2.294-16.745
			c0.018-0.348,0.033-0.552,0.044-0.741c0.266-4.893,0.92-25.274-8.011-35.533c-2.198-2.525-7.012-6.776-16.903-7.465
			c-8.594,2.157-12.557,6.589-14.433,9.396c-7.638,11.429-4.08,33.016-3.452,36.978c0.94,5.932,2.481,11.489-0.249,16.438
			c-2.601,4.714-6.776,4.707-6.776,6.857c0.001,4.324,16.894,10.852,34.338,8.591C53.761,109.427,65.978,102.568,65.467,98.92z"/>
	</g>
	<g>
		<g>
			<path d="M72.803,99.278c-0.268-1.01-1.056-1.409-1.964-1.77c-2.517-1.002-4.885-1.435-6.741-3.655
				c-3.528-4.219-3.355-10.742-3.087-15.916c0.368-7.107,0.59-14.084-0.546-21.156c-1.297-8.074-4.209-16.67-10.861-21.9
				c-3.058-2.404-6.693-3.976-10.45-4.92c-2.413-0.606-5.653-1.44-8.147-1.181c-2.534,0.263-5.236,1.424-7.541,2.449
				c-7.609,3.383-12.636,9.385-14.82,17.41c-2.274,8.355-1.953,17.357-0.814,25.867c0.47,3.508,1.233,6.961,1.772,10.457
				c0.547,3.547,0.711,7.26-1.034,10.527c-1.473,2.756-3.81,4.222-6.41,5.747c-6.463,3.791,3.322,7.849,6.643,8.987
				c12.692,4.347,27.149,4.602,40.176,1.761c6.049-1.319,12.131-3.252,17.58-6.236c2.058-1.127,6.487-3.397,6.262-6.339
				c-0.049-0.638-1.049-0.643-1,0c0.218,2.848-5.176,5.21-7.173,6.207c-5.016,2.505-10.467,4.214-15.935,5.404
				c-11.701,2.545-24.209,2.409-35.814-0.617c-3.632-0.947-8.084-2.117-10.925-4.736c-1.086-1.001-1.563-1.919-0.223-3.018
				c1.288-1.057,2.975-1.625,4.304-2.665c7.491-5.867,4.339-15.402,3.096-23.311C6.873,62.194,6.252,42.567,20.47,33.916
				c2.058-1.252,4.268-2.233,6.549-3c3.569-1.2,6.779-1.087,10.447-0.316c3.893,0.818,7.702,2.25,10.931,4.612
				c6.798,4.973,9.73,13.527,11.055,21.527c1.209,7.303,0.857,14.469,0.53,21.804c-0.209,4.696-0.17,9.981,2.17,14.209
				c1.031,1.863,2.559,3.358,4.469,4.304c1.239,0.614,4.831,1.026,5.218,2.489C72.003,100.166,72.968,99.902,72.803,99.278z"/>
		</g>
	</g>
	<g>
		<g>
			<path d="M130.276,59.279c-0.742-0.803-1.645-0.735-2.676-0.614c-3.465,0.409-6.41,0.442-9.196-2.034
				c-3.584-3.185-5.493-7.966-7.259-12.305c-2.377-5.839-5.331-11.483-9.141-16.522c-4.479-5.924-10.475-11.325-18.076-12.43
				c-4.283-0.623-8.668,0.046-12.761,1.363c-2.809,0.904-4.365,1.81-6.481,3.868c-1.65,1.605-3.158,3.372-4.416,5.303
				c-8.884,13.636,0.324,30.533,8.619,42.102c2.992,4.173,7.137,8.495,6.978,13.984c-0.074,2.56-1.186,4.707-2.598,6.767
				c-0.605,0.882-1.578,1.972-1.371,3.139c0.299,1.689,2.455,2.128,3.859,2.312c3.376,0.443,6.932-0.136,10.235-0.821
				c11.661-2.419,22.758-7.977,31.822-15.67c3.895-3.306,7.62-7.027,10.466-11.294c1.144-1.715,3.336-4.886,2.073-7.047
				c-0.325-0.555-1.189-0.053-0.863,0.505c1.212,2.073-1.928,5.911-3.057,7.431c-2.753,3.708-6.106,6.997-9.636,9.959
				c-8.044,6.751-17.616,11.671-27.764,14.367c-3.633,0.965-7.429,1.736-11.206,1.699c-2.261-0.022-6.173-0.274-4.216-3.327
				c1.943-3.032,3.595-5.787,3.203-9.571c-0.475-4.594-3.638-8.252-6.258-11.83C62.786,58.004,53.22,42.325,59.64,29.041
				c2.084-4.312,5.914-9.246,10.512-10.899c4.185-1.505,8.703-2.39,13.156-1.849c7.707,0.937,13.761,6.507,18.206,12.515
				c4.024,5.438,6.831,11.454,9.433,17.653c1.633,3.891,3.546,8.015,6.751,10.878c1.552,1.386,3.391,2.358,5.471,2.615
				c1.381,0.171,5.442-1.005,6.4,0.032C130.006,60.459,130.712,59.751,130.276,59.279z"/>
		</g>
	</g>
	<g>
		<g>
			<path d="M9.197,96.161c17.326,6.394,36.759,5.469,53.421-2.478c0.581-0.277,0.074-1.139-0.505-0.863
				c-16.428,7.835-35.582,8.677-52.651,2.378C8.858,94.973,8.598,95.94,9.197,96.161L9.197,96.161z"/>
		</g>
	</g>
	<g>
		<g>
			<path d="M76.962,83.153c17.075-1.914,32.53-11.187,42.199-25.4c0.363-0.533-0.503-1.034-0.863-0.505
				c-9.453,13.895-24.636,23.033-41.336,24.905C76.329,82.224,76.322,83.225,76.962,83.153L76.962,83.153z"/>
		</g>
	</g>
	<g>
		<g>
			<path d="M77.488,2.956c2.13-1.617,4.868-2.535,7.501-1.6c3.167,1.125,4.773,4.84,3.181,7.821
				c-1.86,3.483-6.416,7.003-10.115,8.246c-5.113,1.717-8.228-2.872-12.471-4.753c-3.595-1.593-8.083-3.15-12.09-2.81
				c-2.687,0.228-4.969,1.821-5.339,4.614c-0.418,3.153,1.684,5.811,4.205,7.414c4.498,2.859,11.407,3.853,16.275,1.398
				c2.979-1.503,4.499-4.286,4.997-7.511c0.74-4.792-0.043-9.319,3.958-12.896c0.481-0.43-0.228-1.135-0.707-0.707
				c-2.553,2.282-3.567,5.064-3.842,8.424c-0.325,3.97-0.112,8.544-3.737,11.138c-5.237,3.748-16.659,2.029-19.638-4.053
				c-1.679-3.426,0.59-6.619,4.187-6.837c2.506-0.151,5.13,0.588,7.51,1.314c2.343,0.715,4.672,1.618,6.692,3.022
				c1.649,1.147,3.181,2.646,5.114,3.319c3.034,1.056,6.197-0.247,8.739-1.914c2.627-1.723,5.613-4.1,7.127-6.903
				c1.527-2.828,0.731-6.185-1.777-8.173C84.154-0.95,79.94-0.151,76.984,2.092C76.478,2.477,76.975,3.345,77.488,2.956z"/>
		</g>
	</g>
	<g>
		<g>
			<path d="M73.406,19.357c1.427-3.438,5.352-4.231,8.639-3.36c2.978,0.789,5.479,2.846,7.898,4.651
				c4.059,3.03,8.353,5.132,13.531,5.019c5.413-0.118,9.509-3.261,14.558-4.637c3.517-0.958,5.852,0.392,9.125,1.246
				c1.797,0.469,3.522,0.423,5.086-0.638c0.53-0.359,0.03-1.226-0.505-0.863c-3.153,2.138-6.56-0.775-9.793-1.122
				c-2.24-0.24-4.422,0.393-6.482,1.217c-2.826,1.131-5.484,2.691-8.475,3.374c-3.217,0.735-6.699,0.542-9.812-0.554
				c-5.617-1.977-9.422-7.337-15.272-8.758c-3.779-0.917-7.9,0.396-9.461,4.158C72.196,19.685,73.163,19.944,73.406,19.357
				L73.406,19.357z"/>
		</g>
	</g>
	<g>
		<g>
			<path d="M72.111,20.627c3.14,3.009,6.656,6.408,7.586,10.833c1.018,4.843-2.161,9.015-3.039,13.59
				c-1.645,8.575,5.44,14.925,11.414,19.761c0.496,0.401,1.208-0.302,0.707-0.707c-3.66-2.963-7.525-6.054-9.713-10.329
				c-2.597-5.073-1.317-9.422,0.537-14.431c1.274-3.442,1.818-6.821,0.373-10.306c-1.497-3.609-4.386-6.461-7.157-9.118
				C72.354,19.475,71.646,20.181,72.111,20.627L72.111,20.627z"/>
		</g>
	</g>
	<g>
		<g>
			<path d="M32.895,28.159c0.742-2.665-0.538-5.348-2.312-7.328c-2.008-2.242-4.688-2.786-7.552-3.247
				c-5.385-0.866-13.358-1.059-14.322,6.08c-0.77,5.704,6.704,7.984,11.065,8.591c4.058,0.565,11.07,0.536,13.07-3.977
				c0.258-0.583-0.603-1.093-0.863-0.505c-1.56,3.52-6.756,3.853-10.063,3.687c-3.697-0.186-10.984-1.521-12.138-5.849
				c-0.76-2.85,1.41-5.855,3.949-6.882c2.791-1.129,5.774-0.698,8.658-0.24c2.127,0.338,4.399,0.594,6.195,1.883
				c2.223,1.595,4.121,4.75,3.349,7.521C31.758,28.515,32.723,28.779,32.895,28.159z"/>
		</g>
	</g>
	<g>
		<g>
			<path d="M32.913,28.027c-0.157-1.807,1.515-3.402,2.598-4.655c1.622-1.877,3.242-3.857,5.103-5.505
				c2.944-2.606,7.521-2.72,10.339,0.277c4.069,4.327,0.675,10.363-3.69,12.856c-2.576,1.471-5.53,1.821-8.404,1.176
				c-2.337-0.525-5.329-1.702-5.964-4.282c-0.154-0.625-1.118-0.36-0.964,0.266c1.362,5.529,10.114,6.189,14.386,4.414
				c4.911-2.04,9.467-7.983,6.628-13.339c-2.009-3.789-7.095-5.521-10.973-3.56c-2.902,1.468-5.1,4.596-7.168,6.99
				c-1.273,1.475-3.074,3.253-2.891,5.362C31.969,28.663,32.969,28.669,32.913,28.027z"/>
		</g>
	</g>
	<g>
		<g>
			<path d="M32.708,26.878c-2.423,0.536-2.966,3.152-2.052,5.21c0.764,1.72,2.226,3.218,3.372,4.679
				c1.682,2.144,3.39,4.27,5.04,6.438c1.654,2.174,3.178,4.471,2.983,7.318c-0.167,2.439-1.474,4.618-1.801,7.031
				c-0.369,2.717,0.729,5.69,3.724,6.135c0.63,0.094,0.901-0.87,0.266-0.964c-5.304-0.788-2.234-7.24-1.481-10.312
				c0.603-2.457,0.306-4.654-0.907-6.876c-1.361-2.493-3.357-4.685-5.101-6.908c-1.312-1.672-8.906-9.654-3.778-10.788
				C33.602,27.703,33.336,26.739,32.708,26.878L32.708,26.878z"/>
		</g>
	</g>
	<g>
		<g>
			<path d="M33.425,28.28c-2.741-1.127-4.088,2.197-3.667,4.379c0.279,1.443,0.979,2.771,0.944,4.278
				c-0.04,1.703-0.93,3.359-1.986,4.65c-1.652,2.019-3.918,3.398-5.861,5.105c-7.492,6.583-6.942,16.965-6.066,26.018
				c0.061,0.635,1.062,0.641,1,0c-0.815-8.417-1.571-18.321,5.12-24.72c2.684-2.567,6.199-4.358,7.922-7.802
				c0.629-1.258,0.961-2.623,0.836-4.034c-0.053-0.606-0.23-1.172-0.383-1.756c-0.281-1.073-1.853-6.685,1.873-5.153
				C33.754,29.488,34.013,28.521,33.425,28.28L33.425,28.28z"/>
		</g>
	</g>
</g>
</svg>
