<?xml version="1.0" encoding="utf-8"?>
<!-- Generator: Adobe Illustrator 22.0.1, SVG Export Plug-In . SVG Version: 6.00 Build 0)  -->
<svg version="1.1" id="Шар_1" xmlns="http://www.w3.org/2000/svg" xmlns:xlink="http://www.w3.org/1999/xlink" x="0px" y="0px"
	 width="145.323px" height="97.449px" viewBox="0 0 145.323 97.449" enable-background="new 0 0 145.323 97.449"
	 xml:space="preserve">
<title>Ресурс 35</title>
<g id="Шар_2_1_">
	<g id="Шар_1-2">
		<path fill="#EFD5DF" stroke="#000000" stroke-linecap="round" stroke-linejoin="round" d="M137.908,68.464
			c-31.882-8.134-65.587,2.98-86.377,28.485l-7.051-5.426c22.154-27.744,58.213-40.391,92.842-32.561L137.908,68.464z"/>
		<path fill="#EFD5DF" d="M43.053,86.838c19.319-21.013,47.943-33.153,76.356-33.532c5.353-0.083,10.703,0.288,15.993,1.108
			c0.632,0.1,0.817-0.883,0.185-0.983c-28.572-4.501-58.871,4.205-81.525,21.93c-4.218,3.285-8.159,6.911-11.783,10.843
			C41.846,86.682,42.62,87.315,43.053,86.838z"/>
		<path d="M134.177,50.316c0.617-7.769,1.693-15.495,3.222-23.137c0.828-4.217,1.732-8.43,2.572-12.642
			c0.273-1.355,0.543-2.72,0.759-4.086c0.224-0.75,0.299-1.537,0.222-2.315c-0.27-0.742-0.68-0.817-1.152-0.241
			c-0.36,0.386-0.516,1.507-0.671,1.957c-0.393,1.242-0.877,2.453-1.448,3.624c-3.102,6.301-9.798,11.472-16.542,13.351
			c-4.251,1.185-9.032,1.031-12.84-1.361c-4.419-2.787-6.383-7.744-6.316-12.823c0.003-0.576-0.886-0.593-0.998-0.052
			c-1.109,5.724-2.56,12.733-5.987,17.587c-2.822,3.943-8.518,5.835-13.167,6.132c-3.913,0.243-7.087-2.923-9.43-5.678
			c-2.647-3.246-5.029-6.699-7.121-10.328c-1.1-1.824-2.342-5.15-4.176-6.387c-1.422-0.983-1.635,0.712-1.589,1.834
			c0.203,4.885,1.385,9.829,2.132,14.633c0.868,6.303,3.049,14.023-3.619,17.865c-8.799,5.064-19.639,0.453-25.285-7.166
			c-0.276-0.378-0.992-0.182-0.94,0.342c0.554,3.656,1.416,7.258,2.578,10.768c1.299,3.89,2.359,9.581-1.315,12.557
			c-3.167,2.557-8.011,2.638-11.827,2.591c-4.696-0.037-9.316-0.686-13.991,0.037c-0.275,0.024-0.479,0.266-0.455,0.541
			c0.015,0.18,0.127,0.338,0.292,0.413l33.268,15.945c0.58,0.278,1.005-0.632,0.424-0.91l-33.3-15.944l-0.164,0.953
			c5.418-0.844,10.832,0.144,16.277-0.07c3.628-0.149,7.996-0.632,10.728-3.329c2.732-2.697,2.641-7.101,1.857-10.455
			c-1.045-4.451-2.636-8.618-3.339-13.183l-0.94,0.342c4.424,5.956,11.949,10.465,19.524,9.613c4.614-0.509,10.04-2.589,11.7-7.354
			c0.663-2.312,0.8-4.744,0.401-7.116c-0.42-3.816-1.04-7.624-1.621-11.414c-0.397-2.612-0.835-5.219-1.159-7.836
			c-0.092-0.722-0.144-1.448-0.199-2.184c-0.036-0.236-0.03-0.476,0.019-0.709c0.089-0.341-0.327-0.168-0.112-0.044
			c0.844,0.448,1.514,2.024,1.984,2.79c0.986,1.599,1.929,3.225,2.903,4.818c3.325,5.452,8.814,15.447,16.393,15.073
			c4.808-0.239,10.673-2.224,13.754-6.069c1.645-2.088,2.573-4.831,3.464-7.294c1.299-3.633,2.316-7.362,3.04-11.152l-0.998-0.052
			c-0.149,6.726,3.493,13.138,10.185,15.151c5.971,1.786,12.041-0.189,17.125-3.327c5.557-3.228,9.739-8.381,11.756-14.483
			c0.055-0.169,0.869-2.7-0.094-1.807c-0.302,0.28-0.348,2.787-0.427,3.242c-0.664,3.732-1.477,7.433-2.237,11.136
			c-1.934,9.066-3.304,18.243-4.101,27.479c-0.046,0.634,0.937,0.819,0.989,0.172L134.177,50.316z"/>
		
			<ellipse transform="matrix(0.9397 -0.342 0.342 0.9397 -22.4552 5.1243)" fill="#EFD5DF" stroke="#000000" stroke-linecap="round" stroke-linejoin="round" cx="3.306" cy="66.249" rx="2.85" ry="2.44"/>
		
			<ellipse transform="matrix(0.9397 -0.342 0.342 0.9397 -1.1389 21.5425)" fill="#EFD5DF" stroke="#000000" stroke-linecap="round" stroke-linejoin="round" cx="60.529" cy="14.001" rx="2.68" ry="2.3"/>
		
			<ellipse transform="matrix(0.9397 -0.342 0.342 0.9397 -10.8053 12.36)" fill="#EFD5DF" stroke="#000000" stroke-linecap="round" stroke-linejoin="round" cx="29.653" cy="36.826" rx="2.85" ry="2.44"/>
		
			<ellipse transform="matrix(0.9397 -0.342 0.342 0.9397 7.5384 48.7444)" fill="#EFD5DF" stroke="#000000" stroke-linecap="round" stroke-linejoin="round" cx="142.017" cy="2.992" rx="2.85" ry="2.44"/>
		
			<ellipse transform="matrix(0.9397 -0.342 0.342 0.9397 3.3654 35.2082)" fill="#EFD5DF" stroke="#000000" stroke-linecap="round" stroke-linejoin="round" cx="101.539" cy="8.059" rx="2.85" ry="2.44"/>
		<path fill="#EFD5DF" d="M131.328,49.916c0.406-5.741,1.206-11.447,2.394-17.078c1.435-6.907,3.442-13.586,2.719-13.759
			c-0.461-0.098-0.828,2.696-3.816,5.539s-7.825,4.816-11.448,6.294l-0.376,0.137c-4.069,1.481-8.151-0.29-10.401-1.27
			c-3.999-1.766-7.391-4.669-9.753-8.348c-0.983,3.146-1.852,5.761-2.438,7.921c-0.497,1.997-1.429,3.859-2.73,5.452l-0.202,0.233
			c-3.065,3.194-7.283,5.024-11.709,5.08c-1.209-0.014-2.41-0.189-3.573-0.519c-9.654-2.872-15.476-18.227-16.562-17.821
			c-0.677,0.246,1.092,6.424,2.261,15.395c0.891,6.806,0.663,9.336-1.111,11.567c-2.453,2.968-6.547,3.766-8.482,4.151
			c-10.089,1.958-18.106-4.223-19.797-5.566c0.634,1.568,1.063,2.923,1.423,3.909c0.477,1.309,0.852,2.652,1.122,4.019
			c0.236,1.23,0.334,2.482,0.295,3.734c0.04,2.016-0.419,4.01-1.335,5.807c-2.202,3.717-7.604,4.896-9.769,5.321
			c-7.277,1.584-13.018-1.648-13.147-1.388s6.354,3.19,29.293,12.624c3.88-4.166,8.116-7.986,12.659-11.417
			c7.148-5.291,14.908-9.701,23.112-13.135C102.092,47.711,123.543,49.109,131.328,49.916z"/>
		<path fill="#EFD5DF" d="M131.824,49.991c0.638-7.885,1.921-15.705,3.836-23.381c0.388-1.652,0.808-3.306,1.139-4.969
			c0.119-0.607,0.54-1.793,0.28-2.39c-0.33-0.731-0.727-0.8-1.288-0.234c-0.56,0.566-0.886,1.834-1.289,2.512
			c-1.17,1.849-2.731,3.419-4.572,4.601c-3.082,2.092-6.474,3.685-10.051,4.722c-7.11,1.896-15.13-4.146-18.814-9.68
			c-0.159-0.226-0.47-0.281-0.696-0.122c-0.073,0.051-0.131,0.121-0.168,0.203c-1.387,4.346-2.202,9.974-5.349,13.461
			c-3.635,4.047-10.06,6.013-15.253,4.231c-6.677-2.295-10.619-9.384-14.015-15.119c-0.355-0.595-1.286-2.831-2.297-2.569
			c-1.351,0.353-0.079,4.285,0.046,4.953c1.042,4.949,1.798,9.954,2.262,14.99c0.323,4.777-0.91,8.174-5.691,10.095
			c-7.942,3.177-16.877,0.821-23.356-4.409c-0.223-0.172-0.543-0.13-0.715,0.093c-0.101,0.132-0.132,0.305-0.083,0.463
			c2.563,6.516,5.717,16.266-2.2,20.274c-2.941,1.474-6.176,2.269-9.465,2.327c-3.011,0.031-5.571-0.835-8.418-1.609
			c-1.358-0.368-1.629,0.348-0.562,1.088c2.037,1.387,4.787,2.217,7.043,3.183c7.222,3.118,14.503,6.109,21.766,9.106
			c0.208,0.088,0.449,0.035,0.601-0.133c18.562-19.759,44.618-30.975,71.646-31.797c5.035-0.161,10.076,0.013,15.088,0.522
			c0.641,0.065,0.826-0.918,0.185-0.983c-26.12-2.648-52.206,3.748-73.588,19.149c-2.234,1.611-4.386,3.33-6.465,5.13
			c-1.233,1.055-2.412,2.144-3.612,3.262l-1.801,1.719c-0.453,0.452-1.254,1.701-1.818,1.875c-1.305,0.39-4.156-1.478-5.42-1.997
			l-5.555-2.31c-2.792-1.162-5.582-2.335-8.368-3.521c-2.871-1.222-5.775-2.389-8.559-3.781c-0.17-0.087-0.584-0.405-0.783-0.396
			c-0.199,0.009-0.89-0.166-0.574,0.645c0.316,0.811,4.841,1.431,5.473,1.531c5.443,0.892,13.531-0.189,17.214-4.806
			c4.218-5.281,1.289-13.303-0.86-18.767l-0.785,0.562c5.291,4.247,12.21,6.826,19.026,5.846c3.797-0.531,8.161-1.757,10.404-5.127
			c1.835-2.796,1.377-6.45,1.03-9.569c-0.568-5.04-1.67-9.97-2.445-14.966c-0.026-0.503-0.087-1.003-0.183-1.498
			c-0.198-0.545-0.22-0.079-0.009,0.355c0.549,1.099,1.327,2.156,1.961,3.224c3.434,5.752,7.945,12.709,14.957,14.287
			c5.027,0.95,10.208-0.522,13.985-3.972c4.015-3.589,4.883-9.801,6.455-14.693l-0.865,0.081c3.14,4.72,7.844,8.182,13.284,9.777
			c6.11,1.788,13.092-1.572,17.943-5.231c1.966-1.471,4.234-3.776,4.932-6.243c0.056-0.138,0.126-0.269,0.195-0.401
			c-0.481-0.24-0.654-0.102-0.526,0.426c-0.173,0.554-0.276,1.127-0.305,1.707c-0.349,1.702-0.774,3.4-1.19,5.094
			c-1.864,7.543-3.112,15.225-3.73,22.97C130.793,50.462,131.775,50.647,131.824,49.991z"/>
	</g>
</g>
</svg>
