<?xml version="1.0" encoding="utf-8"?>
<!-- Generator: Adobe Illustrator 22.0.1, SVG Export Plug-In . SVG Version: 6.00 Build 0)  -->
<svg version="1.1" id="Шар_1" xmlns="http://www.w3.org/2000/svg" xmlns:xlink="http://www.w3.org/1999/xlink" x="0px" y="0px"
	 width="81.153px" height="76.611px" viewBox="0 0 81.153 76.611" enable-background="new 0 0 81.153 76.611" xml:space="preserve">
<title>Ресурс 43</title>
<g id="Шар_2_1_">
	<g id="Шар_1-2">
		<path fill="none" stroke="#000000" stroke-linecap="round" stroke-linejoin="round" d="M26.415,37.856
			c2.595,2.171,3.592,5.77,3.536,9.192c-0.057,3.422-0.962,6.689-1.541,10.027c-0.857,4.884-1.014,9.865-0.467,14.793
			c0.06,0.905,0.285,1.792,0.665,2.616c0.378,0.833,1.133,1.435,2.029,1.619c0.91,0.068,1.79-0.345,2.319-1.089
			c0.526-0.75,0.797-1.651,0.771-2.567c-0.007-3.076-2.086-5.65-3.748-8.217c-3.14-4.886-4.965-10.5-5.296-16.299
			c-0.177-3.593,0.499-7.177,1.973-10.458c1.11-2.765,2.411-5.876,4.95-6.364c1.506-0.262,2.539,5.763,0.863,6.307
			s-3.231-0.629-5.346-2.093c-1.548-1.164-2.995-2.455-4.327-3.861c-4.278-3.684-10.394-3.182-11.427-3.097
			C7.275,28.732,3.435,30.504,0.5,33.38l1.096,0.177c2.263-0.156,4.363,1.195,5.968,2.786c1.605,1.591,2.892,3.5,4.632,4.957
			s4.101,2.489,6.265,1.725c2.581-0.884,3.769-3.769,4.851-6.265c0.813-2.2,2.034-4.228,3.599-5.975
			c1.608-1.755,3.944-2.657,6.314-2.44c2.846,0.535,4.967,2.93,5.155,5.819c0.055,2.879-1.615,5.512-4.243,6.689
			c-2.649,1.102-5.68,0.748-8.004-0.933"/>
		<path fill="none" stroke="#000000" stroke-linecap="round" stroke-linejoin="round" d="M42.127,25.779
			c2.432,2.348,6.124,2.956,9.482,2.553c3.359-0.403,6.548-1.683,9.793-2.638c4.774-1.389,9.722-2.09,14.694-2.079
			c0.902-0.046,1.805,0.071,2.666,0.346c0.871,0.284,1.554,0.967,1.838,1.838c0.185,0.911-0.13,1.852-0.827,2.468
			c-0.688,0.596-1.547,0.96-2.454,1.039c-3.041,0.339-5.855-1.457-8.591-2.835c-5.178-2.603-10.941-3.826-16.73-3.55
			c-3.59,0.214-7.077,1.278-10.175,3.104c-2.623,1.407-5.579,3.033-5.756,5.643c-0.106,1.52,5.989,1.902,6.357,0.177
			c0.368-1.725-0.983-3.147-2.659-5.091c-1.328-1.409-2.768-2.707-4.306-3.882c-4.13-3.847-4.313-9.97-4.327-11.031
			C31.06,7.737,32.403,3.732,34.936,0.5l0.318,1.096c0.099,2.263,1.655,4.2,3.415,5.621s3.804,2.503,5.459,4.045
			s2.85,3.84,2.355,6.046c-0.608,2.659-3.33,4.165-5.706,5.494c-2.101,1.042-3.983,2.478-5.544,4.228
			c-1.573,1.787-2.22,4.207-1.747,6.541c0.839,2.771,3.45,4.62,6.343,4.49c2.832-0.287,5.225-2.225,6.095-4.936
			c0.794-2.749,0.109-5.713-1.81-7.835"/>
		<path fill="#EFD5DF" d="M34.088,4.559c1.195-0.219,1.414,2.319,5.112,4.787c2.15,1.442,4.653,2.277,5.777,3.953
			c0.626,0.845,0.934,1.884,0.87,2.934c-0.049,0.417-0.247,1.534-2.503,3.62c-2.97,2.758-4.837,3.719-6.053,3.521
			c-2.687-0.481-3.818-4.667-4.405-6.682C31.401,11.319,32.214,4.948,34.088,4.559z"/>
		<path fill="#EFD5DF" d="M4.566,32.058c-0.177,1.237,2.39,1.273,5.084,4.815c1.57,2.065,2.56,4.511,4.299,5.53
			c0.897,0.556,1.961,0.778,3.005,0.629c0.41-0.071,1.513-0.339,3.458-2.722c2.546-3.111,3.422-5.063,3.14-6.251
			c-0.643-2.652-4.95-3.536-6.937-3.995C11.135,28.926,4.827,30.128,4.566,32.058z"/>
	</g>
</g>
</svg>
