<svg xmlns="http://www.w3.org/2000/svg" viewBox="0 0 50.88 60.71" transform="rotate(-90)"><defs><style>.cls-1{fill:#efd5df;}.cls-2{fill:none;stroke:#000;stroke-linecap:round;stroke-linejoin:round;}</style></defs><title>Ресурс 45</title><g id="Шар_2" data-name="Шар 2"><g id="Шар_1-2" data-name="Шар 1"><path class="cls-1" d="M46.78,49.74c-.59,0-1,1.53-1.66,3.63a10.91,10.91,0,0,0-.59,3.6c0,1.13.08,2.74,1.15,3.39a1.75,1.75,0,0,0,1.45.18c.24-.1,1.06-.53,1.22-3.43C48.54,53.79,47.73,49.73,46.78,49.74Z"/><path class="cls-1" d="M42.14,40c-.9.3-3.29-2.06-2.45-3.42A2.15,2.15,0,0,1,42,35.71C43.42,36.26,43.06,39.65,42.14,40Z"/><path class="cls-1" d="M14.23,4.82c.15-.62-1.55-1.34-3.88-2.33A13.47,13.47,0,0,0,6.26,1.3C4.91,1.16,3,1,2,2a1.93,1.93,0,0,0-.59,1.52c.06.28.37,1.22,3.75,1.84C9,6.08,14,5.84,14.23,4.82Z"/><path class="cls-2" d="M12.2,14.66c-.83-.39-.61-1.69.27-2.08a1.8,1.8,0,0,1,2.31.87,2.36,2.36,0,0,1-.63,2.42,4.23,4.23,0,0,1-4.91.78,3.06,3.06,0,0,1-1-4.26C9.5,10.48,12.33,10,14.73,10a37.75,37.75,0,0,1,9.35,1.1,3.5,3.5,0,0,1,2.17,1.16c.84,1.28-.85,3.12-2.56,3.12A4.19,4.19,0,0,1,20,12.74a36.37,36.37,0,0,1-1.17-4.39C17.13,2.59,9.57-.9,3,1A3.47,3.47,0,0,0,.61,2.67C0,4.13,1.82,5.3,3.42,5.73c4.35,1.19,7.13.71,14.49.78,4.81,0,8.06.08,11.59,1.74,1.31.62,6.09,2.87,6.89,7.31a9,9,0,0,1-.78,5.3,31.48,31.48,0,0,1-4.94,7.33A13.33,13.33,0,0,1,26.48,32c-1.76.86-4.17.86-5.31-.48-1.32-1.56-.23-4.08,1.66-5.29.6-.39,1.76-1.32,6.53-1.69,3.64-.28,5.9-.45,8.72.19,1.57.35,7.88,1.77,10.2,6.33,1.76,3.48.49,7.29-1.54,12.93-1.52,4.23-3.36,8.51-3.38,12.87,0,1.52.7,3.42,2.4,3.34a3.5,3.5,0,0,0,2.4-1.6,10.93,10.93,0,0,0-3.07-16,43.49,43.49,0,0,1-4.27-2.29c-1.27-.94-2.2-2.47-1.71-4s2.92-2.43,4-1.32a2.88,2.88,0,0,1,.58,2.22,29.07,29.07,0,0,1-1.55,8.48c-.71,2.09-2,4.43-4.39,5a3.59,3.59,0,0,1-4.18-2.09,3.51,3.51,0,0,1,2.24-4,3,3,0,0,1,2.73.15A1.5,1.5,0,0,1,38.8,47c-.44.43-1.51.27-2.27-.37"/><path class="cls-1" d="M21,11.72c.55-.72,4.15-.27,4.4,1.21A1.87,1.87,0,0,1,24,14.79C22.44,15.18,20.42,12.45,21,11.72Z"/></g></g></svg>