<?xml version="1.0" encoding="UTF-8"?> <!-- Generator: Adobe Illustrator 22.0.1, SVG Export Plug-In . SVG Version: 6.00 Build 0) --> <svg xmlns="http://www.w3.org/2000/svg" xmlns:xlink="http://www.w3.org/1999/xlink" id="Шар_1" x="0px" y="0px" width="50.909px" height="60.723px" viewBox="0 0 50.909 60.723" xml:space="preserve"> <title>Ресурс 45</title> <g id="Шар_2_1_"> <g id="Шар_1-2"> <path fill="#EFD5DF" d="M48.361,3.592c-0.16-2.9-0.98-3.33-1.22-3.43c-0.486-0.154-1.016-0.089-1.45,0.18 c-1.07,0.65-1.15,2.26-1.15,3.39c-0.007,1.225,0.193,2.442,0.59,3.6c0.66,2.1,1.07,3.63,1.66,3.63 C47.741,10.972,48.551,6.912,48.361,3.592z"></path> <path fill="#EFD5DF" d="M42.011,24.992c-0.876,0.225-1.8-0.123-2.31-0.87c-0.84-1.36,1.55-3.72,2.45-3.42 C43.071,21.052,43.431,24.442,42.011,24.992z"></path> <path fill="#EFD5DF" d="M5.171,55.342c-3.38,0.62-3.69,1.56-3.75,1.84c-0.038,0.569,0.178,1.125,0.59,1.52c1,1,2.91,0.84,4.26,0.7 c1.418-0.177,2.798-0.579,4.09-1.19c2.33-0.99,4.03-1.71,3.88-2.33C14.011,54.862,9.011,54.622,5.171,55.342z"></path> <path fill="none" stroke="#000000" stroke-linecap="round" stroke-linejoin="round" d="M36.541,14.072 c0.76-0.64,1.83-0.8,2.27-0.37c0.048,0.052,0.091,0.107,0.131,0.165c0.468,0.684,0.293,1.617-0.391,2.085 c-0.833,0.486-1.849,0.542-2.73,0.15c-1.635-0.594-2.587-2.296-2.24-4c0.687-1.632,2.462-2.52,4.18-2.09 c2.39,0.57,3.68,2.91,4.39,5c0.935,2.734,1.458,5.592,1.55,8.48c0.123,0.788-0.088,1.592-0.58,2.22c-1.08,1.11-3.51,0.21-4-1.32 s0.44-3.06,1.71-4c1.38-0.842,2.805-1.607,4.27-2.29c0.348-0.208,0.683-0.435,1.005-0.681c4.8-3.66,5.725-10.519,2.065-15.319 c-0.533-0.854-1.407-1.436-2.4-1.6c-1.7-0.08-2.4,1.82-2.4,3.34c0.02,4.36,1.86,8.64,3.38,12.87c2.03,5.64,3.3,9.45,1.54,12.93 c-2.32,4.56-8.63,5.98-10.2,6.33c-2.82,0.64-5.08,0.47-8.72,0.19c-4.77-0.37-5.93-1.3-6.53-1.69c-1.89-1.21-2.98-3.73-1.66-5.29 c1.14-1.34,3.55-1.34,5.31-0.48c1.653,0.955,3.082,2.255,4.19,3.81c1.983,2.199,3.646,4.666,4.94,7.33 c0.792,1.647,1.064,3.495,0.78,5.3c-0.8,4.44-5.58,6.69-6.89,7.31c-3.53,1.66-6.78,1.74-11.59,1.74 c-7.36,0.07-10.14-0.41-14.49,0.78c-1.6,0.43-3.42,1.6-2.81,3.06c0.513,0.881,1.387,1.491,2.39,1.67 c6.57,1.9,14.13-1.59,15.83-7.35c0.298-1.486,0.689-2.952,1.17-4.39c0.606-1.527,2.049-2.56,3.69-2.64c1.71,0,3.4,1.84,2.56,3.12 c-0.559,0.637-1.33,1.049-2.17,1.16c-3.059,0.755-6.2,1.125-9.35,1.1c-2.4,0-5.23-0.48-6.49-2.39 c-0.012-0.019-0.024-0.038-0.036-0.058c-0.874-1.447-0.41-3.328,1.036-4.202c1.633-0.831,3.615-0.516,4.91,0.78 c0.655,0.62,0.9,1.559,0.63,2.42c-0.419,0.855-1.431,1.237-2.31,0.87c-0.88-0.39-1.1-1.69-0.27-2.08"></path> <path fill="#EFD5DF" d="M24.011,45.912c0.843,0.219,1.423,0.99,1.4,1.86c-0.25,1.48-3.85,1.93-4.4,1.21 C20.431,48.252,22.451,45.522,24.011,45.912z"></path> </g> </g> </svg> 