<?xml version="1.0" encoding="UTF-8"?> <svg xmlns="http://www.w3.org/2000/svg" viewBox="0 0 46.71 181.51"><g><g><path d="M9.05,6.93C3.74,17.25,13.33,27.29,12,37.78c-.69,5.38-3.68,10.06-5.77,15a25.92,25.92,0,0,0-2,14.12C4.93,72.42,6.86,77.75,8,83.21a120.19,120.19,0,0,1,2.43,18.42,181,181,0,0,1-2.12,37c-2,13.68-5.12,27.17-8.25,40.64-.14.62.82.89,1,.26,5.36-23.1,10.72-46.55,10.62-70.4A132.14,132.14,0,0,0,7,74.8c-1.61-5.93-3-12-1.18-18,1.41-4.75,4.12-9,5.83-13.61,2-5.28,1.69-10.28.09-15.61C9.75,21.08,6.53,14,9.91,7.43c.3-.57-.57-1.07-.86-.5Z"></path><path d="M36.28,8c5.36,10.41-5.06,21.21-2.79,32.05,1,4.63,3.44,8.76,5.32,13.05a27.17,27.17,0,0,1,1.56,17.8c-1.29,5.76-3.06,11.38-4.07,17.22A128.91,128.91,0,0,0,34.59,105,188.24,188.24,0,0,0,37,139.91c2,13.52,5.09,26.86,8.18,40.16.14.63,1.11.36,1-.26C40.54,155.9,35,131.56,35.54,106.86a125.88,125.88,0,0,1,1.73-18.48c1-5.84,2.77-11.45,4.07-17.22C42.49,66.05,42.74,61,41,56c-1.61-4.68-4.31-8.9-5.86-13.6-2.2-6.7-.09-12.64,1.94-19.06,1.63-5.19,2.64-10.78,0-15.82-.29-.57-1.15-.07-.86.51Z"></path><path d="M1,179.75a14.18,14.18,0,0,1,8.47-2.27c2.83.19,5.31,1.37,7.92,2.37,3.71,1.41,7.81,2,10.68-1.34s2.66-8,2.25-12.2a102.34,102.34,0,0,1,.25-18.93c.05-.64-.95-.64-1,0a99.83,99.83,0,0,0-.47,16.67c.39,4.84,1.79,11.88-3.15,15-4.46,2.85-9.6-1.24-14-2.25A15.14,15.14,0,0,0,.51,178.89c-.54.34,0,1.2.5.86Z"></path><path d="M45.48,179.46c-2.37.43-11.79,2.66-12.76-1.31-.23-.94.76-2.59,1-3.53a19.74,19.74,0,0,0,.52-5.68c-.32-7.25-2-14.58-3.57-21.63-.14-.63-1.1-.36-1,.27,1.15,5.2,2.18,10.44,2.92,15.72.54,3.85,1.15,8-.06,11.76-.69,2.15-1.57,4.14,1,5.54,3.33,1.82,8.73.46,12.19-.18.63-.11.37-1.08-.26-1Z"></path><path d="M2,1A36.69,36.69,0,0,0,44.22,2c.53-.36,0-1.23-.51-.87A35.72,35.72,0,0,1,2.48.1C2-.29,1.47.58,2,1Z"></path><path d="M2,.4,0,10c-.13.63.84.9,1,.26l2-9.62C3.07,0,2.1-.24,2,.4Z"></path><path d="M.14,10.5a8.71,8.71,0,0,0,7.78,3.17c.63-.07.64-1.07,0-1A7.83,7.83,0,0,1,.85,9.8c-.41-.5-1.11.21-.71.7Z"></path><path d="M43.77,1.52l2,9.62c.13.63,1.09.37,1-.26l-2-9.63c-.13-.63-1.09-.36-1,.27Z"></path><path d="M45.86,10.66a7.85,7.85,0,0,1-7.08,2.87c-.63-.07-.63.93,0,1a8.72,8.72,0,0,0,7.79-3.17c.4-.49-.31-1.2-.71-.7Z"></path><path d="M32.9,176.75a.5.5,0,0,0,0-1,.5.5,0,0,0,0,1Z"></path></g></g></svg> 