<?xml version="1.0" encoding="UTF-8"?> <svg xmlns="http://www.w3.org/2000/svg" viewBox="0 0 174.25 197.76"><g><g><path d="M.24,186.47a27.32,27.32,0,0,0,11,4.12,18.92,18.92,0,0,0,11.11-2.26c4.65-2.33,8.7-1.94,13.27.49,3.55,1.89,6.91,4.25,11,4.86,8,1.18,15.31-3.64,22.54-6.13,4-1.38,8.32-2.2,12.45-.82s7.19,4.45,11.18,5.9,6.77.38,10.27-1.44c5.2-2.7,11.06-2.55,16.56-.85.62.19.88-.78.27-1a25.18,25.18,0,0,0-12.3-.89c-3.67.72-6.82,3.78-10.56,3.9-4.7.15-8.45-3.35-12.38-5.4a16.56,16.56,0,0,0-9.89-1.84c-8.08,1-14.9,6.25-22.92,7.49-4.86.74-8.92-.83-13.08-3.2-3.38-1.92-6.92-4-11-3.84s-7.07,3-10.9,3.82c-5.65,1.21-11.41-.89-16.18-3.81-.55-.34-1,.53-.5.87Z" transform="translate(0 -0.02)"></path><path d="M94.52,192.83c.54,6.23,8.8,4.92,12.74,3.67,2.42-.77,4.79-1.52,7.37-1.27a33.76,33.76,0,0,1,6.17,1.54c3.23.95,6.45,1.56,9.69.28,3-1.19,5.38-3.46,8.15-5.08,4.14-2.4,8.61-2,13.18-1.48,8,.94,15.44.06,22.2-4.57.53-.36,0-1.23-.5-.86-6.46,4.41-13.63,5.37-21.25,4.48-3.51-.41-7.17-.94-10.64,0-2.74.78-5,2.5-7.31,4.11-3.13,2.19-6.23,3.62-10.13,2.91-3.11-.56-6-1.93-9.16-2.32-3.44-.41-6.46.84-9.7,1.78-3,.87-9.41,1.35-9.81-3.23-.06-.64-1.06-.64-1,0Z" transform="translate(0 -0.02)"></path><path d="M74.49,42.26a36.82,36.82,0,0,0,25.28.91c.61-.2.35-1.17-.27-1a35.88,35.88,0,0,1-24.74-.91c-.6-.24-.86.73-.27,1Z" transform="translate(0 -0.02)"></path><path d="M.74,185.93c9.69-7.36,16.69-17.64,18.53-29.81.88-5.8.61-11.66.95-17.49a118,118,0,0,1,3.15-21c5-20.58,14.87-41.28,29-57.14A89.13,89.13,0,0,1,74.87,42.21a.5.5,0,0,0-.5-.87C57.05,51.26,44.22,66.58,35.1,84.19a155.77,155.77,0,0,0-10.24,24.36A133.74,133.74,0,0,0,19,146.29c-.17,7.86-1.18,15.5-4.82,22.58A48.32,48.32,0,0,1,.24,185.06c-.51.39,0,1.25.5.87Z" transform="translate(0 -0.02)"></path><path d="M174,185.06a45.79,45.79,0,0,1-18.58-34.39c-.38-6.41-.26-12.78-1-19.17a125,125,0,0,0-3.73-18.66c-5.47-19.53-15.19-38.93-28.87-54A89.79,89.79,0,0,0,99.89,41.34a.5.5,0,0,0-.51.87C117,52.3,129.75,68,138.93,85.94a146.15,146.15,0,0,1,10.78,27.17,122,122,0,0,1,3.9,20.15c.66,6.29.42,12.61.93,18.9,1.1,13.78,8.05,25.47,19,33.77.51.38,1-.48.5-.87Z" transform="translate(0 -0.02)"></path><path d="M125.77,126.2c7.37,7.89,4.55,19.94,7.13,29.61,2.09,7.8,6.53,15.06,13.78,19,.57.3,1.07-.56.51-.87-8.17-4.4-12.58-13.13-14.12-22s.15-19.19-6.59-26.41c-.44-.48-1.15.23-.71.7Z" transform="translate(0 -0.02)"></path><path d="M75,42.55c6.27-11.41,1.68-24.24-2.75-35.4-.23-.59-1.2-.33-1,.27,4.31,10.88,9,23.48,2.84,34.63-.31.56.56,1.07.87.5Z" transform="translate(0 -0.02)"></path><path d="M100.19,42.05C94.06,30.9,98.72,18.3,103,7.42c.24-.6-.73-.86-1-.27-4.43,11.16-9,24-2.74,35.4.31.57,1.17.06.86-.5Z" transform="translate(0 -0.02)"></path><path d="M72.3,7.57C74.66,1.34,82.4-.56,87.08,4.38a.51.51,0,0,0,.71,0c4.38-5.29,12.67-3.83,14.28,3,.15.62,1.11.36,1-.27a9.66,9.66,0,0,0-4.31-6C95.81-.55,90.24-.53,88.07,2.57c-.71,1,0,1-.94.47-.56-.3-1-.81-1.58-1.14A9.78,9.78,0,0,0,80.33.46c-4.23.09-7.54,3-9,6.84-.23.61.73.87,1,.27Z" transform="translate(0 -0.02)"></path><path d="M55.9,124.91c-6.16,7.45-4.09,17.27-4.93,26.16-.85,9.13-4.74,18.44-12.78,23.43-.54.34,0,1.21.51.86,7-4.34,11-11.84,12.61-19.75,2-9.79-1.56-21.69,5.29-30,.41-.49-.29-1.2-.7-.7Z" transform="translate(0 -0.02)"></path></g></g></svg> 