<?xml version="1.0" encoding="UTF-8"?> <!-- Generator: Adobe Illustrator 22.0.1, SVG Export Plug-In . SVG Version: 6.00 Build 0) --> <svg xmlns="http://www.w3.org/2000/svg" xmlns:xlink="http://www.w3.org/1999/xlink" id="Шар_1" x="0px" y="0px" width="79.218px" height="224.985px" viewBox="0 0 79.218 224.985" xml:space="preserve"> <g> <g> <g> <path d="M9.892,224.985c17.279,0,34.558,0,51.837,0c2.423,0,4.846,0,7.269,0c0.643,0,0.645-1,0-1c-17.279,0-34.558,0-51.837,0 c-2.423,0-4.846,0-7.269,0C9.248,223.985,9.247,224.985,9.892,224.985L9.892,224.985z"></path> </g> </g> <g> <g> <g> <g> <path d="M65.539,22.875c11.624,9.925,7.863,27.269,2.888,39.583c-3.04,7.527-6.683,14.913-8.374,22.902 c-1.276,6.031-1.274,12.376,0.099,18.393c2.201,9.647,8.315,17.713,12.184,26.688c6.168,14.307,7.051,29.689,4.668,44.952 c-1.291,8.271-3.311,16.413-4.912,24.626c-1.578,8.099-2.781,16.254-3.595,24.466c-0.063,0.64,0.937,0.635,1,0 c1.544-15.567,5.271-30.585,7.991-45.948c2.602-14.699,2.616-29.511-2.376-43.729c-3.484-9.922-10.14-18.449-13.233-28.486 c-1.965-6.376-2.29-13.31-1.031-19.855c1.571-8.162,5.27-15.692,8.38-23.338c5.178-12.727,9.055-30.685-2.981-40.962 C65.759,21.752,65.049,22.456,65.539,22.875L65.539,22.875z"></path> </g> </g> <g> <g> <path d="M12.988,22.168C2.994,30.701,3.87,45.72,7.718,57.081c2.704,7.987,6.68,15.487,9.182,23.548 c2.192,7.063,2.894,14.494,1.447,21.78c-2.031,10.229-8.584,18.686-12.579,28.151c-5.731,13.577-6.837,28.054-4.867,42.561 C2.038,181.497,4.076,189.72,5.731,198c1.743,8.714,3.084,17.481,3.937,26.328c0.061,0.635,1.062,0.641,1,0 c-1.434-14.867-4.763-29.255-7.551-43.894c-2.899-15.226-3.225-30.567,1.969-45.359c3.402-9.688,9.79-18.007,12.996-27.74 c1.721-5.224,2.333-10.831,1.923-16.311c-0.592-7.904-3.635-15.318-6.684-22.543C7.547,54.795-0.052,34.612,13.695,22.875 C14.185,22.457,13.475,21.752,12.988,22.168L12.988,22.168z"></path> </g> </g> <g> <g> <path d="M65.915,21.994c-16.11,2.419-29.208,16.212-30.938,32.38c-0.068,0.639,0.932,0.634,1,0 c1.686-15.757,14.563-29.067,30.204-31.416C66.815,22.864,66.545,21.9,65.915,21.994L65.915,21.994z"></path> </g> </g> </g> <g> <g> <path d="M12.679,23.612c5.755-1.304,11.847-0.499,16.965,2.502c4.708,2.761,8.071,7.223,11.86,11.042 c0.454,0.458,1.161-0.25,0.707-0.707c-4.243-4.277-7.985-9.241-13.5-11.973c-5.062-2.507-10.813-3.071-16.298-1.828 C11.786,22.79,12.052,23.754,12.679,23.612L12.679,23.612z"></path> </g> </g> <g> <g> <path d="M66.604,21.865C66.32,14.344,68.283,7.09,72.32,0.738c0.346-0.545-0.519-1.047-0.863-0.505 c-4.124,6.49-6.142,13.948-5.852,21.632C65.628,22.507,66.628,22.51,66.604,21.865L66.604,21.865z"></path> </g> </g> <g> <g> <path d="M13.369,21.865c0.29-7.684-1.728-15.142-5.852-21.632c-0.344-0.542-1.21-0.041-0.863,0.505 c4.038,6.353,6,13.605,5.716,21.127C12.345,22.509,13.345,22.508,13.369,21.865L13.369,21.865z"></path> </g> </g> </g> </g> </svg> 