<?xml version="1.0" encoding="UTF-8"?> <svg xmlns="http://www.w3.org/2000/svg" viewBox="0 0 114.52 187.81"><g><g><path d="M70.66,8.21c3.14,2.91,4.3,6.45,2.81,10.51-.8,2.16-1.89,4.23-2.48,6.47A44.32,44.32,0,0,0,69.5,36.86c.12,5.11,1.72,10.38,3,15.3,5.83,23.22,13.47,46,21.24,68.64q9.54,27.81,20,55.29l.35-.62a97.6,97.6,0,0,1-11.21,2.39,19.79,19.79,0,0,0-6.94,2.92,4.57,4.57,0,0,1-4.84,0,6.16,6.16,0,0,0-3.45-.85,4.4,4.4,0,0,0-2.24.95c-1.74,1.34-3,2.62-5.36,2.65-3.39,0-6.25-.9-9.61.3-4.36,1.56-8.32,3-13,2.95a36.22,36.22,0,0,1-19.13-5.51c-.55-.34-1.05.52-.51.86a37.51,37.51,0,0,0,17.16,5.56,30.53,30.53,0,0,0,13.19-1.84,19.7,19.7,0,0,1,6-1.77,47.82,47.82,0,0,1,5.35.43,7.62,7.62,0,0,0,4-.8c1.35-.7,2.29-2.25,3.75-2.68,2.87-.86,5.11,2.4,8.18,1.2,1.35-.54,2.46-1.65,3.79-2.27a15.76,15.76,0,0,1,4-1.16,102,102,0,0,0,11.21-2.39.52.52,0,0,0,.35-.62C103.19,145.52,92.31,115,82.66,84c-3.11-10-6.11-20-8.73-30.13-1.39-5.41-3.14-11.13-3.42-16.76a39,39,0,0,1,1.55-12.08c.88-3.06,2.85-5.92,3.15-9.14S73.74,9.7,71.37,7.51c-.47-.44-1.18.26-.71.7Z" transform="translate(-0.14)"></path><path d="M44.21,7.19c-4,4-5,8.21-3.07,13.43C43,25.69,44.38,30.74,44.29,36.2c-.08,4.87-1.8,9.95-3,14.61-6.17,23.19-13.87,46-21.53,68.74Q10.21,147.78.16,175.82a.52.52,0,0,0,.35.62c4.19,1.25,8.48,1.93,12.63,3.29a6,6,0,0,0,4,0c2.15-.77,3.39-2.51,5.85-1.09,1.44.84,2.31,2,4.08,2.27s2.53-.52,3.95-1.05c1.7-.64,2.71-.12,4.09.74C37.05,181.83,39,183,41,184c.57.3,1.08-.56.51-.86-2-1.06-3.95-2.19-5.87-3.39a7.44,7.44,0,0,0-2.3-1.12c-1.44-.3-2.38.24-3.63.79-3,1.34-4.27-.66-6.64-1.9-3.44-1.79-5.76,2.29-9.22,1.37-2.14-.58-4.11-1.38-6.3-1.79a65.47,65.47,0,0,1-6.77-1.65l.35.62C11.9,145.9,22.4,115.59,32.1,85c3.17-10,6.28-20,9.08-30.15,1.54-5.55,3.25-11.21,4-16.94a31.39,31.39,0,0,0-.68-10.08c-.71-3.36-2.21-6.41-3.1-9.71-1.08-4,.68-7.44,3.55-10.25.46-.45-.25-1.16-.71-.71Z" transform="translate(-0.14)"></path><path d="M44.66,36.36a56.83,56.83,0,0,0,25.49,0c.62-.15.36-1.11-.27-1a55.5,55.5,0,0,1-25,0c-.62-.14-.89.82-.26,1Z" transform="translate(-0.14)"></path><path d="M44.82,39.53a48.25,48.25,0,0,0,25.16,0,.5.5,0,0,0-.27-1,47.16,47.16,0,0,1-24.62,0,.5.5,0,0,0-.27,1Z" transform="translate(-0.14)"></path><path d="M22.82,177.62a105.25,105.25,0,0,0,12-43.33c0-.65-1-.64-1,0A104.2,104.2,0,0,1,22,177.12c-.3.57.56,1.07.86.5Z" transform="translate(-0.14)"></path><path d="M55.23,41.05c-.78,37.17-2.95,74.59-7.93,111.45-1.35,10-3.38,20-7.62,29.2-.26.58.6,1.09.87.5,7.28-15.84,8.41-33.82,10.16-50.93q2.92-28.76,4.37-57.63.81-16.29,1.15-32.59a.5.5,0,0,0-1,0Z" transform="translate(-0.14)"></path><path d="M56.44,40.91c.85,19.85,1.82,39.81,4.32,59.53a255.31,255.31,0,0,0,4.75,26.76c2,8.49,4.78,16.73,7.48,25a147.49,147.49,0,0,0,12.49,29.12.5.5,0,0,0,.87-.51,138.2,138.2,0,0,1-11.62-26.52c-2.66-8-5.39-16-7.47-24.21-4.66-18.34-6.67-37.19-8-56q-1.14-16.57-1.86-33.17c0-.64-1-.65-1,0Z" transform="translate(-0.14)"></path><path d="M83.08,133.44a.5.5,0,0,0,0-1,.5.5,0,0,0,0,1Z" transform="translate(-0.14)"></path><path d="M99.85,179.48A72.76,72.76,0,0,1,83.94,137.2c0-.64-1-.64-1,0a73.91,73.91,0,0,0,16.2,43c.41.5,1.11-.21.71-.71Z" transform="translate(-0.14)"></path><path d="M45,8.15a46.88,46.88,0,0,0,26.2.19.5.5,0,0,0-.27-1,45.89,45.89,0,0,1-25.66-.19.5.5,0,0,0-.27,1Z" transform="translate(-0.14)"></path><path d="M45.19,7.74a8.83,8.83,0,0,0-1-7.27c-.34-.54-1.2,0-.86.5a7.86,7.86,0,0,1,.91,6.51.5.5,0,0,0,1,.26Z" transform="translate(-0.14)"></path><path d="M71.45,7.61a8.61,8.61,0,0,1-.31-7c.23-.6-.74-.86-1-.26a9.5,9.5,0,0,0,.41,7.77c.28.58,1.14.07.86-.5Z" transform="translate(-0.14)"></path></g></g></svg> 