<?xml version="1.0" encoding="UTF-8"?> <svg xmlns="http://www.w3.org/2000/svg" viewBox="0 0 74.88 186.47"><g><g><path d="M23.63,12.86c-3.37,6.14-1.1,11.4,1,17.44,2.67,7.55-.41,15.39-3.59,22.24a79.4,79.4,0,0,0-6.37,20.29c-1.28,7.61-1.77,15.33-2.35,23-.81,10.94-1.75,21.86-3.14,32.74C7,145.9,3.83,163.09,0,180.13c-.14.63.83.89,1,.27a561.25,561.25,0,0,0,12-79.57c1.15-15,1.48-30.56,7.5-44.58,2.77-6.44,6.22-12.67,6.16-19.88,0-3.59-1.14-6.53-2.4-9.82-1.7-4.45-2.13-8.85.25-13.18.31-.56-.56-1.07-.87-.51Z"></path><path d="M74,179.91c-1.46,1.84-3.34,3.56-5.81,3.74-1.71.14-3.09-.68-4.62-1.28a8.26,8.26,0,0,0-7.33.38c-1.6.91-2.88,2.1-4.74,2.52a11.15,11.15,0,0,1-7.14-1.15,16.08,16.08,0,0,1-5-3.27c-1-1-1.34-2.44-2.42-3.3-1.89-1.51-4.76-1-6.72.06-3.82,2.08-5.94,5.75-10.87,5.36a11.13,11.13,0,0,1-6.45-2.69,7.81,7.81,0,0,0-2.94-2c-3.15-1-6.69.34-9.58,1.53-.58.24-.33,1.21.27,1A20.25,20.25,0,0,1,7.08,179c2.62-.13,3.76,1,5.63,2.49a12.13,12.13,0,0,0,8.89,2.46c3.91-.52,5.85-3.68,9.11-5.43,2-1.09,4.71-1.4,6.25.62.93,1.21,1.39,2.39,2.68,3.37a18.71,18.71,0,0,0,8.68,3.92,9.65,9.65,0,0,0,4.93-.63c1.47-.62,2.62-1.74,4-2.43,3.82-1.84,6.17.85,9.71,1.29,3.19.39,5.86-1.64,7.74-4,.39-.5-.31-1.22-.71-.71Z"></path><path d="M25.55,33a30,30,0,0,0,23.62.31c.59-.25.33-1.21-.27-1a29.1,29.1,0,0,1-22.85-.2c-.58-.26-1.09.6-.5.86Z"></path><path d="M50.39,13.37a14.25,14.25,0,0,1,.71,11.89c-.93,2.74-2.25,5.25-2.65,8.14-1,6.84,1.52,13.25,4.34,19.34a79.67,79.67,0,0,1,6.48,20.73c1.3,7.88,1.76,15.88,2.36,23.84.82,11,1.82,22.06,3.26,33.05,2.21,16.81,5.3,33.49,9,50,.14.62,1.11.36,1-.27A562.83,562.83,0,0,1,62.78,99.3c-1.11-14.63-1.6-29.7-7.45-43.38C52.14,48.46,48,41.1,49.57,32.67c.65-3.43,2.58-6.47,3.26-9.91a14.42,14.42,0,0,0-1.58-9.9c-.31-.56-1.17-.06-.86.51Z"></path><path d="M24.2,13.6a13.48,13.48,0,0,1,13.17,2.29A.53.53,0,0,0,38,16a21,21,0,0,1,12.84-2.34c.63.08.63-.92,0-1a21.67,21.67,0,0,0-7.7.32A22.43,22.43,0,0,0,39.66,14a8.54,8.54,0,0,1-1.71.8c-.3,0-.29-.12-.6-.25-.91-.36-1.75-1.15-2.67-1.56a14,14,0,0,0-4.06-1.15,14.51,14.51,0,0,0-6.69.76c-.6.21-.34,1.17.27,1Z"></path><path d="M24.31,12.86c-1.74-2.64-3.67-5.7-4.26-8.85-.26-1.42.08-2.92,1.89-3,1.16,0,2.18,1.15,2.77,2,1.77,2.57,2.33,6,2.65,9,.07.63,1.07.64,1,0C28,8.59,27.38,4.53,25,1.8,23.76.33,21.12-.91,19.55.91c-1.4,1.6-.28,4.39.41,6a38.34,38.34,0,0,0,3.49,6.42c.36.53,1.22,0,.86-.51Z"></path><path d="M51,14.25a40.3,40.3,0,0,0,3.79-5.7c.9-1.68,2.45-4.55,1.19-6.42S52.24,1,50.86,2.07c-2.92,2.36-4,6.83-4.61,10.31-.12.63.85.9,1,.26A21.4,21.4,0,0,1,50.1,4.43c.72-1.06,1.8-2.31,3.19-2.41,2-.16,2.23,1.32,2,2.7-.64,3.19-3,6.3-5,8.82-.39.51.31,1.22.7.71Z"></path></g></g></svg> 