<?xml version="1.0" encoding="UTF-8"?> <svg xmlns="http://www.w3.org/2000/svg" height="512pt" viewBox="-54 0 512 512" width="512pt" fill="#f9c268"><path d="m133.105469 117.949219 23.492187-18.660157c-.027344-.035156-3.070312-4.171874-4.589844-9.882812-2.003906-7.527344-.566406-13.972656 4.519532-20.273438 21.617187-26.796874 7.945312-56.9375-2.300782-69.132812l-22.96875 19.304688c.035157.039062 3.613282 4.539062 5.566407 10.769531 2.417969 7.714843 1.261719 14.136719-3.644531 20.222656-21.445313 26.582031-9.425782 55.875-.074219 67.652344zm0 0"></path><path d="m198.765625 117.949219 23.492187-18.660157c-.027343-.035156-3.070312-4.171874-4.589843-9.882812-2.003907-7.527344-.566407-13.972656 4.519531-20.273438 21.617188-26.796874 7.945312-56.9375-2.304688-69.132812l-22.964843 19.304688-.082031-.097657c1.390624 1.714844 13.25 17.140625 2 31.085938-21.445313 26.582031-9.421876 55.878906-.070313 67.65625zm0 0"></path><path d="m359.699219 253.257812h-29.453125v-26.332031h16.757812v-90.402343h-347.003906v90.402343h16.761719v198.542969c0 47.710938 38.808593 86.53125 86.519531 86.53125h140.441406c47.710938 0 86.523438-38.820312 86.523438-86.53125v-22.875h29.453125c24.183593 0 43.859375-19.675781 43.859375-43.859375v-61.613281c0-24.183594-19.675782-43.863282-43.859375-43.863282zm-329.699219-86.734374h287.003906v30.402343h-287.003906zm270.242188 258.945312c0 31.171875-25.347657 56.53125-56.519532 56.53125h-140.441406c-31.171875 0-56.519531-25.359375-56.519531-56.53125v-198.542969h253.480469zm73.316406-66.734375c0 7.644531-6.21875 13.859375-13.859375 13.859375h-29.453125v-89.335938h29.453125c7.640625 0 13.859375 6.21875 13.859375 13.859376zm0 0"></path><path d="m119.835938 317.925781h107.335937v30.003907h-107.335937zm0 0"></path></svg> 