<?xml version="1.0" encoding="UTF-8"?> <svg xmlns="http://www.w3.org/2000/svg" height="512pt" viewBox="-55 0 511 512" width="512pt" fill="#f9c268"><path d="m366.363281 300.945312c8.902344-9.777343 14.101563-22.6875 14.101563-36.503906l-.234375-21.683594-9.300781-3.734374c-23.074219-9.265626-32.195313-38.738282-33.972657-45.324219v-58.199219c0-74.714844-60.785156-135.5-135.5-135.5-74.714843 0-135.5 60.785156-135.5 135.5v58.191406c-1.789062 6.574219-10.996093 36.105469-33.972656 45.332032l-9.296875 3.734374-.234375 21.515626-.003906.164062c0 13.820312 5.199219 26.726562 14.101562 36.507812-22.15625 20.523438-36.050781 49.84375-36.050781 82.355469v128.699219h401.910156v-128.699219c.003906-32.511719-13.890625-61.832031-36.046875-82.355469zm-15.898437-36.429687c-.023438 7.488281-3.46875 14.367187-9.136719 18.875-9.003906-4.632813-18.71875-8.082031-28.925781-10.144531 6.570312-9.355469 11.988281-19.570313 16.046875-30.445313 5.796875 7.316407 13.027343 14.222657 21.988281 19.488281zm-147.332032-108.59375c13.351563 0 25.476563-5.335937 34.371094-13.980469 8.898438 8.640625 21.019532 13.980469 34.371094 13.980469h35.082031v39.625c0 58.175781-47.328125 105.5-105.5 105.5s-105.5-47.324219-105.5-105.5v-39.625zm-76.269531 152.6875c17.46875 11.5625 37.753907 19.1875 59.59375 21.605469v2.464844c0 16.429687-13.367187 29.796874-29.796875 29.796874-16.429687 0-29.796875-13.367187-29.796875-29.796874zm89.59375 21.605469c21.839844-2.417969 42.125-10.042969 59.59375-21.605469v24.070313c0 16.429687-13.367187 29.796874-29.796875 29.796874-16.429687 0-29.796875-13.367187-29.796875-29.796874zm-15-300.214844c54.941407 0 100.203125 42.21875 105.058594 95.921875h-34.640625c-10.679688 0-19.371094-8.691406-19.371094-19.371094v-16.015625h-30v16.015625c0 10.679688-8.6875 19.371094-19.371094 19.371094h-106.734374c4.855468-53.703125 50.117187-95.921875 105.058593-95.921875zm-149.007812 234.515625.027343-2.230469c8.957032-5.261718 16.1875-12.167968 21.984376-19.484375 4.0625 10.875 9.480468 21.089844 16.050781 30.445313-10.210938 2.0625-19.921875 5.511718-28.929688 10.144531-5.664062-4.507813-9.109375-11.386719-9.132812-18.875zm319.964843 217.484375h-341.914062v-98.699219c0-39.921875 28.589844-73.28125 66.363281-80.71875v30.097657c0 32.972656 26.824219 59.796874 59.796875 59.796874 17.820313 0 33.832032-7.84375 44.796875-20.25 10.964844 12.40625 26.976563 20.25 44.796875 20.25 32.972656 0 59.796875-26.824218 59.796875-59.796874v-30.097657c37.777344 7.4375 66.363281 40.796875 66.363281 80.71875zm0 0"></path></svg> 